  0
SECTION
  2
HEADER
  9
$ANGBASE
  50
0.0
  9
$ANGDIR
  70
1
  9
$MEASUREMENT
  70
1
  0
ENDSEC
  0
SECTION
  2
TABLES
  0
TABLE
  2
LTYPE
  70
4
  0
LTYPE
  5
40F
  2
CONTINUOUS
  70
0
  3
Solid line
  72
65
  73
0
  40
0.0
  0
LTYPE
  5
410
  2
DASHDOT
 70
0
  3
Dash Dot ____ _ ____ _
 72
65
 73
4
 40
2.0
 49
1.25
 49
-0.25
 49
0.25
 49
-0.25
  0
LTYPE
  5
411
  2
DASHED
 70
0
  3
Dashed __ __ __ __ __
 72
65
 73
2
 40
0.75
 49
0.5
 49
-0.25
  0
LTYPE
  5
43B
  2
DOTTED
 70
0
  3
Dotted .  .  .  .
 72
65
 73
2
 40
0.2
 49
0.0
 49
-0.2
  0
ENDTAB
  0
TABLE
  2
STYLE
  70
4
  0
STYLE
  2
KICAD
  70
0
  40
0
  41
1
  42
1
  50
0
  71
0
  3
isocp.shx
  0
STYLE
  2
KICADB
  70
0
  40
0
  41
1
  42
1
  50
0
  71
0
  3
isocp.shx
  0
STYLE
  2
KICADI
  70
0
  40
0
  41
1
  42
1
  50
15
  71
0
  3
isocp.shx
  0
STYLE
  2
KICADBI
  70
0
  40
0
  41
1
  42
1
  50
15
  71
0
  3
isocp.shx
  0
ENDTAB
  0
TABLE
  2
LAYER
  70
1
  0
LAYER
  2
BLACK
  70
0
  62
7
  6
CONTINUOUS
  0
ENDTAB
  0
ENDSEC
  0
SECTION
  2
ENTITIES
0
LINE
8
BLACK
6
CONTINUOUS
10
152.7691339999999798
20
-69.5955060000000003
11
152.7853549999999814
21
-69.6063449999999904
0
LINE
8
BLACK
6
CONTINUOUS
10
152.7853549999999814
20
-69.6063449999999904
11
153.2853549999999814
21
-70.1063449999999904
0
LINE
8
BLACK
6
CONTINUOUS
10
153.2853549999999814
20
-70.1063449999999904
11
153.2961939999999856
21
-70.122565999999992
0
LINE
8
BLACK
6
CONTINUOUS
10
153.2961939999999856
20
-70.122565999999992
11
153.2961939999999856
21
-70.1608339999999941
0
LINE
8
BLACK
6
CONTINUOUS
10
153.2961939999999856
20
-70.1608339999999941
11
153.2691339999999798
21
-70.187894
0
LINE
8
BLACK
6
CONTINUOUS
10
153.2691339999999798
20
-70.187894
11
153.25
21
-70.1916999999999973
0
LINE
8
BLACK
6
CONTINUOUS
10
153.25
20
-70.1916999999999973
11
152.25
21
-70.1916999999999973
0
LINE
8
BLACK
6
CONTINUOUS
10
152.25
20
-70.1916999999999973
11
152.2308659999999918
21
-70.187894
0
LINE
8
BLACK
6
CONTINUOUS
10
152.2308659999999918
20
-70.187894
11
152.2038059999999859
21
-70.1608339999999941
0
LINE
8
BLACK
6
CONTINUOUS
10
152.2038059999999859
20
-70.1608339999999941
11
152.2038059999999859
21
-70.122565999999992
0
LINE
8
BLACK
6
CONTINUOUS
10
152.2038059999999859
20
-70.122565999999992
11
152.2146449999999902
21
-70.1063449999999904
0
LINE
8
BLACK
6
CONTINUOUS
10
152.2146449999999902
20
-70.1063449999999904
11
152.7146449999999902
21
-69.6063449999999904
0
LINE
8
BLACK
6
CONTINUOUS
10
152.7146449999999902
20
-69.6063449999999904
11
152.7308659999999918
21
-69.5955060000000003
0
LINE
8
BLACK
6
CONTINUOUS
10
152.7308659999999918
20
-69.5955060000000003
11
152.7691339999999798
21
-69.5955060000000003
0
LINE
8
BLACK
6
CONTINUOUS
10
152.3707100000000025
20
-70.091700000000003
11
153.1292899999999975
21
-70.091700000000003
0
LINE
8
BLACK
6
CONTINUOUS
10
153.1292899999999975
20
-70.091700000000003
11
152.75
21
-69.7124099999999913
0
LINE
8
BLACK
6
CONTINUOUS
10
152.75
20
-69.7124099999999913
11
152.3707100000000025
21
-70.091700000000003
0
LINE
8
BLACK
6
CONTINUOUS
10
147.5191339999999798
20
-67.3705059999999918
11
147.5461939999999856
21
-67.3975659999999976
0
LINE
8
BLACK
6
CONTINUOUS
10
147.5461939999999856
20
-67.3975659999999976
11
147.5499999999999829
21
-67.4166999999999916
0
LINE
8
BLACK
6
CONTINUOUS
10
147.5499999999999829
20
-67.4166999999999916
11
147.5499999999999829
21
-68.966700000000003
0
LINE
8
BLACK
6
CONTINUOUS
10
147.5499999999999829
20
-68.966700000000003
11
153.9499999999999886
21
-68.966700000000003
0
LINE
8
BLACK
6
CONTINUOUS
10
153.9499999999999886
20
-68.966700000000003
11
153.9499999999999886
21
-67.4166999999999916
0
LINE
8
BLACK
6
CONTINUOUS
10
153.9499999999999886
20
-67.4166999999999916
11
153.9538059999999859
21
-67.3975659999999976
0
LINE
8
BLACK
6
CONTINUOUS
10
153.9538059999999859
20
-67.3975659999999976
11
153.9808659999999918
21
-67.3705059999999918
0
LINE
8
BLACK
6
CONTINUOUS
10
153.9808659999999918
20
-67.3705059999999918
11
154.
21
-67.3666999999999945
0
LINE
8
BLACK
6
CONTINUOUS
10
154.
20
-67.3666999999999945
11
154.6999999999999886
21
-67.3666999999999945
0
LINE
8
BLACK
6
CONTINUOUS
10
154.6999999999999886
20
-67.3666999999999945
11
154.7191339999999968
21
-67.3705059999999918
0
LINE
8
BLACK
6
CONTINUOUS
10
154.7191339999999968
20
-67.3705059999999918
11
154.7461940000000027
21
-67.3975659999999976
0
LINE
8
BLACK
6
CONTINUOUS
10
154.7461940000000027
20
-67.3975659999999976
11
154.75
21
-67.4166999999999916
0
LINE
8
BLACK
6
CONTINUOUS
10
154.75
20
-67.4166999999999916
11
154.75
21
-75.0167000000000002
0
LINE
8
BLACK
6
CONTINUOUS
10
154.75
20
-75.0167000000000002
11
154.7461940000000027
21
-75.0358339999999941
0
LINE
8
BLACK
6
CONTINUOUS
10
154.7461940000000027
20
-75.0358339999999941
11
154.7191339999999968
21
-75.062894
0
LINE
8
BLACK
6
CONTINUOUS
10
154.7191339999999968
20
-75.062894
11
154.6999999999999886
21
-75.0666999999999973
0
LINE
8
BLACK
6
CONTINUOUS
10
154.6999999999999886
20
-75.0666999999999973
11
146.7999999999999829
21
-75.0666999999999973
0
LINE
8
BLACK
6
CONTINUOUS
10
146.7999999999999829
20
-75.0666999999999973
11
146.7808660000000032
21
-75.062894
0
LINE
8
BLACK
6
CONTINUOUS
10
146.7808660000000032
20
-75.062894
11
146.7538059999999973
21
-75.0358339999999941
0
LINE
8
BLACK
6
CONTINUOUS
10
146.7538059999999973
20
-75.0358339999999941
11
146.75
21
-75.0167000000000002
0
LINE
8
BLACK
6
CONTINUOUS
10
146.75
20
-75.0167000000000002
11
146.75
21
-67.4166999999999916
0
LINE
8
BLACK
6
CONTINUOUS
10
146.75
20
-67.4166999999999916
11
146.7538059999999973
21
-67.3975659999999976
0
LINE
8
BLACK
6
CONTINUOUS
10
146.7538059999999973
20
-67.3975659999999976
11
146.7808660000000032
21
-67.3705059999999918
0
LINE
8
BLACK
6
CONTINUOUS
10
146.7808660000000032
20
-67.3705059999999918
11
146.7999999999999829
21
-67.3666999999999945
0
LINE
8
BLACK
6
CONTINUOUS
10
146.7999999999999829
20
-67.3666999999999945
11
147.5
21
-67.3666999999999945
0
LINE
8
BLACK
6
CONTINUOUS
10
147.5
20
-67.3666999999999945
11
147.5191339999999798
21
-67.3705059999999918
0
LINE
8
BLACK
6
CONTINUOUS
10
146.8499999999999943
20
-67.466700000000003
11
146.8499999999999943
21
-74.966700000000003
0
LINE
8
BLACK
6
CONTINUOUS
10
146.8499999999999943
20
-74.966700000000003
11
154.6500000000000057
21
-74.966700000000003
0
LINE
8
BLACK
6
CONTINUOUS
10
154.6500000000000057
20
-74.966700000000003
11
154.6500000000000057
21
-67.466700000000003
0
LINE
8
BLACK
6
CONTINUOUS
10
154.6500000000000057
20
-67.466700000000003
11
154.0499999999999829
21
-67.466700000000003
0
LINE
8
BLACK
6
CONTINUOUS
10
154.0499999999999829
20
-67.466700000000003
11
154.0499999999999829
21
-69.0167000000000002
0
LINE
8
BLACK
6
CONTINUOUS
10
154.0499999999999829
20
-69.0167000000000002
11
154.0461939999999856
21
-69.0358339999999941
0
LINE
8
BLACK
6
CONTINUOUS
10
154.0461939999999856
20
-69.0358339999999941
11
154.0191339999999798
21
-69.062894
0
LINE
8
BLACK
6
CONTINUOUS
10
154.0191339999999798
20
-69.062894
11
154.
21
-69.0666999999999973
0
LINE
8
BLACK
6
CONTINUOUS
10
154.
20
-69.0666999999999973
11
147.5
21
-69.0666999999999973
0
LINE
8
BLACK
6
CONTINUOUS
10
147.5
20
-69.0666999999999973
11
147.4808659999999918
21
-69.062894
0
LINE
8
BLACK
6
CONTINUOUS
10
147.4808659999999918
20
-69.062894
11
147.4538059999999859
21
-69.0358339999999941
0
LINE
8
BLACK
6
CONTINUOUS
10
147.4538059999999859
20
-69.0358339999999941
11
147.4499999999999886
21
-69.0167000000000002
0
LINE
8
BLACK
6
CONTINUOUS
10
147.4499999999999886
20
-69.0167000000000002
11
147.4499999999999886
21
-67.466700000000003
0
LINE
8
BLACK
6
CONTINUOUS
10
147.4499999999999886
20
-67.466700000000003
11
146.8499999999999943
21
-67.466700000000003
0
LINE
8
BLACK
6
CONTINUOUS
10
150.0191339999999798
20
-48.0788060000000002
11
150.0461939999999856
21
-48.1058659999999989
0
LINE
8
BLACK
6
CONTINUOUS
10
150.0461939999999856
20
-48.1058659999999989
11
150.0461939999999856
21
-48.1441340000000011
0
LINE
8
BLACK
6
CONTINUOUS
10
150.0461939999999856
20
-48.1441340000000011
11
150.0353549999999814
21
-48.1603549999999956
0
LINE
8
BLACK
6
CONTINUOUS
10
150.0353549999999814
20
-48.1603549999999956
11
149.5353549999999814
21
-48.6603549999999956
0
LINE
8
BLACK
6
CONTINUOUS
10
149.5353549999999814
20
-48.6603549999999956
11
149.5191339999999798
21
-48.6711939999999998
0
LINE
8
BLACK
6
CONTINUOUS
10
149.5191339999999798
20
-48.6711939999999998
11
149.4808659999999918
21
-48.6711939999999998
0
LINE
8
BLACK
6
CONTINUOUS
10
149.4808659999999918
20
-48.6711939999999998
11
149.4646449999999902
21
-48.6603549999999956
0
LINE
8
BLACK
6
CONTINUOUS
10
149.4646449999999902
20
-48.6603549999999956
11
148.9646449999999902
21
-48.1603549999999956
0
LINE
8
BLACK
6
CONTINUOUS
10
148.9646449999999902
20
-48.1603549999999956
11
148.9538059999999859
21
-48.1441340000000011
0
LINE
8
BLACK
6
CONTINUOUS
10
148.9538059999999859
20
-48.1441340000000011
11
148.9538059999999859
21
-48.1058659999999989
0
LINE
8
BLACK
6
CONTINUOUS
10
148.9538059999999859
20
-48.1058659999999989
11
148.9808659999999918
21
-48.0788060000000002
0
LINE
8
BLACK
6
CONTINUOUS
10
148.9808659999999918
20
-48.0788060000000002
11
149.
21
-48.0749999999999957
0
LINE
8
BLACK
6
CONTINUOUS
10
149.
20
-48.0749999999999957
11
150.
21
-48.0749999999999957
0
LINE
8
BLACK
6
CONTINUOUS
10
150.
20
-48.0749999999999957
11
150.0191339999999798
21
-48.0788060000000002
0
LINE
8
BLACK
6
CONTINUOUS
10
149.1207100000000025
20
-48.1749999999999972
11
149.5
21
-48.5542899999999946
0
LINE
8
BLACK
6
CONTINUOUS
10
149.5
20
-48.5542899999999946
11
149.8792899999999975
21
-48.1749999999999972
0
LINE
8
BLACK
6
CONTINUOUS
10
149.8792899999999975
20
-48.1749999999999972
11
149.1207100000000025
21
-48.1749999999999972
0
LINE
8
BLACK
6
CONTINUOUS
10
153.4691339999999968
20
-43.2038060000000002
11
153.4961940000000027
21
-43.2308659999999989
0
LINE
8
BLACK
6
CONTINUOUS
10
153.4961940000000027
20
-43.2308659999999989
11
153.5
21
-43.25
0
LINE
8
BLACK
6
CONTINUOUS
10
153.5
20
-43.25
11
153.5
21
-50.8499999999999943
0
LINE
8
BLACK
6
CONTINUOUS
10
153.5
20
-50.8499999999999943
11
153.4961940000000027
21
-50.8691339999999954
0
LINE
8
BLACK
6
CONTINUOUS
10
153.4961940000000027
20
-50.8691339999999954
11
153.4691339999999968
21
-50.8961939999999942
0
LINE
8
BLACK
6
CONTINUOUS
10
153.4691339999999968
20
-50.8961939999999942
11
153.4499999999999886
21
-50.8999999999999986
0
LINE
8
BLACK
6
CONTINUOUS
10
153.4499999999999886
20
-50.8999999999999986
11
152.75
21
-50.8999999999999986
0
LINE
8
BLACK
6
CONTINUOUS
10
152.75
20
-50.8999999999999986
11
152.7308659999999918
21
-50.8961939999999942
0
LINE
8
BLACK
6
CONTINUOUS
10
152.7308659999999918
20
-50.8961939999999942
11
152.7038059999999859
21
-50.8691339999999954
0
LINE
8
BLACK
6
CONTINUOUS
10
152.7038059999999859
20
-50.8691339999999954
11
152.6999999999999886
21
-50.8499999999999943
0
LINE
8
BLACK
6
CONTINUOUS
10
152.6999999999999886
20
-50.8499999999999943
11
152.6999999999999886
21
-49.2999999999999972
0
LINE
8
BLACK
6
CONTINUOUS
10
152.6999999999999886
20
-49.2999999999999972
11
148.2999999999999829
21
-49.2999999999999972
0
LINE
8
BLACK
6
CONTINUOUS
10
148.2999999999999829
20
-49.2999999999999972
11
148.2999999999999829
21
-50.8499999999999943
0
LINE
8
BLACK
6
CONTINUOUS
10
148.2999999999999829
20
-50.8499999999999943
11
148.2961939999999856
21
-50.8691339999999954
0
LINE
8
BLACK
6
CONTINUOUS
10
148.2961939999999856
20
-50.8691339999999954
11
148.2691339999999798
21
-50.8961939999999942
0
LINE
8
BLACK
6
CONTINUOUS
10
148.2691339999999798
20
-50.8961939999999942
11
148.25
21
-50.8999999999999986
0
LINE
8
BLACK
6
CONTINUOUS
10
148.25
20
-50.8999999999999986
11
147.5499999999999829
21
-50.8999999999999986
0
LINE
8
BLACK
6
CONTINUOUS
10
147.5499999999999829
20
-50.8999999999999986
11
147.5308660000000032
21
-50.8961939999999942
0
LINE
8
BLACK
6
CONTINUOUS
10
147.5308660000000032
20
-50.8961939999999942
11
147.5038059999999973
21
-50.8691339999999954
0
LINE
8
BLACK
6
CONTINUOUS
10
147.5038059999999973
20
-50.8691339999999954
11
147.5
21
-50.8499999999999943
0
LINE
8
BLACK
6
CONTINUOUS
10
147.5
20
-50.8499999999999943
11
147.5
21
-43.25
0
LINE
8
BLACK
6
CONTINUOUS
10
147.5
20
-43.25
11
147.5038059999999973
21
-43.2308659999999989
0
LINE
8
BLACK
6
CONTINUOUS
10
147.5038059999999973
20
-43.2308659999999989
11
147.5308660000000032
21
-43.2038060000000002
0
LINE
8
BLACK
6
CONTINUOUS
10
147.5308660000000032
20
-43.2038060000000002
11
147.5499999999999829
21
-43.1999999999999957
0
LINE
8
BLACK
6
CONTINUOUS
10
147.5499999999999829
20
-43.1999999999999957
11
153.4499999999999886
21
-43.1999999999999957
0
LINE
8
BLACK
6
CONTINUOUS
10
153.4499999999999886
20
-43.1999999999999957
11
153.4691339999999968
21
-43.2038060000000002
0
LINE
8
BLACK
6
CONTINUOUS
10
147.5999999999999943
20
-43.2999999999999972
11
147.5999999999999943
21
-50.7999999999999972
0
LINE
8
BLACK
6
CONTINUOUS
10
147.5999999999999943
20
-50.7999999999999972
11
148.1999999999999886
21
-50.7999999999999972
0
LINE
8
BLACK
6
CONTINUOUS
10
148.1999999999999886
20
-50.7999999999999972
11
148.1999999999999886
21
-49.25
0
LINE
8
BLACK
6
CONTINUOUS
10
148.1999999999999886
20
-49.25
11
148.2038059999999859
21
-49.2308659999999989
0
LINE
8
BLACK
6
CONTINUOUS
10
148.2038059999999859
20
-49.2308659999999989
11
148.2308659999999918
21
-49.2038060000000002
0
LINE
8
BLACK
6
CONTINUOUS
10
148.2308659999999918
20
-49.2038060000000002
11
148.25
21
-49.1999999999999957
0
LINE
8
BLACK
6
CONTINUOUS
10
148.25
20
-49.1999999999999957
11
152.75
21
-49.1999999999999957
0
LINE
8
BLACK
6
CONTINUOUS
10
152.75
20
-49.1999999999999957
11
152.7691339999999798
21
-49.2038060000000002
0
LINE
8
BLACK
6
CONTINUOUS
10
152.7691339999999798
20
-49.2038060000000002
11
152.7961939999999856
21
-49.2308659999999989
0
LINE
8
BLACK
6
CONTINUOUS
10
152.7961939999999856
20
-49.2308659999999989
11
152.7999999999999829
21
-49.25
0
LINE
8
BLACK
6
CONTINUOUS
10
152.7999999999999829
20
-49.25
11
152.7999999999999829
21
-50.7999999999999972
0
LINE
8
BLACK
6
CONTINUOUS
10
152.7999999999999829
20
-50.7999999999999972
11
153.4000000000000057
21
-50.7999999999999972
0
LINE
8
BLACK
6
CONTINUOUS
10
153.4000000000000057
20
-50.7999999999999972
11
153.4000000000000057
21
-43.2999999999999972
0
LINE
8
BLACK
6
CONTINUOUS
10
153.4000000000000057
20
-43.2999999999999972
11
147.5999999999999943
21
-43.2999999999999972
0
CIRCLE
8
BLACK
10
154.5
20
-52.5
40
0.375
0
CIRCLE
8
BLACK
10
152.5
20
-52.5
40
0.375
0
CIRCLE
8
BLACK
10
150.5
20
-52.5
40
0.375
0
CIRCLE
8
BLACK
10
148.5
20
-52.5
40
0.375
0
CIRCLE
8
BLACK
10
146.5
20
-52.5
40
0.375
0
CIRCLE
8
BLACK
10
154.5799999999999841
20
-63.4405000000000001
40
0.4
0
CIRCLE
8
BLACK
10
152.039999999999992
20
-63.4405000000000001
40
0.4
0
CIRCLE
8
BLACK
10
149.5
20
-63.4405000000000001
40
0.4
0
CIRCLE
8
BLACK
10
146.9599999999999795
20
-63.4405000000000001
40
0.4
0
CIRCLE
8
BLACK
10
146.9599999999999795
20
-55.8204999999999956
40
0.4
0
CIRCLE
8
BLACK
10
149.5
20
-55.8204999999999956
40
0.4
0
CIRCLE
8
BLACK
10
152.039999999999992
20
-55.8204999999999956
40
0.4
0
CIRCLE
8
BLACK
10
154.5799999999999841
20
-55.8204999999999956
40
0.4
0
CIRCLE
8
BLACK
10
148.75
20
-68.7667000000000002
40
0.375
0
CIRCLE
8
BLACK
10
150.75
20
-68.7667000000000002
40
0.375
0
CIRCLE
8
BLACK
10
152.75
20
-68.7667000000000002
40
0.375
0
CIRCLE
8
BLACK
10
152.75
20
-66.5999999999999943
40
0.375
0
CIRCLE
8
BLACK
10
150.75
20
-66.5999999999999943
40
0.375
0
CIRCLE
8
BLACK
10
148.75
20
-66.5999999999999943
40
0.375
0
CIRCLE
8
BLACK
10
152.5
20
-52.5
40
0.375
0
CIRCLE
8
BLACK
10
150.5
20
-52.5
40
0.375
0
CIRCLE
8
BLACK
10
148.5
20
-52.5
40
0.375
0
CIRCLE
8
BLACK
10
149.5
20
-49.5
40
0.375
0
CIRCLE
8
BLACK
10
151.5
20
-49.5
40
0.375
0
LINE
8
BLACK
6
CONTINUOUS
10
156.4556379999999933
20
-40.4769030000000001
11
156.4691679999999963
21
-40.4904329999999959
0
LINE
8
BLACK
6
CONTINUOUS
10
156.4691679999999963
20
-40.4904329999999959
11
156.4710709999999949
21
-40.5
0
LINE
8
BLACK
6
CONTINUOUS
10
156.4710709999999949
20
-40.5
11
156.4710709999999949
21
-80.5999999999999943
0
LINE
8
BLACK
6
CONTINUOUS
10
156.4710709999999949
20
-80.5999999999999943
11
156.4691679999999963
21
-80.6095669999999984
0
LINE
8
BLACK
6
CONTINUOUS
10
156.4691679999999963
20
-80.6095669999999984
11
156.4556379999999933
21
-80.6230970000000013
0
LINE
8
BLACK
6
CONTINUOUS
10
156.4556379999999933
20
-80.6230970000000013
11
156.4460709999999892
21
-80.625
0
LINE
8
BLACK
6
CONTINUOUS
10
156.4460709999999892
20
-80.625
11
145.4000000000000057
21
-80.625
0
LINE
8
BLACK
6
CONTINUOUS
10
145.4000000000000057
20
-80.625
11
145.3904330000000016
21
-80.6230970000000013
0
LINE
8
BLACK
6
CONTINUOUS
10
145.3904330000000016
20
-80.6230970000000013
11
145.3769029999999987
21
-80.6095669999999984
0
LINE
8
BLACK
6
CONTINUOUS
10
145.3769029999999987
20
-80.6095669999999984
11
145.375
21
-80.5999999999999943
0
LINE
8
BLACK
6
CONTINUOUS
10
145.375
20
-80.5999999999999943
11
145.375
21
-40.5
0
LINE
8
BLACK
6
CONTINUOUS
10
145.375
20
-40.5
11
145.3769029999999987
21
-40.4904329999999959
0
LINE
8
BLACK
6
CONTINUOUS
10
145.3769029999999987
20
-40.4904329999999959
11
145.3904330000000016
21
-40.4769030000000001
0
LINE
8
BLACK
6
CONTINUOUS
10
145.3904330000000016
20
-40.4769030000000001
11
145.4000000000000057
21
-40.4750000000000014
0
LINE
8
BLACK
6
CONTINUOUS
10
145.4000000000000057
20
-40.4750000000000014
11
156.4460709999999892
21
-40.4750000000000014
0
LINE
8
BLACK
6
CONTINUOUS
10
156.4460709999999892
20
-40.4750000000000014
11
156.4556379999999933
21
-40.4769030000000001
0
LINE
8
BLACK
6
CONTINUOUS
10
145.4249999999999829
20
-40.5249999999999986
11
145.4249999999999829
21
-80.5750000000000028
0
LINE
8
BLACK
6
CONTINUOUS
10
145.4249999999999829
20
-80.5750000000000028
11
156.4210709999999835
21
-80.5750000000000028
0
LINE
8
BLACK
6
CONTINUOUS
10
156.4210709999999835
20
-80.5750000000000028
11
156.4210709999999835
21
-40.5249999999999986
0
LINE
8
BLACK
6
CONTINUOUS
10
156.4210709999999835
20
-40.5249999999999986
11
145.4249999999999829
21
-40.5249999999999986
0
CIRCLE
8
BLACK
10
154.5
20
-52.5
40
0.375
0
CIRCLE
8
BLACK
10
152.5
20
-52.5
40
0.375
0
CIRCLE
8
BLACK
10
150.5
20
-52.5
40
0.375
0
CIRCLE
8
BLACK
10
148.5
20
-52.5
40
0.375
0
CIRCLE
8
BLACK
10
146.5
20
-52.5
40
0.375
0
CIRCLE
8
BLACK
10
154.5799999999999841
20
-63.4405000000000001
40
0.4
0
CIRCLE
8
BLACK
10
152.039999999999992
20
-63.4405000000000001
40
0.4
0
CIRCLE
8
BLACK
10
149.5
20
-63.4405000000000001
40
0.4
0
CIRCLE
8
BLACK
10
146.9599999999999795
20
-63.4405000000000001
40
0.4
0
CIRCLE
8
BLACK
10
146.9599999999999795
20
-55.8204999999999956
40
0.4
0
CIRCLE
8
BLACK
10
149.5
20
-55.8204999999999956
40
0.4
0
CIRCLE
8
BLACK
10
152.039999999999992
20
-55.8204999999999956
40
0.4
0
CIRCLE
8
BLACK
10
154.5799999999999841
20
-55.8204999999999956
40
0.4
0
CIRCLE
8
BLACK
10
148.75
20
-68.7667000000000002
40
0.375
0
CIRCLE
8
BLACK
10
150.75
20
-68.7667000000000002
40
0.375
0
CIRCLE
8
BLACK
10
152.75
20
-68.7667000000000002
40
0.375
0
CIRCLE
8
BLACK
10
152.75
20
-66.5999999999999943
40
0.375
0
CIRCLE
8
BLACK
10
150.75
20
-66.5999999999999943
40
0.375
0
CIRCLE
8
BLACK
10
148.75
20
-66.5999999999999943
40
0.375
0
CIRCLE
8
BLACK
10
152.5
20
-52.5
40
0.375
0
CIRCLE
8
BLACK
10
150.5
20
-52.5
40
0.375
0
CIRCLE
8
BLACK
10
148.5
20
-52.5
40
0.375
0
CIRCLE
8
BLACK
10
149.5
20
-49.5
40
0.375
0
CIRCLE
8
BLACK
10
151.5
20
-49.5
40
0.375
0
CIRCLE
8
WHITE
10
154.5
20
-52.5
40
0.375
0
CIRCLE
8
WHITE
10
152.5
20
-52.5
40
0.375
0
CIRCLE
8
WHITE
10
150.5
20
-52.5
40
0.375
0
CIRCLE
8
WHITE
10
148.5
20
-52.5
40
0.375
0
CIRCLE
8
WHITE
10
146.5
20
-52.5
40
0.375
0
CIRCLE
8
WHITE
10
154.5799999999999841
20
-63.4405000000000001
40
0.4
0
CIRCLE
8
WHITE
10
152.039999999999992
20
-63.4405000000000001
40
0.4
0
CIRCLE
8
WHITE
10
149.5
20
-63.4405000000000001
40
0.4
0
CIRCLE
8
WHITE
10
146.9599999999999795
20
-63.4405000000000001
40
0.4
0
CIRCLE
8
WHITE
10
146.9599999999999795
20
-55.8204999999999956
40
0.4
0
CIRCLE
8
WHITE
10
149.5
20
-55.8204999999999956
40
0.4
0
CIRCLE
8
WHITE
10
152.039999999999992
20
-55.8204999999999956
40
0.4
0
CIRCLE
8
WHITE
10
154.5799999999999841
20
-55.8204999999999956
40
0.4
0
CIRCLE
8
WHITE
10
148.75
20
-68.7667000000000002
40
0.375
0
CIRCLE
8
WHITE
10
150.75
20
-68.7667000000000002
40
0.375
0
CIRCLE
8
WHITE
10
152.75
20
-68.7667000000000002
40
0.375
0
CIRCLE
8
WHITE
10
152.75
20
-66.5999999999999943
40
0.375
0
CIRCLE
8
WHITE
10
150.75
20
-66.5999999999999943
40
0.375
0
CIRCLE
8
WHITE
10
148.75
20
-66.5999999999999943
40
0.375
0
CIRCLE
8
WHITE
10
152.5
20
-52.5
40
0.375
0
CIRCLE
8
WHITE
10
150.5
20
-52.5
40
0.375
0
CIRCLE
8
WHITE
10
148.5
20
-52.5
40
0.375
0
CIRCLE
8
WHITE
10
149.5
20
-49.5
40
0.375
0
CIRCLE
8
WHITE
10
151.5
20
-49.5
40
0.375
  0
ENDSEC
  0
EOF
