  0
SECTION
  2
HEADER
  9
$ANGBASE
  50
0.0
  9
$ANGDIR
  70
1
  9
$MEASUREMENT
  70
1
  0
ENDSEC
  0
SECTION
  2
TABLES
  0
TABLE
  2
LTYPE
  70
4
  0
LTYPE
  5
40F
  2
CONTINUOUS
  70
0
  3
Solid line
  72
65
  73
0
  40
0.0
  0
LTYPE
  5
410
  2
DASHDOT
 70
0
  3
Dash Dot ____ _ ____ _
 72
65
 73
4
 40
2.0
 49
1.25
 49
-0.25
 49
0.25
 49
-0.25
  0
LTYPE
  5
411
  2
DASHED
 70
0
  3
Dashed __ __ __ __ __
 72
65
 73
2
 40
0.75
 49
0.5
 49
-0.25
  0
LTYPE
  5
43B
  2
DOTTED
 70
0
  3
Dotted .  .  .  .
 72
65
 73
2
 40
0.2
 49
0.0
 49
-0.2
  0
ENDTAB
  0
TABLE
  2
STYLE
  70
4
  0
STYLE
  2
KICAD
  70
0
  40
0
  41
1
  42
1
  50
0
  71
0
  3
isocp.shx
  0
STYLE
  2
KICADB
  70
0
  40
0
  41
1
  42
1
  50
0
  71
0
  3
isocp.shx
  0
STYLE
  2
KICADI
  70
0
  40
0
  41
1
  42
1
  50
15
  71
0
  3
isocp.shx
  0
STYLE
  2
KICADBI
  70
0
  40
0
  41
1
  42
1
  50
15
  71
0
  3
isocp.shx
  0
ENDTAB
  0
TABLE
  2
LAYER
  70
1
  0
LAYER
  2
BLACK
  70
0
  62
7
  6
CONTINUOUS
  0
ENDTAB
  0
ENDSEC
  0
SECTION
  2
ENTITIES
0
LINE
8
BLACK
6
CONTINUOUS
10
150.4583339999999794
20
-68.4924589999999966
11
150.4790260000000046
21
-68.5131509999999935
0
LINE
8
BLACK
6
CONTINUOUS
10
150.4790260000000046
20
-68.5131509999999935
11
150.490224999999981
21
-68.5401870000000031
0
LINE
8
BLACK
6
CONTINUOUS
10
150.490224999999981
20
-68.5401870000000031
11
150.4916659999999808
21
-68.5548189999999948
0
LINE
8
BLACK
6
CONTINUOUS
10
150.4916659999999808
20
-68.5548189999999948
11
150.4916659999999808
21
-69.2691039999999987
0
LINE
8
BLACK
6
CONTINUOUS
10
150.4916659999999808
20
-69.2691039999999987
11
150.4909360000000049
21
-69.2765100000000018
0
LINE
8
BLACK
6
CONTINUOUS
10
150.4909360000000049
20
-69.2765100000000018
11
150.49107699999999
21
-69.2784850000000034
0
LINE
8
BLACK
6
CONTINUOUS
10
150.49107699999999
20
-69.2784850000000034
11
150.4904860000000042
21
-69.2810819999999978
0
LINE
8
BLACK
6
CONTINUOUS
10
150.4904860000000042
20
-69.2810819999999978
11
150.490224999999981
21
-69.2837359999999904
0
LINE
8
BLACK
6
CONTINUOUS
10
150.490224999999981
20
-69.2837359999999904
11
150.4894659999999931
21
-69.2855660000000029
0
LINE
8
BLACK
6
CONTINUOUS
10
150.4894659999999931
20
-69.2855660000000029
11
150.4878170000000068
21
-69.292822000000001
0
LINE
8
BLACK
6
CONTINUOUS
10
150.4878170000000068
20
-69.292822000000001
11
150.440197999999981
21
-69.4356779999999958
0
LINE
8
BLACK
6
CONTINUOUS
10
150.440197999999981
20
-69.4356779999999958
11
150.434203999999994
21
-69.4491039999999913
0
LINE
8
BLACK
6
CONTINUOUS
10
150.434203999999994
20
-69.4491039999999913
11
150.4324379999999906
21
-69.4511389999999977
0
LINE
8
BLACK
6
CONTINUOUS
10
150.4324379999999906
20
-69.4511389999999977
11
150.4314080000000047
21
-69.4536279999999948
0
LINE
8
BLACK
6
CONTINUOUS
10
150.4314080000000047
20
-69.4536279999999948
11
150.4220809999999915
21
-69.4649929999999927
0
LINE
8
BLACK
6
CONTINUOUS
10
150.4220809999999915
20
-69.4649929999999927
11
150.3268419999999992
21
-69.5602329999999967
0
LINE
8
BLACK
6
CONTINUOUS
10
150.3268419999999992
20
-69.5602329999999967
11
150.3154769999999871
21
-69.5695599999999956
0
LINE
8
BLACK
6
CONTINUOUS
10
150.3154769999999871
20
-69.5695599999999956
11
150.3129859999999951
21
-69.5705909999999932
0
LINE
8
BLACK
6
CONTINUOUS
10
150.3129859999999951
20
-69.5705909999999932
11
150.3109509999999887
21
-69.5723569999999967
0
LINE
8
BLACK
6
CONTINUOUS
10
150.3109509999999887
20
-69.5723569999999967
11
150.2975260000000048
21
-69.5783509999999978
0
LINE
8
BLACK
6
CONTINUOUS
10
150.2975260000000048
20
-69.5783509999999978
11
150.1546689999999842
21
-69.6259699999999953
0
LINE
8
BLACK
6
CONTINUOUS
10
150.1546689999999842
20
-69.6259699999999953
11
150.1474149999999952
21
-69.6276189999999957
0
LINE
8
BLACK
6
CONTINUOUS
10
150.1474149999999952
20
-69.6276189999999957
11
150.1455839999999853
21
-69.6283779999999979
0
LINE
8
BLACK
6
CONTINUOUS
10
150.1455839999999853
20
-69.6283779999999979
11
150.142928999999981
21
-69.6286389999999926
0
LINE
8
BLACK
6
CONTINUOUS
10
150.142928999999981
20
-69.6286389999999926
11
150.1403320000000008
21
-69.6292299999999926
0
LINE
8
BLACK
6
CONTINUOUS
10
150.1403320000000008
20
-69.6292299999999926
11
150.138356999999985
21
-69.6290889999999933
0
LINE
8
BLACK
6
CONTINUOUS
10
150.138356999999985
20
-69.6290889999999933
11
150.1309519999999793
21
-69.6298189999999977
0
LINE
8
BLACK
6
CONTINUOUS
10
150.1309519999999793
20
-69.6298189999999977
11
150.0357139999999845
21
-69.6298189999999977
0
LINE
8
BLACK
6
CONTINUOUS
10
150.0357139999999845
20
-69.6298189999999977
11
150.0210820000000069
21
-69.6283779999999979
0
LINE
8
BLACK
6
CONTINUOUS
10
150.0210820000000069
20
-69.6283779999999979
11
149.9940459999999973
21
-69.617178999999993
0
LINE
8
BLACK
6
CONTINUOUS
10
149.9940459999999973
20
-69.617178999999993
11
149.9733540000000005
21
-69.5964869999999962
0
LINE
8
BLACK
6
CONTINUOUS
10
149.9733540000000005
20
-69.5964869999999962
11
149.9621549999999957
21
-69.5694510000000008
0
LINE
8
BLACK
6
CONTINUOUS
10
149.9621549999999957
20
-69.5694510000000008
11
149.9621549999999957
21
-69.5401870000000031
0
LINE
8
BLACK
6
CONTINUOUS
10
149.9621549999999957
20
-69.5401870000000031
11
149.9733540000000005
21
-69.5131509999999935
0
LINE
8
BLACK
6
CONTINUOUS
10
149.9733540000000005
20
-69.5131509999999935
11
149.9940459999999973
21
-69.4924589999999966
0
LINE
8
BLACK
6
CONTINUOUS
10
149.9940459999999973
20
-69.4924589999999966
11
150.0210820000000069
21
-69.4812599999999918
0
LINE
8
BLACK
6
CONTINUOUS
10
150.0210820000000069
20
-69.4812599999999918
11
150.0357139999999845
21
-69.479818999999992
0
LINE
8
BLACK
6
CONTINUOUS
10
150.0357139999999845
20
-69.479818999999992
11
150.1187819999999817
21
-69.479818999999992
0
LINE
8
BLACK
6
CONTINUOUS
10
150.1187819999999817
20
-69.479818999999992
11
150.2332949999999983
21
-69.4416470000000032
0
LINE
8
BLACK
6
CONTINUOUS
10
150.2332949999999983
20
-69.4416470000000032
11
150.3034940000000006
21
-69.3714470000000034
0
LINE
8
BLACK
6
CONTINUOUS
10
150.3034940000000006
20
-69.3714470000000034
11
150.3416660000000036
21
-69.2569340000000011
0
LINE
8
BLACK
6
CONTINUOUS
10
150.3416660000000036
20
-69.2569340000000011
11
150.3416660000000036
21
-68.5548189999999948
0
LINE
8
BLACK
6
CONTINUOUS
10
150.3416660000000036
20
-68.5548189999999948
11
150.3431070000000034
21
-68.5401870000000031
0
LINE
8
BLACK
6
CONTINUOUS
10
150.3431070000000034
20
-68.5401870000000031
11
150.3543059999999798
21
-68.5131509999999935
0
LINE
8
BLACK
6
CONTINUOUS
10
150.3543059999999798
20
-68.5131509999999935
11
150.374998000000005
21
-68.4924589999999966
0
LINE
8
BLACK
6
CONTINUOUS
10
150.374998000000005
20
-68.4924589999999966
11
150.4020339999999862
21
-68.4812599999999918
0
LINE
8
BLACK
6
CONTINUOUS
10
150.4020339999999862
20
-68.4812599999999918
11
150.4312979999999982
21
-68.4812599999999918
0
LINE
8
BLACK
6
CONTINUOUS
10
150.4312979999999982
20
-68.4812599999999918
11
150.4583339999999794
21
-68.4924589999999966
0
LINE
8
BLACK
6
CONTINUOUS
10
151.1381570000000067
20
-68.4812599999999918
11
151.1455839999999853
21
-68.4812599999999918
0
LINE
8
BLACK
6
CONTINUOUS
10
151.1455839999999853
20
-68.4812599999999918
11
151.1523719999999855
21
-68.4840719999999976
0
LINE
8
BLACK
6
CONTINUOUS
10
151.1523719999999855
20
-68.4840719999999976
11
151.1595810000000029
21
-68.4854979999999927
0
LINE
8
BLACK
6
CONTINUOUS
10
151.1595810000000029
20
-68.4854979999999927
11
151.1657600000000059
21
-68.4896169999999955
0
LINE
8
BLACK
6
CONTINUOUS
10
151.1657600000000059
20
-68.4896169999999955
11
151.1726199999999949
21
-68.4924589999999966
0
LINE
8
BLACK
6
CONTINUOUS
10
151.1726199999999949
20
-68.4924589999999966
11
151.1778129999999862
21
-68.4976520000000022
0
LINE
8
BLACK
6
CONTINUOUS
10
151.1778129999999862
20
-68.4976520000000022
11
151.1839300000000037
21
-68.5017299999999949
0
LINE
8
BLACK
6
CONTINUOUS
10
151.1839300000000037
20
-68.5017299999999949
11
151.1880629999999996
21
-68.5079020000000014
0
LINE
8
BLACK
6
CONTINUOUS
10
151.1880629999999996
20
-68.5079020000000014
11
151.1933119999999917
21
-68.5131509999999935
0
LINE
8
BLACK
6
CONTINUOUS
10
151.1933119999999917
20
-68.5131509999999935
11
151.196123
21
-68.5199379999999962
0
LINE
8
BLACK
6
CONTINUOUS
10
151.196123
20
-68.5199379999999962
11
151.2002129999999909
21
-68.5260449999999963
0
LINE
8
BLACK
6
CONTINUOUS
10
151.2002129999999909
20
-68.5260449999999963
11
151.2016689999999812
21
-68.5333260000000024
0
LINE
8
BLACK
6
CONTINUOUS
10
151.2016689999999812
20
-68.5333260000000024
11
151.2045109999999966
21
-68.5401870000000031
0
LINE
8
BLACK
6
CONTINUOUS
10
151.2045109999999966
20
-68.5401870000000031
11
151.2059359999999799
21
-68.5546629999999908
0
LINE
8
BLACK
6
CONTINUOUS
10
151.2059359999999799
20
-68.5546629999999908
11
151.2059519999999964
21
-68.5547399999999953
0
LINE
8
BLACK
6
CONTINUOUS
10
151.2059519999999964
20
-68.5547399999999953
11
151.2059459999999831
21
-68.5547660000000008
0
LINE
8
BLACK
6
CONTINUOUS
10
151.2059459999999831
20
-68.5547660000000008
11
151.2059519999999964
21
-68.5548189999999948
0
LINE
8
BLACK
6
CONTINUOUS
10
151.2059519999999964
20
-68.5548189999999948
11
151.2059519999999964
21
-69.479818999999992
0
LINE
8
BLACK
6
CONTINUOUS
10
151.2059519999999964
20
-69.479818999999992
11
151.4166659999999922
21
-69.479818999999992
0
LINE
8
BLACK
6
CONTINUOUS
10
151.4166659999999922
20
-69.479818999999992
11
151.4312979999999982
21
-69.4812599999999918
0
LINE
8
BLACK
6
CONTINUOUS
10
151.4312979999999982
20
-69.4812599999999918
11
151.4583339999999794
21
-69.4924589999999966
0
LINE
8
BLACK
6
CONTINUOUS
10
151.4583339999999794
20
-69.4924589999999966
11
151.4790260000000046
21
-69.5131509999999935
0
LINE
8
BLACK
6
CONTINUOUS
10
151.4790260000000046
20
-69.5131509999999935
11
151.490224999999981
21
-69.5401870000000031
0
LINE
8
BLACK
6
CONTINUOUS
10
151.490224999999981
20
-69.5401870000000031
11
151.490224999999981
21
-69.5694510000000008
0
LINE
8
BLACK
6
CONTINUOUS
10
151.490224999999981
20
-69.5694510000000008
11
151.4790260000000046
21
-69.5964869999999962
0
LINE
8
BLACK
6
CONTINUOUS
10
151.4790260000000046
20
-69.5964869999999962
11
151.4583339999999794
21
-69.617178999999993
0
LINE
8
BLACK
6
CONTINUOUS
10
151.4583339999999794
20
-69.617178999999993
11
151.4312979999999982
21
-69.6283779999999979
0
LINE
8
BLACK
6
CONTINUOUS
10
151.4312979999999982
20
-69.6283779999999979
11
151.4166659999999922
21
-69.6298189999999977
0
LINE
8
BLACK
6
CONTINUOUS
10
151.4166659999999922
20
-69.6298189999999977
11
150.8452379999999948
21
-69.6298189999999977
0
LINE
8
BLACK
6
CONTINUOUS
10
150.8452379999999948
20
-69.6298189999999977
11
150.8306059999999889
21
-69.6283779999999979
0
LINE
8
BLACK
6
CONTINUOUS
10
150.8306059999999889
20
-69.6283779999999979
11
150.8035699999999792
21
-69.617178999999993
0
LINE
8
BLACK
6
CONTINUOUS
10
150.8035699999999792
20
-69.617178999999993
11
150.7828779999999824
21
-69.5964869999999962
0
LINE
8
BLACK
6
CONTINUOUS
10
150.7828779999999824
20
-69.5964869999999962
11
150.771679000000006
21
-69.5694510000000008
0
LINE
8
BLACK
6
CONTINUOUS
10
150.771679000000006
20
-69.5694510000000008
11
150.771679000000006
21
-69.5401870000000031
0
LINE
8
BLACK
6
CONTINUOUS
10
150.771679000000006
20
-69.5401870000000031
11
150.7828779999999824
21
-69.5131509999999935
0
LINE
8
BLACK
6
CONTINUOUS
10
150.7828779999999824
20
-69.5131509999999935
11
150.8035699999999792
21
-69.4924589999999966
0
LINE
8
BLACK
6
CONTINUOUS
10
150.8035699999999792
20
-69.4924589999999966
11
150.8306059999999889
21
-69.4812599999999918
0
LINE
8
BLACK
6
CONTINUOUS
10
150.8306059999999889
20
-69.4812599999999918
11
150.8452379999999948
21
-69.479818999999992
0
LINE
8
BLACK
6
CONTINUOUS
10
150.8452379999999948
20
-69.479818999999992
11
151.0559519999999907
21
-69.479818999999992
0
LINE
8
BLACK
6
CONTINUOUS
10
151.0559519999999907
20
-69.479818999999992
11
151.0559519999999907
21
-68.7835039999999935
0
LINE
8
BLACK
6
CONTINUOUS
10
151.0559519999999907
20
-68.7835039999999935
11
150.9935089999999889
21
-68.8459469999999953
0
LINE
8
BLACK
6
CONTINUOUS
10
150.9935089999999889
20
-68.8459469999999953
11
150.9877589999999827
21
-68.8506649999999922
0
LINE
8
BLACK
6
CONTINUOUS
10
150.9877589999999827
20
-68.8506649999999922
11
150.9864599999999939
21
-68.8521640000000019
0
LINE
8
BLACK
6
CONTINUOUS
10
150.9864599999999939
20
-68.8521640000000019
11
150.9841999999999871
21
-68.8535849999999954
0
LINE
8
BLACK
6
CONTINUOUS
10
150.9841999999999871
20
-68.8535849999999954
11
150.9821440000000052
21
-68.8552739999999943
0
LINE
8
BLACK
6
CONTINUOUS
10
150.9821440000000052
20
-68.8552739999999943
11
150.9803159999999878
21
-68.8560310000000015
0
LINE
8
BLACK
6
CONTINUOUS
10
150.9803159999999878
20
-68.8560310000000015
11
150.9740170000000035
21
-68.8599959999999953
0
LINE
8
BLACK
6
CONTINUOUS
10
150.9740170000000035
20
-68.8599959999999953
11
150.8787789999999802
21
-68.9076149999999927
0
LINE
8
BLACK
6
CONTINUOUS
10
150.8787789999999802
20
-68.9076149999999927
11
150.8650470000000041
21
-68.9128699999999981
0
LINE
8
BLACK
6
CONTINUOUS
10
150.8650470000000041
20
-68.9128699999999981
11
150.8358570000000043
21
-68.9149439999999913
0
LINE
8
BLACK
6
CONTINUOUS
10
150.8358570000000043
20
-68.9149439999999913
11
150.8080960000000061
21
-68.9056899999999928
0
LINE
8
BLACK
6
CONTINUOUS
10
150.8080960000000061
20
-68.9056899999999928
11
150.7859880000000032
21
-68.8865169999999978
0
LINE
8
BLACK
6
CONTINUOUS
10
150.7859880000000032
20
-68.8865169999999978
11
150.7729009999999903
21
-68.8603420000000028
0
LINE
8
BLACK
6
CONTINUOUS
10
150.7729009999999903
20
-68.8603420000000028
11
150.770826999999997
21
-68.831152000000003
0
LINE
8
BLACK
6
CONTINUOUS
10
150.770826999999997
20
-68.831152000000003
11
150.7800809999999956
21
-68.8033909999999906
0
LINE
8
BLACK
6
CONTINUOUS
10
150.7800809999999956
20
-68.8033909999999906
11
150.7992539999999906
21
-68.7812830000000019
0
LINE
8
BLACK
6
CONTINUOUS
10
150.7992539999999906
20
-68.7812830000000019
11
150.811696999999981
21
-68.7734509999999943
0
LINE
8
BLACK
6
CONTINUOUS
10
150.811696999999981
20
-68.7734509999999943
11
150.896049000000005
21
-68.7312749999999966
0
LINE
8
BLACK
6
CONTINUOUS
10
150.896049000000005
20
-68.7312749999999966
11
150.9774280000000033
21
-68.6498959999999983
0
LINE
8
BLACK
6
CONTINUOUS
10
150.9774280000000033
20
-68.6498959999999983
11
151.0685479999999927
21
-68.5132159999999999
0
LINE
8
BLACK
6
CONTINUOUS
10
151.0685479999999927
20
-68.5132159999999999
11
151.0685819999999921
21
-68.5131729999999948
0
LINE
8
BLACK
6
CONTINUOUS
10
151.0685819999999921
20
-68.5131729999999948
11
151.0685919999999953
21
-68.5131509999999935
0
LINE
8
BLACK
6
CONTINUOUS
10
151.0685919999999953
20
-68.5131509999999935
11
151.0686429999999802
21
-68.5130989999999969
0
LINE
8
BLACK
6
CONTINUOUS
10
151.0686429999999802
20
-68.5130989999999969
11
151.0778640000000053
21
-68.5018409999999989
0
LINE
8
BLACK
6
CONTINUOUS
10
151.0778640000000053
20
-68.5018409999999989
11
151.0840330000000051
21
-68.4977090000000004
0
LINE
8
BLACK
6
CONTINUOUS
10
151.0840330000000051
20
-68.4977090000000004
11
151.0892839999999921
21
-68.4924589999999966
0
LINE
8
BLACK
6
CONTINUOUS
10
151.0892839999999921
20
-68.4924589999999966
11
151.0960729999999899
21
-68.4896459999999934
0
LINE
8
BLACK
6
CONTINUOUS
10
151.0960729999999899
20
-68.4896459999999934
11
151.1021790000000067
21
-68.4855579999999975
0
LINE
8
BLACK
6
CONTINUOUS
10
151.1021790000000067
20
-68.4855579999999975
11
151.1094589999999869
21
-68.4841009999999955
0
LINE
8
BLACK
6
CONTINUOUS
10
151.1094589999999869
20
-68.4841009999999955
11
151.1163200000000018
21
-68.4812599999999918
0
LINE
8
BLACK
6
CONTINUOUS
10
151.1163200000000018
20
-68.4812599999999918
11
151.1236679999999808
21
-68.4812599999999918
0
LINE
8
BLACK
6
CONTINUOUS
10
151.1236679999999808
20
-68.4812599999999918
11
151.1308729999999798
21
-68.479818999999992
0
LINE
8
BLACK
6
CONTINUOUS
10
151.1308729999999798
20
-68.479818999999992
11
151.1381570000000067
21
-68.4812599999999918
0
LINE
8
BLACK
6
CONTINUOUS
10
148.7691339999999798
20
-67.4288059999999945
11
148.7853549999999814
21
-67.4396449999999987
0
LINE
8
BLACK
6
CONTINUOUS
10
148.7853549999999814
20
-67.4396449999999987
11
149.2853549999999814
21
-67.9396449999999987
0
LINE
8
BLACK
6
CONTINUOUS
10
149.2853549999999814
20
-67.9396449999999987
11
149.2961939999999856
21
-67.9558660000000003
0
LINE
8
BLACK
6
CONTINUOUS
10
149.2961939999999856
20
-67.9558660000000003
11
149.2961939999999856
21
-67.9941340000000025
0
LINE
8
BLACK
6
CONTINUOUS
10
149.2961939999999856
20
-67.9941340000000025
11
149.2691339999999798
21
-68.0211939999999942
0
LINE
8
BLACK
6
CONTINUOUS
10
149.2691339999999798
20
-68.0211939999999942
11
149.25
21
-68.0249999999999915
0
LINE
8
BLACK
6
CONTINUOUS
10
149.25
20
-68.0249999999999915
11
148.25
21
-68.0249999999999915
0
LINE
8
BLACK
6
CONTINUOUS
10
148.25
20
-68.0249999999999915
11
148.2308659999999918
21
-68.0211939999999942
0
LINE
8
BLACK
6
CONTINUOUS
10
148.2308659999999918
20
-68.0211939999999942
11
148.2038059999999859
21
-67.9941340000000025
0
LINE
8
BLACK
6
CONTINUOUS
10
148.2038059999999859
20
-67.9941340000000025
11
148.2038059999999859
21
-67.9558660000000003
0
LINE
8
BLACK
6
CONTINUOUS
10
148.2038059999999859
20
-67.9558660000000003
11
148.2146449999999902
21
-67.9396449999999987
0
LINE
8
BLACK
6
CONTINUOUS
10
148.2146449999999902
20
-67.9396449999999987
11
148.7146449999999902
21
-67.4396449999999987
0
LINE
8
BLACK
6
CONTINUOUS
10
148.7146449999999902
20
-67.4396449999999987
11
148.7308659999999918
21
-67.4288059999999945
0
LINE
8
BLACK
6
CONTINUOUS
10
148.7308659999999918
20
-67.4288059999999945
11
148.7691339999999798
21
-67.4288059999999945
0
LINE
8
BLACK
6
CONTINUOUS
10
148.3707100000000025
20
-67.9249999999999972
11
149.1292899999999975
21
-67.9249999999999972
0
LINE
8
BLACK
6
CONTINUOUS
10
149.1292899999999975
20
-67.9249999999999972
11
148.75
21
-67.5457099999999997
0
LINE
8
BLACK
6
CONTINUOUS
10
148.75
20
-67.5457099999999997
11
148.3707100000000025
21
-67.9249999999999972
0
LINE
8
BLACK
6
CONTINUOUS
10
147.5191339999999798
20
-65.2038060000000002
11
147.5461939999999856
21
-65.2308659999999918
0
LINE
8
BLACK
6
CONTINUOUS
10
147.5461939999999856
20
-65.2308659999999918
11
147.5499999999999829
21
-65.25
0
LINE
8
BLACK
6
CONTINUOUS
10
147.5499999999999829
20
-65.25
11
147.5499999999999829
21
-66.7999999999999972
0
LINE
8
BLACK
6
CONTINUOUS
10
147.5499999999999829
20
-66.7999999999999972
11
153.9499999999999886
21
-66.7999999999999972
0
LINE
8
BLACK
6
CONTINUOUS
10
153.9499999999999886
20
-66.7999999999999972
11
153.9499999999999886
21
-65.25
0
LINE
8
BLACK
6
CONTINUOUS
10
153.9499999999999886
20
-65.25
11
153.9538059999999859
21
-65.2308659999999918
0
LINE
8
BLACK
6
CONTINUOUS
10
153.9538059999999859
20
-65.2308659999999918
11
153.9808659999999918
21
-65.2038060000000002
0
LINE
8
BLACK
6
CONTINUOUS
10
153.9808659999999918
20
-65.2038060000000002
11
154.
21
-65.2000000000000028
0
LINE
8
BLACK
6
CONTINUOUS
10
154.
20
-65.2000000000000028
11
154.6999999999999886
21
-65.2000000000000028
0
LINE
8
BLACK
6
CONTINUOUS
10
154.6999999999999886
20
-65.2000000000000028
11
154.7191339999999968
21
-65.2038060000000002
0
LINE
8
BLACK
6
CONTINUOUS
10
154.7191339999999968
20
-65.2038060000000002
11
154.7461940000000027
21
-65.2308659999999918
0
LINE
8
BLACK
6
CONTINUOUS
10
154.7461940000000027
20
-65.2308659999999918
11
154.75
21
-65.25
0
LINE
8
BLACK
6
CONTINUOUS
10
154.75
20
-65.25
11
154.75
21
-72.8499999999999943
0
LINE
8
BLACK
6
CONTINUOUS
10
154.75
20
-72.8499999999999943
11
154.7461940000000027
21
-72.8691340000000025
0
LINE
8
BLACK
6
CONTINUOUS
10
154.7461940000000027
20
-72.8691340000000025
11
154.7191339999999968
21
-72.8961939999999942
0
LINE
8
BLACK
6
CONTINUOUS
10
154.7191339999999968
20
-72.8961939999999942
11
154.6999999999999886
21
-72.8999999999999915
0
LINE
8
BLACK
6
CONTINUOUS
10
154.6999999999999886
20
-72.8999999999999915
11
146.7999999999999829
21
-72.8999999999999915
0
LINE
8
BLACK
6
CONTINUOUS
10
146.7999999999999829
20
-72.8999999999999915
11
146.7808660000000032
21
-72.8961939999999942
0
LINE
8
BLACK
6
CONTINUOUS
10
146.7808660000000032
20
-72.8961939999999942
11
146.7538059999999973
21
-72.8691340000000025
0
LINE
8
BLACK
6
CONTINUOUS
10
146.7538059999999973
20
-72.8691340000000025
11
146.75
21
-72.8499999999999943
0
LINE
8
BLACK
6
CONTINUOUS
10
146.75
20
-72.8499999999999943
11
146.75
21
-65.25
0
LINE
8
BLACK
6
CONTINUOUS
10
146.75
20
-65.25
11
146.7538059999999973
21
-65.2308659999999918
0
LINE
8
BLACK
6
CONTINUOUS
10
146.7538059999999973
20
-65.2308659999999918
11
146.7808660000000032
21
-65.2038060000000002
0
LINE
8
BLACK
6
CONTINUOUS
10
146.7808660000000032
20
-65.2038060000000002
11
146.7999999999999829
21
-65.2000000000000028
0
LINE
8
BLACK
6
CONTINUOUS
10
146.7999999999999829
20
-65.2000000000000028
11
147.5
21
-65.2000000000000028
0
LINE
8
BLACK
6
CONTINUOUS
10
147.5
20
-65.2000000000000028
11
147.5191339999999798
21
-65.2038060000000002
0
LINE
8
BLACK
6
CONTINUOUS
10
146.8499999999999943
20
-65.2999999999999972
11
146.8499999999999943
21
-72.7999999999999972
0
LINE
8
BLACK
6
CONTINUOUS
10
146.8499999999999943
20
-72.7999999999999972
11
154.6500000000000057
21
-72.7999999999999972
0
LINE
8
BLACK
6
CONTINUOUS
10
154.6500000000000057
20
-72.7999999999999972
11
154.6500000000000057
21
-65.2999999999999972
0
LINE
8
BLACK
6
CONTINUOUS
10
154.6500000000000057
20
-65.2999999999999972
11
154.0499999999999829
21
-65.2999999999999972
0
LINE
8
BLACK
6
CONTINUOUS
10
154.0499999999999829
20
-65.2999999999999972
11
154.0499999999999829
21
-66.8499999999999943
0
LINE
8
BLACK
6
CONTINUOUS
10
154.0499999999999829
20
-66.8499999999999943
11
154.0461939999999856
21
-66.8691340000000025
0
LINE
8
BLACK
6
CONTINUOUS
10
154.0461939999999856
20
-66.8691340000000025
11
154.0191339999999798
21
-66.8961939999999942
0
LINE
8
BLACK
6
CONTINUOUS
10
154.0191339999999798
20
-66.8961939999999942
11
154.
21
-66.8999999999999915
0
LINE
8
BLACK
6
CONTINUOUS
10
154.
20
-66.8999999999999915
11
147.5
21
-66.8999999999999915
0
LINE
8
BLACK
6
CONTINUOUS
10
147.5
20
-66.8999999999999915
11
147.4808659999999918
21
-66.8961939999999942
0
LINE
8
BLACK
6
CONTINUOUS
10
147.4808659999999918
20
-66.8961939999999942
11
147.4538059999999859
21
-66.8691340000000025
0
LINE
8
BLACK
6
CONTINUOUS
10
147.4538059999999859
20
-66.8691340000000025
11
147.4499999999999886
21
-66.8499999999999943
0
LINE
8
BLACK
6
CONTINUOUS
10
147.4499999999999886
20
-66.8499999999999943
11
147.4499999999999886
21
-65.2999999999999972
0
LINE
8
BLACK
6
CONTINUOUS
10
147.4499999999999886
20
-65.2999999999999972
11
146.8499999999999943
21
-65.2999999999999972
0
LINE
8
BLACK
6
CONTINUOUS
10
151.0589740000000063
20
-59.7374170000000007
11
151.0614630000000034
21
-59.7384479999999982
0
LINE
8
BLACK
6
CONTINUOUS
10
151.0614630000000034
20
-59.7384479999999982
11
151.0641509999999812
21
-59.7386389999999992
0
LINE
8
BLACK
6
CONTINUOUS
10
151.0641509999999812
20
-59.7386389999999992
11
151.0778829999999857
21
-59.7438939999999974
0
LINE
8
BLACK
6
CONTINUOUS
10
151.0778829999999857
20
-59.7438939999999974
11
151.1731209999999805
21
-59.7915129999999948
0
LINE
8
BLACK
6
CONTINUOUS
10
151.1731209999999805
20
-59.7915129999999948
11
151.1794170000000008
21
-59.7954760000000007
0
LINE
8
BLACK
6
CONTINUOUS
10
151.1794170000000008
20
-59.7954760000000007
11
151.1812469999999848
21
-59.7962339999999983
0
LINE
8
BLACK
6
CONTINUOUS
10
151.1812469999999848
20
-59.7962339999999983
11
151.1833049999999901
21
-59.7979229999999973
0
LINE
8
BLACK
6
CONTINUOUS
10
151.1833049999999901
20
-59.7979229999999973
11
151.1855639999999994
21
-59.7993449999999953
0
LINE
8
BLACK
6
CONTINUOUS
10
151.1855639999999994
20
-59.7993449999999953
11
151.1868629999999882
21
-59.8008430000000004
0
LINE
8
BLACK
6
CONTINUOUS
10
151.1868629999999882
20
-59.8008430000000004
11
151.1926119999999969
21
-59.8055609999999973
0
LINE
8
BLACK
6
CONTINUOUS
10
151.1926119999999969
20
-59.8055609999999973
11
151.2402319999999918
21
-59.8531799999999947
0
LINE
8
BLACK
6
CONTINUOUS
10
151.2402319999999918
20
-59.8531799999999947
11
151.2449499999999887
21
-59.8589289999999963
0
LINE
8
BLACK
6
CONTINUOUS
10
151.2449499999999887
20
-59.8589289999999963
11
151.2464499999999816
21
-59.8602299999999943
0
LINE
8
BLACK
6
CONTINUOUS
10
151.2464499999999816
20
-59.8602299999999943
11
151.247872000000001
21
-59.8624889999999965
0
LINE
8
BLACK
6
CONTINUOUS
10
151.247872000000001
20
-59.8624889999999965
11
151.2495600000000024
21
-59.8645459999999972
0
LINE
8
BLACK
6
CONTINUOUS
10
151.2495600000000024
20
-59.8645459999999972
11
151.2503169999999955
21
-59.8663729999999958
0
LINE
8
BLACK
6
CONTINUOUS
10
151.2503169999999955
20
-59.8663729999999958
11
151.2542819999999892
21
-59.8726729999999989
0
LINE
8
BLACK
6
CONTINUOUS
10
151.2542819999999892
20
-59.8726729999999989
11
151.3019009999999867
21
-59.9679109999999937
0
LINE
8
BLACK
6
CONTINUOUS
10
151.3019009999999867
20
-59.9679109999999937
11
151.307155999999992
21
-59.9816420000000008
0
LINE
8
BLACK
6
CONTINUOUS
10
151.307155999999992
20
-59.9816420000000008
11
151.3073469999999929
21
-59.9843309999999974
0
LINE
8
BLACK
6
CONTINUOUS
10
151.3073469999999929
20
-59.9843309999999974
11
151.3083780000000047
21
-59.9868199999999945
0
LINE
8
BLACK
6
CONTINUOUS
10
151.3083780000000047
20
-59.9868199999999945
11
151.3098190000000045
21
-60.0014520000000005
0
LINE
8
BLACK
6
CONTINUOUS
10
151.3098190000000045
20
-60.0014520000000005
11
151.3098190000000045
21
-60.1919279999999972
0
LINE
8
BLACK
6
CONTINUOUS
10
151.3098190000000045
20
-60.1919279999999972
11
151.3083780000000047
21
-60.2065599999999961
0
LINE
8
BLACK
6
CONTINUOUS
10
151.3083780000000047
20
-60.2065599999999961
11
151.3073469999999929
21
-60.2090479999999957
0
LINE
8
BLACK
6
CONTINUOUS
10
151.3073469999999929
20
-60.2090479999999957
11
151.307155999999992
21
-60.2117379999999969
0
LINE
8
BLACK
6
CONTINUOUS
10
151.307155999999992
20
-60.2117379999999969
11
151.3019009999999867
21
-60.2254689999999968
0
LINE
8
BLACK
6
CONTINUOUS
10
151.3019009999999867
20
-60.2254689999999968
11
151.2542819999999892
21
-60.3207069999999987
0
LINE
8
BLACK
6
CONTINUOUS
10
151.2542819999999892
20
-60.3207069999999987
11
151.2503169999999955
21
-60.3270059999999972
0
LINE
8
BLACK
6
CONTINUOUS
10
151.2503169999999955
20
-60.3270059999999972
11
151.2495600000000024
21
-60.3288340000000005
0
LINE
8
BLACK
6
CONTINUOUS
10
151.2495600000000024
20
-60.3288340000000005
11
151.247872000000001
21
-60.3308899999999966
0
LINE
8
BLACK
6
CONTINUOUS
10
151.247872000000001
20
-60.3308899999999966
11
151.2464499999999816
21
-60.3331499999999963
0
LINE
8
BLACK
6
CONTINUOUS
10
151.2464499999999816
20
-60.3331499999999963
11
151.2449499999999887
21
-60.3344499999999968
0
LINE
8
BLACK
6
CONTINUOUS
10
151.2449499999999887
20
-60.3344499999999968
11
151.2402319999999918
21
-60.3401999999999958
0
LINE
8
BLACK
6
CONTINUOUS
10
151.2402319999999918
20
-60.3401999999999958
11
151.1926119999999969
21
-60.3878190000000004
0
LINE
8
BLACK
6
CONTINUOUS
10
151.1926119999999969
20
-60.3878190000000004
11
151.1868629999999882
21
-60.3925359999999998
0
LINE
8
BLACK
6
CONTINUOUS
10
151.1868629999999882
20
-60.3925359999999998
11
151.1855639999999994
21
-60.3940349999999953
0
LINE
8
BLACK
6
CONTINUOUS
10
151.1855639999999994
20
-60.3940349999999953
11
151.1833049999999901
21
-60.3954559999999958
0
LINE
8
BLACK
6
CONTINUOUS
10
151.1833049999999901
20
-60.3954559999999958
11
151.1812469999999848
21
-60.3971459999999993
0
LINE
8
BLACK
6
CONTINUOUS
10
151.1812469999999848
20
-60.3971459999999993
11
151.1794170000000008
21
-60.3979029999999995
0
LINE
8
BLACK
6
CONTINUOUS
10
151.1794170000000008
20
-60.3979029999999995
11
151.1731209999999805
21
-60.4018669999999958
0
LINE
8
BLACK
6
CONTINUOUS
10
151.1731209999999805
20
-60.4018669999999958
11
151.0778829999999857
21
-60.4494860000000003
0
LINE
8
BLACK
6
CONTINUOUS
10
151.0778829999999857
20
-60.4494860000000003
11
151.0641509999999812
21
-60.4547409999999985
0
LINE
8
BLACK
6
CONTINUOUS
10
151.0641509999999812
20
-60.4547409999999985
11
151.0614630000000034
21
-60.4549309999999949
0
LINE
8
BLACK
6
CONTINUOUS
10
151.0614630000000034
20
-60.4549309999999949
11
151.0589740000000063
21
-60.455962999999997
0
LINE
8
BLACK
6
CONTINUOUS
10
151.0589740000000063
20
-60.455962999999997
11
151.0443420000000003
21
-60.4574039999999968
0
LINE
8
BLACK
6
CONTINUOUS
10
151.0443420000000003
20
-60.4574039999999968
11
150.2348189999999875
21
-60.4574039999999968
0
LINE
8
BLACK
6
CONTINUOUS
10
150.2348189999999875
20
-60.4574039999999968
11
150.2201869999999815
21
-60.455962999999997
0
LINE
8
BLACK
6
CONTINUOUS
10
150.2201869999999815
20
-60.455962999999997
11
150.1931510000000003
21
-60.4447639999999993
0
LINE
8
BLACK
6
CONTINUOUS
10
150.1931510000000003
20
-60.4447639999999993
11
150.1724590000000035
21
-60.4240719999999953
0
LINE
8
BLACK
6
CONTINUOUS
10
150.1724590000000035
20
-60.4240719999999953
11
150.1612599999999986
21
-60.3970359999999999
0
LINE
8
BLACK
6
CONTINUOUS
10
150.1612599999999986
20
-60.3970359999999999
11
150.1612599999999986
21
-60.3677719999999951
0
LINE
8
BLACK
6
CONTINUOUS
10
150.1612599999999986
20
-60.3677719999999951
11
150.1724590000000035
21
-60.3407359999999997
0
LINE
8
BLACK
6
CONTINUOUS
10
150.1724590000000035
20
-60.3407359999999997
11
150.1931510000000003
21
-60.3200439999999958
0
LINE
8
BLACK
6
CONTINUOUS
10
150.1931510000000003
20
-60.3200439999999958
11
150.2201869999999815
21
-60.308844999999998
0
LINE
8
BLACK
6
CONTINUOUS
10
150.2201869999999815
20
-60.308844999999998
11
150.2348189999999875
21
-60.3074039999999982
0
LINE
8
BLACK
6
CONTINUOUS
10
150.2348189999999875
20
-60.3074039999999982
11
151.0266369999999938
21
-60.3074039999999982
0
LINE
8
BLACK
6
CONTINUOUS
10
151.0266369999999938
20
-60.3074039999999982
11
151.0951529999999821
21
-60.2731449999999995
0
LINE
8
BLACK
6
CONTINUOUS
10
151.0951529999999821
20
-60.2731449999999995
11
151.1255610000000047
21
-60.2427379999999957
0
LINE
8
BLACK
6
CONTINUOUS
10
151.1255610000000047
20
-60.2427379999999957
11
151.1598189999999988
21
-60.1742229999999978
0
LINE
8
BLACK
6
CONTINUOUS
10
151.1598189999999988
20
-60.1742229999999978
11
151.1598189999999988
21
-60.0191569999999999
0
LINE
8
BLACK
6
CONTINUOUS
10
151.1598189999999988
20
-60.0191569999999999
11
151.1255610000000047
21
-59.9506409999999974
0
LINE
8
BLACK
6
CONTINUOUS
10
151.1255610000000047
20
-59.9506409999999974
11
151.0951529999999821
21
-59.9202340000000007
0
LINE
8
BLACK
6
CONTINUOUS
10
151.0951529999999821
20
-59.9202340000000007
11
151.0266369999999938
21
-59.8859759999999994
0
LINE
8
BLACK
6
CONTINUOUS
10
151.0266369999999938
20
-59.8859759999999994
11
150.2348189999999875
21
-59.8859759999999994
0
LINE
8
BLACK
6
CONTINUOUS
10
150.2348189999999875
20
-59.8859759999999994
11
150.2201869999999815
21
-59.8845349999999996
0
LINE
8
BLACK
6
CONTINUOUS
10
150.2201869999999815
20
-59.8845349999999996
11
150.1931510000000003
21
-59.8733359999999948
0
LINE
8
BLACK
6
CONTINUOUS
10
150.1931510000000003
20
-59.8733359999999948
11
150.1724590000000035
21
-59.852643999999998
0
LINE
8
BLACK
6
CONTINUOUS
10
150.1724590000000035
20
-59.852643999999998
11
150.1612599999999986
21
-59.8256079999999955
0
LINE
8
BLACK
6
CONTINUOUS
10
150.1612599999999986
20
-59.8256079999999955
11
150.1612599999999986
21
-59.7963439999999977
0
LINE
8
BLACK
6
CONTINUOUS
10
150.1612599999999986
20
-59.7963439999999977
11
150.1724590000000035
21
-59.7693079999999952
0
LINE
8
BLACK
6
CONTINUOUS
10
150.1724590000000035
20
-59.7693079999999952
11
150.1931510000000003
21
-59.7486159999999984
0
LINE
8
BLACK
6
CONTINUOUS
10
150.1931510000000003
20
-59.7486159999999984
11
150.2201869999999815
21
-59.7374170000000007
0
LINE
8
BLACK
6
CONTINUOUS
10
150.2201869999999815
20
-59.7374170000000007
11
150.2348189999999875
21
-59.7359759999999937
0
LINE
8
BLACK
6
CONTINUOUS
10
150.2348189999999875
20
-59.7359759999999937
11
151.0443420000000003
21
-59.7359759999999937
0
LINE
8
BLACK
6
CONTINUOUS
10
151.0443420000000003
20
-59.7359759999999937
11
151.0589740000000063
21
-59.7374170000000007
0
LINE
8
BLACK
6
CONTINUOUS
10
151.276487000000003
20
-58.7486159999999984
11
151.2971789999999999
21
-58.7693079999999952
0
LINE
8
BLACK
6
CONTINUOUS
10
151.2971789999999999
20
-58.7693079999999952
11
151.3083780000000047
21
-58.7963439999999977
0
LINE
8
BLACK
6
CONTINUOUS
10
151.3083780000000047
20
-58.7963439999999977
11
151.3098190000000045
21
-58.8109759999999966
0
LINE
8
BLACK
6
CONTINUOUS
10
151.3098190000000045
20
-58.8109759999999966
11
151.3098190000000045
21
-59.382403999999994
0
LINE
8
BLACK
6
CONTINUOUS
10
151.3098190000000045
20
-59.382403999999994
11
151.3083780000000047
21
-59.3970359999999999
0
LINE
8
BLACK
6
CONTINUOUS
10
151.3083780000000047
20
-59.3970359999999999
11
151.2971789999999999
21
-59.4240719999999953
0
LINE
8
BLACK
6
CONTINUOUS
10
151.2971789999999999
20
-59.4240719999999953
11
151.276487000000003
21
-59.4447639999999993
0
LINE
8
BLACK
6
CONTINUOUS
10
151.276487000000003
20
-59.4447639999999993
11
151.2494509999999934
21
-59.455962999999997
0
LINE
8
BLACK
6
CONTINUOUS
10
151.2494509999999934
20
-59.455962999999997
11
151.2201869999999815
21
-59.455962999999997
0
LINE
8
BLACK
6
CONTINUOUS
10
151.2201869999999815
20
-59.455962999999997
11
151.1931510000000003
21
-59.4447639999999993
0
LINE
8
BLACK
6
CONTINUOUS
10
151.1931510000000003
20
-59.4447639999999993
11
151.1724590000000035
21
-59.4240719999999953
0
LINE
8
BLACK
6
CONTINUOUS
10
151.1724590000000035
20
-59.4240719999999953
11
151.1612599999999986
21
-59.3970359999999999
0
LINE
8
BLACK
6
CONTINUOUS
10
151.1612599999999986
20
-59.3970359999999999
11
151.1598189999999988
21
-59.382403999999994
0
LINE
8
BLACK
6
CONTINUOUS
10
151.1598189999999988
20
-59.382403999999994
11
151.1598189999999988
21
-59.1716899999999981
0
LINE
8
BLACK
6
CONTINUOUS
10
151.1598189999999988
20
-59.1716899999999981
11
150.4635040000000004
21
-59.1716899999999981
0
LINE
8
BLACK
6
CONTINUOUS
10
150.4635040000000004
20
-59.1716899999999981
11
150.5259470000000022
21
-59.2341329999999999
0
LINE
8
BLACK
6
CONTINUOUS
10
150.5259470000000022
20
-59.2341329999999999
11
150.530666999999994
21
-59.239882999999999
0
LINE
8
BLACK
6
CONTINUOUS
10
150.530666999999994
20
-59.239882999999999
11
150.5321639999999945
21
-59.2411819999999949
0
LINE
8
BLACK
6
CONTINUOUS
10
150.5321639999999945
20
-59.2411819999999949
11
150.533582999999993
21
-59.2434359999999955
0
LINE
8
BLACK
6
CONTINUOUS
10
150.533582999999993
20
-59.2434359999999955
11
150.5352749999999844
21
-59.2454979999999978
0
LINE
8
BLACK
6
CONTINUOUS
10
150.5352749999999844
20
-59.2454979999999978
11
150.5360330000000033
21
-59.2473299999999981
0
LINE
8
BLACK
6
CONTINUOUS
10
150.5360330000000033
20
-59.2473299999999981
11
150.5399960000000021
21
-59.2536249999999995
0
LINE
8
BLACK
6
CONTINUOUS
10
150.5399960000000021
20
-59.2536249999999995
11
150.5876149999999996
21
-59.3488629999999944
0
LINE
8
BLACK
6
CONTINUOUS
10
150.5876149999999996
20
-59.3488629999999944
11
150.5928700000000049
21
-59.3625939999999943
0
LINE
8
BLACK
6
CONTINUOUS
10
150.5928700000000049
20
-59.3625939999999943
11
150.5949439999999981
21
-59.3917839999999941
0
LINE
8
BLACK
6
CONTINUOUS
10
150.5949439999999981
20
-59.3917839999999941
11
150.5856899999999996
21
-59.4195459999999969
0
LINE
8
BLACK
6
CONTINUOUS
10
150.5856899999999996
20
-59.4195459999999969
11
150.5665170000000046
21
-59.4416529999999952
0
LINE
8
BLACK
6
CONTINUOUS
10
150.5665170000000046
20
-59.4416529999999952
11
150.5403419999999812
21
-59.4547409999999985
0
LINE
8
BLACK
6
CONTINUOUS
10
150.5403419999999812
20
-59.4547409999999985
11
150.5111519999999814
21
-59.4568149999999989
0
LINE
8
BLACK
6
CONTINUOUS
10
150.5111519999999814
20
-59.4568149999999989
11
150.4833909999999833
21
-59.4475610000000003
0
LINE
8
BLACK
6
CONTINUOUS
10
150.4833909999999833
20
-59.4475610000000003
11
150.4612829999999803
21
-59.4283879999999982
0
LINE
8
BLACK
6
CONTINUOUS
10
150.4612829999999803
20
-59.4283879999999982
11
150.4534510000000012
21
-59.4159450000000007
0
LINE
8
BLACK
6
CONTINUOUS
10
150.4534510000000012
20
-59.4159450000000007
11
150.4112749999999892
21
-59.331592999999998
0
LINE
8
BLACK
6
CONTINUOUS
10
150.4112749999999892
20
-59.331592999999998
11
150.3298939999999959
21
-59.2502119999999977
0
LINE
8
BLACK
6
CONTINUOUS
10
150.3298939999999959
20
-59.2502119999999977
11
150.1932160000000067
21
-59.1590939999999961
0
LINE
8
BLACK
6
CONTINUOUS
10
150.1932160000000067
20
-59.1590939999999961
11
150.1931730000000016
21
-59.1590589999999992
0
LINE
8
BLACK
6
CONTINUOUS
10
150.1931730000000016
20
-59.1590589999999992
11
150.1931510000000003
21
-59.1590500000000006
0
LINE
8
BLACK
6
CONTINUOUS
10
150.1931510000000003
20
-59.1590500000000006
11
150.1930989999999895
21
-59.1589979999999969
0
LINE
8
BLACK
6
CONTINUOUS
10
150.1930989999999895
20
-59.1589979999999969
11
150.1818409999999915
21
-59.1497779999999977
0
LINE
8
BLACK
6
CONTINUOUS
10
150.1818409999999915
20
-59.1497779999999977
11
150.177708999999993
21
-59.1436080000000004
0
LINE
8
BLACK
6
CONTINUOUS
10
150.177708999999993
20
-59.1436080000000004
11
150.1724590000000035
21
-59.1383579999999967
0
LINE
8
BLACK
6
CONTINUOUS
10
150.1724590000000035
20
-59.1383579999999967
11
150.1696460000000002
21
-59.1315679999999944
0
LINE
8
BLACK
6
CONTINUOUS
10
150.1696460000000002
20
-59.1315679999999944
11
150.1655580000000043
21
-59.1254629999999963
0
LINE
8
BLACK
6
CONTINUOUS
10
150.1655580000000043
20
-59.1254629999999963
11
150.1641009999999881
21
-59.1181819999999973
0
LINE
8
BLACK
6
CONTINUOUS
10
150.1641009999999881
20
-59.1181819999999973
11
150.1612599999999986
21
-59.1113219999999941
0
LINE
8
BLACK
6
CONTINUOUS
10
150.1612599999999986
20
-59.1113219999999941
11
150.1612599999999986
21
-59.1039729999999963
0
LINE
8
BLACK
6
CONTINUOUS
10
150.1612599999999986
20
-59.1039729999999963
11
150.1598189999999988
21
-59.0967689999999948
0
LINE
8
BLACK
6
CONTINUOUS
10
150.1598189999999988
20
-59.0967689999999948
11
150.1612599999999986
21
-59.0894839999999988
0
LINE
8
BLACK
6
CONTINUOUS
10
150.1612599999999986
20
-59.0894839999999988
11
150.1612599999999986
21
-59.0820579999999964
0
LINE
8
BLACK
6
CONTINUOUS
10
150.1612599999999986
20
-59.0820579999999964
11
150.1640720000000044
21
-59.0752689999999987
0
LINE
8
BLACK
6
CONTINUOUS
10
150.1640720000000044
20
-59.0752689999999987
11
150.1654979999999853
21
-59.0680610000000001
0
LINE
8
BLACK
6
CONTINUOUS
10
150.1654979999999853
20
-59.0680610000000001
11
150.1696169999999881
21
-59.0618819999999971
0
LINE
8
BLACK
6
CONTINUOUS
10
150.1696169999999881
20
-59.0618819999999971
11
150.1724590000000035
21
-59.0550219999999939
0
LINE
8
BLACK
6
CONTINUOUS
10
150.1724590000000035
20
-59.0550219999999939
11
150.1776539999999898
21
-59.0498259999999959
0
LINE
8
BLACK
6
CONTINUOUS
10
150.1776539999999898
20
-59.0498259999999959
11
150.181730999999985
21
-59.0437119999999993
0
LINE
8
BLACK
6
CONTINUOUS
10
150.181730999999985
20
-59.0437119999999993
11
150.1878999999999849
21
-59.0395800000000008
0
LINE
8
BLACK
6
CONTINUOUS
10
150.1878999999999849
20
-59.0395800000000008
11
150.1931510000000003
21
-59.0343299999999971
0
LINE
8
BLACK
6
CONTINUOUS
10
150.1931510000000003
20
-59.0343299999999971
11
150.199939999999998
21
-59.0315169999999938
0
LINE
8
BLACK
6
CONTINUOUS
10
150.199939999999998
20
-59.0315169999999938
11
150.2060459999999864
21
-59.0274289999999979
0
LINE
8
BLACK
6
CONTINUOUS
10
150.2060459999999864
20
-59.0274289999999979
11
150.213325999999995
21
-59.0259719999999959
0
LINE
8
BLACK
6
CONTINUOUS
10
150.213325999999995
20
-59.0259719999999959
11
150.2201869999999815
21
-59.0231309999999993
0
LINE
8
BLACK
6
CONTINUOUS
10
150.2201869999999815
20
-59.0231309999999993
11
150.2346629999999834
21
-59.0217049999999972
0
LINE
8
BLACK
6
CONTINUOUS
10
150.2346629999999834
20
-59.0217049999999972
11
150.234739999999988
21
-59.0216899999999995
0
LINE
8
BLACK
6
CONTINUOUS
10
150.234739999999988
20
-59.0216899999999995
11
150.2347659999999792
21
-59.021694999999994
0
LINE
8
BLACK
6
CONTINUOUS
10
150.2347659999999792
20
-59.021694999999994
11
150.2348189999999875
21
-59.0216899999999995
0
LINE
8
BLACK
6
CONTINUOUS
10
150.2348189999999875
20
-59.0216899999999995
11
151.1598189999999988
21
-59.0216899999999995
0
LINE
8
BLACK
6
CONTINUOUS
10
151.1598189999999988
20
-59.0216899999999995
11
151.1598189999999988
21
-58.8109759999999966
0
LINE
8
BLACK
6
CONTINUOUS
10
151.1598189999999988
20
-58.8109759999999966
11
151.1612599999999986
21
-58.7963439999999977
0
LINE
8
BLACK
6
CONTINUOUS
10
151.1612599999999986
20
-58.7963439999999977
11
151.1724590000000035
21
-58.7693079999999952
0
LINE
8
BLACK
6
CONTINUOUS
10
151.1724590000000035
20
-58.7693079999999952
11
151.1931510000000003
21
-58.7486159999999984
0
LINE
8
BLACK
6
CONTINUOUS
10
151.1931510000000003
20
-58.7486159999999984
11
151.2201869999999815
21
-58.7374170000000007
0
LINE
8
BLACK
6
CONTINUOUS
10
151.2201869999999815
20
-58.7374170000000007
11
151.2494509999999934
21
-58.7374170000000007
0
LINE
8
BLACK
6
CONTINUOUS
10
151.2494509999999934
20
-58.7374170000000007
11
151.276487000000003
21
-58.7486159999999984
0
LINE
8
BLACK
6
CONTINUOUS
10
149.8185200000000066
20
-57.0942999999999969
11
149.8402140000000031
21
-57.1139399999999995
0
LINE
8
BLACK
6
CONTINUOUS
10
149.8402140000000031
20
-57.1139399999999995
11
149.8527409999999804
21
-57.1403859999999995
0
LINE
8
BLACK
6
CONTINUOUS
10
149.8527409999999804
20
-57.1403859999999995
11
149.8541950000000043
21
-57.1696129999999982
0
LINE
8
BLACK
6
CONTINUOUS
10
149.8541950000000043
20
-57.1696129999999982
11
149.8506309999999928
21
-57.1838769999999954
0
LINE
8
BLACK
6
CONTINUOUS
10
149.8506309999999928
20
-57.1838769999999954
11
149.6125360000000057
21
-57.8505439999999993
0
LINE
8
BLACK
6
CONTINUOUS
10
149.6125360000000057
20
-57.8505439999999993
11
149.6119329999999934
21
-57.851818999999999
0
LINE
8
BLACK
6
CONTINUOUS
10
149.6119329999999934
20
-57.851818999999999
11
149.6115409999999883
21
-57.8531729999999982
0
LINE
8
BLACK
6
CONTINUOUS
10
149.6115409999999883
20
-57.8531729999999982
11
149.5163029999999935
21
-58.0912679999999995
0
LINE
8
BLACK
6
CONTINUOUS
10
149.5163029999999935
20
-58.0912679999999995
11
149.5095309999999813
21
-58.1043189999999967
0
LINE
8
BLACK
6
CONTINUOUS
10
149.5095309999999813
20
-58.1043189999999967
11
149.5092039999999827
21
-58.104652999999999
0
LINE
8
BLACK
6
CONTINUOUS
10
149.5092039999999827
20
-58.104652999999999
11
149.5090270000000032
21
-58.1050819999999959
0
LINE
8
BLACK
6
CONTINUOUS
10
149.5090270000000032
20
-58.1050819999999959
11
149.49969999999999
21
-58.1164470000000009
0
LINE
8
BLACK
6
CONTINUOUS
10
149.49969999999999
20
-58.1164470000000009
11
149.4520809999999926
21
-58.1640659999999983
0
LINE
8
BLACK
6
CONTINUOUS
10
149.4520809999999926
20
-58.1640659999999983
11
149.4463309999999865
21
-58.1687839999999952
0
LINE
8
BLACK
6
CONTINUOUS
10
149.4463309999999865
20
-58.1687839999999952
11
149.4450319999999977
21
-58.1702829999999977
0
LINE
8
BLACK
6
CONTINUOUS
10
149.4450319999999977
20
-58.1702829999999977
11
149.4427719999999908
21
-58.1717039999999983
0
LINE
8
BLACK
6
CONTINUOUS
10
149.4427719999999908
20
-58.1717039999999983
11
149.4407159999999806
21
-58.1733929999999972
0
LINE
8
BLACK
6
CONTINUOUS
10
149.4407159999999806
20
-58.1733929999999972
11
149.4388879999999915
21
-58.1741499999999974
0
LINE
8
BLACK
6
CONTINUOUS
10
149.4388879999999915
20
-58.1741499999999974
11
149.4325890000000072
21
-58.1781149999999982
0
LINE
8
BLACK
6
CONTINUOUS
10
149.4325890000000072
20
-58.1781149999999982
11
149.337350999999984
21
-58.2257339999999957
0
LINE
8
BLACK
6
CONTINUOUS
10
149.337350999999984
20
-58.2257339999999957
11
149.3236189999999795
21
-58.2309889999999939
0
LINE
8
BLACK
6
CONTINUOUS
10
149.3236189999999795
20
-58.2309889999999939
11
149.2944289999999796
21
-58.2330629999999942
0
LINE
8
BLACK
6
CONTINUOUS
10
149.2944289999999796
20
-58.2330629999999942
11
149.2666679999999815
21
-58.2238089999999957
0
LINE
8
BLACK
6
CONTINUOUS
10
149.2666679999999815
20
-58.2238089999999957
11
149.244560000000007
21
-58.2046360000000007
0
LINE
8
BLACK
6
CONTINUOUS
10
149.244560000000007
20
-58.2046360000000007
11
149.231472999999994
21
-58.1784609999999986
0
LINE
8
BLACK
6
CONTINUOUS
10
149.231472999999994
20
-58.1784609999999986
11
149.2293990000000008
21
-58.1492709999999988
0
LINE
8
BLACK
6
CONTINUOUS
10
149.2293990000000008
20
-58.1492709999999988
11
149.2386529999999993
21
-58.1215100000000007
0
LINE
8
BLACK
6
CONTINUOUS
10
149.2386529999999993
20
-58.1215100000000007
11
149.2578259999999943
21
-58.0994019999999978
0
LINE
8
BLACK
6
CONTINUOUS
10
149.2578259999999943
20
-58.0994019999999978
11
149.2702689999999848
21
-58.0915699999999973
0
LINE
8
BLACK
6
CONTINUOUS
10
149.2702689999999848
20
-58.0915699999999973
11
149.3546209999999803
21
-58.0493939999999995
0
LINE
8
BLACK
6
CONTINUOUS
10
149.3546209999999803
20
-58.0493939999999995
11
149.3827479999999923
21
-58.0212659999999971
0
LINE
8
BLACK
6
CONTINUOUS
10
149.3827479999999923
20
-58.0212659999999971
11
149.4617279999999937
21
-57.8238160000000008
0
LINE
8
BLACK
6
CONTINUOUS
10
149.4617279999999937
20
-57.8238160000000008
11
149.2331790000000069
21
-57.1838769999999954
0
LINE
8
BLACK
6
CONTINUOUS
10
149.2331790000000069
20
-57.1838769999999954
11
149.2296149999999955
21
-57.1696129999999982
0
LINE
8
BLACK
6
CONTINUOUS
10
149.2296149999999955
20
-57.1696129999999982
11
149.2310689999999909
21
-57.1403849999999949
0
LINE
8
BLACK
6
CONTINUOUS
10
149.2310689999999909
20
-57.1403849999999949
11
149.2435959999999966
21
-57.1139389999999949
0
LINE
8
BLACK
6
CONTINUOUS
10
149.2435959999999966
20
-57.1139389999999949
11
149.2652899999999931
21
-57.0942999999999969
0
LINE
8
BLACK
6
CONTINUOUS
10
149.2652899999999931
20
-57.0942999999999969
11
149.2928489999999897
21
-57.0844570000000004
0
LINE
8
BLACK
6
CONTINUOUS
10
149.2928489999999897
20
-57.0844570000000004
11
149.3220770000000073
21
-57.0859109999999959
0
LINE
8
BLACK
6
CONTINUOUS
10
149.3220770000000073
20
-57.0859109999999959
11
149.3485230000000001
21
-57.0984379999999945
0
LINE
8
BLACK
6
CONTINUOUS
10
149.3485230000000001
20
-57.0984379999999945
11
149.3681619999999839
21
-57.1201319999999981
0
LINE
8
BLACK
6
CONTINUOUS
10
149.3681619999999839
20
-57.1201319999999981
11
149.3744409999999903
21
-57.1334269999999975
0
LINE
8
BLACK
6
CONTINUOUS
10
149.3744409999999903
20
-57.1334269999999975
11
149.5419049999999856
21
-57.6023259999999979
0
LINE
8
BLACK
6
CONTINUOUS
10
149.5419049999999856
20
-57.6023259999999979
11
149.709368999999981
21
-57.1334269999999975
0
LINE
8
BLACK
6
CONTINUOUS
10
149.709368999999981
20
-57.1334269999999975
11
149.7156479999999874
21
-57.1201319999999981
0
LINE
8
BLACK
6
CONTINUOUS
10
149.7156479999999874
20
-57.1201319999999981
11
149.7352869999999996
21
-57.0984379999999945
0
LINE
8
BLACK
6
CONTINUOUS
10
149.7352869999999996
20
-57.0984379999999945
11
149.7617329999999924
21
-57.0859109999999959
0
LINE
8
BLACK
6
CONTINUOUS
10
149.7617329999999924
20
-57.0859109999999959
11
149.7909609999999816
21
-57.0844570000000004
0
LINE
8
BLACK
6
CONTINUOUS
10
149.7909609999999816
20
-57.0844570000000004
11
149.8185200000000066
21
-57.0942999999999969
0
LINE
8
BLACK
6
CONTINUOUS
10
147.4883350000000064
20
-56.7629589999999951
11
147.5090270000000032
21
-56.783650999999999
0
LINE
8
BLACK
6
CONTINUOUS
10
147.5090270000000032
20
-56.783650999999999
11
147.5202259999999796
21
-56.8106869999999944
0
LINE
8
BLACK
6
CONTINUOUS
10
147.5202259999999796
20
-56.8106869999999944
11
147.5216669999999795
21
-56.8253190000000004
0
LINE
8
BLACK
6
CONTINUOUS
10
147.5216669999999795
20
-56.8253190000000004
11
147.5216669999999795
21
-57.0836520000000007
0
LINE
8
BLACK
6
CONTINUOUS
10
147.5216669999999795
20
-57.0836520000000007
11
147.6847620000000063
21
-57.0836520000000007
0
LINE
8
BLACK
6
CONTINUOUS
10
147.6847620000000063
20
-57.0836520000000007
11
147.6993939999999839
21
-57.0850930000000005
0
LINE
8
BLACK
6
CONTINUOUS
10
147.6993939999999839
20
-57.0850930000000005
11
147.7264299999999935
21
-57.0962919999999983
0
LINE
8
BLACK
6
CONTINUOUS
10
147.7264299999999935
20
-57.0962919999999983
11
147.7471219999999903
21
-57.1169839999999951
0
LINE
8
BLACK
6
CONTINUOUS
10
147.7471219999999903
20
-57.1169839999999951
11
147.7583209999999951
21
-57.1440199999999976
0
LINE
8
BLACK
6
CONTINUOUS
10
147.7583209999999951
20
-57.1440199999999976
11
147.7583209999999951
21
-57.1732839999999953
0
LINE
8
BLACK
6
CONTINUOUS
10
147.7583209999999951
20
-57.1732839999999953
11
147.7471219999999903
21
-57.2003199999999978
0
LINE
8
BLACK
6
CONTINUOUS
10
147.7471219999999903
20
-57.2003199999999978
11
147.7264299999999935
21
-57.2210119999999947
0
LINE
8
BLACK
6
CONTINUOUS
10
147.7264299999999935
20
-57.2210119999999947
11
147.6993939999999839
21
-57.2322109999999995
0
LINE
8
BLACK
6
CONTINUOUS
10
147.6993939999999839
20
-57.2322109999999995
11
147.6847620000000063
21
-57.2336519999999993
0
LINE
8
BLACK
6
CONTINUOUS
10
147.6847620000000063
20
-57.2336519999999993
11
147.5216669999999795
21
-57.2336519999999993
0
LINE
8
BLACK
6
CONTINUOUS
10
147.5216669999999795
20
-57.2336519999999993
11
147.5216669999999795
21
-57.664755999999997
0
LINE
8
BLACK
6
CONTINUOUS
10
147.5216669999999795
20
-57.664755999999997
11
147.550186999999994
21
-57.7217979999999997
0
LINE
8
BLACK
6
CONTINUOUS
10
147.550186999999994
20
-57.7217979999999997
11
147.6072289999999896
21
-57.7503189999999975
0
LINE
8
BLACK
6
CONTINUOUS
10
147.6072289999999896
20
-57.7503189999999975
11
147.6847620000000063
21
-57.7503189999999975
0
LINE
8
BLACK
6
CONTINUOUS
10
147.6847620000000063
20
-57.7503189999999975
11
147.6993939999999839
21
-57.7517599999999973
0
LINE
8
BLACK
6
CONTINUOUS
10
147.6993939999999839
20
-57.7517599999999973
11
147.7264299999999935
21
-57.7629589999999951
0
LINE
8
BLACK
6
CONTINUOUS
10
147.7264299999999935
20
-57.7629589999999951
11
147.7471219999999903
21
-57.783650999999999
0
LINE
8
BLACK
6
CONTINUOUS
10
147.7471219999999903
20
-57.783650999999999
11
147.7583209999999951
21
-57.8106869999999944
0
LINE
8
BLACK
6
CONTINUOUS
10
147.7583209999999951
20
-57.8106869999999944
11
147.7583209999999951
21
-57.8399509999999992
0
LINE
8
BLACK
6
CONTINUOUS
10
147.7583209999999951
20
-57.8399509999999992
11
147.7471219999999903
21
-57.8669869999999946
0
LINE
8
BLACK
6
CONTINUOUS
10
147.7471219999999903
20
-57.8669869999999946
11
147.7264299999999935
21
-57.8876789999999986
0
LINE
8
BLACK
6
CONTINUOUS
10
147.7264299999999935
20
-57.8876789999999986
11
147.6993939999999839
21
-57.8988779999999963
0
LINE
8
BLACK
6
CONTINUOUS
10
147.6993939999999839
20
-57.8988779999999963
11
147.6847620000000063
21
-57.9003189999999961
0
LINE
8
BLACK
6
CONTINUOUS
10
147.6847620000000063
20
-57.9003189999999961
11
147.5895239999999831
21
-57.9003189999999961
0
LINE
8
BLACK
6
CONTINUOUS
10
147.5895239999999831
20
-57.9003189999999961
11
147.5748920000000055
21
-57.8988779999999963
0
LINE
8
BLACK
6
CONTINUOUS
10
147.5748920000000055
20
-57.8988779999999963
11
147.57240299999998
21
-57.8978469999999987
0
LINE
8
BLACK
6
CONTINUOUS
10
147.57240299999998
20
-57.8978469999999987
11
147.5697140000000047
21
-57.8976559999999978
0
LINE
8
BLACK
6
CONTINUOUS
10
147.5697140000000047
20
-57.8976559999999978
11
147.5559829999999977
21
-57.8924009999999996
0
LINE
8
BLACK
6
CONTINUOUS
10
147.5559829999999977
20
-57.8924009999999996
11
147.4607450000000028
21
-57.844781999999995
0
LINE
8
BLACK
6
CONTINUOUS
10
147.4607450000000028
20
-57.844781999999995
11
147.4582969999999875
21
-57.843240999999999
0
LINE
8
BLACK
6
CONTINUOUS
10
147.4582969999999875
20
-57.843240999999999
11
147.4571439999999996
21
-57.8428569999999951
0
LINE
8
BLACK
6
CONTINUOUS
10
147.4571439999999996
20
-57.8428569999999951
11
147.4557069999999896
21
-57.8416110000000003
0
LINE
8
BLACK
6
CONTINUOUS
10
147.4557069999999896
20
-57.8416110000000003
11
147.448301999999984
21
-57.8369499999999945
0
LINE
8
BLACK
6
CONTINUOUS
10
147.448301999999984
20
-57.8369499999999945
11
147.4421379999999999
21
-57.8298419999999993
0
LINE
8
BLACK
6
CONTINUOUS
10
147.4421379999999999
20
-57.8298419999999993
11
147.4350359999999966
21
-57.8236829999999955
0
LINE
8
BLACK
6
CONTINUOUS
10
147.4350359999999966
20
-57.8236829999999955
11
147.430374999999998
21
-57.8162789999999944
0
LINE
8
BLACK
6
CONTINUOUS
10
147.430374999999998
20
-57.8162789999999944
11
147.429128999999989
21
-57.8148419999999987
0
LINE
8
BLACK
6
CONTINUOUS
10
147.429128999999989
20
-57.8148419999999987
11
147.4287439999999947
21
-57.8136869999999945
0
LINE
8
BLACK
6
CONTINUOUS
10
147.4287439999999947
20
-57.8136869999999945
11
147.427203999999989
21
-57.8112409999999954
0
LINE
8
BLACK
6
CONTINUOUS
10
147.427203999999989
20
-57.8112409999999954
11
147.3795849999999916
21
-57.716001999999996
0
LINE
8
BLACK
6
CONTINUOUS
10
147.3795849999999916
20
-57.716001999999996
11
147.3743299999999863
21
-57.7022699999999986
0
LINE
8
BLACK
6
CONTINUOUS
10
147.3743299999999863
20
-57.7022699999999986
11
147.3741389999999853
21
-57.6995819999999995
0
LINE
8
BLACK
6
CONTINUOUS
10
147.3741389999999853
20
-57.6995819999999995
11
147.373108000000002
21
-57.6970929999999953
0
LINE
8
BLACK
6
CONTINUOUS
10
147.373108000000002
20
-57.6970929999999953
11
147.3716670000000022
21
-57.6824609999999964
0
LINE
8
BLACK
6
CONTINUOUS
10
147.3716670000000022
20
-57.6824609999999964
11
147.3716670000000022
21
-57.2336519999999993
0
LINE
8
BLACK
6
CONTINUOUS
10
147.3716670000000022
20
-57.2336519999999993
11
147.3038099999999986
21
-57.2336519999999993
0
LINE
8
BLACK
6
CONTINUOUS
10
147.3038099999999986
20
-57.2336519999999993
11
147.2891779999999926
21
-57.2322109999999995
0
LINE
8
BLACK
6
CONTINUOUS
10
147.2891779999999926
20
-57.2322109999999995
11
147.262141999999983
21
-57.2210119999999947
0
LINE
8
BLACK
6
CONTINUOUS
10
147.262141999999983
20
-57.2210119999999947
11
147.2414499999999862
21
-57.2003199999999978
0
LINE
8
BLACK
6
CONTINUOUS
10
147.2414499999999862
20
-57.2003199999999978
11
147.2302509999999813
21
-57.1732839999999953
0
LINE
8
BLACK
6
CONTINUOUS
10
147.2302509999999813
20
-57.1732839999999953
11
147.2302509999999813
21
-57.1440199999999976
0
LINE
8
BLACK
6
CONTINUOUS
10
147.2302509999999813
20
-57.1440199999999976
11
147.2414499999999862
21
-57.1169839999999951
0
LINE
8
BLACK
6
CONTINUOUS
10
147.2414499999999862
20
-57.1169839999999951
11
147.262141999999983
21
-57.0962919999999983
0
LINE
8
BLACK
6
CONTINUOUS
10
147.262141999999983
20
-57.0962919999999983
11
147.2891779999999926
21
-57.0850930000000005
0
LINE
8
BLACK
6
CONTINUOUS
10
147.2891779999999926
20
-57.0850930000000005
11
147.3038099999999986
21
-57.0836520000000007
0
LINE
8
BLACK
6
CONTINUOUS
10
147.3038099999999986
20
-57.0836520000000007
11
147.3716670000000022
21
-57.0836520000000007
0
LINE
8
BLACK
6
CONTINUOUS
10
147.3716670000000022
20
-57.0836520000000007
11
147.3716670000000022
21
-56.8253190000000004
0
LINE
8
BLACK
6
CONTINUOUS
10
147.3716670000000022
20
-56.8253190000000004
11
147.373108000000002
21
-56.8106869999999944
0
LINE
8
BLACK
6
CONTINUOUS
10
147.373108000000002
20
-56.8106869999999944
11
147.3843070000000068
21
-56.783650999999999
0
LINE
8
BLACK
6
CONTINUOUS
10
147.3843070000000068
20
-56.783650999999999
11
147.4049990000000037
21
-56.7629589999999951
0
LINE
8
BLACK
6
CONTINUOUS
10
147.4049990000000037
20
-56.7629589999999951
11
147.4320349999999848
21
-56.7517599999999973
0
LINE
8
BLACK
6
CONTINUOUS
10
147.4320349999999848
20
-56.7517599999999973
11
147.4612989999999968
21
-56.7517599999999973
0
LINE
8
BLACK
6
CONTINUOUS
10
147.4612989999999968
20
-56.7517599999999973
11
147.4883350000000064
21
-56.7629589999999951
0
LINE
8
BLACK
6
CONTINUOUS
10
150.5089179999999942
20
-56.7517599999999973
11
150.5114069999999913
21
-56.7527909999999949
0
LINE
8
BLACK
6
CONTINUOUS
10
150.5114069999999913
20
-56.7527909999999949
11
150.5140949999999975
21
-56.7529819999999958
0
LINE
8
BLACK
6
CONTINUOUS
10
150.5140949999999975
20
-56.7529819999999958
11
150.527827000000002
21
-56.7582369999999941
0
LINE
8
BLACK
6
CONTINUOUS
10
150.527827000000002
20
-56.7582369999999941
11
150.6230649999999969
21
-56.8058559999999986
0
LINE
8
BLACK
6
CONTINUOUS
10
150.6230649999999969
20
-56.8058559999999986
11
150.6293639999999812
21
-56.8098199999999949
0
LINE
8
BLACK
6
CONTINUOUS
10
150.6293639999999812
20
-56.8098199999999949
11
150.6311919999999986
21
-56.8105779999999996
0
LINE
8
BLACK
6
CONTINUOUS
10
150.6311919999999986
20
-56.8105779999999996
11
150.6332479999999805
21
-56.8122659999999939
0
LINE
8
BLACK
6
CONTINUOUS
10
150.6332479999999805
20
-56.8122659999999939
11
150.6355079999999873
21
-56.8136879999999991
0
LINE
8
BLACK
6
CONTINUOUS
10
150.6355079999999873
20
-56.8136879999999991
11
150.6368070000000046
21
-56.8151859999999971
0
LINE
8
BLACK
6
CONTINUOUS
10
150.6368070000000046
20
-56.8151859999999971
11
150.6425569999999823
21
-56.8199049999999986
0
LINE
8
BLACK
6
CONTINUOUS
10
150.6425569999999823
20
-56.8199049999999986
11
150.6901759999999797
21
-56.867523999999996
0
LINE
8
BLACK
6
CONTINUOUS
10
150.6901759999999797
20
-56.867523999999996
11
150.694894000000005
21
-56.8732729999999975
0
LINE
8
BLACK
6
CONTINUOUS
10
150.694894000000005
20
-56.8732729999999975
11
150.6963930000000005
21
-56.874572999999998
0
LINE
8
BLACK
6
CONTINUOUS
10
150.6963930000000005
20
-56.874572999999998
11
150.6978139999999939
21
-56.8768320000000003
0
LINE
8
BLACK
6
CONTINUOUS
10
150.6978139999999939
20
-56.8768320000000003
11
150.6995029999999929
21
-56.8788890000000009
0
LINE
8
BLACK
6
CONTINUOUS
10
150.6995029999999929
20
-56.8788890000000009
11
150.7002599999999859
21
-56.8807159999999996
0
LINE
8
BLACK
6
CONTINUOUS
10
150.7002599999999859
20
-56.8807159999999996
11
150.7042249999999797
21
-56.8870159999999956
0
LINE
8
BLACK
6
CONTINUOUS
10
150.7042249999999797
20
-56.8870159999999956
11
150.7518440000000055
21
-56.9822539999999975
0
LINE
8
BLACK
6
CONTINUOUS
10
150.7518440000000055
20
-56.9822539999999975
11
150.7570989999999824
21
-56.9959849999999975
0
LINE
8
BLACK
6
CONTINUOUS
10
150.7570989999999824
20
-56.9959849999999975
11
150.7572899999999834
21
-56.9986739999999941
0
LINE
8
BLACK
6
CONTINUOUS
10
150.7572899999999834
20
-56.9986739999999941
11
150.7583209999999951
21
-57.0011629999999982
0
LINE
8
BLACK
6
CONTINUOUS
10
150.7583209999999951
20
-57.0011629999999982
11
150.7597619999999949
21
-57.0157949999999971
0
LINE
8
BLACK
6
CONTINUOUS
10
150.7597619999999949
20
-57.0157949999999971
11
150.7597619999999949
21
-57.0634139999999945
0
LINE
8
BLACK
6
CONTINUOUS
10
150.7597619999999949
20
-57.0634139999999945
11
150.7583209999999951
21
-57.0780460000000005
0
LINE
8
BLACK
6
CONTINUOUS
10
150.7583209999999951
20
-57.0780460000000005
11
150.7572899999999834
21
-57.0805340000000001
0
LINE
8
BLACK
6
CONTINUOUS
10
150.7572899999999834
20
-57.0805340000000001
11
150.7570989999999824
21
-57.0832239999999942
0
LINE
8
BLACK
6
CONTINUOUS
10
150.7570989999999824
20
-57.0832239999999942
11
150.7518440000000055
21
-57.0969549999999941
0
LINE
8
BLACK
6
CONTINUOUS
10
150.7518440000000055
20
-57.0969549999999941
11
150.7042249999999797
21
-57.1921929999999961
0
LINE
8
BLACK
6
CONTINUOUS
10
150.7042249999999797
20
-57.1921929999999961
11
150.7002599999999859
21
-57.1984919999999946
0
LINE
8
BLACK
6
CONTINUOUS
10
150.7002599999999859
20
-57.1984919999999946
11
150.6995029999999929
21
-57.2003199999999978
0
LINE
8
BLACK
6
CONTINUOUS
10
150.6995029999999929
20
-57.2003199999999978
11
150.6978139999999939
21
-57.2023759999999939
0
LINE
8
BLACK
6
CONTINUOUS
10
150.6978139999999939
20
-57.2023759999999939
11
150.6963930000000005
21
-57.2046360000000007
0
LINE
8
BLACK
6
CONTINUOUS
10
150.6963930000000005
20
-57.2046360000000007
11
150.694894000000005
21
-57.2059349999999966
0
LINE
8
BLACK
6
CONTINUOUS
10
150.694894000000005
20
-57.2059349999999966
11
150.6901759999999797
21
-57.2116849999999957
0
LINE
8
BLACK
6
CONTINUOUS
10
150.6901759999999797
20
-57.2116849999999957
11
150.6479709999999841
21
-57.2538899999999984
0
LINE
8
BLACK
6
CONTINUOUS
10
150.6479709999999841
20
-57.2538899999999984
11
150.6901759999999797
21
-57.296094999999994
0
LINE
8
BLACK
6
CONTINUOUS
10
150.6901759999999797
20
-57.296094999999994
11
150.694894000000005
21
-57.3018439999999956
0
LINE
8
BLACK
6
CONTINUOUS
10
150.694894000000005
20
-57.3018439999999956
11
150.6963930000000005
21
-57.3031439999999961
0
LINE
8
BLACK
6
CONTINUOUS
10
150.6963930000000005
20
-57.3031439999999961
11
150.6978139999999939
21
-57.3054029999999983
0
LINE
8
BLACK
6
CONTINUOUS
10
150.6978139999999939
20
-57.3054029999999983
11
150.6995029999999929
21
-57.307459999999999
0
LINE
8
BLACK
6
CONTINUOUS
10
150.6995029999999929
20
-57.307459999999999
11
150.7002599999999859
21
-57.3092869999999976
0
LINE
8
BLACK
6
CONTINUOUS
10
150.7002599999999859
20
-57.3092869999999976
11
150.7042249999999797
21
-57.3155870000000007
0
LINE
8
BLACK
6
CONTINUOUS
10
150.7042249999999797
20
-57.3155870000000007
11
150.7518440000000055
21
-57.4108249999999956
0
LINE
8
BLACK
6
CONTINUOUS
10
150.7518440000000055
20
-57.4108249999999956
11
150.7570989999999824
21
-57.4245559999999955
0
LINE
8
BLACK
6
CONTINUOUS
10
150.7570989999999824
20
-57.4245559999999955
11
150.7572899999999834
21
-57.4272449999999992
0
LINE
8
BLACK
6
CONTINUOUS
10
150.7572899999999834
20
-57.4272449999999992
11
150.7583209999999951
21
-57.4297339999999963
0
LINE
8
BLACK
6
CONTINUOUS
10
150.7583209999999951
20
-57.4297339999999963
11
150.7597619999999949
21
-57.4443659999999952
0
LINE
8
BLACK
6
CONTINUOUS
10
150.7597619999999949
20
-57.4443659999999952
11
150.7597619999999949
21
-57.634841999999999
0
LINE
8
BLACK
6
CONTINUOUS
10
150.7597619999999949
20
-57.634841999999999
11
150.7583209999999951
21
-57.6494739999999979
0
LINE
8
BLACK
6
CONTINUOUS
10
150.7583209999999951
20
-57.6494739999999979
11
150.7572899999999834
21
-57.6519619999999975
0
LINE
8
BLACK
6
CONTINUOUS
10
150.7572899999999834
20
-57.6519619999999975
11
150.7570989999999824
21
-57.6546519999999987
0
LINE
8
BLACK
6
CONTINUOUS
10
150.7570989999999824
20
-57.6546519999999987
11
150.7518440000000055
21
-57.6683829999999986
0
LINE
8
BLACK
6
CONTINUOUS
10
150.7518440000000055
20
-57.6683829999999986
11
150.7042249999999797
21
-57.7636210000000005
0
LINE
8
BLACK
6
CONTINUOUS
10
150.7042249999999797
20
-57.7636210000000005
11
150.7002609999999834
21
-57.7699169999999995
0
LINE
8
BLACK
6
CONTINUOUS
10
150.7002609999999834
20
-57.7699169999999995
11
150.6995039999999904
21
-57.7717469999999977
0
LINE
8
BLACK
6
CONTINUOUS
10
150.6995039999999904
20
-57.7717469999999977
11
150.6978139999999939
21
-57.7738049999999959
0
LINE
8
BLACK
6
CONTINUOUS
10
150.6978139999999939
20
-57.7738049999999959
11
150.6963930000000005
21
-57.7760639999999981
0
LINE
8
BLACK
6
CONTINUOUS
10
150.6963930000000005
20
-57.7760639999999981
11
150.694894000000005
21
-57.777362999999994
0
LINE
8
BLACK
6
CONTINUOUS
10
150.694894000000005
20
-57.777362999999994
11
150.6901759999999797
21
-57.7831130000000002
0
LINE
8
BLACK
6
CONTINUOUS
10
150.6901759999999797
20
-57.7831130000000002
11
150.6425579999999798
21
-57.8307319999999976
0
LINE
8
BLACK
6
CONTINUOUS
10
150.6425579999999798
20
-57.8307319999999976
11
150.636808000000002
21
-57.8354499999999945
0
LINE
8
BLACK
6
CONTINUOUS
10
150.636808000000002
20
-57.8354499999999945
11
150.6355079999999873
21
-57.8369499999999945
0
LINE
8
BLACK
6
CONTINUOUS
10
150.6355079999999873
20
-57.8369499999999945
11
150.6332479999999805
21
-57.8383719999999997
0
LINE
8
BLACK
6
CONTINUOUS
10
150.6332479999999805
20
-57.8383719999999997
11
150.6311919999999986
21
-57.840059999999994
0
LINE
8
BLACK
6
CONTINUOUS
10
150.6311919999999986
20
-57.840059999999994
11
150.6293639999999812
21
-57.8408169999999942
0
LINE
8
BLACK
6
CONTINUOUS
10
150.6293639999999812
20
-57.8408169999999942
11
150.6230649999999969
21
-57.844781999999995
0
LINE
8
BLACK
6
CONTINUOUS
10
150.6230649999999969
20
-57.844781999999995
11
150.527827000000002
21
-57.8924009999999996
0
LINE
8
BLACK
6
CONTINUOUS
10
150.527827000000002
20
-57.8924009999999996
11
150.5140949999999975
21
-57.8976559999999978
0
LINE
8
BLACK
6
CONTINUOUS
10
150.5140949999999975
20
-57.8976559999999978
11
150.5114069999999913
21
-57.8978459999999941
0
LINE
8
BLACK
6
CONTINUOUS
10
150.5114069999999913
20
-57.8978459999999941
11
150.5089179999999942
21
-57.8988779999999963
0
LINE
8
BLACK
6
CONTINUOUS
10
150.5089179999999942
20
-57.8988779999999963
11
150.4942859999999882
21
-57.9003189999999961
0
LINE
8
BLACK
6
CONTINUOUS
10
150.4942859999999882
20
-57.9003189999999961
11
150.3038099999999986
21
-57.9003189999999961
0
LINE
8
BLACK
6
CONTINUOUS
10
150.3038099999999986
20
-57.9003189999999961
11
150.2891779999999926
21
-57.8988779999999963
0
LINE
8
BLACK
6
CONTINUOUS
10
150.2891779999999926
20
-57.8988779999999963
11
150.2866889999999955
21
-57.8978469999999987
0
LINE
8
BLACK
6
CONTINUOUS
10
150.2866889999999955
20
-57.8978469999999987
11
150.2839999999999918
21
-57.8976559999999978
0
LINE
8
BLACK
6
CONTINUOUS
10
150.2839999999999918
20
-57.8976559999999978
11
150.2702689999999848
21
-57.8924009999999996
0
LINE
8
BLACK
6
CONTINUOUS
10
150.2702689999999848
20
-57.8924009999999996
11
150.1750309999999899
21
-57.844781999999995
0
LINE
8
BLACK
6
CONTINUOUS
10
150.1750309999999899
20
-57.844781999999995
11
150.1687309999999798
21
-57.8408169999999942
0
LINE
8
BLACK
6
CONTINUOUS
10
150.1687309999999798
20
-57.8408169999999942
11
150.1669039999999882
21
-57.840059999999994
0
LINE
8
BLACK
6
CONTINUOUS
10
150.1669039999999882
20
-57.840059999999994
11
150.1648469999999804
21
-57.8383719999999997
0
LINE
8
BLACK
6
CONTINUOUS
10
150.1648469999999804
20
-57.8383719999999997
11
150.1625879999999995
21
-57.8369499999999945
0
LINE
8
BLACK
6
CONTINUOUS
10
150.1625879999999995
20
-57.8369499999999945
11
150.1612869999999873
21
-57.8354499999999945
0
LINE
8
BLACK
6
CONTINUOUS
10
150.1612869999999873
20
-57.8354499999999945
11
150.1555380000000071
21
-57.8307319999999976
0
LINE
8
BLACK
6
CONTINUOUS
10
150.1555380000000071
20
-57.8307319999999976
11
150.1079189999999812
21
-57.7831119999999956
0
LINE
8
BLACK
6
CONTINUOUS
10
150.1079189999999812
20
-57.7831119999999956
11
150.1032009999999843
21
-57.777362999999994
0
LINE
8
BLACK
6
CONTINUOUS
10
150.1032009999999843
20
-57.777362999999994
11
150.1017029999999863
21
-57.7760639999999981
0
LINE
8
BLACK
6
CONTINUOUS
10
150.1017029999999863
20
-57.7760639999999981
11
150.1002809999999954
21
-57.7738049999999959
0
LINE
8
BLACK
6
CONTINUOUS
10
150.1002809999999954
20
-57.7738049999999959
11
150.0985919999999965
21
-57.7717469999999977
0
LINE
8
BLACK
6
CONTINUOUS
10
150.0985919999999965
20
-57.7717469999999977
11
150.097834000000006
21
-57.7699169999999995
0
LINE
8
BLACK
6
CONTINUOUS
10
150.097834000000006
20
-57.7699169999999995
11
150.0938710000000071
21
-57.7636210000000005
0
LINE
8
BLACK
6
CONTINUOUS
10
150.0938710000000071
20
-57.7636210000000005
11
150.0462519999999813
21
-57.6683829999999986
0
LINE
8
BLACK
6
CONTINUOUS
10
150.0462519999999813
20
-57.6683829999999986
11
150.0409970000000044
21
-57.6546509999999941
0
LINE
8
BLACK
6
CONTINUOUS
10
150.0409970000000044
20
-57.6546509999999941
11
150.0408060000000035
21
-57.651962999999995
0
LINE
8
BLACK
6
CONTINUOUS
10
150.0408060000000035
20
-57.651962999999995
11
150.0397749999999917
21
-57.6494739999999979
0
LINE
8
BLACK
6
CONTINUOUS
10
150.0397749999999917
20
-57.6494739999999979
11
150.0383339999999919
21
-57.634841999999999
0
LINE
8
BLACK
6
CONTINUOUS
10
150.0383339999999919
20
-57.634841999999999
11
150.0383339999999919
21
-57.4443659999999952
0
LINE
8
BLACK
6
CONTINUOUS
10
150.0383339999999919
20
-57.4443659999999952
11
150.0397749999999917
21
-57.4297339999999963
0
LINE
8
BLACK
6
CONTINUOUS
10
150.0397749999999917
20
-57.4297339999999963
11
150.0408060000000035
21
-57.4272439999999946
0
LINE
8
BLACK
6
CONTINUOUS
10
150.0408060000000035
20
-57.4272439999999946
11
150.0409970000000044
21
-57.4245570000000001
0
LINE
8
BLACK
6
CONTINUOUS
10
150.0409970000000044
20
-57.4245570000000001
11
150.0462519999999813
21
-57.4108249999999956
0
LINE
8
BLACK
6
CONTINUOUS
10
150.0462519999999813
20
-57.4108249999999956
11
150.0938710000000071
21
-57.3155870000000007
0
LINE
8
BLACK
6
CONTINUOUS
10
150.0938710000000071
20
-57.3155870000000007
11
150.0978350000000034
21
-57.3092869999999976
0
LINE
8
BLACK
6
CONTINUOUS
10
150.0978350000000034
20
-57.3092869999999976
11
150.0985929999999939
21
-57.307459999999999
0
LINE
8
BLACK
6
CONTINUOUS
10
150.0985929999999939
20
-57.307459999999999
11
150.1002809999999954
21
-57.3054029999999983
0
LINE
8
BLACK
6
CONTINUOUS
10
150.1002809999999954
20
-57.3054029999999983
11
150.1017029999999863
21
-57.3031439999999961
0
LINE
8
BLACK
6
CONTINUOUS
10
150.1017029999999863
20
-57.3031439999999961
11
150.1032009999999843
21
-57.3018439999999956
0
LINE
8
BLACK
6
CONTINUOUS
10
150.1032009999999843
20
-57.3018439999999956
11
150.1079200000000071
21
-57.296094999999994
0
LINE
8
BLACK
6
CONTINUOUS
10
150.1079200000000071
20
-57.296094999999994
11
150.1501250000000027
21
-57.2538899999999984
0
LINE
8
BLACK
6
CONTINUOUS
10
150.1501250000000027
20
-57.2538899999999984
11
150.1079200000000071
21
-57.2116849999999957
0
LINE
8
BLACK
6
CONTINUOUS
10
150.1079200000000071
20
-57.2116849999999957
11
150.1032009999999843
21
-57.2059349999999966
0
LINE
8
BLACK
6
CONTINUOUS
10
150.1032009999999843
20
-57.2059349999999966
11
150.1017029999999863
21
-57.2046360000000007
0
LINE
8
BLACK
6
CONTINUOUS
10
150.1017029999999863
20
-57.2046360000000007
11
150.1002809999999954
21
-57.2023759999999939
0
LINE
8
BLACK
6
CONTINUOUS
10
150.1002809999999954
20
-57.2023759999999939
11
150.0985929999999939
21
-57.2003199999999978
0
LINE
8
BLACK
6
CONTINUOUS
10
150.0985929999999939
20
-57.2003199999999978
11
150.0978350000000034
21
-57.1984919999999946
0
LINE
8
BLACK
6
CONTINUOUS
10
150.0978350000000034
20
-57.1984919999999946
11
150.0938710000000071
21
-57.1921929999999961
0
LINE
8
BLACK
6
CONTINUOUS
10
150.0938710000000071
20
-57.1921929999999961
11
150.0462519999999813
21
-57.0969549999999941
0
LINE
8
BLACK
6
CONTINUOUS
10
150.0462519999999813
20
-57.0969549999999941
11
150.0409970000000044
21
-57.0832229999999967
0
LINE
8
BLACK
6
CONTINUOUS
10
150.0409970000000044
20
-57.0832229999999967
11
150.0408060000000035
21
-57.0805349999999976
0
LINE
8
BLACK
6
CONTINUOUS
10
150.0408060000000035
20
-57.0805349999999976
11
150.0397749999999917
21
-57.0780460000000005
0
LINE
8
BLACK
6
CONTINUOUS
10
150.0397749999999917
20
-57.0780460000000005
11
150.0383339999999919
21
-57.0634139999999945
0
LINE
8
BLACK
6
CONTINUOUS
10
150.0383339999999919
20
-57.0634139999999945
11
150.0383339999999919
21
-57.0157949999999971
0
LINE
8
BLACK
6
CONTINUOUS
10
150.0383339999999919
20
-57.0157949999999971
11
150.0397749999999917
21
-57.0011629999999982
0
LINE
8
BLACK
6
CONTINUOUS
10
150.0397749999999917
20
-57.0011629999999982
11
150.0408060000000035
21
-56.9986729999999966
0
LINE
8
BLACK
6
CONTINUOUS
10
150.0408060000000035
20
-56.9986729999999966
11
150.0409970000000044
21
-56.9959859999999949
0
LINE
8
BLACK
6
CONTINUOUS
10
150.0409970000000044
20
-56.9959859999999949
11
150.0462519999999813
21
-56.9822539999999975
0
LINE
8
BLACK
6
CONTINUOUS
10
150.0462519999999813
20
-56.9822539999999975
11
150.0938710000000071
21
-56.8870159999999956
0
LINE
8
BLACK
6
CONTINUOUS
10
150.0938710000000071
20
-56.8870159999999956
11
150.0978350000000034
21
-56.8807159999999996
0
LINE
8
BLACK
6
CONTINUOUS
10
150.0978350000000034
20
-56.8807159999999996
11
150.0985929999999939
21
-56.8788890000000009
0
LINE
8
BLACK
6
CONTINUOUS
10
150.0985929999999939
20
-56.8788890000000009
11
150.1002809999999954
21
-56.8768320000000003
0
LINE
8
BLACK
6
CONTINUOUS
10
150.1002809999999954
20
-56.8768320000000003
11
150.1017029999999863
21
-56.874572999999998
0
LINE
8
BLACK
6
CONTINUOUS
10
150.1017029999999863
20
-56.874572999999998
11
150.1032009999999843
21
-56.8732729999999975
0
LINE
8
BLACK
6
CONTINUOUS
10
150.1032009999999843
20
-56.8732729999999975
11
150.1079200000000071
21
-56.867523999999996
0
LINE
8
BLACK
6
CONTINUOUS
10
150.1079200000000071
20
-56.867523999999996
11
150.1555390000000045
21
-56.8199049999999986
0
LINE
8
BLACK
6
CONTINUOUS
10
150.1555390000000045
20
-56.8199049999999986
11
150.1612879999999848
21
-56.8151859999999971
0
LINE
8
BLACK
6
CONTINUOUS
10
150.1612879999999848
20
-56.8151859999999971
11
150.1625879999999995
21
-56.8136879999999991
0
LINE
8
BLACK
6
CONTINUOUS
10
150.1625879999999995
20
-56.8136879999999991
11
150.1648469999999804
21
-56.8122659999999939
0
LINE
8
BLACK
6
CONTINUOUS
10
150.1648469999999804
20
-56.8122659999999939
11
150.1669039999999882
21
-56.8105779999999996
0
LINE
8
BLACK
6
CONTINUOUS
10
150.1669039999999882
20
-56.8105779999999996
11
150.1687309999999798
21
-56.8098199999999949
0
LINE
8
BLACK
6
CONTINUOUS
10
150.1687309999999798
20
-56.8098199999999949
11
150.1750309999999899
21
-56.8058559999999986
0
LINE
8
BLACK
6
CONTINUOUS
10
150.1750309999999899
20
-56.8058559999999986
11
150.2702689999999848
21
-56.7582369999999941
0
LINE
8
BLACK
6
CONTINUOUS
10
150.2702689999999848
20
-56.7582369999999941
11
150.2839999999999918
21
-56.7529819999999958
0
LINE
8
BLACK
6
CONTINUOUS
10
150.2839999999999918
20
-56.7529819999999958
11
150.2866889999999955
21
-56.7527899999999974
0
LINE
8
BLACK
6
CONTINUOUS
10
150.2866889999999955
20
-56.7527899999999974
11
150.2891779999999926
21
-56.7517599999999973
0
LINE
8
BLACK
6
CONTINUOUS
10
150.2891779999999926
20
-56.7517599999999973
11
150.3038099999999986
21
-56.7503189999999975
0
LINE
8
BLACK
6
CONTINUOUS
10
150.3038099999999986
20
-56.7503189999999975
11
150.4942859999999882
21
-56.7503189999999975
0
LINE
8
BLACK
6
CONTINUOUS
10
150.4942859999999882
20
-56.7503189999999975
11
150.5089179999999942
21
-56.7517599999999973
0
LINE
8
BLACK
6
CONTINUOUS
10
150.2529989999999884
20
-57.3631479999999954
11
150.2225919999999917
21
-57.3935549999999992
0
LINE
8
BLACK
6
CONTINUOUS
10
150.2225919999999917
20
-57.3935549999999992
11
150.1883339999999976
21
-57.4620709999999946
0
LINE
8
BLACK
6
CONTINUOUS
10
150.1883339999999976
20
-57.4620709999999946
11
150.1883339999999976
21
-57.6171369999999996
0
LINE
8
BLACK
6
CONTINUOUS
10
150.1883339999999976
20
-57.6171369999999996
11
150.2225919999999917
21
-57.685652999999995
0
LINE
8
BLACK
6
CONTINUOUS
10
150.2225919999999917
20
-57.685652999999995
11
150.2529989999999884
21
-57.7160609999999963
0
LINE
8
BLACK
6
CONTINUOUS
10
150.2529989999999884
20
-57.7160609999999963
11
150.3215150000000051
21
-57.7503189999999975
0
LINE
8
BLACK
6
CONTINUOUS
10
150.3215150000000051
20
-57.7503189999999975
11
150.4765809999999817
21
-57.7503189999999975
0
LINE
8
BLACK
6
CONTINUOUS
10
150.4765809999999817
20
-57.7503189999999975
11
150.5450960000000009
21
-57.7160609999999963
0
LINE
8
BLACK
6
CONTINUOUS
10
150.5450960000000009
20
-57.7160609999999963
11
150.5755029999999977
21
-57.685652999999995
0
LINE
8
BLACK
6
CONTINUOUS
10
150.5755029999999977
20
-57.685652999999995
11
150.6097619999999893
21
-57.6171369999999996
0
LINE
8
BLACK
6
CONTINUOUS
10
150.6097619999999893
20
-57.6171369999999996
11
150.6097619999999893
21
-57.4620709999999946
0
LINE
8
BLACK
6
CONTINUOUS
10
150.6097619999999893
20
-57.4620709999999946
11
150.5755039999999951
21
-57.3935549999999992
0
LINE
8
BLACK
6
CONTINUOUS
10
150.5755039999999951
20
-57.3935549999999992
11
150.5450969999999984
21
-57.3631479999999954
0
LINE
8
BLACK
6
CONTINUOUS
10
150.5450969999999984
20
-57.3631479999999954
11
150.4765809999999817
21
-57.3288899999999941
0
LINE
8
BLACK
6
CONTINUOUS
10
150.4765809999999817
20
-57.3288899999999941
11
150.3215150000000051
21
-57.3288899999999941
0
LINE
8
BLACK
6
CONTINUOUS
10
150.3215150000000051
20
-57.3288899999999941
11
150.2529989999999884
21
-57.3631479999999954
0
LINE
8
BLACK
6
CONTINUOUS
10
150.2529989999999884
20
-56.9345769999999973
11
150.2225919999999917
21
-56.9649839999999941
0
LINE
8
BLACK
6
CONTINUOUS
10
150.2225919999999917
20
-56.9649839999999941
11
150.1883339999999976
21
-57.0334999999999965
0
LINE
8
BLACK
6
CONTINUOUS
10
150.1883339999999976
20
-57.0334999999999965
11
150.1883339999999976
21
-57.0457089999999951
0
LINE
8
BLACK
6
CONTINUOUS
10
150.1883339999999976
20
-57.0457089999999951
11
150.2225919999999917
21
-57.1142249999999976
0
LINE
8
BLACK
6
CONTINUOUS
10
150.2225919999999917
20
-57.1142249999999976
11
150.2529989999999884
21
-57.1446319999999943
0
LINE
8
BLACK
6
CONTINUOUS
10
150.2529989999999884
20
-57.1446319999999943
11
150.3215150000000051
21
-57.1788899999999956
0
LINE
8
BLACK
6
CONTINUOUS
10
150.3215150000000051
20
-57.1788899999999956
11
150.4765809999999817
21
-57.1788899999999956
0
LINE
8
BLACK
6
CONTINUOUS
10
150.4765809999999817
20
-57.1788899999999956
11
150.5450969999999984
21
-57.1446319999999943
0
LINE
8
BLACK
6
CONTINUOUS
10
150.5450969999999984
20
-57.1446319999999943
11
150.5755039999999951
21
-57.1142249999999976
0
LINE
8
BLACK
6
CONTINUOUS
10
150.5755039999999951
20
-57.1142249999999976
11
150.6097619999999893
21
-57.0457089999999951
0
LINE
8
BLACK
6
CONTINUOUS
10
150.6097619999999893
20
-57.0457089999999951
11
150.6097619999999893
21
-57.0334999999999965
0
LINE
8
BLACK
6
CONTINUOUS
10
150.6097619999999893
20
-57.0334999999999965
11
150.5755039999999951
21
-56.9649839999999941
0
LINE
8
BLACK
6
CONTINUOUS
10
150.5755039999999951
20
-56.9649839999999941
11
150.5450969999999984
21
-56.9345769999999973
0
LINE
8
BLACK
6
CONTINUOUS
10
150.5450969999999984
20
-56.9345769999999973
11
150.4765809999999817
21
-56.9003189999999961
0
LINE
8
BLACK
6
CONTINUOUS
10
150.4765809999999817
20
-56.9003189999999961
11
150.3215150000000051
21
-56.9003189999999961
0
LINE
8
BLACK
6
CONTINUOUS
10
150.3215150000000051
20
-56.9003189999999961
11
150.2529989999999884
21
-56.9345769999999973
0
LINE
8
BLACK
6
CONTINUOUS
10
151.604155999999989
20
-56.7517599999999973
11
151.6311919999999986
21
-56.7629589999999951
0
LINE
8
BLACK
6
CONTINUOUS
10
151.6311919999999986
20
-56.7629589999999951
11
151.6518839999999955
21
-56.783650999999999
0
LINE
8
BLACK
6
CONTINUOUS
10
151.6518839999999955
20
-56.783650999999999
11
151.6630830000000003
21
-56.8106869999999944
0
LINE
8
BLACK
6
CONTINUOUS
10
151.6630830000000003
20
-56.8106869999999944
11
151.6630830000000003
21
-56.8399509999999992
0
LINE
8
BLACK
6
CONTINUOUS
10
151.6630830000000003
20
-56.8399509999999992
11
151.6518839999999955
21
-56.8669869999999946
0
LINE
8
BLACK
6
CONTINUOUS
10
151.6518839999999955
20
-56.8669869999999946
11
151.6311919999999986
21
-56.8876789999999986
0
LINE
8
BLACK
6
CONTINUOUS
10
151.6311919999999986
20
-56.8876789999999986
11
151.604155999999989
21
-56.8988779999999963
0
LINE
8
BLACK
6
CONTINUOUS
10
151.604155999999989
20
-56.8988779999999963
11
151.5895239999999831
21
-56.9003189999999961
0
LINE
8
BLACK
6
CONTINUOUS
10
151.5895239999999831
20
-56.9003189999999961
11
151.181207999999998
21
-56.9003189999999961
0
LINE
8
BLACK
6
CONTINUOUS
10
151.181207999999998
20
-56.9003189999999961
11
151.1563889999999901
21
-57.1485089999999971
0
LINE
8
BLACK
6
CONTINUOUS
10
151.1563889999999901
20
-57.1485089999999971
11
151.1750309999999899
21
-57.1391889999999947
0
LINE
8
BLACK
6
CONTINUOUS
10
151.1750309999999899
20
-57.1391889999999947
11
151.188761999999997
21
-57.1339339999999964
0
LINE
8
BLACK
6
CONTINUOUS
10
151.188761999999997
20
-57.1339339999999964
11
151.1914510000000007
21
-57.133741999999998
0
LINE
8
BLACK
6
CONTINUOUS
10
151.1914510000000007
20
-57.133741999999998
11
151.1939399999999978
21
-57.1327119999999979
0
LINE
8
BLACK
6
CONTINUOUS
10
151.1939399999999978
20
-57.1327119999999979
11
151.2085720000000038
21
-57.1312709999999981
0
LINE
8
BLACK
6
CONTINUOUS
10
151.2085720000000038
20
-57.1312709999999981
11
151.4466669999999908
21
-57.1312709999999981
0
LINE
8
BLACK
6
CONTINUOUS
10
151.4466669999999908
20
-57.1312709999999981
11
151.4612989999999968
21
-57.1327119999999979
0
LINE
8
BLACK
6
CONTINUOUS
10
151.4612989999999968
20
-57.1327119999999979
11
151.4637879999999939
21
-57.1337429999999955
0
LINE
8
BLACK
6
CONTINUOUS
10
151.4637879999999939
20
-57.1337429999999955
11
151.4664760000000001
21
-57.1339339999999964
0
LINE
8
BLACK
6
CONTINUOUS
10
151.4664760000000001
20
-57.1339339999999964
11
151.4802080000000046
21
-57.1391889999999947
0
LINE
8
BLACK
6
CONTINUOUS
10
151.4802080000000046
20
-57.1391889999999947
11
151.5754459999999995
21
-57.1868079999999992
0
LINE
8
BLACK
6
CONTINUOUS
10
151.5754459999999995
20
-57.1868079999999992
11
151.5817449999999837
21
-57.1907719999999955
0
LINE
8
BLACK
6
CONTINUOUS
10
151.5817449999999837
20
-57.1907719999999955
11
151.5835730000000012
21
-57.1915300000000002
0
LINE
8
BLACK
6
CONTINUOUS
10
151.5835730000000012
20
-57.1915300000000002
11
151.5856289999999831
21
-57.1932179999999946
0
LINE
8
BLACK
6
CONTINUOUS
10
151.5856289999999831
20
-57.1932179999999946
11
151.5878889999999899
21
-57.1946399999999997
0
LINE
8
BLACK
6
CONTINUOUS
10
151.5878889999999899
20
-57.1946399999999997
11
151.5891880000000072
21
-57.1961379999999977
0
LINE
8
BLACK
6
CONTINUOUS
10
151.5891880000000072
20
-57.1961379999999977
11
151.5949379999999849
21
-57.2008569999999992
0
LINE
8
BLACK
6
CONTINUOUS
10
151.5949379999999849
20
-57.2008569999999992
11
151.6425569999999823
21
-57.2484759999999966
0
LINE
8
BLACK
6
CONTINUOUS
10
151.6425569999999823
20
-57.2484759999999966
11
151.6472749999999792
21
-57.2542249999999981
0
LINE
8
BLACK
6
CONTINUOUS
10
151.6472749999999792
20
-57.2542249999999981
11
151.6487740000000031
21
-57.2555249999999987
0
LINE
8
BLACK
6
CONTINUOUS
10
151.6487740000000031
20
-57.2555249999999987
11
151.6501949999999965
21
-57.2577840000000009
0
LINE
8
BLACK
6
CONTINUOUS
10
151.6501949999999965
20
-57.2577840000000009
11
151.6518839999999955
21
-57.2598409999999944
0
LINE
8
BLACK
6
CONTINUOUS
10
151.6518839999999955
20
-57.2598409999999944
11
151.6526409999999885
21
-57.2616680000000002
0
LINE
8
BLACK
6
CONTINUOUS
10
151.6526409999999885
20
-57.2616680000000002
11
151.6566059999999823
21
-57.2679679999999962
0
LINE
8
BLACK
6
CONTINUOUS
10
151.6566059999999823
20
-57.2679679999999962
11
151.7042249999999797
21
-57.3632059999999981
0
LINE
8
BLACK
6
CONTINUOUS
10
151.7042249999999797
20
-57.3632059999999981
11
151.709479999999985
21
-57.3769369999999981
0
LINE
8
BLACK
6
CONTINUOUS
10
151.709479999999985
20
-57.3769369999999981
11
151.709670999999986
21
-57.3796259999999947
0
LINE
8
BLACK
6
CONTINUOUS
10
151.709670999999986
20
-57.3796259999999947
11
151.7107019999999977
21
-57.3821149999999989
0
LINE
8
BLACK
6
CONTINUOUS
10
151.7107019999999977
20
-57.3821149999999989
11
151.7121429999999975
21
-57.3967469999999977
0
LINE
8
BLACK
6
CONTINUOUS
10
151.7121429999999975
20
-57.3967469999999977
11
151.7121429999999975
21
-57.634841999999999
0
LINE
8
BLACK
6
CONTINUOUS
10
151.7121429999999975
20
-57.634841999999999
11
151.7107019999999977
21
-57.6494739999999979
0
LINE
8
BLACK
6
CONTINUOUS
10
151.7107019999999977
20
-57.6494739999999979
11
151.709670999999986
21
-57.6519619999999975
0
LINE
8
BLACK
6
CONTINUOUS
10
151.709670999999986
20
-57.6519619999999975
11
151.709479999999985
21
-57.6546519999999987
0
LINE
8
BLACK
6
CONTINUOUS
10
151.709479999999985
20
-57.6546519999999987
11
151.7042249999999797
21
-57.6683829999999986
0
LINE
8
BLACK
6
CONTINUOUS
10
151.7042249999999797
20
-57.6683829999999986
11
151.6566059999999823
21
-57.7636210000000005
0
LINE
8
BLACK
6
CONTINUOUS
10
151.6566059999999823
20
-57.7636210000000005
11
151.652641999999986
21
-57.7699169999999995
0
LINE
8
BLACK
6
CONTINUOUS
10
151.652641999999986
20
-57.7699169999999995
11
151.6518849999999929
21
-57.7717469999999977
0
LINE
8
BLACK
6
CONTINUOUS
10
151.6518849999999929
20
-57.7717469999999977
11
151.6501949999999965
21
-57.7738049999999959
0
LINE
8
BLACK
6
CONTINUOUS
10
151.6501949999999965
20
-57.7738049999999959
11
151.6487740000000031
21
-57.7760639999999981
0
LINE
8
BLACK
6
CONTINUOUS
10
151.6487740000000031
20
-57.7760639999999981
11
151.6472749999999792
21
-57.777362999999994
0
LINE
8
BLACK
6
CONTINUOUS
10
151.6472749999999792
20
-57.777362999999994
11
151.6425569999999823
21
-57.7831130000000002
0
LINE
8
BLACK
6
CONTINUOUS
10
151.6425569999999823
20
-57.7831130000000002
11
151.5949389999999823
21
-57.8307319999999976
0
LINE
8
BLACK
6
CONTINUOUS
10
151.5949389999999823
20
-57.8307319999999976
11
151.5891890000000046
21
-57.8354499999999945
0
LINE
8
BLACK
6
CONTINUOUS
10
151.5891890000000046
20
-57.8354499999999945
11
151.5878889999999899
21
-57.8369499999999945
0
LINE
8
BLACK
6
CONTINUOUS
10
151.5878889999999899
20
-57.8369499999999945
11
151.5856289999999831
21
-57.8383719999999997
0
LINE
8
BLACK
6
CONTINUOUS
10
151.5856289999999831
20
-57.8383719999999997
11
151.5835730000000012
21
-57.840059999999994
0
LINE
8
BLACK
6
CONTINUOUS
10
151.5835730000000012
20
-57.840059999999994
11
151.5817449999999837
21
-57.8408169999999942
0
LINE
8
BLACK
6
CONTINUOUS
10
151.5817449999999837
20
-57.8408169999999942
11
151.5754459999999995
21
-57.844781999999995
0
LINE
8
BLACK
6
CONTINUOUS
10
151.5754459999999995
20
-57.844781999999995
11
151.4802080000000046
21
-57.8924009999999996
0
LINE
8
BLACK
6
CONTINUOUS
10
151.4802080000000046
20
-57.8924009999999996
11
151.4664760000000001
21
-57.8976559999999978
0
LINE
8
BLACK
6
CONTINUOUS
10
151.4664760000000001
20
-57.8976559999999978
11
151.4637879999999939
21
-57.8978459999999941
0
LINE
8
BLACK
6
CONTINUOUS
10
151.4637879999999939
20
-57.8978459999999941
11
151.4612989999999968
21
-57.8988779999999963
0
LINE
8
BLACK
6
CONTINUOUS
10
151.4612989999999968
20
-57.8988779999999963
11
151.4466669999999908
21
-57.9003189999999961
0
LINE
8
BLACK
6
CONTINUOUS
10
151.4466669999999908
20
-57.9003189999999961
11
151.2085720000000038
21
-57.9003189999999961
0
LINE
8
BLACK
6
CONTINUOUS
10
151.2085720000000038
20
-57.9003189999999961
11
151.1939399999999978
21
-57.8988779999999963
0
LINE
8
BLACK
6
CONTINUOUS
10
151.1939399999999978
20
-57.8988779999999963
11
151.1914510000000007
21
-57.8978469999999987
0
LINE
8
BLACK
6
CONTINUOUS
10
151.1914510000000007
20
-57.8978469999999987
11
151.188761999999997
21
-57.8976559999999978
0
LINE
8
BLACK
6
CONTINUOUS
10
151.188761999999997
20
-57.8976559999999978
11
151.1750309999999899
21
-57.8924009999999996
0
LINE
8
BLACK
6
CONTINUOUS
10
151.1750309999999899
20
-57.8924009999999996
11
151.0797929999999951
21
-57.844781999999995
0
LINE
8
BLACK
6
CONTINUOUS
10
151.0797929999999951
20
-57.844781999999995
11
151.0734929999999849
21
-57.8408169999999942
0
LINE
8
BLACK
6
CONTINUOUS
10
151.0734929999999849
20
-57.8408169999999942
11
151.0716659999999933
21
-57.840059999999994
0
LINE
8
BLACK
6
CONTINUOUS
10
151.0716659999999933
20
-57.840059999999994
11
151.0696089999999856
21
-57.8383719999999997
0
LINE
8
BLACK
6
CONTINUOUS
10
151.0696089999999856
20
-57.8383719999999997
11
151.0673500000000047
21
-57.8369499999999945
0
LINE
8
BLACK
6
CONTINUOUS
10
151.0673500000000047
20
-57.8369499999999945
11
151.0660489999999925
21
-57.8354499999999945
0
LINE
8
BLACK
6
CONTINUOUS
10
151.0660489999999925
20
-57.8354499999999945
11
151.0602999999999838
21
-57.8307319999999976
0
LINE
8
BLACK
6
CONTINUOUS
10
151.0602999999999838
20
-57.8307319999999976
11
151.0126809999999864
21
-57.7831119999999956
0
LINE
8
BLACK
6
CONTINUOUS
10
151.0126809999999864
20
-57.7831119999999956
11
151.0033540000000016
21
-57.7717469999999977
0
LINE
8
BLACK
6
CONTINUOUS
10
151.0033540000000016
20
-57.7717469999999977
11
150.9921559999999943
21
-57.7447109999999952
0
LINE
8
BLACK
6
CONTINUOUS
10
150.9921559999999943
20
-57.7447109999999952
11
150.9921559999999943
21
-57.715447999999995
0
LINE
8
BLACK
6
CONTINUOUS
10
150.9921559999999943
20
-57.715447999999995
11
151.0033549999999991
21
-57.6884119999999996
0
LINE
8
BLACK
6
CONTINUOUS
10
151.0033549999999991
20
-57.6884119999999996
11
151.0240479999999934
21
-57.6677189999999982
0
LINE
8
BLACK
6
CONTINUOUS
10
151.0240479999999934
20
-57.6677189999999982
11
151.051084000000003
21
-57.6565209999999979
0
LINE
8
BLACK
6
CONTINUOUS
10
151.051084000000003
20
-57.6565209999999979
11
151.0803469999999891
21
-57.6565209999999979
0
LINE
8
BLACK
6
CONTINUOUS
10
151.0803469999999891
20
-57.6565209999999979
11
151.1073829999999987
21
-57.6677199999999957
0
LINE
8
BLACK
6
CONTINUOUS
10
151.1073829999999987
20
-57.6677199999999957
11
151.1187489999999798
21
-57.6770479999999992
0
LINE
8
BLACK
6
CONTINUOUS
10
151.1187489999999798
20
-57.6770479999999992
11
151.1577609999999936
21
-57.7160609999999963
0
LINE
8
BLACK
6
CONTINUOUS
10
151.1577609999999936
20
-57.7160609999999963
11
151.2262769999999819
21
-57.7503189999999975
0
LINE
8
BLACK
6
CONTINUOUS
10
151.2262769999999819
20
-57.7503189999999975
11
151.4289619999999843
21
-57.7503189999999975
0
LINE
8
BLACK
6
CONTINUOUS
10
151.4289619999999843
20
-57.7503189999999975
11
151.4974770000000035
21
-57.7160609999999963
0
LINE
8
BLACK
6
CONTINUOUS
10
151.4974770000000035
20
-57.7160609999999963
11
151.5278840000000002
21
-57.685652999999995
0
LINE
8
BLACK
6
CONTINUOUS
10
151.5278840000000002
20
-57.685652999999995
11
151.5621429999999918
21
-57.6171369999999996
0
LINE
8
BLACK
6
CONTINUOUS
10
151.5621429999999918
20
-57.6171369999999996
11
151.5621429999999918
21
-57.4144519999999972
0
LINE
8
BLACK
6
CONTINUOUS
10
151.5621429999999918
20
-57.4144519999999972
11
151.5278849999999977
21
-57.3459359999999947
0
LINE
8
BLACK
6
CONTINUOUS
10
151.5278849999999977
20
-57.3459359999999947
11
151.497478000000001
21
-57.3155289999999979
0
LINE
8
BLACK
6
CONTINUOUS
10
151.497478000000001
20
-57.3155289999999979
11
151.4289619999999843
21
-57.2812709999999967
0
LINE
8
BLACK
6
CONTINUOUS
10
151.4289619999999843
20
-57.2812709999999967
11
151.2262769999999819
21
-57.2812709999999967
0
LINE
8
BLACK
6
CONTINUOUS
10
151.2262769999999819
20
-57.2812709999999967
11
151.1577609999999936
21
-57.3155289999999979
0
LINE
8
BLACK
6
CONTINUOUS
10
151.1577609999999936
20
-57.3155289999999979
11
151.1187479999999823
21
-57.354541999999995
0
LINE
8
BLACK
6
CONTINUOUS
10
151.1187479999999823
20
-57.354541999999995
11
151.1073829999999987
21
-57.363868999999994
0
LINE
8
BLACK
6
CONTINUOUS
10
151.1073829999999987
20
-57.363868999999994
11
151.1038939999999968
21
-57.3653139999999979
0
LINE
8
BLACK
6
CONTINUOUS
10
151.1038939999999968
20
-57.3653139999999979
11
151.100970999999987
21
-57.3677059999999983
0
LINE
8
BLACK
6
CONTINUOUS
10
151.100970999999987
20
-57.3677059999999983
11
151.0904709999999795
21
-57.370872999999996
0
LINE
8
BLACK
6
CONTINUOUS
10
151.0904709999999795
20
-57.370872999999996
11
151.0803459999999916
21
-57.3750679999999988
0
LINE
8
BLACK
6
CONTINUOUS
10
151.0803459999999916
20
-57.3750679999999988
11
151.0765710000000013
21
-57.3750679999999988
0
LINE
8
BLACK
6
CONTINUOUS
10
151.0765710000000013
20
-57.3750679999999988
11
151.072954999999979
21
-57.3761589999999941
0
LINE
8
BLACK
6
CONTINUOUS
10
151.072954999999979
20
-57.3761589999999941
11
151.0620449999999835
21
-57.3750679999999988
0
LINE
8
BLACK
6
CONTINUOUS
10
151.0620449999999835
20
-57.3750679999999988
11
151.051084000000003
21
-57.3750679999999988
0
LINE
8
BLACK
6
CONTINUOUS
10
151.051084000000003
20
-57.3750679999999988
11
151.0475950000000012
21
-57.3736219999999975
0
LINE
8
BLACK
6
CONTINUOUS
10
151.0475950000000012
20
-57.3736219999999975
11
151.0438359999999989
21
-57.3732469999999992
0
LINE
8
BLACK
6
CONTINUOUS
10
151.0438359999999989
20
-57.3732469999999992
11
151.0341740000000073
21
-57.3680639999999968
0
LINE
8
BLACK
6
CONTINUOUS
10
151.0341740000000073
20
-57.3680639999999968
11
151.0240469999999959
21
-57.363868999999994
0
LINE
8
BLACK
6
CONTINUOUS
10
151.0240469999999959
20
-57.363868999999994
11
151.0213750000000061
21
-57.3611969999999971
0
LINE
8
BLACK
6
CONTINUOUS
10
151.0213750000000061
20
-57.3611969999999971
11
151.0180489999999907
21
-57.3594129999999964
0
LINE
8
BLACK
6
CONTINUOUS
10
151.0180489999999907
20
-57.3594129999999964
11
151.0111080000000072
21
-57.3509299999999982
0
LINE
8
BLACK
6
CONTINUOUS
10
151.0111080000000072
20
-57.3509299999999982
11
151.0033549999999991
21
-57.3431769999999972
0
LINE
8
BLACK
6
CONTINUOUS
10
151.0033549999999991
20
-57.3431769999999972
11
151.0019089999999835
21
-57.3396879999999953
0
LINE
8
BLACK
6
CONTINUOUS
10
151.0019089999999835
20
-57.3396879999999953
11
150.9995179999999948
21
-57.3367649999999998
0
LINE
8
BLACK
6
CONTINUOUS
10
150.9995179999999948
20
-57.3367649999999998
11
150.9963500000000067
21
-57.3262649999999994
0
LINE
8
BLACK
6
CONTINUOUS
10
150.9963500000000067
20
-57.3262649999999994
11
150.9921559999999943
21
-57.3161399999999972
0
LINE
8
BLACK
6
CONTINUOUS
10
150.9921559999999943
20
-57.3161399999999972
11
150.9921559999999943
21
-57.3123639999999952
0
LINE
8
BLACK
6
CONTINUOUS
10
150.9921559999999943
20
-57.3123639999999952
11
150.9910649999999919
21
-57.3087489999999988
0
LINE
8
BLACK
6
CONTINUOUS
10
150.9910649999999919
20
-57.3087489999999988
11
150.9910869999999932
21
-57.2940459999999945
0
LINE
8
BLACK
6
CONTINUOUS
10
150.9910869999999932
20
-57.2940459999999945
11
151.0387059999999906
21
-56.817855999999999
0
LINE
8
BLACK
6
CONTINUOUS
10
151.0387059999999906
20
-56.817855999999999
11
151.0397749999999917
21
-56.8125229999999988
0
LINE
8
BLACK
6
CONTINUOUS
10
151.0397749999999917
20
-56.8125229999999988
11
151.0397749999999917
21
-56.8106869999999944
0
LINE
8
BLACK
6
CONTINUOUS
10
151.0397749999999917
20
-56.8106869999999944
11
151.0404879999999821
21
-56.808963999999996
0
LINE
8
BLACK
6
CONTINUOUS
10
151.0404879999999821
20
-56.808963999999996
11
151.0415959999999984
21
-56.8034399999999948
0
LINE
8
BLACK
6
CONTINUOUS
10
151.0415959999999984
20
-56.8034399999999948
11
151.0467779999999891
21
-56.7937799999999982
0
LINE
8
BLACK
6
CONTINUOUS
10
151.0467779999999891
20
-56.7937799999999982
11
151.0509739999999965
21
-56.783650999999999
0
LINE
8
BLACK
6
CONTINUOUS
10
151.0509739999999965
20
-56.783650999999999
11
151.0536449999999888
21
-56.780978999999995
0
LINE
8
BLACK
6
CONTINUOUS
10
151.0536449999999888
20
-56.780978999999995
11
151.0554300000000012
21
-56.7776530000000008
0
LINE
8
BLACK
6
CONTINUOUS
10
151.0554300000000012
20
-56.7776530000000008
11
151.0639119999999878
21
-56.7707119999999961
0
LINE
8
BLACK
6
CONTINUOUS
10
151.0639119999999878
20
-56.7707119999999961
11
151.0716659999999933
21
-56.7629589999999951
0
LINE
8
BLACK
6
CONTINUOUS
10
151.0716659999999933
20
-56.7629589999999951
11
151.0751539999999977
21
-56.7615130000000008
0
LINE
8
BLACK
6
CONTINUOUS
10
151.0751539999999977
20
-56.7615130000000008
11
151.078078000000005
21
-56.7591219999999979
0
LINE
8
BLACK
6
CONTINUOUS
10
151.078078000000005
20
-56.7591219999999979
11
151.0885749999999916
21
-56.7559539999999956
0
LINE
8
BLACK
6
CONTINUOUS
10
151.0885749999999916
20
-56.7559539999999956
11
151.098702000000003
21
-56.7517599999999973
0
LINE
8
BLACK
6
CONTINUOUS
10
151.098702000000003
20
-56.7517599999999973
11
151.1043070000000057
21
-56.7512070000000008
0
LINE
8
BLACK
6
CONTINUOUS
10
151.1043070000000057
20
-56.7512070000000008
11
151.1060939999999846
21
-56.7506689999999949
0
LINE
8
BLACK
6
CONTINUOUS
10
151.1060939999999846
20
-56.7506689999999949
11
151.1079220000000021
21
-56.7508509999999973
0
LINE
8
BLACK
6
CONTINUOUS
10
151.1079220000000021
20
-56.7508509999999973
11
151.1133339999999805
21
-56.7503189999999975
0
LINE
8
BLACK
6
CONTINUOUS
10
151.1133339999999805
20
-56.7503189999999975
11
151.5895239999999831
21
-56.7503189999999975
0
LINE
8
BLACK
6
CONTINUOUS
10
151.5895239999999831
20
-56.7503189999999975
11
151.604155999999989
21
-56.7517599999999973
0
LINE
8
BLACK
6
CONTINUOUS
10
153.6517749999999864
20
-56.7517599999999973
11
153.6542639999999835
21
-56.7527909999999949
0
LINE
8
BLACK
6
CONTINUOUS
10
153.6542639999999835
20
-56.7527909999999949
11
153.6569519999999898
21
-56.7529819999999958
0
LINE
8
BLACK
6
CONTINUOUS
10
153.6569519999999898
20
-56.7529819999999958
11
153.6706839999999943
21
-56.7582369999999941
0
LINE
8
BLACK
6
CONTINUOUS
10
153.6706839999999943
20
-56.7582369999999941
11
153.7659219999999891
21
-56.8058559999999986
0
LINE
8
BLACK
6
CONTINUOUS
10
153.7659219999999891
20
-56.8058559999999986
11
153.7722210000000018
21
-56.8098199999999949
0
LINE
8
BLACK
6
CONTINUOUS
10
153.7722210000000018
20
-56.8098199999999949
11
153.7740489999999909
21
-56.8105779999999996
0
LINE
8
BLACK
6
CONTINUOUS
10
153.7740489999999909
20
-56.8105779999999996
11
153.7761050000000012
21
-56.8122659999999939
0
LINE
8
BLACK
6
CONTINUOUS
10
153.7761050000000012
20
-56.8122659999999939
11
153.7783649999999795
21
-56.8136879999999991
0
LINE
8
BLACK
6
CONTINUOUS
10
153.7783649999999795
20
-56.8136879999999991
11
153.7796639999999968
21
-56.8151859999999971
0
LINE
8
BLACK
6
CONTINUOUS
10
153.7796639999999968
20
-56.8151859999999971
11
153.7854140000000029
21
-56.8199049999999986
0
LINE
8
BLACK
6
CONTINUOUS
10
153.7854140000000029
20
-56.8199049999999986
11
153.8330330000000004
21
-56.867523999999996
0
LINE
8
BLACK
6
CONTINUOUS
10
153.8330330000000004
20
-56.867523999999996
11
153.8377509999999972
21
-56.8732729999999975
0
LINE
8
BLACK
6
CONTINUOUS
10
153.8377509999999972
20
-56.8732729999999975
11
153.8392499999999927
21
-56.874572999999998
0
LINE
8
BLACK
6
CONTINUOUS
10
153.8392499999999927
20
-56.874572999999998
11
153.8406709999999862
21
-56.8768320000000003
0
LINE
8
BLACK
6
CONTINUOUS
10
153.8406709999999862
20
-56.8768320000000003
11
153.8423599999999851
21
-56.8788890000000009
0
LINE
8
BLACK
6
CONTINUOUS
10
153.8423599999999851
20
-56.8788890000000009
11
153.8431170000000066
21
-56.8807159999999996
0
LINE
8
BLACK
6
CONTINUOUS
10
153.8431170000000066
20
-56.8807159999999996
11
153.8470820000000003
21
-56.8870159999999956
0
LINE
8
BLACK
6
CONTINUOUS
10
153.8470820000000003
20
-56.8870159999999956
11
153.8947009999999977
21
-56.9822539999999975
0
LINE
8
BLACK
6
CONTINUOUS
10
153.8947009999999977
20
-56.9822539999999975
11
153.8999560000000031
21
-56.9959849999999975
0
LINE
8
BLACK
6
CONTINUOUS
10
153.8999560000000031
20
-56.9959849999999975
11
153.900147000000004
21
-56.9986739999999941
0
LINE
8
BLACK
6
CONTINUOUS
10
153.900147000000004
20
-56.9986739999999941
11
153.9011779999999874
21
-57.0011629999999982
0
LINE
8
BLACK
6
CONTINUOUS
10
153.9011779999999874
20
-57.0011629999999982
11
153.9026189999999872
21
-57.0157949999999971
0
LINE
8
BLACK
6
CONTINUOUS
10
153.9026189999999872
20
-57.0157949999999971
11
153.9026189999999872
21
-57.111032999999999
0
LINE
8
BLACK
6
CONTINUOUS
10
153.9026189999999872
20
-57.111032999999999
11
153.9018889999999828
21
-57.1184389999999951
0
LINE
8
BLACK
6
CONTINUOUS
10
153.9018889999999828
20
-57.1184389999999951
11
153.9020299999999963
21
-57.1204139999999967
0
LINE
8
BLACK
6
CONTINUOUS
10
153.9020299999999963
20
-57.1204139999999967
11
153.9014389999999821
21
-57.1230109999999982
0
LINE
8
BLACK
6
CONTINUOUS
10
153.9014389999999821
20
-57.1230109999999982
11
153.9011779999999874
21
-57.1256649999999979
0
LINE
8
BLACK
6
CONTINUOUS
10
153.9011779999999874
20
-57.1256649999999979
11
153.9004189999999994
21
-57.1274949999999961
0
LINE
8
BLACK
6
CONTINUOUS
10
153.9004189999999994
20
-57.1274949999999961
11
153.8987699999999847
21
-57.1347509999999943
0
LINE
8
BLACK
6
CONTINUOUS
10
153.8987699999999847
20
-57.1347509999999943
11
153.8511509999999873
21
-57.2776069999999962
0
LINE
8
BLACK
6
CONTINUOUS
10
153.8511509999999873
20
-57.2776069999999962
11
153.8451570000000004
21
-57.2910329999999988
0
LINE
8
BLACK
6
CONTINUOUS
10
153.8451570000000004
20
-57.2910329999999988
11
153.8433919999999944
21
-57.2930670000000006
0
LINE
8
BLACK
6
CONTINUOUS
10
153.8433919999999944
20
-57.2930670000000006
11
153.8423609999999826
21
-57.2955579999999998
0
LINE
8
BLACK
6
CONTINUOUS
10
153.8423609999999826
20
-57.2955579999999998
11
153.8330330000000004
21
-57.3069229999999976
0
LINE
8
BLACK
6
CONTINUOUS
10
153.8330330000000004
20
-57.3069229999999976
11
153.3896379999999908
21
-57.7503189999999975
0
LINE
8
BLACK
6
CONTINUOUS
10
153.3896379999999908
20
-57.7503189999999975
11
153.8276189999999986
21
-57.7503189999999975
0
LINE
8
BLACK
6
CONTINUOUS
10
153.8276189999999986
20
-57.7503189999999975
11
153.8422510000000045
21
-57.7517599999999973
0
LINE
8
BLACK
6
CONTINUOUS
10
153.8422510000000045
20
-57.7517599999999973
11
153.8692869999999857
21
-57.7629589999999951
0
LINE
8
BLACK
6
CONTINUOUS
10
153.8692869999999857
20
-57.7629589999999951
11
153.8899789999999825
21
-57.783650999999999
0
LINE
8
BLACK
6
CONTINUOUS
10
153.8899789999999825
20
-57.783650999999999
11
153.9011779999999874
21
-57.8106869999999944
0
LINE
8
BLACK
6
CONTINUOUS
10
153.9011779999999874
20
-57.8106869999999944
11
153.9011779999999874
21
-57.8399509999999992
0
LINE
8
BLACK
6
CONTINUOUS
10
153.9011779999999874
20
-57.8399509999999992
11
153.8899789999999825
21
-57.8669869999999946
0
LINE
8
BLACK
6
CONTINUOUS
10
153.8899789999999825
20
-57.8669869999999946
11
153.8692869999999857
21
-57.8876789999999986
0
LINE
8
BLACK
6
CONTINUOUS
10
153.8692869999999857
20
-57.8876789999999986
11
153.8422510000000045
21
-57.8988779999999963
0
LINE
8
BLACK
6
CONTINUOUS
10
153.8422510000000045
20
-57.8988779999999963
11
153.8276189999999986
21
-57.9003189999999961
0
LINE
8
BLACK
6
CONTINUOUS
10
153.8276189999999986
20
-57.9003189999999961
11
153.2085720000000038
21
-57.9003189999999961
0
LINE
8
BLACK
6
CONTINUOUS
10
153.2085720000000038
20
-57.9003189999999961
11
153.1939399999999978
21
-57.8988779999999963
0
LINE
8
BLACK
6
CONTINUOUS
10
153.1939399999999978
20
-57.8988779999999963
11
153.1669039999999882
21
-57.8876789999999986
0
LINE
8
BLACK
6
CONTINUOUS
10
153.1669039999999882
20
-57.8876789999999986
11
153.1462119999999913
21
-57.8669869999999946
0
LINE
8
BLACK
6
CONTINUOUS
10
153.1462119999999913
20
-57.8669869999999946
11
153.1350129999999865
21
-57.8399509999999992
0
LINE
8
BLACK
6
CONTINUOUS
10
153.1350129999999865
20
-57.8399509999999992
11
153.1350129999999865
21
-57.8106869999999944
0
LINE
8
BLACK
6
CONTINUOUS
10
153.1350129999999865
20
-57.8106869999999944
11
153.1462119999999913
21
-57.783650999999999
0
LINE
8
BLACK
6
CONTINUOUS
10
153.1462119999999913
20
-57.783650999999999
11
153.1555390000000045
21
-57.772285999999994
0
LINE
8
BLACK
6
CONTINUOUS
10
153.1555390000000045
20
-57.772285999999994
11
153.7144470000000069
21
-57.2133759999999967
0
LINE
8
BLACK
6
CONTINUOUS
10
153.7144470000000069
20
-57.2133759999999967
11
153.7526189999999815
21
-57.0988629999999944
0
LINE
8
BLACK
6
CONTINUOUS
10
153.7526189999999815
20
-57.0988629999999944
11
153.7526189999999815
21
-57.0334999999999965
0
LINE
8
BLACK
6
CONTINUOUS
10
153.7526189999999815
20
-57.0334999999999965
11
153.7183609999999874
21
-56.9649839999999941
0
LINE
8
BLACK
6
CONTINUOUS
10
153.7183609999999874
20
-56.9649839999999941
11
153.6879539999999906
21
-56.9345769999999973
0
LINE
8
BLACK
6
CONTINUOUS
10
153.6879539999999906
20
-56.9345769999999973
11
153.6194380000000024
21
-56.9003189999999961
0
LINE
8
BLACK
6
CONTINUOUS
10
153.6194380000000024
20
-56.9003189999999961
11
153.4167529999999999
21
-56.9003189999999961
0
LINE
8
BLACK
6
CONTINUOUS
10
153.4167529999999999
20
-56.9003189999999961
11
153.3482369999999833
21
-56.9345769999999973
0
LINE
8
BLACK
6
CONTINUOUS
10
153.3482369999999833
20
-56.9345769999999973
11
153.3092240000000004
21
-56.9735899999999944
0
LINE
8
BLACK
6
CONTINUOUS
10
153.3092240000000004
20
-56.9735899999999944
11
153.2978589999999883
21
-56.9829170000000005
0
LINE
8
BLACK
6
CONTINUOUS
10
153.2978589999999883
20
-56.9829170000000005
11
153.2708219999999812
21
-56.9941159999999982
0
LINE
8
BLACK
6
CONTINUOUS
10
153.2708219999999812
20
-56.9941159999999982
11
153.2415599999999927
21
-56.9941159999999982
0
LINE
8
BLACK
6
CONTINUOUS
10
153.2415599999999927
20
-56.9941159999999982
11
153.2145229999999856
21
-56.9829170000000005
0
LINE
8
BLACK
6
CONTINUOUS
10
153.2145229999999856
20
-56.9829170000000005
11
153.1938309999999888
21
-56.9622249999999966
0
LINE
8
BLACK
6
CONTINUOUS
10
153.1938309999999888
20
-56.9622249999999966
11
153.1826319999999839
21
-56.9351879999999966
0
LINE
8
BLACK
6
CONTINUOUS
10
153.1826319999999839
20
-56.9351879999999966
11
153.1826319999999839
21
-56.9059260000000009
0
LINE
8
BLACK
6
CONTINUOUS
10
153.1826319999999839
20
-56.9059260000000009
11
153.1938309999999888
21
-56.8788890000000009
0
LINE
8
BLACK
6
CONTINUOUS
10
153.1938309999999888
20
-56.8788890000000009
11
153.2031580000000019
21
-56.867523999999996
0
LINE
8
BLACK
6
CONTINUOUS
10
153.2031580000000019
20
-56.867523999999996
11
153.2507769999999994
21
-56.8199049999999986
0
LINE
8
BLACK
6
CONTINUOUS
10
153.2507769999999994
20
-56.8199049999999986
11
153.2565259999999796
21
-56.8151859999999971
0
LINE
8
BLACK
6
CONTINUOUS
10
153.2565259999999796
20
-56.8151859999999971
11
153.2578259999999943
21
-56.8136879999999991
0
LINE
8
BLACK
6
CONTINUOUS
10
153.2578259999999943
20
-56.8136879999999991
11
153.2600850000000037
21
-56.8122659999999939
0
LINE
8
BLACK
6
CONTINUOUS
10
153.2600850000000037
20
-56.8122659999999939
11
153.262141999999983
21
-56.8105779999999996
0
LINE
8
BLACK
6
CONTINUOUS
10
153.262141999999983
20
-56.8105779999999996
11
153.263969000000003
21
-56.8098199999999949
0
LINE
8
BLACK
6
CONTINUOUS
10
153.263969000000003
20
-56.8098199999999949
11
153.2702689999999848
21
-56.8058559999999986
0
LINE
8
BLACK
6
CONTINUOUS
10
153.2702689999999848
20
-56.8058559999999986
11
153.3655069999999796
21
-56.7582369999999941
0
LINE
8
BLACK
6
CONTINUOUS
10
153.3655069999999796
20
-56.7582369999999941
11
153.3792379999999866
21
-56.7529819999999958
0
LINE
8
BLACK
6
CONTINUOUS
10
153.3792379999999866
20
-56.7529819999999958
11
153.3819269999999904
21
-56.7527899999999974
0
LINE
8
BLACK
6
CONTINUOUS
10
153.3819269999999904
20
-56.7527899999999974
11
153.3844159999999874
21
-56.7517599999999973
0
LINE
8
BLACK
6
CONTINUOUS
10
153.3844159999999874
20
-56.7517599999999973
11
153.3990479999999934
21
-56.7503189999999975
0
LINE
8
BLACK
6
CONTINUOUS
10
153.3990479999999934
20
-56.7503189999999975
11
153.6371429999999805
21
-56.7503189999999975
0
LINE
8
BLACK
6
CONTINUOUS
10
153.6371429999999805
20
-56.7503189999999975
11
153.6517749999999864
21
-56.7517599999999973
0
LINE
8
BLACK
6
CONTINUOUS
10
154.5565369999999916
20
-56.7517599999999973
11
154.5590259999999887
21
-56.7527909999999949
0
LINE
8
BLACK
6
CONTINUOUS
10
154.5590259999999887
20
-56.7527909999999949
11
154.5617139999999949
21
-56.7529819999999958
0
LINE
8
BLACK
6
CONTINUOUS
10
154.5617139999999949
20
-56.7529819999999958
11
154.5754459999999995
21
-56.7582369999999941
0
LINE
8
BLACK
6
CONTINUOUS
10
154.5754459999999995
20
-56.7582369999999941
11
154.6706839999999943
21
-56.8058559999999986
0
LINE
8
BLACK
6
CONTINUOUS
10
154.6706839999999943
20
-56.8058559999999986
11
154.676983000000007
21
-56.8098199999999949
0
LINE
8
BLACK
6
CONTINUOUS
10
154.676983000000007
20
-56.8098199999999949
11
154.6788109999999961
21
-56.8105779999999996
0
LINE
8
BLACK
6
CONTINUOUS
10
154.6788109999999961
20
-56.8105779999999996
11
154.6808670000000063
21
-56.8122659999999939
0
LINE
8
BLACK
6
CONTINUOUS
10
154.6808670000000063
20
-56.8122659999999939
11
154.6831269999999847
21
-56.8136879999999991
0
LINE
8
BLACK
6
CONTINUOUS
10
154.6831269999999847
20
-56.8136879999999991
11
154.684426000000002
21
-56.8151859999999971
0
LINE
8
BLACK
6
CONTINUOUS
10
154.684426000000002
20
-56.8151859999999971
11
154.6901759999999797
21
-56.8199049999999986
0
LINE
8
BLACK
6
CONTINUOUS
10
154.6901759999999797
20
-56.8199049999999986
11
154.7377950000000055
21
-56.867523999999996
0
LINE
8
BLACK
6
CONTINUOUS
10
154.7377950000000055
20
-56.867523999999996
11
154.7425130000000024
21
-56.8732729999999975
0
LINE
8
BLACK
6
CONTINUOUS
10
154.7425130000000024
20
-56.8732729999999975
11
154.7440119999999979
21
-56.874572999999998
0
LINE
8
BLACK
6
CONTINUOUS
10
154.7440119999999979
20
-56.874572999999998
11
154.7454329999999914
21
-56.8768320000000003
0
LINE
8
BLACK
6
CONTINUOUS
10
154.7454329999999914
20
-56.8768320000000003
11
154.7471219999999903
21
-56.8788890000000009
0
LINE
8
BLACK
6
CONTINUOUS
10
154.7471219999999903
20
-56.8788890000000009
11
154.7478789999999833
21
-56.8807159999999996
0
LINE
8
BLACK
6
CONTINUOUS
10
154.7478789999999833
20
-56.8807159999999996
11
154.7518440000000055
21
-56.8870159999999956
0
LINE
8
BLACK
6
CONTINUOUS
10
154.7518440000000055
20
-56.8870159999999956
11
154.7994630000000029
21
-56.9822539999999975
0
LINE
8
BLACK
6
CONTINUOUS
10
154.7994630000000029
20
-56.9822539999999975
11
154.7998719999999935
21
-56.9833229999999986
0
LINE
8
BLACK
6
CONTINUOUS
10
154.7998719999999935
20
-56.9833229999999986
11
154.8001950000000022
21
-56.9837589999999992
0
LINE
8
BLACK
6
CONTINUOUS
10
154.8001950000000022
20
-56.9837589999999992
11
154.8023869999999818
21
-56.9898949999999971
0
LINE
8
BLACK
6
CONTINUOUS
10
154.8023869999999818
20
-56.9898949999999971
11
154.8047179999999798
21
-56.9959849999999975
0
LINE
8
BLACK
6
CONTINUOUS
10
154.8047179999999798
20
-56.9959849999999975
11
154.8047559999999976
21
-56.9965249999999983
0
LINE
8
BLACK
6
CONTINUOUS
10
154.8047559999999976
20
-56.9965249999999983
11
154.8051419999999894
21
-56.9976050000000001
0
LINE
8
BLACK
6
CONTINUOUS
10
154.8051419999999894
20
-56.9976050000000001
11
154.8527609999999868
21
-57.1880809999999968
0
LINE
8
BLACK
6
CONTINUOUS
10
154.8527609999999868
20
-57.1880809999999968
11
154.8531360000000063
21
-57.190616999999996
0
LINE
8
BLACK
6
CONTINUOUS
10
154.8531360000000063
20
-57.190616999999996
11
154.85355899999999
21
-57.191638999999995
0
LINE
8
BLACK
6
CONTINUOUS
10
154.85355899999999
20
-57.191638999999995
11
154.8541009999999858
21
-57.1971509999999981
0
LINE
8
BLACK
6
CONTINUOUS
10
154.8541009999999858
20
-57.1971509999999981
11
154.8549109999999871
21
-57.2026249999999976
0
LINE
8
BLACK
6
CONTINUOUS
10
154.8549109999999871
20
-57.2026249999999976
11
154.8547480000000007
21
-57.2037169999999975
0
LINE
8
BLACK
6
CONTINUOUS
10
154.8547480000000007
20
-57.2037169999999975
11
154.8549999999999898
21
-57.2062709999999939
0
LINE
8
BLACK
6
CONTINUOUS
10
154.8549999999999898
20
-57.2062709999999939
11
154.8549999999999898
21
-57.4443659999999952
0
LINE
8
BLACK
6
CONTINUOUS
10
154.8549999999999898
20
-57.4443659999999952
11
154.8547480000000007
21
-57.4469189999999941
0
LINE
8
BLACK
6
CONTINUOUS
10
154.8547480000000007
20
-57.4469189999999941
11
154.8549109999999871
21
-57.4480119999999985
0
LINE
8
BLACK
6
CONTINUOUS
10
154.8549109999999871
20
-57.4480119999999985
11
154.8541009999999858
21
-57.4534850000000006
0
LINE
8
BLACK
6
CONTINUOUS
10
154.8541009999999858
20
-57.4534850000000006
11
154.85355899999999
21
-57.458997999999994
0
LINE
8
BLACK
6
CONTINUOUS
10
154.85355899999999
20
-57.458997999999994
11
154.8531360000000063
21
-57.4600189999999955
0
LINE
8
BLACK
6
CONTINUOUS
10
154.8531360000000063
20
-57.4600189999999955
11
154.8527609999999868
21
-57.4625559999999993
0
LINE
8
BLACK
6
CONTINUOUS
10
154.8527609999999868
20
-57.4625559999999993
11
154.8051419999999894
21
-57.6530319999999961
0
LINE
8
BLACK
6
CONTINUOUS
10
154.8051419999999894
20
-57.6530319999999961
11
154.8047559999999976
21
-57.6541110000000003
0
LINE
8
BLACK
6
CONTINUOUS
10
154.8047559999999976
20
-57.6541110000000003
11
154.8047179999999798
21
-57.6546519999999987
0
LINE
8
BLACK
6
CONTINUOUS
10
154.8047179999999798
20
-57.6546519999999987
11
154.8023869999999818
21
-57.6607409999999945
0
LINE
8
BLACK
6
CONTINUOUS
10
154.8023869999999818
20
-57.6607409999999945
11
154.8001950000000022
21
-57.666877999999997
0
LINE
8
BLACK
6
CONTINUOUS
10
154.8001950000000022
20
-57.666877999999997
11
154.7998719999999935
21
-57.667313
0
LINE
8
BLACK
6
CONTINUOUS
10
154.7998719999999935
20
-57.667313
11
154.7994630000000029
21
-57.6683829999999986
0
LINE
8
BLACK
6
CONTINUOUS
10
154.7994630000000029
20
-57.6683829999999986
11
154.7518440000000055
21
-57.7636210000000005
0
LINE
8
BLACK
6
CONTINUOUS
10
154.7518440000000055
20
-57.7636210000000005
11
154.7478799999999808
21
-57.7699169999999995
0
LINE
8
BLACK
6
CONTINUOUS
10
154.7478799999999808
20
-57.7699169999999995
11
154.7471229999999878
21
-57.7717469999999977
0
LINE
8
BLACK
6
CONTINUOUS
10
154.7471229999999878
20
-57.7717469999999977
11
154.7454329999999914
21
-57.7738049999999959
0
LINE
8
BLACK
6
CONTINUOUS
10
154.7454329999999914
20
-57.7738049999999959
11
154.7440119999999979
21
-57.7760639999999981
0
LINE
8
BLACK
6
CONTINUOUS
10
154.7440119999999979
20
-57.7760639999999981
11
154.7425130000000024
21
-57.777362999999994
0
LINE
8
BLACK
6
CONTINUOUS
10
154.7425130000000024
20
-57.777362999999994
11
154.7377950000000055
21
-57.7831130000000002
0
LINE
8
BLACK
6
CONTINUOUS
10
154.7377950000000055
20
-57.7831130000000002
11
154.6901770000000056
21
-57.8307319999999976
0
LINE
8
BLACK
6
CONTINUOUS
10
154.6901770000000056
20
-57.8307319999999976
11
154.6844269999999995
21
-57.8354499999999945
0
LINE
8
BLACK
6
CONTINUOUS
10
154.6844269999999995
20
-57.8354499999999945
11
154.6831269999999847
21
-57.8369499999999945
0
LINE
8
BLACK
6
CONTINUOUS
10
154.6831269999999847
20
-57.8369499999999945
11
154.6808670000000063
21
-57.8383719999999997
0
LINE
8
BLACK
6
CONTINUOUS
10
154.6808670000000063
20
-57.8383719999999997
11
154.6788109999999961
21
-57.840059999999994
0
LINE
8
BLACK
6
CONTINUOUS
10
154.6788109999999961
20
-57.840059999999994
11
154.676983000000007
21
-57.8408169999999942
0
LINE
8
BLACK
6
CONTINUOUS
10
154.676983000000007
20
-57.8408169999999942
11
154.6706839999999943
21
-57.844781999999995
0
LINE
8
BLACK
6
CONTINUOUS
10
154.6706839999999943
20
-57.844781999999995
11
154.5754459999999995
21
-57.8924009999999996
0
LINE
8
BLACK
6
CONTINUOUS
10
154.5754459999999995
20
-57.8924009999999996
11
154.5617139999999949
21
-57.8976559999999978
0
LINE
8
BLACK
6
CONTINUOUS
10
154.5617139999999949
20
-57.8976559999999978
11
154.5590259999999887
21
-57.8978459999999941
0
LINE
8
BLACK
6
CONTINUOUS
10
154.5590259999999887
20
-57.8978459999999941
11
154.5565369999999916
21
-57.8988779999999963
0
LINE
8
BLACK
6
CONTINUOUS
10
154.5565369999999916
20
-57.8988779999999963
11
154.5419049999999856
21
-57.9003189999999961
0
LINE
8
BLACK
6
CONTINUOUS
10
154.5419049999999856
20
-57.9003189999999961
11
154.4466669999999908
21
-57.9003189999999961
0
LINE
8
BLACK
6
CONTINUOUS
10
154.4466669999999908
20
-57.9003189999999961
11
154.4320349999999848
21
-57.8988779999999963
0
LINE
8
BLACK
6
CONTINUOUS
10
154.4320349999999848
20
-57.8988779999999963
11
154.4295459999999878
21
-57.8978469999999987
0
LINE
8
BLACK
6
CONTINUOUS
10
154.4295459999999878
20
-57.8978469999999987
11
154.4268569999999841
21
-57.8976559999999978
0
LINE
8
BLACK
6
CONTINUOUS
10
154.4268569999999841
20
-57.8976559999999978
11
154.4131260000000054
21
-57.8924009999999996
0
LINE
8
BLACK
6
CONTINUOUS
10
154.4131260000000054
20
-57.8924009999999996
11
154.3178879999999822
21
-57.844781999999995
0
LINE
8
BLACK
6
CONTINUOUS
10
154.3178879999999822
20
-57.844781999999995
11
154.3115880000000004
21
-57.8408169999999942
0
LINE
8
BLACK
6
CONTINUOUS
10
154.3115880000000004
20
-57.8408169999999942
11
154.3097609999999804
21
-57.840059999999994
0
LINE
8
BLACK
6
CONTINUOUS
10
154.3097609999999804
20
-57.840059999999994
11
154.3077040000000011
21
-57.8383719999999997
0
LINE
8
BLACK
6
CONTINUOUS
10
154.3077040000000011
20
-57.8383719999999997
11
154.3054449999999918
21
-57.8369499999999945
0
LINE
8
BLACK
6
CONTINUOUS
10
154.3054449999999918
20
-57.8369499999999945
11
154.3041439999999795
21
-57.8354499999999945
0
LINE
8
BLACK
6
CONTINUOUS
10
154.3041439999999795
20
-57.8354499999999945
11
154.2983949999999993
21
-57.8307319999999976
0
LINE
8
BLACK
6
CONTINUOUS
10
154.2983949999999993
20
-57.8307319999999976
11
154.2507760000000019
21
-57.7831119999999956
0
LINE
8
BLACK
6
CONTINUOUS
10
154.2507760000000019
20
-57.7831119999999956
11
154.246058000000005
21
-57.777362999999994
0
LINE
8
BLACK
6
CONTINUOUS
10
154.246058000000005
20
-57.777362999999994
11
154.244560000000007
21
-57.7760639999999981
0
LINE
8
BLACK
6
CONTINUOUS
10
154.244560000000007
20
-57.7760639999999981
11
154.2431379999999876
21
-57.7738049999999959
0
LINE
8
BLACK
6
CONTINUOUS
10
154.2431379999999876
20
-57.7738049999999959
11
154.2414489999999887
21
-57.7717469999999977
0
LINE
8
BLACK
6
CONTINUOUS
10
154.2414489999999887
20
-57.7717469999999977
11
154.2406909999999982
21
-57.7699169999999995
0
LINE
8
BLACK
6
CONTINUOUS
10
154.2406909999999982
20
-57.7699169999999995
11
154.2367279999999994
21
-57.7636210000000005
0
LINE
8
BLACK
6
CONTINUOUS
10
154.2367279999999994
20
-57.7636210000000005
11
154.189109000000002
21
-57.6683829999999986
0
LINE
8
BLACK
6
CONTINUOUS
10
154.189109000000002
20
-57.6683829999999986
11
154.1886989999999855
21
-57.667313
0
LINE
8
BLACK
6
CONTINUOUS
10
154.1886989999999855
20
-57.667313
11
154.1883770000000027
21
-57.666877999999997
0
LINE
8
BLACK
6
CONTINUOUS
10
154.1883770000000027
20
-57.666877999999997
11
154.1861810000000048
21
-57.6607319999999959
0
LINE
8
BLACK
6
CONTINUOUS
10
154.1861810000000048
20
-57.6607319999999959
11
154.1838539999999966
21
-57.6546509999999941
0
LINE
8
BLACK
6
CONTINUOUS
10
154.1838539999999966
20
-57.6546509999999941
11
154.1838149999999814
21
-57.6541110000000003
0
LINE
8
BLACK
6
CONTINUOUS
10
154.1838149999999814
20
-57.6541110000000003
11
154.1834299999999871
21
-57.6530319999999961
0
LINE
8
BLACK
6
CONTINUOUS
10
154.1834299999999871
20
-57.6530319999999961
11
154.1358109999999897
21
-57.4625559999999993
0
LINE
8
BLACK
6
CONTINUOUS
10
154.1358109999999897
20
-57.4625559999999993
11
154.1354350000000011
21
-57.4600189999999955
0
LINE
8
BLACK
6
CONTINUOUS
10
154.1354350000000011
20
-57.4600189999999955
11
154.1350129999999865
21
-57.458997999999994
0
LINE
8
BLACK
6
CONTINUOUS
10
154.1350129999999865
20
-57.458997999999994
11
154.1344699999999932
21
-57.4534850000000006
0
LINE
8
BLACK
6
CONTINUOUS
10
154.1344699999999932
20
-57.4534850000000006
11
154.1336609999999894
21
-57.4480119999999985
0
LINE
8
BLACK
6
CONTINUOUS
10
154.1336609999999894
20
-57.4480119999999985
11
154.1338230000000067
21
-57.4469189999999941
0
LINE
8
BLACK
6
CONTINUOUS
10
154.1338230000000067
20
-57.4469189999999941
11
154.1335719999999867
21
-57.4443659999999952
0
LINE
8
BLACK
6
CONTINUOUS
10
154.1335719999999867
20
-57.4443659999999952
11
154.1335719999999867
21
-57.2062709999999939
0
LINE
8
BLACK
6
CONTINUOUS
10
154.1335719999999867
20
-57.2062709999999939
11
154.1338230000000067
21
-57.2037169999999975
0
LINE
8
BLACK
6
CONTINUOUS
10
154.1338230000000067
20
-57.2037169999999975
11
154.1336609999999894
21
-57.2026249999999976
0
LINE
8
BLACK
6
CONTINUOUS
10
154.1336609999999894
20
-57.2026249999999976
11
154.1344699999999932
21
-57.1971509999999981
0
LINE
8
BLACK
6
CONTINUOUS
10
154.1344699999999932
20
-57.1971509999999981
11
154.1350129999999865
21
-57.191638999999995
0
LINE
8
BLACK
6
CONTINUOUS
10
154.1350129999999865
20
-57.191638999999995
11
154.1354350000000011
21
-57.190616999999996
0
LINE
8
BLACK
6
CONTINUOUS
10
154.1354350000000011
20
-57.190616999999996
11
154.1358109999999897
21
-57.1880809999999968
0
LINE
8
BLACK
6
CONTINUOUS
10
154.1358109999999897
20
-57.1880809999999968
11
154.1834299999999871
21
-56.9976050000000001
0
LINE
8
BLACK
6
CONTINUOUS
10
154.1834299999999871
20
-56.9976050000000001
11
154.1838149999999814
21
-56.9965249999999983
0
LINE
8
BLACK
6
CONTINUOUS
10
154.1838149999999814
20
-56.9965249999999983
11
154.1838539999999966
21
-56.9959859999999949
0
LINE
8
BLACK
6
CONTINUOUS
10
154.1838539999999966
20
-56.9959859999999949
11
154.1861810000000048
21
-56.9899039999999957
0
LINE
8
BLACK
6
CONTINUOUS
10
154.1861810000000048
20
-56.9899039999999957
11
154.1883770000000027
21
-56.9837589999999992
0
LINE
8
BLACK
6
CONTINUOUS
10
154.1883770000000027
20
-56.9837589999999992
11
154.1886989999999855
21
-56.9833229999999986
0
LINE
8
BLACK
6
CONTINUOUS
10
154.1886989999999855
20
-56.9833229999999986
11
154.189109000000002
21
-56.9822539999999975
0
LINE
8
BLACK
6
CONTINUOUS
10
154.189109000000002
20
-56.9822539999999975
11
154.2367279999999994
21
-56.8870159999999956
0
LINE
8
BLACK
6
CONTINUOUS
10
154.2367279999999994
20
-56.8870159999999956
11
154.2406919999999957
21
-56.8807159999999996
0
LINE
8
BLACK
6
CONTINUOUS
10
154.2406919999999957
20
-56.8807159999999996
11
154.2414499999999862
21
-56.8788890000000009
0
LINE
8
BLACK
6
CONTINUOUS
10
154.2414499999999862
20
-56.8788890000000009
11
154.2431379999999876
21
-56.8768320000000003
0
LINE
8
BLACK
6
CONTINUOUS
10
154.2431379999999876
20
-56.8768320000000003
11
154.244560000000007
21
-56.874572999999998
0
LINE
8
BLACK
6
CONTINUOUS
10
154.244560000000007
20
-56.874572999999998
11
154.246058000000005
21
-56.8732729999999975
0
LINE
8
BLACK
6
CONTINUOUS
10
154.246058000000005
20
-56.8732729999999975
11
154.2507769999999994
21
-56.867523999999996
0
LINE
8
BLACK
6
CONTINUOUS
10
154.2507769999999994
20
-56.867523999999996
11
154.2983959999999968
21
-56.8199049999999986
0
LINE
8
BLACK
6
CONTINUOUS
10
154.2983959999999968
20
-56.8199049999999986
11
154.3041450000000054
21
-56.8151859999999971
0
LINE
8
BLACK
6
CONTINUOUS
10
154.3041450000000054
20
-56.8151859999999971
11
154.3054449999999918
21
-56.8136879999999991
0
LINE
8
BLACK
6
CONTINUOUS
10
154.3054449999999918
20
-56.8136879999999991
11
154.3077040000000011
21
-56.8122659999999939
0
LINE
8
BLACK
6
CONTINUOUS
10
154.3077040000000011
20
-56.8122659999999939
11
154.3097609999999804
21
-56.8105779999999996
0
LINE
8
BLACK
6
CONTINUOUS
10
154.3097609999999804
20
-56.8105779999999996
11
154.3115880000000004
21
-56.8098199999999949
0
LINE
8
BLACK
6
CONTINUOUS
10
154.3115880000000004
20
-56.8098199999999949
11
154.3178879999999822
21
-56.8058559999999986
0
LINE
8
BLACK
6
CONTINUOUS
10
154.3178879999999822
20
-56.8058559999999986
11
154.4131260000000054
21
-56.7582369999999941
0
LINE
8
BLACK
6
CONTINUOUS
10
154.4131260000000054
20
-56.7582369999999941
11
154.4268569999999841
21
-56.7529819999999958
0
LINE
8
BLACK
6
CONTINUOUS
10
154.4268569999999841
20
-56.7529819999999958
11
154.4295459999999878
21
-56.7527899999999974
0
LINE
8
BLACK
6
CONTINUOUS
10
154.4295459999999878
20
-56.7527899999999974
11
154.4320349999999848
21
-56.7517599999999973
0
LINE
8
BLACK
6
CONTINUOUS
10
154.4320349999999848
20
-56.7517599999999973
11
154.4466669999999908
21
-56.7503189999999975
0
LINE
8
BLACK
6
CONTINUOUS
10
154.4466669999999908
20
-56.7503189999999975
11
154.5419049999999856
21
-56.7503189999999975
0
LINE
8
BLACK
6
CONTINUOUS
10
154.5419049999999856
20
-56.7503189999999975
11
154.5565369999999916
21
-56.7517599999999973
0
LINE
8
BLACK
6
CONTINUOUS
10
154.3958559999999807
20
-56.9345769999999973
11
154.3654489999999839
21
-56.9649839999999941
0
LINE
8
BLACK
6
CONTINUOUS
10
154.3654489999999839
20
-56.9649839999999941
11
154.3269549999999981
21
-57.0419709999999966
0
LINE
8
BLACK
6
CONTINUOUS
10
154.3269549999999981
20
-57.0419709999999966
11
154.2835719999999924
21
-57.2155050000000003
0
LINE
8
BLACK
6
CONTINUOUS
10
154.2835719999999924
20
-57.2155050000000003
11
154.2835719999999924
21
-57.4351319999999959
0
LINE
8
BLACK
6
CONTINUOUS
10
154.2835719999999924
20
-57.4351319999999959
11
154.3269549999999981
21
-57.6086659999999995
0
LINE
8
BLACK
6
CONTINUOUS
10
154.3269549999999981
20
-57.6086659999999995
11
154.3654489999999839
21
-57.685652999999995
0
LINE
8
BLACK
6
CONTINUOUS
10
154.3654489999999839
20
-57.685652999999995
11
154.3958559999999807
21
-57.7160609999999963
0
LINE
8
BLACK
6
CONTINUOUS
10
154.3958559999999807
20
-57.7160609999999963
11
154.4643719999999973
21
-57.7503189999999975
0
LINE
8
BLACK
6
CONTINUOUS
10
154.4643719999999973
20
-57.7503189999999975
11
154.5241999999999791
21
-57.7503189999999975
0
LINE
8
BLACK
6
CONTINUOUS
10
154.5241999999999791
20
-57.7503189999999975
11
154.5927149999999983
21
-57.7160609999999963
0
LINE
8
BLACK
6
CONTINUOUS
10
154.5927149999999983
20
-57.7160609999999963
11
154.6231219999999951
21
-57.685652999999995
0
LINE
8
BLACK
6
CONTINUOUS
10
154.6231219999999951
20
-57.685652999999995
11
154.6616159999999809
21
-57.6086659999999995
0
LINE
8
BLACK
6
CONTINUOUS
10
154.6616159999999809
20
-57.6086659999999995
11
154.7049999999999841
21
-57.4351319999999959
0
LINE
8
BLACK
6
CONTINUOUS
10
154.7049999999999841
20
-57.4351319999999959
11
154.7049999999999841
21
-57.2155050000000003
0
LINE
8
BLACK
6
CONTINUOUS
10
154.7049999999999841
20
-57.2155050000000003
11
154.6616159999999809
21
-57.0419709999999966
0
LINE
8
BLACK
6
CONTINUOUS
10
154.6616159999999809
20
-57.0419709999999966
11
154.6231229999999925
21
-56.9649839999999941
0
LINE
8
BLACK
6
CONTINUOUS
10
154.6231229999999925
20
-56.9649839999999941
11
154.5927159999999958
21
-56.9345769999999973
0
LINE
8
BLACK
6
CONTINUOUS
10
154.5927159999999958
20
-56.9345769999999973
11
154.5241999999999791
21
-56.9003189999999961
0
LINE
8
BLACK
6
CONTINUOUS
10
154.5241999999999791
20
-56.9003189999999961
11
154.4643719999999973
21
-56.9003189999999961
0
LINE
8
BLACK
6
CONTINUOUS
10
154.4643719999999973
20
-56.9003189999999961
11
154.3958559999999807
21
-56.9345769999999973
0
LINE
8
BLACK
6
CONTINUOUS
10
147.127964999999989
20
-56.7517599999999973
11
147.1550009999999986
21
-56.7629589999999951
0
LINE
8
BLACK
6
CONTINUOUS
10
147.1550009999999986
20
-56.7629589999999951
11
147.1756929999999954
21
-56.783650999999999
0
LINE
8
BLACK
6
CONTINUOUS
10
147.1756929999999954
20
-56.783650999999999
11
147.1868920000000003
21
-56.8106869999999944
0
LINE
8
BLACK
6
CONTINUOUS
10
147.1868920000000003
20
-56.8106869999999944
11
147.1868920000000003
21
-56.8399509999999992
0
LINE
8
BLACK
6
CONTINUOUS
10
147.1868920000000003
20
-56.8399509999999992
11
147.1756929999999954
21
-56.8669869999999946
0
LINE
8
BLACK
6
CONTINUOUS
10
147.1756929999999954
20
-56.8669869999999946
11
147.1550009999999986
21
-56.8876789999999986
0
LINE
8
BLACK
6
CONTINUOUS
10
147.1550009999999986
20
-56.8876789999999986
11
147.127964999999989
21
-56.8988779999999963
0
LINE
8
BLACK
6
CONTINUOUS
10
147.127964999999989
20
-56.8988779999999963
11
147.113332999999983
21
-56.9003189999999961
0
LINE
8
BLACK
6
CONTINUOUS
10
147.113332999999983
20
-56.9003189999999961
11
146.9026189999999872
21
-56.9003189999999961
0
LINE
8
BLACK
6
CONTINUOUS
10
146.9026189999999872
20
-56.9003189999999961
11
146.9026189999999872
21
-57.8253190000000004
0
LINE
8
BLACK
6
CONTINUOUS
10
146.9026189999999872
20
-57.8253190000000004
11
146.9011779999999874
21
-57.8399509999999992
0
LINE
8
BLACK
6
CONTINUOUS
10
146.9011779999999874
20
-57.8399509999999992
11
146.8899789999999825
21
-57.8669869999999946
0
LINE
8
BLACK
6
CONTINUOUS
10
146.8899789999999825
20
-57.8669869999999946
11
146.8692869999999857
21
-57.8876789999999986
0
LINE
8
BLACK
6
CONTINUOUS
10
146.8692869999999857
20
-57.8876789999999986
11
146.8422510000000045
21
-57.8988779999999963
0
LINE
8
BLACK
6
CONTINUOUS
10
146.8422510000000045
20
-57.8988779999999963
11
146.8129869999999926
21
-57.8988779999999963
0
LINE
8
BLACK
6
CONTINUOUS
10
146.8129869999999926
20
-57.8988779999999963
11
146.785950999999983
21
-57.8876789999999986
0
LINE
8
BLACK
6
CONTINUOUS
10
146.785950999999983
20
-57.8876789999999986
11
146.7652589999999861
21
-57.8669869999999946
0
LINE
8
BLACK
6
CONTINUOUS
10
146.7652589999999861
20
-57.8669869999999946
11
146.7540599999999813
21
-57.8399509999999992
0
LINE
8
BLACK
6
CONTINUOUS
10
146.7540599999999813
20
-57.8399509999999992
11
146.7526189999999815
21
-57.8253190000000004
0
LINE
8
BLACK
6
CONTINUOUS
10
146.7526189999999815
20
-57.8253190000000004
11
146.7526189999999815
21
-56.9003189999999961
0
LINE
8
BLACK
6
CONTINUOUS
10
146.7526189999999815
20
-56.9003189999999961
11
146.5419049999999856
21
-56.9003189999999961
0
LINE
8
BLACK
6
CONTINUOUS
10
146.5419049999999856
20
-56.9003189999999961
11
146.5272729999999797
21
-56.8988779999999963
0
LINE
8
BLACK
6
CONTINUOUS
10
146.5272729999999797
20
-56.8988779999999963
11
146.5002369999999985
21
-56.8876789999999986
0
LINE
8
BLACK
6
CONTINUOUS
10
146.5002369999999985
20
-56.8876789999999986
11
146.4795450000000017
21
-56.8669869999999946
0
LINE
8
BLACK
6
CONTINUOUS
10
146.4795450000000017
20
-56.8669869999999946
11
146.4683459999999968
21
-56.8399509999999992
0
LINE
8
BLACK
6
CONTINUOUS
10
146.4683459999999968
20
-56.8399509999999992
11
146.4683459999999968
21
-56.8106869999999944
0
LINE
8
BLACK
6
CONTINUOUS
10
146.4683459999999968
20
-56.8106869999999944
11
146.4795450000000017
21
-56.783650999999999
0
LINE
8
BLACK
6
CONTINUOUS
10
146.4795450000000017
20
-56.783650999999999
11
146.5002369999999985
21
-56.7629589999999951
0
LINE
8
BLACK
6
CONTINUOUS
10
146.5002369999999985
20
-56.7629589999999951
11
146.5272729999999797
21
-56.7517599999999973
0
LINE
8
BLACK
6
CONTINUOUS
10
146.5272729999999797
20
-56.7517599999999973
11
146.5419049999999856
21
-56.7503189999999975
0
LINE
8
BLACK
6
CONTINUOUS
10
146.5419049999999856
20
-56.7503189999999975
11
147.113332999999983
21
-56.7503189999999975
0
LINE
8
BLACK
6
CONTINUOUS
10
147.113332999999983
20
-56.7503189999999975
11
147.127964999999989
21
-56.7517599999999973
0
LINE
8
BLACK
6
CONTINUOUS
10
148.0597640000000013
20
-57.0962919999999983
11
148.0804559999999981
21
-57.1169839999999951
0
LINE
8
BLACK
6
CONTINUOUS
10
148.0804559999999981
20
-57.1169839999999951
11
148.0916550000000029
21
-57.1440199999999976
0
LINE
8
BLACK
6
CONTINUOUS
10
148.0916550000000029
20
-57.1440199999999976
11
148.0930960000000027
21
-57.1586519999999965
0
LINE
8
BLACK
6
CONTINUOUS
10
148.0930960000000027
20
-57.1586519999999965
11
148.0930960000000027
21
-57.8253190000000004
0
LINE
8
BLACK
6
CONTINUOUS
10
148.0930960000000027
20
-57.8253190000000004
11
148.0916550000000029
21
-57.8399509999999992
0
LINE
8
BLACK
6
CONTINUOUS
10
148.0916550000000029
20
-57.8399509999999992
11
148.0804559999999981
21
-57.8669869999999946
0
LINE
8
BLACK
6
CONTINUOUS
10
148.0804559999999981
20
-57.8669869999999946
11
148.0597640000000013
21
-57.8876789999999986
0
LINE
8
BLACK
6
CONTINUOUS
10
148.0597640000000013
20
-57.8876789999999986
11
148.0327279999999917
21
-57.8988779999999963
0
LINE
8
BLACK
6
CONTINUOUS
10
148.0327279999999917
20
-57.8988779999999963
11
148.0034639999999797
21
-57.8988779999999963
0
LINE
8
BLACK
6
CONTINUOUS
10
148.0034639999999797
20
-57.8988779999999963
11
147.9764279999999985
21
-57.8876789999999986
0
LINE
8
BLACK
6
CONTINUOUS
10
147.9764279999999985
20
-57.8876789999999986
11
147.9557360000000017
21
-57.8669869999999946
0
LINE
8
BLACK
6
CONTINUOUS
10
147.9557360000000017
20
-57.8669869999999946
11
147.9445369999999969
21
-57.8399509999999992
0
LINE
8
BLACK
6
CONTINUOUS
10
147.9445369999999969
20
-57.8399509999999992
11
147.943095999999997
21
-57.8253190000000004
0
LINE
8
BLACK
6
CONTINUOUS
10
147.943095999999997
20
-57.8253190000000004
11
147.943095999999997
21
-57.1586519999999965
0
LINE
8
BLACK
6
CONTINUOUS
10
147.943095999999997
20
-57.1586519999999965
11
147.9445369999999969
21
-57.1440199999999976
0
LINE
8
BLACK
6
CONTINUOUS
10
147.9445369999999969
20
-57.1440199999999976
11
147.9557360000000017
21
-57.1169839999999951
0
LINE
8
BLACK
6
CONTINUOUS
10
147.9557360000000017
20
-57.1169839999999951
11
147.9764279999999985
21
-57.0962919999999983
0
LINE
8
BLACK
6
CONTINUOUS
10
147.9764279999999985
20
-57.0962919999999983
11
148.0034639999999797
21
-57.0850930000000005
0
LINE
8
BLACK
6
CONTINUOUS
10
148.0034639999999797
20
-57.0850930000000005
11
148.0327279999999917
21
-57.0850930000000005
0
LINE
8
BLACK
6
CONTINUOUS
10
148.0327279999999917
20
-57.0850930000000005
11
148.0597640000000013
21
-57.0962919999999983
0
LINE
8
BLACK
6
CONTINUOUS
10
148.7946320000000071
20
-57.0850930000000005
11
148.7971210000000042
21
-57.0861239999999981
0
LINE
8
BLACK
6
CONTINUOUS
10
148.7971210000000042
20
-57.0861239999999981
11
148.799808999999982
21
-57.086314999999999
0
LINE
8
BLACK
6
CONTINUOUS
10
148.799808999999982
20
-57.086314999999999
11
148.8135409999999865
21
-57.0915699999999973
0
LINE
8
BLACK
6
CONTINUOUS
10
148.8135409999999865
20
-57.0915699999999973
11
148.9087789999999814
21
-57.1391889999999947
0
LINE
8
BLACK
6
CONTINUOUS
10
148.9087789999999814
20
-57.1391889999999947
11
148.9112259999999992
21
-57.1407290000000003
0
LINE
8
BLACK
6
CONTINUOUS
10
148.9112259999999992
20
-57.1407290000000003
11
148.9123799999999846
21
-57.1411139999999946
0
LINE
8
BLACK
6
CONTINUOUS
10
148.9123799999999846
20
-57.1411139999999946
11
148.9138159999999971
21
-57.142358999999999
0
LINE
8
BLACK
6
CONTINUOUS
10
148.9138159999999971
20
-57.142358999999999
11
148.9212220000000002
21
-57.1470209999999952
0
LINE
8
BLACK
6
CONTINUOUS
10
148.9212220000000002
20
-57.1470209999999952
11
148.9273829999999919
21
-57.1541250000000005
0
LINE
8
BLACK
6
CONTINUOUS
10
148.9273829999999919
20
-57.1541250000000005
11
148.9344879999999876
21
-57.1602869999999967
0
LINE
8
BLACK
6
CONTINUOUS
10
148.9344879999999876
20
-57.1602869999999967
11
148.9391489999999862
21
-57.1676919999999953
0
LINE
8
BLACK
6
CONTINUOUS
10
148.9391489999999862
20
-57.1676919999999953
11
148.9403949999999952
21
-57.1691289999999981
0
LINE
8
BLACK
6
CONTINUOUS
10
148.9403949999999952
20
-57.1691289999999981
11
148.940778999999992
21
-57.1702820000000003
0
LINE
8
BLACK
6
CONTINUOUS
10
148.940778999999992
20
-57.1702820000000003
11
148.9423199999999952
21
-57.1727299999999943
0
LINE
8
BLACK
6
CONTINUOUS
10
148.9423199999999952
20
-57.1727299999999943
11
148.9899389999999926
21
-57.2679679999999962
0
LINE
8
BLACK
6
CONTINUOUS
10
148.9899389999999926
20
-57.2679679999999962
11
148.9951939999999979
21
-57.2816989999999961
0
LINE
8
BLACK
6
CONTINUOUS
10
148.9951939999999979
20
-57.2816989999999961
11
148.9953849999999989
21
-57.2843879999999999
0
LINE
8
BLACK
6
CONTINUOUS
10
148.9953849999999989
20
-57.2843879999999999
11
148.9964159999999822
21
-57.2868769999999969
0
LINE
8
BLACK
6
CONTINUOUS
10
148.9964159999999822
20
-57.2868769999999969
11
148.997856999999982
21
-57.3015089999999958
0
LINE
8
BLACK
6
CONTINUOUS
10
148.997856999999982
20
-57.3015089999999958
11
148.997856999999982
21
-57.8253190000000004
0
LINE
8
BLACK
6
CONTINUOUS
10
148.997856999999982
20
-57.8253190000000004
11
148.9964159999999822
21
-57.8399509999999992
0
LINE
8
BLACK
6
CONTINUOUS
10
148.9964159999999822
20
-57.8399509999999992
11
148.9852170000000058
21
-57.8669869999999946
0
LINE
8
BLACK
6
CONTINUOUS
10
148.9852170000000058
20
-57.8669869999999946
11
148.9645249999999805
21
-57.8876789999999986
0
LINE
8
BLACK
6
CONTINUOUS
10
148.9645249999999805
20
-57.8876789999999986
11
148.9374889999999994
21
-57.8988779999999963
0
LINE
8
BLACK
6
CONTINUOUS
10
148.9374889999999994
20
-57.8988779999999963
11
148.9082249999999874
21
-57.8988779999999963
0
LINE
8
BLACK
6
CONTINUOUS
10
148.9082249999999874
20
-57.8988779999999963
11
148.8811890000000062
21
-57.8876789999999986
0
LINE
8
BLACK
6
CONTINUOUS
10
148.8811890000000062
20
-57.8876789999999986
11
148.860496999999981
21
-57.8669869999999946
0
LINE
8
BLACK
6
CONTINUOUS
10
148.860496999999981
20
-57.8669869999999946
11
148.8492980000000045
21
-57.8399509999999992
0
LINE
8
BLACK
6
CONTINUOUS
10
148.8492980000000045
20
-57.8399509999999992
11
148.8478570000000047
21
-57.8253190000000004
0
LINE
8
BLACK
6
CONTINUOUS
10
148.8478570000000047
20
-57.8253190000000004
11
148.8478570000000047
21
-57.3192139999999952
0
LINE
8
BLACK
6
CONTINUOUS
10
148.8478570000000047
20
-57.3192139999999952
11
148.8193359999999927
21
-57.2621719999999996
0
LINE
8
BLACK
6
CONTINUOUS
10
148.8193359999999927
20
-57.2621719999999996
11
148.7622949999999946
21
-57.2336519999999993
0
LINE
8
BLACK
6
CONTINUOUS
10
148.7622949999999946
20
-57.2336519999999993
11
148.654847999999987
21
-57.2336519999999993
0
LINE
8
BLACK
6
CONTINUOUS
10
148.654847999999987
20
-57.2336519999999993
11
148.5863319999999987
21
-57.2679100000000005
0
LINE
8
BLACK
6
CONTINUOUS
10
148.5863319999999987
20
-57.2679100000000005
11
148.5692860000000053
21
-57.284955999999994
0
LINE
8
BLACK
6
CONTINUOUS
10
148.5692860000000053
20
-57.284955999999994
11
148.5692860000000053
21
-57.8253190000000004
0
LINE
8
BLACK
6
CONTINUOUS
10
148.5692860000000053
20
-57.8253190000000004
11
148.5678450000000055
21
-57.8399509999999992
0
LINE
8
BLACK
6
CONTINUOUS
10
148.5678450000000055
20
-57.8399509999999992
11
148.5566460000000006
21
-57.8669869999999946
0
LINE
8
BLACK
6
CONTINUOUS
10
148.5566460000000006
20
-57.8669869999999946
11
148.5359540000000038
21
-57.8876789999999986
0
LINE
8
BLACK
6
CONTINUOUS
10
148.5359540000000038
20
-57.8876789999999986
11
148.5089179999999942
21
-57.8988779999999963
0
LINE
8
BLACK
6
CONTINUOUS
10
148.5089179999999942
20
-57.8988779999999963
11
148.4796539999999823
21
-57.8988779999999963
0
LINE
8
BLACK
6
CONTINUOUS
10
148.4796539999999823
20
-57.8988779999999963
11
148.4526180000000011
21
-57.8876789999999986
0
LINE
8
BLACK
6
CONTINUOUS
10
148.4526180000000011
20
-57.8876789999999986
11
148.4319260000000043
21
-57.8669869999999946
0
LINE
8
BLACK
6
CONTINUOUS
10
148.4319260000000043
20
-57.8669869999999946
11
148.4207269999999994
21
-57.8399509999999992
0
LINE
8
BLACK
6
CONTINUOUS
10
148.4207269999999994
20
-57.8399509999999992
11
148.4192859999999996
21
-57.8253190000000004
0
LINE
8
BLACK
6
CONTINUOUS
10
148.4192859999999996
20
-57.8253190000000004
11
148.4192859999999996
21
-57.1586519999999965
0
LINE
8
BLACK
6
CONTINUOUS
10
148.4192859999999996
20
-57.1586519999999965
11
148.4207269999999994
21
-57.1440199999999976
0
LINE
8
BLACK
6
CONTINUOUS
10
148.4207269999999994
20
-57.1440199999999976
11
148.4319260000000043
21
-57.1169839999999951
0
LINE
8
BLACK
6
CONTINUOUS
10
148.4319260000000043
20
-57.1169839999999951
11
148.4526180000000011
21
-57.0962919999999983
0
LINE
8
BLACK
6
CONTINUOUS
10
148.4526180000000011
20
-57.0962919999999983
11
148.4796539999999823
21
-57.0850930000000005
0
LINE
8
BLACK
6
CONTINUOUS
10
148.4796539999999823
20
-57.0850930000000005
11
148.5089179999999942
21
-57.0850930000000005
0
LINE
8
BLACK
6
CONTINUOUS
10
148.5089179999999942
20
-57.0850930000000005
11
148.5359540000000038
21
-57.0962919999999983
0
LINE
8
BLACK
6
CONTINUOUS
10
148.5359540000000038
20
-57.0962919999999983
11
148.5553549999999916
21
-57.1156930000000003
0
LINE
8
BLACK
6
CONTINUOUS
10
148.5553549999999916
20
-57.1156930000000003
11
148.6036019999999951
21
-57.0915699999999973
0
LINE
8
BLACK
6
CONTINUOUS
10
148.6036019999999951
20
-57.0915699999999973
11
148.6173330000000021
21
-57.086314999999999
0
LINE
8
BLACK
6
CONTINUOUS
10
148.6173330000000021
20
-57.086314999999999
11
148.6200220000000058
21
-57.0861230000000006
0
LINE
8
BLACK
6
CONTINUOUS
10
148.6200220000000058
20
-57.0861230000000006
11
148.6225110000000029
21
-57.0850930000000005
0
LINE
8
BLACK
6
CONTINUOUS
10
148.6225110000000029
20
-57.0850930000000005
11
148.6371429999999805
21
-57.0836520000000007
0
LINE
8
BLACK
6
CONTINUOUS
10
148.6371429999999805
20
-57.0836520000000007
11
148.7800000000000011
21
-57.0836520000000007
0
LINE
8
BLACK
6
CONTINUOUS
10
148.7800000000000011
20
-57.0836520000000007
11
148.7946320000000071
21
-57.0850930000000005
0
LINE
8
BLACK
6
CONTINUOUS
10
152.842252000000002
20
-57.3708069999999992
11
152.8692879999999832
21
-57.382005999999997
0
LINE
8
BLACK
6
CONTINUOUS
10
152.8692879999999832
20
-57.382005999999997
11
152.88997999999998
21
-57.4026980000000009
0
LINE
8
BLACK
6
CONTINUOUS
10
152.88997999999998
20
-57.4026980000000009
11
152.9011789999999849
21
-57.4297339999999963
0
LINE
8
BLACK
6
CONTINUOUS
10
152.9011789999999849
20
-57.4297339999999963
11
152.9011789999999849
21
-57.458997999999994
0
LINE
8
BLACK
6
CONTINUOUS
10
152.9011789999999849
20
-57.458997999999994
11
152.88997999999998
21
-57.4860339999999965
0
LINE
8
BLACK
6
CONTINUOUS
10
152.88997999999998
20
-57.4860339999999965
11
152.8692879999999832
21
-57.5067260000000005
0
LINE
8
BLACK
6
CONTINUOUS
10
152.8692879999999832
20
-57.5067260000000005
11
152.842252000000002
21
-57.5179249999999982
0
LINE
8
BLACK
6
CONTINUOUS
10
152.842252000000002
20
-57.5179249999999982
11
152.827619999999996
21
-57.519365999999998
0
LINE
8
BLACK
6
CONTINUOUS
10
152.827619999999996
20
-57.519365999999998
11
152.0657149999999831
21
-57.519365999999998
0
LINE
8
BLACK
6
CONTINUOUS
10
152.0657149999999831
20
-57.519365999999998
11
152.0510830000000055
21
-57.5179249999999982
0
LINE
8
BLACK
6
CONTINUOUS
10
152.0510830000000055
20
-57.5179249999999982
11
152.0240469999999959
21
-57.5067260000000005
0
LINE
8
BLACK
6
CONTINUOUS
10
152.0240469999999959
20
-57.5067260000000005
11
152.0033549999999991
21
-57.4860339999999965
0
LINE
8
BLACK
6
CONTINUOUS
10
152.0033549999999991
20
-57.4860339999999965
11
151.9921559999999943
21
-57.458997999999994
0
LINE
8
BLACK
6
CONTINUOUS
10
151.9921559999999943
20
-57.458997999999994
11
151.9921559999999943
21
-57.4297339999999963
0
LINE
8
BLACK
6
CONTINUOUS
10
151.9921559999999943
20
-57.4297339999999963
11
152.0033549999999991
21
-57.4026980000000009
0
LINE
8
BLACK
6
CONTINUOUS
10
152.0033549999999991
20
-57.4026980000000009
11
152.0240469999999959
21
-57.382005999999997
0
LINE
8
BLACK
6
CONTINUOUS
10
152.0240469999999959
20
-57.382005999999997
11
152.0510830000000055
21
-57.3708069999999992
0
LINE
8
BLACK
6
CONTINUOUS
10
152.0510830000000055
20
-57.3708069999999992
11
152.0657149999999831
21
-57.3693659999999994
0
LINE
8
BLACK
6
CONTINUOUS
10
152.0657149999999831
20
-57.3693659999999994
11
152.827619999999996
21
-57.3693659999999994
0
LINE
8
BLACK
6
CONTINUOUS
10
152.827619999999996
20
-57.3693659999999994
11
152.842252000000002
21
-57.3708069999999992
0
LINE
8
BLACK
6
CONTINUOUS
10
148.0597640000000013
20
-56.7629589999999951
11
148.0711289999999849
21
-56.772285999999994
0
LINE
8
BLACK
6
CONTINUOUS
10
148.0711289999999849
20
-56.772285999999994
11
148.1187479999999823
21
-56.8199049999999986
0
LINE
8
BLACK
6
CONTINUOUS
10
148.1187479999999823
20
-56.8199049999999986
11
148.1280749999999955
21
-56.8312699999999964
0
LINE
8
BLACK
6
CONTINUOUS
10
148.1280749999999955
20
-56.8312699999999964
11
148.131670999999983
21
-56.8399509999999992
0
LINE
8
BLACK
6
CONTINUOUS
10
148.131670999999983
20
-56.8399509999999992
11
148.1392740000000003
21
-56.8583069999999964
0
LINE
8
BLACK
6
CONTINUOUS
10
148.1392740000000003
20
-56.8583069999999964
11
148.1392740000000003
21
-56.8875699999999966
0
LINE
8
BLACK
6
CONTINUOUS
10
148.1392740000000003
20
-56.8875699999999966
11
148.1280749999999955
21
-56.9146059999999991
0
LINE
8
BLACK
6
CONTINUOUS
10
148.1280749999999955
20
-56.9146059999999991
11
148.1187479999999823
21
-56.925970999999997
0
LINE
8
BLACK
6
CONTINUOUS
10
148.1187479999999823
20
-56.925970999999997
11
148.0711289999999849
21
-56.9735899999999944
0
LINE
8
BLACK
6
CONTINUOUS
10
148.0711289999999849
20
-56.9735899999999944
11
148.0597640000000013
21
-56.9829170000000005
0
LINE
8
BLACK
6
CONTINUOUS
10
148.0597640000000013
20
-56.9829170000000005
11
148.0327279999999917
21
-56.9941159999999982
0
LINE
8
BLACK
6
CONTINUOUS
10
148.0327279999999917
20
-56.9941159999999982
11
148.0327269999999942
21
-56.9941159999999982
0
LINE
8
BLACK
6
CONTINUOUS
10
148.0327269999999942
20
-56.9941159999999982
11
148.0034650000000056
21
-56.9941159999999982
0
LINE
8
BLACK
6
CONTINUOUS
10
148.0034650000000056
20
-56.9941159999999982
11
148.0034639999999797
21
-56.9941159999999982
0
LINE
8
BLACK
6
CONTINUOUS
10
148.0034639999999797
20
-56.9941159999999982
11
147.9764279999999985
21
-56.9829170000000005
0
LINE
8
BLACK
6
CONTINUOUS
10
147.9764279999999985
20
-56.9829170000000005
11
147.9650629999999865
21
-56.9735899999999944
0
LINE
8
BLACK
6
CONTINUOUS
10
147.9650629999999865
20
-56.9735899999999944
11
147.917443999999989
21
-56.925970999999997
0
LINE
8
BLACK
6
CONTINUOUS
10
147.917443999999989
20
-56.925970999999997
11
147.9081170000000043
21
-56.9146059999999991
0
LINE
8
BLACK
6
CONTINUOUS
10
147.9081170000000043
20
-56.9146059999999991
11
147.8969179999999994
21
-56.8875689999999992
0
LINE
8
BLACK
6
CONTINUOUS
10
147.8969179999999994
20
-56.8875689999999992
11
147.8969179999999994
21
-56.8583069999999964
0
LINE
8
BLACK
6
CONTINUOUS
10
147.8969179999999994
20
-56.8583069999999964
11
147.9081170000000043
21
-56.8312699999999964
0
LINE
8
BLACK
6
CONTINUOUS
10
147.9081170000000043
20
-56.8312699999999964
11
147.917443999999989
21
-56.8199049999999986
0
LINE
8
BLACK
6
CONTINUOUS
10
147.917443999999989
20
-56.8199049999999986
11
147.9650629999999865
21
-56.772285999999994
0
LINE
8
BLACK
6
CONTINUOUS
10
147.9650629999999865
20
-56.772285999999994
11
147.9764279999999985
21
-56.7629589999999951
0
LINE
8
BLACK
6
CONTINUOUS
10
147.9764279999999985
20
-56.7629589999999951
11
148.0034639999999797
21
-56.7517599999999973
0
LINE
8
BLACK
6
CONTINUOUS
10
148.0034639999999797
20
-56.7517599999999973
11
148.0327269999999942
21
-56.7517599999999973
0
LINE
8
BLACK
6
CONTINUOUS
10
148.0327269999999942
20
-56.7517599999999973
11
148.0327279999999917
21
-56.7517599999999973
0
LINE
8
BLACK
6
CONTINUOUS
10
148.0327279999999917
20
-56.7517599999999973
11
148.0597640000000013
21
-56.7629589999999951
0
LINE
8
BLACK
6
CONTINUOUS
10
154.8691340000000025
20
-56.4093060000000008
11
154.8853550000000041
21
-56.420144999999998
0
LINE
8
BLACK
6
CONTINUOUS
10
154.8853550000000041
20
-56.420144999999998
11
155.2155290000000036
21
-56.7503189999999975
0
LINE
8
BLACK
6
CONTINUOUS
10
155.2155290000000036
20
-56.7503189999999975
11
155.5895239999999831
21
-56.7503189999999975
0
LINE
8
BLACK
6
CONTINUOUS
10
155.5895239999999831
20
-56.7503189999999975
11
155.604155999999989
21
-56.7517599999999973
0
LINE
8
BLACK
6
CONTINUOUS
10
155.604155999999989
20
-56.7517599999999973
11
155.6066449999999861
21
-56.7527909999999949
0
LINE
8
BLACK
6
CONTINUOUS
10
155.6066449999999861
20
-56.7527909999999949
11
155.6093329999999924
21
-56.7529819999999958
0
LINE
8
BLACK
6
CONTINUOUS
10
155.6093329999999924
20
-56.7529819999999958
11
155.6230649999999969
21
-56.7582369999999941
0
LINE
8
BLACK
6
CONTINUOUS
10
155.6230649999999969
20
-56.7582369999999941
11
155.7183029999999917
21
-56.8058559999999986
0
LINE
8
BLACK
6
CONTINUOUS
10
155.7183029999999917
20
-56.8058559999999986
11
155.7246020000000044
21
-56.8098199999999949
0
LINE
8
BLACK
6
CONTINUOUS
10
155.7246020000000044
20
-56.8098199999999949
11
155.7264299999999935
21
-56.8105779999999996
0
LINE
8
BLACK
6
CONTINUOUS
10
155.7264299999999935
20
-56.8105779999999996
11
155.7284860000000037
21
-56.8122659999999939
0
LINE
8
BLACK
6
CONTINUOUS
10
155.7284860000000037
20
-56.8122659999999939
11
155.7307459999999821
21
-56.8136879999999991
0
LINE
8
BLACK
6
CONTINUOUS
10
155.7307459999999821
20
-56.8136879999999991
11
155.7320449999999994
21
-56.8151859999999971
0
LINE
8
BLACK
6
CONTINUOUS
10
155.7320449999999994
20
-56.8151859999999971
11
155.7377950000000055
21
-56.8199049999999986
0
LINE
8
BLACK
6
CONTINUOUS
10
155.7377950000000055
20
-56.8199049999999986
11
155.7854140000000029
21
-56.867523999999996
0
LINE
8
BLACK
6
CONTINUOUS
10
155.7854140000000029
20
-56.867523999999996
11
155.7901319999999998
21
-56.8732729999999975
0
LINE
8
BLACK
6
CONTINUOUS
10
155.7901319999999998
20
-56.8732729999999975
11
155.7916309999999953
21
-56.874572999999998
0
LINE
8
BLACK
6
CONTINUOUS
10
155.7916309999999953
20
-56.874572999999998
11
155.7930519999999888
21
-56.8768320000000003
0
LINE
8
BLACK
6
CONTINUOUS
10
155.7930519999999888
20
-56.8768320000000003
11
155.7947409999999877
21
-56.8788890000000009
0
LINE
8
BLACK
6
CONTINUOUS
10
155.7947409999999877
20
-56.8788890000000009
11
155.7954979999999807
21
-56.8807159999999996
0
LINE
8
BLACK
6
CONTINUOUS
10
155.7954979999999807
20
-56.8807159999999996
11
155.7994630000000029
21
-56.8870159999999956
0
LINE
8
BLACK
6
CONTINUOUS
10
155.7994630000000029
20
-56.8870159999999956
11
155.8470820000000003
21
-56.9822539999999975
0
LINE
8
BLACK
6
CONTINUOUS
10
155.8470820000000003
20
-56.9822539999999975
11
155.8523370000000057
21
-56.9959849999999975
0
LINE
8
BLACK
6
CONTINUOUS
10
155.8523370000000057
20
-56.9959849999999975
11
155.8525280000000066
21
-56.9986739999999941
0
LINE
8
BLACK
6
CONTINUOUS
10
155.8525280000000066
20
-56.9986739999999941
11
155.85355899999999
21
-57.0011629999999982
0
LINE
8
BLACK
6
CONTINUOUS
10
155.85355899999999
20
-57.0011629999999982
11
155.8549999999999898
21
-57.0157949999999971
0
LINE
8
BLACK
6
CONTINUOUS
10
155.8549999999999898
20
-57.0157949999999971
11
155.8549999999999898
21
-57.1586519999999965
0
LINE
8
BLACK
6
CONTINUOUS
10
155.8549999999999898
20
-57.1586519999999965
11
155.85355899999999
21
-57.1732839999999953
0
LINE
8
BLACK
6
CONTINUOUS
10
155.85355899999999
20
-57.1732839999999953
11
155.8525280000000066
21
-57.1757719999999949
0
LINE
8
BLACK
6
CONTINUOUS
10
155.8525280000000066
20
-57.1757719999999949
11
155.8523370000000057
21
-57.1784619999999961
0
LINE
8
BLACK
6
CONTINUOUS
10
155.8523370000000057
20
-57.1784619999999961
11
155.8470820000000003
21
-57.1921929999999961
0
LINE
8
BLACK
6
CONTINUOUS
10
155.8470820000000003
20
-57.1921929999999961
11
155.7994630000000029
21
-57.287430999999998
0
LINE
8
BLACK
6
CONTINUOUS
10
155.7994630000000029
20
-57.287430999999998
11
155.7954979999999807
21
-57.2937299999999965
0
LINE
8
BLACK
6
CONTINUOUS
10
155.7954979999999807
20
-57.2937299999999965
11
155.7947409999999877
21
-57.2955579999999998
0
LINE
8
BLACK
6
CONTINUOUS
10
155.7947409999999877
20
-57.2955579999999998
11
155.7930519999999888
21
-57.2976139999999958
0
LINE
8
BLACK
6
CONTINUOUS
10
155.7930519999999888
20
-57.2976139999999958
11
155.7916309999999953
21
-57.2998739999999955
0
LINE
8
BLACK
6
CONTINUOUS
10
155.7916309999999953
20
-57.2998739999999955
11
155.7901319999999998
21
-57.3011729999999986
0
LINE
8
BLACK
6
CONTINUOUS
10
155.7901319999999998
20
-57.3011729999999986
11
155.7854140000000029
21
-57.3069229999999976
0
LINE
8
BLACK
6
CONTINUOUS
10
155.7854140000000029
20
-57.3069229999999976
11
155.778773000000001
21
-57.3135629999999949
0
LINE
8
BLACK
6
CONTINUOUS
10
155.778773000000001
20
-57.3135629999999949
11
155.8853560000000016
21
-57.420144999999998
0
LINE
8
BLACK
6
CONTINUOUS
10
155.8853560000000016
20
-57.420144999999998
11
155.89619399999998
21
-57.4363659999999996
0
LINE
8
BLACK
6
CONTINUOUS
10
155.89619399999998
20
-57.4363659999999996
11
155.9000000000000057
21
-57.4555000000000007
0
LINE
8
BLACK
6
CONTINUOUS
10
155.9000000000000057
20
-57.4555000000000007
11
155.9000000000000057
21
-62.805499999999995
0
LINE
8
BLACK
6
CONTINUOUS
10
155.9000000000000057
20
-62.805499999999995
11
155.89619399999998
21
-62.8246339999999961
0
LINE
8
BLACK
6
CONTINUOUS
10
155.89619399999998
20
-62.8246339999999961
11
155.8691340000000025
21
-62.8516939999999948
0
LINE
8
BLACK
6
CONTINUOUS
10
155.8691340000000025
20
-62.8516939999999948
11
155.8499999999999943
21
-62.8554999999999993
0
LINE
8
BLACK
6
CONTINUOUS
10
155.8499999999999943
20
-62.8554999999999993
11
145.6899999999999977
21
-62.8554999999999993
0
LINE
8
BLACK
6
CONTINUOUS
10
145.6899999999999977
20
-62.8554999999999993
11
145.6708659999999895
21
-62.8516939999999948
0
LINE
8
BLACK
6
CONTINUOUS
10
145.6708659999999895
20
-62.8516939999999948
11
145.6438059999999837
21
-62.8246339999999961
0
LINE
8
BLACK
6
CONTINUOUS
10
145.6438059999999837
20
-62.8246339999999961
11
145.6399999999999864
21
-62.805499999999995
0
LINE
8
BLACK
6
CONTINUOUS
10
145.6399999999999864
20
-62.805499999999995
11
145.6399999999999864
21
-57.8838669999999951
0
LINE
8
BLACK
6
CONTINUOUS
10
145.6399999999999864
20
-57.8838669999999951
11
145.6255119999999863
21
-57.871302
0
LINE
8
BLACK
6
CONTINUOUS
10
145.6255119999999863
20
-57.871302
11
145.6124259999999992
21
-57.845129
0
LINE
8
BLACK
6
CONTINUOUS
10
145.6124259999999992
20
-57.845129
11
145.6103509999999801
21
-57.8159390000000002
0
LINE
8
BLACK
6
CONTINUOUS
10
145.6103509999999801
20
-57.8159390000000002
11
145.6136109999999917
21
-57.8016019999999955
0
LINE
8
BLACK
6
CONTINUOUS
10
145.6136109999999917
20
-57.8016019999999955
11
145.6399999999999864
21
-57.7224339999999998
0
LINE
8
BLACK
6
CONTINUOUS
10
145.6399999999999864
20
-57.7224339999999998
11
145.6399999999999864
21
-56.4555000000000007
0
LINE
8
BLACK
6
CONTINUOUS
10
145.6399999999999864
20
-56.4555000000000007
11
145.6438059999999837
21
-56.4363659999999996
0
LINE
8
BLACK
6
CONTINUOUS
10
145.6438059999999837
20
-56.4363659999999996
11
145.6708659999999895
21
-56.4093060000000008
0
LINE
8
BLACK
6
CONTINUOUS
10
145.6708659999999895
20
-56.4093060000000008
11
145.6899999999999977
21
-56.4054999999999964
0
LINE
8
BLACK
6
CONTINUOUS
10
145.6899999999999977
20
-56.4054999999999964
11
154.8499999999999943
21
-56.4054999999999964
0
LINE
8
BLACK
6
CONTINUOUS
10
154.8499999999999943
20
-56.4054999999999964
11
154.8691340000000025
21
-56.4093060000000008
0
LINE
8
BLACK
6
CONTINUOUS
10
145.7399999999999807
20
-56.5054999999999978
11
145.7399999999999807
21
-57.4224339999999955
0
LINE
8
BLACK
6
CONTINUOUS
10
145.7399999999999807
20
-57.4224339999999955
11
145.946944000000002
21
-56.8016019999999955
0
LINE
8
BLACK
6
CONTINUOUS
10
145.946944000000002
20
-56.8016019999999955
11
145.952937999999989
21
-56.7881769999999975
0
LINE
8
BLACK
6
CONTINUOUS
10
145.952937999999989
20
-56.7881769999999975
11
145.9564479999999946
21
-56.7841290000000001
0
LINE
8
BLACK
6
CONTINUOUS
10
145.9564479999999946
20
-56.7841290000000001
11
145.9588449999999966
21
-56.7793360000000007
0
LINE
8
BLACK
6
CONTINUOUS
10
145.9588449999999966
20
-56.7793360000000007
11
145.9659529999999847
21
-56.7731700000000004
0
LINE
8
BLACK
6
CONTINUOUS
10
145.9659529999999847
20
-56.7731700000000004
11
145.9721119999999814
21
-56.7660699999999991
0
LINE
8
BLACK
6
CONTINUOUS
10
145.9721119999999814
20
-56.7660699999999991
11
145.976900999999998
21
-56.7636749999999992
0
LINE
8
BLACK
6
CONTINUOUS
10
145.976900999999998
20
-56.7636749999999992
11
145.980952000000002
21
-56.760161999999994
0
LINE
8
BLACK
6
CONTINUOUS
10
145.980952000000002
20
-56.760161999999994
11
145.989877000000007
21
-56.7571869999999947
0
LINE
8
BLACK
6
CONTINUOUS
10
145.989877000000007
20
-56.7571869999999947
11
145.9982849999999814
21
-56.7529830000000004
0
LINE
8
BLACK
6
CONTINUOUS
10
145.9982849999999814
20
-56.7529830000000004
11
146.0036289999999894
21
-56.7526030000000006
0
LINE
8
BLACK
6
CONTINUOUS
10
146.0036289999999894
20
-56.7526030000000006
11
146.0087149999999951
21
-56.7509079999999955
0
LINE
8
BLACK
6
CONTINUOUS
10
146.0087149999999951
20
-56.7509079999999955
11
146.0180949999999882
21
-56.751573999999998
0
LINE
8
BLACK
6
CONTINUOUS
10
146.0180949999999882
20
-56.751573999999998
11
146.0274749999999813
21
-56.7509079999999955
0
LINE
8
BLACK
6
CONTINUOUS
10
146.0274749999999813
20
-56.7509079999999955
11
146.0325599999999895
21
-56.7526030000000006
0
LINE
8
BLACK
6
CONTINUOUS
10
146.0325599999999895
20
-56.7526030000000006
11
146.037904999999995
21
-56.7529830000000004
0
LINE
8
BLACK
6
CONTINUOUS
10
146.037904999999995
20
-56.7529830000000004
11
146.0463149999999928
21
-56.7571879999999993
0
LINE
8
BLACK
6
CONTINUOUS
10
146.0463149999999928
20
-56.7571879999999993
11
146.0552370000000053
21
-56.760161999999994
0
LINE
8
BLACK
6
CONTINUOUS
10
146.0552370000000053
20
-56.760161999999994
11
146.059283999999991
21
-56.7636719999999997
0
LINE
8
BLACK
6
CONTINUOUS
10
146.059283999999991
20
-56.7636719999999997
11
146.064077999999995
21
-56.7660689999999946
0
LINE
8
BLACK
6
CONTINUOUS
10
146.064077999999995
20
-56.7660689999999946
11
146.0702409999999816
21
-56.7731739999999974
0
LINE
8
BLACK
6
CONTINUOUS
10
146.0702409999999816
20
-56.7731739999999974
11
146.0773449999999798
21
-56.7793360000000007
0
LINE
8
BLACK
6
CONTINUOUS
10
146.0773449999999798
20
-56.7793360000000007
11
146.0797399999999868
21
-56.784126999999998
0
LINE
8
BLACK
6
CONTINUOUS
10
146.0797399999999868
20
-56.784126999999998
11
146.0832519999999874
21
-56.788176
0
LINE
8
BLACK
6
CONTINUOUS
10
146.0832519999999874
20
-56.788176
11
146.0892460000000028
21
-56.8016019999999955
0
LINE
8
BLACK
6
CONTINUOUS
10
146.0892460000000028
20
-56.8016019999999955
11
146.4225789999999847
21
-57.8016019999999955
0
LINE
8
BLACK
6
CONTINUOUS
10
146.4225789999999847
20
-57.8016019999999955
11
146.4258389999999963
21
-57.8159379999999956
0
LINE
8
BLACK
6
CONTINUOUS
10
146.4258389999999963
20
-57.8159379999999956
11
146.4237640000000056
21
-57.8451279999999954
0
LINE
8
BLACK
6
CONTINUOUS
10
146.4237640000000056
20
-57.8451279999999954
11
146.4106779999999901
21
-57.871302
0
LINE
8
BLACK
6
CONTINUOUS
10
146.4106779999999901
20
-57.871302
11
146.3885699999999872
21
-57.8904759999999996
0
LINE
8
BLACK
6
CONTINUOUS
10
146.3885699999999872
20
-57.8904759999999996
11
146.3608079999999916
21
-57.8997299999999981
0
LINE
8
BLACK
6
CONTINUOUS
10
146.3608079999999916
20
-57.8997299999999981
11
146.3316179999999918
21
-57.8976550000000003
0
LINE
8
BLACK
6
CONTINUOUS
10
146.3316179999999918
20
-57.8976550000000003
11
146.3054449999999918
21
-57.8845679999999945
0
LINE
8
BLACK
6
CONTINUOUS
10
146.3054449999999918
20
-57.8845679999999945
11
146.2862709999999993
21
-57.8624609999999961
0
LINE
8
BLACK
6
CONTINUOUS
10
146.2862709999999993
20
-57.8624609999999961
11
146.2802769999999839
21
-57.8490359999999981
0
LINE
8
BLACK
6
CONTINUOUS
10
146.2802769999999839
20
-57.8490359999999981
11
146.2021330000000034
21
-57.6146039999999999
0
LINE
8
BLACK
6
CONTINUOUS
10
146.2021330000000034
20
-57.6146039999999999
11
145.8340570000000014
21
-57.6146039999999999
0
LINE
8
BLACK
6
CONTINUOUS
10
145.8340570000000014
20
-57.6146039999999999
11
145.7559129999999925
21
-57.8490359999999981
0
LINE
8
BLACK
6
CONTINUOUS
10
145.7559129999999925
20
-57.8490359999999981
11
145.7499190000000056
21
-57.8624620000000007
0
LINE
8
BLACK
6
CONTINUOUS
10
145.7499190000000056
20
-57.8624620000000007
11
145.7399999999999807
21
-57.873897999999997
0
LINE
8
BLACK
6
CONTINUOUS
10
145.7399999999999807
20
-57.873897999999997
11
145.7399999999999807
21
-62.7554999999999978
0
LINE
8
BLACK
6
CONTINUOUS
10
145.7399999999999807
20
-62.7554999999999978
11
155.7999999999999829
21
-62.7554999999999978
0
LINE
8
BLACK
6
CONTINUOUS
10
155.7999999999999829
20
-62.7554999999999978
11
155.7999999999999829
21
-57.4762099999999947
0
LINE
8
BLACK
6
CONTINUOUS
10
155.7999999999999829
20
-57.4762099999999947
11
155.7010209999999972
21
-57.3772309999999948
0
LINE
8
BLACK
6
CONTINUOUS
10
155.7010209999999972
20
-57.3772309999999948
11
155.6230649999999969
21
-57.4162099999999995
0
LINE
8
BLACK
6
CONTINUOUS
10
155.6230649999999969
20
-57.4162099999999995
11
155.6093329999999924
21
-57.4214649999999978
0
LINE
8
BLACK
6
CONTINUOUS
10
155.6093329999999924
20
-57.4214649999999978
11
155.6066449999999861
21
-57.4216549999999941
0
LINE
8
BLACK
6
CONTINUOUS
10
155.6066449999999861
20
-57.4216549999999941
11
155.604155999999989
21
-57.4226869999999963
0
LINE
8
BLACK
6
CONTINUOUS
10
155.604155999999989
20
-57.4226869999999963
11
155.5895239999999831
21
-57.4241279999999961
0
LINE
8
BLACK
6
CONTINUOUS
10
155.5895239999999831
20
-57.4241279999999961
11
155.2835719999999924
21
-57.4241279999999961
0
LINE
8
BLACK
6
CONTINUOUS
10
155.2835719999999924
20
-57.4241279999999961
11
155.2835719999999924
21
-57.8253190000000004
0
LINE
8
BLACK
6
CONTINUOUS
10
155.2835719999999924
20
-57.8253190000000004
11
155.2821309999999926
21
-57.8399509999999992
0
LINE
8
BLACK
6
CONTINUOUS
10
155.2821309999999926
20
-57.8399509999999992
11
155.2709319999999877
21
-57.8669869999999946
0
LINE
8
BLACK
6
CONTINUOUS
10
155.2709319999999877
20
-57.8669869999999946
11
155.2502399999999909
21
-57.8876789999999986
0
LINE
8
BLACK
6
CONTINUOUS
10
155.2502399999999909
20
-57.8876789999999986
11
155.2232039999999813
21
-57.8988779999999963
0
LINE
8
BLACK
6
CONTINUOUS
10
155.2232039999999813
20
-57.8988779999999963
11
155.1939399999999978
21
-57.8988779999999963
0
LINE
8
BLACK
6
CONTINUOUS
10
155.1939399999999978
20
-57.8988779999999963
11
155.1669039999999882
21
-57.8876789999999986
0
LINE
8
BLACK
6
CONTINUOUS
10
155.1669039999999882
20
-57.8876789999999986
11
155.1462119999999913
21
-57.8669869999999946
0
LINE
8
BLACK
6
CONTINUOUS
10
155.1462119999999913
20
-57.8669869999999946
11
155.1350129999999865
21
-57.8399509999999992
0
LINE
8
BLACK
6
CONTINUOUS
10
155.1350129999999865
20
-57.8399509999999992
11
155.1335719999999867
21
-57.8253190000000004
0
LINE
8
BLACK
6
CONTINUOUS
10
155.1335719999999867
20
-57.8253190000000004
11
155.1335719999999867
21
-56.8253190000000004
0
LINE
8
BLACK
6
CONTINUOUS
10
155.1335719999999867
20
-56.8253190000000004
11
155.1349639999999965
21
-56.8111749999999986
0
LINE
8
BLACK
6
CONTINUOUS
10
155.1349639999999965
20
-56.8111749999999986
11
154.8292899999999861
21
-56.5054999999999978
0
LINE
8
BLACK
6
CONTINUOUS
10
154.8292899999999861
20
-56.5054999999999978
11
145.7399999999999807
21
-56.5054999999999978
0
LINE
8
BLACK
6
CONTINUOUS
10
145.8840569999999843
20
-57.4646039999999942
11
146.1521329999999921
21
-57.4646039999999942
0
LINE
8
BLACK
6
CONTINUOUS
10
146.1521329999999921
20
-57.4646039999999942
11
146.0180949999999882
21
-57.0624889999999994
0
LINE
8
BLACK
6
CONTINUOUS
10
146.0180949999999882
20
-57.0624889999999994
11
145.8840569999999843
21
-57.4646039999999942
0
LINE
8
BLACK
6
CONTINUOUS
10
155.2835719999999924
20
-57.2741279999999975
11
155.571819000000005
21
-57.2741279999999975
0
LINE
8
BLACK
6
CONTINUOUS
10
155.571819000000005
20
-57.2741279999999975
11
155.5892169999999908
21
-57.265428
0
LINE
8
BLACK
6
CONTINUOUS
10
155.5892169999999908
20
-57.265428
11
155.2835719999999924
21
-56.959781999999997
0
LINE
8
BLACK
6
CONTINUOUS
10
155.2835719999999924
20
-56.959781999999997
11
155.2835719999999924
21
-57.2741279999999975
0
LINE
8
BLACK
6
CONTINUOUS
10
155.6720519999999794
20
-57.2068409999999972
11
155.7049999999999841
21
-57.140946999999997
0
LINE
8
BLACK
6
CONTINUOUS
10
155.7049999999999841
20
-57.140946999999997
11
155.7049999999999841
21
-57.0334999999999965
0
LINE
8
BLACK
6
CONTINUOUS
10
155.7049999999999841
20
-57.0334999999999965
11
155.67074199999999
21
-56.9649839999999941
0
LINE
8
BLACK
6
CONTINUOUS
10
155.67074199999999
20
-56.9649839999999941
11
155.6403349999999932
21
-56.9345769999999973
0
LINE
8
BLACK
6
CONTINUOUS
10
155.6403349999999932
20
-56.9345769999999973
11
155.571819000000005
21
-56.9003189999999961
0
LINE
8
BLACK
6
CONTINUOUS
10
155.571819000000005
20
-56.9003189999999961
11
155.3655289999999809
21
-56.9003189999999961
0
LINE
8
BLACK
6
CONTINUOUS
10
155.3655289999999809
20
-56.9003189999999961
11
155.6720519999999794
21
-57.2068409999999972
0
LINE
8
BLACK
6
CONTINUOUS
10
153.0191339999999798
20
-51.0788060000000002
11
153.0461939999999856
21
-51.1058659999999989
0
LINE
8
BLACK
6
CONTINUOUS
10
153.0461939999999856
20
-51.1058659999999989
11
153.0461939999999856
21
-51.1441340000000011
0
LINE
8
BLACK
6
CONTINUOUS
10
153.0461939999999856
20
-51.1441340000000011
11
153.0353549999999814
21
-51.1603549999999956
0
LINE
8
BLACK
6
CONTINUOUS
10
153.0353549999999814
20
-51.1603549999999956
11
152.5353549999999814
21
-51.6603549999999956
0
LINE
8
BLACK
6
CONTINUOUS
10
152.5353549999999814
20
-51.6603549999999956
11
152.5191339999999798
21
-51.6711939999999998
0
LINE
8
BLACK
6
CONTINUOUS
10
152.5191339999999798
20
-51.6711939999999998
11
152.4808659999999918
21
-51.6711939999999998
0
LINE
8
BLACK
6
CONTINUOUS
10
152.4808659999999918
20
-51.6711939999999998
11
152.4646449999999902
21
-51.6603549999999956
0
LINE
8
BLACK
6
CONTINUOUS
10
152.4646449999999902
20
-51.6603549999999956
11
151.9646449999999902
21
-51.1603549999999956
0
LINE
8
BLACK
6
CONTINUOUS
10
151.9646449999999902
20
-51.1603549999999956
11
151.9538059999999859
21
-51.1441340000000011
0
LINE
8
BLACK
6
CONTINUOUS
10
151.9538059999999859
20
-51.1441340000000011
11
151.9538059999999859
21
-51.1058659999999989
0
LINE
8
BLACK
6
CONTINUOUS
10
151.9538059999999859
20
-51.1058659999999989
11
151.9808659999999918
21
-51.0788060000000002
0
LINE
8
BLACK
6
CONTINUOUS
10
151.9808659999999918
20
-51.0788060000000002
11
152.
21
-51.0749999999999957
0
LINE
8
BLACK
6
CONTINUOUS
10
152.
20
-51.0749999999999957
11
153.
21
-51.0749999999999957
0
LINE
8
BLACK
6
CONTINUOUS
10
153.
20
-51.0749999999999957
11
153.0191339999999798
21
-51.0788060000000002
0
LINE
8
BLACK
6
CONTINUOUS
10
152.1207100000000025
20
-51.1749999999999972
11
152.5
21
-51.5542899999999946
0
LINE
8
BLACK
6
CONTINUOUS
10
152.5
20
-51.5542899999999946
11
152.8792899999999975
21
-51.1749999999999972
0
LINE
8
BLACK
6
CONTINUOUS
10
152.8792899999999975
20
-51.1749999999999972
11
152.1207100000000025
21
-51.1749999999999972
0
LINE
8
BLACK
6
CONTINUOUS
10
154.4691339999999968
20
-46.2038060000000002
11
154.4961940000000027
21
-46.2308659999999989
0
LINE
8
BLACK
6
CONTINUOUS
10
154.4961940000000027
20
-46.2308659999999989
11
154.5
21
-46.25
0
LINE
8
BLACK
6
CONTINUOUS
10
154.5
20
-46.25
11
154.5
21
-53.8499999999999943
0
LINE
8
BLACK
6
CONTINUOUS
10
154.5
20
-53.8499999999999943
11
154.4961940000000027
21
-53.8691339999999954
0
LINE
8
BLACK
6
CONTINUOUS
10
154.4961940000000027
20
-53.8691339999999954
11
154.4691339999999968
21
-53.8961939999999942
0
LINE
8
BLACK
6
CONTINUOUS
10
154.4691339999999968
20
-53.8961939999999942
11
154.4499999999999886
21
-53.8999999999999986
0
LINE
8
BLACK
6
CONTINUOUS
10
154.4499999999999886
20
-53.8999999999999986
11
153.75
21
-53.8999999999999986
0
LINE
8
BLACK
6
CONTINUOUS
10
153.75
20
-53.8999999999999986
11
153.7308659999999918
21
-53.8961939999999942
0
LINE
8
BLACK
6
CONTINUOUS
10
153.7308659999999918
20
-53.8961939999999942
11
153.7038059999999859
21
-53.8691339999999954
0
LINE
8
BLACK
6
CONTINUOUS
10
153.7038059999999859
20
-53.8691339999999954
11
153.6999999999999886
21
-53.8499999999999943
0
LINE
8
BLACK
6
CONTINUOUS
10
153.6999999999999886
20
-53.8499999999999943
11
153.6999999999999886
21
-52.2999999999999972
0
LINE
8
BLACK
6
CONTINUOUS
10
153.6999999999999886
20
-52.2999999999999972
11
147.2999999999999829
21
-52.2999999999999972
0
LINE
8
BLACK
6
CONTINUOUS
10
147.2999999999999829
20
-52.2999999999999972
11
147.2999999999999829
21
-53.8499999999999943
0
LINE
8
BLACK
6
CONTINUOUS
10
147.2999999999999829
20
-53.8499999999999943
11
147.2961939999999856
21
-53.8691339999999954
0
LINE
8
BLACK
6
CONTINUOUS
10
147.2961939999999856
20
-53.8691339999999954
11
147.2691339999999798
21
-53.8961939999999942
0
LINE
8
BLACK
6
CONTINUOUS
10
147.2691339999999798
20
-53.8961939999999942
11
147.25
21
-53.8999999999999986
0
LINE
8
BLACK
6
CONTINUOUS
10
147.25
20
-53.8999999999999986
11
146.5499999999999829
21
-53.8999999999999986
0
LINE
8
BLACK
6
CONTINUOUS
10
146.5499999999999829
20
-53.8999999999999986
11
146.5308660000000032
21
-53.8961939999999942
0
LINE
8
BLACK
6
CONTINUOUS
10
146.5308660000000032
20
-53.8961939999999942
11
146.5038059999999973
21
-53.8691339999999954
0
LINE
8
BLACK
6
CONTINUOUS
10
146.5038059999999973
20
-53.8691339999999954
11
146.5
21
-53.8499999999999943
0
LINE
8
BLACK
6
CONTINUOUS
10
146.5
20
-53.8499999999999943
11
146.5
21
-46.25
0
LINE
8
BLACK
6
CONTINUOUS
10
146.5
20
-46.25
11
146.5038059999999973
21
-46.2308659999999989
0
LINE
8
BLACK
6
CONTINUOUS
10
146.5038059999999973
20
-46.2308659999999989
11
146.5308660000000032
21
-46.2038060000000002
0
LINE
8
BLACK
6
CONTINUOUS
10
146.5308660000000032
20
-46.2038060000000002
11
146.5499999999999829
21
-46.1999999999999957
0
LINE
8
BLACK
6
CONTINUOUS
10
146.5499999999999829
20
-46.1999999999999957
11
154.4499999999999886
21
-46.1999999999999957
0
LINE
8
BLACK
6
CONTINUOUS
10
154.4499999999999886
20
-46.1999999999999957
11
154.4691339999999968
21
-46.2038060000000002
0
LINE
8
BLACK
6
CONTINUOUS
10
146.5999999999999943
20
-46.2999999999999972
11
146.5999999999999943
21
-53.7999999999999972
0
LINE
8
BLACK
6
CONTINUOUS
10
146.5999999999999943
20
-53.7999999999999972
11
147.1999999999999886
21
-53.7999999999999972
0
LINE
8
BLACK
6
CONTINUOUS
10
147.1999999999999886
20
-53.7999999999999972
11
147.1999999999999886
21
-52.25
0
LINE
8
BLACK
6
CONTINUOUS
10
147.1999999999999886
20
-52.25
11
147.2038059999999859
21
-52.2308659999999989
0
LINE
8
BLACK
6
CONTINUOUS
10
147.2038059999999859
20
-52.2308659999999989
11
147.2308659999999918
21
-52.2038060000000002
0
LINE
8
BLACK
6
CONTINUOUS
10
147.2308659999999918
20
-52.2038060000000002
11
147.25
21
-52.1999999999999957
0
LINE
8
BLACK
6
CONTINUOUS
10
147.25
20
-52.1999999999999957
11
153.75
21
-52.1999999999999957
0
LINE
8
BLACK
6
CONTINUOUS
10
153.75
20
-52.1999999999999957
11
153.7691339999999798
21
-52.2038060000000002
0
LINE
8
BLACK
6
CONTINUOUS
10
153.7691339999999798
20
-52.2038060000000002
11
153.7961939999999856
21
-52.2308659999999989
0
LINE
8
BLACK
6
CONTINUOUS
10
153.7961939999999856
20
-52.2308659999999989
11
153.7999999999999829
21
-52.25
0
LINE
8
BLACK
6
CONTINUOUS
10
153.7999999999999829
20
-52.25
11
153.7999999999999829
21
-53.7999999999999972
0
LINE
8
BLACK
6
CONTINUOUS
10
153.7999999999999829
20
-53.7999999999999972
11
154.4000000000000057
21
-53.7999999999999972
0
LINE
8
BLACK
6
CONTINUOUS
10
154.4000000000000057
20
-53.7999999999999972
11
154.4000000000000057
21
-46.2999999999999972
0
LINE
8
BLACK
6
CONTINUOUS
10
154.4000000000000057
20
-46.2999999999999972
11
146.5999999999999943
21
-46.2999999999999972
0
CIRCLE
8
BLACK
10
154.5
20
-52.5
40
0.375
0
CIRCLE
8
BLACK
10
152.5
20
-52.5
40
0.375
0
CIRCLE
8
BLACK
10
150.5
20
-52.5
40
0.375
0
CIRCLE
8
BLACK
10
148.5
20
-52.5
40
0.375
0
CIRCLE
8
BLACK
10
146.5
20
-52.5
40
0.375
0
CIRCLE
8
BLACK
10
154.5799999999999841
20
-63.4405000000000001
40
0.4
0
CIRCLE
8
BLACK
10
152.039999999999992
20
-63.4405000000000001
40
0.4
0
CIRCLE
8
BLACK
10
149.5
20
-63.4405000000000001
40
0.4
0
CIRCLE
8
BLACK
10
146.9599999999999795
20
-63.4405000000000001
40
0.4
0
CIRCLE
8
BLACK
10
146.9599999999999795
20
-55.8204999999999956
40
0.4
0
CIRCLE
8
BLACK
10
149.5
20
-55.8204999999999956
40
0.4
0
CIRCLE
8
BLACK
10
152.039999999999992
20
-55.8204999999999956
40
0.4
0
CIRCLE
8
BLACK
10
154.5799999999999841
20
-55.8204999999999956
40
0.4
0
CIRCLE
8
BLACK
10
148.75
20
-68.7667000000000002
40
0.375
0
CIRCLE
8
BLACK
10
150.75
20
-68.7667000000000002
40
0.375
0
CIRCLE
8
BLACK
10
152.75
20
-68.7667000000000002
40
0.375
0
CIRCLE
8
BLACK
10
152.75
20
-66.5999999999999943
40
0.375
0
CIRCLE
8
BLACK
10
150.75
20
-66.5999999999999943
40
0.375
0
CIRCLE
8
BLACK
10
148.75
20
-66.5999999999999943
40
0.375
0
CIRCLE
8
BLACK
10
152.5
20
-52.5
40
0.375
0
CIRCLE
8
BLACK
10
150.5
20
-52.5
40
0.375
0
CIRCLE
8
BLACK
10
148.5
20
-52.5
40
0.375
0
CIRCLE
8
BLACK
10
149.5
20
-49.5
40
0.375
0
CIRCLE
8
BLACK
10
151.5
20
-49.5
40
0.375
0
LINE
8
BLACK
6
CONTINUOUS
10
156.4556379999999933
20
-40.4769030000000001
11
156.4691679999999963
21
-40.4904329999999959
0
LINE
8
BLACK
6
CONTINUOUS
10
156.4691679999999963
20
-40.4904329999999959
11
156.4710709999999949
21
-40.5
0
LINE
8
BLACK
6
CONTINUOUS
10
156.4710709999999949
20
-40.5
11
156.4710709999999949
21
-80.5999999999999943
0
LINE
8
BLACK
6
CONTINUOUS
10
156.4710709999999949
20
-80.5999999999999943
11
156.4691679999999963
21
-80.6095669999999984
0
LINE
8
BLACK
6
CONTINUOUS
10
156.4691679999999963
20
-80.6095669999999984
11
156.4556379999999933
21
-80.6230970000000013
0
LINE
8
BLACK
6
CONTINUOUS
10
156.4556379999999933
20
-80.6230970000000013
11
156.4460709999999892
21
-80.625
0
LINE
8
BLACK
6
CONTINUOUS
10
156.4460709999999892
20
-80.625
11
145.4000000000000057
21
-80.625
0
LINE
8
BLACK
6
CONTINUOUS
10
145.4000000000000057
20
-80.625
11
145.3904330000000016
21
-80.6230970000000013
0
LINE
8
BLACK
6
CONTINUOUS
10
145.3904330000000016
20
-80.6230970000000013
11
145.3769029999999987
21
-80.6095669999999984
0
LINE
8
BLACK
6
CONTINUOUS
10
145.3769029999999987
20
-80.6095669999999984
11
145.375
21
-80.5999999999999943
0
LINE
8
BLACK
6
CONTINUOUS
10
145.375
20
-80.5999999999999943
11
145.375
21
-40.5
0
LINE
8
BLACK
6
CONTINUOUS
10
145.375
20
-40.5
11
145.3769029999999987
21
-40.4904329999999959
0
LINE
8
BLACK
6
CONTINUOUS
10
145.3769029999999987
20
-40.4904329999999959
11
145.3904330000000016
21
-40.4769030000000001
0
LINE
8
BLACK
6
CONTINUOUS
10
145.3904330000000016
20
-40.4769030000000001
11
145.4000000000000057
21
-40.4750000000000014
0
LINE
8
BLACK
6
CONTINUOUS
10
145.4000000000000057
20
-40.4750000000000014
11
156.4460709999999892
21
-40.4750000000000014
0
LINE
8
BLACK
6
CONTINUOUS
10
156.4460709999999892
20
-40.4750000000000014
11
156.4556379999999933
21
-40.4769030000000001
0
LINE
8
BLACK
6
CONTINUOUS
10
145.4249999999999829
20
-40.5249999999999986
11
145.4249999999999829
21
-80.5750000000000028
0
LINE
8
BLACK
6
CONTINUOUS
10
145.4249999999999829
20
-80.5750000000000028
11
156.4210709999999835
21
-80.5750000000000028
0
LINE
8
BLACK
6
CONTINUOUS
10
156.4210709999999835
20
-80.5750000000000028
11
156.4210709999999835
21
-40.5249999999999986
0
LINE
8
BLACK
6
CONTINUOUS
10
156.4210709999999835
20
-40.5249999999999986
11
145.4249999999999829
21
-40.5249999999999986
0
CIRCLE
8
BLACK
10
154.5
20
-52.5
40
0.375
0
CIRCLE
8
BLACK
10
152.5
20
-52.5
40
0.375
0
CIRCLE
8
BLACK
10
150.5
20
-52.5
40
0.375
0
CIRCLE
8
BLACK
10
148.5
20
-52.5
40
0.375
0
CIRCLE
8
BLACK
10
146.5
20
-52.5
40
0.375
0
CIRCLE
8
BLACK
10
154.5799999999999841
20
-63.4405000000000001
40
0.4
0
CIRCLE
8
BLACK
10
152.039999999999992
20
-63.4405000000000001
40
0.4
0
CIRCLE
8
BLACK
10
149.5
20
-63.4405000000000001
40
0.4
0
CIRCLE
8
BLACK
10
146.9599999999999795
20
-63.4405000000000001
40
0.4
0
CIRCLE
8
BLACK
10
146.9599999999999795
20
-55.8204999999999956
40
0.4
0
CIRCLE
8
BLACK
10
149.5
20
-55.8204999999999956
40
0.4
0
CIRCLE
8
BLACK
10
152.039999999999992
20
-55.8204999999999956
40
0.4
0
CIRCLE
8
BLACK
10
154.5799999999999841
20
-55.8204999999999956
40
0.4
0
CIRCLE
8
BLACK
10
148.75
20
-68.7667000000000002
40
0.375
0
CIRCLE
8
BLACK
10
150.75
20
-68.7667000000000002
40
0.375
0
CIRCLE
8
BLACK
10
152.75
20
-68.7667000000000002
40
0.375
0
CIRCLE
8
BLACK
10
152.75
20
-66.5999999999999943
40
0.375
0
CIRCLE
8
BLACK
10
150.75
20
-66.5999999999999943
40
0.375
0
CIRCLE
8
BLACK
10
148.75
20
-66.5999999999999943
40
0.375
0
CIRCLE
8
BLACK
10
152.5
20
-52.5
40
0.375
0
CIRCLE
8
BLACK
10
150.5
20
-52.5
40
0.375
0
CIRCLE
8
BLACK
10
148.5
20
-52.5
40
0.375
0
CIRCLE
8
BLACK
10
149.5
20
-49.5
40
0.375
0
CIRCLE
8
BLACK
10
151.5
20
-49.5
40
0.375
0
CIRCLE
8
WHITE
10
154.5
20
-52.5
40
0.375
0
CIRCLE
8
WHITE
10
152.5
20
-52.5
40
0.375
0
CIRCLE
8
WHITE
10
150.5
20
-52.5
40
0.375
0
CIRCLE
8
WHITE
10
148.5
20
-52.5
40
0.375
0
CIRCLE
8
WHITE
10
146.5
20
-52.5
40
0.375
0
CIRCLE
8
WHITE
10
154.5799999999999841
20
-63.4405000000000001
40
0.4
0
CIRCLE
8
WHITE
10
152.039999999999992
20
-63.4405000000000001
40
0.4
0
CIRCLE
8
WHITE
10
149.5
20
-63.4405000000000001
40
0.4
0
CIRCLE
8
WHITE
10
146.9599999999999795
20
-63.4405000000000001
40
0.4
0
CIRCLE
8
WHITE
10
146.9599999999999795
20
-55.8204999999999956
40
0.4
0
CIRCLE
8
WHITE
10
149.5
20
-55.8204999999999956
40
0.4
0
CIRCLE
8
WHITE
10
152.039999999999992
20
-55.8204999999999956
40
0.4
0
CIRCLE
8
WHITE
10
154.5799999999999841
20
-55.8204999999999956
40
0.4
0
CIRCLE
8
WHITE
10
148.75
20
-68.7667000000000002
40
0.375
0
CIRCLE
8
WHITE
10
150.75
20
-68.7667000000000002
40
0.375
0
CIRCLE
8
WHITE
10
152.75
20
-68.7667000000000002
40
0.375
0
CIRCLE
8
WHITE
10
152.75
20
-66.5999999999999943
40
0.375
0
CIRCLE
8
WHITE
10
150.75
20
-66.5999999999999943
40
0.375
0
CIRCLE
8
WHITE
10
148.75
20
-66.5999999999999943
40
0.375
0
CIRCLE
8
WHITE
10
152.5
20
-52.5
40
0.375
0
CIRCLE
8
WHITE
10
150.5
20
-52.5
40
0.375
0
CIRCLE
8
WHITE
10
148.5
20
-52.5
40
0.375
0
CIRCLE
8
WHITE
10
149.5
20
-49.5
40
0.375
0
CIRCLE
8
WHITE
10
151.5
20
-49.5
40
0.375
  0
ENDSEC
  0
EOF
