  0
SECTION
  2
HEADER
  9
$ANGBASE
  50
0.0
  9
$ANGDIR
  70
1
  9
$MEASUREMENT
  70
1
  0
ENDSEC
  0
SECTION
  2
TABLES
  0
TABLE
  2
LTYPE
  70
4
  0
LTYPE
  5
40F
  2
CONTINUOUS
  70
0
  3
Solid line
  72
65
  73
0
  40
0.0
  0
LTYPE
  5
410
  2
DASHDOT
 70
0
  3
Dash Dot ____ _ ____ _
 72
65
 73
4
 40
2.0
 49
1.25
 49
-0.25
 49
0.25
 49
-0.25
  0
LTYPE
  5
411
  2
DASHED
 70
0
  3
Dashed __ __ __ __ __
 72
65
 73
2
 40
0.75
 49
0.5
 49
-0.25
  0
LTYPE
  5
43B
  2
DOTTED
 70
0
  3
Dotted .  .  .  .
 72
65
 73
2
 40
0.2
 49
0.0
 49
-0.2
  0
ENDTAB
  0
TABLE
  2
STYLE
  70
4
  0
STYLE
  2
KICAD
  70
0
  40
0
  41
1
  42
1
  50
0
  71
0
  3
isocp.shx
  0
STYLE
  2
KICADB
  70
0
  40
0
  41
1
  42
1
  50
0
  71
0
  3
isocp.shx
  0
STYLE
  2
KICADI
  70
0
  40
0
  41
1
  42
1
  50
15
  71
0
  3
isocp.shx
  0
STYLE
  2
KICADBI
  70
0
  40
0
  41
1
  42
1
  50
15
  71
0
  3
isocp.shx
  0
ENDTAB
  0
TABLE
  2
LAYER
  70
1
  0
LAYER
  2
BLACK
  70
0
  62
7
  6
CONTINUOUS
  0
ENDTAB
  0
ENDSEC
  0
SECTION
  2
ENTITIES
0
LINE
8
BLACK
6
CONTINUOUS
10
166.3148049999999785
20
-109.9228359999999896
11
166.3826279999999826
21
-109.96199399999999
0
LINE
8
BLACK
6
CONTINUOUS
10
166.3826279999999826
20
-109.96199399999999
11
166.4380060000000014
21
-110.0173719999999946
0
LINE
8
BLACK
6
CONTINUOUS
10
166.4380060000000014
20
-110.0173719999999946
11
166.4771639999999877
21
-110.0851949999999988
0
LINE
8
BLACK
6
CONTINUOUS
10
166.4771639999999877
20
-110.0851949999999988
11
166.4974330000000009
21
-110.1608419999999882
0
LINE
8
BLACK
6
CONTINUOUS
10
166.4974330000000009
20
-110.1608419999999882
11
166.5
21
-110.1999999999999886
0
LINE
8
BLACK
6
CONTINUOUS
10
166.5
20
-110.1999999999999886
11
166.5
21
-112.7999999999999972
0
LINE
8
BLACK
6
CONTINUOUS
10
166.5
20
-112.7999999999999972
11
166.5
21
-114.7113109999999949
0
LINE
8
BLACK
6
CONTINUOUS
10
166.5
20
-114.7113109999999949
11
166.5652570000000026
21
-114.7489879999999971
0
LINE
8
BLACK
6
CONTINUOUS
10
166.5652570000000026
20
-114.7489879999999971
11
166.6760119999999858
21
-114.8597429999999946
0
LINE
8
BLACK
6
CONTINUOUS
10
166.6760119999999858
20
-114.8597429999999946
11
166.7543279999999868
21
-114.9953900000000004
0
LINE
8
BLACK
6
CONTINUOUS
10
166.7543279999999868
20
-114.9953900000000004
11
166.7948669999999822
21
-115.1466839999999934
0
LINE
8
BLACK
6
CONTINUOUS
10
166.7948669999999822
20
-115.1466839999999934
11
166.7999999999999829
21
-115.2249999999999943
0
LINE
8
BLACK
6
CONTINUOUS
10
166.7999999999999829
20
-115.2249999999999943
11
166.7999999999999829
21
-115.7749999999999915
0
LINE
8
BLACK
6
CONTINUOUS
10
166.7999999999999829
20
-115.7749999999999915
11
166.7948669999999822
21
-115.8533159999999924
0
LINE
8
BLACK
6
CONTINUOUS
10
166.7948669999999822
20
-115.8533159999999924
11
166.7543279999999868
21
-116.0046099999999996
0
LINE
8
BLACK
6
CONTINUOUS
10
166.7543279999999868
20
-116.0046099999999996
11
166.6760119999999858
21
-116.1402569999999912
0
LINE
8
BLACK
6
CONTINUOUS
10
166.6760119999999858
20
-116.1402569999999912
11
166.5652570000000026
21
-116.2510119999999887
0
LINE
8
BLACK
6
CONTINUOUS
10
166.5652570000000026
20
-116.2510119999999887
11
166.4296099999999967
21
-116.3293279999999896
0
LINE
8
BLACK
6
CONTINUOUS
10
166.4296099999999967
20
-116.3293279999999896
11
166.2999999999999829
21
-116.3640559999999908
0
LINE
8
BLACK
6
CONTINUOUS
10
166.2999999999999829
20
-116.3640559999999908
11
166.2999999999999829
21
-122.218868999999998
0
LINE
8
BLACK
6
CONTINUOUS
10
166.2999999999999829
20
-122.218868999999998
11
166.3148049999999785
21
-122.2228360000000009
0
LINE
8
BLACK
6
CONTINUOUS
10
166.3148049999999785
20
-122.2228360000000009
11
166.3826279999999826
21
-122.2619949999999989
0
LINE
8
BLACK
6
CONTINUOUS
10
166.3826279999999826
20
-122.2619949999999989
11
166.438005000000004
21
-122.3173719999999918
0
LINE
8
BLACK
6
CONTINUOUS
10
166.438005000000004
20
-122.3173719999999918
11
166.4771639999999877
21
-122.385194999999996
0
LINE
8
BLACK
6
CONTINUOUS
10
166.4771639999999877
20
-122.385194999999996
11
166.4974330000000009
21
-122.4608419999999995
0
LINE
8
BLACK
6
CONTINUOUS
10
166.4974330000000009
20
-122.4608419999999995
11
166.4974330000000009
21
-122.5391580000000005
0
LINE
8
BLACK
6
CONTINUOUS
10
166.4974330000000009
20
-122.5391580000000005
11
166.4771639999999877
21
-122.6148049999999898
0
LINE
8
BLACK
6
CONTINUOUS
10
166.4771639999999877
20
-122.6148049999999898
11
166.438005000000004
21
-122.682627999999994
0
LINE
8
BLACK
6
CONTINUOUS
10
166.438005000000004
20
-122.682627999999994
11
166.4121319999999855
21
-122.7121319999999969
0
LINE
8
BLACK
6
CONTINUOUS
10
166.4121319999999855
20
-122.7121319999999969
11
163.0761479999999892
21
-126.0481159999999932
0
LINE
8
BLACK
6
CONTINUOUS
10
163.0761479999999892
20
-126.0481159999999932
11
163.0761479999999892
21
-126.0784139999999951
0
LINE
8
BLACK
6
CONTINUOUS
10
163.0761479999999892
20
-126.0784139999999951
11
163.0455519999999865
21
-126.2322279999999921
0
LINE
8
BLACK
6
CONTINUOUS
10
163.0455519999999865
20
-126.2322279999999921
11
163.
21
-126.3421999999999912
0
LINE
8
BLACK
6
CONTINUOUS
10
163.
20
-126.3421999999999912
11
163.
21
-126.7237359999999882
0
LINE
8
BLACK
6
CONTINUOUS
10
163.
20
-126.7237359999999882
11
163.3881319999999846
21
-127.1118680000000012
0
LINE
8
BLACK
6
CONTINUOUS
10
163.3881319999999846
20
-127.1118680000000012
11
163.8121319999999912
21
-127.5358679999999936
0
LINE
8
BLACK
6
CONTINUOUS
10
163.8121319999999912
20
-127.5358679999999936
11
163.8380059999999787
21
-127.5653719999999964
0
LINE
8
BLACK
6
CONTINUOUS
10
163.8380059999999787
20
-127.5653719999999964
11
163.8771639999999934
21
-127.6331950000000006
0
LINE
8
BLACK
6
CONTINUOUS
10
163.8771639999999934
20
-127.6331950000000006
11
163.8974330000000066
21
-127.70884199999999
0
LINE
8
BLACK
6
CONTINUOUS
10
163.8974330000000066
20
-127.70884199999999
11
163.9000000000000057
21
-127.7479999999999905
0
LINE
8
BLACK
6
CONTINUOUS
10
163.9000000000000057
20
-127.7479999999999905
11
163.9000000000000057
21
-128.0499999999999829
0
LINE
8
BLACK
6
CONTINUOUS
10
163.9000000000000057
20
-128.0499999999999829
11
164.4499999999999886
21
-128.0499999999999829
0
LINE
8
BLACK
6
CONTINUOUS
10
164.4499999999999886
20
-128.0499999999999829
11
164.4499999999999886
21
-129.75
0
LINE
8
BLACK
6
CONTINUOUS
10
164.4499999999999886
20
-129.75
11
164.4000000000000057
21
-129.75
0
LINE
8
BLACK
6
CONTINUOUS
10
164.4000000000000057
20
-129.75
11
164.4000000000000057
21
-131.1609090000000037
0
LINE
8
BLACK
6
CONTINUOUS
10
164.4000000000000057
20
-131.1609090000000037
11
164.4133989999999983
21
-131.1932579999999859
0
LINE
8
BLACK
6
CONTINUOUS
10
164.4133989999999983
20
-131.1932579999999859
11
164.4459070000000054
21
-131.3566849999999988
0
LINE
8
BLACK
6
CONTINUOUS
10
164.4459070000000054
20
-131.3566849999999988
11
164.4459070000000054
21
-131.5233149999999966
0
LINE
8
BLACK
6
CONTINUOUS
10
164.4459070000000054
20
-131.5233149999999966
11
164.4133989999999983
21
-131.6867419999999811
0
LINE
8
BLACK
6
CONTINUOUS
10
164.4133989999999983
20
-131.6867419999999811
11
164.4000000000000057
21
-131.7190899999999942
0
LINE
8
BLACK
6
CONTINUOUS
10
164.4000000000000057
20
-131.7190899999999942
11
164.4000000000000057
21
-132.0999999999999943
0
LINE
8
BLACK
6
CONTINUOUS
10
164.4000000000000057
20
-132.0999999999999943
11
164.3809019999999919
21
-132.1587789999999814
0
LINE
8
BLACK
6
CONTINUOUS
10
164.3809019999999919
20
-132.1587789999999814
11
164.3309019999999805
21
-132.1951059999999813
0
LINE
8
BLACK
6
CONTINUOUS
10
164.3309019999999805
20
-132.1951059999999813
11
164.2999999999999829
21
-132.1999999999999886
0
LINE
8
BLACK
6
CONTINUOUS
10
164.2999999999999829
20
-132.1999999999999886
11
163.975658999999979
21
-132.1999999999999886
0
LINE
8
BLACK
6
CONTINUOUS
10
163.975658999999979
20
-132.1999999999999886
11
163.8467420000000061
21
-132.2533990000000017
0
LINE
8
BLACK
6
CONTINUOUS
10
163.8467420000000061
20
-132.2533990000000017
11
163.6833149999999932
21
-132.2859069999999804
0
LINE
8
BLACK
6
CONTINUOUS
10
163.6833149999999932
20
-132.2859069999999804
11
163.5166849999999954
21
-132.2859069999999804
0
LINE
8
BLACK
6
CONTINUOUS
10
163.5166849999999954
20
-132.2859069999999804
11
163.3532579999999825
21
-132.2533990000000017
0
LINE
8
BLACK
6
CONTINUOUS
10
163.3532579999999825
20
-132.2533990000000017
11
163.2243409999999812
21
-132.1999999999999886
0
LINE
8
BLACK
6
CONTINUOUS
10
163.2243409999999812
20
-132.1999999999999886
11
162.3420209999999884
21
-132.1999999999999886
0
LINE
8
BLACK
6
CONTINUOUS
10
162.3420209999999884
20
-132.1999999999999886
11
162.2956709999999987
21
-132.230969999999985
0
LINE
8
BLACK
6
CONTINUOUS
10
162.2956709999999987
20
-132.230969999999985
11
162.1999999999999886
21
-132.25
0
LINE
8
BLACK
6
CONTINUOUS
10
162.1999999999999886
20
-132.25
11
161.
21
-132.25
0
LINE
8
BLACK
6
CONTINUOUS
10
161.
20
-132.25
11
160.9043289999999899
21
-132.230969999999985
0
LINE
8
BLACK
6
CONTINUOUS
10
160.9043289999999899
20
-132.230969999999985
11
160.8232229999999845
21
-132.1767769999999871
0
LINE
8
BLACK
6
CONTINUOUS
10
160.8232229999999845
20
-132.1767769999999871
11
160.7690299999999866
21
-132.0956709999999816
0
LINE
8
BLACK
6
CONTINUOUS
10
160.7690299999999866
20
-132.0956709999999816
11
160.75
21
-132.
0
LINE
8
BLACK
6
CONTINUOUS
10
160.75
20
-132.
11
160.75
21
-130.7999999999999829
0
LINE
8
BLACK
6
CONTINUOUS
10
160.75
20
-130.7999999999999829
11
160.7690299999999866
21
-130.7043290000000013
0
LINE
8
BLACK
6
CONTINUOUS
10
160.7690299999999866
20
-130.7043290000000013
11
160.7999999999999829
21
-130.6579779999999857
0
LINE
8
BLACK
6
CONTINUOUS
10
160.7999999999999829
20
-130.6579779999999857
11
160.7999999999999829
21
-129.6420209999999997
0
LINE
8
BLACK
6
CONTINUOUS
10
160.7999999999999829
20
-129.6420209999999997
11
160.7690299999999866
21
-129.5956709999999816
0
LINE
8
BLACK
6
CONTINUOUS
10
160.7690299999999866
20
-129.5956709999999816
11
160.75
21
-129.5
0
LINE
8
BLACK
6
CONTINUOUS
10
160.75
20
-129.5
11
160.75
21
-128.2999999999999829
0
LINE
8
BLACK
6
CONTINUOUS
10
160.75
20
-128.2999999999999829
11
160.7690299999999866
21
-128.2043290000000013
0
LINE
8
BLACK
6
CONTINUOUS
10
160.7690299999999866
20
-128.2043290000000013
11
160.8232229999999845
21
-128.1232229999999959
0
LINE
8
BLACK
6
CONTINUOUS
10
160.8232229999999845
20
-128.1232229999999959
11
160.9043289999999899
21
-128.0690299999999979
0
LINE
8
BLACK
6
CONTINUOUS
10
160.9043289999999899
20
-128.0690299999999979
11
161.
21
-128.0499999999999829
0
LINE
8
BLACK
6
CONTINUOUS
10
161.
20
-128.0499999999999829
11
162.0257359999999949
21
-128.0499999999999829
0
LINE
8
BLACK
6
CONTINUOUS
10
162.0257359999999949
20
-128.0499999999999829
11
162.751735999999994
21
-127.3239999999999981
0
LINE
8
BLACK
6
CONTINUOUS
10
162.751735999999994
20
-127.3239999999999981
11
162.4878679999999918
21
-127.0601319999999959
0
LINE
8
BLACK
6
CONTINUOUS
10
162.4878679999999918
20
-127.0601319999999959
11
162.4619940000000042
21
-127.030627999999993
0
LINE
8
BLACK
6
CONTINUOUS
10
162.4619940000000042
20
-127.030627999999993
11
162.4228359999999896
21
-126.9628049999999888
0
LINE
8
BLACK
6
CONTINUOUS
10
162.4228359999999896
20
-126.9628049999999888
11
162.4025670000000048
21
-126.8871579999999994
0
LINE
8
BLACK
6
CONTINUOUS
10
162.4025670000000048
20
-126.8871579999999994
11
162.4000000000000057
21
-126.847999999999999
0
LINE
8
BLACK
6
CONTINUOUS
10
162.4000000000000057
20
-126.847999999999999
11
162.4000000000000057
21
-126.7878749999999997
0
LINE
8
BLACK
6
CONTINUOUS
10
162.4000000000000057
20
-126.7878749999999997
11
162.358413999999982
21
-126.7961479999999881
0
LINE
8
BLACK
6
CONTINUOUS
10
162.358413999999982
20
-126.7961479999999881
11
162.2015859999999918
21
-126.7961479999999881
0
LINE
8
BLACK
6
CONTINUOUS
10
162.2015859999999918
20
-126.7961479999999881
11
162.0477719999999806
21
-126.7655519999999996
0
LINE
8
BLACK
6
CONTINUOUS
10
162.0477719999999806
20
-126.7655519999999996
11
161.9028830000000028
21
-126.7055369999999925
0
LINE
8
BLACK
6
CONTINUOUS
10
161.9028830000000028
20
-126.7055369999999925
11
161.772484999999989
21
-126.6184079999999881
0
LINE
8
BLACK
6
CONTINUOUS
10
161.772484999999989
20
-126.6184079999999881
11
161.6615919999999846
21
-126.5075149999999979
0
LINE
8
BLACK
6
CONTINUOUS
10
161.6615919999999846
20
-126.5075149999999979
11
161.5744629999999802
21
-126.3771169999999984
0
LINE
8
BLACK
6
CONTINUOUS
10
161.5744629999999802
20
-126.3771169999999984
11
161.5144479999999874
21
-126.2322279999999921
0
LINE
8
BLACK
6
CONTINUOUS
10
161.5144479999999874
20
-126.2322279999999921
11
161.4838519999999846
21
-126.0784139999999951
0
LINE
8
BLACK
6
CONTINUOUS
10
161.4838519999999846
20
-126.0784139999999951
11
161.4838519999999846
21
-125.9215859999999907
0
LINE
8
BLACK
6
CONTINUOUS
10
161.4838519999999846
20
-125.9215859999999907
11
161.5144479999999874
21
-125.7677719999999937
0
LINE
8
BLACK
6
CONTINUOUS
10
161.5144479999999874
20
-125.7677719999999937
11
161.5744629999999802
21
-125.6228829999999874
0
LINE
8
BLACK
6
CONTINUOUS
10
161.5744629999999802
20
-125.6228829999999874
11
161.6615919999999846
21
-125.4924849999999878
0
LINE
8
BLACK
6
CONTINUOUS
10
161.6615919999999846
20
-125.4924849999999878
11
161.772484999999989
21
-125.3815919999999977
0
LINE
8
BLACK
6
CONTINUOUS
10
161.772484999999989
20
-125.3815919999999977
11
161.9028830000000028
21
-125.2944629999999933
0
LINE
8
BLACK
6
CONTINUOUS
10
161.9028830000000028
20
-125.2944629999999933
11
162.0477719999999806
21
-125.2344480000000004
0
LINE
8
BLACK
6
CONTINUOUS
10
162.0477719999999806
20
-125.2344480000000004
11
162.2015859999999918
21
-125.2038519999999977
0
LINE
8
BLACK
6
CONTINUOUS
10
162.2015859999999918
20
-125.2038519999999977
11
162.358413999999982
21
-125.2038519999999977
0
LINE
8
BLACK
6
CONTINUOUS
10
162.358413999999982
20
-125.2038519999999977
11
162.5122279999999932
21
-125.2344480000000004
0
LINE
8
BLACK
6
CONTINUOUS
10
162.5122279999999932
20
-125.2344480000000004
11
162.6571169999999995
21
-125.2944629999999933
0
LINE
8
BLACK
6
CONTINUOUS
10
162.6571169999999995
20
-125.2944629999999933
11
162.7875149999999849
21
-125.3815919999999977
0
LINE
8
BLACK
6
CONTINUOUS
10
162.7875149999999849
20
-125.3815919999999977
11
162.8408289999999852
21
-125.434905999999998
0
LINE
8
BLACK
6
CONTINUOUS
10
162.8408289999999852
20
-125.434905999999998
11
165.9000000000000057
21
-122.3757359999999892
0
LINE
8
BLACK
6
CONTINUOUS
10
165.9000000000000057
20
-122.3757359999999892
11
165.9000000000000057
21
-116.2886879999999934
0
LINE
8
BLACK
6
CONTINUOUS
10
165.9000000000000057
20
-116.2886879999999934
11
165.8347430000000031
21
-116.2510119999999887
0
LINE
8
BLACK
6
CONTINUOUS
10
165.8347430000000031
20
-116.2510119999999887
11
165.7239879999999914
21
-116.1402569999999912
0
LINE
8
BLACK
6
CONTINUOUS
10
165.7239879999999914
20
-116.1402569999999912
11
165.6456719999999905
21
-116.0046099999999996
0
LINE
8
BLACK
6
CONTINUOUS
10
165.6456719999999905
20
-116.0046099999999996
11
165.605132999999995
21
-115.8533159999999924
0
LINE
8
BLACK
6
CONTINUOUS
10
165.605132999999995
20
-115.8533159999999924
11
165.5999999999999943
21
-115.7749999999999915
0
LINE
8
BLACK
6
CONTINUOUS
10
165.5999999999999943
20
-115.7749999999999915
11
165.5999999999999943
21
-115.2249999999999943
0
LINE
8
BLACK
6
CONTINUOUS
10
165.5999999999999943
20
-115.2249999999999943
11
165.605132999999995
21
-115.1466839999999934
0
LINE
8
BLACK
6
CONTINUOUS
10
165.605132999999995
20
-115.1466839999999934
11
165.6456719999999905
21
-114.9953900000000004
0
LINE
8
BLACK
6
CONTINUOUS
10
165.6456719999999905
20
-114.9953900000000004
11
165.7239879999999914
21
-114.8597429999999946
0
LINE
8
BLACK
6
CONTINUOUS
10
165.7239879999999914
20
-114.8597429999999946
11
165.8347430000000031
21
-114.7489879999999971
0
LINE
8
BLACK
6
CONTINUOUS
10
165.8347430000000031
20
-114.7489879999999971
11
165.9000000000000057
21
-114.7113109999999949
0
LINE
8
BLACK
6
CONTINUOUS
10
165.9000000000000057
20
-114.7113109999999949
11
165.9000000000000057
21
-112.7999999999999972
0
LINE
8
BLACK
6
CONTINUOUS
10
165.9000000000000057
20
-112.7999999999999972
11
165.9000000000000057
21
-110.1999999999999886
0
LINE
8
BLACK
6
CONTINUOUS
10
165.9000000000000057
20
-110.1999999999999886
11
165.9025670000000048
21
-110.1608419999999882
0
LINE
8
BLACK
6
CONTINUOUS
10
165.9025670000000048
20
-110.1608419999999882
11
165.9228359999999896
21
-110.0851949999999988
0
LINE
8
BLACK
6
CONTINUOUS
10
165.9228359999999896
20
-110.0851949999999988
11
165.9619940000000042
21
-110.0173719999999946
0
LINE
8
BLACK
6
CONTINUOUS
10
165.9619940000000042
20
-110.0173719999999946
11
166.0173719999999946
21
-109.96199399999999
0
LINE
8
BLACK
6
CONTINUOUS
10
166.0173719999999946
20
-109.96199399999999
11
166.0851949999999988
21
-109.9228359999999896
0
LINE
8
BLACK
6
CONTINUOUS
10
166.0851949999999988
20
-109.9228359999999896
11
166.1608420000000024
21
-109.9025669999999906
0
LINE
8
BLACK
6
CONTINUOUS
10
166.1608420000000024
20
-109.9025669999999906
11
166.2391580000000033
21
-109.9025669999999906
0
LINE
8
BLACK
6
CONTINUOUS
10
166.2391580000000033
20
-109.9025669999999906
11
166.3148049999999785
21
-109.9228359999999896
0
LINE
8
BLACK
6
CONTINUOUS
10
162.8742639999999824
20
-128.0499999999999829
11
163.2999999999999829
21
-128.0499999999999829
0
LINE
8
BLACK
6
CONTINUOUS
10
163.2999999999999829
20
-128.0499999999999829
11
163.2999999999999829
21
-127.8722640000000013
0
LINE
8
BLACK
6
CONTINUOUS
10
163.2999999999999829
20
-127.8722640000000013
11
163.1759999999999877
21
-127.7482639999999918
0
LINE
8
BLACK
6
CONTINUOUS
10
163.1759999999999877
20
-127.7482639999999918
11
162.8742639999999824
21
-128.0499999999999829
0
LINE
8
BLACK
6
CONTINUOUS
10
166.1111139999999864
20
-123.9337060000000008
11
166.1662939999999935
21
-123.9888859999999937
0
LINE
8
BLACK
6
CONTINUOUS
10
166.1662939999999935
20
-123.9888859999999937
11
166.1961569999999995
21
-124.0609819999999957
0
LINE
8
BLACK
6
CONTINUOUS
10
166.1961569999999995
20
-124.0609819999999957
11
166.1999999999999886
21
-124.0999999999999943
0
LINE
8
BLACK
6
CONTINUOUS
10
166.1999999999999886
20
-124.0999999999999943
11
166.1999999999999886
21
-124.8199999999999932
0
LINE
8
BLACK
6
CONTINUOUS
10
166.1999999999999886
20
-124.8199999999999932
11
166.1961569999999995
21
-124.8590179999999918
0
LINE
8
BLACK
6
CONTINUOUS
10
166.1961569999999995
20
-124.8590179999999918
11
166.1662939999999935
21
-124.9311139999999938
0
LINE
8
BLACK
6
CONTINUOUS
10
166.1662939999999935
20
-124.9311139999999938
11
166.1414209999999798
21
-124.9614210000000014
0
LINE
8
BLACK
6
CONTINUOUS
10
166.1414209999999798
20
-124.9614210000000014
11
165.5072810000000061
21
-125.5955599999999919
0
LINE
8
BLACK
6
CONTINUOUS
10
165.5072810000000061
20
-125.5955599999999919
11
165.5255369999999857
21
-125.6228829999999874
0
LINE
8
BLACK
6
CONTINUOUS
10
165.5255369999999857
20
-125.6228829999999874
11
165.5855519999999785
21
-125.7677719999999937
0
LINE
8
BLACK
6
CONTINUOUS
10
165.5855519999999785
20
-125.7677719999999937
11
165.6161479999999813
21
-125.9215859999999907
0
LINE
8
BLACK
6
CONTINUOUS
10
165.6161479999999813
20
-125.9215859999999907
11
165.6161479999999813
21
-126.0784139999999951
0
LINE
8
BLACK
6
CONTINUOUS
10
165.6161479999999813
20
-126.0784139999999951
11
165.5855519999999785
21
-126.2322279999999921
0
LINE
8
BLACK
6
CONTINUOUS
10
165.5855519999999785
20
-126.2322279999999921
11
165.5255369999999857
21
-126.3771169999999984
0
LINE
8
BLACK
6
CONTINUOUS
10
165.5255369999999857
20
-126.3771169999999984
11
165.4384079999999813
21
-126.5075149999999979
0
LINE
8
BLACK
6
CONTINUOUS
10
165.4384079999999813
20
-126.5075149999999979
11
165.3275150000000053
21
-126.6184079999999881
0
LINE
8
BLACK
6
CONTINUOUS
10
165.3275150000000053
20
-126.6184079999999881
11
165.1971169999999915
21
-126.7055369999999925
0
LINE
8
BLACK
6
CONTINUOUS
10
165.1971169999999915
20
-126.7055369999999925
11
165.0522279999999853
21
-126.7655519999999996
0
LINE
8
BLACK
6
CONTINUOUS
10
165.0522279999999853
20
-126.7655519999999996
11
165.0199999999999818
21
-126.7719619999999878
0
LINE
8
BLACK
6
CONTINUOUS
10
165.0199999999999818
20
-126.7719619999999878
11
165.0199999999999818
21
-127.586197999999996
0
LINE
8
BLACK
6
CONTINUOUS
10
165.0199999999999818
20
-127.586197999999996
11
165.0401070000000061
21
-127.6106989999999968
0
LINE
8
BLACK
6
CONTINUOUS
10
165.0401070000000061
20
-127.6106989999999968
11
165.0699699999999837
21
-127.6827949999999987
0
LINE
8
BLACK
6
CONTINUOUS
10
165.0699699999999837
20
-127.6827949999999987
11
165.0738130000000012
21
-127.7218129999999974
0
LINE
8
BLACK
6
CONTINUOUS
10
165.0738130000000012
20
-127.7218129999999974
11
165.0738130000000012
21
-130.0909709999999961
0
LINE
8
BLACK
6
CONTINUOUS
10
165.0738130000000012
20
-130.0909709999999961
11
165.6996859999999856
21
-130.7168439999999805
0
LINE
8
BLACK
6
CONTINUOUS
10
165.6996859999999856
20
-130.7168439999999805
11
165.7393129999999815
21
-130.6903669999999806
0
LINE
8
BLACK
6
CONTINUOUS
10
165.7393129999999815
20
-130.6903669999999806
11
165.893258000000003
21
-130.6266009999999937
0
LINE
8
BLACK
6
CONTINUOUS
10
165.893258000000003
20
-130.6266009999999937
11
166.0566849999999874
21
-130.5940929999999867
0
LINE
8
BLACK
6
CONTINUOUS
10
166.0566849999999874
20
-130.5940929999999867
11
166.2233149999999853
21
-130.5940929999999867
0
LINE
8
BLACK
6
CONTINUOUS
10
166.2233149999999853
20
-130.5940929999999867
11
166.3867419999999981
21
-130.6266009999999937
0
LINE
8
BLACK
6
CONTINUOUS
10
166.3867419999999981
20
-130.6266009999999937
11
166.5406869999999913
21
-130.6903669999999806
0
LINE
8
BLACK
6
CONTINUOUS
10
166.5406869999999913
20
-130.6903669999999806
11
166.6792339999999797
21
-130.7829409999999939
0
LINE
8
BLACK
6
CONTINUOUS
10
166.6792339999999797
20
-130.7829409999999939
11
166.7970589999999902
21
-130.9007660000000044
0
LINE
8
BLACK
6
CONTINUOUS
10
166.7970589999999902
20
-130.9007660000000044
11
166.8896330000000034
21
-131.0393129999999928
0
LINE
8
BLACK
6
CONTINUOUS
10
166.8896330000000034
20
-131.0393129999999928
11
166.9533989999999903
21
-131.1932579999999859
0
LINE
8
BLACK
6
CONTINUOUS
10
166.9533989999999903
20
-131.1932579999999859
11
166.9859069999999974
21
-131.3566849999999988
0
LINE
8
BLACK
6
CONTINUOUS
10
166.9859069999999974
20
-131.3566849999999988
11
166.9859069999999974
21
-131.5233149999999966
0
LINE
8
BLACK
6
CONTINUOUS
10
166.9859069999999974
20
-131.5233149999999966
11
166.9533989999999903
21
-131.6867419999999811
0
LINE
8
BLACK
6
CONTINUOUS
10
166.9533989999999903
20
-131.6867419999999811
11
166.8896330000000034
21
-131.8406870000000026
0
LINE
8
BLACK
6
CONTINUOUS
10
166.8896330000000034
20
-131.8406870000000026
11
166.7970589999999902
21
-131.9792339999999911
0
LINE
8
BLACK
6
CONTINUOUS
10
166.7970589999999902
20
-131.9792339999999911
11
166.6792339999999797
21
-132.0970590000000016
0
LINE
8
BLACK
6
CONTINUOUS
10
166.6792339999999797
20
-132.0970590000000016
11
166.5406869999999913
21
-132.1896329999999864
0
LINE
8
BLACK
6
CONTINUOUS
10
166.5406869999999913
20
-132.1896329999999864
11
166.3867419999999981
21
-132.2533990000000017
0
LINE
8
BLACK
6
CONTINUOUS
10
166.3867419999999981
20
-132.2533990000000017
11
166.2233149999999853
21
-132.2859069999999804
0
LINE
8
BLACK
6
CONTINUOUS
10
166.2233149999999853
20
-132.2859069999999804
11
166.0566849999999874
21
-132.2859069999999804
0
LINE
8
BLACK
6
CONTINUOUS
10
166.0566849999999874
20
-132.2859069999999804
11
165.893258000000003
21
-132.2533990000000017
0
LINE
8
BLACK
6
CONTINUOUS
10
165.893258000000003
20
-132.2533990000000017
11
165.7393129999999815
21
-132.1896329999999864
0
LINE
8
BLACK
6
CONTINUOUS
10
165.7393129999999815
20
-132.1896329999999864
11
165.600765999999993
21
-132.0970590000000016
0
LINE
8
BLACK
6
CONTINUOUS
10
165.600765999999993
20
-132.0970590000000016
11
165.4829409999999825
21
-131.9792339999999911
0
LINE
8
BLACK
6
CONTINUOUS
10
165.4829409999999825
20
-131.9792339999999911
11
165.3903669999999977
21
-131.8406870000000026
0
LINE
8
BLACK
6
CONTINUOUS
10
165.3903669999999977
20
-131.8406870000000026
11
165.3266009999999824
21
-131.6867419999999811
0
LINE
8
BLACK
6
CONTINUOUS
10
165.3266009999999824
20
-131.6867419999999811
11
165.2940930000000037
21
-131.5233149999999966
0
LINE
8
BLACK
6
CONTINUOUS
10
165.2940930000000037
20
-131.5233149999999966
11
165.2940930000000037
21
-131.3566849999999988
0
LINE
8
BLACK
6
CONTINUOUS
10
165.2940930000000037
20
-131.3566849999999988
11
165.3266009999999824
21
-131.1932579999999859
0
LINE
8
BLACK
6
CONTINUOUS
10
165.3266009999999824
20
-131.1932579999999859
11
165.3903669999999977
21
-131.0393129999999928
0
LINE
8
BLACK
6
CONTINUOUS
10
165.3903669999999977
20
-131.0393129999999928
11
165.4168439999999975
21
-130.999685999999997
0
LINE
8
BLACK
6
CONTINUOUS
10
165.4168439999999975
20
-130.999685999999997
11
164.7323920000000044
21
-130.3152340000000038
0
LINE
8
BLACK
6
CONTINUOUS
10
164.7323920000000044
20
-130.3152340000000038
11
164.7075189999999907
21
-130.2849269999999819
0
LINE
8
BLACK
6
CONTINUOUS
10
164.7075189999999907
20
-130.2849269999999819
11
164.6776559999999847
21
-130.2128309999999942
0
LINE
8
BLACK
6
CONTINUOUS
10
164.6776559999999847
20
-130.2128309999999942
11
164.6738129999999956
21
-130.1738129999999956
0
LINE
8
BLACK
6
CONTINUOUS
10
164.6738129999999956
20
-130.1738129999999956
11
164.6738129999999956
21
-127.8052209999999889
0
LINE
8
BLACK
6
CONTINUOUS
10
164.6738129999999956
20
-127.8052209999999889
11
164.6537059999999997
21
-127.785113999999993
0
LINE
8
BLACK
6
CONTINUOUS
10
164.6537059999999997
20
-127.785113999999993
11
164.6238429999999937
21
-127.713017999999991
0
LINE
8
BLACK
6
CONTINUOUS
10
164.6238429999999937
20
-127.713017999999991
11
164.6200000000000045
21
-127.6739999999999924
0
LINE
8
BLACK
6
CONTINUOUS
10
164.6200000000000045
20
-127.6739999999999924
11
164.6200000000000045
21
-126.7719619999999878
0
LINE
8
BLACK
6
CONTINUOUS
10
164.6200000000000045
20
-126.7719619999999878
11
164.5877720000000011
21
-126.7655519999999996
0
LINE
8
BLACK
6
CONTINUOUS
10
164.5877720000000011
20
-126.7655519999999996
11
164.4428829999999948
21
-126.7055369999999925
0
LINE
8
BLACK
6
CONTINUOUS
10
164.4428829999999948
20
-126.7055369999999925
11
164.312484999999981
21
-126.6184079999999881
0
LINE
8
BLACK
6
CONTINUOUS
10
164.312484999999981
20
-126.6184079999999881
11
164.2015920000000051
21
-126.5075149999999979
0
LINE
8
BLACK
6
CONTINUOUS
10
164.2015920000000051
20
-126.5075149999999979
11
164.1144630000000006
21
-126.3771169999999984
0
LINE
8
BLACK
6
CONTINUOUS
10
164.1144630000000006
20
-126.3771169999999984
11
164.0544479999999794
21
-126.2322279999999921
0
LINE
8
BLACK
6
CONTINUOUS
10
164.0544479999999794
20
-126.2322279999999921
11
164.0238520000000051
21
-126.0784139999999951
0
LINE
8
BLACK
6
CONTINUOUS
10
164.0238520000000051
20
-126.0784139999999951
11
164.0238520000000051
21
-125.9215859999999907
0
LINE
8
BLACK
6
CONTINUOUS
10
164.0238520000000051
20
-125.9215859999999907
11
164.0544479999999794
21
-125.7677719999999937
0
LINE
8
BLACK
6
CONTINUOUS
10
164.0544479999999794
20
-125.7677719999999937
11
164.1144630000000006
21
-125.6228829999999874
0
LINE
8
BLACK
6
CONTINUOUS
10
164.1144630000000006
20
-125.6228829999999874
11
164.2015920000000051
21
-125.4924849999999878
0
LINE
8
BLACK
6
CONTINUOUS
10
164.2015920000000051
20
-125.4924849999999878
11
164.312484999999981
21
-125.3815919999999977
0
LINE
8
BLACK
6
CONTINUOUS
10
164.312484999999981
20
-125.3815919999999977
11
164.4428829999999948
21
-125.2944629999999933
0
LINE
8
BLACK
6
CONTINUOUS
10
164.4428829999999948
20
-125.2944629999999933
11
164.5877720000000011
21
-125.2344480000000004
0
LINE
8
BLACK
6
CONTINUOUS
10
164.5877720000000011
20
-125.2344480000000004
11
164.7415859999999839
21
-125.2038519999999977
0
LINE
8
BLACK
6
CONTINUOUS
10
164.7415859999999839
20
-125.2038519999999977
11
164.8984140000000025
21
-125.2038519999999977
0
LINE
8
BLACK
6
CONTINUOUS
10
164.8984140000000025
20
-125.2038519999999977
11
165.0522279999999853
21
-125.2344480000000004
0
LINE
8
BLACK
6
CONTINUOUS
10
165.0522279999999853
20
-125.2344480000000004
11
165.1971169999999915
21
-125.2944629999999933
0
LINE
8
BLACK
6
CONTINUOUS
10
165.1971169999999915
20
-125.2944629999999933
11
165.2244389999999896
21
-125.3127179999999896
0
LINE
8
BLACK
6
CONTINUOUS
10
165.2244389999999896
20
-125.3127179999999896
11
165.7999999999999829
21
-124.7371579999999938
0
LINE
8
BLACK
6
CONTINUOUS
10
165.7999999999999829
20
-124.7371579999999938
11
165.7999999999999829
21
-124.0999999999999943
0
LINE
8
BLACK
6
CONTINUOUS
10
165.7999999999999829
20
-124.0999999999999943
11
165.8038430000000005
21
-124.0609819999999957
0
LINE
8
BLACK
6
CONTINUOUS
10
165.8038430000000005
20
-124.0609819999999957
11
165.8337060000000065
21
-123.9888859999999937
0
LINE
8
BLACK
6
CONTINUOUS
10
165.8337060000000065
20
-123.9888859999999937
11
165.8888859999999852
21
-123.9337060000000008
0
LINE
8
BLACK
6
CONTINUOUS
10
165.8888859999999852
20
-123.9337060000000008
11
165.9609820000000013
21
-123.9038429999999948
0
LINE
8
BLACK
6
CONTINUOUS
10
165.9609820000000013
20
-123.9038429999999948
11
166.0390179999999987
21
-123.9038429999999948
0
LINE
8
BLACK
6
CONTINUOUS
10
166.0390179999999987
20
-123.9038429999999948
11
166.1111139999999864
21
-123.9337060000000008
0
LINE
8
BLACK
6
CONTINUOUS
10
168.3148049999999785
20
-110.0228359999999981
11
168.3826279999999826
21
-110.0619939999999986
0
LINE
8
BLACK
6
CONTINUOUS
10
168.3826279999999826
20
-110.0619939999999986
11
168.4380060000000014
21
-110.1173719999999889
0
LINE
8
BLACK
6
CONTINUOUS
10
168.4380060000000014
20
-110.1173719999999889
11
168.4771639999999877
21
-110.1851949999999931
0
LINE
8
BLACK
6
CONTINUOUS
10
168.4771639999999877
20
-110.1851949999999931
11
168.4974330000000009
21
-110.2608419999999967
0
LINE
8
BLACK
6
CONTINUOUS
10
168.4974330000000009
20
-110.2608419999999967
11
168.5
21
-110.2999999999999972
0
LINE
8
BLACK
6
CONTINUOUS
10
168.5
20
-110.2999999999999972
11
168.5
21
-112.7999999999999972
0
LINE
8
BLACK
6
CONTINUOUS
10
168.5
20
-112.7999999999999972
11
168.5
21
-114.7113109999999949
0
LINE
8
BLACK
6
CONTINUOUS
10
168.5
20
-114.7113109999999949
11
168.5652570000000026
21
-114.7489879999999971
0
LINE
8
BLACK
6
CONTINUOUS
10
168.5652570000000026
20
-114.7489879999999971
11
168.6760119999999858
21
-114.8597429999999946
0
LINE
8
BLACK
6
CONTINUOUS
10
168.6760119999999858
20
-114.8597429999999946
11
168.7543279999999868
21
-114.9953900000000004
0
LINE
8
BLACK
6
CONTINUOUS
10
168.7543279999999868
20
-114.9953900000000004
11
168.7948669999999822
21
-115.1466839999999934
0
LINE
8
BLACK
6
CONTINUOUS
10
168.7948669999999822
20
-115.1466839999999934
11
168.7999999999999829
21
-115.2249999999999943
0
LINE
8
BLACK
6
CONTINUOUS
10
168.7999999999999829
20
-115.2249999999999943
11
168.7999999999999829
21
-115.6757360000000006
0
LINE
8
BLACK
6
CONTINUOUS
10
168.7999999999999829
20
-115.6757360000000006
11
169.3141320000000007
21
-116.1898679999999899
0
LINE
8
BLACK
6
CONTINUOUS
10
169.3141320000000007
20
-116.1898679999999899
11
169.3400059999999883
21
-116.2193719999999928
0
LINE
8
BLACK
6
CONTINUOUS
10
169.3400059999999883
20
-116.2193719999999928
11
169.3791640000000029
21
-116.287194999999997
0
LINE
8
BLACK
6
CONTINUOUS
10
169.3791640000000029
20
-116.287194999999997
11
169.3994329999999877
21
-116.3628420000000006
0
LINE
8
BLACK
6
CONTINUOUS
10
169.3994329999999877
20
-116.3628420000000006
11
169.4019999999999868
21
-116.402000000000001
0
LINE
8
BLACK
6
CONTINUOUS
10
169.4019999999999868
20
-116.402000000000001
11
169.4019999999999868
21
-117.457735999999997
0
LINE
8
BLACK
6
CONTINUOUS
10
169.4019999999999868
20
-117.457735999999997
11
169.5906540000000007
21
-117.6463899999999967
0
LINE
8
BLACK
6
CONTINUOUS
10
169.5906540000000007
20
-117.6463899999999967
11
169.6677719999999852
21
-117.6144479999999959
0
LINE
8
BLACK
6
CONTINUOUS
10
169.6677719999999852
20
-117.6144479999999959
11
169.8215859999999964
21
-117.5838519999999932
0
LINE
8
BLACK
6
CONTINUOUS
10
169.8215859999999964
20
-117.5838519999999932
11
169.9784139999999866
21
-117.5838519999999932
0
LINE
8
BLACK
6
CONTINUOUS
10
169.9784139999999866
20
-117.5838519999999932
11
170.1322279999999978
21
-117.6144479999999959
0
LINE
8
BLACK
6
CONTINUOUS
10
170.1322279999999978
20
-117.6144479999999959
11
170.2771170000000041
21
-117.6744629999999887
0
LINE
8
BLACK
6
CONTINUOUS
10
170.2771170000000041
20
-117.6744629999999887
11
170.4075149999999894
21
-117.7615919999999932
0
LINE
8
BLACK
6
CONTINUOUS
10
170.4075149999999894
20
-117.7615919999999932
11
170.5184079999999938
21
-117.8724849999999975
0
LINE
8
BLACK
6
CONTINUOUS
10
170.5184079999999938
20
-117.8724849999999975
11
170.6055369999999982
21
-118.0028829999999971
0
LINE
8
BLACK
6
CONTINUOUS
10
170.6055369999999982
20
-118.0028829999999971
11
170.665551999999991
21
-118.1477719999999891
0
LINE
8
BLACK
6
CONTINUOUS
10
170.665551999999991
20
-118.1477719999999891
11
170.6961479999999938
21
-118.3015860000000004
0
LINE
8
BLACK
6
CONTINUOUS
10
170.6961479999999938
20
-118.3015860000000004
11
170.6961479999999938
21
-118.4584139999999906
0
LINE
8
BLACK
6
CONTINUOUS
10
170.6961479999999938
20
-118.4584139999999906
11
170.665551999999991
21
-118.6122279999999876
0
LINE
8
BLACK
6
CONTINUOUS
10
170.665551999999991
20
-118.6122279999999876
11
170.6055369999999982
21
-118.7571169999999938
0
LINE
8
BLACK
6
CONTINUOUS
10
170.6055369999999982
20
-118.7571169999999938
11
170.5184079999999938
21
-118.8875149999999934
0
LINE
8
BLACK
6
CONTINUOUS
10
170.5184079999999938
20
-118.8875149999999934
11
170.4075149999999894
21
-118.9984079999999977
0
LINE
8
BLACK
6
CONTINUOUS
10
170.4075149999999894
20
-118.9984079999999977
11
170.2771170000000041
21
-119.085536999999988
0
LINE
8
BLACK
6
CONTINUOUS
10
170.2771170000000041
20
-119.085536999999988
11
170.1322279999999978
21
-119.145551999999995
0
LINE
8
BLACK
6
CONTINUOUS
10
170.1322279999999978
20
-119.145551999999995
11
169.9784139999999866
21
-119.1761479999999978
0
LINE
8
BLACK
6
CONTINUOUS
10
169.9784139999999866
20
-119.1761479999999978
11
169.8215859999999964
21
-119.1761479999999978
0
LINE
8
BLACK
6
CONTINUOUS
10
169.8215859999999964
20
-119.1761479999999978
11
169.6677719999999852
21
-119.145551999999995
0
LINE
8
BLACK
6
CONTINUOUS
10
169.6677719999999852
20
-119.145551999999995
11
169.5906540000000007
21
-119.1136089999999967
0
LINE
8
BLACK
6
CONTINUOUS
10
169.5906540000000007
20
-119.1136089999999967
11
168.9831319999999835
21
-119.7211319999999972
0
LINE
8
BLACK
6
CONTINUOUS
10
168.9831319999999835
20
-119.7211319999999972
11
168.9536279999999806
21
-119.7470059999999989
0
LINE
8
BLACK
6
CONTINUOUS
10
168.9536279999999806
20
-119.7470059999999989
11
168.8858050000000048
21
-119.7861639999999994
0
LINE
8
BLACK
6
CONTINUOUS
10
168.8858050000000048
20
-119.7861639999999994
11
168.8101580000000013
21
-119.8064329999999984
0
LINE
8
BLACK
6
CONTINUOUS
10
168.8101580000000013
20
-119.8064329999999984
11
168.7999999999999829
21
-119.8064329999999984
0
LINE
8
BLACK
6
CONTINUOUS
10
168.7999999999999829
20
-119.8064329999999984
11
168.7999999999999829
21
-128.0613899999999887
0
LINE
8
BLACK
6
CONTINUOUS
10
168.7999999999999829
20
-128.0613899999999887
11
168.9267419999999902
21
-128.0866010000000017
0
LINE
8
BLACK
6
CONTINUOUS
10
168.9267419999999902
20
-128.0866010000000017
11
168.9590900000000033
21
-128.0999999999999943
0
LINE
8
BLACK
6
CONTINUOUS
10
168.9590900000000033
20
-128.0999999999999943
11
169.8579790000000003
21
-128.0999999999999943
0
LINE
8
BLACK
6
CONTINUOUS
10
169.8579790000000003
20
-128.0999999999999943
11
169.9043289999999899
21
-128.0690299999999979
0
LINE
8
BLACK
6
CONTINUOUS
10
169.9043289999999899
20
-128.0690299999999979
11
170.
21
-128.0499999999999829
0
LINE
8
BLACK
6
CONTINUOUS
10
170.
20
-128.0499999999999829
11
171.1999999999999886
21
-128.0499999999999829
0
LINE
8
BLACK
6
CONTINUOUS
10
171.1999999999999886
20
-128.0499999999999829
11
171.2956709999999987
21
-128.0690299999999979
0
LINE
8
BLACK
6
CONTINUOUS
10
171.2956709999999987
20
-128.0690299999999979
11
171.3767770000000041
21
-128.1232229999999959
0
LINE
8
BLACK
6
CONTINUOUS
10
171.3767770000000041
20
-128.1232229999999959
11
171.4309700000000021
21
-128.2043290000000013
0
LINE
8
BLACK
6
CONTINUOUS
10
171.4309700000000021
20
-128.2043290000000013
11
171.4499999999999886
21
-128.2999999999999829
0
LINE
8
BLACK
6
CONTINUOUS
10
171.4499999999999886
20
-128.2999999999999829
11
171.4499999999999886
21
-129.5
0
LINE
8
BLACK
6
CONTINUOUS
10
171.4499999999999886
20
-129.5
11
171.4309700000000021
21
-129.5956709999999816
0
LINE
8
BLACK
6
CONTINUOUS
10
171.4309700000000021
20
-129.5956709999999816
11
171.4000000000000057
21
-129.6420209999999997
0
LINE
8
BLACK
6
CONTINUOUS
10
171.4000000000000057
20
-129.6420209999999997
11
171.4000000000000057
21
-130.6579779999999857
0
LINE
8
BLACK
6
CONTINUOUS
10
171.4000000000000057
20
-130.6579779999999857
11
171.4309700000000021
21
-130.7043290000000013
0
LINE
8
BLACK
6
CONTINUOUS
10
171.4309700000000021
20
-130.7043290000000013
11
171.4499999999999886
21
-130.7999999999999829
0
LINE
8
BLACK
6
CONTINUOUS
10
171.4499999999999886
20
-130.7999999999999829
11
171.4499999999999886
21
-132.
0
LINE
8
BLACK
6
CONTINUOUS
10
171.4499999999999886
20
-132.
11
171.4309700000000021
21
-132.0956709999999816
0
LINE
8
BLACK
6
CONTINUOUS
10
171.4309700000000021
20
-132.0956709999999816
11
171.3767770000000041
21
-132.1767769999999871
0
LINE
8
BLACK
6
CONTINUOUS
10
171.3767770000000041
20
-132.1767769999999871
11
171.2956709999999987
21
-132.230969999999985
0
LINE
8
BLACK
6
CONTINUOUS
10
171.2956709999999987
20
-132.230969999999985
11
171.1999999999999886
21
-132.25
0
LINE
8
BLACK
6
CONTINUOUS
10
171.1999999999999886
20
-132.25
11
170.
21
-132.25
0
LINE
8
BLACK
6
CONTINUOUS
10
170.
20
-132.25
11
169.9043289999999899
21
-132.230969999999985
0
LINE
8
BLACK
6
CONTINUOUS
10
169.9043289999999899
20
-132.230969999999985
11
169.8579790000000003
21
-132.1999999999999886
0
LINE
8
BLACK
6
CONTINUOUS
10
169.8579790000000003
20
-132.1999999999999886
11
169.0556589999999915
21
-132.1999999999999886
0
LINE
8
BLACK
6
CONTINUOUS
10
169.0556589999999915
20
-132.1999999999999886
11
168.9267419999999902
21
-132.2533990000000017
0
LINE
8
BLACK
6
CONTINUOUS
10
168.9267419999999902
20
-132.2533990000000017
11
168.7633150000000057
21
-132.2859069999999804
0
LINE
8
BLACK
6
CONTINUOUS
10
168.7633150000000057
20
-132.2859069999999804
11
168.5966849999999795
21
-132.2859069999999804
0
LINE
8
BLACK
6
CONTINUOUS
10
168.5966849999999795
20
-132.2859069999999804
11
168.433257999999995
21
-132.2533990000000017
0
LINE
8
BLACK
6
CONTINUOUS
10
168.433257999999995
20
-132.2533990000000017
11
168.3043409999999938
21
-132.1999999999999886
0
LINE
8
BLACK
6
CONTINUOUS
10
168.3043409999999938
20
-132.1999999999999886
11
168.
21
-132.1999999999999886
0
LINE
8
BLACK
6
CONTINUOUS
10
168.
20
-132.1999999999999886
11
167.9412209999999845
21
-132.1809020000000032
0
LINE
8
BLACK
6
CONTINUOUS
10
167.9412209999999845
20
-132.1809020000000032
11
167.9048939999999845
21
-132.1309019999999919
0
LINE
8
BLACK
6
CONTINUOUS
10
167.9048939999999845
20
-132.1309019999999919
11
167.9000000000000057
21
-132.0999999999999943
0
LINE
8
BLACK
6
CONTINUOUS
10
167.9000000000000057
20
-132.0999999999999943
11
167.9000000000000057
21
-131.7673739999999896
0
LINE
8
BLACK
6
CONTINUOUS
10
167.9000000000000057
20
-131.7673739999999896
11
167.8666010000000028
21
-131.6867419999999811
0
LINE
8
BLACK
6
CONTINUOUS
10
167.8666010000000028
20
-131.6867419999999811
11
167.8340929999999958
21
-131.5233149999999966
0
LINE
8
BLACK
6
CONTINUOUS
10
167.8340929999999958
20
-131.5233149999999966
11
167.8340929999999958
21
-131.3566849999999988
0
LINE
8
BLACK
6
CONTINUOUS
10
167.8340929999999958
20
-131.3566849999999988
11
167.8666010000000028
21
-131.1932579999999859
0
LINE
8
BLACK
6
CONTINUOUS
10
167.8666010000000028
20
-131.1932579999999859
11
167.9000000000000057
21
-131.11262499999998
0
LINE
8
BLACK
6
CONTINUOUS
10
167.9000000000000057
20
-131.11262499999998
11
167.9000000000000057
21
-129.2273739999999975
0
LINE
8
BLACK
6
CONTINUOUS
10
167.9000000000000057
20
-129.2273739999999975
11
167.8666010000000028
21
-129.146741999999989
0
LINE
8
BLACK
6
CONTINUOUS
10
167.8666010000000028
20
-129.146741999999989
11
167.8340929999999958
21
-128.9833150000000046
0
LINE
8
BLACK
6
CONTINUOUS
10
167.8340929999999958
20
-128.9833150000000046
11
167.8340929999999958
21
-128.8166850000000068
0
LINE
8
BLACK
6
CONTINUOUS
10
167.8340929999999958
20
-128.8166850000000068
11
167.8666010000000028
21
-128.6532579999999939
0
LINE
8
BLACK
6
CONTINUOUS
10
167.8666010000000028
20
-128.6532579999999939
11
167.9000000000000057
21
-128.5726249999999879
0
LINE
8
BLACK
6
CONTINUOUS
10
167.9000000000000057
20
-128.5726249999999879
11
167.9000000000000057
21
-128.1999999999999886
0
LINE
8
BLACK
6
CONTINUOUS
10
167.9000000000000057
20
-128.1999999999999886
11
167.9190979999999911
21
-128.1412210000000016
0
LINE
8
BLACK
6
CONTINUOUS
10
167.9190979999999911
20
-128.1412210000000016
11
167.9690980000000025
21
-128.1048940000000016
0
LINE
8
BLACK
6
CONTINUOUS
10
167.9690980000000025
20
-128.1048940000000016
11
168.
21
-128.0999999999999943
0
LINE
8
BLACK
6
CONTINUOUS
10
168.
20
-128.0999999999999943
11
168.4000000000000057
21
-128.0999999999999943
0
LINE
8
BLACK
6
CONTINUOUS
10
168.4000000000000057
20
-128.0999999999999943
11
168.4000000000000057
21
-119.5
0
LINE
8
BLACK
6
CONTINUOUS
10
168.4000000000000057
20
-119.5
11
168.4038429999999948
21
-119.4609820000000013
0
LINE
8
BLACK
6
CONTINUOUS
10
168.4038429999999948
20
-119.4609820000000013
11
168.4337060000000008
21
-119.3888859999999994
0
LINE
8
BLACK
6
CONTINUOUS
10
168.4337060000000008
20
-119.3888859999999994
11
168.4888859999999795
21
-119.3337059999999923
0
LINE
8
BLACK
6
CONTINUOUS
10
168.4888859999999795
20
-119.3337059999999923
11
168.5480550000000051
21
-119.3091969999999975
0
LINE
8
BLACK
6
CONTINUOUS
10
168.5480550000000051
20
-119.3091969999999975
11
168.5588679999999897
21
-119.2968679999999893
0
LINE
8
BLACK
6
CONTINUOUS
10
168.5588679999999897
20
-119.2968679999999893
11
169.1663899999999785
21
-118.6893449999999888
0
LINE
8
BLACK
6
CONTINUOUS
10
169.1663899999999785
20
-118.6893449999999888
11
169.1344479999999919
21
-118.6122279999999876
0
LINE
8
BLACK
6
CONTINUOUS
10
169.1344479999999919
20
-118.6122279999999876
11
169.1038519999999892
21
-118.4584139999999906
0
LINE
8
BLACK
6
CONTINUOUS
10
169.1038519999999892
20
-118.4584139999999906
11
169.1038519999999892
21
-118.3015860000000004
0
LINE
8
BLACK
6
CONTINUOUS
10
169.1038519999999892
20
-118.3015860000000004
11
169.1344479999999919
21
-118.1477719999999891
0
LINE
8
BLACK
6
CONTINUOUS
10
169.1344479999999919
20
-118.1477719999999891
11
169.1663899999999785
21
-118.0706539999999904
0
LINE
8
BLACK
6
CONTINUOUS
10
169.1663899999999785
20
-118.0706539999999904
11
168.8898679999999786
21
-117.7941319999999905
0
LINE
8
BLACK
6
CONTINUOUS
10
168.8898679999999786
20
-117.7941319999999905
11
168.863993999999991
21
-117.7646279999999877
0
LINE
8
BLACK
6
CONTINUOUS
10
168.863993999999991
20
-117.7646279999999877
11
168.8248360000000048
21
-117.6968049999999977
0
LINE
8
BLACK
6
CONTINUOUS
10
168.8248360000000048
20
-117.6968049999999977
11
168.8045669999999916
21
-117.6211579999999941
0
LINE
8
BLACK
6
CONTINUOUS
10
168.8045669999999916
20
-117.6211579999999941
11
168.8019999999999925
21
-117.5819999999999936
0
LINE
8
BLACK
6
CONTINUOUS
10
168.8019999999999925
20
-117.5819999999999936
11
168.8019999999999925
21
-116.5262639999999976
0
LINE
8
BLACK
6
CONTINUOUS
10
168.8019999999999925
20
-116.5262639999999976
11
168.5408429999999953
21
-116.2651070000000004
0
LINE
8
BLACK
6
CONTINUOUS
10
168.5408429999999953
20
-116.2651070000000004
11
168.4296099999999967
21
-116.3293279999999896
0
LINE
8
BLACK
6
CONTINUOUS
10
168.4296099999999967
20
-116.3293279999999896
11
168.2783159999999896
21
-116.3698669999999993
0
LINE
8
BLACK
6
CONTINUOUS
10
168.2783159999999896
20
-116.3698669999999993
11
168.1216839999999877
21
-116.3698669999999993
0
LINE
8
BLACK
6
CONTINUOUS
10
168.1216839999999877
20
-116.3698669999999993
11
167.9703899999999805
21
-116.3293279999999896
0
LINE
8
BLACK
6
CONTINUOUS
10
167.9703899999999805
20
-116.3293279999999896
11
167.8347430000000031
21
-116.2510119999999887
0
LINE
8
BLACK
6
CONTINUOUS
10
167.8347430000000031
20
-116.2510119999999887
11
167.7239879999999914
21
-116.1402569999999912
0
LINE
8
BLACK
6
CONTINUOUS
10
167.7239879999999914
20
-116.1402569999999912
11
167.6456719999999905
21
-116.0046099999999996
0
LINE
8
BLACK
6
CONTINUOUS
10
167.6456719999999905
20
-116.0046099999999996
11
167.605132999999995
21
-115.8533159999999924
0
LINE
8
BLACK
6
CONTINUOUS
10
167.605132999999995
20
-115.8533159999999924
11
167.5999999999999943
21
-115.7749999999999915
0
LINE
8
BLACK
6
CONTINUOUS
10
167.5999999999999943
20
-115.7749999999999915
11
167.5999999999999943
21
-115.2249999999999943
0
LINE
8
BLACK
6
CONTINUOUS
10
167.5999999999999943
20
-115.2249999999999943
11
167.605132999999995
21
-115.1466839999999934
0
LINE
8
BLACK
6
CONTINUOUS
10
167.605132999999995
20
-115.1466839999999934
11
167.6456719999999905
21
-114.9953900000000004
0
LINE
8
BLACK
6
CONTINUOUS
10
167.6456719999999905
20
-114.9953900000000004
11
167.7239879999999914
21
-114.8597429999999946
0
LINE
8
BLACK
6
CONTINUOUS
10
167.7239879999999914
20
-114.8597429999999946
11
167.8347430000000031
21
-114.7489879999999971
0
LINE
8
BLACK
6
CONTINUOUS
10
167.8347430000000031
20
-114.7489879999999971
11
167.9000000000000057
21
-114.7113109999999949
0
LINE
8
BLACK
6
CONTINUOUS
10
167.9000000000000057
20
-114.7113109999999949
11
167.9000000000000057
21
-112.7999999999999972
0
LINE
8
BLACK
6
CONTINUOUS
10
167.9000000000000057
20
-112.7999999999999972
11
167.9000000000000057
21
-110.2999999999999972
0
LINE
8
BLACK
6
CONTINUOUS
10
167.9000000000000057
20
-110.2999999999999972
11
167.9025670000000048
21
-110.2608419999999967
0
LINE
8
BLACK
6
CONTINUOUS
10
167.9025670000000048
20
-110.2608419999999967
11
167.9228359999999896
21
-110.1851949999999931
0
LINE
8
BLACK
6
CONTINUOUS
10
167.9228359999999896
20
-110.1851949999999931
11
167.9619940000000042
21
-110.1173719999999889
0
LINE
8
BLACK
6
CONTINUOUS
10
167.9619940000000042
20
-110.1173719999999889
11
168.0173719999999946
21
-110.0619939999999986
0
LINE
8
BLACK
6
CONTINUOUS
10
168.0173719999999946
20
-110.0619939999999986
11
168.0851949999999988
21
-110.0228359999999981
0
LINE
8
BLACK
6
CONTINUOUS
10
168.0851949999999988
20
-110.0228359999999981
11
168.1608420000000024
21
-110.0025669999999991
0
LINE
8
BLACK
6
CONTINUOUS
10
168.1608420000000024
20
-110.0025669999999991
11
168.2391580000000033
21
-110.0025669999999991
0
LINE
8
BLACK
6
CONTINUOUS
10
168.2391580000000033
20
-110.0025669999999991
11
168.3148049999999785
21
-110.0228359999999981
0
LINE
8
BLACK
6
CONTINUOUS
10
167.4748050000000035
20
-122.262835999999993
11
167.5426279999999792
21
-122.3019939999999934
0
LINE
8
BLACK
6
CONTINUOUS
10
167.5426279999999792
20
-122.3019939999999934
11
167.598005999999998
21
-122.357371999999998
0
LINE
8
BLACK
6
CONTINUOUS
10
167.598005999999998
20
-122.357371999999998
11
167.6371639999999843
21
-122.425194999999988
0
LINE
8
BLACK
6
CONTINUOUS
10
167.6371639999999843
20
-122.425194999999988
11
167.6574329999999975
21
-122.5008419999999916
0
LINE
8
BLACK
6
CONTINUOUS
10
167.6574329999999975
20
-122.5008419999999916
11
167.6599999999999966
21
-122.539999999999992
0
LINE
8
BLACK
6
CONTINUOUS
10
167.6599999999999966
20
-122.539999999999992
11
167.6599999999999966
21
-124.039999999999992
0
LINE
8
BLACK
6
CONTINUOUS
10
167.6599999999999966
20
-124.039999999999992
11
167.6599999999999966
21
-125.262519999999995
0
LINE
8
BLACK
6
CONTINUOUS
10
167.6599999999999966
20
-125.262519999999995
11
167.7371169999999836
21
-125.2944629999999933
0
LINE
8
BLACK
6
CONTINUOUS
10
167.7371169999999836
20
-125.2944629999999933
11
167.8675149999999974
21
-125.3815919999999977
0
LINE
8
BLACK
6
CONTINUOUS
10
167.8675149999999974
20
-125.3815919999999977
11
167.9784080000000017
21
-125.4924849999999878
0
LINE
8
BLACK
6
CONTINUOUS
10
167.9784080000000017
20
-125.4924849999999878
11
168.0655370000000062
21
-125.6228829999999874
0
LINE
8
BLACK
6
CONTINUOUS
10
168.0655370000000062
20
-125.6228829999999874
11
168.125551999999999
21
-125.7677719999999937
0
LINE
8
BLACK
6
CONTINUOUS
10
168.125551999999999
20
-125.7677719999999937
11
168.1561480000000017
21
-125.9215859999999907
0
LINE
8
BLACK
6
CONTINUOUS
10
168.1561480000000017
20
-125.9215859999999907
11
168.1561480000000017
21
-126.0784139999999951
0
LINE
8
BLACK
6
CONTINUOUS
10
168.1561480000000017
20
-126.0784139999999951
11
168.125551999999999
21
-126.2322279999999921
0
LINE
8
BLACK
6
CONTINUOUS
10
168.125551999999999
20
-126.2322279999999921
11
168.0655370000000062
21
-126.3771169999999984
0
LINE
8
BLACK
6
CONTINUOUS
10
168.0655370000000062
20
-126.3771169999999984
11
167.9784080000000017
21
-126.5075149999999979
0
LINE
8
BLACK
6
CONTINUOUS
10
167.9784080000000017
20
-126.5075149999999979
11
167.8675149999999974
21
-126.6184079999999881
0
LINE
8
BLACK
6
CONTINUOUS
10
167.8675149999999974
20
-126.6184079999999881
11
167.7371169999999836
21
-126.7055369999999925
0
LINE
8
BLACK
6
CONTINUOUS
10
167.7371169999999836
20
-126.7055369999999925
11
167.5922280000000057
21
-126.7655519999999996
0
LINE
8
BLACK
6
CONTINUOUS
10
167.5922280000000057
20
-126.7655519999999996
11
167.5354099999999846
21
-126.7768529999999885
0
LINE
8
BLACK
6
CONTINUOUS
10
167.5354099999999846
20
-126.7768529999999885
11
166.4399999999999977
21
-127.8722640000000013
0
LINE
8
BLACK
6
CONTINUOUS
10
166.4399999999999977
20
-127.8722640000000013
11
166.4399999999999977
21
-128.1086609999999837
0
LINE
8
BLACK
6
CONTINUOUS
10
166.4399999999999977
20
-128.1086609999999837
11
166.5406869999999913
21
-128.1503669999999886
0
LINE
8
BLACK
6
CONTINUOUS
10
166.5406869999999913
20
-128.1503669999999886
11
166.6792339999999797
21
-128.2429410000000018
0
LINE
8
BLACK
6
CONTINUOUS
10
166.6792339999999797
20
-128.2429410000000018
11
166.7970589999999902
21
-128.3607659999999839
0
LINE
8
BLACK
6
CONTINUOUS
10
166.7970589999999902
20
-128.3607659999999839
11
166.8896330000000034
21
-128.4993130000000008
0
LINE
8
BLACK
6
CONTINUOUS
10
166.8896330000000034
20
-128.4993130000000008
11
166.9533989999999903
21
-128.6532579999999939
0
LINE
8
BLACK
6
CONTINUOUS
10
166.9533989999999903
20
-128.6532579999999939
11
166.9859069999999974
21
-128.8166850000000068
0
LINE
8
BLACK
6
CONTINUOUS
10
166.9859069999999974
20
-128.8166850000000068
11
166.9859069999999974
21
-128.9833150000000046
0
LINE
8
BLACK
6
CONTINUOUS
10
166.9859069999999974
20
-128.9833150000000046
11
166.9533989999999903
21
-129.146741999999989
0
LINE
8
BLACK
6
CONTINUOUS
10
166.9533989999999903
20
-129.146741999999989
11
166.8896330000000034
21
-129.3006869999999822
0
LINE
8
BLACK
6
CONTINUOUS
10
166.8896330000000034
20
-129.3006869999999822
11
166.7970589999999902
21
-129.439233999999999
0
LINE
8
BLACK
6
CONTINUOUS
10
166.7970589999999902
20
-129.439233999999999
11
166.6792339999999797
21
-129.5570589999999811
0
LINE
8
BLACK
6
CONTINUOUS
10
166.6792339999999797
20
-129.5570589999999811
11
166.5406869999999913
21
-129.6496329999999944
0
LINE
8
BLACK
6
CONTINUOUS
10
166.5406869999999913
20
-129.6496329999999944
11
166.3867419999999981
21
-129.7133989999999812
0
LINE
8
BLACK
6
CONTINUOUS
10
166.3867419999999981
20
-129.7133989999999812
11
166.2233149999999853
21
-129.7459069999999883
0
LINE
8
BLACK
6
CONTINUOUS
10
166.2233149999999853
20
-129.7459069999999883
11
166.0566849999999874
21
-129.7459069999999883
0
LINE
8
BLACK
6
CONTINUOUS
10
166.0566849999999874
20
-129.7459069999999883
11
165.893258000000003
21
-129.7133989999999812
0
LINE
8
BLACK
6
CONTINUOUS
10
165.893258000000003
20
-129.7133989999999812
11
165.7393129999999815
21
-129.6496329999999944
0
LINE
8
BLACK
6
CONTINUOUS
10
165.7393129999999815
20
-129.6496329999999944
11
165.600765999999993
21
-129.5570589999999811
0
LINE
8
BLACK
6
CONTINUOUS
10
165.600765999999993
20
-129.5570589999999811
11
165.4829409999999825
21
-129.439233999999999
0
LINE
8
BLACK
6
CONTINUOUS
10
165.4829409999999825
20
-129.439233999999999
11
165.3903669999999977
21
-129.3006869999999822
0
LINE
8
BLACK
6
CONTINUOUS
10
165.3903669999999977
20
-129.3006869999999822
11
165.3266009999999824
21
-129.146741999999989
0
LINE
8
BLACK
6
CONTINUOUS
10
165.3266009999999824
20
-129.146741999999989
11
165.2940930000000037
21
-128.9833150000000046
0
LINE
8
BLACK
6
CONTINUOUS
10
165.2940930000000037
20
-128.9833150000000046
11
165.2940930000000037
21
-128.8166850000000068
0
LINE
8
BLACK
6
CONTINUOUS
10
165.2940930000000037
20
-128.8166850000000068
11
165.3266009999999824
21
-128.6532579999999939
0
LINE
8
BLACK
6
CONTINUOUS
10
165.3266009999999824
20
-128.6532579999999939
11
165.3903669999999977
21
-128.4993130000000008
0
LINE
8
BLACK
6
CONTINUOUS
10
165.3903669999999977
20
-128.4993130000000008
11
165.4829409999999825
21
-128.3607659999999839
0
LINE
8
BLACK
6
CONTINUOUS
10
165.4829409999999825
20
-128.3607659999999839
11
165.600765999999993
21
-128.2429410000000018
0
LINE
8
BLACK
6
CONTINUOUS
10
165.600765999999993
20
-128.2429410000000018
11
165.7393129999999815
21
-128.1503669999999886
0
LINE
8
BLACK
6
CONTINUOUS
10
165.7393129999999815
20
-128.1503669999999886
11
165.8400000000000034
21
-128.1086609999999837
0
LINE
8
BLACK
6
CONTINUOUS
10
165.8400000000000034
20
-128.1086609999999837
11
165.8400000000000034
21
-127.7479999999999905
0
LINE
8
BLACK
6
CONTINUOUS
10
165.8400000000000034
20
-127.7479999999999905
11
165.8425670000000025
21
-127.70884199999999
0
LINE
8
BLACK
6
CONTINUOUS
10
165.8425670000000025
20
-127.70884199999999
11
165.8628359999999873
21
-127.6331950000000006
0
LINE
8
BLACK
6
CONTINUOUS
10
165.8628359999999873
20
-127.6331950000000006
11
165.901994000000002
21
-127.5653719999999964
0
LINE
8
BLACK
6
CONTINUOUS
10
165.901994000000002
20
-127.5653719999999964
11
165.9278679999999895
21
-127.5358679999999936
0
LINE
8
BLACK
6
CONTINUOUS
10
165.9278679999999895
20
-127.5358679999999936
11
166.8489059999999995
21
-126.6148290000000003
0
LINE
8
BLACK
6
CONTINUOUS
10
166.8489059999999995
20
-126.6148290000000003
11
166.7415919999999971
21
-126.5075149999999979
0
LINE
8
BLACK
6
CONTINUOUS
10
166.7415919999999971
20
-126.5075149999999979
11
166.6544629999999927
21
-126.3771169999999984
0
LINE
8
BLACK
6
CONTINUOUS
10
166.6544629999999927
20
-126.3771169999999984
11
166.5944479999999999
21
-126.2322279999999921
0
LINE
8
BLACK
6
CONTINUOUS
10
166.5944479999999999
20
-126.2322279999999921
11
166.5638519999999971
21
-126.0784139999999951
0
LINE
8
BLACK
6
CONTINUOUS
10
166.5638519999999971
20
-126.0784139999999951
11
166.5638519999999971
21
-125.9215859999999907
0
LINE
8
BLACK
6
CONTINUOUS
10
166.5638519999999971
20
-125.9215859999999907
11
166.5944479999999999
21
-125.7677719999999937
0
LINE
8
BLACK
6
CONTINUOUS
10
166.5944479999999999
20
-125.7677719999999937
11
166.6544629999999927
21
-125.6228829999999874
0
LINE
8
BLACK
6
CONTINUOUS
10
166.6544629999999927
20
-125.6228829999999874
11
166.7415919999999971
21
-125.4924849999999878
0
LINE
8
BLACK
6
CONTINUOUS
10
166.7415919999999971
20
-125.4924849999999878
11
166.8524850000000015
21
-125.3815919999999977
0
LINE
8
BLACK
6
CONTINUOUS
10
166.8524850000000015
20
-125.3815919999999977
11
166.9828829999999869
21
-125.2944629999999933
0
LINE
8
BLACK
6
CONTINUOUS
10
166.9828829999999869
20
-125.2944629999999933
11
167.0600000000000023
21
-125.262519999999995
0
LINE
8
BLACK
6
CONTINUOUS
10
167.0600000000000023
20
-125.262519999999995
11
167.0600000000000023
21
-124.039999999999992
0
LINE
8
BLACK
6
CONTINUOUS
10
167.0600000000000023
20
-124.039999999999992
11
167.0600000000000023
21
-122.539999999999992
0
LINE
8
BLACK
6
CONTINUOUS
10
167.0600000000000023
20
-122.539999999999992
11
167.0625670000000014
21
-122.5008419999999916
0
LINE
8
BLACK
6
CONTINUOUS
10
167.0625670000000014
20
-122.5008419999999916
11
167.0828359999999861
21
-122.425194999999988
0
LINE
8
BLACK
6
CONTINUOUS
10
167.0828359999999861
20
-122.425194999999988
11
167.1219940000000008
21
-122.357371999999998
0
LINE
8
BLACK
6
CONTINUOUS
10
167.1219940000000008
20
-122.357371999999998
11
167.1773719999999912
21
-122.3019939999999934
0
LINE
8
BLACK
6
CONTINUOUS
10
167.1773719999999912
20
-122.3019939999999934
11
167.2451949999999954
21
-122.262835999999993
0
LINE
8
BLACK
6
CONTINUOUS
10
167.2451949999999954
20
-122.262835999999993
11
167.320841999999999
21
-122.242566999999994
0
LINE
8
BLACK
6
CONTINUOUS
10
167.320841999999999
20
-122.242566999999994
11
167.3991579999999999
21
-122.242566999999994
0
LINE
8
BLACK
6
CONTINUOUS
10
167.3991579999999999
20
-122.242566999999994
11
167.4748050000000035
21
-122.262835999999993
0
LINE
8
BLACK
6
CONTINUOUS
10
170.0148049999999955
20
-123.7228360000000009
11
170.0826279999999997
21
-123.7619940000000014
0
LINE
8
BLACK
6
CONTINUOUS
10
170.0826279999999997
20
-123.7619940000000014
11
170.1380059999999901
21
-123.8173719999999918
0
LINE
8
BLACK
6
CONTINUOUS
10
170.1380059999999901
20
-123.8173719999999918
11
170.1771640000000048
21
-123.885194999999996
0
LINE
8
BLACK
6
CONTINUOUS
10
170.1771640000000048
20
-123.885194999999996
11
170.1974329999999895
21
-123.9608419999999995
0
LINE
8
BLACK
6
CONTINUOUS
10
170.1974329999999895
20
-123.9608419999999995
11
170.1999999999999886
21
-124.
0
LINE
8
BLACK
6
CONTINUOUS
10
170.1999999999999886
20
-124.
11
170.1999999999999886
21
-125.1999999999999886
0
LINE
8
BLACK
6
CONTINUOUS
10
170.1999999999999886
20
-125.1999999999999886
11
170.4499999999999886
21
-125.1999999999999886
0
LINE
8
BLACK
6
CONTINUOUS
10
170.4499999999999886
20
-125.1999999999999886
11
170.5456709999999987
21
-125.2190299999999894
0
LINE
8
BLACK
6
CONTINUOUS
10
170.5456709999999987
20
-125.2190299999999894
11
170.6267770000000041
21
-125.2732229999999873
0
LINE
8
BLACK
6
CONTINUOUS
10
170.6267770000000041
20
-125.2732229999999873
11
170.6809700000000021
21
-125.3543289999999928
0
LINE
8
BLACK
6
CONTINUOUS
10
170.6809700000000021
20
-125.3543289999999928
11
170.6999999999999886
21
-125.4499999999999886
0
LINE
8
BLACK
6
CONTINUOUS
10
170.6999999999999886
20
-125.4499999999999886
11
170.6999999999999886
21
-126.5499999999999972
0
LINE
8
BLACK
6
CONTINUOUS
10
170.6999999999999886
20
-126.5499999999999972
11
170.6809700000000021
21
-126.645670999999993
0
LINE
8
BLACK
6
CONTINUOUS
10
170.6809700000000021
20
-126.645670999999993
11
170.6267770000000041
21
-126.7267769999999985
0
LINE
8
BLACK
6
CONTINUOUS
10
170.6267770000000041
20
-126.7267769999999985
11
170.5456709999999987
21
-126.7809699999999964
0
LINE
8
BLACK
6
CONTINUOUS
10
170.5456709999999987
20
-126.7809699999999964
11
170.4499999999999886
21
-126.7999999999999972
0
LINE
8
BLACK
6
CONTINUOUS
10
170.4499999999999886
20
-126.7999999999999972
11
169.3499999999999943
21
-126.7999999999999972
0
LINE
8
BLACK
6
CONTINUOUS
10
169.3499999999999943
20
-126.7999999999999972
11
169.2543289999999843
21
-126.7809699999999964
0
LINE
8
BLACK
6
CONTINUOUS
10
169.2543289999999843
20
-126.7809699999999964
11
169.1732229999999788
21
-126.7267769999999985
0
LINE
8
BLACK
6
CONTINUOUS
10
169.1732229999999788
20
-126.7267769999999985
11
169.1190299999999809
21
-126.645670999999993
0
LINE
8
BLACK
6
CONTINUOUS
10
169.1190299999999809
20
-126.645670999999993
11
169.0999999999999943
21
-126.5499999999999972
0
LINE
8
BLACK
6
CONTINUOUS
10
169.0999999999999943
20
-126.5499999999999972
11
169.0999999999999943
21
-125.4499999999999886
0
LINE
8
BLACK
6
CONTINUOUS
10
169.0999999999999943
20
-125.4499999999999886
11
169.1190299999999809
21
-125.3543289999999928
0
LINE
8
BLACK
6
CONTINUOUS
10
169.1190299999999809
20
-125.3543289999999928
11
169.1732229999999788
21
-125.2732229999999873
0
LINE
8
BLACK
6
CONTINUOUS
10
169.1732229999999788
20
-125.2732229999999873
11
169.2543289999999843
21
-125.2190299999999894
0
LINE
8
BLACK
6
CONTINUOUS
10
169.2543289999999843
20
-125.2190299999999894
11
169.3499999999999943
21
-125.1999999999999886
0
LINE
8
BLACK
6
CONTINUOUS
10
169.3499999999999943
20
-125.1999999999999886
11
169.5999999999999943
21
-125.1999999999999886
0
LINE
8
BLACK
6
CONTINUOUS
10
169.5999999999999943
20
-125.1999999999999886
11
169.5999999999999943
21
-124.
0
LINE
8
BLACK
6
CONTINUOUS
10
169.5999999999999943
20
-124.
11
169.6025669999999934
21
-123.9608419999999995
0
LINE
8
BLACK
6
CONTINUOUS
10
169.6025669999999934
20
-123.9608419999999995
11
169.6228359999999782
21
-123.885194999999996
0
LINE
8
BLACK
6
CONTINUOUS
10
169.6228359999999782
20
-123.885194999999996
11
169.6619939999999929
21
-123.8173719999999918
0
LINE
8
BLACK
6
CONTINUOUS
10
169.6619939999999929
20
-123.8173719999999918
11
169.7173719999999832
21
-123.7619940000000014
0
LINE
8
BLACK
6
CONTINUOUS
10
169.7173719999999832
20
-123.7619940000000014
11
169.7851949999999874
21
-123.7228360000000009
0
LINE
8
BLACK
6
CONTINUOUS
10
169.7851949999999874
20
-123.7228360000000009
11
169.860841999999991
21
-123.7025669999999877
0
LINE
8
BLACK
6
CONTINUOUS
10
169.860841999999991
20
-123.7025669999999877
11
169.9391579999999919
21
-123.7025669999999877
0
LINE
8
BLACK
6
CONTINUOUS
10
169.9391579999999919
20
-123.7025669999999877
11
170.0148049999999955
21
-123.7228360000000009
0
LINE
8
BLACK
6
CONTINUOUS
10
171.2318039999999826
20
-123.0248449999999991
11
171.2523489999999811
21
-123.0571300000000008
0
LINE
8
BLACK
6
CONTINUOUS
10
171.2523489999999811
20
-123.0571300000000008
11
171.2440469999999948
21
-123.0944870000000009
0
LINE
8
BLACK
6
CONTINUOUS
10
171.2440469999999948
20
-123.0944870000000009
11
171.2299479999999789
21
-123.107970999999992
0
LINE
8
BLACK
6
CONTINUOUS
10
171.2299479999999789
20
-123.107970999999992
11
170.8771879999999896
21
-123.3324539999999985
0
LINE
8
BLACK
6
CONTINUOUS
10
170.8771879999999896
20
-123.3324539999999985
11
171.2299479999999789
21
-123.5569379999999882
0
LINE
8
BLACK
6
CONTINUOUS
10
171.2299479999999789
20
-123.5569379999999882
11
171.2440469999999948
21
-123.5704209999999961
0
LINE
8
BLACK
6
CONTINUOUS
10
171.2440469999999948
20
-123.5704209999999961
11
171.2523479999999836
21
-123.6077789999999936
0
LINE
8
BLACK
6
CONTINUOUS
10
171.2523479999999836
20
-123.6077789999999936
11
171.2318029999999851
21
-123.6400639999999953
0
LINE
8
BLACK
6
CONTINUOUS
10
171.2318029999999851
20
-123.6400639999999953
11
171.1944459999999992
21
-123.6483659999999958
0
LINE
8
BLACK
6
CONTINUOUS
10
171.1944459999999992
20
-123.6483659999999958
11
171.176259999999985
21
-123.641303999999991
0
LINE
8
BLACK
6
CONTINUOUS
10
171.176259999999985
20
-123.641303999999991
11
170.7694970000000012
21
-123.3824549999999931
0
LINE
8
BLACK
6
CONTINUOUS
10
170.7694970000000012
20
-123.3824549999999931
11
170.4031039999999848
21
-123.3824549999999931
0
LINE
8
BLACK
6
CONTINUOUS
10
170.4031039999999848
20
-123.3824549999999931
11
170.383970000000005
21
-123.3786489999999958
0
LINE
8
BLACK
6
CONTINUOUS
10
170.383970000000005
20
-123.3786489999999958
11
170.3569099999999992
21
-123.3515889999999899
0
LINE
8
BLACK
6
CONTINUOUS
10
170.3569099999999992
20
-123.3515889999999899
11
170.3569099999999992
21
-123.3133209999999877
0
LINE
8
BLACK
6
CONTINUOUS
10
170.3569099999999992
20
-123.3133209999999877
11
170.383970000000005
21
-123.2862609999999961
0
LINE
8
BLACK
6
CONTINUOUS
10
170.383970000000005
20
-123.2862609999999961
11
170.4031039999999848
21
-123.2824549999999988
0
LINE
8
BLACK
6
CONTINUOUS
10
170.4031039999999848
20
-123.2824549999999988
11
170.7694970000000012
21
-123.2824549999999988
0
LINE
8
BLACK
6
CONTINUOUS
10
170.7694970000000012
20
-123.2824549999999988
11
171.176259999999985
21
-123.0236049999999892
0
LINE
8
BLACK
6
CONTINUOUS
10
171.176259999999985
20
-123.0236049999999892
11
171.1944459999999992
21
-123.0165429999999986
0
LINE
8
BLACK
6
CONTINUOUS
10
171.1944459999999992
20
-123.0165429999999986
11
171.2318039999999826
21
-123.0248449999999991
0
LINE
8
BLACK
6
CONTINUOUS
10
161.1767250000000047
20
-122.8993069999999932
11
161.8910109999999918
21
-123.1374019999999945
0
LINE
8
BLACK
6
CONTINUOUS
10
161.8910109999999918
20
-123.1374019999999945
11
161.9079590000000053
21
-123.1470629999999886
0
LINE
8
BLACK
6
CONTINUOUS
10
161.9079590000000053
20
-123.1470629999999886
11
161.9250739999999951
21
-123.1812919999999991
0
LINE
8
BLACK
6
CONTINUOUS
10
161.9250739999999951
20
-123.1812919999999991
11
161.9129719999999963
21
-123.2175960000000003
0
LINE
8
BLACK
6
CONTINUOUS
10
161.9129719999999963
20
-123.2175960000000003
11
161.8787439999999833
21
-123.2347099999999926
0
LINE
8
BLACK
6
CONTINUOUS
10
161.8787439999999833
20
-123.2347099999999926
11
161.8593879999999956
21
-123.2322699999999998
0
LINE
8
BLACK
6
CONTINUOUS
10
161.8593879999999956
20
-123.2322699999999998
11
161.2109140000000025
21
-123.0161119999999926
0
LINE
8
BLACK
6
CONTINUOUS
10
161.2109140000000025
20
-123.0161119999999926
11
161.2109140000000025
21
-123.3729309999999941
0
LINE
8
BLACK
6
CONTINUOUS
10
161.2109140000000025
20
-123.3729309999999941
11
161.4942470000000014
21
-123.3729309999999941
0
LINE
8
BLACK
6
CONTINUOUS
10
161.4942470000000014
20
-123.3729309999999941
11
161.5133809999999812
21
-123.3767369999999914
0
LINE
8
BLACK
6
CONTINUOUS
10
161.5133809999999812
20
-123.3767369999999914
11
161.5404409999999871
21
-123.4037969999999973
0
LINE
8
BLACK
6
CONTINUOUS
10
161.5404409999999871
20
-123.4037969999999973
11
161.5404409999999871
21
-123.4420649999999995
0
LINE
8
BLACK
6
CONTINUOUS
10
161.5404409999999871
20
-123.4420649999999995
11
161.5133809999999812
21
-123.4691249999999911
0
LINE
8
BLACK
6
CONTINUOUS
10
161.5133809999999812
20
-123.4691249999999911
11
161.4942470000000014
21
-123.4729309999999884
0
LINE
8
BLACK
6
CONTINUOUS
10
161.4942470000000014
20
-123.4729309999999884
11
161.2109140000000025
21
-123.4729309999999884
0
LINE
8
BLACK
6
CONTINUOUS
10
161.2109140000000025
20
-123.4729309999999884
11
161.2109140000000025
21
-123.5657879999999977
0
LINE
8
BLACK
6
CONTINUOUS
10
161.2109140000000025
20
-123.5657879999999977
11
161.2071080000000052
21
-123.5849219999999917
0
LINE
8
BLACK
6
CONTINUOUS
10
161.2071080000000052
20
-123.5849219999999917
11
161.1800479999999993
21
-123.6119819999999976
0
LINE
8
BLACK
6
CONTINUOUS
10
161.1800479999999993
20
-123.6119819999999976
11
161.1417799999999829
21
-123.6119819999999976
0
LINE
8
BLACK
6
CONTINUOUS
10
161.1417799999999829
20
-123.6119819999999976
11
161.1147200000000055
21
-123.5849219999999917
0
LINE
8
BLACK
6
CONTINUOUS
10
161.1147200000000055
20
-123.5849219999999917
11
161.1109139999999798
21
-123.5657879999999977
0
LINE
8
BLACK
6
CONTINUOUS
10
161.1109139999999798
20
-123.5657879999999977
11
161.1109139999999798
21
-123.4729309999999884
0
LINE
8
BLACK
6
CONTINUOUS
10
161.1109139999999798
20
-123.4729309999999884
11
160.8275799999999833
21
-123.4729309999999884
0
LINE
8
BLACK
6
CONTINUOUS
10
160.8275799999999833
20
-123.4729309999999884
11
160.8084460000000036
21
-123.4691249999999911
0
LINE
8
BLACK
6
CONTINUOUS
10
160.8084460000000036
20
-123.4691249999999911
11
160.7813859999999977
21
-123.4420649999999995
0
LINE
8
BLACK
6
CONTINUOUS
10
160.7813859999999977
20
-123.4420649999999995
11
160.7813859999999977
21
-123.4037969999999973
0
LINE
8
BLACK
6
CONTINUOUS
10
160.7813859999999977
20
-123.4037969999999973
11
160.8084460000000036
21
-123.3767369999999914
0
LINE
8
BLACK
6
CONTINUOUS
10
160.8084460000000036
20
-123.3767369999999914
11
160.8275799999999833
21
-123.3729309999999941
0
LINE
8
BLACK
6
CONTINUOUS
10
160.8275799999999833
20
-123.3729309999999941
11
161.1109139999999798
21
-123.3729309999999941
0
LINE
8
BLACK
6
CONTINUOUS
10
161.1109139999999798
20
-123.3729309999999941
11
161.1109139999999798
21
-122.9467409999999887
0
LINE
8
BLACK
6
CONTINUOUS
10
161.1109139999999798
20
-122.9467409999999887
11
161.1147200000000055
21
-122.9276069999999947
0
LINE
8
BLACK
6
CONTINUOUS
10
161.1147200000000055
20
-122.9276069999999947
11
161.120537999999982
21
-122.9217879999999923
0
LINE
8
BLACK
6
CONTINUOUS
10
161.120537999999982
20
-122.9217879999999923
11
161.1231410000000039
21
-122.9139809999999926
0
LINE
8
BLACK
6
CONTINUOUS
10
161.1231410000000039
20
-122.9139809999999926
11
161.1335499999999854
21
-122.9087759999999889
0
LINE
8
BLACK
6
CONTINUOUS
10
161.1335499999999854
20
-122.9087759999999889
11
161.1417799999999829
21
-122.9005469999999889
0
LINE
8
BLACK
6
CONTINUOUS
10
161.1417799999999829
20
-122.9005469999999889
11
161.1500099999999804
21
-122.9005469999999889
0
LINE
8
BLACK
6
CONTINUOUS
10
161.1500099999999804
20
-122.9005469999999889
11
161.157369999999986
21
-122.8968670000000003
0
LINE
8
BLACK
6
CONTINUOUS
10
161.157369999999986
20
-122.8968670000000003
11
161.1767250000000047
21
-122.8993069999999932
0
LINE
8
BLACK
6
CONTINUOUS
10
164.3148049999999785
20
-109.8228359999999952
11
164.3826279999999826
21
-109.8619939999999957
0
LINE
8
BLACK
6
CONTINUOUS
10
164.3826279999999826
20
-109.8619939999999957
11
164.4380060000000014
21
-109.9173720000000003
0
LINE
8
BLACK
6
CONTINUOUS
10
164.4380060000000014
20
-109.9173720000000003
11
164.4771639999999877
21
-109.9851949999999903
0
LINE
8
BLACK
6
CONTINUOUS
10
164.4771639999999877
20
-109.9851949999999903
11
164.4974330000000009
21
-110.0608419999999938
0
LINE
8
BLACK
6
CONTINUOUS
10
164.4974330000000009
20
-110.0608419999999938
11
164.5
21
-110.0999999999999943
0
LINE
8
BLACK
6
CONTINUOUS
10
164.5
20
-110.0999999999999943
11
164.5
21
-112.7999999999999972
0
LINE
8
BLACK
6
CONTINUOUS
10
164.5
20
-112.7999999999999972
11
164.5
21
-114.625
0
LINE
8
BLACK
6
CONTINUOUS
10
164.5
20
-114.625
11
164.5499999999999829
21
-114.625
0
LINE
8
BLACK
6
CONTINUOUS
10
164.5499999999999829
20
-114.625
11
164.645670999999993
21
-114.6440300000000008
0
LINE
8
BLACK
6
CONTINUOUS
10
164.645670999999993
20
-114.6440300000000008
11
164.7267769999999985
21
-114.6982229999999987
0
LINE
8
BLACK
6
CONTINUOUS
10
164.7267769999999985
20
-114.6982229999999987
11
164.7809699999999964
21
-114.7793289999999899
0
LINE
8
BLACK
6
CONTINUOUS
10
164.7809699999999964
20
-114.7793289999999899
11
164.7999999999999829
21
-114.875
0
LINE
8
BLACK
6
CONTINUOUS
10
164.7999999999999829
20
-114.875
11
164.7999999999999829
21
-116.125
0
LINE
8
BLACK
6
CONTINUOUS
10
164.7999999999999829
20
-116.125
11
164.7809699999999964
21
-116.2206709999999958
0
LINE
8
BLACK
6
CONTINUOUS
10
164.7809699999999964
20
-116.2206709999999958
11
164.7267769999999985
21
-116.3017770000000013
0
LINE
8
BLACK
6
CONTINUOUS
10
164.7267769999999985
20
-116.3017770000000013
11
164.645670999999993
21
-116.3559699999999992
0
LINE
8
BLACK
6
CONTINUOUS
10
164.645670999999993
20
-116.3559699999999992
11
164.5499999999999829
21
-116.375
0
LINE
8
BLACK
6
CONTINUOUS
10
164.5499999999999829
20
-116.375
11
163.8499999999999943
21
-116.375
0
LINE
8
BLACK
6
CONTINUOUS
10
163.8499999999999943
20
-116.375
11
163.7659769999999924
21
-116.3582859999999926
0
LINE
8
BLACK
6
CONTINUOUS
10
163.7659769999999924
20
-116.3582859999999926
11
162.5799999999999841
21
-117.5442639999999983
0
LINE
8
BLACK
6
CONTINUOUS
10
162.5799999999999841
20
-117.5442639999999983
11
162.5799999999999841
21
-117.6425199999999904
0
LINE
8
BLACK
6
CONTINUOUS
10
162.5799999999999841
20
-117.6425199999999904
11
162.6571169999999995
21
-117.6744629999999887
0
LINE
8
BLACK
6
CONTINUOUS
10
162.6571169999999995
20
-117.6744629999999887
11
162.7875149999999849
21
-117.7615919999999932
0
LINE
8
BLACK
6
CONTINUOUS
10
162.7875149999999849
20
-117.7615919999999932
11
162.8984079999999892
21
-117.8724849999999975
0
LINE
8
BLACK
6
CONTINUOUS
10
162.8984079999999892
20
-117.8724849999999975
11
162.9855369999999937
21
-118.0028829999999971
0
LINE
8
BLACK
6
CONTINUOUS
10
162.9855369999999937
20
-118.0028829999999971
11
163.0455519999999865
21
-118.1477719999999891
0
LINE
8
BLACK
6
CONTINUOUS
10
163.0455519999999865
20
-118.1477719999999891
11
163.0761479999999892
21
-118.3015860000000004
0
LINE
8
BLACK
6
CONTINUOUS
10
163.0761479999999892
20
-118.3015860000000004
11
163.0761479999999892
21
-118.4584139999999906
0
LINE
8
BLACK
6
CONTINUOUS
10
163.0761479999999892
20
-118.4584139999999906
11
163.0455519999999865
21
-118.6122279999999876
0
LINE
8
BLACK
6
CONTINUOUS
10
163.0455519999999865
20
-118.6122279999999876
11
162.9855369999999937
21
-118.7571169999999938
0
LINE
8
BLACK
6
CONTINUOUS
10
162.9855369999999937
20
-118.7571169999999938
11
162.8984079999999892
21
-118.8875149999999934
0
LINE
8
BLACK
6
CONTINUOUS
10
162.8984079999999892
20
-118.8875149999999934
11
162.7875149999999849
21
-118.9984079999999977
0
LINE
8
BLACK
6
CONTINUOUS
10
162.7875149999999849
20
-118.9984079999999977
11
162.6571169999999995
21
-119.085536999999988
0
LINE
8
BLACK
6
CONTINUOUS
10
162.6571169999999995
20
-119.085536999999988
11
162.5799999999999841
21
-119.1174789999999888
0
LINE
8
BLACK
6
CONTINUOUS
10
162.5799999999999841
20
-119.1174789999999888
11
162.5799999999999841
21
-120.055735999999996
0
LINE
8
BLACK
6
CONTINUOUS
10
162.5799999999999841
20
-120.055735999999996
11
162.9121319999999855
21
-120.3878679999999974
0
LINE
8
BLACK
6
CONTINUOUS
10
162.9121319999999855
20
-120.3878679999999974
11
162.9380060000000014
21
-120.4173720000000003
0
LINE
8
BLACK
6
CONTINUOUS
10
162.9380060000000014
20
-120.4173720000000003
11
162.9771639999999877
21
-120.4851949999999903
0
LINE
8
BLACK
6
CONTINUOUS
10
162.9771639999999877
20
-120.4851949999999903
11
162.9974330000000009
21
-120.5608419999999938
0
LINE
8
BLACK
6
CONTINUOUS
10
162.9974330000000009
20
-120.5608419999999938
11
163.
21
-120.5999999999999943
0
LINE
8
BLACK
6
CONTINUOUS
10
163.
20
-120.5999999999999943
11
163.
21
-123.0999999999999943
0
LINE
8
BLACK
6
CONTINUOUS
10
163.
20
-123.0999999999999943
11
162.9974330000000009
21
-123.1391579999999948
0
LINE
8
BLACK
6
CONTINUOUS
10
162.9974330000000009
20
-123.1391579999999948
11
162.9771639999999877
21
-123.2148049999999984
0
LINE
8
BLACK
6
CONTINUOUS
10
162.9771639999999877
20
-123.2148049999999984
11
162.9380060000000014
21
-123.2826279999999883
0
LINE
8
BLACK
6
CONTINUOUS
10
162.9380060000000014
20
-123.2826279999999883
11
162.8826279999999826
21
-123.3380059999999929
0
LINE
8
BLACK
6
CONTINUOUS
10
162.8826279999999826
20
-123.3380059999999929
11
162.8148049999999785
21
-123.3771639999999934
0
LINE
8
BLACK
6
CONTINUOUS
10
162.8148049999999785
20
-123.3771639999999934
11
162.7391580000000033
21
-123.3974329999999924
0
LINE
8
BLACK
6
CONTINUOUS
10
162.7391580000000033
20
-123.3974329999999924
11
162.6608420000000024
21
-123.3974329999999924
0
LINE
8
BLACK
6
CONTINUOUS
10
162.6608420000000024
20
-123.3974329999999924
11
162.5851949999999988
21
-123.3771639999999934
0
LINE
8
BLACK
6
CONTINUOUS
10
162.5851949999999988
20
-123.3771639999999934
11
162.5173719999999946
21
-123.3380059999999929
0
LINE
8
BLACK
6
CONTINUOUS
10
162.5173719999999946
20
-123.3380059999999929
11
162.4619940000000042
21
-123.2826279999999883
0
LINE
8
BLACK
6
CONTINUOUS
10
162.4619940000000042
20
-123.2826279999999883
11
162.4228359999999896
21
-123.2148049999999984
0
LINE
8
BLACK
6
CONTINUOUS
10
162.4228359999999896
20
-123.2148049999999984
11
162.4025670000000048
21
-123.1391579999999948
0
LINE
8
BLACK
6
CONTINUOUS
10
162.4025670000000048
20
-123.1391579999999948
11
162.4000000000000057
21
-123.0999999999999943
0
LINE
8
BLACK
6
CONTINUOUS
10
162.4000000000000057
20
-123.0999999999999943
11
162.4000000000000057
21
-120.7242639999999909
0
LINE
8
BLACK
6
CONTINUOUS
10
162.4000000000000057
20
-120.7242639999999909
11
162.0678680000000043
21
-120.3921319999999895
0
LINE
8
BLACK
6
CONTINUOUS
10
162.0678680000000043
20
-120.3921319999999895
11
162.0419939999999883
21
-120.3626280000000008
0
LINE
8
BLACK
6
CONTINUOUS
10
162.0419939999999883
20
-120.3626280000000008
11
162.0028360000000021
21
-120.2948049999999967
0
LINE
8
BLACK
6
CONTINUOUS
10
162.0028360000000021
20
-120.2948049999999967
11
161.9825669999999889
21
-120.2191579999999931
0
LINE
8
BLACK
6
CONTINUOUS
10
161.9825669999999889
20
-120.2191579999999931
11
161.9799999999999898
21
-120.1799999999999926
0
LINE
8
BLACK
6
CONTINUOUS
10
161.9799999999999898
20
-120.1799999999999926
11
161.9799999999999898
21
-119.1174789999999888
0
LINE
8
BLACK
6
CONTINUOUS
10
161.9799999999999898
20
-119.1174789999999888
11
161.9028830000000028
21
-119.085536999999988
0
LINE
8
BLACK
6
CONTINUOUS
10
161.9028830000000028
20
-119.085536999999988
11
161.772484999999989
21
-118.9984079999999977
0
LINE
8
BLACK
6
CONTINUOUS
10
161.772484999999989
20
-118.9984079999999977
11
161.6615919999999846
21
-118.8875149999999934
0
LINE
8
BLACK
6
CONTINUOUS
10
161.6615919999999846
20
-118.8875149999999934
11
161.5744629999999802
21
-118.7571169999999938
0
LINE
8
BLACK
6
CONTINUOUS
10
161.5744629999999802
20
-118.7571169999999938
11
161.5144479999999874
21
-118.6122279999999876
0
LINE
8
BLACK
6
CONTINUOUS
10
161.5144479999999874
20
-118.6122279999999876
11
161.4838519999999846
21
-118.4584139999999906
0
LINE
8
BLACK
6
CONTINUOUS
10
161.4838519999999846
20
-118.4584139999999906
11
161.4838519999999846
21
-118.3015860000000004
0
LINE
8
BLACK
6
CONTINUOUS
10
161.4838519999999846
20
-118.3015860000000004
11
161.5144479999999874
21
-118.1477719999999891
0
LINE
8
BLACK
6
CONTINUOUS
10
161.5144479999999874
20
-118.1477719999999891
11
161.5744629999999802
21
-118.0028829999999971
0
LINE
8
BLACK
6
CONTINUOUS
10
161.5744629999999802
20
-118.0028829999999971
11
161.6615919999999846
21
-117.8724849999999975
0
LINE
8
BLACK
6
CONTINUOUS
10
161.6615919999999846
20
-117.8724849999999975
11
161.772484999999989
21
-117.7615919999999932
0
LINE
8
BLACK
6
CONTINUOUS
10
161.772484999999989
20
-117.7615919999999932
11
161.9028830000000028
21
-117.6744629999999887
0
LINE
8
BLACK
6
CONTINUOUS
10
161.9028830000000028
20
-117.6744629999999887
11
161.9799999999999898
21
-117.6425199999999904
0
LINE
8
BLACK
6
CONTINUOUS
10
161.9799999999999898
20
-117.6425199999999904
11
161.9799999999999898
21
-117.4200000000000017
0
LINE
8
BLACK
6
CONTINUOUS
10
161.9799999999999898
20
-117.4200000000000017
11
161.9825669999999889
21
-117.3808420000000012
0
LINE
8
BLACK
6
CONTINUOUS
10
161.9825669999999889
20
-117.3808420000000012
11
162.0028360000000021
21
-117.3051949999999977
0
LINE
8
BLACK
6
CONTINUOUS
10
162.0028360000000021
20
-117.3051949999999977
11
162.0419939999999883
21
-117.2373719999999935
0
LINE
8
BLACK
6
CONTINUOUS
10
162.0419939999999883
20
-117.2373719999999935
11
162.0678680000000043
21
-117.2078679999999906
0
LINE
8
BLACK
6
CONTINUOUS
10
162.0678680000000043
20
-117.2078679999999906
11
163.5999999999999943
21
-115.6757360000000006
0
LINE
8
BLACK
6
CONTINUOUS
10
163.5999999999999943
20
-115.6757360000000006
11
163.5999999999999943
21
-114.875
0
LINE
8
BLACK
6
CONTINUOUS
10
163.5999999999999943
20
-114.875
11
163.6190299999999809
21
-114.7793289999999899
0
LINE
8
BLACK
6
CONTINUOUS
10
163.6190299999999809
20
-114.7793289999999899
11
163.6732229999999788
21
-114.6982229999999987
0
LINE
8
BLACK
6
CONTINUOUS
10
163.6732229999999788
20
-114.6982229999999987
11
163.7543289999999843
21
-114.6440300000000008
0
LINE
8
BLACK
6
CONTINUOUS
10
163.7543289999999843
20
-114.6440300000000008
11
163.8499999999999943
21
-114.625
0
LINE
8
BLACK
6
CONTINUOUS
10
163.8499999999999943
20
-114.625
11
163.9000000000000057
21
-114.625
0
LINE
8
BLACK
6
CONTINUOUS
10
163.9000000000000057
20
-114.625
11
163.9000000000000057
21
-112.7999999999999972
0
LINE
8
BLACK
6
CONTINUOUS
10
163.9000000000000057
20
-112.7999999999999972
11
163.9000000000000057
21
-110.0999999999999943
0
LINE
8
BLACK
6
CONTINUOUS
10
163.9000000000000057
20
-110.0999999999999943
11
163.9025670000000048
21
-110.0608419999999938
0
LINE
8
BLACK
6
CONTINUOUS
10
163.9025670000000048
20
-110.0608419999999938
11
163.9228359999999896
21
-109.9851949999999903
0
LINE
8
BLACK
6
CONTINUOUS
10
163.9228359999999896
20
-109.9851949999999903
11
163.9619940000000042
21
-109.9173720000000003
0
LINE
8
BLACK
6
CONTINUOUS
10
163.9619940000000042
20
-109.9173720000000003
11
164.0173719999999946
21
-109.8619939999999957
0
LINE
8
BLACK
6
CONTINUOUS
10
164.0173719999999946
20
-109.8619939999999957
11
164.0851949999999988
21
-109.8228359999999952
0
LINE
8
BLACK
6
CONTINUOUS
10
164.0851949999999988
20
-109.8228359999999952
11
164.1608420000000024
21
-109.8025669999999963
0
LINE
8
BLACK
6
CONTINUOUS
10
164.1608420000000024
20
-109.8025669999999963
11
164.2391580000000033
21
-109.8025669999999963
0
LINE
8
BLACK
6
CONTINUOUS
10
164.2391580000000033
20
-109.8025669999999963
11
164.3148049999999785
21
-109.8228359999999952
0
LINE
8
BLACK
6
CONTINUOUS
10
165.0522279999999853
20
-117.6144479999999959
11
165.1971169999999915
21
-117.6744629999999887
0
LINE
8
BLACK
6
CONTINUOUS
10
165.1971169999999915
20
-117.6744629999999887
11
165.3275150000000053
21
-117.7615919999999932
0
LINE
8
BLACK
6
CONTINUOUS
10
165.3275150000000053
20
-117.7615919999999932
11
165.4384079999999813
21
-117.8724849999999975
0
LINE
8
BLACK
6
CONTINUOUS
10
165.4384079999999813
20
-117.8724849999999975
11
165.5255369999999857
21
-118.0028829999999971
0
LINE
8
BLACK
6
CONTINUOUS
10
165.5255369999999857
20
-118.0028829999999971
11
165.5855519999999785
21
-118.1477719999999891
0
LINE
8
BLACK
6
CONTINUOUS
10
165.5855519999999785
20
-118.1477719999999891
11
165.6161479999999813
21
-118.3015860000000004
0
LINE
8
BLACK
6
CONTINUOUS
10
165.6161479999999813
20
-118.3015860000000004
11
165.6161479999999813
21
-118.4584139999999906
0
LINE
8
BLACK
6
CONTINUOUS
10
165.6161479999999813
20
-118.4584139999999906
11
165.5855519999999785
21
-118.6122279999999876
0
LINE
8
BLACK
6
CONTINUOUS
10
165.5855519999999785
20
-118.6122279999999876
11
165.5255369999999857
21
-118.7571169999999938
0
LINE
8
BLACK
6
CONTINUOUS
10
165.5255369999999857
20
-118.7571169999999938
11
165.4384079999999813
21
-118.8875149999999934
0
LINE
8
BLACK
6
CONTINUOUS
10
165.4384079999999813
20
-118.8875149999999934
11
165.3275150000000053
21
-118.9984079999999977
0
LINE
8
BLACK
6
CONTINUOUS
10
165.3275150000000053
20
-118.9984079999999977
11
165.1971169999999915
21
-119.085536999999988
0
LINE
8
BLACK
6
CONTINUOUS
10
165.1971169999999915
20
-119.085536999999988
11
165.1200000000000045
21
-119.1174789999999888
0
LINE
8
BLACK
6
CONTINUOUS
10
165.1200000000000045
20
-119.1174789999999888
11
165.1200000000000045
21
-120.1799999999999926
0
LINE
8
BLACK
6
CONTINUOUS
10
165.1200000000000045
20
-120.1799999999999926
11
165.1200000000000045
21
-121.8799999999999955
0
LINE
8
BLACK
6
CONTINUOUS
10
165.1200000000000045
20
-121.8799999999999955
11
165.1174330000000054
21
-121.9191579999999959
0
LINE
8
BLACK
6
CONTINUOUS
10
165.1174330000000054
20
-121.9191579999999959
11
165.0971639999999923
21
-121.9948049999999995
0
LINE
8
BLACK
6
CONTINUOUS
10
165.0971639999999923
20
-121.9948049999999995
11
165.058006000000006
21
-122.0626279999999895
0
LINE
8
BLACK
6
CONTINUOUS
10
165.058006000000006
20
-122.0626279999999895
11
165.0321319999999901
21
-122.0921319999999923
0
LINE
8
BLACK
6
CONTINUOUS
10
165.0321319999999901
20
-122.0921319999999923
11
164.2121319999999969
21
-122.9121319999999997
0
LINE
8
BLACK
6
CONTINUOUS
10
164.2121319999999969
20
-122.9121319999999997
11
164.182627999999994
21
-122.9380060000000014
0
LINE
8
BLACK
6
CONTINUOUS
10
164.182627999999994
20
-122.9380060000000014
11
164.1148049999999898
21
-122.9771639999999877
0
LINE
8
BLACK
6
CONTINUOUS
10
164.1148049999999898
20
-122.9771639999999877
11
164.0391579999999863
21
-122.9974330000000009
0
LINE
8
BLACK
6
CONTINUOUS
10
164.0391579999999863
20
-122.9974330000000009
11
163.9608419999999853
21
-122.9974330000000009
0
LINE
8
BLACK
6
CONTINUOUS
10
163.9608419999999853
20
-122.9974330000000009
11
163.8851949999999817
21
-122.9771639999999877
0
LINE
8
BLACK
6
CONTINUOUS
10
163.8851949999999817
20
-122.9771639999999877
11
163.817372000000006
21
-122.9380060000000014
0
LINE
8
BLACK
6
CONTINUOUS
10
163.817372000000006
20
-122.9380060000000014
11
163.7619939999999872
21
-122.8826279999999969
0
LINE
8
BLACK
6
CONTINUOUS
10
163.7619939999999872
20
-122.8826279999999969
11
163.7228360000000009
21
-122.8148049999999927
0
LINE
8
BLACK
6
CONTINUOUS
10
163.7228360000000009
20
-122.8148049999999927
11
163.7025669999999877
21
-122.7391579999999891
0
LINE
8
BLACK
6
CONTINUOUS
10
163.7025669999999877
20
-122.7391579999999891
11
163.7025669999999877
21
-122.6608419999999882
0
LINE
8
BLACK
6
CONTINUOUS
10
163.7025669999999877
20
-122.6608419999999882
11
163.7228360000000009
21
-122.5851949999999988
0
LINE
8
BLACK
6
CONTINUOUS
10
163.7228360000000009
20
-122.5851949999999988
11
163.7619939999999872
21
-122.5173719999999946
0
LINE
8
BLACK
6
CONTINUOUS
10
163.7619939999999872
20
-122.5173719999999946
11
163.7878680000000031
21
-122.4878679999999918
0
LINE
8
BLACK
6
CONTINUOUS
10
163.7878680000000031
20
-122.4878679999999918
11
164.5199999999999818
21
-121.7557359999999989
0
LINE
8
BLACK
6
CONTINUOUS
10
164.5199999999999818
20
-121.7557359999999989
11
164.5199999999999818
21
-120.1799999999999926
0
LINE
8
BLACK
6
CONTINUOUS
10
164.5199999999999818
20
-120.1799999999999926
11
164.5199999999999818
21
-119.1174789999999888
0
LINE
8
BLACK
6
CONTINUOUS
10
164.5199999999999818
20
-119.1174789999999888
11
164.4428829999999948
21
-119.085536999999988
0
LINE
8
BLACK
6
CONTINUOUS
10
164.4428829999999948
20
-119.085536999999988
11
164.312484999999981
21
-118.9984079999999977
0
LINE
8
BLACK
6
CONTINUOUS
10
164.312484999999981
20
-118.9984079999999977
11
164.2015920000000051
21
-118.8875149999999934
0
LINE
8
BLACK
6
CONTINUOUS
10
164.2015920000000051
20
-118.8875149999999934
11
164.1144630000000006
21
-118.7571169999999938
0
LINE
8
BLACK
6
CONTINUOUS
10
164.1144630000000006
20
-118.7571169999999938
11
164.0544479999999794
21
-118.6122279999999876
0
LINE
8
BLACK
6
CONTINUOUS
10
164.0544479999999794
20
-118.6122279999999876
11
164.0238520000000051
21
-118.4584139999999906
0
LINE
8
BLACK
6
CONTINUOUS
10
164.0238520000000051
20
-118.4584139999999906
11
164.0238520000000051
21
-118.3015860000000004
0
LINE
8
BLACK
6
CONTINUOUS
10
164.0238520000000051
20
-118.3015860000000004
11
164.0544479999999794
21
-118.1477719999999891
0
LINE
8
BLACK
6
CONTINUOUS
10
164.0544479999999794
20
-118.1477719999999891
11
164.1144630000000006
21
-118.0028829999999971
0
LINE
8
BLACK
6
CONTINUOUS
10
164.1144630000000006
20
-118.0028829999999971
11
164.2015920000000051
21
-117.8724849999999975
0
LINE
8
BLACK
6
CONTINUOUS
10
164.2015920000000051
20
-117.8724849999999975
11
164.312484999999981
21
-117.7615919999999932
0
LINE
8
BLACK
6
CONTINUOUS
10
164.312484999999981
20
-117.7615919999999932
11
164.4428829999999948
21
-117.6744629999999887
0
LINE
8
BLACK
6
CONTINUOUS
10
164.4428829999999948
20
-117.6744629999999887
11
164.5877720000000011
21
-117.6144479999999959
0
LINE
8
BLACK
6
CONTINUOUS
10
164.5877720000000011
20
-117.6144479999999959
11
164.7415859999999839
21
-117.5838519999999932
0
LINE
8
BLACK
6
CONTINUOUS
10
164.7415859999999839
20
-117.5838519999999932
11
164.8984140000000025
21
-117.5838519999999932
0
LINE
8
BLACK
6
CONTINUOUS
10
164.8984140000000025
20
-117.5838519999999932
11
165.0522279999999853
21
-117.6144479999999959
0
LINE
8
BLACK
6
CONTINUOUS
10
171.2222380000000044
20
-122.2957849999999951
11
171.227091999999999
21
-122.3006389999999897
0
LINE
8
BLACK
6
CONTINUOUS
10
171.227091999999999
20
-122.3006389999999897
11
171.2337189999999794
21
-122.3024470000000008
0
LINE
8
BLACK
6
CONTINUOUS
10
171.2337189999999794
20
-122.3024470000000008
11
171.2401439999999866
21
-122.3136909999999915
0
LINE
8
BLACK
6
CONTINUOUS
10
171.2401439999999866
20
-122.3136909999999915
11
171.2492979999999818
21
-122.3228450000000009
0
LINE
8
BLACK
6
CONTINUOUS
10
171.2492979999999818
20
-122.3228450000000009
11
171.2492979999999818
21
-122.3297099999999915
0
LINE
8
BLACK
6
CONTINUOUS
10
171.2492979999999818
20
-122.3297099999999915
11
171.2527049999999917
21
-122.3356729999999999
0
LINE
8
BLACK
6
CONTINUOUS
10
171.2527049999999917
20
-122.3356729999999999
11
171.2492979999999818
21
-122.3481649999999945
0
LINE
8
BLACK
6
CONTINUOUS
10
171.2492979999999818
20
-122.3481649999999945
11
171.2492979999999818
21
-122.3611129999999889
0
LINE
8
BLACK
6
CONTINUOUS
10
171.2492979999999818
20
-122.3611129999999889
11
171.2444419999999923
21
-122.3659679999999952
0
LINE
8
BLACK
6
CONTINUOUS
10
171.2444419999999923
20
-122.3659679999999952
11
171.2426360000000045
21
-122.3725929999999948
0
LINE
8
BLACK
6
CONTINUOUS
10
171.2426360000000045
20
-122.3725929999999948
11
171.227911000000006
21
-122.3853909999999985
0
LINE
8
BLACK
6
CONTINUOUS
10
171.227911000000006
20
-122.3853909999999985
11
170.5913819999999816
21
-122.7491219999999998
0
LINE
8
BLACK
6
CONTINUOUS
10
170.5913819999999816
20
-122.7491219999999998
11
171.2031039999999962
21
-122.7491219999999998
0
LINE
8
BLACK
6
CONTINUOUS
10
171.2031039999999962
20
-122.7491219999999998
11
171.2222380000000044
21
-122.7529279999999972
0
LINE
8
BLACK
6
CONTINUOUS
10
171.2222380000000044
20
-122.7529279999999972
11
171.2492979999999818
21
-122.7799879999999888
0
LINE
8
BLACK
6
CONTINUOUS
10
171.2492979999999818
20
-122.7799879999999888
11
171.2492979999999818
21
-122.818255999999991
0
LINE
8
BLACK
6
CONTINUOUS
10
171.2492979999999818
20
-122.818255999999991
11
171.2222380000000044
21
-122.8453159999999968
0
LINE
8
BLACK
6
CONTINUOUS
10
171.2222380000000044
20
-122.8453159999999968
11
171.2031039999999962
21
-122.8491219999999942
0
LINE
8
BLACK
6
CONTINUOUS
10
171.2031039999999962
20
-122.8491219999999942
11
170.4031039999999848
21
-122.8491219999999942
0
LINE
8
BLACK
6
CONTINUOUS
10
170.4031039999999848
20
-122.8491219999999942
11
170.383970000000005
21
-122.8453159999999968
0
LINE
8
BLACK
6
CONTINUOUS
10
170.383970000000005
20
-122.8453159999999968
11
170.3791139999999871
21
-122.8404599999999931
0
LINE
8
BLACK
6
CONTINUOUS
10
170.3791139999999871
20
-122.8404599999999931
11
170.3724899999999991
21
-122.8386539999999911
0
LINE
8
BLACK
6
CONTINUOUS
10
170.3724899999999991
20
-122.8386539999999911
11
170.3660649999999919
21
-122.8274109999999979
0
LINE
8
BLACK
6
CONTINUOUS
10
170.3660649999999919
20
-122.8274109999999979
11
170.3569099999999992
21
-122.818255999999991
0
LINE
8
BLACK
6
CONTINUOUS
10
170.3569099999999992
20
-122.818255999999991
11
170.3569099999999992
21
-122.8113899999999887
0
LINE
8
BLACK
6
CONTINUOUS
10
170.3569099999999992
20
-122.8113899999999887
11
170.3535029999999892
21
-122.805427999999992
0
LINE
8
BLACK
6
CONTINUOUS
10
170.3535029999999892
20
-122.805427999999992
11
170.3569099999999992
21
-122.7929349999999999
0
LINE
8
BLACK
6
CONTINUOUS
10
170.3569099999999992
20
-122.7929349999999999
11
170.3569099999999992
21
-122.7799879999999888
0
LINE
8
BLACK
6
CONTINUOUS
10
170.3569099999999992
20
-122.7799879999999888
11
170.3617649999999912
21
-122.7751319999999993
0
LINE
8
BLACK
6
CONTINUOUS
10
170.3617649999999912
20
-122.7751319999999993
11
170.3635720000000049
21
-122.7685079999999971
0
LINE
8
BLACK
6
CONTINUOUS
10
170.3635720000000049
20
-122.7685079999999971
11
170.3782970000000034
21
-122.7557099999999934
0
LINE
8
BLACK
6
CONTINUOUS
10
170.3782970000000034
20
-122.7557099999999934
11
171.0148259999999993
21
-122.3919789999999921
0
LINE
8
BLACK
6
CONTINUOUS
10
171.0148259999999993
20
-122.3919789999999921
11
170.4031039999999848
21
-122.3919789999999921
0
LINE
8
BLACK
6
CONTINUOUS
10
170.4031039999999848
20
-122.3919789999999921
11
170.383970000000005
21
-122.3881729999999948
0
LINE
8
BLACK
6
CONTINUOUS
10
170.383970000000005
20
-122.3881729999999948
11
170.3569099999999992
21
-122.3611129999999889
0
LINE
8
BLACK
6
CONTINUOUS
10
170.3569099999999992
20
-122.3611129999999889
11
170.3569099999999992
21
-122.3228450000000009
0
LINE
8
BLACK
6
CONTINUOUS
10
170.3569099999999992
20
-122.3228450000000009
11
170.383970000000005
21
-122.2957849999999951
0
LINE
8
BLACK
6
CONTINUOUS
10
170.383970000000005
20
-122.2957849999999951
11
170.4031039999999848
21
-122.2919789999999978
0
LINE
8
BLACK
6
CONTINUOUS
10
170.4031039999999848
20
-122.2919789999999978
11
171.2031039999999962
21
-122.2919789999999978
0
LINE
8
BLACK
6
CONTINUOUS
10
171.2031039999999962
20
-122.2919789999999978
11
171.2222380000000044
21
-122.2957849999999951
0
LINE
8
BLACK
6
CONTINUOUS
10
160.8943369999999788
20
-122.4243589999999955
11
160.910554999999988
21
-122.4351959999999906
0
LINE
8
BLACK
6
CONTINUOUS
10
160.910554999999988
20
-122.4351959999999906
11
160.9581739999999854
21
-122.4828139999999905
0
LINE
8
BLACK
6
CONTINUOUS
10
160.9581739999999854
20
-122.4828139999999905
11
160.9690129999999897
21
-122.4990349999999921
0
LINE
8
BLACK
6
CONTINUOUS
10
160.9690129999999897
20
-122.4990349999999921
11
160.9690129999999897
21
-122.4990359999999896
0
LINE
8
BLACK
6
CONTINUOUS
10
160.9690129999999897
20
-122.4990359999999896
11
160.9690129999999897
21
-122.5373049999999893
0
LINE
8
BLACK
6
CONTINUOUS
10
160.9690129999999897
20
-122.5373049999999893
11
160.9581739999999854
21
-122.5535259999999909
0
LINE
8
BLACK
6
CONTINUOUS
10
160.9581739999999854
20
-122.5535259999999909
11
160.910554999999988
21
-122.6011439999999908
0
LINE
8
BLACK
6
CONTINUOUS
10
160.910554999999988
20
-122.6011439999999908
11
160.8943369999999788
21
-122.6119799999999884
0
LINE
8
BLACK
6
CONTINUOUS
10
160.8943369999999788
20
-122.6119799999999884
11
160.8943349999999839
21
-122.6119829999999951
0
LINE
8
BLACK
6
CONTINUOUS
10
160.8943349999999839
20
-122.6119829999999951
11
160.8560659999999984
21
-122.6119829999999951
0
LINE
8
BLACK
6
CONTINUOUS
10
160.8560659999999984
20
-122.6119829999999951
11
160.8398449999999968
21
-122.6011449999999883
0
LINE
8
BLACK
6
CONTINUOUS
10
160.8398449999999968
20
-122.6011449999999883
11
160.792225000000002
21
-122.5535259999999909
0
LINE
8
BLACK
6
CONTINUOUS
10
160.792225000000002
20
-122.5535259999999909
11
160.7813859999999977
21
-122.5373049999999893
0
LINE
8
BLACK
6
CONTINUOUS
10
160.7813859999999977
20
-122.5373049999999893
11
160.7813859999999977
21
-122.4990359999999896
0
LINE
8
BLACK
6
CONTINUOUS
10
160.7813859999999977
20
-122.4990359999999896
11
160.7813859999999977
21
-122.4990349999999921
0
LINE
8
BLACK
6
CONTINUOUS
10
160.7813859999999977
20
-122.4990349999999921
11
160.792225000000002
21
-122.4828139999999905
0
LINE
8
BLACK
6
CONTINUOUS
10
160.792225000000002
20
-122.4828139999999905
11
160.8398449999999968
21
-122.4351949999999931
0
LINE
8
BLACK
6
CONTINUOUS
10
160.8398449999999968
20
-122.4351949999999931
11
160.8560659999999984
21
-122.4243570000000005
0
LINE
8
BLACK
6
CONTINUOUS
10
160.8560659999999984
20
-122.4243570000000005
11
160.8943349999999839
21
-122.4243570000000005
0
LINE
8
BLACK
6
CONTINUOUS
10
160.8943349999999839
20
-122.4243570000000005
11
160.8943369999999788
21
-122.4243589999999955
0
LINE
8
BLACK
6
CONTINUOUS
10
161.4526369999999815
20
-121.4693649999999963
11
161.4587549999999965
21
-121.4696629999999971
0
LINE
8
BLACK
6
CONTINUOUS
10
161.4587549999999965
20
-121.4696629999999971
11
161.6492309999999861
21
-121.5172819999999945
0
LINE
8
BLACK
6
CONTINUOUS
10
161.6492309999999861
20
-121.5172819999999945
11
161.6541829999999891
21
-121.5196210000000008
0
LINE
8
BLACK
6
CONTINUOUS
10
161.6541829999999891
20
-121.5196210000000008
11
161.6594649999999831
21
-121.5210679999999996
0
LINE
8
BLACK
6
CONTINUOUS
10
161.6594649999999831
20
-121.5210679999999996
11
161.7547019999999804
21
-121.5686859999999996
0
LINE
8
BLACK
6
CONTINUOUS
10
161.7547019999999804
20
-121.5686859999999996
11
161.7610349999999926
21
-121.5736009999999965
0
LINE
8
BLACK
6
CONTINUOUS
10
161.7610349999999926
20
-121.5736009999999965
11
161.7676969999999983
21
-121.578052999999997
0
LINE
8
BLACK
6
CONTINUOUS
10
161.7676969999999983
20
-121.578052999999997
11
161.8153159999999957
21
-121.625670999999997
0
LINE
8
BLACK
6
CONTINUOUS
10
161.8153159999999957
20
-121.625670999999997
11
161.8197700000000054
21
-121.6323369999999926
0
LINE
8
BLACK
6
CONTINUOUS
10
161.8197700000000054
20
-121.6323369999999926
11
161.8246819999999957
21
-121.6386660000000006
0
LINE
8
BLACK
6
CONTINUOUS
10
161.8246819999999957
20
-121.6386660000000006
11
161.8723009999999931
21
-121.7339039999999954
0
LINE
8
BLACK
6
CONTINUOUS
10
161.8723009999999931
20
-121.7339039999999954
11
161.8729620000000011
21
-121.7363189999999946
0
LINE
8
BLACK
6
CONTINUOUS
10
161.8729620000000011
20
-121.7363189999999946
11
161.8737739999999974
21
-121.7371309999999909
0
LINE
8
BLACK
6
CONTINUOUS
10
161.8737739999999974
20
-121.7371309999999909
11
161.8753370000000018
21
-121.7449919999999963
0
LINE
8
BLACK
6
CONTINUOUS
10
161.8753370000000018
20
-121.7449919999999963
11
161.8774540000000002
21
-121.7527199999999965
0
LINE
8
BLACK
6
CONTINUOUS
10
161.8774540000000002
20
-121.7527199999999965
11
161.8770909999999787
21
-121.7538079999999923
0
LINE
8
BLACK
6
CONTINUOUS
10
161.8770909999999787
20
-121.7538079999999923
11
161.8775799999999947
21
-121.7562649999999991
0
LINE
8
BLACK
6
CONTINUOUS
10
161.8775799999999947
20
-121.7562649999999991
11
161.8775799999999947
21
-121.8515029999999939
0
LINE
8
BLACK
6
CONTINUOUS
10
161.8775799999999947
20
-121.8515029999999939
11
161.8770909999999787
21
-121.853958999999989
0
LINE
8
BLACK
6
CONTINUOUS
10
161.8770909999999787
20
-121.853958999999989
11
161.8774540000000002
21
-121.8550479999999965
0
LINE
8
BLACK
6
CONTINUOUS
10
161.8774540000000002
20
-121.8550479999999965
11
161.8753370000000018
21
-121.8627749999999992
0
LINE
8
BLACK
6
CONTINUOUS
10
161.8753370000000018
20
-121.8627749999999992
11
161.8737739999999974
21
-121.8706369999999879
0
LINE
8
BLACK
6
CONTINUOUS
10
161.8737739999999974
20
-121.8706369999999879
11
161.8729620000000011
21
-121.8714480000000009
0
LINE
8
BLACK
6
CONTINUOUS
10
161.8729620000000011
20
-121.8714480000000009
11
161.8723009999999931
21
-121.8738639999999975
0
LINE
8
BLACK
6
CONTINUOUS
10
161.8723009999999931
20
-121.8738639999999975
11
161.8246819999999957
21
-121.9691019999999924
0
LINE
8
BLACK
6
CONTINUOUS
10
161.8246819999999957
20
-121.9691019999999924
11
161.8197700000000054
21
-121.9754299999999887
0
LINE
8
BLACK
6
CONTINUOUS
10
161.8197700000000054
20
-121.9754299999999887
11
161.8153159999999957
21
-121.982096999999996
0
LINE
8
BLACK
6
CONTINUOUS
10
161.8153159999999957
20
-121.982096999999996
11
161.7676969999999983
21
-122.0297149999999959
0
LINE
8
BLACK
6
CONTINUOUS
10
161.7676969999999983
20
-122.0297149999999959
11
161.7610349999999926
21
-122.034165999999999
0
LINE
8
BLACK
6
CONTINUOUS
10
161.7610349999999926
20
-122.034165999999999
11
161.7547019999999804
21
-122.0390819999999934
0
LINE
8
BLACK
6
CONTINUOUS
10
161.7547019999999804
20
-122.0390819999999934
11
161.6594649999999831
21
-122.0866999999999933
0
LINE
8
BLACK
6
CONTINUOUS
10
161.6594649999999831
20
-122.0866999999999933
11
161.6541829999999891
21
-122.0881459999999947
0
LINE
8
BLACK
6
CONTINUOUS
10
161.6541829999999891
20
-122.0881459999999947
11
161.6492309999999861
21
-122.0904859999999985
0
LINE
8
BLACK
6
CONTINUOUS
10
161.6492309999999861
20
-122.0904859999999985
11
161.4587549999999965
21
-122.1381049999999959
0
LINE
8
BLACK
6
CONTINUOUS
10
161.4587549999999965
20
-122.1381049999999959
11
161.4526369999999815
21
-122.1384019999999992
0
LINE
8
BLACK
6
CONTINUOUS
10
161.4526369999999815
20
-122.1384019999999992
11
161.446628000000004
21
-122.1395979999999923
0
LINE
8
BLACK
6
CONTINUOUS
10
161.446628000000004
20
-122.1395979999999923
11
161.2085329999999885
21
-122.1395979999999923
0
LINE
8
BLACK
6
CONTINUOUS
10
161.2085329999999885
20
-122.1395979999999923
11
161.2025229999999851
21
-122.1384019999999992
0
LINE
8
BLACK
6
CONTINUOUS
10
161.2025229999999851
20
-122.1384019999999992
11
161.1964059999999961
21
-122.1381049999999959
0
LINE
8
BLACK
6
CONTINUOUS
10
161.1964059999999961
20
-122.1381049999999959
11
161.0059300000000064
21
-122.0904859999999985
0
LINE
8
BLACK
6
CONTINUOUS
10
161.0059300000000064
20
-122.0904859999999985
11
161.000977000000006
21
-122.0881459999999947
0
LINE
8
BLACK
6
CONTINUOUS
10
161.000977000000006
20
-122.0881459999999947
11
160.995695999999981
21
-122.0866999999999933
0
LINE
8
BLACK
6
CONTINUOUS
10
160.995695999999981
20
-122.0866999999999933
11
160.9004579999999862
21
-122.0390809999999959
0
LINE
8
BLACK
6
CONTINUOUS
10
160.9004579999999862
20
-122.0390809999999959
11
160.8941289999999924
21
-122.0341689999999915
0
LINE
8
BLACK
6
CONTINUOUS
10
160.8941289999999924
20
-122.0341689999999915
11
160.8874629999999968
21
-122.0297149999999959
0
LINE
8
BLACK
6
CONTINUOUS
10
160.8874629999999968
20
-122.0297149999999959
11
160.8398449999999968
21
-121.9820959999999985
0
LINE
8
BLACK
6
CONTINUOUS
10
160.8398449999999968
20
-121.9820959999999985
11
160.8353939999999795
21
-121.9754359999999878
0
LINE
8
BLACK
6
CONTINUOUS
10
160.8353939999999795
20
-121.9754359999999878
11
160.8304789999999969
21
-121.9691019999999924
0
LINE
8
BLACK
6
CONTINUOUS
10
160.8304789999999969
20
-121.9691019999999924
11
160.782859000000002
21
-121.8738639999999975
0
LINE
8
BLACK
6
CONTINUOUS
10
160.782859000000002
20
-121.8738639999999975
11
160.7821969999999965
21
-121.8714480000000009
0
LINE
8
BLACK
6
CONTINUOUS
10
160.7821969999999965
20
-121.8714480000000009
11
160.7813859999999977
21
-121.8706369999999879
0
LINE
8
BLACK
6
CONTINUOUS
10
160.7813859999999977
20
-121.8706369999999879
11
160.7798219999999958
21
-121.8627749999999992
0
LINE
8
BLACK
6
CONTINUOUS
10
160.7798219999999958
20
-121.8627749999999992
11
160.7777059999999949
21
-121.8550479999999965
0
LINE
8
BLACK
6
CONTINUOUS
10
160.7777059999999949
20
-121.8550479999999965
11
160.7780679999999904
21
-121.853958999999989
0
LINE
8
BLACK
6
CONTINUOUS
10
160.7780679999999904
20
-121.853958999999989
11
160.7775800000000004
21
-121.8515029999999939
0
LINE
8
BLACK
6
CONTINUOUS
10
160.7775800000000004
20
-121.8515029999999939
11
160.7775800000000004
21
-121.7562649999999991
0
LINE
8
BLACK
6
CONTINUOUS
10
160.7775800000000004
20
-121.7562649999999991
11
160.7780679999999904
21
-121.7538079999999923
0
LINE
8
BLACK
6
CONTINUOUS
10
160.7780679999999904
20
-121.7538079999999923
11
160.7777059999999949
21
-121.7527199999999965
0
LINE
8
BLACK
6
CONTINUOUS
10
160.7777059999999949
20
-121.7527199999999965
11
160.7798219999999958
21
-121.7449919999999963
0
LINE
8
BLACK
6
CONTINUOUS
10
160.7798219999999958
20
-121.7449919999999963
11
160.7813859999999977
21
-121.7371309999999909
0
LINE
8
BLACK
6
CONTINUOUS
10
160.7813859999999977
20
-121.7371309999999909
11
160.7821969999999965
21
-121.7363189999999946
0
LINE
8
BLACK
6
CONTINUOUS
10
160.7821969999999965
20
-121.7363189999999946
11
160.782859000000002
21
-121.7339039999999954
0
LINE
8
BLACK
6
CONTINUOUS
10
160.782859000000002
20
-121.7339039999999954
11
160.8304789999999969
21
-121.6386660000000006
0
LINE
8
BLACK
6
CONTINUOUS
10
160.8304789999999969
20
-121.6386660000000006
11
160.8353939999999795
21
-121.6323309999999935
0
LINE
8
BLACK
6
CONTINUOUS
10
160.8353939999999795
20
-121.6323309999999935
11
160.8398449999999968
21
-121.6256719999999945
0
LINE
8
BLACK
6
CONTINUOUS
10
160.8398449999999968
20
-121.6256719999999945
11
160.8874629999999968
21
-121.578052999999997
0
LINE
8
BLACK
6
CONTINUOUS
10
160.8874629999999968
20
-121.578052999999997
11
160.8941289999999924
21
-121.5735979999999898
0
LINE
8
BLACK
6
CONTINUOUS
10
160.8941289999999924
20
-121.5735979999999898
11
160.9004579999999862
21
-121.5686869999999971
0
LINE
8
BLACK
6
CONTINUOUS
10
160.9004579999999862
20
-121.5686869999999971
11
160.995695999999981
21
-121.5210679999999996
0
LINE
8
BLACK
6
CONTINUOUS
10
160.995695999999981
20
-121.5210679999999996
11
161.000977000000006
21
-121.5196210000000008
0
LINE
8
BLACK
6
CONTINUOUS
10
161.000977000000006
20
-121.5196210000000008
11
161.0059300000000064
21
-121.5172819999999945
0
LINE
8
BLACK
6
CONTINUOUS
10
161.0059300000000064
20
-121.5172819999999945
11
161.1964059999999961
21
-121.4696629999999971
0
LINE
8
BLACK
6
CONTINUOUS
10
161.1964059999999961
20
-121.4696629999999971
11
161.2025229999999851
21
-121.4693649999999963
0
LINE
8
BLACK
6
CONTINUOUS
10
161.2025229999999851
20
-121.4693649999999963
11
161.2085329999999885
21
-121.4681700000000006
0
LINE
8
BLACK
6
CONTINUOUS
10
161.2085329999999885
20
-121.4681700000000006
11
161.446628000000004
21
-121.4681700000000006
0
LINE
8
BLACK
6
CONTINUOUS
10
161.446628000000004
20
-121.4681700000000006
11
161.4526369999999815
21
-121.4693649999999963
0
LINE
8
BLACK
6
CONTINUOUS
10
161.0355089999999905
20
-121.612963999999991
11
160.9524370000000033
21
-121.6544999999999987
0
LINE
8
BLACK
6
CONTINUOUS
10
160.9524370000000033
20
-121.6544999999999987
11
160.9162919999999986
21
-121.6906439999999918
0
LINE
8
BLACK
6
CONTINUOUS
10
160.9162919999999986
20
-121.6906439999999918
11
160.8775799999999947
21
-121.7680679999999995
0
LINE
8
BLACK
6
CONTINUOUS
10
160.8775799999999947
20
-121.7680679999999995
11
160.8775799999999947
21
-121.839698999999996
0
LINE
8
BLACK
6
CONTINUOUS
10
160.8775799999999947
20
-121.839698999999996
11
160.9162919999999986
21
-121.9171229999999895
0
LINE
8
BLACK
6
CONTINUOUS
10
160.9162919999999986
20
-121.9171229999999895
11
160.9524370000000033
21
-121.9532669999999968
0
LINE
8
BLACK
6
CONTINUOUS
10
160.9524370000000033
20
-121.9532669999999968
11
161.0355089999999905
21
-121.9948029999999903
0
LINE
8
BLACK
6
CONTINUOUS
10
161.0355089999999905
20
-121.9948029999999903
11
161.2146879999999953
21
-122.039597999999998
0
LINE
8
BLACK
6
CONTINUOUS
10
161.2146879999999953
20
-122.039597999999998
11
161.4404729999999972
21
-122.039597999999998
0
LINE
8
BLACK
6
CONTINUOUS
10
161.4404729999999972
20
-122.039597999999998
11
161.6196529999999996
21
-121.9948029999999903
0
LINE
8
BLACK
6
CONTINUOUS
10
161.6196529999999996
20
-121.9948029999999903
11
161.7027239999999892
21
-121.9532669999999968
0
LINE
8
BLACK
6
CONTINUOUS
10
161.7027239999999892
20
-121.9532669999999968
11
161.7388679999999965
21
-121.917121999999992
0
LINE
8
BLACK
6
CONTINUOUS
10
161.7388679999999965
20
-121.917121999999992
11
161.7775800000000004
21
-121.839698999999996
0
LINE
8
BLACK
6
CONTINUOUS
10
161.7775800000000004
20
-121.839698999999996
11
161.7775800000000004
21
-121.7680679999999995
0
LINE
8
BLACK
6
CONTINUOUS
10
161.7775800000000004
20
-121.7680679999999995
11
161.7388679999999965
21
-121.6906449999999893
0
LINE
8
BLACK
6
CONTINUOUS
10
161.7388679999999965
20
-121.6906449999999893
11
161.7027239999999892
21
-121.6544999999999987
0
LINE
8
BLACK
6
CONTINUOUS
10
161.7027239999999892
20
-121.6544999999999987
11
161.6196529999999996
21
-121.6129649999999884
0
LINE
8
BLACK
6
CONTINUOUS
10
161.6196529999999996
20
-121.6129649999999884
11
161.4404729999999972
21
-121.568169999999995
0
LINE
8
BLACK
6
CONTINUOUS
10
161.4404729999999972
20
-121.568169999999995
11
161.2146879999999953
21
-121.568169999999995
0
LINE
8
BLACK
6
CONTINUOUS
10
161.2146879999999953
20
-121.568169999999995
11
161.0355089999999905
21
-121.612963999999991
0
LINE
8
BLACK
6
CONTINUOUS
10
171.2222380000000044
20
-121.9148330000000016
11
171.2492979999999818
21
-121.9418929999999932
0
LINE
8
BLACK
6
CONTINUOUS
10
171.2492979999999818
20
-121.9418929999999932
11
171.2492979999999818
21
-121.9801609999999954
0
LINE
8
BLACK
6
CONTINUOUS
10
171.2492979999999818
20
-121.9801609999999954
11
171.2222380000000044
21
-122.0072210000000013
0
LINE
8
BLACK
6
CONTINUOUS
10
171.2222380000000044
20
-122.0072210000000013
11
171.2031039999999962
21
-122.0110269999999986
0
LINE
8
BLACK
6
CONTINUOUS
10
171.2031039999999962
20
-122.0110269999999986
11
170.4031039999999848
21
-122.0110269999999986
0
LINE
8
BLACK
6
CONTINUOUS
10
170.4031039999999848
20
-122.0110269999999986
11
170.383970000000005
21
-122.0072210000000013
0
LINE
8
BLACK
6
CONTINUOUS
10
170.383970000000005
20
-122.0072210000000013
11
170.3569099999999992
21
-121.9801609999999954
0
LINE
8
BLACK
6
CONTINUOUS
10
170.3569099999999992
20
-121.9801609999999954
11
170.3569099999999992
21
-121.9418929999999932
0
LINE
8
BLACK
6
CONTINUOUS
10
170.3569099999999992
20
-121.9418929999999932
11
170.383970000000005
21
-121.9148330000000016
0
LINE
8
BLACK
6
CONTINUOUS
10
170.383970000000005
20
-121.9148330000000016
11
170.4031039999999848
21
-121.91102699999999
0
LINE
8
BLACK
6
CONTINUOUS
10
170.4031039999999848
20
-121.91102699999999
11
171.2031039999999962
21
-121.91102699999999
0
LINE
8
BLACK
6
CONTINUOUS
10
171.2031039999999962
20
-121.91102699999999
11
171.2222380000000044
21
-121.9148330000000016
0
LINE
8
BLACK
6
CONTINUOUS
10
171.2492979999999818
20
-121.2180829999999929
11
171.2531039999999791
21
-121.2372170000000011
0
LINE
8
BLACK
6
CONTINUOUS
10
171.2531039999999791
20
-121.2372170000000011
11
171.2531039999999791
21
-121.694359999999989
0
LINE
8
BLACK
6
CONTINUOUS
10
171.2531039999999791
20
-121.694359999999989
11
171.2492979999999818
21
-121.7134939999999972
0
LINE
8
BLACK
6
CONTINUOUS
10
171.2492979999999818
20
-121.7134939999999972
11
171.2222380000000044
21
-121.7405539999999888
0
LINE
8
BLACK
6
CONTINUOUS
10
171.2222380000000044
20
-121.7405539999999888
11
171.183969999999988
21
-121.7405539999999888
0
LINE
8
BLACK
6
CONTINUOUS
10
171.183969999999988
20
-121.7405539999999888
11
171.1569099999999821
21
-121.7134939999999972
0
LINE
8
BLACK
6
CONTINUOUS
10
171.1569099999999821
20
-121.7134939999999972
11
171.1531039999999848
21
-121.694359999999989
0
LINE
8
BLACK
6
CONTINUOUS
10
171.1531039999999848
20
-121.694359999999989
11
171.1531039999999848
21
-121.5157880000000006
0
LINE
8
BLACK
6
CONTINUOUS
10
171.1531039999999848
20
-121.5157880000000006
11
170.4031039999999848
21
-121.5157880000000006
0
LINE
8
BLACK
6
CONTINUOUS
10
170.4031039999999848
20
-121.5157880000000006
11
170.383970000000005
21
-121.5119819999999891
0
LINE
8
BLACK
6
CONTINUOUS
10
170.383970000000005
20
-121.5119819999999891
11
170.3569099999999992
21
-121.4849219999999974
0
LINE
8
BLACK
6
CONTINUOUS
10
170.3569099999999992
20
-121.4849219999999974
11
170.3569099999999992
21
-121.4466539999999952
0
LINE
8
BLACK
6
CONTINUOUS
10
170.3569099999999992
20
-121.4466539999999952
11
170.383970000000005
21
-121.4195939999999894
0
LINE
8
BLACK
6
CONTINUOUS
10
170.383970000000005
20
-121.4195939999999894
11
170.4031039999999848
21
-121.4157879999999921
0
LINE
8
BLACK
6
CONTINUOUS
10
170.4031039999999848
20
-121.4157879999999921
11
171.1531039999999848
21
-121.4157879999999921
0
LINE
8
BLACK
6
CONTINUOUS
10
171.1531039999999848
20
-121.4157879999999921
11
171.1531039999999848
21
-121.2372170000000011
0
LINE
8
BLACK
6
CONTINUOUS
10
171.1531039999999848
20
-121.2372170000000011
11
171.1569099999999821
21
-121.2180829999999929
0
LINE
8
BLACK
6
CONTINUOUS
10
171.1569099999999821
20
-121.2180829999999929
11
171.183969999999988
21
-121.1910230000000013
0
LINE
8
BLACK
6
CONTINUOUS
10
171.183969999999988
20
-121.1910230000000013
11
171.2222380000000044
21
-121.1910230000000013
0
LINE
8
BLACK
6
CONTINUOUS
10
171.2222380000000044
20
-121.1910230000000013
11
171.2492979999999818
21
-121.2180829999999929
0
LINE
8
BLACK
6
CONTINUOUS
10
167.5922280000000057
20
-117.6144479999999959
11
167.7371169999999836
21
-117.6744629999999887
0
LINE
8
BLACK
6
CONTINUOUS
10
167.7371169999999836
20
-117.6744629999999887
11
167.8675149999999974
21
-117.7615919999999932
0
LINE
8
BLACK
6
CONTINUOUS
10
167.8675149999999974
20
-117.7615919999999932
11
167.9784080000000017
21
-117.8724849999999975
0
LINE
8
BLACK
6
CONTINUOUS
10
167.9784080000000017
20
-117.8724849999999975
11
168.0655370000000062
21
-118.0028829999999971
0
LINE
8
BLACK
6
CONTINUOUS
10
168.0655370000000062
20
-118.0028829999999971
11
168.125551999999999
21
-118.1477719999999891
0
LINE
8
BLACK
6
CONTINUOUS
10
168.125551999999999
20
-118.1477719999999891
11
168.1561480000000017
21
-118.3015860000000004
0
LINE
8
BLACK
6
CONTINUOUS
10
168.1561480000000017
20
-118.3015860000000004
11
168.1561480000000017
21
-118.4584139999999906
0
LINE
8
BLACK
6
CONTINUOUS
10
168.1561480000000017
20
-118.4584139999999906
11
168.125551999999999
21
-118.6122279999999876
0
LINE
8
BLACK
6
CONTINUOUS
10
168.125551999999999
20
-118.6122279999999876
11
168.0655370000000062
21
-118.7571169999999938
0
LINE
8
BLACK
6
CONTINUOUS
10
168.0655370000000062
20
-118.7571169999999938
11
167.9784080000000017
21
-118.8875149999999934
0
LINE
8
BLACK
6
CONTINUOUS
10
167.9784080000000017
20
-118.8875149999999934
11
167.8675149999999974
21
-118.9984079999999977
0
LINE
8
BLACK
6
CONTINUOUS
10
167.8675149999999974
20
-118.9984079999999977
11
167.7371169999999836
21
-119.085536999999988
0
LINE
8
BLACK
6
CONTINUOUS
10
167.7371169999999836
20
-119.085536999999988
11
167.6599999999999966
21
-119.1174789999999888
0
LINE
8
BLACK
6
CONTINUOUS
10
167.6599999999999966
20
-119.1174789999999888
11
167.6599999999999966
21
-119.8554659999999927
0
LINE
8
BLACK
6
CONTINUOUS
10
167.6599999999999966
20
-119.8554659999999927
11
167.6771640000000048
21
-119.885194999999996
0
LINE
8
BLACK
6
CONTINUOUS
10
167.6771640000000048
20
-119.885194999999996
11
167.6974329999999895
21
-119.9608419999999995
0
LINE
8
BLACK
6
CONTINUOUS
10
167.6974329999999895
20
-119.9608419999999995
11
167.6999999999999886
21
-120.
0
LINE
8
BLACK
6
CONTINUOUS
10
167.6999999999999886
20
-120.
11
167.6999999999999886
21
-121.2999999999999972
0
LINE
8
BLACK
6
CONTINUOUS
10
167.6999999999999886
20
-121.2999999999999972
11
167.6974329999999895
21
-121.3391579999999976
0
LINE
8
BLACK
6
CONTINUOUS
10
167.6974329999999895
20
-121.3391579999999976
11
167.6771640000000048
21
-121.4148050000000012
0
LINE
8
BLACK
6
CONTINUOUS
10
167.6771640000000048
20
-121.4148050000000012
11
167.6380059999999901
21
-121.4826279999999912
0
LINE
8
BLACK
6
CONTINUOUS
10
167.6380059999999901
20
-121.4826279999999912
11
167.5826279999999997
21
-121.5380059999999958
0
LINE
8
BLACK
6
CONTINUOUS
10
167.5826279999999997
20
-121.5380059999999958
11
167.5148049999999955
21
-121.5771639999999962
0
LINE
8
BLACK
6
CONTINUOUS
10
167.5148049999999955
20
-121.5771639999999962
11
167.4391579999999919
21
-121.5974329999999952
0
LINE
8
BLACK
6
CONTINUOUS
10
167.4391579999999919
20
-121.5974329999999952
11
167.360841999999991
21
-121.5974329999999952
0
LINE
8
BLACK
6
CONTINUOUS
10
167.360841999999991
20
-121.5974329999999952
11
167.2851949999999874
21
-121.5771639999999962
0
LINE
8
BLACK
6
CONTINUOUS
10
167.2851949999999874
20
-121.5771639999999962
11
167.2173719999999832
21
-121.5380059999999958
0
LINE
8
BLACK
6
CONTINUOUS
10
167.2173719999999832
20
-121.5380059999999958
11
167.1619939999999929
21
-121.4826279999999912
0
LINE
8
BLACK
6
CONTINUOUS
10
167.1619939999999929
20
-121.4826279999999912
11
167.1228360000000066
21
-121.4148050000000012
0
LINE
8
BLACK
6
CONTINUOUS
10
167.1228360000000066
20
-121.4148050000000012
11
167.1025669999999934
21
-121.3391579999999976
0
LINE
8
BLACK
6
CONTINUOUS
10
167.1025669999999934
20
-121.3391579999999976
11
167.0999999999999943
21
-121.2999999999999972
0
LINE
8
BLACK
6
CONTINUOUS
10
167.0999999999999943
20
-121.2999999999999972
11
167.0999999999999943
21
-120.1045329999999893
0
LINE
8
BLACK
6
CONTINUOUS
10
167.0999999999999943
20
-120.1045329999999893
11
167.0828359999999861
21
-120.0748049999999978
0
LINE
8
BLACK
6
CONTINUOUS
10
167.0828359999999861
20
-120.0748049999999978
11
167.0625670000000014
21
-119.9991579999999942
0
LINE
8
BLACK
6
CONTINUOUS
10
167.0625670000000014
20
-119.9991579999999942
11
167.0600000000000023
21
-119.9599999999999937
0
LINE
8
BLACK
6
CONTINUOUS
10
167.0600000000000023
20
-119.9599999999999937
11
167.0600000000000023
21
-119.1174789999999888
0
LINE
8
BLACK
6
CONTINUOUS
10
167.0600000000000023
20
-119.1174789999999888
11
166.9828829999999869
21
-119.085536999999988
0
LINE
8
BLACK
6
CONTINUOUS
10
166.9828829999999869
20
-119.085536999999988
11
166.8524850000000015
21
-118.9984079999999977
0
LINE
8
BLACK
6
CONTINUOUS
10
166.8524850000000015
20
-118.9984079999999977
11
166.7415919999999971
21
-118.8875149999999934
0
LINE
8
BLACK
6
CONTINUOUS
10
166.7415919999999971
20
-118.8875149999999934
11
166.6544629999999927
21
-118.7571169999999938
0
LINE
8
BLACK
6
CONTINUOUS
10
166.6544629999999927
20
-118.7571169999999938
11
166.5944479999999999
21
-118.6122279999999876
0
LINE
8
BLACK
6
CONTINUOUS
10
166.5944479999999999
20
-118.6122279999999876
11
166.5638519999999971
21
-118.4584139999999906
0
LINE
8
BLACK
6
CONTINUOUS
10
166.5638519999999971
20
-118.4584139999999906
11
166.5638519999999971
21
-118.3015860000000004
0
LINE
8
BLACK
6
CONTINUOUS
10
166.5638519999999971
20
-118.3015860000000004
11
166.5944479999999999
21
-118.1477719999999891
0
LINE
8
BLACK
6
CONTINUOUS
10
166.5944479999999999
20
-118.1477719999999891
11
166.6544629999999927
21
-118.0028829999999971
0
LINE
8
BLACK
6
CONTINUOUS
10
166.6544629999999927
20
-118.0028829999999971
11
166.7415919999999971
21
-117.8724849999999975
0
LINE
8
BLACK
6
CONTINUOUS
10
166.7415919999999971
20
-117.8724849999999975
11
166.8524850000000015
21
-117.7615919999999932
0
LINE
8
BLACK
6
CONTINUOUS
10
166.8524850000000015
20
-117.7615919999999932
11
166.9828829999999869
21
-117.6744629999999887
0
LINE
8
BLACK
6
CONTINUOUS
10
166.9828829999999869
20
-117.6744629999999887
11
167.1277719999999931
21
-117.6144479999999959
0
LINE
8
BLACK
6
CONTINUOUS
10
167.1277719999999931
20
-117.6144479999999959
11
167.2815860000000043
21
-117.5838519999999932
0
LINE
8
BLACK
6
CONTINUOUS
10
167.2815860000000043
20
-117.5838519999999932
11
167.4384139999999945
21
-117.5838519999999932
0
LINE
8
BLACK
6
CONTINUOUS
10
167.4384139999999945
20
-117.5838519999999932
11
167.5922280000000057
21
-117.6144479999999959
0
LINE
8
BLACK
6
CONTINUOUS
10
161.5313139999999805
20
-120.6750899999999973
11
161.5441849999999988
21
-120.7111289999999997
0
LINE
8
BLACK
6
CONTINUOUS
10
161.5441849999999988
20
-120.7111289999999997
11
161.5278030000000058
21
-120.745712999999995
0
LINE
8
BLACK
6
CONTINUOUS
10
161.5278030000000058
20
-120.745712999999995
11
161.5110640000000046
21
-120.7557329999999922
0
LINE
8
BLACK
6
CONTINUOUS
10
161.5110640000000046
20
-120.7557329999999922
11
160.97623999999999
21
-120.9467409999999887
0
LINE
8
BLACK
6
CONTINUOUS
10
160.97623999999999
20
-120.9467409999999887
11
161.5110640000000046
21
-121.1377489999999995
0
LINE
8
BLACK
6
CONTINUOUS
10
161.5110640000000046
20
-121.1377489999999995
11
161.5278030000000058
21
-121.1477689999999967
0
LINE
8
BLACK
6
CONTINUOUS
10
161.5278030000000058
20
-121.1477689999999967
11
161.5441849999999988
21
-121.182352999999992
0
LINE
8
BLACK
6
CONTINUOUS
10
161.5441849999999988
20
-121.182352999999992
11
161.5313139999999805
21
-121.2183919999999944
0
LINE
8
BLACK
6
CONTINUOUS
10
161.5313139999999805
20
-121.2183919999999944
11
161.4967289999999878
21
-121.2347740000000016
0
LINE
8
BLACK
6
CONTINUOUS
10
161.4967289999999878
20
-121.2347740000000016
11
161.4774299999999982
21
-121.2319229999999948
0
LINE
8
BLACK
6
CONTINUOUS
10
161.4774299999999982
20
-121.2319229999999948
11
160.8107629999999801
21
-120.9938279999999935
0
LINE
8
BLACK
6
CONTINUOUS
10
160.8107629999999801
20
-120.9938279999999935
11
160.794023999999979
21
-120.9838079999999962
0
LINE
8
BLACK
6
CONTINUOUS
10
160.794023999999979
20
-120.9838079999999962
11
160.7928949999999872
21
-120.9814250000000015
0
LINE
8
BLACK
6
CONTINUOUS
10
160.7928949999999872
20
-120.9814250000000015
11
160.7905130000000042
21
-120.9802969999999931
0
LINE
8
BLACK
6
CONTINUOUS
10
160.7905130000000042
20
-120.9802969999999931
11
160.7848500000000058
21
-120.9644409999999937
0
LINE
8
BLACK
6
CONTINUOUS
10
160.7848500000000058
20
-120.9644409999999937
11
160.777641999999986
21
-120.949224000000001
0
LINE
8
BLACK
6
CONTINUOUS
10
160.777641999999986
20
-120.949224000000001
11
160.7785279999999943
21
-120.9467409999999887
0
LINE
8
BLACK
6
CONTINUOUS
10
160.7785279999999943
20
-120.9467409999999887
11
160.777641999999986
21
-120.9442579999999907
0
LINE
8
BLACK
6
CONTINUOUS
10
160.777641999999986
20
-120.9442579999999907
11
160.7848500000000058
21
-120.9290400000000005
0
LINE
8
BLACK
6
CONTINUOUS
10
160.7848500000000058
20
-120.9290400000000005
11
160.7905130000000042
21
-120.9131849999999986
0
LINE
8
BLACK
6
CONTINUOUS
10
160.7905130000000042
20
-120.9131849999999986
11
160.7928949999999872
21
-120.9120559999999927
0
LINE
8
BLACK
6
CONTINUOUS
10
160.7928949999999872
20
-120.9120559999999927
11
160.794023999999979
21
-120.9096739999999954
0
LINE
8
BLACK
6
CONTINUOUS
10
160.794023999999979
20
-120.9096739999999954
11
160.8107629999999801
21
-120.8996539999999982
0
LINE
8
BLACK
6
CONTINUOUS
10
160.8107629999999801
20
-120.8996539999999982
11
161.4774299999999982
21
-120.6615589999999969
0
LINE
8
BLACK
6
CONTINUOUS
10
161.4774299999999982
20
-120.6615589999999969
11
161.4967289999999878
21
-120.6587079999999901
0
LINE
8
BLACK
6
CONTINUOUS
10
161.4967289999999878
20
-120.6587079999999901
11
161.5313139999999805
21
-120.6750899999999973
0
LINE
8
BLACK
6
CONTINUOUS
10
171.2492979999999818
20
-120.6085589999999996
11
171.2531039999999791
21
-120.6276929999999936
0
LINE
8
BLACK
6
CONTINUOUS
10
171.2531039999999791
20
-120.6276929999999936
11
171.2531039999999791
21
-121.0848359999999957
0
LINE
8
BLACK
6
CONTINUOUS
10
171.2531039999999791
20
-121.0848359999999957
11
171.2492979999999818
21
-121.1039699999999897
0
LINE
8
BLACK
6
CONTINUOUS
10
171.2492979999999818
20
-121.1039699999999897
11
171.2222380000000044
21
-121.1310299999999955
0
LINE
8
BLACK
6
CONTINUOUS
10
171.2222380000000044
20
-121.1310299999999955
11
171.183969999999988
21
-121.1310299999999955
0
LINE
8
BLACK
6
CONTINUOUS
10
171.183969999999988
20
-121.1310299999999955
11
171.1569099999999821
21
-121.1039699999999897
0
LINE
8
BLACK
6
CONTINUOUS
10
171.1569099999999821
20
-121.1039699999999897
11
171.1531039999999848
21
-121.0848359999999957
0
LINE
8
BLACK
6
CONTINUOUS
10
171.1531039999999848
20
-121.0848359999999957
11
171.1531039999999848
21
-120.9062639999999931
0
LINE
8
BLACK
6
CONTINUOUS
10
171.1531039999999848
20
-120.9062639999999931
11
170.4031039999999848
21
-120.9062639999999931
0
LINE
8
BLACK
6
CONTINUOUS
10
170.4031039999999848
20
-120.9062639999999931
11
170.383970000000005
21
-120.9024579999999958
0
LINE
8
BLACK
6
CONTINUOUS
10
170.383970000000005
20
-120.9024579999999958
11
170.3569099999999992
21
-120.8753979999999899
0
LINE
8
BLACK
6
CONTINUOUS
10
170.3569099999999992
20
-120.8753979999999899
11
170.3569099999999992
21
-120.8371299999999877
0
LINE
8
BLACK
6
CONTINUOUS
10
170.3569099999999992
20
-120.8371299999999877
11
170.383970000000005
21
-120.8100699999999961
0
LINE
8
BLACK
6
CONTINUOUS
10
170.383970000000005
20
-120.8100699999999961
11
170.4031039999999848
21
-120.8062639999999988
0
LINE
8
BLACK
6
CONTINUOUS
10
170.4031039999999848
20
-120.8062639999999988
11
171.1531039999999848
21
-120.8062639999999988
0
LINE
8
BLACK
6
CONTINUOUS
10
171.1531039999999848
20
-120.8062639999999988
11
171.1531039999999848
21
-120.6276929999999936
0
LINE
8
BLACK
6
CONTINUOUS
10
171.1531039999999848
20
-120.6276929999999936
11
171.1569099999999821
21
-120.6085589999999996
0
LINE
8
BLACK
6
CONTINUOUS
10
171.1569099999999821
20
-120.6085589999999996
11
171.183969999999988
21
-120.5814989999999938
0
LINE
8
BLACK
6
CONTINUOUS
10
171.183969999999988
20
-120.5814989999999938
11
171.2222380000000044
21
-120.5814989999999938
0
LINE
8
BLACK
6
CONTINUOUS
10
171.2222380000000044
20
-120.5814989999999938
11
171.2492979999999818
21
-120.6085589999999996
0
LINE
8
BLACK
6
CONTINUOUS
10
170.4189149999999984
20
-119.8945449999999937
11
171.2189149999999813
21
-120.1612119999999919
0
LINE
8
BLACK
6
CONTINUOUS
10
171.2189149999999813
20
-120.1612119999999919
11
171.2358639999999923
21
-120.1708730000000003
0
LINE
8
BLACK
6
CONTINUOUS
10
171.2358639999999923
20
-120.1708730000000003
11
171.2375339999999824
21
-120.1742149999999896
0
LINE
8
BLACK
6
CONTINUOUS
10
171.2375339999999824
20
-120.1742149999999896
11
171.2408769999999834
21
-120.1758859999999913
0
LINE
8
BLACK
6
CONTINUOUS
10
171.2408769999999834
20
-120.1758859999999913
11
171.2458900000000028
21
-120.1909249999999929
0
LINE
8
BLACK
6
CONTINUOUS
10
171.2458900000000028
20
-120.1909249999999929
11
171.2529779999999846
21
-120.2051019999999966
0
LINE
8
BLACK
6
CONTINUOUS
10
171.2529779999999846
20
-120.2051019999999966
11
171.2517959999999846
21
-120.2086460000000017
0
LINE
8
BLACK
6
CONTINUOUS
10
171.2517959999999846
20
-120.2086460000000017
11
171.2529779999999846
21
-120.2121899999999926
0
LINE
8
BLACK
6
CONTINUOUS
10
171.2529779999999846
20
-120.2121899999999926
11
171.2458900000000028
21
-120.2263659999999987
0
LINE
8
BLACK
6
CONTINUOUS
10
171.2458900000000028
20
-120.2263659999999987
11
171.2408769999999834
21
-120.2414059999999978
0
LINE
8
BLACK
6
CONTINUOUS
10
171.2408769999999834
20
-120.2414059999999978
11
171.2375339999999824
21
-120.2430759999999879
0
LINE
8
BLACK
6
CONTINUOUS
10
171.2375339999999824
20
-120.2430759999999879
11
171.2358639999999923
21
-120.2464189999999888
0
LINE
8
BLACK
6
CONTINUOUS
10
171.2358639999999923
20
-120.2464189999999888
11
171.2189159999999788
21
-120.2560799999999972
0
LINE
8
BLACK
6
CONTINUOUS
10
171.2189159999999788
20
-120.2560799999999972
11
170.4189149999999984
21
-120.5227459999999979
0
LINE
8
BLACK
6
CONTINUOUS
10
170.4189149999999984
20
-120.5227459999999979
11
170.3995599999999797
21
-120.5251859999999908
0
LINE
8
BLACK
6
CONTINUOUS
10
170.3995599999999797
20
-120.5251859999999908
11
170.3653309999999976
21
-120.5080719999999985
0
LINE
8
BLACK
6
CONTINUOUS
10
170.3653309999999976
20
-120.5080719999999985
11
170.3532299999999964
21
-120.4717679999999973
0
LINE
8
BLACK
6
CONTINUOUS
10
170.3532299999999964
20
-120.4717679999999973
11
170.3703439999999887
21
-120.437539000000001
0
LINE
8
BLACK
6
CONTINUOUS
10
170.3703439999999887
20
-120.437539000000001
11
170.3872929999999997
21
-120.4278779999999927
0
LINE
8
BLACK
6
CONTINUOUS
10
170.3872929999999997
20
-120.4278779999999927
11
170.5816759999999874
21
-120.3630829999999889
0
LINE
8
BLACK
6
CONTINUOUS
10
170.5816759999999874
20
-120.3630829999999889
11
170.5816759999999874
21
-120.054206999999991
0
LINE
8
BLACK
6
CONTINUOUS
10
170.5816759999999874
20
-120.054206999999991
11
170.3872929999999997
21
-119.989412999999999
0
LINE
8
BLACK
6
CONTINUOUS
10
170.3872929999999997
20
-119.989412999999999
11
170.3703439999999887
21
-119.9797519999999906
0
LINE
8
BLACK
6
CONTINUOUS
10
170.3703439999999887
20
-119.9797519999999906
11
170.3532299999999964
21
-119.9455229999999943
0
LINE
8
BLACK
6
CONTINUOUS
10
170.3532299999999964
20
-119.9455229999999943
11
170.3653309999999976
21
-119.9092189999999931
0
LINE
8
BLACK
6
CONTINUOUS
10
170.3653309999999976
20
-119.9092189999999931
11
170.3995599999999797
21
-119.8921050000000008
0
LINE
8
BLACK
6
CONTINUOUS
10
170.3995599999999797
20
-119.8921050000000008
11
170.4189149999999984
21
-119.8945449999999937
0
LINE
8
BLACK
6
CONTINUOUS
10
170.6816759999999817
20
-120.32974999999999
11
171.0449899999999843
21
-120.2086460000000017
0
LINE
8
BLACK
6
CONTINUOUS
10
171.0449899999999843
20
-120.2086460000000017
11
170.6816759999999817
21
-120.08753999999999
0
LINE
8
BLACK
6
CONTINUOUS
10
170.6816759999999817
20
-120.08753999999999
11
170.6816759999999817
21
-120.32974999999999
0
LINE
8
BLACK
6
CONTINUOUS
10
172.1095669999999984
20
-108.7769029999999901
11
172.1230970000000013
21
-108.7904329999999931
0
LINE
8
BLACK
6
CONTINUOUS
10
172.1230970000000013
20
-108.7904329999999931
11
172.125
21
-108.7999999999999972
0
LINE
8
BLACK
6
CONTINUOUS
10
172.125
20
-108.7999999999999972
11
172.125
21
-133.2999999999999829
0
LINE
8
BLACK
6
CONTINUOUS
10
172.125
20
-133.2999999999999829
11
172.1230970000000013
21
-133.309566999999987
0
LINE
8
BLACK
6
CONTINUOUS
10
172.1230970000000013
20
-133.309566999999987
11
172.1095669999999984
21
-133.32309699999999
0
LINE
8
BLACK
6
CONTINUOUS
10
172.1095669999999984
20
-133.32309699999999
11
172.0999999999999943
21
-133.3249999999999886
0
LINE
8
BLACK
6
CONTINUOUS
10
172.0999999999999943
20
-133.3249999999999886
11
160.1999999999999886
21
-133.3249999999999886
0
LINE
8
BLACK
6
CONTINUOUS
10
160.1999999999999886
20
-133.3249999999999886
11
160.1904329999999845
21
-133.32309699999999
0
LINE
8
BLACK
6
CONTINUOUS
10
160.1904329999999845
20
-133.32309699999999
11
160.1769029999999816
21
-133.309566999999987
0
LINE
8
BLACK
6
CONTINUOUS
10
160.1769029999999816
20
-133.309566999999987
11
160.1749999999999829
21
-133.2999999999999829
0
LINE
8
BLACK
6
CONTINUOUS
10
160.1749999999999829
20
-133.2999999999999829
11
160.1749999999999829
21
-108.7999999999999972
0
LINE
8
BLACK
6
CONTINUOUS
10
160.1749999999999829
20
-108.7999999999999972
11
160.1769029999999816
21
-108.7904329999999931
0
LINE
8
BLACK
6
CONTINUOUS
10
160.1769029999999816
20
-108.7904329999999931
11
160.1904329999999845
21
-108.7769029999999901
0
LINE
8
BLACK
6
CONTINUOUS
10
160.1904329999999845
20
-108.7769029999999901
11
160.1999999999999886
21
-108.7749999999999915
0
LINE
8
BLACK
6
CONTINUOUS
10
160.1999999999999886
20
-108.7749999999999915
11
172.0999999999999943
21
-108.7749999999999915
0
LINE
8
BLACK
6
CONTINUOUS
10
172.0999999999999943
20
-108.7749999999999915
11
172.1095669999999984
21
-108.7769029999999901
0
LINE
8
BLACK
6
CONTINUOUS
10
160.2249999999999943
20
-108.8249999999999886
11
160.2249999999999943
21
-133.2750000000000057
0
LINE
8
BLACK
6
CONTINUOUS
10
160.2249999999999943
20
-133.2750000000000057
11
172.0749999999999886
21
-133.2750000000000057
0
LINE
8
BLACK
6
CONTINUOUS
10
172.0749999999999886
20
-133.2750000000000057
11
172.0749999999999886
21
-108.8249999999999886
0
LINE
8
BLACK
6
CONTINUOUS
10
172.0749999999999886
20
-108.8249999999999886
11
160.2249999999999943
21
-108.8249999999999886
  0
ENDSEC
  0
EOF
