  0
SECTION
  2
HEADER
  9
$ANGBASE
  50
0.0
  9
$ANGDIR
  70
1
  9
$MEASUREMENT
  70
1
  0
ENDSEC
  0
SECTION
  2
TABLES
  0
TABLE
  2
LTYPE
  70
4
  0
LTYPE
  5
40F
  2
CONTINUOUS
  70
0
  3
Solid line
  72
65
  73
0
  40
0.0
  0
LTYPE
  5
410
  2
DASHDOT
 70
0
  3
Dash Dot ____ _ ____ _
 72
65
 73
4
 40
2.0
 49
1.25
 49
-0.25
 49
0.25
 49
-0.25
  0
LTYPE
  5
411
  2
DASHED
 70
0
  3
Dashed __ __ __ __ __
 72
65
 73
2
 40
0.75
 49
0.5
 49
-0.25
  0
LTYPE
  5
43B
  2
DOTTED
 70
0
  3
Dotted .  .  .  .
 72
65
 73
2
 40
0.2
 49
0.0
 49
-0.2
  0
ENDTAB
  0
TABLE
  2
STYLE
  70
4
  0
STYLE
  2
KICAD
  70
0
  40
0
  41
1
  42
1
  50
0
  71
0
  3
isocp.shx
  0
STYLE
  2
KICADB
  70
0
  40
0
  41
1
  42
1
  50
0
  71
0
  3
isocp.shx
  0
STYLE
  2
KICADI
  70
0
  40
0
  41
1
  42
1
  50
15
  71
0
  3
isocp.shx
  0
STYLE
  2
KICADBI
  70
0
  40
0
  41
1
  42
1
  50
15
  71
0
  3
isocp.shx
  0
ENDTAB
  0
TABLE
  2
LAYER
  70
1
  0
LAYER
  2
BLACK
  70
0
  62
7
  6
CONTINUOUS
  0
ENDTAB
  0
ENDSEC
  0
SECTION
  2
ENTITIES
0
LINE
8
BLACK
6
CONTINUOUS
10
148.6346680000000049
20
-107.7919270000000012
11
148.6467690000000061
21
-107.8282309999999882
0
LINE
8
BLACK
6
CONTINUOUS
10
148.6467690000000061
20
-107.8282309999999882
11
148.6296549999999854
21
-107.8624599999999987
0
LINE
8
BLACK
6
CONTINUOUS
10
148.6296549999999854
20
-107.8624599999999987
11
148.6127070000000003
21
-107.8721209999999928
0
LINE
8
BLACK
6
CONTINUOUS
10
148.6127070000000003
20
-107.8721209999999928
11
148.4183229999999867
21
-107.9369149999999991
0
LINE
8
BLACK
6
CONTINUOUS
10
148.4183229999999867
20
-107.9369149999999991
11
148.4183229999999867
21
-108.245790999999997
0
LINE
8
BLACK
6
CONTINUOUS
10
148.4183229999999867
20
-108.245790999999997
11
148.6127060000000029
21
-108.3105860000000007
0
LINE
8
BLACK
6
CONTINUOUS
10
148.6127060000000029
20
-108.3105860000000007
11
148.6296549999999854
21
-108.3202469999999948
0
LINE
8
BLACK
6
CONTINUOUS
10
148.6296549999999854
20
-108.3202469999999948
11
148.6467690000000061
21
-108.3544759999999911
0
LINE
8
BLACK
6
CONTINUOUS
10
148.6467690000000061
20
-108.3544759999999911
11
148.6346680000000049
21
-108.3907799999999924
0
LINE
8
BLACK
6
CONTINUOUS
10
148.6346680000000049
20
-108.3907799999999924
11
148.6004389999999944
21
-108.4078939999999989
0
LINE
8
BLACK
6
CONTINUOUS
10
148.6004389999999944
20
-108.4078939999999989
11
148.5810830000000067
21
-108.4054539999999918
0
LINE
8
BLACK
6
CONTINUOUS
10
148.5810830000000067
20
-108.4054539999999918
11
147.7810839999999928
21
-108.1387869999999936
0
LINE
8
BLACK
6
CONTINUOUS
10
147.7810839999999928
20
-108.1387869999999936
11
147.7641349999999818
21
-108.1291259999999994
0
LINE
8
BLACK
6
CONTINUOUS
10
147.7641349999999818
20
-108.1291259999999994
11
147.7624639999999943
21
-108.1257829999999984
0
LINE
8
BLACK
6
CONTINUOUS
10
147.7624639999999943
20
-108.1257829999999984
11
147.7591219999999907
21
-108.1241129999999941
0
LINE
8
BLACK
6
CONTINUOUS
10
147.7591219999999907
20
-108.1241129999999941
11
147.7541080000000022
21
-108.1090729999999951
0
LINE
8
BLACK
6
CONTINUOUS
10
147.7541080000000022
20
-108.1090729999999951
11
147.7470209999999895
21
-108.0948969999999889
0
LINE
8
BLACK
6
CONTINUOUS
10
147.7470209999999895
20
-108.0948969999999889
11
147.748201999999992
21
-108.091352999999998
0
LINE
8
BLACK
6
CONTINUOUS
10
147.748201999999992
20
-108.091352999999998
11
147.7470209999999895
21
-108.0878089999999929
0
LINE
8
BLACK
6
CONTINUOUS
10
147.7470209999999895
20
-108.0878089999999929
11
147.7541080000000022
21
-108.0736319999999893
0
LINE
8
BLACK
6
CONTINUOUS
10
147.7541080000000022
20
-108.0736319999999893
11
147.7591219999999907
21
-108.0585930000000019
0
LINE
8
BLACK
6
CONTINUOUS
10
147.7591219999999907
20
-108.0585930000000019
11
147.7624639999999943
21
-108.0569220000000001
0
LINE
8
BLACK
6
CONTINUOUS
10
147.7624639999999943
20
-108.0569220000000001
11
147.7641349999999818
21
-108.0535799999999966
0
LINE
8
BLACK
6
CONTINUOUS
10
147.7641349999999818
20
-108.0535799999999966
11
147.7810839999999928
21
-108.0439189999999883
0
LINE
8
BLACK
6
CONTINUOUS
10
147.7810839999999928
20
-108.0439189999999883
11
148.5810840000000042
21
-107.7772530000000017
0
LINE
8
BLACK
6
CONTINUOUS
10
148.5810840000000042
20
-107.7772530000000017
11
148.6004389999999944
21
-107.7748129999999946
0
LINE
8
BLACK
6
CONTINUOUS
10
148.6004389999999944
20
-107.7748129999999946
11
148.6346680000000049
21
-107.7919270000000012
0
LINE
8
BLACK
6
CONTINUOUS
10
147.9550079999999923
20
-108.091352999999998
11
148.3183229999999924
21
-108.212457999999998
0
LINE
8
BLACK
6
CONTINUOUS
10
148.3183229999999924
20
-108.212457999999998
11
148.3183229999999924
21
-107.970247999999998
0
LINE
8
BLACK
6
CONTINUOUS
10
148.3183229999999924
20
-107.970247999999998
11
147.9550079999999923
21
-108.091352999999998
0
LINE
8
BLACK
6
CONTINUOUS
10
147.843088999999992
20
-107.1960289999999958
11
147.8468949999999893
21
-107.2151629999999898
0
LINE
8
BLACK
6
CONTINUOUS
10
147.8468949999999893
20
-107.2151629999999898
11
147.8468949999999893
21
-107.3937349999999924
0
LINE
8
BLACK
6
CONTINUOUS
10
147.8468949999999893
20
-107.3937349999999924
11
148.5968949999999893
21
-107.3937349999999924
0
LINE
8
BLACK
6
CONTINUOUS
10
148.5968949999999893
20
-107.3937349999999924
11
148.6160289999999975
21
-107.3975409999999897
0
LINE
8
BLACK
6
CONTINUOUS
10
148.6160289999999975
20
-107.3975409999999897
11
148.6430890000000034
21
-107.4246009999999956
0
LINE
8
BLACK
6
CONTINUOUS
10
148.6430890000000034
20
-107.4246009999999956
11
148.6430890000000034
21
-107.4628689999999978
0
LINE
8
BLACK
6
CONTINUOUS
10
148.6430890000000034
20
-107.4628689999999978
11
148.6160289999999975
21
-107.4899289999999894
0
LINE
8
BLACK
6
CONTINUOUS
10
148.6160289999999975
20
-107.4899289999999894
11
148.5968949999999893
21
-107.4937350000000009
0
LINE
8
BLACK
6
CONTINUOUS
10
148.5968949999999893
20
-107.4937350000000009
11
147.8468949999999893
21
-107.4937350000000009
0
LINE
8
BLACK
6
CONTINUOUS
10
147.8468949999999893
20
-107.4937350000000009
11
147.8468949999999893
21
-107.6723059999999919
0
LINE
8
BLACK
6
CONTINUOUS
10
147.8468949999999893
20
-107.6723059999999919
11
147.843088999999992
21
-107.6914400000000001
0
LINE
8
BLACK
6
CONTINUOUS
10
147.843088999999992
20
-107.6914400000000001
11
147.8160289999999861
21
-107.7184999999999917
0
LINE
8
BLACK
6
CONTINUOUS
10
147.8160289999999861
20
-107.7184999999999917
11
147.7777609999999981
21
-107.7184999999999917
0
LINE
8
BLACK
6
CONTINUOUS
10
147.7777609999999981
20
-107.7184999999999917
11
147.7507009999999923
21
-107.6914400000000001
0
LINE
8
BLACK
6
CONTINUOUS
10
147.7507009999999923
20
-107.6914400000000001
11
147.746894999999995
21
-107.6723059999999919
0
LINE
8
BLACK
6
CONTINUOUS
10
147.746894999999995
20
-107.6723059999999919
11
147.746894999999995
21
-107.2151629999999898
0
LINE
8
BLACK
6
CONTINUOUS
10
147.746894999999995
20
-107.2151629999999898
11
147.7507009999999923
21
-107.1960289999999958
0
LINE
8
BLACK
6
CONTINUOUS
10
147.7507009999999923
20
-107.1960289999999958
11
147.7777609999999981
21
-107.1689689999999899
0
LINE
8
BLACK
6
CONTINUOUS
10
147.7777609999999981
20
-107.1689689999999899
11
147.8160289999999861
21
-107.1689689999999899
0
LINE
8
BLACK
6
CONTINUOUS
10
147.8160289999999861
20
-107.1689689999999899
11
147.843088999999992
21
-107.1960289999999958
0
LINE
8
BLACK
6
CONTINUOUS
10
147.843088999999992
20
-106.5865049999999883
11
147.8468949999999893
21
-106.6056389999999965
0
LINE
8
BLACK
6
CONTINUOUS
10
147.8468949999999893
20
-106.6056389999999965
11
147.8468949999999893
21
-106.7842109999999991
0
LINE
8
BLACK
6
CONTINUOUS
10
147.8468949999999893
20
-106.7842109999999991
11
148.5968949999999893
21
-106.7842109999999991
0
LINE
8
BLACK
6
CONTINUOUS
10
148.5968949999999893
20
-106.7842109999999991
11
148.6160289999999975
21
-106.7880169999999964
0
LINE
8
BLACK
6
CONTINUOUS
10
148.6160289999999975
20
-106.7880169999999964
11
148.6430890000000034
21
-106.8150769999999881
0
LINE
8
BLACK
6
CONTINUOUS
10
148.6430890000000034
20
-106.8150769999999881
11
148.6430890000000034
21
-106.8533449999999903
0
LINE
8
BLACK
6
CONTINUOUS
10
148.6430890000000034
20
-106.8533449999999903
11
148.6160289999999975
21
-106.8804049999999961
0
LINE
8
BLACK
6
CONTINUOUS
10
148.6160289999999975
20
-106.8804049999999961
11
148.5968949999999893
21
-106.8842109999999934
0
LINE
8
BLACK
6
CONTINUOUS
10
148.5968949999999893
20
-106.8842109999999934
11
147.8468949999999893
21
-106.8842109999999934
0
LINE
8
BLACK
6
CONTINUOUS
10
147.8468949999999893
20
-106.8842109999999934
11
147.8468949999999893
21
-107.0627819999999986
0
LINE
8
BLACK
6
CONTINUOUS
10
147.8468949999999893
20
-107.0627819999999986
11
147.843088999999992
21
-107.0819159999999926
0
LINE
8
BLACK
6
CONTINUOUS
10
147.843088999999992
20
-107.0819159999999926
11
147.8160289999999861
21
-107.1089759999999984
0
LINE
8
BLACK
6
CONTINUOUS
10
147.8160289999999861
20
-107.1089759999999984
11
147.7777609999999981
21
-107.1089759999999984
0
LINE
8
BLACK
6
CONTINUOUS
10
147.7777609999999981
20
-107.1089759999999984
11
147.7507009999999923
21
-107.0819159999999926
0
LINE
8
BLACK
6
CONTINUOUS
10
147.7507009999999923
20
-107.0819159999999926
11
147.746894999999995
21
-107.0627819999999986
0
LINE
8
BLACK
6
CONTINUOUS
10
147.746894999999995
20
-107.0627819999999986
11
147.746894999999995
21
-106.6056389999999965
0
LINE
8
BLACK
6
CONTINUOUS
10
147.746894999999995
20
-106.6056389999999965
11
147.7507009999999923
21
-106.5865049999999883
0
LINE
8
BLACK
6
CONTINUOUS
10
147.7507009999999923
20
-106.5865049999999883
11
147.7777609999999981
21
-106.5594449999999966
0
LINE
8
BLACK
6
CONTINUOUS
10
147.7777609999999981
20
-106.5594449999999966
11
147.8160289999999861
21
-106.5594449999999966
0
LINE
8
BLACK
6
CONTINUOUS
10
147.8160289999999861
20
-106.5594449999999966
11
147.843088999999992
21
-106.5865049999999883
0
LINE
8
BLACK
6
CONTINUOUS
10
148.6160289999999975
20
-106.2927779999999984
11
148.6430890000000034
21
-106.3198379999999901
0
LINE
8
BLACK
6
CONTINUOUS
10
148.6430890000000034
20
-106.3198379999999901
11
148.6430890000000034
21
-106.3581059999999923
0
LINE
8
BLACK
6
CONTINUOUS
10
148.6430890000000034
20
-106.3581059999999923
11
148.6160289999999975
21
-106.3851659999999981
0
LINE
8
BLACK
6
CONTINUOUS
10
148.6160289999999975
20
-106.3851659999999981
11
148.5968949999999893
21
-106.3889719999999954
0
LINE
8
BLACK
6
CONTINUOUS
10
148.5968949999999893
20
-106.3889719999999954
11
147.7968950000000063
21
-106.3889719999999954
0
LINE
8
BLACK
6
CONTINUOUS
10
147.7968950000000063
20
-106.3889719999999954
11
147.7777609999999981
21
-106.3851659999999981
0
LINE
8
BLACK
6
CONTINUOUS
10
147.7777609999999981
20
-106.3851659999999981
11
147.7507009999999923
21
-106.3581059999999923
0
LINE
8
BLACK
6
CONTINUOUS
10
147.7507009999999923
20
-106.3581059999999923
11
147.7507009999999923
21
-106.3198379999999901
0
LINE
8
BLACK
6
CONTINUOUS
10
147.7507009999999923
20
-106.3198379999999901
11
147.7777609999999981
21
-106.2927779999999984
0
LINE
8
BLACK
6
CONTINUOUS
10
147.7777609999999981
20
-106.2927779999999984
11
147.7968950000000063
21
-106.2889720000000011
0
LINE
8
BLACK
6
CONTINUOUS
10
147.7968950000000063
20
-106.2889720000000011
11
148.5968949999999893
21
-106.2889720000000011
0
LINE
8
BLACK
6
CONTINUOUS
10
148.5968949999999893
20
-106.2889720000000011
11
148.6160289999999975
21
-106.2927779999999984
0
LINE
8
BLACK
6
CONTINUOUS
10
148.6160289999999975
20
-105.4546829999999886
11
148.6208829999999921
21
-105.4595369999999974
0
LINE
8
BLACK
6
CONTINUOUS
10
148.6208829999999921
20
-105.4595369999999974
11
148.6275100000000009
21
-105.4613449999999943
0
LINE
8
BLACK
6
CONTINUOUS
10
148.6275100000000009
20
-105.4613449999999943
11
148.6339349999999797
21
-105.4725889999999993
0
LINE
8
BLACK
6
CONTINUOUS
10
148.6339349999999797
20
-105.4725889999999993
11
148.6430890000000034
21
-105.4817429999999945
0
LINE
8
BLACK
6
CONTINUOUS
10
148.6430890000000034
20
-105.4817429999999945
11
148.6430890000000034
21
-105.4886079999999993
0
LINE
8
BLACK
6
CONTINUOUS
10
148.6430890000000034
20
-105.4886079999999993
11
148.6464959999999849
21
-105.4945709999999934
0
LINE
8
BLACK
6
CONTINUOUS
10
148.6464959999999849
20
-105.4945709999999934
11
148.6430890000000034
21
-105.5070630000000023
0
LINE
8
BLACK
6
CONTINUOUS
10
148.6430890000000034
20
-105.5070630000000023
11
148.6430890000000034
21
-105.5200109999999967
0
LINE
8
BLACK
6
CONTINUOUS
10
148.6430890000000034
20
-105.5200109999999967
11
148.6382329999999854
21
-105.5248659999999887
0
LINE
8
BLACK
6
CONTINUOUS
10
148.6382329999999854
20
-105.5248659999999887
11
148.6364269999999976
21
-105.5314909999999884
0
LINE
8
BLACK
6
CONTINUOUS
10
148.6364269999999976
20
-105.5314909999999884
11
148.6217019999999991
21
-105.544288999999992
0
LINE
8
BLACK
6
CONTINUOUS
10
148.6217019999999991
20
-105.544288999999992
11
147.9851730000000032
21
-105.9080199999999934
0
LINE
8
BLACK
6
CONTINUOUS
10
147.9851730000000032
20
-105.9080199999999934
11
148.5968949999999893
21
-105.9080199999999934
0
LINE
8
BLACK
6
CONTINUOUS
10
148.5968949999999893
20
-105.9080199999999934
11
148.6160289999999975
21
-105.9118259999999907
0
LINE
8
BLACK
6
CONTINUOUS
10
148.6160289999999975
20
-105.9118259999999907
11
148.6430890000000034
21
-105.9388859999999966
0
LINE
8
BLACK
6
CONTINUOUS
10
148.6430890000000034
20
-105.9388859999999966
11
148.6430890000000034
21
-105.9771539999999987
0
LINE
8
BLACK
6
CONTINUOUS
10
148.6430890000000034
20
-105.9771539999999987
11
148.6160289999999975
21
-106.0042139999999904
0
LINE
8
BLACK
6
CONTINUOUS
10
148.6160289999999975
20
-106.0042139999999904
11
148.5968949999999893
21
-106.0080200000000019
0
LINE
8
BLACK
6
CONTINUOUS
10
148.5968949999999893
20
-106.0080200000000019
11
147.7968950000000063
21
-106.0080200000000019
0
LINE
8
BLACK
6
CONTINUOUS
10
147.7968950000000063
20
-106.0080200000000019
11
147.7777609999999981
21
-106.0042139999999904
0
LINE
8
BLACK
6
CONTINUOUS
10
147.7777609999999981
20
-106.0042139999999904
11
147.7729049999999802
21
-105.9993580000000009
0
LINE
8
BLACK
6
CONTINUOUS
10
147.7729049999999802
20
-105.9993580000000009
11
147.7662809999999922
21
-105.9975519999999989
0
LINE
8
BLACK
6
CONTINUOUS
10
147.7662809999999922
20
-105.9975519999999989
11
147.759855999999985
21
-105.9863089999999914
0
LINE
8
BLACK
6
CONTINUOUS
10
147.759855999999985
20
-105.9863089999999914
11
147.7507009999999923
21
-105.9771539999999987
0
LINE
8
BLACK
6
CONTINUOUS
10
147.7507009999999923
20
-105.9771539999999987
11
147.7507009999999923
21
-105.9702879999999965
0
LINE
8
BLACK
6
CONTINUOUS
10
147.7507009999999923
20
-105.9702879999999965
11
147.7472939999999824
21
-105.9643259999999998
0
LINE
8
BLACK
6
CONTINUOUS
10
147.7472939999999824
20
-105.9643259999999998
11
147.7507009999999923
21
-105.9518329999999935
0
LINE
8
BLACK
6
CONTINUOUS
10
147.7507009999999923
20
-105.9518329999999935
11
147.7507009999999923
21
-105.9388859999999966
0
LINE
8
BLACK
6
CONTINUOUS
10
147.7507009999999923
20
-105.9388859999999966
11
147.7555559999999844
21
-105.9340299999999928
0
LINE
8
BLACK
6
CONTINUOUS
10
147.7555559999999844
20
-105.9340299999999928
11
147.757362999999998
21
-105.9274059999999906
0
LINE
8
BLACK
6
CONTINUOUS
10
147.757362999999998
20
-105.9274059999999906
11
147.7720879999999966
21
-105.9146080000000012
0
LINE
8
BLACK
6
CONTINUOUS
10
147.7720879999999966
20
-105.9146080000000012
11
148.4086169999999925
21
-105.5508769999999998
0
LINE
8
BLACK
6
CONTINUOUS
10
148.4086169999999925
20
-105.5508769999999998
11
147.7968950000000063
21
-105.5508769999999998
0
LINE
8
BLACK
6
CONTINUOUS
10
147.7968950000000063
20
-105.5508769999999998
11
147.7777609999999981
21
-105.5470709999999883
0
LINE
8
BLACK
6
CONTINUOUS
10
147.7777609999999981
20
-105.5470709999999883
11
147.7507009999999923
21
-105.5200109999999967
0
LINE
8
BLACK
6
CONTINUOUS
10
147.7507009999999923
20
-105.5200109999999967
11
147.7507009999999923
21
-105.4817429999999945
0
LINE
8
BLACK
6
CONTINUOUS
10
147.7507009999999923
20
-105.4817429999999945
11
147.7777609999999981
21
-105.4546829999999886
0
LINE
8
BLACK
6
CONTINUOUS
10
147.7777609999999981
20
-105.4546829999999886
11
147.7968950000000063
21
-105.4508769999999913
0
LINE
8
BLACK
6
CONTINUOUS
10
147.7968950000000063
20
-105.4508769999999913
11
148.5968949999999893
21
-105.4508769999999913
0
LINE
8
BLACK
6
CONTINUOUS
10
148.5968949999999893
20
-105.4508769999999913
11
148.6160289999999975
21
-105.4546829999999886
0
LINE
8
BLACK
6
CONTINUOUS
10
147.8237389999999891
20
-104.6586949999999945
11
148.2305020000000013
21
-104.9175439999999924
0
LINE
8
BLACK
6
CONTINUOUS
10
148.2305020000000013
20
-104.9175439999999924
11
148.5968949999999893
21
-104.9175439999999924
0
LINE
8
BLACK
6
CONTINUOUS
10
148.5968949999999893
20
-104.9175439999999924
11
148.6160289999999975
21
-104.9213499999999897
0
LINE
8
BLACK
6
CONTINUOUS
10
148.6160289999999975
20
-104.9213499999999897
11
148.6430890000000034
21
-104.9484099999999955
0
LINE
8
BLACK
6
CONTINUOUS
10
148.6430890000000034
20
-104.9484099999999955
11
148.6430890000000034
21
-104.9866779999999977
0
LINE
8
BLACK
6
CONTINUOUS
10
148.6430890000000034
20
-104.9866779999999977
11
148.6160289999999975
21
-105.0137379999999894
0
LINE
8
BLACK
6
CONTINUOUS
10
148.6160289999999975
20
-105.0137379999999894
11
148.5968949999999893
21
-105.0175440000000009
0
LINE
8
BLACK
6
CONTINUOUS
10
148.5968949999999893
20
-105.0175440000000009
11
148.2305020000000013
21
-105.0175440000000009
0
LINE
8
BLACK
6
CONTINUOUS
10
148.2305020000000013
20
-105.0175440000000009
11
147.8237389999999891
21
-105.2763939999999963
0
LINE
8
BLACK
6
CONTINUOUS
10
147.8237389999999891
20
-105.2763939999999963
11
147.8055530000000033
21
-105.283456000000001
0
LINE
8
BLACK
6
CONTINUOUS
10
147.8055530000000033
20
-105.283456000000001
11
147.768195999999989
21
-105.2751540000000006
0
LINE
8
BLACK
6
CONTINUOUS
10
147.768195999999989
20
-105.2751540000000006
11
147.747649999999993
21
-105.2428689999999989
0
LINE
8
BLACK
6
CONTINUOUS
10
147.747649999999993
20
-105.2428689999999989
11
147.7559519999999793
21
-105.2055119999999988
0
LINE
8
BLACK
6
CONTINUOUS
10
147.7559519999999793
20
-105.2055119999999988
11
147.7700509999999952
21
-105.1920279999999934
0
LINE
8
BLACK
6
CONTINUOUS
10
147.7700509999999952
20
-105.1920279999999934
11
148.122809999999987
21
-104.9675439999999895
0
LINE
8
BLACK
6
CONTINUOUS
10
148.122809999999987
20
-104.9675439999999895
11
147.7700509999999952
21
-104.7430609999999973
0
LINE
8
BLACK
6
CONTINUOUS
10
147.7700509999999952
20
-104.7430609999999973
11
147.7559519999999793
21
-104.7295779999999894
0
LINE
8
BLACK
6
CONTINUOUS
10
147.7559519999999793
20
-104.7295779999999894
11
147.747649999999993
21
-104.6922199999999918
0
LINE
8
BLACK
6
CONTINUOUS
10
147.747649999999993
20
-104.6922199999999918
11
147.7681949999999915
21
-104.6599349999999902
0
LINE
8
BLACK
6
CONTINUOUS
10
147.7681949999999915
20
-104.6599349999999902
11
147.8055530000000033
21
-104.6516329999999897
0
LINE
8
BLACK
6
CONTINUOUS
10
147.8055530000000033
20
-104.6516329999999897
11
147.8237389999999891
21
-104.6586949999999945
0
LINE
8
BLACK
6
CONTINUOUS
10
152.5861940000000061
20
-91.0808660000000003
11
152.5900000000000034
21
-91.0999999999999943
0
LINE
8
BLACK
6
CONTINUOUS
10
152.5900000000000034
20
-91.0999999999999943
11
152.5900000000000034
21
-96.0699999999999932
0
LINE
8
BLACK
6
CONTINUOUS
10
152.5900000000000034
20
-96.0699999999999932
11
156.4099999999999966
21
-96.0699999999999932
0
LINE
8
BLACK
6
CONTINUOUS
10
156.4099999999999966
20
-96.0699999999999932
11
156.4329610000000059
21
-96.0745670000000018
0
LINE
8
BLACK
6
CONTINUOUS
10
156.4329610000000059
20
-96.0745670000000018
11
156.4654329999999902
21
-96.1070390000000003
0
LINE
8
BLACK
6
CONTINUOUS
10
156.4654329999999902
20
-96.1070390000000003
11
156.4699999999999989
21
-96.1299999999999955
0
LINE
8
BLACK
6
CONTINUOUS
10
156.4699999999999989
20
-96.1299999999999955
11
156.4699999999999989
21
-101.3299999999999983
0
LINE
8
BLACK
6
CONTINUOUS
10
156.4699999999999989
20
-101.3299999999999983
11
156.4654329999999902
21
-101.3529609999999934
0
LINE
8
BLACK
6
CONTINUOUS
10
156.4654329999999902
20
-101.3529609999999934
11
156.4329610000000059
21
-101.3854329999999919
0
LINE
8
BLACK
6
CONTINUOUS
10
156.4329610000000059
20
-101.3854329999999919
11
156.4099999999999966
21
-101.3900000000000006
0
LINE
8
BLACK
6
CONTINUOUS
10
156.4099999999999966
20
-101.3900000000000006
11
152.5900000000000034
21
-101.3900000000000006
0
LINE
8
BLACK
6
CONTINUOUS
10
152.5900000000000034
20
-101.3900000000000006
11
152.5900000000000034
21
-103.9949999999999903
0
LINE
8
BLACK
6
CONTINUOUS
10
152.5900000000000034
20
-103.9949999999999903
11
157.6399999999999864
21
-103.9949999999999903
0
LINE
8
BLACK
6
CONTINUOUS
10
157.6399999999999864
20
-103.9949999999999903
11
157.6629609999999957
21
-103.999566999999999
0
LINE
8
BLACK
6
CONTINUOUS
10
157.6629609999999957
20
-103.999566999999999
11
157.69543299999998
21
-104.0320389999999975
0
LINE
8
BLACK
6
CONTINUOUS
10
157.69543299999998
20
-104.0320389999999975
11
157.6999999999999886
21
-104.0549999999999926
0
LINE
8
BLACK
6
CONTINUOUS
10
157.6999999999999886
20
-104.0549999999999926
11
157.6999999999999886
21
-105.7049999999999983
0
LINE
8
BLACK
6
CONTINUOUS
10
157.6999999999999886
20
-105.7049999999999983
11
157.6970629999999858
21
-105.7197659999999928
0
LINE
8
BLACK
6
CONTINUOUS
10
157.6970629999999858
20
-105.7197659999999928
11
157.6970629999999858
21
-105.7235409999999973
0
LINE
8
BLACK
6
CONTINUOUS
10
157.6970629999999858
20
-105.7235409999999973
11
157.6960289999999816
21
-105.7249639999999999
0
LINE
8
BLACK
6
CONTINUOUS
10
157.6960289999999816
20
-105.7249639999999999
11
157.69543299999998
21
-105.7279609999999934
0
LINE
8
BLACK
6
CONTINUOUS
10
157.69543299999998
20
-105.7279609999999934
11
157.6896500000000003
21
-105.7337429999999898
0
LINE
8
BLACK
6
CONTINUOUS
10
157.6896500000000003
20
-105.7337429999999898
11
157.675266999999991
21
-105.7535409999999985
0
LINE
8
BLACK
6
CONTINUOUS
10
157.675266999999991
20
-105.7535409999999985
11
157.6672470000000033
21
-105.7561460000000011
0
LINE
8
BLACK
6
CONTINUOUS
10
157.6672470000000033
20
-105.7561460000000011
11
157.6629609999999957
21
-105.7604329999999919
0
LINE
8
BLACK
6
CONTINUOUS
10
157.6629609999999957
20
-105.7604329999999919
11
157.6540559999999971
21
-105.7604329999999919
0
LINE
8
BLACK
6
CONTINUOUS
10
157.6540559999999971
20
-105.7604329999999919
11
157.6399999999999864
21
-105.7650000000000006
0
LINE
8
BLACK
6
CONTINUOUS
10
157.6399999999999864
20
-105.7650000000000006
11
157.5474179999999933
21
-105.7650000000000006
0
LINE
8
BLACK
6
CONTINUOUS
10
157.5474179999999933
20
-105.7650000000000006
11
157.3658120000000054
21
-105.8011240000000015
0
LINE
8
BLACK
6
CONTINUOUS
10
157.3658120000000054
20
-105.8011240000000015
11
157.1947429999999883
21
-105.8719830000000002
0
LINE
8
BLACK
6
CONTINUOUS
10
157.1947429999999883
20
-105.8719830000000002
11
157.0407849999999996
21
-105.9748549999999909
0
LINE
8
BLACK
6
CONTINUOUS
10
157.0407849999999996
20
-105.9748549999999909
11
156.9098549999999932
21
-106.1057849999999974
0
LINE
8
BLACK
6
CONTINUOUS
10
156.9098549999999932
20
-106.1057849999999974
11
156.8069830000000024
21
-106.2597430000000003
0
LINE
8
BLACK
6
CONTINUOUS
10
156.8069830000000024
20
-106.2597430000000003
11
156.7361239999999896
21
-106.4308119999999889
0
LINE
8
BLACK
6
CONTINUOUS
10
156.7361239999999896
20
-106.4308119999999889
11
156.6999999999999886
21
-106.612417999999991
0
LINE
8
BLACK
6
CONTINUOUS
10
156.6999999999999886
20
-106.612417999999991
11
156.6999999999999886
21
-106.7975819999999914
0
LINE
8
BLACK
6
CONTINUOUS
10
156.6999999999999886
20
-106.7975819999999914
11
156.7361239999999896
21
-106.9791879999999935
0
LINE
8
BLACK
6
CONTINUOUS
10
156.7361239999999896
20
-106.9791879999999935
11
156.8069830000000024
21
-107.1502569999999963
0
LINE
8
BLACK
6
CONTINUOUS
10
156.8069830000000024
20
-107.1502569999999963
11
156.9098549999999932
21
-107.3042149999999992
0
LINE
8
BLACK
6
CONTINUOUS
10
156.9098549999999932
20
-107.3042149999999992
11
157.0407849999999996
21
-107.4351449999999915
0
LINE
8
BLACK
6
CONTINUOUS
10
157.0407849999999996
20
-107.4351449999999915
11
157.1947429999999883
21
-107.5380169999999964
0
LINE
8
BLACK
6
CONTINUOUS
10
157.1947429999999883
20
-107.5380169999999964
11
157.3658120000000054
21
-107.6088759999999951
0
LINE
8
BLACK
6
CONTINUOUS
10
157.3658120000000054
20
-107.6088759999999951
11
157.5474179999999933
21
-107.644999999999996
0
LINE
8
BLACK
6
CONTINUOUS
10
157.5474179999999933
20
-107.644999999999996
11
157.6399999999999864
21
-107.644999999999996
0
LINE
8
BLACK
6
CONTINUOUS
10
157.6399999999999864
20
-107.644999999999996
11
157.6540559999999971
21
-107.6495669999999905
0
LINE
8
BLACK
6
CONTINUOUS
10
157.6540559999999971
20
-107.6495669999999905
11
157.6629609999999957
21
-107.6495669999999905
0
LINE
8
BLACK
6
CONTINUOUS
10
157.6629609999999957
20
-107.6495669999999905
11
157.6672470000000033
21
-107.653852999999998
0
LINE
8
BLACK
6
CONTINUOUS
10
157.6672470000000033
20
-107.653852999999998
11
157.675266999999991
21
-107.6564589999999981
0
LINE
8
BLACK
6
CONTINUOUS
10
157.675266999999991
20
-107.6564589999999981
11
157.6896500000000003
21
-107.6762559999999951
0
LINE
8
BLACK
6
CONTINUOUS
10
157.6896500000000003
20
-107.6762559999999951
11
157.69543299999998
21
-107.682038999999989
0
LINE
8
BLACK
6
CONTINUOUS
10
157.69543299999998
20
-107.682038999999989
11
157.6960289999999816
21
-107.6850349999999992
0
LINE
8
BLACK
6
CONTINUOUS
10
157.6960289999999816
20
-107.6850349999999992
11
157.6970629999999858
21
-107.6864589999999993
0
LINE
8
BLACK
6
CONTINUOUS
10
157.6970629999999858
20
-107.6864589999999993
11
157.6970629999999858
21
-107.6902329999999921
0
LINE
8
BLACK
6
CONTINUOUS
10
157.6970629999999858
20
-107.6902329999999921
11
157.6999999999999886
21
-107.7049999999999983
0
LINE
8
BLACK
6
CONTINUOUS
10
157.6999999999999886
20
-107.7049999999999983
11
157.6999999999999886
21
-109.3549999999999898
0
LINE
8
BLACK
6
CONTINUOUS
10
157.6999999999999886
20
-109.3549999999999898
11
157.69543299999998
21
-109.3779609999999991
0
LINE
8
BLACK
6
CONTINUOUS
10
157.69543299999998
20
-109.3779609999999991
11
157.6629609999999957
21
-109.4104329999999976
0
LINE
8
BLACK
6
CONTINUOUS
10
157.6629609999999957
20
-109.4104329999999976
11
157.6399999999999864
21
-109.414999999999992
0
LINE
8
BLACK
6
CONTINUOUS
10
157.6399999999999864
20
-109.414999999999992
11
152.5900000000000034
21
-109.414999999999992
0
LINE
8
BLACK
6
CONTINUOUS
10
152.5900000000000034
20
-109.414999999999992
11
152.5900000000000034
21
-115.3399999999999892
0
LINE
8
BLACK
6
CONTINUOUS
10
152.5900000000000034
20
-115.3399999999999892
11
154.039999999999992
21
-115.3399999999999892
0
LINE
8
BLACK
6
CONTINUOUS
10
154.039999999999992
20
-115.3399999999999892
11
154.0629610000000014
21
-115.3445669999999978
0
LINE
8
BLACK
6
CONTINUOUS
10
154.0629610000000014
20
-115.3445669999999978
11
154.0954329999999857
21
-115.3770389999999963
0
LINE
8
BLACK
6
CONTINUOUS
10
154.0954329999999857
20
-115.3770389999999963
11
154.0999999999999943
21
-115.3999999999999915
0
LINE
8
BLACK
6
CONTINUOUS
10
154.0999999999999943
20
-115.3999999999999915
11
154.0999999999999943
21
-119.6999999999999886
0
LINE
8
BLACK
6
CONTINUOUS
10
154.0999999999999943
20
-119.6999999999999886
11
156.539999999999992
21
-119.6999999999999886
0
LINE
8
BLACK
6
CONTINUOUS
10
156.539999999999992
20
-119.6999999999999886
11
156.539999999999992
21
-113.5999999999999943
0
LINE
8
BLACK
6
CONTINUOUS
10
156.539999999999992
20
-113.5999999999999943
11
155.6800000000000068
21
-113.5999999999999943
0
LINE
8
BLACK
6
CONTINUOUS
10
155.6800000000000068
20
-113.5999999999999943
11
155.4000000000000057
21
-113.5999999999999943
0
LINE
8
BLACK
6
CONTINUOUS
10
155.4000000000000057
20
-113.5999999999999943
11
155.3770389999999963
21
-113.5954329999999999
0
LINE
8
BLACK
6
CONTINUOUS
10
155.3770389999999963
20
-113.5954329999999999
11
155.3445669999999836
21
-113.5629610000000014
0
LINE
8
BLACK
6
CONTINUOUS
10
155.3445669999999836
20
-113.5629610000000014
11
155.3445669999999836
21
-113.5170389999999969
0
LINE
8
BLACK
6
CONTINUOUS
10
155.3445669999999836
20
-113.5170389999999969
11
155.3770389999999963
21
-113.4845669999999984
0
LINE
8
BLACK
6
CONTINUOUS
10
155.3770389999999963
20
-113.4845669999999984
11
155.4000000000000057
21
-113.4799999999999898
0
LINE
8
BLACK
6
CONTINUOUS
10
155.4000000000000057
20
-113.4799999999999898
11
155.6200000000000045
21
-113.4799999999999898
0
LINE
8
BLACK
6
CONTINUOUS
10
155.6200000000000045
20
-113.4799999999999898
11
155.6200000000000045
21
-111.9399999999999977
0
LINE
8
BLACK
6
CONTINUOUS
10
155.6200000000000045
20
-111.9399999999999977
11
155.6245669999999848
21
-111.9170389999999884
0
LINE
8
BLACK
6
CONTINUOUS
10
155.6245669999999848
20
-111.9170389999999884
11
155.6570389999999975
21
-111.8845669999999899
0
LINE
8
BLACK
6
CONTINUOUS
10
155.6570389999999975
20
-111.8845669999999899
11
155.6800000000000068
21
-111.8799999999999955
0
LINE
8
BLACK
6
CONTINUOUS
10
155.6800000000000068
20
-111.8799999999999955
11
156.5999999999999943
21
-111.8799999999999955
0
LINE
8
BLACK
6
CONTINUOUS
10
156.5999999999999943
20
-111.8799999999999955
11
156.6229610000000037
21
-111.8845669999999899
0
LINE
8
BLACK
6
CONTINUOUS
10
156.6229610000000037
20
-111.8845669999999899
11
156.6554329999999879
21
-111.9170389999999884
0
LINE
8
BLACK
6
CONTINUOUS
10
156.6554329999999879
20
-111.9170389999999884
11
156.6599999999999966
21
-111.9399999999999977
0
LINE
8
BLACK
6
CONTINUOUS
10
156.6599999999999966
20
-111.9399999999999977
11
156.6599999999999966
21
-119.7599999999999909
0
LINE
8
BLACK
6
CONTINUOUS
10
156.6599999999999966
20
-119.7599999999999909
11
156.6554329999999879
21
-119.7829610000000002
0
LINE
8
BLACK
6
CONTINUOUS
10
156.6554329999999879
20
-119.7829610000000002
11
156.6229610000000037
21
-119.8154329999999987
0
LINE
8
BLACK
6
CONTINUOUS
10
156.6229610000000037
20
-119.8154329999999987
11
156.5999999999999943
21
-119.8199999999999932
0
LINE
8
BLACK
6
CONTINUOUS
10
156.5999999999999943
20
-119.8199999999999932
11
152.5900000000000034
21
-119.8199999999999932
0
LINE
8
BLACK
6
CONTINUOUS
10
152.5900000000000034
20
-119.8199999999999932
11
152.5900000000000034
21
-137.9000000000000057
0
LINE
8
BLACK
6
CONTINUOUS
10
152.5900000000000034
20
-137.9000000000000057
11
152.5861940000000061
21
-137.9191339999999855
0
LINE
8
BLACK
6
CONTINUOUS
10
152.5861940000000061
20
-137.9191339999999855
11
152.5591340000000002
21
-137.9461939999999913
0
LINE
8
BLACK
6
CONTINUOUS
10
152.5591340000000002
20
-137.9461939999999913
11
152.5208659999999838
21
-137.9461939999999913
0
LINE
8
BLACK
6
CONTINUOUS
10
152.5208659999999838
20
-137.9461939999999913
11
152.4938060000000064
21
-137.9191339999999855
0
LINE
8
BLACK
6
CONTINUOUS
10
152.4938060000000064
20
-137.9191339999999855
11
152.4899999999999807
21
-137.9000000000000057
0
LINE
8
BLACK
6
CONTINUOUS
10
152.4899999999999807
20
-137.9000000000000057
11
152.4899999999999807
21
-119.8199999999999932
0
LINE
8
BLACK
6
CONTINUOUS
10
152.4899999999999807
20
-119.8199999999999932
11
148.4799999999999898
21
-119.8199999999999932
0
LINE
8
BLACK
6
CONTINUOUS
10
148.4799999999999898
20
-119.8199999999999932
11
148.4570389999999804
21
-119.8154329999999987
0
LINE
8
BLACK
6
CONTINUOUS
10
148.4570389999999804
20
-119.8154329999999987
11
148.4245669999999961
21
-119.7829610000000002
0
LINE
8
BLACK
6
CONTINUOUS
10
148.4245669999999961
20
-119.7829610000000002
11
148.4199999999999875
21
-119.7599999999999909
0
LINE
8
BLACK
6
CONTINUOUS
10
148.4199999999999875
20
-119.7599999999999909
11
148.4199999999999875
21
-111.9399999999999977
0
LINE
8
BLACK
6
CONTINUOUS
10
148.4199999999999875
20
-111.9399999999999977
11
148.4245669999999961
21
-111.9170389999999884
0
LINE
8
BLACK
6
CONTINUOUS
10
148.4245669999999961
20
-111.9170389999999884
11
148.4570389999999804
21
-111.8845669999999899
0
LINE
8
BLACK
6
CONTINUOUS
10
148.4570389999999804
20
-111.8845669999999899
11
148.4799999999999898
21
-111.8799999999999955
0
LINE
8
BLACK
6
CONTINUOUS
10
148.4799999999999898
20
-111.8799999999999955
11
149.4000000000000057
21
-111.8799999999999955
0
LINE
8
BLACK
6
CONTINUOUS
10
149.4000000000000057
20
-111.8799999999999955
11
149.4229609999999866
21
-111.8845669999999899
0
LINE
8
BLACK
6
CONTINUOUS
10
149.4229609999999866
20
-111.8845669999999899
11
149.4554329999999993
21
-111.9170389999999884
0
LINE
8
BLACK
6
CONTINUOUS
10
149.4554329999999993
20
-111.9170389999999884
11
149.4599999999999795
21
-111.9399999999999977
0
LINE
8
BLACK
6
CONTINUOUS
10
149.4599999999999795
20
-111.9399999999999977
11
149.4599999999999795
21
-113.4799999999999898
0
LINE
8
BLACK
6
CONTINUOUS
10
149.4599999999999795
20
-113.4799999999999898
11
149.6200000000000045
21
-113.4799999999999898
0
LINE
8
BLACK
6
CONTINUOUS
10
149.6200000000000045
20
-113.4799999999999898
11
149.6200000000000045
21
-112.3249999999999886
0
LINE
8
BLACK
6
CONTINUOUS
10
149.6200000000000045
20
-112.3249999999999886
11
149.6245669999999848
21
-112.3020389999999935
0
LINE
8
BLACK
6
CONTINUOUS
10
149.6245669999999848
20
-112.3020389999999935
11
149.6570389999999975
21
-112.269566999999995
0
LINE
8
BLACK
6
CONTINUOUS
10
149.6570389999999975
20
-112.269566999999995
11
149.7029609999999877
21
-112.269566999999995
0
LINE
8
BLACK
6
CONTINUOUS
10
149.7029609999999877
20
-112.269566999999995
11
149.7354330000000004
21
-112.3020389999999935
0
LINE
8
BLACK
6
CONTINUOUS
10
149.7354330000000004
20
-112.3020389999999935
11
149.7399999999999807
21
-112.3249999999999886
0
LINE
8
BLACK
6
CONTINUOUS
10
149.7399999999999807
20
-112.3249999999999886
11
149.7399999999999807
21
-113.539999999999992
0
LINE
8
BLACK
6
CONTINUOUS
10
149.7399999999999807
20
-113.539999999999992
11
149.7354330000000004
21
-113.5629610000000014
0
LINE
8
BLACK
6
CONTINUOUS
10
149.7354330000000004
20
-113.5629610000000014
11
149.7029609999999877
21
-113.5954329999999999
0
LINE
8
BLACK
6
CONTINUOUS
10
149.7029609999999877
20
-113.5954329999999999
11
149.6800000000000068
21
-113.5999999999999943
0
LINE
8
BLACK
6
CONTINUOUS
10
149.6800000000000068
20
-113.5999999999999943
11
149.4000000000000057
21
-113.5999999999999943
0
LINE
8
BLACK
6
CONTINUOUS
10
149.4000000000000057
20
-113.5999999999999943
11
148.539999999999992
21
-113.5999999999999943
0
LINE
8
BLACK
6
CONTINUOUS
10
148.539999999999992
20
-113.5999999999999943
11
148.539999999999992
21
-119.6999999999999886
0
LINE
8
BLACK
6
CONTINUOUS
10
148.539999999999992
20
-119.6999999999999886
11
149.6800000000000068
21
-119.6999999999999886
0
LINE
8
BLACK
6
CONTINUOUS
10
149.6800000000000068
20
-119.6999999999999886
11
149.6800000000000068
21
-117.5599999999999881
0
LINE
8
BLACK
6
CONTINUOUS
10
149.6800000000000068
20
-117.5599999999999881
11
149.2399999999999807
21
-117.5599999999999881
0
LINE
8
BLACK
6
CONTINUOUS
10
149.2399999999999807
20
-117.5599999999999881
11
149.2170389999999998
21
-117.5554329999999936
0
LINE
8
BLACK
6
CONTINUOUS
10
149.2170389999999998
20
-117.5554329999999936
11
149.184566999999987
21
-117.5229609999999951
0
LINE
8
BLACK
6
CONTINUOUS
10
149.184566999999987
20
-117.5229609999999951
11
149.1800000000000068
21
-117.5
0
LINE
8
BLACK
6
CONTINUOUS
10
149.1800000000000068
20
-117.5
11
149.1800000000000068
21
-115.8999999999999915
0
LINE
8
BLACK
6
CONTINUOUS
10
149.1800000000000068
20
-115.8999999999999915
11
149.184566999999987
21
-115.8770389999999963
0
LINE
8
BLACK
6
CONTINUOUS
10
149.184566999999987
20
-115.8770389999999963
11
149.2170389999999998
21
-115.8445669999999978
0
LINE
8
BLACK
6
CONTINUOUS
10
149.2170389999999998
20
-115.8445669999999978
11
149.2399999999999807
21
-115.8399999999999892
0
LINE
8
BLACK
6
CONTINUOUS
10
149.2399999999999807
20
-115.8399999999999892
11
150.2399999999999807
21
-115.8399999999999892
0
LINE
8
BLACK
6
CONTINUOUS
10
150.2399999999999807
20
-115.8399999999999892
11
150.26296099999999
21
-115.8445669999999978
0
LINE
8
BLACK
6
CONTINUOUS
10
150.26296099999999
20
-115.8445669999999978
11
150.2954330000000027
21
-115.8770389999999963
0
LINE
8
BLACK
6
CONTINUOUS
10
150.2954330000000027
20
-115.8770389999999963
11
150.2999999999999829
21
-115.8999999999999915
0
LINE
8
BLACK
6
CONTINUOUS
10
150.2999999999999829
20
-115.8999999999999915
11
150.2999999999999829
21
-117.5
0
LINE
8
BLACK
6
CONTINUOUS
10
150.2999999999999829
20
-117.5
11
150.2999999999999829
21
-119.6999999999999886
0
LINE
8
BLACK
6
CONTINUOUS
10
150.2999999999999829
20
-119.6999999999999886
11
150.9799999999999898
21
-119.6999999999999886
0
LINE
8
BLACK
6
CONTINUOUS
10
150.9799999999999898
20
-119.6999999999999886
11
150.9799999999999898
21
-115.3999999999999915
0
LINE
8
BLACK
6
CONTINUOUS
10
150.9799999999999898
20
-115.3999999999999915
11
150.9845669999999984
21
-115.3770389999999963
0
LINE
8
BLACK
6
CONTINUOUS
10
150.9845669999999984
20
-115.3770389999999963
11
151.0170389999999827
21
-115.3445669999999978
0
LINE
8
BLACK
6
CONTINUOUS
10
151.0170389999999827
20
-115.3445669999999978
11
151.039999999999992
21
-115.3399999999999892
0
LINE
8
BLACK
6
CONTINUOUS
10
151.039999999999992
20
-115.3399999999999892
11
152.4899999999999807
21
-115.3399999999999892
0
LINE
8
BLACK
6
CONTINUOUS
10
152.4899999999999807
20
-115.3399999999999892
11
152.4899999999999807
21
-109.414999999999992
0
LINE
8
BLACK
6
CONTINUOUS
10
152.4899999999999807
20
-109.414999999999992
11
147.3599999999999852
21
-109.414999999999992
0
LINE
8
BLACK
6
CONTINUOUS
10
147.3599999999999852
20
-109.414999999999992
11
147.3370390000000043
21
-109.4104329999999976
0
LINE
8
BLACK
6
CONTINUOUS
10
147.3370390000000043
20
-109.4104329999999976
11
147.3045669999999916
21
-109.3779609999999991
0
LINE
8
BLACK
6
CONTINUOUS
10
147.3045669999999916
20
-109.3779609999999991
11
147.2999999999999829
21
-109.3549999999999898
0
LINE
8
BLACK
6
CONTINUOUS
10
147.2999999999999829
20
-109.3549999999999898
11
147.2999999999999829
21
-104.0549999999999926
0
LINE
8
BLACK
6
CONTINUOUS
10
147.2999999999999829
20
-104.0549999999999926
11
147.3045669999999916
21
-104.0320389999999975
0
LINE
8
BLACK
6
CONTINUOUS
10
147.3045669999999916
20
-104.0320389999999975
11
147.3370390000000043
21
-103.999566999999999
0
LINE
8
BLACK
6
CONTINUOUS
10
147.3370390000000043
20
-103.999566999999999
11
147.3599999999999852
21
-103.9949999999999903
0
LINE
8
BLACK
6
CONTINUOUS
10
147.3599999999999852
20
-103.9949999999999903
11
152.4899999999999807
21
-103.9949999999999903
0
LINE
8
BLACK
6
CONTINUOUS
10
152.4899999999999807
20
-103.9949999999999903
11
152.4899999999999807
21
-101.3900000000000006
0
LINE
8
BLACK
6
CONTINUOUS
10
152.4899999999999807
20
-101.3900000000000006
11
151.2699999999999818
21
-101.3900000000000006
0
LINE
8
BLACK
6
CONTINUOUS
10
151.2699999999999818
20
-101.3900000000000006
11
151.2470390000000009
21
-101.3854329999999919
0
LINE
8
BLACK
6
CONTINUOUS
10
151.2470390000000009
20
-101.3854329999999919
11
151.2145669999999882
21
-101.3529609999999934
0
LINE
8
BLACK
6
CONTINUOUS
10
151.2145669999999882
20
-101.3529609999999934
11
151.2099999999999795
21
-101.3299999999999983
0
LINE
8
BLACK
6
CONTINUOUS
10
151.2099999999999795
20
-101.3299999999999983
11
151.2099999999999795
21
-98.789999999999992
0
LINE
8
BLACK
6
CONTINUOUS
10
151.2099999999999795
20
-98.789999999999992
11
148.6699999999999875
21
-98.789999999999992
0
LINE
8
BLACK
6
CONTINUOUS
10
148.6699999999999875
20
-98.789999999999992
11
148.6470390000000066
21
-98.7854329999999976
0
LINE
8
BLACK
6
CONTINUOUS
10
148.6470390000000066
20
-98.7854329999999976
11
148.6145669999999939
21
-98.7529609999999991
0
LINE
8
BLACK
6
CONTINUOUS
10
148.6145669999999939
20
-98.7529609999999991
11
148.6099999999999852
21
-98.7299999999999898
0
LINE
8
BLACK
6
CONTINUOUS
10
148.6099999999999852
20
-98.7299999999999898
11
148.6099999999999852
21
-96.1299999999999955
0
LINE
8
BLACK
6
CONTINUOUS
10
148.6099999999999852
20
-96.1299999999999955
11
148.6145669999999939
21
-96.1070390000000003
0
LINE
8
BLACK
6
CONTINUOUS
10
148.6145669999999939
20
-96.1070390000000003
11
148.6470390000000066
21
-96.0745670000000018
0
LINE
8
BLACK
6
CONTINUOUS
10
148.6470390000000066
20
-96.0745670000000018
11
148.6699999999999875
21
-96.0699999999999932
0
LINE
8
BLACK
6
CONTINUOUS
10
148.6699999999999875
20
-96.0699999999999932
11
152.4899999999999807
21
-96.0699999999999932
0
LINE
8
BLACK
6
CONTINUOUS
10
152.4899999999999807
20
-96.0699999999999932
11
152.4899999999999807
21
-91.0999999999999943
0
LINE
8
BLACK
6
CONTINUOUS
10
152.4899999999999807
20
-91.0999999999999943
11
152.4938060000000064
21
-91.0808660000000003
0
LINE
8
BLACK
6
CONTINUOUS
10
152.4938060000000064
20
-91.0808660000000003
11
152.5208659999999838
21
-91.0538059999999945
0
LINE
8
BLACK
6
CONTINUOUS
10
152.5208659999999838
20
-91.0538059999999945
11
152.5591340000000002
21
-91.0538059999999945
0
LINE
8
BLACK
6
CONTINUOUS
10
152.5591340000000002
20
-91.0538059999999945
11
152.5861940000000061
21
-91.0808660000000003
0
LINE
8
BLACK
6
CONTINUOUS
10
149.7999999999999829
20
-117.5599999999999881
11
149.7999999999999829
21
-119.6999999999999886
0
LINE
8
BLACK
6
CONTINUOUS
10
149.7999999999999829
20
-119.6999999999999886
11
150.1800000000000068
21
-119.6999999999999886
0
LINE
8
BLACK
6
CONTINUOUS
10
150.1800000000000068
20
-119.6999999999999886
11
150.1800000000000068
21
-117.5599999999999881
0
LINE
8
BLACK
6
CONTINUOUS
10
150.1800000000000068
20
-117.5599999999999881
11
149.7999999999999829
21
-117.5599999999999881
0
LINE
8
BLACK
6
CONTINUOUS
10
151.0999999999999943
20
-115.4599999999999937
11
151.0999999999999943
21
-119.6999999999999886
0
LINE
8
BLACK
6
CONTINUOUS
10
151.0999999999999943
20
-119.6999999999999886
11
152.4899999999999807
21
-119.6999999999999886
0
LINE
8
BLACK
6
CONTINUOUS
10
152.4899999999999807
20
-119.6999999999999886
11
152.4899999999999807
21
-115.4599999999999937
0
LINE
8
BLACK
6
CONTINUOUS
10
152.4899999999999807
20
-115.4599999999999937
11
151.0999999999999943
21
-115.4599999999999937
0
LINE
8
BLACK
6
CONTINUOUS
10
152.5900000000000034
20
-115.4599999999999937
11
152.5900000000000034
21
-119.6999999999999886
0
LINE
8
BLACK
6
CONTINUOUS
10
152.5900000000000034
20
-119.6999999999999886
11
153.9799999999999898
21
-119.6999999999999886
0
LINE
8
BLACK
6
CONTINUOUS
10
153.9799999999999898
20
-119.6999999999999886
11
153.9799999999999898
21
-115.4599999999999937
0
LINE
8
BLACK
6
CONTINUOUS
10
153.9799999999999898
20
-115.4599999999999937
11
152.5900000000000034
21
-115.4599999999999937
0
LINE
8
BLACK
6
CONTINUOUS
10
149.2999999999999829
20
-115.9599999999999937
11
149.2999999999999829
21
-117.4399999999999977
0
LINE
8
BLACK
6
CONTINUOUS
10
149.2999999999999829
20
-117.4399999999999977
11
150.1800000000000068
21
-117.4399999999999977
0
LINE
8
BLACK
6
CONTINUOUS
10
150.1800000000000068
20
-117.4399999999999977
11
150.1800000000000068
21
-115.9599999999999937
0
LINE
8
BLACK
6
CONTINUOUS
10
150.1800000000000068
20
-115.9599999999999937
11
149.2999999999999829
21
-115.9599999999999937
0
LINE
8
BLACK
6
CONTINUOUS
10
155.7399999999999807
20
-112.
11
155.7399999999999807
21
-113.4799999999999898
0
LINE
8
BLACK
6
CONTINUOUS
10
155.7399999999999807
20
-113.4799999999999898
11
156.539999999999992
21
-113.4799999999999898
0
LINE
8
BLACK
6
CONTINUOUS
10
156.539999999999992
20
-113.4799999999999898
11
156.539999999999992
21
-112.
0
LINE
8
BLACK
6
CONTINUOUS
10
156.539999999999992
20
-112.
11
155.7399999999999807
21
-112.
0
LINE
8
BLACK
6
CONTINUOUS
10
148.539999999999992
20
-112.
11
148.539999999999992
21
-113.4799999999999898
0
LINE
8
BLACK
6
CONTINUOUS
10
148.539999999999992
20
-113.4799999999999898
11
149.3400000000000034
21
-113.4799999999999898
0
LINE
8
BLACK
6
CONTINUOUS
10
149.3400000000000034
20
-113.4799999999999898
11
149.3400000000000034
21
-112.
0
LINE
8
BLACK
6
CONTINUOUS
10
149.3400000000000034
20
-112.
11
148.539999999999992
21
-112.
0
LINE
8
BLACK
6
CONTINUOUS
10
147.4199999999999875
20
-104.1149999999999949
11
147.4199999999999875
21
-109.2950000000000017
0
LINE
8
BLACK
6
CONTINUOUS
10
147.4199999999999875
20
-109.2950000000000017
11
152.4899999999999807
21
-109.2950000000000017
0
LINE
8
BLACK
6
CONTINUOUS
10
152.4899999999999807
20
-109.2950000000000017
11
152.4899999999999807
21
-104.1149999999999949
0
LINE
8
BLACK
6
CONTINUOUS
10
152.4899999999999807
20
-104.1149999999999949
11
147.4199999999999875
21
-104.1149999999999949
0
LINE
8
BLACK
6
CONTINUOUS
10
152.5900000000000034
20
-104.1149999999999949
11
152.5900000000000034
21
-109.2950000000000017
0
LINE
8
BLACK
6
CONTINUOUS
10
152.5900000000000034
20
-109.2950000000000017
11
157.5799999999999841
21
-109.2950000000000017
0
LINE
8
BLACK
6
CONTINUOUS
10
157.5799999999999841
20
-109.2950000000000017
11
157.5799999999999841
21
-107.7594399999999979
0
LINE
8
BLACK
6
CONTINUOUS
10
157.5799999999999841
20
-107.7594399999999979
11
157.445225999999991
21
-107.7469509999999957
0
LINE
8
BLACK
6
CONTINUOUS
10
157.445225999999991
20
-107.7469509999999957
11
157.2570839999999919
21
-107.6934210000000007
0
LINE
8
BLACK
6
CONTINUOUS
10
157.2570839999999919
20
-107.6934210000000007
11
157.0819819999999822
21
-107.6062299999999965
0
LINE
8
BLACK
6
CONTINUOUS
10
157.0819819999999822
20
-107.6062299999999965
11
156.9258829999999989
21
-107.4883489999999995
0
LINE
8
BLACK
6
CONTINUOUS
10
156.9258829999999989
20
-107.4883489999999995
11
156.794101999999981
21
-107.3437929999999909
0
LINE
8
BLACK
6
CONTINUOUS
10
156.794101999999981
20
-107.3437929999999909
11
156.6911269999999945
21
-107.1774829999999952
0
LINE
8
BLACK
6
CONTINUOUS
10
156.6911269999999945
20
-107.1774829999999952
11
156.6204649999999958
21
-106.9950829999999939
0
LINE
8
BLACK
6
CONTINUOUS
10
156.6204649999999958
20
-106.9950829999999939
11
156.5845219999999927
21
-106.8028039999999947
0
LINE
8
BLACK
6
CONTINUOUS
10
156.5845219999999927
20
-106.8028039999999947
11
156.5845219999999927
21
-106.6071960000000018
0
LINE
8
BLACK
6
CONTINUOUS
10
156.5845219999999927
20
-106.6071960000000018
11
156.6204649999999958
21
-106.4149169999999884
0
LINE
8
BLACK
6
CONTINUOUS
10
156.6204649999999958
20
-106.4149169999999884
11
156.6911269999999945
21
-106.2325170000000014
0
LINE
8
BLACK
6
CONTINUOUS
10
156.6911269999999945
20
-106.2325170000000014
11
156.794101999999981
21
-106.0662069999999915
0
LINE
8
BLACK
6
CONTINUOUS
10
156.794101999999981
20
-106.0662069999999915
11
156.9258829999999989
21
-105.9216509999999971
0
LINE
8
BLACK
6
CONTINUOUS
10
156.9258829999999989
20
-105.9216509999999971
11
157.0819819999999822
21
-105.8037700000000001
0
LINE
8
BLACK
6
CONTINUOUS
10
157.0819819999999822
20
-105.8037700000000001
11
157.2570839999999919
21
-105.7165789999999959
0
LINE
8
BLACK
6
CONTINUOUS
10
157.2570839999999919
20
-105.7165789999999959
11
157.445225999999991
21
-105.6630490000000009
0
LINE
8
BLACK
6
CONTINUOUS
10
157.445225999999991
20
-105.6630490000000009
11
157.5799999999999841
21
-105.6505590000000012
0
LINE
8
BLACK
6
CONTINUOUS
10
157.5799999999999841
20
-105.6505590000000012
11
157.5799999999999841
21
-104.1149999999999949
0
LINE
8
BLACK
6
CONTINUOUS
10
157.5799999999999841
20
-104.1149999999999949
11
152.5900000000000034
21
-104.1149999999999949
0
LINE
8
BLACK
6
CONTINUOUS
10
148.7299999999999898
20
-96.1899999999999977
11
148.7299999999999898
21
-98.6700000000000017
0
LINE
8
BLACK
6
CONTINUOUS
10
148.7299999999999898
20
-98.6700000000000017
11
151.2699999999999818
21
-98.6700000000000017
0
LINE
8
BLACK
6
CONTINUOUS
10
151.2699999999999818
20
-98.6700000000000017
11
151.2929609999999911
21
-98.6745669999999961
0
LINE
8
BLACK
6
CONTINUOUS
10
151.2929609999999911
20
-98.6745669999999961
11
151.3254330000000039
21
-98.7070389999999946
0
LINE
8
BLACK
6
CONTINUOUS
10
151.3254330000000039
20
-98.7070389999999946
11
151.3299999999999841
21
-98.7299999999999898
0
LINE
8
BLACK
6
CONTINUOUS
10
151.3299999999999841
20
-98.7299999999999898
11
151.3299999999999841
21
-101.269999999999996
0
LINE
8
BLACK
6
CONTINUOUS
10
151.3299999999999841
20
-101.269999999999996
11
152.4899999999999807
21
-101.269999999999996
0
LINE
8
BLACK
6
CONTINUOUS
10
152.4899999999999807
20
-101.269999999999996
11
152.4899999999999807
21
-96.1899999999999977
0
LINE
8
BLACK
6
CONTINUOUS
10
152.4899999999999807
20
-96.1899999999999977
11
148.7299999999999898
21
-96.1899999999999977
0
LINE
8
BLACK
6
CONTINUOUS
10
152.5900000000000034
20
-96.1899999999999977
11
152.5900000000000034
21
-101.269999999999996
0
LINE
8
BLACK
6
CONTINUOUS
10
152.5900000000000034
20
-101.269999999999996
11
156.3499999999999943
21
-101.269999999999996
0
LINE
8
BLACK
6
CONTINUOUS
10
156.3499999999999943
20
-101.269999999999996
11
156.3499999999999943
21
-96.1899999999999977
0
LINE
8
BLACK
6
CONTINUOUS
10
156.3499999999999943
20
-96.1899999999999977
11
152.5900000000000034
21
-96.1899999999999977
0
LINE
8
BLACK
6
CONTINUOUS
10
157.4225689999999815
20
-119.1680759999999992
11
158.0892359999999996
21
-119.4061710000000005
0
LINE
8
BLACK
6
CONTINUOUS
10
158.0892359999999996
20
-119.4061710000000005
11
158.1059750000000008
21
-119.4161909999999978
0
LINE
8
BLACK
6
CONTINUOUS
10
158.1059750000000008
20
-119.4161909999999978
11
158.1071029999999951
21
-119.418572999999995
0
LINE
8
BLACK
6
CONTINUOUS
10
158.1071029999999951
20
-119.418572999999995
11
158.109486000000004
21
-119.4197020000000009
0
LINE
8
BLACK
6
CONTINUOUS
10
158.109486000000004
20
-119.4197020000000009
11
158.1151480000000049
21
-119.4355569999999886
0
LINE
8
BLACK
6
CONTINUOUS
10
158.1151480000000049
20
-119.4355569999999886
11
158.1223569999999938
21
-119.450774999999993
0
LINE
8
BLACK
6
CONTINUOUS
10
158.1223569999999938
20
-119.450774999999993
11
158.121469999999988
21
-119.4532579999999911
0
LINE
8
BLACK
6
CONTINUOUS
10
158.121469999999988
20
-119.4532579999999911
11
158.1223569999999938
21
-119.4557409999999891
0
LINE
8
BLACK
6
CONTINUOUS
10
158.1223569999999938
20
-119.4557409999999891
11
158.1151480000000049
21
-119.470957999999996
0
LINE
8
BLACK
6
CONTINUOUS
10
158.1151480000000049
20
-119.470957999999996
11
158.109486000000004
21
-119.4868139999999954
0
LINE
8
BLACK
6
CONTINUOUS
10
158.109486000000004
20
-119.4868139999999954
11
158.1071029999999951
21
-119.4879419999999897
0
LINE
8
BLACK
6
CONTINUOUS
10
158.1071029999999951
20
-119.4879419999999897
11
158.1059750000000008
21
-119.4903249999999986
0
LINE
8
BLACK
6
CONTINUOUS
10
158.1059750000000008
20
-119.4903249999999986
11
158.0892359999999996
21
-119.5003449999999958
0
LINE
8
BLACK
6
CONTINUOUS
10
158.0892359999999996
20
-119.5003449999999958
11
157.4225689999999815
21
-119.7384399999999971
0
LINE
8
BLACK
6
CONTINUOUS
10
157.4225689999999815
20
-119.7384399999999971
11
157.4032689999999945
21
-119.7412909999999897
0
LINE
8
BLACK
6
CONTINUOUS
10
157.4032689999999945
20
-119.7412909999999897
11
157.3686849999999993
21
-119.7249089999999967
0
LINE
8
BLACK
6
CONTINUOUS
10
157.3686849999999993
20
-119.7249089999999967
11
157.355813999999981
21
-119.6888699999999943
0
LINE
8
BLACK
6
CONTINUOUS
10
157.355813999999981
20
-119.6888699999999943
11
157.3721960000000024
21
-119.654285999999999
0
LINE
8
BLACK
6
CONTINUOUS
10
157.3721960000000024
20
-119.654285999999999
11
157.3889350000000036
21
-119.6442659999999876
0
LINE
8
BLACK
6
CONTINUOUS
10
157.3889350000000036
20
-119.6442659999999876
11
157.9237579999999923
21
-119.4532579999999911
0
LINE
8
BLACK
6
CONTINUOUS
10
157.9237579999999923
20
-119.4532579999999911
11
157.3889350000000036
21
-119.2622499999999945
0
LINE
8
BLACK
6
CONTINUOUS
10
157.3889350000000036
20
-119.2622499999999945
11
157.3721960000000024
21
-119.2522299999999973
0
LINE
8
BLACK
6
CONTINUOUS
10
157.3721960000000024
20
-119.2522299999999973
11
157.355813999999981
21
-119.2176459999999878
0
LINE
8
BLACK
6
CONTINUOUS
10
157.355813999999981
20
-119.2176459999999878
11
157.3686849999999993
21
-119.1816069999999996
0
LINE
8
BLACK
6
CONTINUOUS
10
157.3686849999999993
20
-119.1816069999999996
11
157.4032689999999945
21
-119.1652249999999924
0
LINE
8
BLACK
6
CONTINUOUS
10
157.4032689999999945
20
-119.1652249999999924
11
157.4225689999999815
21
-119.1680759999999992
0
LINE
8
BLACK
6
CONTINUOUS
10
157.6974749999999972
20
-118.2615959999999973
11
157.7035929999999837
21
-118.2618939999999981
0
LINE
8
BLACK
6
CONTINUOUS
10
157.7035929999999837
20
-118.2618939999999981
11
157.8940690000000018
21
-118.3095129999999955
0
LINE
8
BLACK
6
CONTINUOUS
10
157.8940690000000018
20
-118.3095129999999955
11
157.8990210000000047
21
-118.3118519999999876
0
LINE
8
BLACK
6
CONTINUOUS
10
157.8990210000000047
20
-118.3118519999999876
11
157.9043029999999987
21
-118.3132990000000007
0
LINE
8
BLACK
6
CONTINUOUS
10
157.9043029999999987
20
-118.3132990000000007
11
157.9995399999999961
21
-118.3609170000000006
0
LINE
8
BLACK
6
CONTINUOUS
10
157.9995399999999961
20
-118.3609170000000006
11
158.0058679999999924
21
-118.3658279999999934
0
LINE
8
BLACK
6
CONTINUOUS
10
158.0058679999999924
20
-118.3658279999999934
11
158.0125349999999855
21
-118.3702830000000006
0
LINE
8
BLACK
6
CONTINUOUS
10
158.0125349999999855
20
-118.3702830000000006
11
158.0601549999999804
21
-118.417901999999998
0
LINE
8
BLACK
6
CONTINUOUS
10
158.0601549999999804
20
-118.417901999999998
11
158.0646089999999901
21
-118.4245679999999936
0
LINE
8
BLACK
6
CONTINUOUS
10
158.0646089999999901
20
-118.4245679999999936
11
158.0695209999999804
21
-118.4308970000000016
0
LINE
8
BLACK
6
CONTINUOUS
10
158.0695209999999804
20
-118.4308970000000016
11
158.1171400000000062
21
-118.5261349999999965
0
LINE
8
BLACK
6
CONTINUOUS
10
158.1171400000000062
20
-118.5261349999999965
11
158.1178009999999858
21
-118.5285499999999956
0
LINE
8
BLACK
6
CONTINUOUS
10
158.1178009999999858
20
-118.5285499999999956
11
158.1186129999999821
21
-118.5293619999999919
0
LINE
8
BLACK
6
CONTINUOUS
10
158.1186129999999821
20
-118.5293619999999919
11
158.1201759999999865
21
-118.5372229999999973
0
LINE
8
BLACK
6
CONTINUOUS
10
158.1201759999999865
20
-118.5372229999999973
11
158.1222929999999849
21
-118.5449509999999975
0
LINE
8
BLACK
6
CONTINUOUS
10
158.1222929999999849
20
-118.5449509999999975
11
158.1219299999999919
21
-118.5460389999999933
0
LINE
8
BLACK
6
CONTINUOUS
10
158.1219299999999919
20
-118.5460389999999933
11
158.1224189999999794
21
-118.5484960000000001
0
LINE
8
BLACK
6
CONTINUOUS
10
158.1224189999999794
20
-118.5484960000000001
11
158.1224189999999794
21
-118.6437339999999949
0
LINE
8
BLACK
6
CONTINUOUS
10
158.1224189999999794
20
-118.6437339999999949
11
158.1219299999999919
21
-118.6461899999999901
0
LINE
8
BLACK
6
CONTINUOUS
10
158.1219299999999919
20
-118.6461899999999901
11
158.1222929999999849
21
-118.6472789999999975
0
LINE
8
BLACK
6
CONTINUOUS
10
158.1222929999999849
20
-118.6472789999999975
11
158.1201759999999865
21
-118.6550060000000002
0
LINE
8
BLACK
6
CONTINUOUS
10
158.1201759999999865
20
-118.6550060000000002
11
158.1186129999999821
21
-118.6628679999999889
0
LINE
8
BLACK
6
CONTINUOUS
10
158.1186129999999821
20
-118.6628679999999889
11
158.1178009999999858
21
-118.6636789999999877
0
LINE
8
BLACK
6
CONTINUOUS
10
158.1178009999999858
20
-118.6636789999999877
11
158.1171400000000062
21
-118.6660949999999985
0
LINE
8
BLACK
6
CONTINUOUS
10
158.1171400000000062
20
-118.6660949999999985
11
158.0695209999999804
21
-118.7613329999999934
0
LINE
8
BLACK
6
CONTINUOUS
10
158.0695209999999804
20
-118.7613329999999934
11
158.0646089999999901
21
-118.7676609999999897
0
LINE
8
BLACK
6
CONTINUOUS
10
158.0646089999999901
20
-118.7676609999999897
11
158.0601549999999804
21
-118.774327999999997
0
LINE
8
BLACK
6
CONTINUOUS
10
158.0601549999999804
20
-118.774327999999997
11
158.0125349999999855
21
-118.8219469999999944
0
LINE
8
BLACK
6
CONTINUOUS
10
158.0125349999999855
20
-118.8219469999999944
11
158.0058679999999924
21
-118.8264009999999899
0
LINE
8
BLACK
6
CONTINUOUS
10
158.0058679999999924
20
-118.8264009999999899
11
157.9995399999999961
21
-118.8313129999999944
0
LINE
8
BLACK
6
CONTINUOUS
10
157.9995399999999961
20
-118.8313129999999944
11
157.9043029999999987
21
-118.8789309999999944
0
LINE
8
BLACK
6
CONTINUOUS
10
157.9043029999999987
20
-118.8789309999999944
11
157.8990210000000047
21
-118.8803769999999957
0
LINE
8
BLACK
6
CONTINUOUS
10
157.8990210000000047
20
-118.8803769999999957
11
157.8940690000000018
21
-118.8827169999999995
0
LINE
8
BLACK
6
CONTINUOUS
10
157.8940690000000018
20
-118.8827169999999995
11
157.7035929999999837
21
-118.9303359999999969
0
LINE
8
BLACK
6
CONTINUOUS
10
157.7035929999999837
20
-118.9303359999999969
11
157.6974749999999972
21
-118.9306330000000003
0
LINE
8
BLACK
6
CONTINUOUS
10
157.6974749999999972
20
-118.9306330000000003
11
157.6914659999999913
21
-118.9318289999999934
0
LINE
8
BLACK
6
CONTINUOUS
10
157.6914659999999913
20
-118.9318289999999934
11
157.4533710000000042
21
-118.9318289999999934
0
LINE
8
BLACK
6
CONTINUOUS
10
157.4533710000000042
20
-118.9318289999999934
11
157.4473610000000008
21
-118.9306330000000003
0
LINE
8
BLACK
6
CONTINUOUS
10
157.4473610000000008
20
-118.9306330000000003
11
157.4412439999999833
21
-118.9303359999999969
0
LINE
8
BLACK
6
CONTINUOUS
10
157.4412439999999833
20
-118.9303359999999969
11
157.2507679999999937
21
-118.8827169999999995
0
LINE
8
BLACK
6
CONTINUOUS
10
157.2507679999999937
20
-118.8827169999999995
11
157.2458149999999932
21
-118.8803769999999957
0
LINE
8
BLACK
6
CONTINUOUS
10
157.2458149999999932
20
-118.8803769999999957
11
157.2405339999999967
21
-118.8789309999999944
0
LINE
8
BLACK
6
CONTINUOUS
10
157.2405339999999967
20
-118.8789309999999944
11
157.1452960000000019
21
-118.8313119999999969
0
LINE
8
BLACK
6
CONTINUOUS
10
157.1452960000000019
20
-118.8313119999999969
11
157.1389669999999796
21
-118.8263999999999925
0
LINE
8
BLACK
6
CONTINUOUS
10
157.1389669999999796
20
-118.8263999999999925
11
157.132300999999984
21
-118.821945999999997
0
LINE
8
BLACK
6
CONTINUOUS
10
157.132300999999984
20
-118.821945999999997
11
157.0846829999999841
21
-118.7743269999999995
0
LINE
8
BLACK
6
CONTINUOUS
10
157.0846829999999841
20
-118.7743269999999995
11
157.0802309999999977
21
-118.7676649999999938
0
LINE
8
BLACK
6
CONTINUOUS
10
157.0802309999999977
20
-118.7676649999999938
11
157.0753159999999866
21
-118.7613319999999959
0
LINE
8
BLACK
6
CONTINUOUS
10
157.0753159999999866
20
-118.7613319999999959
11
157.0276979999999867
21
-118.6660949999999985
0
LINE
8
BLACK
6
CONTINUOUS
10
157.0276979999999867
20
-118.6660949999999985
11
157.0270359999999812
21
-118.6636789999999877
0
LINE
8
BLACK
6
CONTINUOUS
10
157.0270359999999812
20
-118.6636789999999877
11
157.0262249999999824
21
-118.6628679999999889
0
LINE
8
BLACK
6
CONTINUOUS
10
157.0262249999999824
20
-118.6628679999999889
11
157.0246609999999805
21
-118.6550060000000002
0
LINE
8
BLACK
6
CONTINUOUS
10
157.0246609999999805
20
-118.6550060000000002
11
157.0225449999999796
21
-118.6472789999999975
0
LINE
8
BLACK
6
CONTINUOUS
10
157.0225449999999796
20
-118.6472789999999975
11
157.0229070000000036
21
-118.6461899999999901
0
LINE
8
BLACK
6
CONTINUOUS
10
157.0229070000000036
20
-118.6461899999999901
11
157.0224189999999851
21
-118.6437339999999949
0
LINE
8
BLACK
6
CONTINUOUS
10
157.0224189999999851
20
-118.6437339999999949
11
157.0224189999999851
21
-118.5484960000000001
0
LINE
8
BLACK
6
CONTINUOUS
10
157.0224189999999851
20
-118.5484960000000001
11
157.0229070000000036
21
-118.5460389999999933
0
LINE
8
BLACK
6
CONTINUOUS
10
157.0229070000000036
20
-118.5460389999999933
11
157.0225449999999796
21
-118.5449509999999975
0
LINE
8
BLACK
6
CONTINUOUS
10
157.0225449999999796
20
-118.5449509999999975
11
157.0246609999999805
21
-118.5372229999999973
0
LINE
8
BLACK
6
CONTINUOUS
10
157.0246609999999805
20
-118.5372229999999973
11
157.0262249999999824
21
-118.5293619999999919
0
LINE
8
BLACK
6
CONTINUOUS
10
157.0262249999999824
20
-118.5293619999999919
11
157.0270359999999812
21
-118.5285499999999956
0
LINE
8
BLACK
6
CONTINUOUS
10
157.0270359999999812
20
-118.5285499999999956
11
157.0276979999999867
21
-118.5261349999999965
0
LINE
8
BLACK
6
CONTINUOUS
10
157.0276979999999867
20
-118.5261349999999965
11
157.0753159999999866
21
-118.4308979999999991
0
LINE
8
BLACK
6
CONTINUOUS
10
157.0753159999999866
20
-118.4308979999999991
11
157.0802309999999977
21
-118.4245639999999895
0
LINE
8
BLACK
6
CONTINUOUS
10
157.0802309999999977
20
-118.4245639999999895
11
157.0846829999999841
21
-118.4179029999999955
0
LINE
8
BLACK
6
CONTINUOUS
10
157.0846829999999841
20
-118.4179029999999955
11
157.132300999999984
21
-118.3702839999999981
0
LINE
8
BLACK
6
CONTINUOUS
10
157.132300999999984
20
-118.3702839999999981
11
157.1389669999999796
21
-118.3658289999999909
0
LINE
8
BLACK
6
CONTINUOUS
10
157.1389669999999796
20
-118.3658289999999909
11
157.1452960000000019
21
-118.3609179999999981
0
LINE
8
BLACK
6
CONTINUOUS
10
157.1452960000000019
20
-118.3609179999999981
11
157.2405339999999967
21
-118.3132990000000007
0
LINE
8
BLACK
6
CONTINUOUS
10
157.2405339999999967
20
-118.3132990000000007
11
157.2458149999999932
21
-118.3118519999999876
0
LINE
8
BLACK
6
CONTINUOUS
10
157.2458149999999932
20
-118.3118519999999876
11
157.2507679999999937
21
-118.3095129999999955
0
LINE
8
BLACK
6
CONTINUOUS
10
157.2507679999999937
20
-118.3095129999999955
11
157.4412439999999833
21
-118.2618939999999981
0
LINE
8
BLACK
6
CONTINUOUS
10
157.4412439999999833
20
-118.2618939999999981
11
157.4473610000000008
21
-118.2615959999999973
0
LINE
8
BLACK
6
CONTINUOUS
10
157.4473610000000008
20
-118.2615959999999973
11
157.4533710000000042
21
-118.2604010000000017
0
LINE
8
BLACK
6
CONTINUOUS
10
157.4533710000000042
20
-118.2604010000000017
11
157.6914659999999913
21
-118.2604010000000017
0
LINE
8
BLACK
6
CONTINUOUS
10
157.6914659999999913
20
-118.2604010000000017
11
157.6974749999999972
21
-118.2615959999999973
0
LINE
8
BLACK
6
CONTINUOUS
10
157.2803470000000061
20
-118.405194999999992
11
157.1972749999999905
21
-118.4467309999999998
0
LINE
8
BLACK
6
CONTINUOUS
10
157.1972749999999905
20
-118.4467309999999998
11
157.1611299999999858
21
-118.4828749999999928
0
LINE
8
BLACK
6
CONTINUOUS
10
157.1611299999999858
20
-118.4828749999999928
11
157.1224189999999794
21
-118.5602990000000005
0
LINE
8
BLACK
6
CONTINUOUS
10
157.1224189999999794
20
-118.5602990000000005
11
157.1224189999999794
21
-118.6319309999999945
0
LINE
8
BLACK
6
CONTINUOUS
10
157.1224189999999794
20
-118.6319309999999945
11
157.1611299999999858
21
-118.7093539999999905
0
LINE
8
BLACK
6
CONTINUOUS
10
157.1611299999999858
20
-118.7093539999999905
11
157.1972749999999905
21
-118.7454979999999978
0
LINE
8
BLACK
6
CONTINUOUS
10
157.1972749999999905
20
-118.7454979999999978
11
157.2803470000000061
21
-118.7870339999999914
0
LINE
8
BLACK
6
CONTINUOUS
10
157.2803470000000061
20
-118.7870339999999914
11
157.4595259999999826
21
-118.831828999999999
0
LINE
8
BLACK
6
CONTINUOUS
10
157.4595259999999826
20
-118.831828999999999
11
157.6853109999999845
21
-118.831828999999999
0
LINE
8
BLACK
6
CONTINUOUS
10
157.6853109999999845
20
-118.831828999999999
11
157.8644909999999868
21
-118.7870339999999914
0
LINE
8
BLACK
6
CONTINUOUS
10
157.8644909999999868
20
-118.7870339999999914
11
157.947560999999979
21
-118.7454979999999978
0
LINE
8
BLACK
6
CONTINUOUS
10
157.947560999999979
20
-118.7454979999999978
11
157.9837079999999787
21
-118.7093519999999955
0
LINE
8
BLACK
6
CONTINUOUS
10
157.9837079999999787
20
-118.7093519999999955
11
158.0224189999999851
21
-118.631929999999997
0
LINE
8
BLACK
6
CONTINUOUS
10
158.0224189999999851
20
-118.631929999999997
11
158.0224189999999851
21
-118.5602990000000005
0
LINE
8
BLACK
6
CONTINUOUS
10
158.0224189999999851
20
-118.5602990000000005
11
157.9837079999999787
21
-118.4828769999999878
0
LINE
8
BLACK
6
CONTINUOUS
10
157.9837079999999787
20
-118.4828769999999878
11
157.947560999999979
21
-118.4467309999999998
0
LINE
8
BLACK
6
CONTINUOUS
10
157.947560999999979
20
-118.4467309999999998
11
157.8644909999999868
21
-118.4051959999999895
0
LINE
8
BLACK
6
CONTINUOUS
10
157.8644909999999868
20
-118.4051959999999895
11
157.6853109999999845
21
-118.360400999999996
0
LINE
8
BLACK
6
CONTINUOUS
10
157.6853109999999845
20
-118.360400999999996
11
157.4595259999999826
21
-118.360400999999996
0
LINE
8
BLACK
6
CONTINUOUS
10
157.4595259999999826
20
-118.360400999999996
11
157.2803470000000061
21
-118.405194999999992
0
LINE
8
BLACK
6
CONTINUOUS
10
158.0439369999999997
20
-117.7880179999999939
11
158.0601549999999804
21
-117.798854999999989
0
LINE
8
BLACK
6
CONTINUOUS
10
158.0601549999999804
20
-117.798854999999989
11
158.1077740000000063
21
-117.8464729999999889
0
LINE
8
BLACK
6
CONTINUOUS
10
158.1077740000000063
20
-117.8464729999999889
11
158.1186129999999821
21
-117.8626939999999905
0
LINE
8
BLACK
6
CONTINUOUS
10
158.1186129999999821
20
-117.8626939999999905
11
158.1186129999999821
21
-117.862694999999988
0
LINE
8
BLACK
6
CONTINUOUS
10
158.1186129999999821
20
-117.862694999999988
11
158.1186129999999821
21
-117.9009639999999877
0
LINE
8
BLACK
6
CONTINUOUS
10
158.1186129999999821
20
-117.9009639999999877
11
158.1077740000000063
21
-117.9171849999999893
0
LINE
8
BLACK
6
CONTINUOUS
10
158.1077740000000063
20
-117.9171849999999893
11
158.0601549999999804
21
-117.9648029999999892
0
LINE
8
BLACK
6
CONTINUOUS
10
158.0601549999999804
20
-117.9648029999999892
11
158.0439369999999997
21
-117.975639000000001
0
LINE
8
BLACK
6
CONTINUOUS
10
158.0439369999999997
20
-117.975639000000001
11
158.0439350000000047
21
-117.9756419999999935
0
LINE
8
BLACK
6
CONTINUOUS
10
158.0439350000000047
20
-117.9756419999999935
11
158.0056659999999908
21
-117.9756419999999935
0
LINE
8
BLACK
6
CONTINUOUS
10
158.0056659999999908
20
-117.9756419999999935
11
157.9894449999999892
21
-117.9648040000000009
0
LINE
8
BLACK
6
CONTINUOUS
10
157.9894449999999892
20
-117.9648040000000009
11
157.9418249999999944
21
-117.9171849999999893
0
LINE
8
BLACK
6
CONTINUOUS
10
157.9418249999999944
20
-117.9171849999999893
11
157.9309859999999901
21
-117.9009639999999877
0
LINE
8
BLACK
6
CONTINUOUS
10
157.9309859999999901
20
-117.9009639999999877
11
157.9309859999999901
21
-117.862694999999988
0
LINE
8
BLACK
6
CONTINUOUS
10
157.9309859999999901
20
-117.862694999999988
11
157.9309859999999901
21
-117.8626939999999905
0
LINE
8
BLACK
6
CONTINUOUS
10
157.9309859999999901
20
-117.8626939999999905
11
157.9418249999999944
21
-117.8464729999999889
0
LINE
8
BLACK
6
CONTINUOUS
10
157.9418249999999944
20
-117.8464729999999889
11
157.9894449999999892
21
-117.7988539999999915
0
LINE
8
BLACK
6
CONTINUOUS
10
157.9894449999999892
20
-117.7988539999999915
11
158.0056659999999908
21
-117.7880159999999989
0
LINE
8
BLACK
6
CONTINUOUS
10
158.0056659999999908
20
-117.7880159999999989
11
158.0439350000000047
21
-117.7880159999999989
0
LINE
8
BLACK
6
CONTINUOUS
10
158.0439350000000047
20
-117.7880159999999989
11
158.0439369999999997
21
-117.7880179999999939
0
LINE
8
BLACK
6
CONTINUOUS
10
155.8629609999999843
20
-115.8445669999999978
11
155.895432999999997
21
-115.8770389999999963
0
LINE
8
BLACK
6
CONTINUOUS
10
155.895432999999997
20
-115.8770389999999963
11
155.9000000000000057
21
-115.8999999999999915
0
LINE
8
BLACK
6
CONTINUOUS
10
155.9000000000000057
20
-115.8999999999999915
11
155.9000000000000057
21
-117.5
0
LINE
8
BLACK
6
CONTINUOUS
10
155.9000000000000057
20
-117.5
11
155.895432999999997
21
-117.5229609999999951
0
LINE
8
BLACK
6
CONTINUOUS
10
155.895432999999997
20
-117.5229609999999951
11
155.8629609999999843
21
-117.5554329999999936
0
LINE
8
BLACK
6
CONTINUOUS
10
155.8629609999999843
20
-117.5554329999999936
11
155.8400000000000034
21
-117.5599999999999881
0
LINE
8
BLACK
6
CONTINUOUS
10
155.8400000000000034
20
-117.5599999999999881
11
154.8400000000000034
21
-117.5599999999999881
0
LINE
8
BLACK
6
CONTINUOUS
10
154.8400000000000034
20
-117.5599999999999881
11
154.8170389999999941
21
-117.5554329999999936
0
LINE
8
BLACK
6
CONTINUOUS
10
154.8170389999999941
20
-117.5554329999999936
11
154.7845669999999814
21
-117.5229609999999951
0
LINE
8
BLACK
6
CONTINUOUS
10
154.7845669999999814
20
-117.5229609999999951
11
154.7800000000000011
21
-117.5
0
LINE
8
BLACK
6
CONTINUOUS
10
154.7800000000000011
20
-117.5
11
154.7800000000000011
21
-115.8999999999999915
0
LINE
8
BLACK
6
CONTINUOUS
10
154.7800000000000011
20
-115.8999999999999915
11
154.7845669999999814
21
-115.8770389999999963
0
LINE
8
BLACK
6
CONTINUOUS
10
154.7845669999999814
20
-115.8770389999999963
11
154.8170389999999941
21
-115.8445669999999978
0
LINE
8
BLACK
6
CONTINUOUS
10
154.8170389999999941
20
-115.8445669999999978
11
154.8400000000000034
21
-115.8399999999999892
0
LINE
8
BLACK
6
CONTINUOUS
10
154.8400000000000034
20
-115.8399999999999892
11
155.8400000000000034
21
-115.8399999999999892
0
LINE
8
BLACK
6
CONTINUOUS
10
155.8400000000000034
20
-115.8399999999999892
11
155.8629609999999843
21
-115.8445669999999978
0
LINE
8
BLACK
6
CONTINUOUS
10
154.9000000000000057
20
-115.9599999999999937
11
154.9000000000000057
21
-117.4399999999999977
0
LINE
8
BLACK
6
CONTINUOUS
10
154.9000000000000057
20
-117.4399999999999977
11
155.7800000000000011
21
-117.4399999999999977
0
LINE
8
BLACK
6
CONTINUOUS
10
155.7800000000000011
20
-117.4399999999999977
11
155.7800000000000011
21
-115.9599999999999937
0
LINE
8
BLACK
6
CONTINUOUS
10
155.7800000000000011
20
-115.9599999999999937
11
154.9000000000000057
21
-115.9599999999999937
0
LINE
8
BLACK
6
CONTINUOUS
10
157.8843980000000045
20
-116.8323180000000008
11
157.8854869999999835
21
-116.831955999999991
0
LINE
8
BLACK
6
CONTINUOUS
10
157.8854869999999835
20
-116.831955999999991
11
157.8932140000000004
21
-116.8340719999999919
0
LINE
8
BLACK
6
CONTINUOUS
10
157.8932140000000004
20
-116.8340719999999919
11
157.9010759999999891
21
-116.8356359999999938
0
LINE
8
BLACK
6
CONTINUOUS
10
157.9010759999999891
20
-116.8356359999999938
11
157.9018869999999879
21
-116.8364469999999926
0
LINE
8
BLACK
6
CONTINUOUS
10
157.9018869999999879
20
-116.8364469999999926
11
157.9043029999999987
21
-116.8371089999999981
0
LINE
8
BLACK
6
CONTINUOUS
10
157.9043029999999987
20
-116.8371089999999981
11
157.9995399999999961
21
-116.884726999999998
0
LINE
8
BLACK
6
CONTINUOUS
10
157.9995399999999961
20
-116.884726999999998
11
158.0058679999999924
21
-116.8896379999999908
0
LINE
8
BLACK
6
CONTINUOUS
10
158.0058679999999924
20
-116.8896379999999908
11
158.0125349999999855
21
-116.894092999999998
0
LINE
8
BLACK
6
CONTINUOUS
10
158.0125349999999855
20
-116.894092999999998
11
158.0601549999999804
21
-116.9417119999999954
0
LINE
8
BLACK
6
CONTINUOUS
10
158.0601549999999804
20
-116.9417119999999954
11
158.0646089999999901
21
-116.9483779999999911
0
LINE
8
BLACK
6
CONTINUOUS
10
158.0646089999999901
20
-116.9483779999999911
11
158.0695209999999804
21
-116.9547069999999991
0
LINE
8
BLACK
6
CONTINUOUS
10
158.0695209999999804
20
-116.9547069999999991
11
158.1171400000000062
21
-117.0499449999999939
0
LINE
8
BLACK
6
CONTINUOUS
10
158.1171400000000062
20
-117.0499449999999939
11
158.1178009999999858
21
-117.0523599999999931
0
LINE
8
BLACK
6
CONTINUOUS
10
158.1178009999999858
20
-117.0523599999999931
11
158.1186129999999821
21
-117.0531719999999893
0
LINE
8
BLACK
6
CONTINUOUS
10
158.1186129999999821
20
-117.0531719999999893
11
158.1201759999999865
21
-117.0610329999999948
0
LINE
8
BLACK
6
CONTINUOUS
10
158.1201759999999865
20
-117.0610329999999948
11
158.1222929999999849
21
-117.068760999999995
0
LINE
8
BLACK
6
CONTINUOUS
10
158.1222929999999849
20
-117.068760999999995
11
158.1219299999999919
21
-117.0698489999999907
0
LINE
8
BLACK
6
CONTINUOUS
10
158.1219299999999919
20
-117.0698489999999907
11
158.1224189999999794
21
-117.0723059999999975
0
LINE
8
BLACK
6
CONTINUOUS
10
158.1224189999999794
20
-117.0723059999999975
11
158.1224189999999794
21
-117.3580199999999962
0
LINE
8
BLACK
6
CONTINUOUS
10
158.1224189999999794
20
-117.3580199999999962
11
158.1219299999999919
21
-117.3604759999999914
0
LINE
8
BLACK
6
CONTINUOUS
10
158.1219299999999919
20
-117.3604759999999914
11
158.1222929999999849
21
-117.3615649999999988
0
LINE
8
BLACK
6
CONTINUOUS
10
158.1222929999999849
20
-117.3615649999999988
11
158.1201759999999865
21
-117.3692920000000015
0
LINE
8
BLACK
6
CONTINUOUS
10
158.1201759999999865
20
-117.3692920000000015
11
158.1186129999999821
21
-117.3771539999999902
0
LINE
8
BLACK
6
CONTINUOUS
10
158.1186129999999821
20
-117.3771539999999902
11
158.1178009999999858
21
-117.377964999999989
0
LINE
8
BLACK
6
CONTINUOUS
10
158.1178009999999858
20
-117.377964999999989
11
158.1171400000000062
21
-117.3803809999999999
0
LINE
8
BLACK
6
CONTINUOUS
10
158.1171400000000062
20
-117.3803809999999999
11
158.0695209999999804
21
-117.4756189999999947
0
LINE
8
BLACK
6
CONTINUOUS
10
158.0695209999999804
20
-117.4756189999999947
11
158.0646089999999901
21
-117.481946999999991
0
LINE
8
BLACK
6
CONTINUOUS
10
158.0646089999999901
20
-117.481946999999991
11
158.0601549999999804
21
-117.4886139999999983
0
LINE
8
BLACK
6
CONTINUOUS
10
158.0601549999999804
20
-117.4886139999999983
11
158.0125349999999855
21
-117.5362329999999957
0
LINE
8
BLACK
6
CONTINUOUS
10
158.0125349999999855
20
-117.5362329999999957
11
157.9963139999999839
21
-117.5470709999999883
0
LINE
8
BLACK
6
CONTINUOUS
10
157.9963139999999839
20
-117.5470709999999883
11
157.9580449999999985
21
-117.5470709999999883
0
LINE
8
BLACK
6
CONTINUOUS
10
157.9580449999999985
20
-117.5470709999999883
11
157.9309859999999901
21
-117.5200109999999967
0
LINE
8
BLACK
6
CONTINUOUS
10
157.9309859999999901
20
-117.5200109999999967
11
157.9309859999999901
21
-117.481741999999997
0
LINE
8
BLACK
6
CONTINUOUS
10
157.9309859999999901
20
-117.481741999999997
11
157.9418249999999944
21
-117.4655209999999954
0
LINE
8
BLACK
6
CONTINUOUS
10
157.9418249999999944
20
-117.4655209999999954
11
157.9837079999999787
21
-117.4236379999999969
0
LINE
8
BLACK
6
CONTINUOUS
10
157.9837079999999787
20
-117.4236379999999969
11
158.0224189999999851
21
-117.3462159999999983
0
LINE
8
BLACK
6
CONTINUOUS
10
158.0224189999999851
20
-117.3462159999999983
11
158.0224189999999851
21
-117.084108999999998
0
LINE
8
BLACK
6
CONTINUOUS
10
158.0224189999999851
20
-117.084108999999998
11
157.9837079999999787
21
-117.0066869999999994
0
LINE
8
BLACK
6
CONTINUOUS
10
157.9837079999999787
20
-117.0066869999999994
11
157.947560999999979
21
-116.9705409999999972
0
LINE
8
BLACK
6
CONTINUOUS
10
157.947560999999979
20
-116.9705409999999972
11
157.8701389999999947
21
-116.9318299999999908
0
LINE
8
BLACK
6
CONTINUOUS
10
157.8701389999999947
20
-116.9318299999999908
11
157.655651000000006
21
-116.9318299999999908
0
LINE
8
BLACK
6
CONTINUOUS
10
157.655651000000006
20
-116.9318299999999908
11
157.5782269999999983
21
-116.9705409999999972
0
LINE
8
BLACK
6
CONTINUOUS
10
157.5782269999999983
20
-116.9705409999999972
11
157.5420819999999935
21
-117.0066849999999903
0
LINE
8
BLACK
6
CONTINUOUS
10
157.5420819999999935
20
-117.0066849999999903
11
157.5033709999999871
21
-117.084108999999998
0
LINE
8
BLACK
6
CONTINUOUS
10
157.5033709999999871
20
-117.084108999999998
11
157.5033709999999871
21
-117.2151629999999898
0
LINE
8
BLACK
6
CONTINUOUS
10
157.5033709999999871
20
-117.2151629999999898
11
157.5005960000000016
21
-117.229108999999994
0
LINE
8
BLACK
6
CONTINUOUS
10
157.5005960000000016
20
-117.229108999999994
11
157.5007349999999917
21
-117.2311819999999898
0
LINE
8
BLACK
6
CONTINUOUS
10
157.5007349999999917
20
-117.2311819999999898
11
157.5000220000000013
21
-117.2319959999999952
0
LINE
8
BLACK
6
CONTINUOUS
10
157.5000220000000013
20
-117.2319959999999952
11
157.4995649999999898
21
-117.234296999999998
0
LINE
8
BLACK
6
CONTINUOUS
10
157.4995649999999898
20
-117.234296999999998
11
157.4871239999999943
21
-117.246736999999996
0
LINE
8
BLACK
6
CONTINUOUS
10
157.4871239999999943
20
-117.246736999999996
11
157.4755360000000053
21
-117.2599819999999937
0
LINE
8
BLACK
6
CONTINUOUS
10
157.4755360000000053
20
-117.2599819999999937
11
157.4737609999999961
21
-117.2600999999999942
0
LINE
8
BLACK
6
CONTINUOUS
10
157.4737609999999961
20
-117.2600999999999942
11
157.472504999999984
21
-117.2613569999999896
0
LINE
8
BLACK
6
CONTINUOUS
10
157.472504999999984
20
-117.2613569999999896
11
157.454905999999994
21
-117.2613569999999896
0
LINE
8
BLACK
6
CONTINUOUS
10
157.454905999999994
20
-117.2613569999999896
11
157.4373520000000042
21
-117.2625269999999915
0
LINE
8
BLACK
6
CONTINUOUS
10
157.4373520000000042
20
-117.2625269999999915
11
157.4353199999999902
21
-117.2613569999999896
0
LINE
8
BLACK
6
CONTINUOUS
10
157.4353199999999902
20
-117.2613569999999896
11
157.434236999999996
21
-117.2613569999999896
0
LINE
8
BLACK
6
CONTINUOUS
10
157.434236999999996
20
-117.2613569999999896
11
157.4327659999999867
21
-117.2598859999999945
0
LINE
8
BLACK
6
CONTINUOUS
10
157.4327659999999867
20
-117.2598859999999945
11
157.4204459999999983
21
-117.2527919999999995
0
LINE
8
BLACK
6
CONTINUOUS
10
157.4204459999999983
20
-117.2527919999999995
11
157.1224189999999794
21
-116.9920180000000016
0
LINE
8
BLACK
6
CONTINUOUS
10
157.1224189999999794
20
-116.9920180000000016
11
157.1224189999999794
21
-117.5008769999999885
0
LINE
8
BLACK
6
CONTINUOUS
10
157.1224189999999794
20
-117.5008769999999885
11
157.1186129999999821
21
-117.5200109999999967
0
LINE
8
BLACK
6
CONTINUOUS
10
157.1186129999999821
20
-117.5200109999999967
11
157.0915530000000047
21
-117.5470709999999883
0
LINE
8
BLACK
6
CONTINUOUS
10
157.0915530000000047
20
-117.5470709999999883
11
157.0532849999999883
21
-117.5470709999999883
0
LINE
8
BLACK
6
CONTINUOUS
10
157.0532849999999883
20
-117.5470709999999883
11
157.0262249999999824
21
-117.5200109999999967
0
LINE
8
BLACK
6
CONTINUOUS
10
157.0262249999999824
20
-117.5200109999999967
11
157.0224189999999851
21
-117.5008769999999885
0
LINE
8
BLACK
6
CONTINUOUS
10
157.0224189999999851
20
-117.5008769999999885
11
157.0224189999999851
21
-116.8818299999999937
0
LINE
8
BLACK
6
CONTINUOUS
10
157.0224189999999851
20
-116.8818299999999937
11
157.0251930000000016
21
-116.867882999999992
0
LINE
8
BLACK
6
CONTINUOUS
10
157.0251930000000016
20
-116.867882999999992
11
157.0250549999999805
21
-116.8658109999999937
0
LINE
8
BLACK
6
CONTINUOUS
10
157.0250549999999805
20
-116.8658109999999937
11
157.0257670000000019
21
-116.8649959999999908
0
LINE
8
BLACK
6
CONTINUOUS
10
157.0257670000000019
20
-116.8649959999999908
11
157.0262249999999824
21
-116.8626959999999997
0
LINE
8
BLACK
6
CONTINUOUS
10
157.0262249999999824
20
-116.8626959999999997
11
157.0386649999999804
21
-116.85025499999999
0
LINE
8
BLACK
6
CONTINUOUS
10
157.0386649999999804
20
-116.85025499999999
11
157.0502539999999954
21
-116.8370109999999897
0
LINE
8
BLACK
6
CONTINUOUS
10
157.0502539999999954
20
-116.8370109999999897
11
157.0520280000000071
21
-116.8368919999999918
0
LINE
8
BLACK
6
CONTINUOUS
10
157.0520280000000071
20
-116.8368919999999918
11
157.0532849999999883
21
-116.8356359999999938
0
LINE
8
BLACK
6
CONTINUOUS
10
157.0532849999999883
20
-116.8356359999999938
11
157.0708840000000066
21
-116.8356359999999938
0
LINE
8
BLACK
6
CONTINUOUS
10
157.0708840000000066
20
-116.8356359999999938
11
157.0884379999999965
21
-116.8344659999999919
0
LINE
8
BLACK
6
CONTINUOUS
10
157.0884379999999965
20
-116.8344659999999919
11
157.0904699999999821
21
-116.8356359999999938
0
LINE
8
BLACK
6
CONTINUOUS
10
157.0904699999999821
20
-116.8356359999999938
11
157.0915530000000047
21
-116.8356359999999938
0
LINE
8
BLACK
6
CONTINUOUS
10
157.0915530000000047
20
-116.8356359999999938
11
157.0930229999999881
21
-116.8371059999999915
0
LINE
8
BLACK
6
CONTINUOUS
10
157.0930229999999881
20
-116.8371059999999915
11
157.1053440000000023
21
-116.8442009999999982
0
LINE
8
BLACK
6
CONTINUOUS
10
157.1053440000000023
20
-116.8442009999999982
11
157.4033709999999928
21
-117.1049739999999986
0
LINE
8
BLACK
6
CONTINUOUS
10
157.4033709999999928
20
-117.1049739999999986
11
157.4033709999999928
21
-117.0723059999999975
0
LINE
8
BLACK
6
CONTINUOUS
10
157.4033709999999928
20
-117.0723059999999975
11
157.4038589999999829
21
-117.0698489999999907
0
LINE
8
BLACK
6
CONTINUOUS
10
157.4038589999999829
20
-117.0698489999999907
11
157.4034969999999873
21
-117.068760999999995
0
LINE
8
BLACK
6
CONTINUOUS
10
157.4034969999999873
20
-117.068760999999995
11
157.4056129999999882
21
-117.0610329999999948
0
LINE
8
BLACK
6
CONTINUOUS
10
157.4056129999999882
20
-117.0610329999999948
11
157.4071769999999901
21
-117.0531719999999893
0
LINE
8
BLACK
6
CONTINUOUS
10
157.4071769999999901
20
-117.0531719999999893
11
157.4079879999999889
21
-117.0523599999999931
0
LINE
8
BLACK
6
CONTINUOUS
10
157.4079879999999889
20
-117.0523599999999931
11
157.4086499999999944
21
-117.0499449999999939
0
LINE
8
BLACK
6
CONTINUOUS
10
157.4086499999999944
20
-117.0499449999999939
11
157.4562679999999943
21
-116.9547079999999966
0
LINE
8
BLACK
6
CONTINUOUS
10
157.4562679999999943
20
-116.9547079999999966
11
157.4611830000000054
21
-116.9483740000000012
0
LINE
8
BLACK
6
CONTINUOUS
10
157.4611830000000054
20
-116.9483740000000012
11
157.4656349999999918
21
-116.9417129999999929
0
LINE
8
BLACK
6
CONTINUOUS
10
157.4656349999999918
20
-116.9417129999999929
11
157.5132529999999917
21
-116.8940939999999955
0
LINE
8
BLACK
6
CONTINUOUS
10
157.5132529999999917
20
-116.8940939999999955
11
157.5199189999999874
21
-116.8896389999999883
0
LINE
8
BLACK
6
CONTINUOUS
10
157.5199189999999874
20
-116.8896389999999883
11
157.5262479999999812
21
-116.8847279999999955
0
LINE
8
BLACK
6
CONTINUOUS
10
157.5262479999999812
20
-116.8847279999999955
11
157.6214860000000044
21
-116.8371089999999981
0
LINE
8
BLACK
6
CONTINUOUS
10
157.6214860000000044
20
-116.8371089999999981
11
157.6239009999999894
21
-116.8364469999999926
0
LINE
8
BLACK
6
CONTINUOUS
10
157.6239009999999894
20
-116.8364469999999926
11
157.6247129999999856
21
-116.8356359999999938
0
LINE
8
BLACK
6
CONTINUOUS
10
157.6247129999999856
20
-116.8356359999999938
11
157.6325740000000053
21
-116.8340719999999919
0
LINE
8
BLACK
6
CONTINUOUS
10
157.6325740000000053
20
-116.8340719999999919
11
157.6403019999999913
21
-116.831955999999991
0
LINE
8
BLACK
6
CONTINUOUS
10
157.6403019999999913
20
-116.831955999999991
11
157.6413900000000012
21
-116.8323180000000008
0
LINE
8
BLACK
6
CONTINUOUS
10
157.6413900000000012
20
-116.8323180000000008
11
157.6438469999999938
21
-116.8318299999999965
0
LINE
8
BLACK
6
CONTINUOUS
10
157.6438469999999938
20
-116.8318299999999965
11
157.8819419999999809
21
-116.8318299999999965
0
LINE
8
BLACK
6
CONTINUOUS
10
157.8819419999999809
20
-116.8318299999999965
11
157.8843980000000045
21
-116.8323180000000008
0
LINE
8
BLACK
6
CONTINUOUS
10
148.7254329999999811
20
-99.9770389999999907
11
148.7299999999999898
21
-100.
0
LINE
8
BLACK
6
CONTINUOUS
10
148.7299999999999898
20
-100.
11
148.7299999999999898
21
-101.269999999999996
0
LINE
8
BLACK
6
CONTINUOUS
10
148.7299999999999898
20
-101.269999999999996
11
150.
21
-101.269999999999996
0
LINE
8
BLACK
6
CONTINUOUS
10
150.
20
-101.269999999999996
11
150.0229609999999809
21
-101.2745669999999905
0
LINE
8
BLACK
6
CONTINUOUS
10
150.0229609999999809
20
-101.2745669999999905
11
150.0554329999999936
21
-101.307038999999989
0
LINE
8
BLACK
6
CONTINUOUS
10
150.0554329999999936
20
-101.307038999999989
11
150.0554329999999936
21
-101.3529609999999934
0
LINE
8
BLACK
6
CONTINUOUS
10
150.0554329999999936
20
-101.3529609999999934
11
150.0229609999999809
21
-101.3854329999999919
0
LINE
8
BLACK
6
CONTINUOUS
10
150.0229609999999809
20
-101.3854329999999919
11
150.
21
-101.3900000000000006
0
LINE
8
BLACK
6
CONTINUOUS
10
150.
20
-101.3900000000000006
11
148.6699999999999875
21
-101.3900000000000006
0
LINE
8
BLACK
6
CONTINUOUS
10
148.6699999999999875
20
-101.3900000000000006
11
148.6470390000000066
21
-101.3854329999999919
0
LINE
8
BLACK
6
CONTINUOUS
10
148.6470390000000066
20
-101.3854329999999919
11
148.6145669999999939
21
-101.3529609999999934
0
LINE
8
BLACK
6
CONTINUOUS
10
148.6145669999999939
20
-101.3529609999999934
11
148.6099999999999852
21
-101.3299999999999983
0
LINE
8
BLACK
6
CONTINUOUS
10
148.6099999999999852
20
-101.3299999999999983
11
148.6099999999999852
21
-100.
0
LINE
8
BLACK
6
CONTINUOUS
10
148.6099999999999852
20
-100.
11
148.6145669999999939
21
-99.9770389999999907
0
LINE
8
BLACK
6
CONTINUOUS
10
148.6145669999999939
20
-99.9770389999999907
11
148.6470390000000066
21
-99.9445669999999922
0
LINE
8
BLACK
6
CONTINUOUS
10
148.6470390000000066
20
-99.9445669999999922
11
148.6929609999999968
21
-99.9445669999999922
0
LINE
8
BLACK
6
CONTINUOUS
10
148.6929609999999968
20
-99.9445669999999922
11
148.7254329999999811
21
-99.9770389999999907
0
LINE
8
BLACK
6
CONTINUOUS
10
158.5095670000000041
20
-95.3769029999999987
11
158.523097000000007
21
-95.3904330000000016
0
LINE
8
BLACK
6
CONTINUOUS
10
158.523097000000007
20
-95.3904330000000016
11
158.5250000000000057
21
-95.3999999999999915
0
LINE
8
BLACK
6
CONTINUOUS
10
158.5250000000000057
20
-95.3999999999999915
11
158.5250000000000057
21
-120.3999999999999915
0
LINE
8
BLACK
6
CONTINUOUS
10
158.5250000000000057
20
-120.3999999999999915
11
158.523097000000007
21
-120.4095669999999956
0
LINE
8
BLACK
6
CONTINUOUS
10
158.523097000000007
20
-120.4095669999999956
11
158.5095670000000041
21
-120.4230969999999985
0
LINE
8
BLACK
6
CONTINUOUS
10
158.5095670000000041
20
-120.4230969999999985
11
158.5
21
-120.4249999999999972
0
LINE
8
BLACK
6
CONTINUOUS
10
158.5
20
-120.4249999999999972
11
146.7999999999999829
21
-120.4249999999999972
0
LINE
8
BLACK
6
CONTINUOUS
10
146.7999999999999829
20
-120.4249999999999972
11
146.7904330000000073
21
-120.4230969999999985
0
LINE
8
BLACK
6
CONTINUOUS
10
146.7904330000000073
20
-120.4230969999999985
11
146.7769030000000043
21
-120.4095669999999956
0
LINE
8
BLACK
6
CONTINUOUS
10
146.7769030000000043
20
-120.4095669999999956
11
146.7750000000000057
21
-120.3999999999999915
0
LINE
8
BLACK
6
CONTINUOUS
10
146.7750000000000057
20
-120.3999999999999915
11
146.7750000000000057
21
-95.3999999999999915
0
LINE
8
BLACK
6
CONTINUOUS
10
146.7750000000000057
20
-95.3999999999999915
11
146.7769030000000043
21
-95.3904330000000016
0
LINE
8
BLACK
6
CONTINUOUS
10
146.7769030000000043
20
-95.3904330000000016
11
146.7904330000000073
21
-95.3769029999999987
0
LINE
8
BLACK
6
CONTINUOUS
10
146.7904330000000073
20
-95.3769029999999987
11
146.7999999999999829
21
-95.375
0
LINE
8
BLACK
6
CONTINUOUS
10
146.7999999999999829
20
-95.375
11
158.5
21
-95.375
0
LINE
8
BLACK
6
CONTINUOUS
10
158.5
20
-95.375
11
158.5095670000000041
21
-95.3769029999999987
0
LINE
8
BLACK
6
CONTINUOUS
10
146.8249999999999886
20
-95.4249999999999972
11
146.8249999999999886
21
-120.375
0
LINE
8
BLACK
6
CONTINUOUS
10
146.8249999999999886
20
-120.375
11
158.4749999999999943
21
-120.375
0
LINE
8
BLACK
6
CONTINUOUS
10
158.4749999999999943
20
-120.375
11
158.4749999999999943
21
-95.4249999999999972
0
LINE
8
BLACK
6
CONTINUOUS
10
158.4749999999999943
20
-95.4249999999999972
11
146.8249999999999886
21
-95.4249999999999972
  0
ENDSEC
  0
EOF
