  0
SECTION
  2
HEADER
  9
$ANGBASE
  50
0.0
  9
$ANGDIR
  70
1
  9
$MEASUREMENT
  70
1
  0
ENDSEC
  0
SECTION
  2
TABLES
  0
TABLE
  2
LTYPE
  70
4
  0
LTYPE
  5
40F
  2
CONTINUOUS
  70
0
  3
Solid line
  72
65
  73
0
  40
0.0
  0
LTYPE
  5
410
  2
DASHDOT
 70
0
  3
Dash Dot ____ _ ____ _
 72
65
 73
4
 40
2.0
 49
1.25
 49
-0.25
 49
0.25
 49
-0.25
  0
LTYPE
  5
411
  2
DASHED
 70
0
  3
Dashed __ __ __ __ __
 72
65
 73
2
 40
0.75
 49
0.5
 49
-0.25
  0
LTYPE
  5
43B
  2
DOTTED
 70
0
  3
Dotted .  .  .  .
 72
65
 73
2
 40
0.2
 49
0.0
 49
-0.2
  0
ENDTAB
  0
TABLE
  2
STYLE
  70
4
  0
STYLE
  2
KICAD
  70
0
  40
0
  41
1
  42
1
  50
0
  71
0
  3
isocp.shx
  0
STYLE
  2
KICADB
  70
0
  40
0
  41
1
  42
1
  50
0
  71
0
  3
isocp.shx
  0
STYLE
  2
KICADI
  70
0
  40
0
  41
1
  42
1
  50
15
  71
0
  3
isocp.shx
  0
STYLE
  2
KICADBI
  70
0
  40
0
  41
1
  42
1
  50
15
  71
0
  3
isocp.shx
  0
ENDTAB
  0
TABLE
  2
LAYER
  70
1
  0
LAYER
  2
BLACK
  70
0
  62
7
  6
CONTINUOUS
  0
ENDTAB
  0
ENDSEC
  0
SECTION
  2
ENTITIES
0
LINE
8
BLACK
6
CONTINUOUS
10
134.0902849999999944
20
-88.4430600000000027
11
134.2713970000000074
21
-88.5180790000000002
0
LINE
8
BLACK
6
CONTINUOUS
10
134.2713970000000074
20
-88.5180790000000002
11
134.434393
21
-88.6269899999999922
0
LINE
8
BLACK
6
CONTINUOUS
10
134.434393
20
-88.6269899999999922
11
134.5730099999999823
21
-88.7656070000000028
0
LINE
8
BLACK
6
CONTINUOUS
10
134.5730099999999823
20
-88.7656070000000028
11
134.6819209999999885
21
-88.9286029999999954
0
LINE
8
BLACK
6
CONTINUOUS
10
134.6819209999999885
20
-88.9286029999999954
11
134.756939999999986
21
-89.1097149999999942
0
LINE
8
BLACK
6
CONTINUOUS
10
134.756939999999986
20
-89.1097149999999942
11
134.7951850000000036
21
-89.3019829999999928
0
LINE
8
BLACK
6
CONTINUOUS
10
134.7951850000000036
20
-89.3019829999999928
11
134.7951850000000036
21
-89.4980169999999902
0
LINE
8
BLACK
6
CONTINUOUS
10
134.7951850000000036
20
-89.4980169999999902
11
134.756939999999986
21
-89.6902850000000029
0
LINE
8
BLACK
6
CONTINUOUS
10
134.756939999999986
20
-89.6902850000000029
11
134.6819209999999885
21
-89.8713970000000018
0
LINE
8
BLACK
6
CONTINUOUS
10
134.6819209999999885
20
-89.8713970000000018
11
134.5730099999999823
21
-90.0343929999999943
0
LINE
8
BLACK
6
CONTINUOUS
10
134.5730099999999823
20
-90.0343929999999943
11
134.434393
21
-90.1730099999999908
0
LINE
8
BLACK
6
CONTINUOUS
10
134.434393
20
-90.1730099999999908
11
134.2713970000000074
21
-90.281920999999997
0
LINE
8
BLACK
6
CONTINUOUS
10
134.2713970000000074
20
-90.281920999999997
11
134.0902849999999944
21
-90.3569399999999945
0
LINE
8
BLACK
6
CONTINUOUS
10
134.0902849999999944
20
-90.3569399999999945
11
133.8980169999999816
21
-90.3951849999999979
0
LINE
8
BLACK
6
CONTINUOUS
10
133.8980169999999816
20
-90.3951849999999979
11
133.7019829999999843
21
-90.3951849999999979
0
LINE
8
BLACK
6
CONTINUOUS
10
133.7019829999999843
20
-90.3951849999999979
11
133.5097149999999999
21
-90.3569399999999945
0
LINE
8
BLACK
6
CONTINUOUS
10
133.5097149999999999
20
-90.3569399999999945
11
133.3286029999999869
21
-90.281920999999997
0
LINE
8
BLACK
6
CONTINUOUS
10
133.3286029999999869
20
-90.281920999999997
11
133.1656069999999943
21
-90.1730099999999908
0
LINE
8
BLACK
6
CONTINUOUS
10
133.1656069999999943
20
-90.1730099999999908
11
133.0269899999999836
21
-90.0343929999999943
0
LINE
8
BLACK
6
CONTINUOUS
10
133.0269899999999836
20
-90.0343929999999943
11
132.9180790000000059
21
-89.8713970000000018
0
LINE
8
BLACK
6
CONTINUOUS
10
132.9180790000000059
20
-89.8713970000000018
11
132.8430599999999799
21
-89.6902850000000029
0
LINE
8
BLACK
6
CONTINUOUS
10
132.8430599999999799
20
-89.6902850000000029
11
132.8048149999999907
21
-89.4980169999999902
0
LINE
8
BLACK
6
CONTINUOUS
10
132.8048149999999907
20
-89.4980169999999902
11
132.8048149999999907
21
-89.3019829999999928
0
LINE
8
BLACK
6
CONTINUOUS
10
132.8048149999999907
20
-89.3019829999999928
11
132.8430599999999799
21
-89.1097149999999942
0
LINE
8
BLACK
6
CONTINUOUS
10
132.8430599999999799
20
-89.1097149999999942
11
132.9180790000000059
21
-88.9286029999999954
0
LINE
8
BLACK
6
CONTINUOUS
10
132.9180790000000059
20
-88.9286029999999954
11
133.0269899999999836
21
-88.7656070000000028
0
LINE
8
BLACK
6
CONTINUOUS
10
133.0269899999999836
20
-88.7656070000000028
11
133.1656069999999943
21
-88.6269899999999922
0
LINE
8
BLACK
6
CONTINUOUS
10
133.1656069999999943
20
-88.6269899999999922
11
133.3286029999999869
21
-88.5180790000000002
0
LINE
8
BLACK
6
CONTINUOUS
10
133.3286029999999869
20
-88.5180790000000002
11
133.5097149999999999
21
-88.4430600000000027
0
LINE
8
BLACK
6
CONTINUOUS
10
133.5097149999999999
20
-88.4430600000000027
11
133.7019829999999843
21
-88.4048149999999993
0
LINE
8
BLACK
6
CONTINUOUS
10
133.7019829999999843
20
-88.4048149999999993
11
133.8980169999999816
21
-88.4048149999999993
0
LINE
8
BLACK
6
CONTINUOUS
10
133.8980169999999816
20
-88.4048149999999993
11
134.0902849999999944
21
-88.4430600000000027
0
LINE
8
BLACK
6
CONTINUOUS
10
137.0902849999999944
20
-88.4430600000000027
11
137.2713970000000074
21
-88.5180790000000002
0
LINE
8
BLACK
6
CONTINUOUS
10
137.2713970000000074
20
-88.5180790000000002
11
137.434393
21
-88.6269899999999922
0
LINE
8
BLACK
6
CONTINUOUS
10
137.434393
20
-88.6269899999999922
11
137.5730099999999823
21
-88.7656070000000028
0
LINE
8
BLACK
6
CONTINUOUS
10
137.5730099999999823
20
-88.7656070000000028
11
137.6819209999999885
21
-88.9286029999999954
0
LINE
8
BLACK
6
CONTINUOUS
10
137.6819209999999885
20
-88.9286029999999954
11
137.756939999999986
21
-89.1097149999999942
0
LINE
8
BLACK
6
CONTINUOUS
10
137.756939999999986
20
-89.1097149999999942
11
137.7951850000000036
21
-89.3019829999999928
0
LINE
8
BLACK
6
CONTINUOUS
10
137.7951850000000036
20
-89.3019829999999928
11
137.7951850000000036
21
-89.4980169999999902
0
LINE
8
BLACK
6
CONTINUOUS
10
137.7951850000000036
20
-89.4980169999999902
11
137.756939999999986
21
-89.6902850000000029
0
LINE
8
BLACK
6
CONTINUOUS
10
137.756939999999986
20
-89.6902850000000029
11
137.6819209999999885
21
-89.8713970000000018
0
LINE
8
BLACK
6
CONTINUOUS
10
137.6819209999999885
20
-89.8713970000000018
11
137.5730099999999823
21
-90.0343929999999943
0
LINE
8
BLACK
6
CONTINUOUS
10
137.5730099999999823
20
-90.0343929999999943
11
137.434393
21
-90.1730099999999908
0
LINE
8
BLACK
6
CONTINUOUS
10
137.434393
20
-90.1730099999999908
11
137.2713970000000074
21
-90.281920999999997
0
LINE
8
BLACK
6
CONTINUOUS
10
137.2713970000000074
20
-90.281920999999997
11
137.0902849999999944
21
-90.3569399999999945
0
LINE
8
BLACK
6
CONTINUOUS
10
137.0902849999999944
20
-90.3569399999999945
11
136.8980169999999816
21
-90.3951849999999979
0
LINE
8
BLACK
6
CONTINUOUS
10
136.8980169999999816
20
-90.3951849999999979
11
136.7019829999999843
21
-90.3951849999999979
0
LINE
8
BLACK
6
CONTINUOUS
10
136.7019829999999843
20
-90.3951849999999979
11
136.5097149999999999
21
-90.3569399999999945
0
LINE
8
BLACK
6
CONTINUOUS
10
136.5097149999999999
20
-90.3569399999999945
11
136.3286029999999869
21
-90.281920999999997
0
LINE
8
BLACK
6
CONTINUOUS
10
136.3286029999999869
20
-90.281920999999997
11
136.1656069999999943
21
-90.1730099999999908
0
LINE
8
BLACK
6
CONTINUOUS
10
136.1656069999999943
20
-90.1730099999999908
11
136.0269899999999836
21
-90.0343929999999943
0
LINE
8
BLACK
6
CONTINUOUS
10
136.0269899999999836
20
-90.0343929999999943
11
135.9180790000000059
21
-89.8713970000000018
0
LINE
8
BLACK
6
CONTINUOUS
10
135.9180790000000059
20
-89.8713970000000018
11
135.8430599999999799
21
-89.6902850000000029
0
LINE
8
BLACK
6
CONTINUOUS
10
135.8430599999999799
20
-89.6902850000000029
11
135.8048149999999907
21
-89.4980169999999902
0
LINE
8
BLACK
6
CONTINUOUS
10
135.8048149999999907
20
-89.4980169999999902
11
135.8048149999999907
21
-89.3019829999999928
0
LINE
8
BLACK
6
CONTINUOUS
10
135.8048149999999907
20
-89.3019829999999928
11
135.8430599999999799
21
-89.1097149999999942
0
LINE
8
BLACK
6
CONTINUOUS
10
135.8430599999999799
20
-89.1097149999999942
11
135.9180790000000059
21
-88.9286029999999954
0
LINE
8
BLACK
6
CONTINUOUS
10
135.9180790000000059
20
-88.9286029999999954
11
136.0269899999999836
21
-88.7656070000000028
0
LINE
8
BLACK
6
CONTINUOUS
10
136.0269899999999836
20
-88.7656070000000028
11
136.1656069999999943
21
-88.6269899999999922
0
LINE
8
BLACK
6
CONTINUOUS
10
136.1656069999999943
20
-88.6269899999999922
11
136.3286029999999869
21
-88.5180790000000002
0
LINE
8
BLACK
6
CONTINUOUS
10
136.3286029999999869
20
-88.5180790000000002
11
136.5097149999999999
21
-88.4430600000000027
0
LINE
8
BLACK
6
CONTINUOUS
10
136.5097149999999999
20
-88.4430600000000027
11
136.7019829999999843
21
-88.4048149999999993
0
LINE
8
BLACK
6
CONTINUOUS
10
136.7019829999999843
20
-88.4048149999999993
11
136.8980169999999816
21
-88.4048149999999993
0
LINE
8
BLACK
6
CONTINUOUS
10
136.8980169999999816
20
-88.4048149999999993
11
137.0902849999999944
21
-88.4430600000000027
0
LINE
8
BLACK
6
CONTINUOUS
10
140.0902849999999944
20
-88.4430600000000027
11
140.2713970000000074
21
-88.5180790000000002
0
LINE
8
BLACK
6
CONTINUOUS
10
140.2713970000000074
20
-88.5180790000000002
11
140.434393
21
-88.6269899999999922
0
LINE
8
BLACK
6
CONTINUOUS
10
140.434393
20
-88.6269899999999922
11
140.5730099999999823
21
-88.7656070000000028
0
LINE
8
BLACK
6
CONTINUOUS
10
140.5730099999999823
20
-88.7656070000000028
11
140.6819209999999885
21
-88.9286029999999954
0
LINE
8
BLACK
6
CONTINUOUS
10
140.6819209999999885
20
-88.9286029999999954
11
140.756939999999986
21
-89.1097149999999942
0
LINE
8
BLACK
6
CONTINUOUS
10
140.756939999999986
20
-89.1097149999999942
11
140.7951850000000036
21
-89.3019829999999928
0
LINE
8
BLACK
6
CONTINUOUS
10
140.7951850000000036
20
-89.3019829999999928
11
140.7951850000000036
21
-89.4980169999999902
0
LINE
8
BLACK
6
CONTINUOUS
10
140.7951850000000036
20
-89.4980169999999902
11
140.756939999999986
21
-89.6902850000000029
0
LINE
8
BLACK
6
CONTINUOUS
10
140.756939999999986
20
-89.6902850000000029
11
140.6819209999999885
21
-89.8713970000000018
0
LINE
8
BLACK
6
CONTINUOUS
10
140.6819209999999885
20
-89.8713970000000018
11
140.5730099999999823
21
-90.0343929999999943
0
LINE
8
BLACK
6
CONTINUOUS
10
140.5730099999999823
20
-90.0343929999999943
11
140.434393
21
-90.1730099999999908
0
LINE
8
BLACK
6
CONTINUOUS
10
140.434393
20
-90.1730099999999908
11
140.2713970000000074
21
-90.281920999999997
0
LINE
8
BLACK
6
CONTINUOUS
10
140.2713970000000074
20
-90.281920999999997
11
140.0902849999999944
21
-90.3569399999999945
0
LINE
8
BLACK
6
CONTINUOUS
10
140.0902849999999944
20
-90.3569399999999945
11
139.8980169999999816
21
-90.3951849999999979
0
LINE
8
BLACK
6
CONTINUOUS
10
139.8980169999999816
20
-90.3951849999999979
11
139.7019829999999843
21
-90.3951849999999979
0
LINE
8
BLACK
6
CONTINUOUS
10
139.7019829999999843
20
-90.3951849999999979
11
139.5097149999999999
21
-90.3569399999999945
0
LINE
8
BLACK
6
CONTINUOUS
10
139.5097149999999999
20
-90.3569399999999945
11
139.3286029999999869
21
-90.281920999999997
0
LINE
8
BLACK
6
CONTINUOUS
10
139.3286029999999869
20
-90.281920999999997
11
139.1656069999999943
21
-90.1730099999999908
0
LINE
8
BLACK
6
CONTINUOUS
10
139.1656069999999943
20
-90.1730099999999908
11
139.0269899999999836
21
-90.0343929999999943
0
LINE
8
BLACK
6
CONTINUOUS
10
139.0269899999999836
20
-90.0343929999999943
11
138.9180790000000059
21
-89.8713970000000018
0
LINE
8
BLACK
6
CONTINUOUS
10
138.9180790000000059
20
-89.8713970000000018
11
138.8430599999999799
21
-89.6902850000000029
0
LINE
8
BLACK
6
CONTINUOUS
10
138.8430599999999799
20
-89.6902850000000029
11
138.8048149999999907
21
-89.4980169999999902
0
LINE
8
BLACK
6
CONTINUOUS
10
138.8048149999999907
20
-89.4980169999999902
11
138.8048149999999907
21
-89.3019829999999928
0
LINE
8
BLACK
6
CONTINUOUS
10
138.8048149999999907
20
-89.3019829999999928
11
138.8430599999999799
21
-89.1097149999999942
0
LINE
8
BLACK
6
CONTINUOUS
10
138.8430599999999799
20
-89.1097149999999942
11
138.9180790000000059
21
-88.9286029999999954
0
LINE
8
BLACK
6
CONTINUOUS
10
138.9180790000000059
20
-88.9286029999999954
11
139.0269899999999836
21
-88.7656070000000028
0
LINE
8
BLACK
6
CONTINUOUS
10
139.0269899999999836
20
-88.7656070000000028
11
139.1656069999999943
21
-88.6269899999999922
0
LINE
8
BLACK
6
CONTINUOUS
10
139.1656069999999943
20
-88.6269899999999922
11
139.3286029999999869
21
-88.5180790000000002
0
LINE
8
BLACK
6
CONTINUOUS
10
139.3286029999999869
20
-88.5180790000000002
11
139.5097149999999999
21
-88.4430600000000027
0
LINE
8
BLACK
6
CONTINUOUS
10
139.5097149999999999
20
-88.4430600000000027
11
139.7019829999999843
21
-88.4048149999999993
0
LINE
8
BLACK
6
CONTINUOUS
10
139.7019829999999843
20
-88.4048149999999993
11
139.8980169999999816
21
-88.4048149999999993
0
LINE
8
BLACK
6
CONTINUOUS
10
139.8980169999999816
20
-88.4048149999999993
11
140.0902849999999944
21
-88.4430600000000027
0
LINE
8
BLACK
6
CONTINUOUS
10
143.0902849999999944
20
-88.4430600000000027
11
143.2713970000000074
21
-88.5180790000000002
0
LINE
8
BLACK
6
CONTINUOUS
10
143.2713970000000074
20
-88.5180790000000002
11
143.434393
21
-88.6269899999999922
0
LINE
8
BLACK
6
CONTINUOUS
10
143.434393
20
-88.6269899999999922
11
143.5730099999999823
21
-88.7656070000000028
0
LINE
8
BLACK
6
CONTINUOUS
10
143.5730099999999823
20
-88.7656070000000028
11
143.6819209999999885
21
-88.9286029999999954
0
LINE
8
BLACK
6
CONTINUOUS
10
143.6819209999999885
20
-88.9286029999999954
11
143.756939999999986
21
-89.1097149999999942
0
LINE
8
BLACK
6
CONTINUOUS
10
143.756939999999986
20
-89.1097149999999942
11
143.7951850000000036
21
-89.3019829999999928
0
LINE
8
BLACK
6
CONTINUOUS
10
143.7951850000000036
20
-89.3019829999999928
11
143.7951850000000036
21
-89.4980169999999902
0
LINE
8
BLACK
6
CONTINUOUS
10
143.7951850000000036
20
-89.4980169999999902
11
143.756939999999986
21
-89.6902850000000029
0
LINE
8
BLACK
6
CONTINUOUS
10
143.756939999999986
20
-89.6902850000000029
11
143.6819209999999885
21
-89.8713970000000018
0
LINE
8
BLACK
6
CONTINUOUS
10
143.6819209999999885
20
-89.8713970000000018
11
143.5730099999999823
21
-90.0343929999999943
0
LINE
8
BLACK
6
CONTINUOUS
10
143.5730099999999823
20
-90.0343929999999943
11
143.434393
21
-90.1730099999999908
0
LINE
8
BLACK
6
CONTINUOUS
10
143.434393
20
-90.1730099999999908
11
143.2713970000000074
21
-90.281920999999997
0
LINE
8
BLACK
6
CONTINUOUS
10
143.2713970000000074
20
-90.281920999999997
11
143.0902849999999944
21
-90.3569399999999945
0
LINE
8
BLACK
6
CONTINUOUS
10
143.0902849999999944
20
-90.3569399999999945
11
142.8980169999999816
21
-90.3951849999999979
0
LINE
8
BLACK
6
CONTINUOUS
10
142.8980169999999816
20
-90.3951849999999979
11
142.7019829999999843
21
-90.3951849999999979
0
LINE
8
BLACK
6
CONTINUOUS
10
142.7019829999999843
20
-90.3951849999999979
11
142.5097149999999999
21
-90.3569399999999945
0
LINE
8
BLACK
6
CONTINUOUS
10
142.5097149999999999
20
-90.3569399999999945
11
142.3286029999999869
21
-90.281920999999997
0
LINE
8
BLACK
6
CONTINUOUS
10
142.3286029999999869
20
-90.281920999999997
11
142.1656069999999943
21
-90.1730099999999908
0
LINE
8
BLACK
6
CONTINUOUS
10
142.1656069999999943
20
-90.1730099999999908
11
142.0269899999999836
21
-90.0343929999999943
0
LINE
8
BLACK
6
CONTINUOUS
10
142.0269899999999836
20
-90.0343929999999943
11
141.9180790000000059
21
-89.8713970000000018
0
LINE
8
BLACK
6
CONTINUOUS
10
141.9180790000000059
20
-89.8713970000000018
11
141.8430599999999799
21
-89.6902850000000029
0
LINE
8
BLACK
6
CONTINUOUS
10
141.8430599999999799
20
-89.6902850000000029
11
141.8048149999999907
21
-89.4980169999999902
0
LINE
8
BLACK
6
CONTINUOUS
10
141.8048149999999907
20
-89.4980169999999902
11
141.8048149999999907
21
-89.3019829999999928
0
LINE
8
BLACK
6
CONTINUOUS
10
141.8048149999999907
20
-89.3019829999999928
11
141.8430599999999799
21
-89.1097149999999942
0
LINE
8
BLACK
6
CONTINUOUS
10
141.8430599999999799
20
-89.1097149999999942
11
141.9180790000000059
21
-88.9286029999999954
0
LINE
8
BLACK
6
CONTINUOUS
10
141.9180790000000059
20
-88.9286029999999954
11
142.0269899999999836
21
-88.7656070000000028
0
LINE
8
BLACK
6
CONTINUOUS
10
142.0269899999999836
20
-88.7656070000000028
11
142.1656069999999943
21
-88.6269899999999922
0
LINE
8
BLACK
6
CONTINUOUS
10
142.1656069999999943
20
-88.6269899999999922
11
142.3286029999999869
21
-88.5180790000000002
0
LINE
8
BLACK
6
CONTINUOUS
10
142.3286029999999869
20
-88.5180790000000002
11
142.5097149999999999
21
-88.4430600000000027
0
LINE
8
BLACK
6
CONTINUOUS
10
142.5097149999999999
20
-88.4430600000000027
11
142.7019829999999843
21
-88.4048149999999993
0
LINE
8
BLACK
6
CONTINUOUS
10
142.7019829999999843
20
-88.4048149999999993
11
142.8980169999999816
21
-88.4048149999999993
0
LINE
8
BLACK
6
CONTINUOUS
10
142.8980169999999816
20
-88.4048149999999993
11
143.0902849999999944
21
-88.4430600000000027
0
LINE
8
BLACK
6
CONTINUOUS
10
134.4956709999999873
20
-83.5690299999999979
11
134.5767769999999928
21
-83.6232229999999959
0
LINE
8
BLACK
6
CONTINUOUS
10
134.5767769999999928
20
-83.6232229999999959
11
134.6309699999999907
21
-83.7043290000000013
0
LINE
8
BLACK
6
CONTINUOUS
10
134.6309699999999907
20
-83.7043290000000013
11
134.6500000000000057
21
-83.7999999999999972
0
LINE
8
BLACK
6
CONTINUOUS
10
134.6500000000000057
20
-83.7999999999999972
11
134.6500000000000057
21
-85.
0
LINE
8
BLACK
6
CONTINUOUS
10
134.6500000000000057
20
-85.
11
134.6309699999999907
21
-85.0956709999999958
0
LINE
8
BLACK
6
CONTINUOUS
10
134.6309699999999907
20
-85.0956709999999958
11
134.5767769999999928
21
-85.1767770000000013
0
LINE
8
BLACK
6
CONTINUOUS
10
134.5767769999999928
20
-85.1767770000000013
11
134.4956709999999873
21
-85.2309699999999992
0
LINE
8
BLACK
6
CONTINUOUS
10
134.4956709999999873
20
-85.2309699999999992
11
134.4000000000000057
21
-85.25
0
LINE
8
BLACK
6
CONTINUOUS
10
134.4000000000000057
20
-85.25
11
133.1999999999999886
21
-85.25
0
LINE
8
BLACK
6
CONTINUOUS
10
133.1999999999999886
20
-85.25
11
133.104329000000007
21
-85.2309699999999992
0
LINE
8
BLACK
6
CONTINUOUS
10
133.104329000000007
20
-85.2309699999999992
11
133.0232230000000015
21
-85.1767770000000013
0
LINE
8
BLACK
6
CONTINUOUS
10
133.0232230000000015
20
-85.1767770000000013
11
132.9690300000000036
21
-85.0956709999999958
0
LINE
8
BLACK
6
CONTINUOUS
10
132.9690300000000036
20
-85.0956709999999958
11
132.9499999999999886
21
-85.
0
LINE
8
BLACK
6
CONTINUOUS
10
132.9499999999999886
20
-85.
11
132.9499999999999886
21
-83.7999999999999972
0
LINE
8
BLACK
6
CONTINUOUS
10
132.9499999999999886
20
-83.7999999999999972
11
132.9690300000000036
21
-83.7043290000000013
0
LINE
8
BLACK
6
CONTINUOUS
10
132.9690300000000036
20
-83.7043290000000013
11
133.0232230000000015
21
-83.6232229999999959
0
LINE
8
BLACK
6
CONTINUOUS
10
133.0232230000000015
20
-83.6232229999999959
11
133.104329000000007
21
-83.5690299999999979
0
LINE
8
BLACK
6
CONTINUOUS
10
133.104329000000007
20
-83.5690299999999979
11
133.1999999999999886
21
-83.5499999999999972
0
LINE
8
BLACK
6
CONTINUOUS
10
133.1999999999999886
20
-83.5499999999999972
11
134.4000000000000057
21
-83.5499999999999972
0
LINE
8
BLACK
6
CONTINUOUS
10
134.4000000000000057
20
-83.5499999999999972
11
134.4956709999999873
21
-83.5690299999999979
0
LINE
8
BLACK
6
CONTINUOUS
10
137.4956709999999873
20
-83.5690299999999979
11
137.5767769999999928
21
-83.6232229999999959
0
LINE
8
BLACK
6
CONTINUOUS
10
137.5767769999999928
20
-83.6232229999999959
11
137.6309699999999907
21
-83.7043290000000013
0
LINE
8
BLACK
6
CONTINUOUS
10
137.6309699999999907
20
-83.7043290000000013
11
137.6500000000000057
21
-83.7999999999999972
0
LINE
8
BLACK
6
CONTINUOUS
10
137.6500000000000057
20
-83.7999999999999972
11
137.6500000000000057
21
-85.
0
LINE
8
BLACK
6
CONTINUOUS
10
137.6500000000000057
20
-85.
11
137.6309699999999907
21
-85.0956709999999958
0
LINE
8
BLACK
6
CONTINUOUS
10
137.6309699999999907
20
-85.0956709999999958
11
137.5767769999999928
21
-85.1767770000000013
0
LINE
8
BLACK
6
CONTINUOUS
10
137.5767769999999928
20
-85.1767770000000013
11
137.4956709999999873
21
-85.2309699999999992
0
LINE
8
BLACK
6
CONTINUOUS
10
137.4956709999999873
20
-85.2309699999999992
11
137.4000000000000057
21
-85.25
0
LINE
8
BLACK
6
CONTINUOUS
10
137.4000000000000057
20
-85.25
11
136.1999999999999886
21
-85.25
0
LINE
8
BLACK
6
CONTINUOUS
10
136.1999999999999886
20
-85.25
11
136.104329000000007
21
-85.2309699999999992
0
LINE
8
BLACK
6
CONTINUOUS
10
136.104329000000007
20
-85.2309699999999992
11
136.0232230000000015
21
-85.1767770000000013
0
LINE
8
BLACK
6
CONTINUOUS
10
136.0232230000000015
20
-85.1767770000000013
11
135.9690300000000036
21
-85.0956709999999958
0
LINE
8
BLACK
6
CONTINUOUS
10
135.9690300000000036
20
-85.0956709999999958
11
135.9499999999999886
21
-85.
0
LINE
8
BLACK
6
CONTINUOUS
10
135.9499999999999886
20
-85.
11
135.9499999999999886
21
-83.7999999999999972
0
LINE
8
BLACK
6
CONTINUOUS
10
135.9499999999999886
20
-83.7999999999999972
11
135.9690300000000036
21
-83.7043290000000013
0
LINE
8
BLACK
6
CONTINUOUS
10
135.9690300000000036
20
-83.7043290000000013
11
136.0232230000000015
21
-83.6232229999999959
0
LINE
8
BLACK
6
CONTINUOUS
10
136.0232230000000015
20
-83.6232229999999959
11
136.104329000000007
21
-83.5690299999999979
0
LINE
8
BLACK
6
CONTINUOUS
10
136.104329000000007
20
-83.5690299999999979
11
136.1999999999999886
21
-83.5499999999999972
0
LINE
8
BLACK
6
CONTINUOUS
10
136.1999999999999886
20
-83.5499999999999972
11
137.4000000000000057
21
-83.5499999999999972
0
LINE
8
BLACK
6
CONTINUOUS
10
137.4000000000000057
20
-83.5499999999999972
11
137.4956709999999873
21
-83.5690299999999979
0
LINE
8
BLACK
6
CONTINUOUS
10
140.4956709999999873
20
-83.5690299999999979
11
140.5767769999999928
21
-83.6232229999999959
0
LINE
8
BLACK
6
CONTINUOUS
10
140.5767769999999928
20
-83.6232229999999959
11
140.6309699999999907
21
-83.7043290000000013
0
LINE
8
BLACK
6
CONTINUOUS
10
140.6309699999999907
20
-83.7043290000000013
11
140.6500000000000057
21
-83.7999999999999972
0
LINE
8
BLACK
6
CONTINUOUS
10
140.6500000000000057
20
-83.7999999999999972
11
140.6500000000000057
21
-85.
0
LINE
8
BLACK
6
CONTINUOUS
10
140.6500000000000057
20
-85.
11
140.6309699999999907
21
-85.0956709999999958
0
LINE
8
BLACK
6
CONTINUOUS
10
140.6309699999999907
20
-85.0956709999999958
11
140.5767769999999928
21
-85.1767770000000013
0
LINE
8
BLACK
6
CONTINUOUS
10
140.5767769999999928
20
-85.1767770000000013
11
140.4956709999999873
21
-85.2309699999999992
0
LINE
8
BLACK
6
CONTINUOUS
10
140.4956709999999873
20
-85.2309699999999992
11
140.4000000000000057
21
-85.25
0
LINE
8
BLACK
6
CONTINUOUS
10
140.4000000000000057
20
-85.25
11
139.1999999999999886
21
-85.25
0
LINE
8
BLACK
6
CONTINUOUS
10
139.1999999999999886
20
-85.25
11
139.104329000000007
21
-85.2309699999999992
0
LINE
8
BLACK
6
CONTINUOUS
10
139.104329000000007
20
-85.2309699999999992
11
139.0232230000000015
21
-85.1767770000000013
0
LINE
8
BLACK
6
CONTINUOUS
10
139.0232230000000015
20
-85.1767770000000013
11
138.9690300000000036
21
-85.0956709999999958
0
LINE
8
BLACK
6
CONTINUOUS
10
138.9690300000000036
20
-85.0956709999999958
11
138.9499999999999886
21
-85.
0
LINE
8
BLACK
6
CONTINUOUS
10
138.9499999999999886
20
-85.
11
138.9499999999999886
21
-83.7999999999999972
0
LINE
8
BLACK
6
CONTINUOUS
10
138.9499999999999886
20
-83.7999999999999972
11
138.9690300000000036
21
-83.7043290000000013
0
LINE
8
BLACK
6
CONTINUOUS
10
138.9690300000000036
20
-83.7043290000000013
11
139.0232230000000015
21
-83.6232229999999959
0
LINE
8
BLACK
6
CONTINUOUS
10
139.0232230000000015
20
-83.6232229999999959
11
139.104329000000007
21
-83.5690299999999979
0
LINE
8
BLACK
6
CONTINUOUS
10
139.104329000000007
20
-83.5690299999999979
11
139.1999999999999886
21
-83.5499999999999972
0
LINE
8
BLACK
6
CONTINUOUS
10
139.1999999999999886
20
-83.5499999999999972
11
140.4000000000000057
21
-83.5499999999999972
0
LINE
8
BLACK
6
CONTINUOUS
10
140.4000000000000057
20
-83.5499999999999972
11
140.4956709999999873
21
-83.5690299999999979
0
LINE
8
BLACK
6
CONTINUOUS
10
143.4956709999999873
20
-83.5690299999999979
11
143.5767769999999928
21
-83.6232229999999959
0
LINE
8
BLACK
6
CONTINUOUS
10
143.5767769999999928
20
-83.6232229999999959
11
143.6309699999999907
21
-83.7043290000000013
0
LINE
8
BLACK
6
CONTINUOUS
10
143.6309699999999907
20
-83.7043290000000013
11
143.6500000000000057
21
-83.7999999999999972
0
LINE
8
BLACK
6
CONTINUOUS
10
143.6500000000000057
20
-83.7999999999999972
11
143.6500000000000057
21
-85.
0
LINE
8
BLACK
6
CONTINUOUS
10
143.6500000000000057
20
-85.
11
143.6309699999999907
21
-85.0956709999999958
0
LINE
8
BLACK
6
CONTINUOUS
10
143.6309699999999907
20
-85.0956709999999958
11
143.5767769999999928
21
-85.1767770000000013
0
LINE
8
BLACK
6
CONTINUOUS
10
143.5767769999999928
20
-85.1767770000000013
11
143.4956709999999873
21
-85.2309699999999992
0
LINE
8
BLACK
6
CONTINUOUS
10
143.4956709999999873
20
-85.2309699999999992
11
143.4000000000000057
21
-85.25
0
LINE
8
BLACK
6
CONTINUOUS
10
143.4000000000000057
20
-85.25
11
142.1999999999999886
21
-85.25
0
LINE
8
BLACK
6
CONTINUOUS
10
142.1999999999999886
20
-85.25
11
142.104329000000007
21
-85.2309699999999992
0
LINE
8
BLACK
6
CONTINUOUS
10
142.104329000000007
20
-85.2309699999999992
11
142.0232230000000015
21
-85.1767770000000013
0
LINE
8
BLACK
6
CONTINUOUS
10
142.0232230000000015
20
-85.1767770000000013
11
141.9690300000000036
21
-85.0956709999999958
0
LINE
8
BLACK
6
CONTINUOUS
10
141.9690300000000036
20
-85.0956709999999958
11
141.9499999999999886
21
-85.
0
LINE
8
BLACK
6
CONTINUOUS
10
141.9499999999999886
20
-85.
11
141.9499999999999886
21
-83.7999999999999972
0
LINE
8
BLACK
6
CONTINUOUS
10
141.9499999999999886
20
-83.7999999999999972
11
141.9690300000000036
21
-83.7043290000000013
0
LINE
8
BLACK
6
CONTINUOUS
10
141.9690300000000036
20
-83.7043290000000013
11
142.0232230000000015
21
-83.6232229999999959
0
LINE
8
BLACK
6
CONTINUOUS
10
142.0232230000000015
20
-83.6232229999999959
11
142.104329000000007
21
-83.5690299999999979
0
LINE
8
BLACK
6
CONTINUOUS
10
142.104329000000007
20
-83.5690299999999979
11
142.1999999999999886
21
-83.5499999999999972
0
LINE
8
BLACK
6
CONTINUOUS
10
142.1999999999999886
20
-83.5499999999999972
11
143.4000000000000057
21
-83.5499999999999972
0
LINE
8
BLACK
6
CONTINUOUS
10
143.4000000000000057
20
-83.5499999999999972
11
143.4956709999999873
21
-83.5690299999999979
0
LINE
8
BLACK
6
CONTINUOUS
10
134.0122279999999932
20
-81.0494479999999982
11
134.1571169999999995
21
-81.109462999999991
0
LINE
8
BLACK
6
CONTINUOUS
10
134.1571169999999995
20
-81.109462999999991
11
134.2875149999999849
21
-81.1965919999999954
0
LINE
8
BLACK
6
CONTINUOUS
10
134.2875149999999849
20
-81.1965919999999954
11
134.3984079999999892
21
-81.3074849999999998
0
LINE
8
BLACK
6
CONTINUOUS
10
134.3984079999999892
20
-81.3074849999999998
11
134.4855369999999937
21
-81.4378829999999994
0
LINE
8
BLACK
6
CONTINUOUS
10
134.4855369999999937
20
-81.4378829999999994
11
134.5455519999999865
21
-81.5827719999999914
0
LINE
8
BLACK
6
CONTINUOUS
10
134.5455519999999865
20
-81.5827719999999914
11
134.5761479999999892
21
-81.7365860000000026
0
LINE
8
BLACK
6
CONTINUOUS
10
134.5761479999999892
20
-81.7365860000000026
11
134.5761479999999892
21
-81.8934139999999928
0
LINE
8
BLACK
6
CONTINUOUS
10
134.5761479999999892
20
-81.8934139999999928
11
134.5455519999999865
21
-82.0472279999999898
0
LINE
8
BLACK
6
CONTINUOUS
10
134.5455519999999865
20
-82.0472279999999898
11
134.4855369999999937
21
-82.1921169999999961
0
LINE
8
BLACK
6
CONTINUOUS
10
134.4855369999999937
20
-82.1921169999999961
11
134.3984079999999892
21
-82.3225149999999957
0
LINE
8
BLACK
6
CONTINUOUS
10
134.3984079999999892
20
-82.3225149999999957
11
134.2875149999999849
21
-82.433408
0
LINE
8
BLACK
6
CONTINUOUS
10
134.2875149999999849
20
-82.433408
11
134.1571169999999995
21
-82.5205369999999903
0
LINE
8
BLACK
6
CONTINUOUS
10
134.1571169999999995
20
-82.5205369999999903
11
134.0122279999999932
21
-82.5805519999999973
0
LINE
8
BLACK
6
CONTINUOUS
10
134.0122279999999932
20
-82.5805519999999973
11
133.858413999999982
21
-82.611148
0
LINE
8
BLACK
6
CONTINUOUS
10
133.858413999999982
20
-82.611148
11
133.7015859999999918
21
-82.611148
0
LINE
8
BLACK
6
CONTINUOUS
10
133.7015859999999918
20
-82.611148
11
133.5477719999999806
21
-82.5805519999999973
0
LINE
8
BLACK
6
CONTINUOUS
10
133.5477719999999806
20
-82.5805519999999973
11
133.4028830000000028
21
-82.5205369999999903
0
LINE
8
BLACK
6
CONTINUOUS
10
133.4028830000000028
20
-82.5205369999999903
11
133.272484999999989
21
-82.433408
0
LINE
8
BLACK
6
CONTINUOUS
10
133.272484999999989
20
-82.433408
11
133.1615919999999846
21
-82.3225149999999957
0
LINE
8
BLACK
6
CONTINUOUS
10
133.1615919999999846
20
-82.3225149999999957
11
133.0744629999999802
21
-82.1921169999999961
0
LINE
8
BLACK
6
CONTINUOUS
10
133.0744629999999802
20
-82.1921169999999961
11
133.0144479999999874
21
-82.0472279999999898
0
LINE
8
BLACK
6
CONTINUOUS
10
133.0144479999999874
20
-82.0472279999999898
11
132.9838519999999846
21
-81.8934139999999928
0
LINE
8
BLACK
6
CONTINUOUS
10
132.9838519999999846
20
-81.8934139999999928
11
132.9838519999999846
21
-81.7365860000000026
0
LINE
8
BLACK
6
CONTINUOUS
10
132.9838519999999846
20
-81.7365860000000026
11
133.0144479999999874
21
-81.5827719999999914
0
LINE
8
BLACK
6
CONTINUOUS
10
133.0144479999999874
20
-81.5827719999999914
11
133.0744629999999802
21
-81.4378829999999994
0
LINE
8
BLACK
6
CONTINUOUS
10
133.0744629999999802
20
-81.4378829999999994
11
133.1615919999999846
21
-81.3074849999999998
0
LINE
8
BLACK
6
CONTINUOUS
10
133.1615919999999846
20
-81.3074849999999998
11
133.272484999999989
21
-81.1965919999999954
0
LINE
8
BLACK
6
CONTINUOUS
10
133.272484999999989
20
-81.1965919999999954
11
133.4028830000000028
21
-81.109462999999991
0
LINE
8
BLACK
6
CONTINUOUS
10
133.4028830000000028
20
-81.109462999999991
11
133.5477719999999806
21
-81.0494479999999982
0
LINE
8
BLACK
6
CONTINUOUS
10
133.5477719999999806
20
-81.0494479999999982
11
133.7015859999999918
21
-81.0188519999999954
0
LINE
8
BLACK
6
CONTINUOUS
10
133.7015859999999918
20
-81.0188519999999954
11
133.858413999999982
21
-81.0188519999999954
0
LINE
8
BLACK
6
CONTINUOUS
10
133.858413999999982
20
-81.0188519999999954
11
134.0122279999999932
21
-81.0494479999999982
0
LINE
8
BLACK
6
CONTINUOUS
10
136.5522279999999853
20
-81.0494479999999982
11
136.6971169999999915
21
-81.109462999999991
0
LINE
8
BLACK
6
CONTINUOUS
10
136.6971169999999915
20
-81.109462999999991
11
136.8275150000000053
21
-81.1965919999999954
0
LINE
8
BLACK
6
CONTINUOUS
10
136.8275150000000053
20
-81.1965919999999954
11
136.9384079999999813
21
-81.3074849999999998
0
LINE
8
BLACK
6
CONTINUOUS
10
136.9384079999999813
20
-81.3074849999999998
11
137.0255369999999857
21
-81.4378829999999994
0
LINE
8
BLACK
6
CONTINUOUS
10
137.0255369999999857
20
-81.4378829999999994
11
137.085552000000007
21
-81.5827719999999914
0
LINE
8
BLACK
6
CONTINUOUS
10
137.085552000000007
20
-81.5827719999999914
11
137.1161479999999813
21
-81.7365860000000026
0
LINE
8
BLACK
6
CONTINUOUS
10
137.1161479999999813
20
-81.7365860000000026
11
137.1161479999999813
21
-81.8934139999999928
0
LINE
8
BLACK
6
CONTINUOUS
10
137.1161479999999813
20
-81.8934139999999928
11
137.085552000000007
21
-82.0472279999999898
0
LINE
8
BLACK
6
CONTINUOUS
10
137.085552000000007
20
-82.0472279999999898
11
137.0255369999999857
21
-82.1921169999999961
0
LINE
8
BLACK
6
CONTINUOUS
10
137.0255369999999857
20
-82.1921169999999961
11
136.9384079999999813
21
-82.3225149999999957
0
LINE
8
BLACK
6
CONTINUOUS
10
136.9384079999999813
20
-82.3225149999999957
11
136.8275150000000053
21
-82.433408
0
LINE
8
BLACK
6
CONTINUOUS
10
136.8275150000000053
20
-82.433408
11
136.6971169999999915
21
-82.5205369999999903
0
LINE
8
BLACK
6
CONTINUOUS
10
136.6971169999999915
20
-82.5205369999999903
11
136.5522279999999853
21
-82.5805519999999973
0
LINE
8
BLACK
6
CONTINUOUS
10
136.5522279999999853
20
-82.5805519999999973
11
136.3984140000000025
21
-82.611148
0
LINE
8
BLACK
6
CONTINUOUS
10
136.3984140000000025
20
-82.611148
11
136.2415859999999839
21
-82.611148
0
LINE
8
BLACK
6
CONTINUOUS
10
136.2415859999999839
20
-82.611148
11
136.0877720000000011
21
-82.5805519999999973
0
LINE
8
BLACK
6
CONTINUOUS
10
136.0877720000000011
20
-82.5805519999999973
11
135.9428829999999948
21
-82.5205369999999903
0
LINE
8
BLACK
6
CONTINUOUS
10
135.9428829999999948
20
-82.5205369999999903
11
135.812484999999981
21
-82.433408
0
LINE
8
BLACK
6
CONTINUOUS
10
135.812484999999981
20
-82.433408
11
135.7015920000000051
21
-82.3225149999999957
0
LINE
8
BLACK
6
CONTINUOUS
10
135.7015920000000051
20
-82.3225149999999957
11
135.6144630000000006
21
-82.1921169999999961
0
LINE
8
BLACK
6
CONTINUOUS
10
135.6144630000000006
20
-82.1921169999999961
11
135.5544480000000078
21
-82.0472279999999898
0
LINE
8
BLACK
6
CONTINUOUS
10
135.5544480000000078
20
-82.0472279999999898
11
135.5238520000000051
21
-81.8934139999999928
0
LINE
8
BLACK
6
CONTINUOUS
10
135.5238520000000051
20
-81.8934139999999928
11
135.5238520000000051
21
-81.7365860000000026
0
LINE
8
BLACK
6
CONTINUOUS
10
135.5238520000000051
20
-81.7365860000000026
11
135.5544480000000078
21
-81.5827719999999914
0
LINE
8
BLACK
6
CONTINUOUS
10
135.5544480000000078
20
-81.5827719999999914
11
135.6144630000000006
21
-81.4378829999999994
0
LINE
8
BLACK
6
CONTINUOUS
10
135.6144630000000006
20
-81.4378829999999994
11
135.7015920000000051
21
-81.3074849999999998
0
LINE
8
BLACK
6
CONTINUOUS
10
135.7015920000000051
20
-81.3074849999999998
11
135.812484999999981
21
-81.1965919999999954
0
LINE
8
BLACK
6
CONTINUOUS
10
135.812484999999981
20
-81.1965919999999954
11
135.9428829999999948
21
-81.109462999999991
0
LINE
8
BLACK
6
CONTINUOUS
10
135.9428829999999948
20
-81.109462999999991
11
136.0877720000000011
21
-81.0494479999999982
0
LINE
8
BLACK
6
CONTINUOUS
10
136.0877720000000011
20
-81.0494479999999982
11
136.2415859999999839
21
-81.0188519999999954
0
LINE
8
BLACK
6
CONTINUOUS
10
136.2415859999999839
20
-81.0188519999999954
11
136.3984140000000025
21
-81.0188519999999954
0
LINE
8
BLACK
6
CONTINUOUS
10
136.3984140000000025
20
-81.0188519999999954
11
136.5522279999999853
21
-81.0494479999999982
0
LINE
8
BLACK
6
CONTINUOUS
10
139.0922280000000057
20
-81.0494479999999982
11
139.2371169999999836
21
-81.109462999999991
0
LINE
8
BLACK
6
CONTINUOUS
10
139.2371169999999836
20
-81.109462999999991
11
139.3675149999999974
21
-81.1965919999999954
0
LINE
8
BLACK
6
CONTINUOUS
10
139.3675149999999974
20
-81.1965919999999954
11
139.4784080000000017
21
-81.3074849999999998
0
LINE
8
BLACK
6
CONTINUOUS
10
139.4784080000000017
20
-81.3074849999999998
11
139.5655370000000062
21
-81.4378829999999994
0
LINE
8
BLACK
6
CONTINUOUS
10
139.5655370000000062
20
-81.4378829999999994
11
139.625551999999999
21
-81.5827719999999914
0
LINE
8
BLACK
6
CONTINUOUS
10
139.625551999999999
20
-81.5827719999999914
11
139.6561480000000017
21
-81.7365860000000026
0
LINE
8
BLACK
6
CONTINUOUS
10
139.6561480000000017
20
-81.7365860000000026
11
139.6561480000000017
21
-81.8934139999999928
0
LINE
8
BLACK
6
CONTINUOUS
10
139.6561480000000017
20
-81.8934139999999928
11
139.625551999999999
21
-82.0472279999999898
0
LINE
8
BLACK
6
CONTINUOUS
10
139.625551999999999
20
-82.0472279999999898
11
139.5655370000000062
21
-82.1921169999999961
0
LINE
8
BLACK
6
CONTINUOUS
10
139.5655370000000062
20
-82.1921169999999961
11
139.4784080000000017
21
-82.3225149999999957
0
LINE
8
BLACK
6
CONTINUOUS
10
139.4784080000000017
20
-82.3225149999999957
11
139.3675149999999974
21
-82.433408
0
LINE
8
BLACK
6
CONTINUOUS
10
139.3675149999999974
20
-82.433408
11
139.2371169999999836
21
-82.5205369999999903
0
LINE
8
BLACK
6
CONTINUOUS
10
139.2371169999999836
20
-82.5205369999999903
11
139.0922280000000057
21
-82.5805519999999973
0
LINE
8
BLACK
6
CONTINUOUS
10
139.0922280000000057
20
-82.5805519999999973
11
138.9384139999999945
21
-82.611148
0
LINE
8
BLACK
6
CONTINUOUS
10
138.9384139999999945
20
-82.611148
11
138.7815860000000043
21
-82.611148
0
LINE
8
BLACK
6
CONTINUOUS
10
138.7815860000000043
20
-82.611148
11
138.6277719999999931
21
-82.5805519999999973
0
LINE
8
BLACK
6
CONTINUOUS
10
138.6277719999999931
20
-82.5805519999999973
11
138.4828829999999869
21
-82.5205369999999903
0
LINE
8
BLACK
6
CONTINUOUS
10
138.4828829999999869
20
-82.5205369999999903
11
138.3524850000000015
21
-82.433408
0
LINE
8
BLACK
6
CONTINUOUS
10
138.3524850000000015
20
-82.433408
11
138.2415919999999971
21
-82.3225149999999957
0
LINE
8
BLACK
6
CONTINUOUS
10
138.2415919999999971
20
-82.3225149999999957
11
138.1544629999999927
21
-82.1921169999999961
0
LINE
8
BLACK
6
CONTINUOUS
10
138.1544629999999927
20
-82.1921169999999961
11
138.0944479999999999
21
-82.0472279999999898
0
LINE
8
BLACK
6
CONTINUOUS
10
138.0944479999999999
20
-82.0472279999999898
11
138.0638519999999971
21
-81.8934139999999928
0
LINE
8
BLACK
6
CONTINUOUS
10
138.0638519999999971
20
-81.8934139999999928
11
138.0638519999999971
21
-81.7365860000000026
0
LINE
8
BLACK
6
CONTINUOUS
10
138.0638519999999971
20
-81.7365860000000026
11
138.0944479999999999
21
-81.5827719999999914
0
LINE
8
BLACK
6
CONTINUOUS
10
138.0944479999999999
20
-81.5827719999999914
11
138.1544629999999927
21
-81.4378829999999994
0
LINE
8
BLACK
6
CONTINUOUS
10
138.1544629999999927
20
-81.4378829999999994
11
138.2415919999999971
21
-81.3074849999999998
0
LINE
8
BLACK
6
CONTINUOUS
10
138.2415919999999971
20
-81.3074849999999998
11
138.3524850000000015
21
-81.1965919999999954
0
LINE
8
BLACK
6
CONTINUOUS
10
138.3524850000000015
20
-81.1965919999999954
11
138.4828829999999869
21
-81.109462999999991
0
LINE
8
BLACK
6
CONTINUOUS
10
138.4828829999999869
20
-81.109462999999991
11
138.6277719999999931
21
-81.0494479999999982
0
LINE
8
BLACK
6
CONTINUOUS
10
138.6277719999999931
20
-81.0494479999999982
11
138.7815860000000043
21
-81.0188519999999954
0
LINE
8
BLACK
6
CONTINUOUS
10
138.7815860000000043
20
-81.0188519999999954
11
138.9384139999999945
21
-81.0188519999999954
0
LINE
8
BLACK
6
CONTINUOUS
10
138.9384139999999945
20
-81.0188519999999954
11
139.0922280000000057
21
-81.0494479999999982
0
LINE
8
BLACK
6
CONTINUOUS
10
141.6322279999999978
20
-81.0494479999999982
11
141.7771170000000041
21
-81.109462999999991
0
LINE
8
BLACK
6
CONTINUOUS
10
141.7771170000000041
20
-81.109462999999991
11
141.9075149999999894
21
-81.1965919999999954
0
LINE
8
BLACK
6
CONTINUOUS
10
141.9075149999999894
20
-81.1965919999999954
11
142.0184079999999938
21
-81.3074849999999998
0
LINE
8
BLACK
6
CONTINUOUS
10
142.0184079999999938
20
-81.3074849999999998
11
142.1055369999999982
21
-81.4378829999999994
0
LINE
8
BLACK
6
CONTINUOUS
10
142.1055369999999982
20
-81.4378829999999994
11
142.165551999999991
21
-81.5827719999999914
0
LINE
8
BLACK
6
CONTINUOUS
10
142.165551999999991
20
-81.5827719999999914
11
142.1961479999999938
21
-81.7365860000000026
0
LINE
8
BLACK
6
CONTINUOUS
10
142.1961479999999938
20
-81.7365860000000026
11
142.1961479999999938
21
-81.8934139999999928
0
LINE
8
BLACK
6
CONTINUOUS
10
142.1961479999999938
20
-81.8934139999999928
11
142.165551999999991
21
-82.0472279999999898
0
LINE
8
BLACK
6
CONTINUOUS
10
142.165551999999991
20
-82.0472279999999898
11
142.1055369999999982
21
-82.1921169999999961
0
LINE
8
BLACK
6
CONTINUOUS
10
142.1055369999999982
20
-82.1921169999999961
11
142.0184079999999938
21
-82.3225149999999957
0
LINE
8
BLACK
6
CONTINUOUS
10
142.0184079999999938
20
-82.3225149999999957
11
141.9075149999999894
21
-82.433408
0
LINE
8
BLACK
6
CONTINUOUS
10
141.9075149999999894
20
-82.433408
11
141.7771170000000041
21
-82.5205369999999903
0
LINE
8
BLACK
6
CONTINUOUS
10
141.7771170000000041
20
-82.5205369999999903
11
141.6322279999999978
21
-82.5805519999999973
0
LINE
8
BLACK
6
CONTINUOUS
10
141.6322279999999978
20
-82.5805519999999973
11
141.4784139999999866
21
-82.611148
0
LINE
8
BLACK
6
CONTINUOUS
10
141.4784139999999866
20
-82.611148
11
141.3215859999999964
21
-82.611148
0
LINE
8
BLACK
6
CONTINUOUS
10
141.3215859999999964
20
-82.611148
11
141.1677719999999852
21
-82.5805519999999973
0
LINE
8
BLACK
6
CONTINUOUS
10
141.1677719999999852
20
-82.5805519999999973
11
141.0228830000000073
21
-82.5205369999999903
0
LINE
8
BLACK
6
CONTINUOUS
10
141.0228830000000073
20
-82.5205369999999903
11
140.8924849999999935
21
-82.433408
0
LINE
8
BLACK
6
CONTINUOUS
10
140.8924849999999935
20
-82.433408
11
140.7815919999999892
21
-82.3225149999999957
0
LINE
8
BLACK
6
CONTINUOUS
10
140.7815919999999892
20
-82.3225149999999957
11
140.6944629999999847
21
-82.1921169999999961
0
LINE
8
BLACK
6
CONTINUOUS
10
140.6944629999999847
20
-82.1921169999999961
11
140.6344479999999919
21
-82.0472279999999898
0
LINE
8
BLACK
6
CONTINUOUS
10
140.6344479999999919
20
-82.0472279999999898
11
140.6038519999999892
21
-81.8934139999999928
0
LINE
8
BLACK
6
CONTINUOUS
10
140.6038519999999892
20
-81.8934139999999928
11
140.6038519999999892
21
-81.7365860000000026
0
LINE
8
BLACK
6
CONTINUOUS
10
140.6038519999999892
20
-81.7365860000000026
11
140.6344479999999919
21
-81.5827719999999914
0
LINE
8
BLACK
6
CONTINUOUS
10
140.6344479999999919
20
-81.5827719999999914
11
140.6944629999999847
21
-81.4378829999999994
0
LINE
8
BLACK
6
CONTINUOUS
10
140.6944629999999847
20
-81.4378829999999994
11
140.7815919999999892
21
-81.3074849999999998
0
LINE
8
BLACK
6
CONTINUOUS
10
140.7815919999999892
20
-81.3074849999999998
11
140.8924849999999935
21
-81.1965919999999954
0
LINE
8
BLACK
6
CONTINUOUS
10
140.8924849999999935
20
-81.1965919999999954
11
141.0228830000000073
21
-81.109462999999991
0
LINE
8
BLACK
6
CONTINUOUS
10
141.0228830000000073
20
-81.109462999999991
11
141.1677719999999852
21
-81.0494479999999982
0
LINE
8
BLACK
6
CONTINUOUS
10
141.1677719999999852
20
-81.0494479999999982
11
141.3215859999999964
21
-81.0188519999999954
0
LINE
8
BLACK
6
CONTINUOUS
10
141.3215859999999964
20
-81.0188519999999954
11
141.4784139999999866
21
-81.0188519999999954
0
LINE
8
BLACK
6
CONTINUOUS
10
141.4784139999999866
20
-81.0188519999999954
11
141.6322279999999978
21
-81.0494479999999982
0
LINE
8
BLACK
6
CONTINUOUS
10
142.0456709999999987
20
-73.4140299999999968
11
142.1267770000000041
21
-73.4682229999999947
0
LINE
8
BLACK
6
CONTINUOUS
10
142.1267770000000041
20
-73.4682229999999947
11
142.1809700000000021
21
-73.5493290000000002
0
LINE
8
BLACK
6
CONTINUOUS
10
142.1809700000000021
20
-73.5493290000000002
11
142.1999999999999886
21
-73.644999999999996
0
LINE
8
BLACK
6
CONTINUOUS
10
142.1999999999999886
20
-73.644999999999996
11
142.1999999999999886
21
-74.7449999999999903
0
LINE
8
BLACK
6
CONTINUOUS
10
142.1999999999999886
20
-74.7449999999999903
11
142.1809700000000021
21
-74.8406710000000004
0
LINE
8
BLACK
6
CONTINUOUS
10
142.1809700000000021
20
-74.8406710000000004
11
142.1267770000000041
21
-74.9217769999999916
0
LINE
8
BLACK
6
CONTINUOUS
10
142.1267770000000041
20
-74.9217769999999916
11
142.0456709999999987
21
-74.9759699999999896
0
LINE
8
BLACK
6
CONTINUOUS
10
142.0456709999999987
20
-74.9759699999999896
11
141.9499999999999886
21
-74.9949999999999903
0
LINE
8
BLACK
6
CONTINUOUS
10
141.9499999999999886
20
-74.9949999999999903
11
140.8499999999999943
21
-74.9949999999999903
0
LINE
8
BLACK
6
CONTINUOUS
10
140.8499999999999943
20
-74.9949999999999903
11
140.7543289999999843
21
-74.9759699999999896
0
LINE
8
BLACK
6
CONTINUOUS
10
140.7543289999999843
20
-74.9759699999999896
11
140.6732230000000072
21
-74.9217769999999916
0
LINE
8
BLACK
6
CONTINUOUS
10
140.6732230000000072
20
-74.9217769999999916
11
140.6190299999999809
21
-74.8406710000000004
0
LINE
8
BLACK
6
CONTINUOUS
10
140.6190299999999809
20
-74.8406710000000004
11
140.5999999999999943
21
-74.7449999999999903
0
LINE
8
BLACK
6
CONTINUOUS
10
140.5999999999999943
20
-74.7449999999999903
11
140.5999999999999943
21
-73.644999999999996
0
LINE
8
BLACK
6
CONTINUOUS
10
140.5999999999999943
20
-73.644999999999996
11
140.6190299999999809
21
-73.5493290000000002
0
LINE
8
BLACK
6
CONTINUOUS
10
140.6190299999999809
20
-73.5493290000000002
11
140.6732230000000072
21
-73.4682229999999947
0
LINE
8
BLACK
6
CONTINUOUS
10
140.6732230000000072
20
-73.4682229999999947
11
140.7543289999999843
21
-73.4140299999999968
0
LINE
8
BLACK
6
CONTINUOUS
10
140.7543289999999843
20
-73.4140299999999968
11
140.8499999999999943
21
-73.394999999999996
0
LINE
8
BLACK
6
CONTINUOUS
10
140.8499999999999943
20
-73.394999999999996
11
141.9499999999999886
21
-73.394999999999996
0
LINE
8
BLACK
6
CONTINUOUS
10
141.9499999999999886
20
-73.394999999999996
11
142.0456709999999987
21
-73.4140299999999968
0
LINE
8
BLACK
6
CONTINUOUS
10
134.0122279999999932
20
-73.4294479999999936
11
134.1571169999999995
21
-73.4894630000000006
0
LINE
8
BLACK
6
CONTINUOUS
10
134.1571169999999995
20
-73.4894630000000006
11
134.2875149999999849
21
-73.5765919999999909
0
LINE
8
BLACK
6
CONTINUOUS
10
134.2875149999999849
20
-73.5765919999999909
11
134.3984079999999892
21
-73.6874849999999952
0
LINE
8
BLACK
6
CONTINUOUS
10
134.3984079999999892
20
-73.6874849999999952
11
134.4855369999999937
21
-73.8178829999999948
0
LINE
8
BLACK
6
CONTINUOUS
10
134.4855369999999937
20
-73.8178829999999948
11
134.5455519999999865
21
-73.9627720000000011
0
LINE
8
BLACK
6
CONTINUOUS
10
134.5455519999999865
20
-73.9627720000000011
11
134.5761479999999892
21
-74.1165859999999981
0
LINE
8
BLACK
6
CONTINUOUS
10
134.5761479999999892
20
-74.1165859999999981
11
134.5761479999999892
21
-74.2734140000000025
0
LINE
8
BLACK
6
CONTINUOUS
10
134.5761479999999892
20
-74.2734140000000025
11
134.5455519999999865
21
-74.4272279999999995
0
LINE
8
BLACK
6
CONTINUOUS
10
134.5455519999999865
20
-74.4272279999999995
11
134.4855369999999937
21
-74.5721169999999915
0
LINE
8
BLACK
6
CONTINUOUS
10
134.4855369999999937
20
-74.5721169999999915
11
134.3984079999999892
21
-74.7025149999999911
0
LINE
8
BLACK
6
CONTINUOUS
10
134.3984079999999892
20
-74.7025149999999911
11
134.2875149999999849
21
-74.8134079999999955
0
LINE
8
BLACK
6
CONTINUOUS
10
134.2875149999999849
20
-74.8134079999999955
11
134.1571169999999995
21
-74.9005369999999999
0
LINE
8
BLACK
6
CONTINUOUS
10
134.1571169999999995
20
-74.9005369999999999
11
134.0122279999999932
21
-74.9605519999999927
0
LINE
8
BLACK
6
CONTINUOUS
10
134.0122279999999932
20
-74.9605519999999927
11
133.858413999999982
21
-74.9911479999999955
0
LINE
8
BLACK
6
CONTINUOUS
10
133.858413999999982
20
-74.9911479999999955
11
133.7015859999999918
21
-74.9911479999999955
0
LINE
8
BLACK
6
CONTINUOUS
10
133.7015859999999918
20
-74.9911479999999955
11
133.5477719999999806
21
-74.9605519999999927
0
LINE
8
BLACK
6
CONTINUOUS
10
133.5477719999999806
20
-74.9605519999999927
11
133.4028830000000028
21
-74.9005369999999999
0
LINE
8
BLACK
6
CONTINUOUS
10
133.4028830000000028
20
-74.9005369999999999
11
133.272484999999989
21
-74.8134079999999955
0
LINE
8
BLACK
6
CONTINUOUS
10
133.272484999999989
20
-74.8134079999999955
11
133.1615919999999846
21
-74.7025149999999911
0
LINE
8
BLACK
6
CONTINUOUS
10
133.1615919999999846
20
-74.7025149999999911
11
133.0744629999999802
21
-74.5721169999999915
0
LINE
8
BLACK
6
CONTINUOUS
10
133.0744629999999802
20
-74.5721169999999915
11
133.0144479999999874
21
-74.4272279999999995
0
LINE
8
BLACK
6
CONTINUOUS
10
133.0144479999999874
20
-74.4272279999999995
11
132.9838519999999846
21
-74.2734140000000025
0
LINE
8
BLACK
6
CONTINUOUS
10
132.9838519999999846
20
-74.2734140000000025
11
132.9838519999999846
21
-74.1165859999999981
0
LINE
8
BLACK
6
CONTINUOUS
10
132.9838519999999846
20
-74.1165859999999981
11
133.0144479999999874
21
-73.9627720000000011
0
LINE
8
BLACK
6
CONTINUOUS
10
133.0144479999999874
20
-73.9627720000000011
11
133.0744629999999802
21
-73.8178829999999948
0
LINE
8
BLACK
6
CONTINUOUS
10
133.0744629999999802
20
-73.8178829999999948
11
133.1615919999999846
21
-73.6874849999999952
0
LINE
8
BLACK
6
CONTINUOUS
10
133.1615919999999846
20
-73.6874849999999952
11
133.272484999999989
21
-73.5765919999999909
0
LINE
8
BLACK
6
CONTINUOUS
10
133.272484999999989
20
-73.5765919999999909
11
133.4028830000000028
21
-73.4894630000000006
0
LINE
8
BLACK
6
CONTINUOUS
10
133.4028830000000028
20
-73.4894630000000006
11
133.5477719999999806
21
-73.4294479999999936
0
LINE
8
BLACK
6
CONTINUOUS
10
133.5477719999999806
20
-73.4294479999999936
11
133.7015859999999918
21
-73.3988519999999909
0
LINE
8
BLACK
6
CONTINUOUS
10
133.7015859999999918
20
-73.3988519999999909
11
133.858413999999982
21
-73.3988519999999909
0
LINE
8
BLACK
6
CONTINUOUS
10
133.858413999999982
20
-73.3988519999999909
11
134.0122279999999932
21
-73.4294479999999936
0
LINE
8
BLACK
6
CONTINUOUS
10
136.5522279999999853
20
-73.4294479999999936
11
136.6971169999999915
21
-73.4894630000000006
0
LINE
8
BLACK
6
CONTINUOUS
10
136.6971169999999915
20
-73.4894630000000006
11
136.8275150000000053
21
-73.5765919999999909
0
LINE
8
BLACK
6
CONTINUOUS
10
136.8275150000000053
20
-73.5765919999999909
11
136.9384079999999813
21
-73.6874849999999952
0
LINE
8
BLACK
6
CONTINUOUS
10
136.9384079999999813
20
-73.6874849999999952
11
137.0255369999999857
21
-73.8178829999999948
0
LINE
8
BLACK
6
CONTINUOUS
10
137.0255369999999857
20
-73.8178829999999948
11
137.085552000000007
21
-73.9627720000000011
0
LINE
8
BLACK
6
CONTINUOUS
10
137.085552000000007
20
-73.9627720000000011
11
137.1161479999999813
21
-74.1165859999999981
0
LINE
8
BLACK
6
CONTINUOUS
10
137.1161479999999813
20
-74.1165859999999981
11
137.1161479999999813
21
-74.2734140000000025
0
LINE
8
BLACK
6
CONTINUOUS
10
137.1161479999999813
20
-74.2734140000000025
11
137.085552000000007
21
-74.4272279999999995
0
LINE
8
BLACK
6
CONTINUOUS
10
137.085552000000007
20
-74.4272279999999995
11
137.0255369999999857
21
-74.5721169999999915
0
LINE
8
BLACK
6
CONTINUOUS
10
137.0255369999999857
20
-74.5721169999999915
11
136.9384079999999813
21
-74.7025149999999911
0
LINE
8
BLACK
6
CONTINUOUS
10
136.9384079999999813
20
-74.7025149999999911
11
136.8275150000000053
21
-74.8134079999999955
0
LINE
8
BLACK
6
CONTINUOUS
10
136.8275150000000053
20
-74.8134079999999955
11
136.6971169999999915
21
-74.9005369999999999
0
LINE
8
BLACK
6
CONTINUOUS
10
136.6971169999999915
20
-74.9005369999999999
11
136.5522279999999853
21
-74.9605519999999927
0
LINE
8
BLACK
6
CONTINUOUS
10
136.5522279999999853
20
-74.9605519999999927
11
136.3984140000000025
21
-74.9911479999999955
0
LINE
8
BLACK
6
CONTINUOUS
10
136.3984140000000025
20
-74.9911479999999955
11
136.2415859999999839
21
-74.9911479999999955
0
LINE
8
BLACK
6
CONTINUOUS
10
136.2415859999999839
20
-74.9911479999999955
11
136.0877720000000011
21
-74.9605519999999927
0
LINE
8
BLACK
6
CONTINUOUS
10
136.0877720000000011
20
-74.9605519999999927
11
135.9428829999999948
21
-74.9005369999999999
0
LINE
8
BLACK
6
CONTINUOUS
10
135.9428829999999948
20
-74.9005369999999999
11
135.812484999999981
21
-74.8134079999999955
0
LINE
8
BLACK
6
CONTINUOUS
10
135.812484999999981
20
-74.8134079999999955
11
135.7015920000000051
21
-74.7025149999999911
0
LINE
8
BLACK
6
CONTINUOUS
10
135.7015920000000051
20
-74.7025149999999911
11
135.6144630000000006
21
-74.5721169999999915
0
LINE
8
BLACK
6
CONTINUOUS
10
135.6144630000000006
20
-74.5721169999999915
11
135.5544480000000078
21
-74.4272279999999995
0
LINE
8
BLACK
6
CONTINUOUS
10
135.5544480000000078
20
-74.4272279999999995
11
135.5238520000000051
21
-74.2734140000000025
0
LINE
8
BLACK
6
CONTINUOUS
10
135.5238520000000051
20
-74.2734140000000025
11
135.5238520000000051
21
-74.1165859999999981
0
LINE
8
BLACK
6
CONTINUOUS
10
135.5238520000000051
20
-74.1165859999999981
11
135.5544480000000078
21
-73.9627720000000011
0
LINE
8
BLACK
6
CONTINUOUS
10
135.5544480000000078
20
-73.9627720000000011
11
135.6144630000000006
21
-73.8178829999999948
0
LINE
8
BLACK
6
CONTINUOUS
10
135.6144630000000006
20
-73.8178829999999948
11
135.7015920000000051
21
-73.6874849999999952
0
LINE
8
BLACK
6
CONTINUOUS
10
135.7015920000000051
20
-73.6874849999999952
11
135.812484999999981
21
-73.5765919999999909
0
LINE
8
BLACK
6
CONTINUOUS
10
135.812484999999981
20
-73.5765919999999909
11
135.9428829999999948
21
-73.4894630000000006
0
LINE
8
BLACK
6
CONTINUOUS
10
135.9428829999999948
20
-73.4894630000000006
11
136.0877720000000011
21
-73.4294479999999936
0
LINE
8
BLACK
6
CONTINUOUS
10
136.0877720000000011
20
-73.4294479999999936
11
136.2415859999999839
21
-73.3988519999999909
0
LINE
8
BLACK
6
CONTINUOUS
10
136.2415859999999839
20
-73.3988519999999909
11
136.3984140000000025
21
-73.3988519999999909
0
LINE
8
BLACK
6
CONTINUOUS
10
136.3984140000000025
20
-73.3988519999999909
11
136.5522279999999853
21
-73.4294479999999936
0
LINE
8
BLACK
6
CONTINUOUS
10
139.0922280000000057
20
-73.4294479999999936
11
139.2371169999999836
21
-73.4894630000000006
0
LINE
8
BLACK
6
CONTINUOUS
10
139.2371169999999836
20
-73.4894630000000006
11
139.3675149999999974
21
-73.5765919999999909
0
LINE
8
BLACK
6
CONTINUOUS
10
139.3675149999999974
20
-73.5765919999999909
11
139.4784080000000017
21
-73.6874849999999952
0
LINE
8
BLACK
6
CONTINUOUS
10
139.4784080000000017
20
-73.6874849999999952
11
139.5655370000000062
21
-73.8178829999999948
0
LINE
8
BLACK
6
CONTINUOUS
10
139.5655370000000062
20
-73.8178829999999948
11
139.625551999999999
21
-73.9627720000000011
0
LINE
8
BLACK
6
CONTINUOUS
10
139.625551999999999
20
-73.9627720000000011
11
139.6561480000000017
21
-74.1165859999999981
0
LINE
8
BLACK
6
CONTINUOUS
10
139.6561480000000017
20
-74.1165859999999981
11
139.6561480000000017
21
-74.2734140000000025
0
LINE
8
BLACK
6
CONTINUOUS
10
139.6561480000000017
20
-74.2734140000000025
11
139.625551999999999
21
-74.4272279999999995
0
LINE
8
BLACK
6
CONTINUOUS
10
139.625551999999999
20
-74.4272279999999995
11
139.5655370000000062
21
-74.5721169999999915
0
LINE
8
BLACK
6
CONTINUOUS
10
139.5655370000000062
20
-74.5721169999999915
11
139.4784080000000017
21
-74.7025149999999911
0
LINE
8
BLACK
6
CONTINUOUS
10
139.4784080000000017
20
-74.7025149999999911
11
139.3675149999999974
21
-74.8134079999999955
0
LINE
8
BLACK
6
CONTINUOUS
10
139.3675149999999974
20
-74.8134079999999955
11
139.2371169999999836
21
-74.9005369999999999
0
LINE
8
BLACK
6
CONTINUOUS
10
139.2371169999999836
20
-74.9005369999999999
11
139.0922280000000057
21
-74.9605519999999927
0
LINE
8
BLACK
6
CONTINUOUS
10
139.0922280000000057
20
-74.9605519999999927
11
138.9384139999999945
21
-74.9911479999999955
0
LINE
8
BLACK
6
CONTINUOUS
10
138.9384139999999945
20
-74.9911479999999955
11
138.7815860000000043
21
-74.9911479999999955
0
LINE
8
BLACK
6
CONTINUOUS
10
138.7815860000000043
20
-74.9911479999999955
11
138.6277719999999931
21
-74.9605519999999927
0
LINE
8
BLACK
6
CONTINUOUS
10
138.6277719999999931
20
-74.9605519999999927
11
138.4828829999999869
21
-74.9005369999999999
0
LINE
8
BLACK
6
CONTINUOUS
10
138.4828829999999869
20
-74.9005369999999999
11
138.3524850000000015
21
-74.8134079999999955
0
LINE
8
BLACK
6
CONTINUOUS
10
138.3524850000000015
20
-74.8134079999999955
11
138.2415919999999971
21
-74.7025149999999911
0
LINE
8
BLACK
6
CONTINUOUS
10
138.2415919999999971
20
-74.7025149999999911
11
138.1544629999999927
21
-74.5721169999999915
0
LINE
8
BLACK
6
CONTINUOUS
10
138.1544629999999927
20
-74.5721169999999915
11
138.0944479999999999
21
-74.4272279999999995
0
LINE
8
BLACK
6
CONTINUOUS
10
138.0944479999999999
20
-74.4272279999999995
11
138.0638519999999971
21
-74.2734140000000025
0
LINE
8
BLACK
6
CONTINUOUS
10
138.0638519999999971
20
-74.2734140000000025
11
138.0638519999999971
21
-74.1165859999999981
0
LINE
8
BLACK
6
CONTINUOUS
10
138.0638519999999971
20
-74.1165859999999981
11
138.0944479999999999
21
-73.9627720000000011
0
LINE
8
BLACK
6
CONTINUOUS
10
138.0944479999999999
20
-73.9627720000000011
11
138.1544629999999927
21
-73.8178829999999948
0
LINE
8
BLACK
6
CONTINUOUS
10
138.1544629999999927
20
-73.8178829999999948
11
138.2415919999999971
21
-73.6874849999999952
0
LINE
8
BLACK
6
CONTINUOUS
10
138.2415919999999971
20
-73.6874849999999952
11
138.3524850000000015
21
-73.5765919999999909
0
LINE
8
BLACK
6
CONTINUOUS
10
138.3524850000000015
20
-73.5765919999999909
11
138.4828829999999869
21
-73.4894630000000006
0
LINE
8
BLACK
6
CONTINUOUS
10
138.4828829999999869
20
-73.4894630000000006
11
138.6277719999999931
21
-73.4294479999999936
0
LINE
8
BLACK
6
CONTINUOUS
10
138.6277719999999931
20
-73.4294479999999936
11
138.7815860000000043
21
-73.3988519999999909
0
LINE
8
BLACK
6
CONTINUOUS
10
138.7815860000000043
20
-73.3988519999999909
11
138.9384139999999945
21
-73.3988519999999909
0
LINE
8
BLACK
6
CONTINUOUS
10
138.9384139999999945
20
-73.3988519999999909
11
139.0922280000000057
21
-73.4294479999999936
0
LINE
8
BLACK
6
CONTINUOUS
10
134.4956709999999873
20
-70.7690300000000008
11
134.5767769999999928
21
-70.8232229999999987
0
LINE
8
BLACK
6
CONTINUOUS
10
134.5767769999999928
20
-70.8232229999999987
11
134.6309699999999907
21
-70.9043289999999899
0
LINE
8
BLACK
6
CONTINUOUS
10
134.6309699999999907
20
-70.9043289999999899
11
134.6500000000000057
21
-71.
0
LINE
8
BLACK
6
CONTINUOUS
10
134.6500000000000057
20
-71.
11
134.6500000000000057
21
-72.2000000000000028
0
LINE
8
BLACK
6
CONTINUOUS
10
134.6500000000000057
20
-72.2000000000000028
11
134.6309699999999907
21
-72.2956709999999987
0
LINE
8
BLACK
6
CONTINUOUS
10
134.6309699999999907
20
-72.2956709999999987
11
134.5767769999999928
21
-72.3767769999999899
0
LINE
8
BLACK
6
CONTINUOUS
10
134.5767769999999928
20
-72.3767769999999899
11
134.4956709999999873
21
-72.4309700000000021
0
LINE
8
BLACK
6
CONTINUOUS
10
134.4956709999999873
20
-72.4309700000000021
11
134.4000000000000057
21
-72.4500000000000028
0
LINE
8
BLACK
6
CONTINUOUS
10
134.4000000000000057
20
-72.4500000000000028
11
133.1999999999999886
21
-72.4500000000000028
0
LINE
8
BLACK
6
CONTINUOUS
10
133.1999999999999886
20
-72.4500000000000028
11
133.104329000000007
21
-72.4309700000000021
0
LINE
8
BLACK
6
CONTINUOUS
10
133.104329000000007
20
-72.4309700000000021
11
133.0232230000000015
21
-72.3767769999999899
0
LINE
8
BLACK
6
CONTINUOUS
10
133.0232230000000015
20
-72.3767769999999899
11
132.9690300000000036
21
-72.2956709999999987
0
LINE
8
BLACK
6
CONTINUOUS
10
132.9690300000000036
20
-72.2956709999999987
11
132.9499999999999886
21
-72.2000000000000028
0
LINE
8
BLACK
6
CONTINUOUS
10
132.9499999999999886
20
-72.2000000000000028
11
132.9499999999999886
21
-71.
0
LINE
8
BLACK
6
CONTINUOUS
10
132.9499999999999886
20
-71.
11
132.9690300000000036
21
-70.9043289999999899
0
LINE
8
BLACK
6
CONTINUOUS
10
132.9690300000000036
20
-70.9043289999999899
11
133.0232230000000015
21
-70.8232229999999987
0
LINE
8
BLACK
6
CONTINUOUS
10
133.0232230000000015
20
-70.8232229999999987
11
133.104329000000007
21
-70.7690300000000008
0
LINE
8
BLACK
6
CONTINUOUS
10
133.104329000000007
20
-70.7690300000000008
11
133.1999999999999886
21
-70.75
0
LINE
8
BLACK
6
CONTINUOUS
10
133.1999999999999886
20
-70.75
11
134.4000000000000057
21
-70.75
0
LINE
8
BLACK
6
CONTINUOUS
10
134.4000000000000057
20
-70.75
11
134.4956709999999873
21
-70.7690300000000008
0
LINE
8
BLACK
6
CONTINUOUS
10
137.4956709999999873
20
-70.7690300000000008
11
137.5767769999999928
21
-70.8232229999999987
0
LINE
8
BLACK
6
CONTINUOUS
10
137.5767769999999928
20
-70.8232229999999987
11
137.6309699999999907
21
-70.9043289999999899
0
LINE
8
BLACK
6
CONTINUOUS
10
137.6309699999999907
20
-70.9043289999999899
11
137.6500000000000057
21
-71.
0
LINE
8
BLACK
6
CONTINUOUS
10
137.6500000000000057
20
-71.
11
137.6500000000000057
21
-72.2000000000000028
0
LINE
8
BLACK
6
CONTINUOUS
10
137.6500000000000057
20
-72.2000000000000028
11
137.6309699999999907
21
-72.2956709999999987
0
LINE
8
BLACK
6
CONTINUOUS
10
137.6309699999999907
20
-72.2956709999999987
11
137.5767769999999928
21
-72.3767769999999899
0
LINE
8
BLACK
6
CONTINUOUS
10
137.5767769999999928
20
-72.3767769999999899
11
137.4956709999999873
21
-72.4309700000000021
0
LINE
8
BLACK
6
CONTINUOUS
10
137.4956709999999873
20
-72.4309700000000021
11
137.4000000000000057
21
-72.4500000000000028
0
LINE
8
BLACK
6
CONTINUOUS
10
137.4000000000000057
20
-72.4500000000000028
11
136.1999999999999886
21
-72.4500000000000028
0
LINE
8
BLACK
6
CONTINUOUS
10
136.1999999999999886
20
-72.4500000000000028
11
136.104329000000007
21
-72.4309700000000021
0
LINE
8
BLACK
6
CONTINUOUS
10
136.104329000000007
20
-72.4309700000000021
11
136.0232230000000015
21
-72.3767769999999899
0
LINE
8
BLACK
6
CONTINUOUS
10
136.0232230000000015
20
-72.3767769999999899
11
135.9690300000000036
21
-72.2956709999999987
0
LINE
8
BLACK
6
CONTINUOUS
10
135.9690300000000036
20
-72.2956709999999987
11
135.9499999999999886
21
-72.2000000000000028
0
LINE
8
BLACK
6
CONTINUOUS
10
135.9499999999999886
20
-72.2000000000000028
11
135.9499999999999886
21
-71.
0
LINE
8
BLACK
6
CONTINUOUS
10
135.9499999999999886
20
-71.
11
135.9690300000000036
21
-70.9043289999999899
0
LINE
8
BLACK
6
CONTINUOUS
10
135.9690300000000036
20
-70.9043289999999899
11
136.0232230000000015
21
-70.8232229999999987
0
LINE
8
BLACK
6
CONTINUOUS
10
136.0232230000000015
20
-70.8232229999999987
11
136.104329000000007
21
-70.7690300000000008
0
LINE
8
BLACK
6
CONTINUOUS
10
136.104329000000007
20
-70.7690300000000008
11
136.1999999999999886
21
-70.75
0
LINE
8
BLACK
6
CONTINUOUS
10
136.1999999999999886
20
-70.75
11
137.4000000000000057
21
-70.75
0
LINE
8
BLACK
6
CONTINUOUS
10
137.4000000000000057
20
-70.75
11
137.4956709999999873
21
-70.7690300000000008
0
LINE
8
BLACK
6
CONTINUOUS
10
140.4956709999999873
20
-70.7690300000000008
11
140.5767769999999928
21
-70.8232229999999987
0
LINE
8
BLACK
6
CONTINUOUS
10
140.5767769999999928
20
-70.8232229999999987
11
140.6309699999999907
21
-70.9043289999999899
0
LINE
8
BLACK
6
CONTINUOUS
10
140.6309699999999907
20
-70.9043289999999899
11
140.6500000000000057
21
-71.
0
LINE
8
BLACK
6
CONTINUOUS
10
140.6500000000000057
20
-71.
11
140.6500000000000057
21
-72.2000000000000028
0
LINE
8
BLACK
6
CONTINUOUS
10
140.6500000000000057
20
-72.2000000000000028
11
140.6309699999999907
21
-72.2956709999999987
0
LINE
8
BLACK
6
CONTINUOUS
10
140.6309699999999907
20
-72.2956709999999987
11
140.5767769999999928
21
-72.3767769999999899
0
LINE
8
BLACK
6
CONTINUOUS
10
140.5767769999999928
20
-72.3767769999999899
11
140.4956709999999873
21
-72.4309700000000021
0
LINE
8
BLACK
6
CONTINUOUS
10
140.4956709999999873
20
-72.4309700000000021
11
140.4000000000000057
21
-72.4500000000000028
0
LINE
8
BLACK
6
CONTINUOUS
10
140.4000000000000057
20
-72.4500000000000028
11
139.1999999999999886
21
-72.4500000000000028
0
LINE
8
BLACK
6
CONTINUOUS
10
139.1999999999999886
20
-72.4500000000000028
11
139.104329000000007
21
-72.4309700000000021
0
LINE
8
BLACK
6
CONTINUOUS
10
139.104329000000007
20
-72.4309700000000021
11
139.0232230000000015
21
-72.3767769999999899
0
LINE
8
BLACK
6
CONTINUOUS
10
139.0232230000000015
20
-72.3767769999999899
11
138.9690300000000036
21
-72.2956709999999987
0
LINE
8
BLACK
6
CONTINUOUS
10
138.9690300000000036
20
-72.2956709999999987
11
138.9499999999999886
21
-72.2000000000000028
0
LINE
8
BLACK
6
CONTINUOUS
10
138.9499999999999886
20
-72.2000000000000028
11
138.9499999999999886
21
-71.
0
LINE
8
BLACK
6
CONTINUOUS
10
138.9499999999999886
20
-71.
11
138.9690300000000036
21
-70.9043289999999899
0
LINE
8
BLACK
6
CONTINUOUS
10
138.9690300000000036
20
-70.9043289999999899
11
139.0232230000000015
21
-70.8232229999999987
0
LINE
8
BLACK
6
CONTINUOUS
10
139.0232230000000015
20
-70.8232229999999987
11
139.104329000000007
21
-70.7690300000000008
0
LINE
8
BLACK
6
CONTINUOUS
10
139.104329000000007
20
-70.7690300000000008
11
139.1999999999999886
21
-70.75
0
LINE
8
BLACK
6
CONTINUOUS
10
139.1999999999999886
20
-70.75
11
140.4000000000000057
21
-70.75
0
LINE
8
BLACK
6
CONTINUOUS
10
140.4000000000000057
20
-70.75
11
140.4956709999999873
21
-70.7690300000000008
0
LINE
8
BLACK
6
CONTINUOUS
10
143.4956709999999873
20
-70.7690300000000008
11
143.5767769999999928
21
-70.8232229999999987
0
LINE
8
BLACK
6
CONTINUOUS
10
143.5767769999999928
20
-70.8232229999999987
11
143.6309699999999907
21
-70.9043289999999899
0
LINE
8
BLACK
6
CONTINUOUS
10
143.6309699999999907
20
-70.9043289999999899
11
143.6500000000000057
21
-71.
0
LINE
8
BLACK
6
CONTINUOUS
10
143.6500000000000057
20
-71.
11
143.6500000000000057
21
-72.2000000000000028
0
LINE
8
BLACK
6
CONTINUOUS
10
143.6500000000000057
20
-72.2000000000000028
11
143.6309699999999907
21
-72.2956709999999987
0
LINE
8
BLACK
6
CONTINUOUS
10
143.6309699999999907
20
-72.2956709999999987
11
143.5767769999999928
21
-72.3767769999999899
0
LINE
8
BLACK
6
CONTINUOUS
10
143.5767769999999928
20
-72.3767769999999899
11
143.4956709999999873
21
-72.4309700000000021
0
LINE
8
BLACK
6
CONTINUOUS
10
143.4956709999999873
20
-72.4309700000000021
11
143.4000000000000057
21
-72.4500000000000028
0
LINE
8
BLACK
6
CONTINUOUS
10
143.4000000000000057
20
-72.4500000000000028
11
142.1999999999999886
21
-72.4500000000000028
0
LINE
8
BLACK
6
CONTINUOUS
10
142.1999999999999886
20
-72.4500000000000028
11
142.104329000000007
21
-72.4309700000000021
0
LINE
8
BLACK
6
CONTINUOUS
10
142.104329000000007
20
-72.4309700000000021
11
142.0232230000000015
21
-72.3767769999999899
0
LINE
8
BLACK
6
CONTINUOUS
10
142.0232230000000015
20
-72.3767769999999899
11
141.9690300000000036
21
-72.2956709999999987
0
LINE
8
BLACK
6
CONTINUOUS
10
141.9690300000000036
20
-72.2956709999999987
11
141.9499999999999886
21
-72.2000000000000028
0
LINE
8
BLACK
6
CONTINUOUS
10
141.9499999999999886
20
-72.2000000000000028
11
141.9499999999999886
21
-71.
0
LINE
8
BLACK
6
CONTINUOUS
10
141.9499999999999886
20
-71.
11
141.9690300000000036
21
-70.9043289999999899
0
LINE
8
BLACK
6
CONTINUOUS
10
141.9690300000000036
20
-70.9043289999999899
11
142.0232230000000015
21
-70.8232229999999987
0
LINE
8
BLACK
6
CONTINUOUS
10
142.0232230000000015
20
-70.8232229999999987
11
142.104329000000007
21
-70.7690300000000008
0
LINE
8
BLACK
6
CONTINUOUS
10
142.104329000000007
20
-70.7690300000000008
11
142.1999999999999886
21
-70.75
0
LINE
8
BLACK
6
CONTINUOUS
10
142.1999999999999886
20
-70.75
11
143.4000000000000057
21
-70.75
0
LINE
8
BLACK
6
CONTINUOUS
10
143.4000000000000057
20
-70.75
11
143.4956709999999873
21
-70.7690300000000008
0
LINE
8
BLACK
6
CONTINUOUS
10
135.9956709999999873
20
-68.5690299999999979
11
136.0767769999999928
21
-68.6232229999999959
0
LINE
8
BLACK
6
CONTINUOUS
10
136.0767769999999928
20
-68.6232229999999959
11
136.1309699999999907
21
-68.7043290000000013
0
LINE
8
BLACK
6
CONTINUOUS
10
136.1309699999999907
20
-68.7043290000000013
11
136.1500000000000057
21
-68.7999999999999972
0
LINE
8
BLACK
6
CONTINUOUS
10
136.1500000000000057
20
-68.7999999999999972
11
136.1500000000000057
21
-70.
0
LINE
8
BLACK
6
CONTINUOUS
10
136.1500000000000057
20
-70.
11
136.1309699999999907
21
-70.0956709999999958
0
LINE
8
BLACK
6
CONTINUOUS
10
136.1309699999999907
20
-70.0956709999999958
11
136.0767769999999928
21
-70.1767770000000013
0
LINE
8
BLACK
6
CONTINUOUS
10
136.0767769999999928
20
-70.1767770000000013
11
135.9956709999999873
21
-70.2309699999999992
0
LINE
8
BLACK
6
CONTINUOUS
10
135.9956709999999873
20
-70.2309699999999992
11
135.9000000000000057
21
-70.25
0
LINE
8
BLACK
6
CONTINUOUS
10
135.9000000000000057
20
-70.25
11
134.6999999999999886
21
-70.25
0
LINE
8
BLACK
6
CONTINUOUS
10
134.6999999999999886
20
-70.25
11
134.604329000000007
21
-70.2309699999999992
0
LINE
8
BLACK
6
CONTINUOUS
10
134.604329000000007
20
-70.2309699999999992
11
134.5232230000000015
21
-70.1767770000000013
0
LINE
8
BLACK
6
CONTINUOUS
10
134.5232230000000015
20
-70.1767770000000013
11
134.4690300000000036
21
-70.0956709999999958
0
LINE
8
BLACK
6
CONTINUOUS
10
134.4690300000000036
20
-70.0956709999999958
11
134.4499999999999886
21
-70.
0
LINE
8
BLACK
6
CONTINUOUS
10
134.4499999999999886
20
-70.
11
134.4499999999999886
21
-68.7999999999999972
0
LINE
8
BLACK
6
CONTINUOUS
10
134.4499999999999886
20
-68.7999999999999972
11
134.4690300000000036
21
-68.7043290000000013
0
LINE
8
BLACK
6
CONTINUOUS
10
134.4690300000000036
20
-68.7043290000000013
11
134.5232230000000015
21
-68.6232229999999959
0
LINE
8
BLACK
6
CONTINUOUS
10
134.5232230000000015
20
-68.6232229999999959
11
134.604329000000007
21
-68.5690299999999979
0
LINE
8
BLACK
6
CONTINUOUS
10
134.604329000000007
20
-68.5690299999999979
11
134.6999999999999886
21
-68.5499999999999972
0
LINE
8
BLACK
6
CONTINUOUS
10
134.6999999999999886
20
-68.5499999999999972
11
135.9000000000000057
21
-68.5499999999999972
0
LINE
8
BLACK
6
CONTINUOUS
10
135.9000000000000057
20
-68.5499999999999972
11
135.9956709999999873
21
-68.5690299999999979
0
LINE
8
BLACK
6
CONTINUOUS
10
141.895670999999993
20
-68.5690299999999979
11
141.9767769999999985
21
-68.6232229999999959
0
LINE
8
BLACK
6
CONTINUOUS
10
141.9767769999999985
20
-68.6232229999999959
11
142.0309699999999964
21
-68.7043290000000013
0
LINE
8
BLACK
6
CONTINUOUS
10
142.0309699999999964
20
-68.7043290000000013
11
142.0499999999999829
21
-68.7999999999999972
0
LINE
8
BLACK
6
CONTINUOUS
10
142.0499999999999829
20
-68.7999999999999972
11
142.0499999999999829
21
-70.
0
LINE
8
BLACK
6
CONTINUOUS
10
142.0499999999999829
20
-70.
11
142.0309699999999964
21
-70.0956709999999958
0
LINE
8
BLACK
6
CONTINUOUS
10
142.0309699999999964
20
-70.0956709999999958
11
141.9767769999999985
21
-70.1767770000000013
0
LINE
8
BLACK
6
CONTINUOUS
10
141.9767769999999985
20
-70.1767770000000013
11
141.895670999999993
21
-70.2309699999999992
0
LINE
8
BLACK
6
CONTINUOUS
10
141.895670999999993
20
-70.2309699999999992
11
141.7999999999999829
21
-70.25
0
LINE
8
BLACK
6
CONTINUOUS
10
141.7999999999999829
20
-70.25
11
140.5999999999999943
21
-70.25
0
LINE
8
BLACK
6
CONTINUOUS
10
140.5999999999999943
20
-70.25
11
140.5043289999999843
21
-70.2309699999999992
0
LINE
8
BLACK
6
CONTINUOUS
10
140.5043289999999843
20
-70.2309699999999992
11
140.4232230000000072
21
-70.1767770000000013
0
LINE
8
BLACK
6
CONTINUOUS
10
140.4232230000000072
20
-70.1767770000000013
11
140.3690299999999809
21
-70.0956709999999958
0
LINE
8
BLACK
6
CONTINUOUS
10
140.3690299999999809
20
-70.0956709999999958
11
140.3499999999999943
21
-70.
0
LINE
8
BLACK
6
CONTINUOUS
10
140.3499999999999943
20
-70.
11
140.3499999999999943
21
-68.7999999999999972
0
LINE
8
BLACK
6
CONTINUOUS
10
140.3499999999999943
20
-68.7999999999999972
11
140.3690299999999809
21
-68.7043290000000013
0
LINE
8
BLACK
6
CONTINUOUS
10
140.3690299999999809
20
-68.7043290000000013
11
140.4232230000000072
21
-68.6232229999999959
0
LINE
8
BLACK
6
CONTINUOUS
10
140.4232230000000072
20
-68.6232229999999959
11
140.5043289999999843
21
-68.5690299999999979
0
LINE
8
BLACK
6
CONTINUOUS
10
140.5043289999999843
20
-68.5690299999999979
11
140.5999999999999943
21
-68.5499999999999972
0
LINE
8
BLACK
6
CONTINUOUS
10
140.5999999999999943
20
-68.5499999999999972
11
141.7999999999999829
21
-68.5499999999999972
0
LINE
8
BLACK
6
CONTINUOUS
10
141.7999999999999829
20
-68.5499999999999972
11
141.895670999999993
21
-68.5690299999999979
0
LINE
8
BLACK
6
CONTINUOUS
10
134.0902849999999944
20
-65.6430599999999913
11
134.2713970000000074
21
-65.718079000000003
0
LINE
8
BLACK
6
CONTINUOUS
10
134.2713970000000074
20
-65.718079000000003
11
134.434393
21
-65.826989999999995
0
LINE
8
BLACK
6
CONTINUOUS
10
134.434393
20
-65.826989999999995
11
134.5730099999999823
21
-65.9656069999999914
0
LINE
8
BLACK
6
CONTINUOUS
10
134.5730099999999823
20
-65.9656069999999914
11
134.6819209999999885
21
-66.1286029999999982
0
LINE
8
BLACK
6
CONTINUOUS
10
134.6819209999999885
20
-66.1286029999999982
11
134.756939999999986
21
-66.3097149999999971
0
LINE
8
BLACK
6
CONTINUOUS
10
134.756939999999986
20
-66.3097149999999971
11
134.7951850000000036
21
-66.5019829999999956
0
LINE
8
BLACK
6
CONTINUOUS
10
134.7951850000000036
20
-66.5019829999999956
11
134.7951850000000036
21
-66.698016999999993
0
LINE
8
BLACK
6
CONTINUOUS
10
134.7951850000000036
20
-66.698016999999993
11
134.756939999999986
21
-66.8902849999999916
0
LINE
8
BLACK
6
CONTINUOUS
10
134.756939999999986
20
-66.8902849999999916
11
134.6819209999999885
21
-67.0713969999999904
0
LINE
8
BLACK
6
CONTINUOUS
10
134.6819209999999885
20
-67.0713969999999904
11
134.5730099999999823
21
-67.2343929999999972
0
LINE
8
BLACK
6
CONTINUOUS
10
134.5730099999999823
20
-67.2343929999999972
11
134.434393
21
-67.3730099999999936
0
LINE
8
BLACK
6
CONTINUOUS
10
134.434393
20
-67.3730099999999936
11
134.2713970000000074
21
-67.4819209999999998
0
LINE
8
BLACK
6
CONTINUOUS
10
134.2713970000000074
20
-67.4819209999999998
11
134.0902849999999944
21
-67.5569399999999973
0
LINE
8
BLACK
6
CONTINUOUS
10
134.0902849999999944
20
-67.5569399999999973
11
133.8980169999999816
21
-67.5951850000000007
0
LINE
8
BLACK
6
CONTINUOUS
10
133.8980169999999816
20
-67.5951850000000007
11
133.7019829999999843
21
-67.5951850000000007
0
LINE
8
BLACK
6
CONTINUOUS
10
133.7019829999999843
20
-67.5951850000000007
11
133.5097149999999999
21
-67.5569399999999973
0
LINE
8
BLACK
6
CONTINUOUS
10
133.5097149999999999
20
-67.5569399999999973
11
133.3286029999999869
21
-67.4819209999999998
0
LINE
8
BLACK
6
CONTINUOUS
10
133.3286029999999869
20
-67.4819209999999998
11
133.1656069999999943
21
-67.3730099999999936
0
LINE
8
BLACK
6
CONTINUOUS
10
133.1656069999999943
20
-67.3730099999999936
11
133.0269899999999836
21
-67.2343929999999972
0
LINE
8
BLACK
6
CONTINUOUS
10
133.0269899999999836
20
-67.2343929999999972
11
132.9180790000000059
21
-67.0713969999999904
0
LINE
8
BLACK
6
CONTINUOUS
10
132.9180790000000059
20
-67.0713969999999904
11
132.8430599999999799
21
-66.8902849999999916
0
LINE
8
BLACK
6
CONTINUOUS
10
132.8430599999999799
20
-66.8902849999999916
11
132.8048149999999907
21
-66.698016999999993
0
LINE
8
BLACK
6
CONTINUOUS
10
132.8048149999999907
20
-66.698016999999993
11
132.8048149999999907
21
-66.5019829999999956
0
LINE
8
BLACK
6
CONTINUOUS
10
132.8048149999999907
20
-66.5019829999999956
11
132.8430599999999799
21
-66.3097149999999971
0
LINE
8
BLACK
6
CONTINUOUS
10
132.8430599999999799
20
-66.3097149999999971
11
132.9180790000000059
21
-66.1286029999999982
0
LINE
8
BLACK
6
CONTINUOUS
10
132.9180790000000059
20
-66.1286029999999982
11
133.0269899999999836
21
-65.9656069999999914
0
LINE
8
BLACK
6
CONTINUOUS
10
133.0269899999999836
20
-65.9656069999999914
11
133.1656069999999943
21
-65.826989999999995
0
LINE
8
BLACK
6
CONTINUOUS
10
133.1656069999999943
20
-65.826989999999995
11
133.3286029999999869
21
-65.718079000000003
0
LINE
8
BLACK
6
CONTINUOUS
10
133.3286029999999869
20
-65.718079000000003
11
133.5097149999999999
21
-65.6430599999999913
0
LINE
8
BLACK
6
CONTINUOUS
10
133.5097149999999999
20
-65.6430599999999913
11
133.7019829999999843
21
-65.6048150000000021
0
LINE
8
BLACK
6
CONTINUOUS
10
133.7019829999999843
20
-65.6048150000000021
11
133.8980169999999816
21
-65.6048150000000021
0
LINE
8
BLACK
6
CONTINUOUS
10
133.8980169999999816
20
-65.6048150000000021
11
134.0902849999999944
21
-65.6430599999999913
0
LINE
8
BLACK
6
CONTINUOUS
10
137.0902849999999944
20
-65.6430599999999913
11
137.2713970000000074
21
-65.718079000000003
0
LINE
8
BLACK
6
CONTINUOUS
10
137.2713970000000074
20
-65.718079000000003
11
137.434393
21
-65.826989999999995
0
LINE
8
BLACK
6
CONTINUOUS
10
137.434393
20
-65.826989999999995
11
137.5730099999999823
21
-65.9656069999999914
0
LINE
8
BLACK
6
CONTINUOUS
10
137.5730099999999823
20
-65.9656069999999914
11
137.6819209999999885
21
-66.1286029999999982
0
LINE
8
BLACK
6
CONTINUOUS
10
137.6819209999999885
20
-66.1286029999999982
11
137.756939999999986
21
-66.3097149999999971
0
LINE
8
BLACK
6
CONTINUOUS
10
137.756939999999986
20
-66.3097149999999971
11
137.7951850000000036
21
-66.5019829999999956
0
LINE
8
BLACK
6
CONTINUOUS
10
137.7951850000000036
20
-66.5019829999999956
11
137.7951850000000036
21
-66.698016999999993
0
LINE
8
BLACK
6
CONTINUOUS
10
137.7951850000000036
20
-66.698016999999993
11
137.756939999999986
21
-66.8902849999999916
0
LINE
8
BLACK
6
CONTINUOUS
10
137.756939999999986
20
-66.8902849999999916
11
137.6819209999999885
21
-67.0713969999999904
0
LINE
8
BLACK
6
CONTINUOUS
10
137.6819209999999885
20
-67.0713969999999904
11
137.5730099999999823
21
-67.2343929999999972
0
LINE
8
BLACK
6
CONTINUOUS
10
137.5730099999999823
20
-67.2343929999999972
11
137.434393
21
-67.3730099999999936
0
LINE
8
BLACK
6
CONTINUOUS
10
137.434393
20
-67.3730099999999936
11
137.2713970000000074
21
-67.4819209999999998
0
LINE
8
BLACK
6
CONTINUOUS
10
137.2713970000000074
20
-67.4819209999999998
11
137.0902849999999944
21
-67.5569399999999973
0
LINE
8
BLACK
6
CONTINUOUS
10
137.0902849999999944
20
-67.5569399999999973
11
136.8980169999999816
21
-67.5951850000000007
0
LINE
8
BLACK
6
CONTINUOUS
10
136.8980169999999816
20
-67.5951850000000007
11
136.7019829999999843
21
-67.5951850000000007
0
LINE
8
BLACK
6
CONTINUOUS
10
136.7019829999999843
20
-67.5951850000000007
11
136.5097149999999999
21
-67.5569399999999973
0
LINE
8
BLACK
6
CONTINUOUS
10
136.5097149999999999
20
-67.5569399999999973
11
136.3286029999999869
21
-67.4819209999999998
0
LINE
8
BLACK
6
CONTINUOUS
10
136.3286029999999869
20
-67.4819209999999998
11
136.1656069999999943
21
-67.3730099999999936
0
LINE
8
BLACK
6
CONTINUOUS
10
136.1656069999999943
20
-67.3730099999999936
11
136.0269899999999836
21
-67.2343929999999972
0
LINE
8
BLACK
6
CONTINUOUS
10
136.0269899999999836
20
-67.2343929999999972
11
135.9180790000000059
21
-67.0713969999999904
0
LINE
8
BLACK
6
CONTINUOUS
10
135.9180790000000059
20
-67.0713969999999904
11
135.8430599999999799
21
-66.8902849999999916
0
LINE
8
BLACK
6
CONTINUOUS
10
135.8430599999999799
20
-66.8902849999999916
11
135.8048149999999907
21
-66.698016999999993
0
LINE
8
BLACK
6
CONTINUOUS
10
135.8048149999999907
20
-66.698016999999993
11
135.8048149999999907
21
-66.5019829999999956
0
LINE
8
BLACK
6
CONTINUOUS
10
135.8048149999999907
20
-66.5019829999999956
11
135.8430599999999799
21
-66.3097149999999971
0
LINE
8
BLACK
6
CONTINUOUS
10
135.8430599999999799
20
-66.3097149999999971
11
135.9180790000000059
21
-66.1286029999999982
0
LINE
8
BLACK
6
CONTINUOUS
10
135.9180790000000059
20
-66.1286029999999982
11
136.0269899999999836
21
-65.9656069999999914
0
LINE
8
BLACK
6
CONTINUOUS
10
136.0269899999999836
20
-65.9656069999999914
11
136.1656069999999943
21
-65.826989999999995
0
LINE
8
BLACK
6
CONTINUOUS
10
136.1656069999999943
20
-65.826989999999995
11
136.3286029999999869
21
-65.718079000000003
0
LINE
8
BLACK
6
CONTINUOUS
10
136.3286029999999869
20
-65.718079000000003
11
136.5097149999999999
21
-65.6430599999999913
0
LINE
8
BLACK
6
CONTINUOUS
10
136.5097149999999999
20
-65.6430599999999913
11
136.7019829999999843
21
-65.6048150000000021
0
LINE
8
BLACK
6
CONTINUOUS
10
136.7019829999999843
20
-65.6048150000000021
11
136.8980169999999816
21
-65.6048150000000021
0
LINE
8
BLACK
6
CONTINUOUS
10
136.8980169999999816
20
-65.6048150000000021
11
137.0902849999999944
21
-65.6430599999999913
0
LINE
8
BLACK
6
CONTINUOUS
10
140.0902849999999944
20
-65.6430599999999913
11
140.2713970000000074
21
-65.718079000000003
0
LINE
8
BLACK
6
CONTINUOUS
10
140.2713970000000074
20
-65.718079000000003
11
140.434393
21
-65.826989999999995
0
LINE
8
BLACK
6
CONTINUOUS
10
140.434393
20
-65.826989999999995
11
140.5730099999999823
21
-65.9656069999999914
0
LINE
8
BLACK
6
CONTINUOUS
10
140.5730099999999823
20
-65.9656069999999914
11
140.6819209999999885
21
-66.1286029999999982
0
LINE
8
BLACK
6
CONTINUOUS
10
140.6819209999999885
20
-66.1286029999999982
11
140.756939999999986
21
-66.3097149999999971
0
LINE
8
BLACK
6
CONTINUOUS
10
140.756939999999986
20
-66.3097149999999971
11
140.7951850000000036
21
-66.5019829999999956
0
LINE
8
BLACK
6
CONTINUOUS
10
140.7951850000000036
20
-66.5019829999999956
11
140.7951850000000036
21
-66.698016999999993
0
LINE
8
BLACK
6
CONTINUOUS
10
140.7951850000000036
20
-66.698016999999993
11
140.756939999999986
21
-66.8902849999999916
0
LINE
8
BLACK
6
CONTINUOUS
10
140.756939999999986
20
-66.8902849999999916
11
140.6819209999999885
21
-67.0713969999999904
0
LINE
8
BLACK
6
CONTINUOUS
10
140.6819209999999885
20
-67.0713969999999904
11
140.5730099999999823
21
-67.2343929999999972
0
LINE
8
BLACK
6
CONTINUOUS
10
140.5730099999999823
20
-67.2343929999999972
11
140.434393
21
-67.3730099999999936
0
LINE
8
BLACK
6
CONTINUOUS
10
140.434393
20
-67.3730099999999936
11
140.2713970000000074
21
-67.4819209999999998
0
LINE
8
BLACK
6
CONTINUOUS
10
140.2713970000000074
20
-67.4819209999999998
11
140.0902849999999944
21
-67.5569399999999973
0
LINE
8
BLACK
6
CONTINUOUS
10
140.0902849999999944
20
-67.5569399999999973
11
139.8980169999999816
21
-67.5951850000000007
0
LINE
8
BLACK
6
CONTINUOUS
10
139.8980169999999816
20
-67.5951850000000007
11
139.7019829999999843
21
-67.5951850000000007
0
LINE
8
BLACK
6
CONTINUOUS
10
139.7019829999999843
20
-67.5951850000000007
11
139.5097149999999999
21
-67.5569399999999973
0
LINE
8
BLACK
6
CONTINUOUS
10
139.5097149999999999
20
-67.5569399999999973
11
139.3286029999999869
21
-67.4819209999999998
0
LINE
8
BLACK
6
CONTINUOUS
10
139.3286029999999869
20
-67.4819209999999998
11
139.1656069999999943
21
-67.3730099999999936
0
LINE
8
BLACK
6
CONTINUOUS
10
139.1656069999999943
20
-67.3730099999999936
11
139.0269899999999836
21
-67.2343929999999972
0
LINE
8
BLACK
6
CONTINUOUS
10
139.0269899999999836
20
-67.2343929999999972
11
138.9180790000000059
21
-67.0713969999999904
0
LINE
8
BLACK
6
CONTINUOUS
10
138.9180790000000059
20
-67.0713969999999904
11
138.8430599999999799
21
-66.8902849999999916
0
LINE
8
BLACK
6
CONTINUOUS
10
138.8430599999999799
20
-66.8902849999999916
11
138.8048149999999907
21
-66.698016999999993
0
LINE
8
BLACK
6
CONTINUOUS
10
138.8048149999999907
20
-66.698016999999993
11
138.8048149999999907
21
-66.5019829999999956
0
LINE
8
BLACK
6
CONTINUOUS
10
138.8048149999999907
20
-66.5019829999999956
11
138.8430599999999799
21
-66.3097149999999971
0
LINE
8
BLACK
6
CONTINUOUS
10
138.8430599999999799
20
-66.3097149999999971
11
138.9180790000000059
21
-66.1286029999999982
0
LINE
8
BLACK
6
CONTINUOUS
10
138.9180790000000059
20
-66.1286029999999982
11
139.0269899999999836
21
-65.9656069999999914
0
LINE
8
BLACK
6
CONTINUOUS
10
139.0269899999999836
20
-65.9656069999999914
11
139.1656069999999943
21
-65.826989999999995
0
LINE
8
BLACK
6
CONTINUOUS
10
139.1656069999999943
20
-65.826989999999995
11
139.3286029999999869
21
-65.718079000000003
0
LINE
8
BLACK
6
CONTINUOUS
10
139.3286029999999869
20
-65.718079000000003
11
139.5097149999999999
21
-65.6430599999999913
0
LINE
8
BLACK
6
CONTINUOUS
10
139.5097149999999999
20
-65.6430599999999913
11
139.7019829999999843
21
-65.6048150000000021
0
LINE
8
BLACK
6
CONTINUOUS
10
139.7019829999999843
20
-65.6048150000000021
11
139.8980169999999816
21
-65.6048150000000021
0
LINE
8
BLACK
6
CONTINUOUS
10
139.8980169999999816
20
-65.6048150000000021
11
140.0902849999999944
21
-65.6430599999999913
0
LINE
8
BLACK
6
CONTINUOUS
10
143.0902849999999944
20
-65.6430599999999913
11
143.2713970000000074
21
-65.718079000000003
0
LINE
8
BLACK
6
CONTINUOUS
10
143.2713970000000074
20
-65.718079000000003
11
143.434393
21
-65.826989999999995
0
LINE
8
BLACK
6
CONTINUOUS
10
143.434393
20
-65.826989999999995
11
143.5730099999999823
21
-65.9656069999999914
0
LINE
8
BLACK
6
CONTINUOUS
10
143.5730099999999823
20
-65.9656069999999914
11
143.6819209999999885
21
-66.1286029999999982
0
LINE
8
BLACK
6
CONTINUOUS
10
143.6819209999999885
20
-66.1286029999999982
11
143.756939999999986
21
-66.3097149999999971
0
LINE
8
BLACK
6
CONTINUOUS
10
143.756939999999986
20
-66.3097149999999971
11
143.7951850000000036
21
-66.5019829999999956
0
LINE
8
BLACK
6
CONTINUOUS
10
143.7951850000000036
20
-66.5019829999999956
11
143.7951850000000036
21
-66.698016999999993
0
LINE
8
BLACK
6
CONTINUOUS
10
143.7951850000000036
20
-66.698016999999993
11
143.756939999999986
21
-66.8902849999999916
0
LINE
8
BLACK
6
CONTINUOUS
10
143.756939999999986
20
-66.8902849999999916
11
143.6819209999999885
21
-67.0713969999999904
0
LINE
8
BLACK
6
CONTINUOUS
10
143.6819209999999885
20
-67.0713969999999904
11
143.5730099999999823
21
-67.2343929999999972
0
LINE
8
BLACK
6
CONTINUOUS
10
143.5730099999999823
20
-67.2343929999999972
11
143.434393
21
-67.3730099999999936
0
LINE
8
BLACK
6
CONTINUOUS
10
143.434393
20
-67.3730099999999936
11
143.2713970000000074
21
-67.4819209999999998
0
LINE
8
BLACK
6
CONTINUOUS
10
143.2713970000000074
20
-67.4819209999999998
11
143.0902849999999944
21
-67.5569399999999973
0
LINE
8
BLACK
6
CONTINUOUS
10
143.0902849999999944
20
-67.5569399999999973
11
142.8980169999999816
21
-67.5951850000000007
0
LINE
8
BLACK
6
CONTINUOUS
10
142.8980169999999816
20
-67.5951850000000007
11
142.7019829999999843
21
-67.5951850000000007
0
LINE
8
BLACK
6
CONTINUOUS
10
142.7019829999999843
20
-67.5951850000000007
11
142.5097149999999999
21
-67.5569399999999973
0
LINE
8
BLACK
6
CONTINUOUS
10
142.5097149999999999
20
-67.5569399999999973
11
142.3286029999999869
21
-67.4819209999999998
0
LINE
8
BLACK
6
CONTINUOUS
10
142.3286029999999869
20
-67.4819209999999998
11
142.1656069999999943
21
-67.3730099999999936
0
LINE
8
BLACK
6
CONTINUOUS
10
142.1656069999999943
20
-67.3730099999999936
11
142.0269899999999836
21
-67.2343929999999972
0
LINE
8
BLACK
6
CONTINUOUS
10
142.0269899999999836
20
-67.2343929999999972
11
141.9180790000000059
21
-67.0713969999999904
0
LINE
8
BLACK
6
CONTINUOUS
10
141.9180790000000059
20
-67.0713969999999904
11
141.8430599999999799
21
-66.8902849999999916
0
LINE
8
BLACK
6
CONTINUOUS
10
141.8430599999999799
20
-66.8902849999999916
11
141.8048149999999907
21
-66.698016999999993
0
LINE
8
BLACK
6
CONTINUOUS
10
141.8048149999999907
20
-66.698016999999993
11
141.8048149999999907
21
-66.5019829999999956
0
LINE
8
BLACK
6
CONTINUOUS
10
141.8048149999999907
20
-66.5019829999999956
11
141.8430599999999799
21
-66.3097149999999971
0
LINE
8
BLACK
6
CONTINUOUS
10
141.8430599999999799
20
-66.3097149999999971
11
141.9180790000000059
21
-66.1286029999999982
0
LINE
8
BLACK
6
CONTINUOUS
10
141.9180790000000059
20
-66.1286029999999982
11
142.0269899999999836
21
-65.9656069999999914
0
LINE
8
BLACK
6
CONTINUOUS
10
142.0269899999999836
20
-65.9656069999999914
11
142.1656069999999943
21
-65.826989999999995
0
LINE
8
BLACK
6
CONTINUOUS
10
142.1656069999999943
20
-65.826989999999995
11
142.3286029999999869
21
-65.718079000000003
0
LINE
8
BLACK
6
CONTINUOUS
10
142.3286029999999869
20
-65.718079000000003
11
142.5097149999999999
21
-65.6430599999999913
0
LINE
8
BLACK
6
CONTINUOUS
10
142.5097149999999999
20
-65.6430599999999913
11
142.7019829999999843
21
-65.6048150000000021
0
LINE
8
BLACK
6
CONTINUOUS
10
142.7019829999999843
20
-65.6048150000000021
11
142.8980169999999816
21
-65.6048150000000021
0
LINE
8
BLACK
6
CONTINUOUS
10
142.8980169999999816
20
-65.6048150000000021
11
143.0902849999999944
21
-65.6430599999999913
0
LINE
8
BLACK
6
CONTINUOUS
10
135.5902849999999944
20
-63.4430599999999956
11
135.7713970000000074
21
-63.5180790000000002
0
LINE
8
BLACK
6
CONTINUOUS
10
135.7713970000000074
20
-63.5180790000000002
11
135.934393
21
-63.6269899999999993
0
LINE
8
BLACK
6
CONTINUOUS
10
135.934393
20
-63.6269899999999993
11
136.0730099999999823
21
-63.7656069999999957
0
LINE
8
BLACK
6
CONTINUOUS
10
136.0730099999999823
20
-63.7656069999999957
11
136.1819209999999885
21
-63.9286029999999954
0
LINE
8
BLACK
6
CONTINUOUS
10
136.1819209999999885
20
-63.9286029999999954
11
136.256939999999986
21
-64.1097149999999942
0
LINE
8
BLACK
6
CONTINUOUS
10
136.256939999999986
20
-64.1097149999999942
11
136.2951850000000036
21
-64.3019829999999928
0
LINE
8
BLACK
6
CONTINUOUS
10
136.2951850000000036
20
-64.3019829999999928
11
136.2951850000000036
21
-64.4980169999999902
0
LINE
8
BLACK
6
CONTINUOUS
10
136.2951850000000036
20
-64.4980169999999902
11
136.256939999999986
21
-64.6902850000000029
0
LINE
8
BLACK
6
CONTINUOUS
10
136.256939999999986
20
-64.6902850000000029
11
136.1819209999999885
21
-64.8713970000000018
0
LINE
8
BLACK
6
CONTINUOUS
10
136.1819209999999885
20
-64.8713970000000018
11
136.0730099999999823
21
-65.0343929999999943
0
LINE
8
BLACK
6
CONTINUOUS
10
136.0730099999999823
20
-65.0343929999999943
11
135.934393
21
-65.1730099999999908
0
LINE
8
BLACK
6
CONTINUOUS
10
135.934393
20
-65.1730099999999908
11
135.7713970000000074
21
-65.281920999999997
0
LINE
8
BLACK
6
CONTINUOUS
10
135.7713970000000074
20
-65.281920999999997
11
135.5902849999999944
21
-65.3569399999999945
0
LINE
8
BLACK
6
CONTINUOUS
10
135.5902849999999944
20
-65.3569399999999945
11
135.3980169999999816
21
-65.3951849999999979
0
LINE
8
BLACK
6
CONTINUOUS
10
135.3980169999999816
20
-65.3951849999999979
11
135.2019829999999843
21
-65.3951849999999979
0
LINE
8
BLACK
6
CONTINUOUS
10
135.2019829999999843
20
-65.3951849999999979
11
135.0097149999999999
21
-65.3569399999999945
0
LINE
8
BLACK
6
CONTINUOUS
10
135.0097149999999999
20
-65.3569399999999945
11
134.8286029999999869
21
-65.281920999999997
0
LINE
8
BLACK
6
CONTINUOUS
10
134.8286029999999869
20
-65.281920999999997
11
134.6656069999999943
21
-65.1730099999999908
0
LINE
8
BLACK
6
CONTINUOUS
10
134.6656069999999943
20
-65.1730099999999908
11
134.5269899999999836
21
-65.0343929999999943
0
LINE
8
BLACK
6
CONTINUOUS
10
134.5269899999999836
20
-65.0343929999999943
11
134.4180790000000059
21
-64.8713970000000018
0
LINE
8
BLACK
6
CONTINUOUS
10
134.4180790000000059
20
-64.8713970000000018
11
134.3430599999999799
21
-64.6902850000000029
0
LINE
8
BLACK
6
CONTINUOUS
10
134.3430599999999799
20
-64.6902850000000029
11
134.3048149999999907
21
-64.4980169999999902
0
LINE
8
BLACK
6
CONTINUOUS
10
134.3048149999999907
20
-64.4980169999999902
11
134.3048149999999907
21
-64.3019829999999928
0
LINE
8
BLACK
6
CONTINUOUS
10
134.3048149999999907
20
-64.3019829999999928
11
134.3430599999999799
21
-64.1097149999999942
0
LINE
8
BLACK
6
CONTINUOUS
10
134.3430599999999799
20
-64.1097149999999942
11
134.4180790000000059
21
-63.9286029999999954
0
LINE
8
BLACK
6
CONTINUOUS
10
134.4180790000000059
20
-63.9286029999999954
11
134.5269899999999836
21
-63.7656069999999957
0
LINE
8
BLACK
6
CONTINUOUS
10
134.5269899999999836
20
-63.7656069999999957
11
134.6656069999999943
21
-63.6269899999999993
0
LINE
8
BLACK
6
CONTINUOUS
10
134.6656069999999943
20
-63.6269899999999993
11
134.8286029999999869
21
-63.5180790000000002
0
LINE
8
BLACK
6
CONTINUOUS
10
134.8286029999999869
20
-63.5180790000000002
11
135.0097149999999999
21
-63.4430599999999956
0
LINE
8
BLACK
6
CONTINUOUS
10
135.0097149999999999
20
-63.4430599999999956
11
135.2019829999999843
21
-63.4048149999999993
0
LINE
8
BLACK
6
CONTINUOUS
10
135.2019829999999843
20
-63.4048149999999993
11
135.3980169999999816
21
-63.4048149999999993
0
LINE
8
BLACK
6
CONTINUOUS
10
135.3980169999999816
20
-63.4048149999999993
11
135.5902849999999944
21
-63.4430599999999956
0
LINE
8
BLACK
6
CONTINUOUS
10
141.4902850000000001
20
-63.4430599999999956
11
141.6713969999999847
21
-63.5180790000000002
0
LINE
8
BLACK
6
CONTINUOUS
10
141.6713969999999847
20
-63.5180790000000002
11
141.8343930000000057
21
-63.6269899999999993
0
LINE
8
BLACK
6
CONTINUOUS
10
141.8343930000000057
20
-63.6269899999999993
11
141.9730099999999879
21
-63.7656069999999957
0
LINE
8
BLACK
6
CONTINUOUS
10
141.9730099999999879
20
-63.7656069999999957
11
142.0819209999999941
21
-63.9286029999999954
0
LINE
8
BLACK
6
CONTINUOUS
10
142.0819209999999941
20
-63.9286029999999954
11
142.1569399999999916
21
-64.1097149999999942
0
LINE
8
BLACK
6
CONTINUOUS
10
142.1569399999999916
20
-64.1097149999999942
11
142.1951849999999808
21
-64.3019829999999928
0
LINE
8
BLACK
6
CONTINUOUS
10
142.1951849999999808
20
-64.3019829999999928
11
142.1951849999999808
21
-64.4980169999999902
0
LINE
8
BLACK
6
CONTINUOUS
10
142.1951849999999808
20
-64.4980169999999902
11
142.1569399999999916
21
-64.6902850000000029
0
LINE
8
BLACK
6
CONTINUOUS
10
142.1569399999999916
20
-64.6902850000000029
11
142.0819209999999941
21
-64.8713970000000018
0
LINE
8
BLACK
6
CONTINUOUS
10
142.0819209999999941
20
-64.8713970000000018
11
141.9730099999999879
21
-65.0343929999999943
0
LINE
8
BLACK
6
CONTINUOUS
10
141.9730099999999879
20
-65.0343929999999943
11
141.8343930000000057
21
-65.1730099999999908
0
LINE
8
BLACK
6
CONTINUOUS
10
141.8343930000000057
20
-65.1730099999999908
11
141.6713969999999847
21
-65.281920999999997
0
LINE
8
BLACK
6
CONTINUOUS
10
141.6713969999999847
20
-65.281920999999997
11
141.4902850000000001
21
-65.3569399999999945
0
LINE
8
BLACK
6
CONTINUOUS
10
141.4902850000000001
20
-65.3569399999999945
11
141.2980169999999873
21
-65.3951849999999979
0
LINE
8
BLACK
6
CONTINUOUS
10
141.2980169999999873
20
-65.3951849999999979
11
141.1019829999999899
21
-65.3951849999999979
0
LINE
8
BLACK
6
CONTINUOUS
10
141.1019829999999899
20
-65.3951849999999979
11
140.9097150000000056
21
-65.3569399999999945
0
LINE
8
BLACK
6
CONTINUOUS
10
140.9097150000000056
20
-65.3569399999999945
11
140.7286029999999926
21
-65.281920999999997
0
LINE
8
BLACK
6
CONTINUOUS
10
140.7286029999999926
20
-65.281920999999997
11
140.565607
21
-65.1730099999999908
0
LINE
8
BLACK
6
CONTINUOUS
10
140.565607
20
-65.1730099999999908
11
140.4269899999999893
21
-65.0343929999999943
0
LINE
8
BLACK
6
CONTINUOUS
10
140.4269899999999893
20
-65.0343929999999943
11
140.3180789999999831
21
-64.8713970000000018
0
LINE
8
BLACK
6
CONTINUOUS
10
140.3180789999999831
20
-64.8713970000000018
11
140.2430599999999856
21
-64.6902850000000029
0
LINE
8
BLACK
6
CONTINUOUS
10
140.2430599999999856
20
-64.6902850000000029
11
140.2048149999999964
21
-64.4980169999999902
0
LINE
8
BLACK
6
CONTINUOUS
10
140.2048149999999964
20
-64.4980169999999902
11
140.2048149999999964
21
-64.3019829999999928
0
LINE
8
BLACK
6
CONTINUOUS
10
140.2048149999999964
20
-64.3019829999999928
11
140.2430599999999856
21
-64.1097149999999942
0
LINE
8
BLACK
6
CONTINUOUS
10
140.2430599999999856
20
-64.1097149999999942
11
140.3180789999999831
21
-63.9286029999999954
0
LINE
8
BLACK
6
CONTINUOUS
10
140.3180789999999831
20
-63.9286029999999954
11
140.4269899999999893
21
-63.7656069999999957
0
LINE
8
BLACK
6
CONTINUOUS
10
140.4269899999999893
20
-63.7656069999999957
11
140.565607
21
-63.6269899999999993
0
LINE
8
BLACK
6
CONTINUOUS
10
140.565607
20
-63.6269899999999993
11
140.7286029999999926
21
-63.5180790000000002
0
LINE
8
BLACK
6
CONTINUOUS
10
140.7286029999999926
20
-63.5180790000000002
11
140.9097150000000056
21
-63.4430599999999956
0
LINE
8
BLACK
6
CONTINUOUS
10
140.9097150000000056
20
-63.4430599999999956
11
141.1019829999999899
21
-63.4048149999999993
0
LINE
8
BLACK
6
CONTINUOUS
10
141.1019829999999899
20
-63.4048149999999993
11
141.2980169999999873
21
-63.4048149999999993
0
LINE
8
BLACK
6
CONTINUOUS
10
141.2980169999999873
20
-63.4048149999999993
11
141.4902850000000001
21
-63.4430599999999956
0
LINE
8
BLACK
6
CONTINUOUS
10
144.4102949999999908
20
-61.7769029999999972
11
144.4238249999999937
21
-61.7904330000000002
0
LINE
8
BLACK
6
CONTINUOUS
10
144.4238249999999937
20
-61.7904330000000002
11
144.4257279999999923
21
-61.7999999999999972
0
LINE
8
BLACK
6
CONTINUOUS
10
144.4257279999999923
20
-61.7999999999999972
11
144.4257279999999923
21
-91.
0
LINE
8
BLACK
6
CONTINUOUS
10
144.4257279999999923
20
-91.
11
144.4238249999999937
21
-91.0095669999999899
0
LINE
8
BLACK
6
CONTINUOUS
10
144.4238249999999937
20
-91.0095669999999899
11
144.4102949999999908
21
-91.0230969999999928
0
LINE
8
BLACK
6
CONTINUOUS
10
144.4102949999999908
20
-91.0230969999999928
11
144.4007279999999867
21
-91.0249999999999915
0
LINE
8
BLACK
6
CONTINUOUS
10
144.4007279999999867
20
-91.0249999999999915
11
131.9067359999999951
21
-91.0249999999999915
0
LINE
8
BLACK
6
CONTINUOUS
10
131.9067359999999951
20
-91.0249999999999915
11
131.897168999999991
21
-91.0230969999999928
0
LINE
8
BLACK
6
CONTINUOUS
10
131.897168999999991
20
-91.0230969999999928
11
131.8836389999999881
21
-91.0095669999999899
0
LINE
8
BLACK
6
CONTINUOUS
10
131.8836389999999881
20
-91.0095669999999899
11
131.8817359999999894
21
-91.
0
LINE
8
BLACK
6
CONTINUOUS
10
131.8817359999999894
20
-91.
11
131.8817359999999894
21
-61.7999999999999972
0
LINE
8
BLACK
6
CONTINUOUS
10
131.8817359999999894
20
-61.7999999999999972
11
131.8836389999999881
21
-61.7904330000000002
0
LINE
8
BLACK
6
CONTINUOUS
10
131.8836389999999881
20
-61.7904330000000002
11
131.897168999999991
21
-61.7769029999999972
0
LINE
8
BLACK
6
CONTINUOUS
10
131.897168999999991
20
-61.7769029999999972
11
131.9067359999999951
21
-61.7749999999999986
0
LINE
8
BLACK
6
CONTINUOUS
10
131.9067359999999951
20
-61.7749999999999986
11
144.4007279999999867
21
-61.7749999999999986
0
LINE
8
BLACK
6
CONTINUOUS
10
144.4007279999999867
20
-61.7749999999999986
11
144.4102949999999908
21
-61.7769029999999972
0
LINE
8
BLACK
6
CONTINUOUS
10
131.9317360000000008
20
-61.8249999999999957
11
131.9317360000000008
21
-90.9749999999999943
0
LINE
8
BLACK
6
CONTINUOUS
10
131.9317360000000008
20
-90.9749999999999943
11
144.375727999999981
21
-90.9749999999999943
0
LINE
8
BLACK
6
CONTINUOUS
10
144.375727999999981
20
-90.9749999999999943
11
144.375727999999981
21
-61.8249999999999957
0
LINE
8
BLACK
6
CONTINUOUS
10
144.375727999999981
20
-61.8249999999999957
11
131.9317360000000008
21
-61.8249999999999957
  0
ENDSEC
  0
EOF
