%TF.GenerationSoftware,KiCad,Pcbnew,9.0.0*%
%TF.CreationDate,2025-05-11T23:31:38-04:00*%
%TF.ProjectId,WandLite,57616e64-4c69-4746-952e-6b696361645f,rev?*%
%TF.SameCoordinates,Original*%
%TF.FileFunction,Legend,Top*%
%TF.FilePolarity,Positive*%
%FSLAX46Y46*%
G04 Gerber Fmt 4.6, Leading zero omitted, Abs format (unit mm)*
G04 Created by KiCad (PCBNEW 9.0.0) date 2025-05-11 23:31:38*
%MOMM*%
%LPD*%
G01*
G04 APERTURE LIST*
%ADD10C,0.150000*%
%ADD11C,0.120000*%
%TA.AperFunction,Profile*%
%ADD12C,0.050000*%
%TD*%
G04 APERTURE END LIST*
D10*
X137254819Y-69886189D02*
X136254819Y-69886189D01*
X136254819Y-69886189D02*
X136254819Y-69505237D01*
X136254819Y-69505237D02*
X136302438Y-69409999D01*
X136302438Y-69409999D02*
X136350057Y-69362380D01*
X136350057Y-69362380D02*
X136445295Y-69314761D01*
X136445295Y-69314761D02*
X136588152Y-69314761D01*
X136588152Y-69314761D02*
X136683390Y-69362380D01*
X136683390Y-69362380D02*
X136731009Y-69409999D01*
X136731009Y-69409999D02*
X136778628Y-69505237D01*
X136778628Y-69505237D02*
X136778628Y-69886189D01*
X136731009Y-68552856D02*
X136778628Y-68409999D01*
X136778628Y-68409999D02*
X136826247Y-68362380D01*
X136826247Y-68362380D02*
X136921485Y-68314761D01*
X136921485Y-68314761D02*
X137064342Y-68314761D01*
X137064342Y-68314761D02*
X137159580Y-68362380D01*
X137159580Y-68362380D02*
X137207200Y-68409999D01*
X137207200Y-68409999D02*
X137254819Y-68505237D01*
X137254819Y-68505237D02*
X137254819Y-68886189D01*
X137254819Y-68886189D02*
X136254819Y-68886189D01*
X136254819Y-68886189D02*
X136254819Y-68552856D01*
X136254819Y-68552856D02*
X136302438Y-68457618D01*
X136302438Y-68457618D02*
X136350057Y-68409999D01*
X136350057Y-68409999D02*
X136445295Y-68362380D01*
X136445295Y-68362380D02*
X136540533Y-68362380D01*
X136540533Y-68362380D02*
X136635771Y-68409999D01*
X136635771Y-68409999D02*
X136683390Y-68457618D01*
X136683390Y-68457618D02*
X136731009Y-68552856D01*
X136731009Y-68552856D02*
X136731009Y-68886189D01*
X136588152Y-67457618D02*
X137254819Y-67457618D01*
X136207200Y-67695713D02*
X136921485Y-67933808D01*
X136921485Y-67933808D02*
X136921485Y-67314761D01*
X136873866Y-66933808D02*
X136873866Y-66171904D01*
X136254819Y-65838570D02*
X136254819Y-65267142D01*
X137254819Y-65552856D02*
X136254819Y-65552856D01*
X137254819Y-64362380D02*
X136778628Y-64695713D01*
X137254819Y-64933808D02*
X136254819Y-64933808D01*
X136254819Y-64933808D02*
X136254819Y-64552856D01*
X136254819Y-64552856D02*
X136302438Y-64457618D01*
X136302438Y-64457618D02*
X136350057Y-64409999D01*
X136350057Y-64409999D02*
X136445295Y-64362380D01*
X136445295Y-64362380D02*
X136588152Y-64362380D01*
X136588152Y-64362380D02*
X136683390Y-64409999D01*
X136683390Y-64409999D02*
X136731009Y-64457618D01*
X136731009Y-64457618D02*
X136778628Y-64552856D01*
X136778628Y-64552856D02*
X136778628Y-64933808D01*
X137254819Y-63933808D02*
X136254819Y-63933808D01*
X136302438Y-62933809D02*
X136254819Y-63029047D01*
X136254819Y-63029047D02*
X136254819Y-63171904D01*
X136254819Y-63171904D02*
X136302438Y-63314761D01*
X136302438Y-63314761D02*
X136397676Y-63409999D01*
X136397676Y-63409999D02*
X136492914Y-63457618D01*
X136492914Y-63457618D02*
X136683390Y-63505237D01*
X136683390Y-63505237D02*
X136826247Y-63505237D01*
X136826247Y-63505237D02*
X137016723Y-63457618D01*
X137016723Y-63457618D02*
X137111961Y-63409999D01*
X137111961Y-63409999D02*
X137207200Y-63314761D01*
X137207200Y-63314761D02*
X137254819Y-63171904D01*
X137254819Y-63171904D02*
X137254819Y-63076666D01*
X137254819Y-63076666D02*
X137207200Y-62933809D01*
X137207200Y-62933809D02*
X137159580Y-62886190D01*
X137159580Y-62886190D02*
X136826247Y-62886190D01*
X136826247Y-62886190D02*
X136826247Y-63076666D01*
X133302438Y-68290952D02*
X133254819Y-68386190D01*
X133254819Y-68386190D02*
X133254819Y-68529047D01*
X133254819Y-68529047D02*
X133302438Y-68671904D01*
X133302438Y-68671904D02*
X133397676Y-68767142D01*
X133397676Y-68767142D02*
X133492914Y-68814761D01*
X133492914Y-68814761D02*
X133683390Y-68862380D01*
X133683390Y-68862380D02*
X133826247Y-68862380D01*
X133826247Y-68862380D02*
X134016723Y-68814761D01*
X134016723Y-68814761D02*
X134111961Y-68767142D01*
X134111961Y-68767142D02*
X134207200Y-68671904D01*
X134207200Y-68671904D02*
X134254819Y-68529047D01*
X134254819Y-68529047D02*
X134254819Y-68433809D01*
X134254819Y-68433809D02*
X134207200Y-68290952D01*
X134207200Y-68290952D02*
X134159580Y-68243333D01*
X134159580Y-68243333D02*
X133826247Y-68243333D01*
X133826247Y-68243333D02*
X133826247Y-68433809D01*
X134254819Y-67814761D02*
X133254819Y-67814761D01*
X133254819Y-67814761D02*
X134254819Y-67243333D01*
X134254819Y-67243333D02*
X133254819Y-67243333D01*
X134254819Y-66767142D02*
X133254819Y-66767142D01*
X133254819Y-66767142D02*
X133254819Y-66529047D01*
X133254819Y-66529047D02*
X133302438Y-66386190D01*
X133302438Y-66386190D02*
X133397676Y-66290952D01*
X133397676Y-66290952D02*
X133492914Y-66243333D01*
X133492914Y-66243333D02*
X133683390Y-66195714D01*
X133683390Y-66195714D02*
X133826247Y-66195714D01*
X133826247Y-66195714D02*
X134016723Y-66243333D01*
X134016723Y-66243333D02*
X134111961Y-66290952D01*
X134111961Y-66290952D02*
X134207200Y-66386190D01*
X134207200Y-66386190D02*
X134254819Y-66529047D01*
X134254819Y-66529047D02*
X134254819Y-66767142D01*
X133873866Y-65767142D02*
X133873866Y-65005238D01*
X134159580Y-63957619D02*
X134207200Y-64005238D01*
X134207200Y-64005238D02*
X134254819Y-64148095D01*
X134254819Y-64148095D02*
X134254819Y-64243333D01*
X134254819Y-64243333D02*
X134207200Y-64386190D01*
X134207200Y-64386190D02*
X134111961Y-64481428D01*
X134111961Y-64481428D02*
X134016723Y-64529047D01*
X134016723Y-64529047D02*
X133826247Y-64576666D01*
X133826247Y-64576666D02*
X133683390Y-64576666D01*
X133683390Y-64576666D02*
X133492914Y-64529047D01*
X133492914Y-64529047D02*
X133397676Y-64481428D01*
X133397676Y-64481428D02*
X133302438Y-64386190D01*
X133302438Y-64386190D02*
X133254819Y-64243333D01*
X133254819Y-64243333D02*
X133254819Y-64148095D01*
X133254819Y-64148095D02*
X133302438Y-64005238D01*
X133302438Y-64005238D02*
X133350057Y-63957619D01*
X134702438Y-64829047D02*
X134654819Y-64924285D01*
X134654819Y-64924285D02*
X134654819Y-65067142D01*
X134654819Y-65067142D02*
X134702438Y-65209999D01*
X134702438Y-65209999D02*
X134797676Y-65305237D01*
X134797676Y-65305237D02*
X134892914Y-65352856D01*
X134892914Y-65352856D02*
X135083390Y-65400475D01*
X135083390Y-65400475D02*
X135226247Y-65400475D01*
X135226247Y-65400475D02*
X135416723Y-65352856D01*
X135416723Y-65352856D02*
X135511961Y-65305237D01*
X135511961Y-65305237D02*
X135607200Y-65209999D01*
X135607200Y-65209999D02*
X135654819Y-65067142D01*
X135654819Y-65067142D02*
X135654819Y-64971904D01*
X135654819Y-64971904D02*
X135607200Y-64829047D01*
X135607200Y-64829047D02*
X135559580Y-64781428D01*
X135559580Y-64781428D02*
X135226247Y-64781428D01*
X135226247Y-64781428D02*
X135226247Y-64971904D01*
X135654819Y-64352856D02*
X134654819Y-64352856D01*
X134654819Y-64352856D02*
X135654819Y-63781428D01*
X135654819Y-63781428D02*
X134654819Y-63781428D01*
X135654819Y-63305237D02*
X134654819Y-63305237D01*
X134654819Y-63305237D02*
X134654819Y-63067142D01*
X134654819Y-63067142D02*
X134702438Y-62924285D01*
X134702438Y-62924285D02*
X134797676Y-62829047D01*
X134797676Y-62829047D02*
X134892914Y-62781428D01*
X134892914Y-62781428D02*
X135083390Y-62733809D01*
X135083390Y-62733809D02*
X135226247Y-62733809D01*
X135226247Y-62733809D02*
X135416723Y-62781428D01*
X135416723Y-62781428D02*
X135511961Y-62829047D01*
X135511961Y-62829047D02*
X135607200Y-62924285D01*
X135607200Y-62924285D02*
X135654819Y-63067142D01*
X135654819Y-63067142D02*
X135654819Y-63305237D01*
X135273866Y-62305237D02*
X135273866Y-61543333D01*
X135654819Y-61067142D02*
X134654819Y-61067142D01*
X142254819Y-92066189D02*
X143254819Y-91732856D01*
X143254819Y-91732856D02*
X142254819Y-91399523D01*
X143159580Y-90494761D02*
X143207200Y-90542380D01*
X143207200Y-90542380D02*
X143254819Y-90685237D01*
X143254819Y-90685237D02*
X143254819Y-90780475D01*
X143254819Y-90780475D02*
X143207200Y-90923332D01*
X143207200Y-90923332D02*
X143111961Y-91018570D01*
X143111961Y-91018570D02*
X143016723Y-91066189D01*
X143016723Y-91066189D02*
X142826247Y-91113808D01*
X142826247Y-91113808D02*
X142683390Y-91113808D01*
X142683390Y-91113808D02*
X142492914Y-91066189D01*
X142492914Y-91066189D02*
X142397676Y-91018570D01*
X142397676Y-91018570D02*
X142302438Y-90923332D01*
X142302438Y-90923332D02*
X142254819Y-90780475D01*
X142254819Y-90780475D02*
X142254819Y-90685237D01*
X142254819Y-90685237D02*
X142302438Y-90542380D01*
X142302438Y-90542380D02*
X142350057Y-90494761D01*
X143159580Y-89494761D02*
X143207200Y-89542380D01*
X143207200Y-89542380D02*
X143254819Y-89685237D01*
X143254819Y-89685237D02*
X143254819Y-89780475D01*
X143254819Y-89780475D02*
X143207200Y-89923332D01*
X143207200Y-89923332D02*
X143111961Y-90018570D01*
X143111961Y-90018570D02*
X143016723Y-90066189D01*
X143016723Y-90066189D02*
X142826247Y-90113808D01*
X142826247Y-90113808D02*
X142683390Y-90113808D01*
X142683390Y-90113808D02*
X142492914Y-90066189D01*
X142492914Y-90066189D02*
X142397676Y-90018570D01*
X142397676Y-90018570D02*
X142302438Y-89923332D01*
X142302438Y-89923332D02*
X142254819Y-89780475D01*
X142254819Y-89780475D02*
X142254819Y-89685237D01*
X142254819Y-89685237D02*
X142302438Y-89542380D01*
X142302438Y-89542380D02*
X142350057Y-89494761D01*
X142873866Y-89066189D02*
X142873866Y-88304285D01*
X142254819Y-87637618D02*
X142254819Y-87447142D01*
X142254819Y-87447142D02*
X142302438Y-87351904D01*
X142302438Y-87351904D02*
X142397676Y-87256666D01*
X142397676Y-87256666D02*
X142588152Y-87209047D01*
X142588152Y-87209047D02*
X142921485Y-87209047D01*
X142921485Y-87209047D02*
X143111961Y-87256666D01*
X143111961Y-87256666D02*
X143207200Y-87351904D01*
X143207200Y-87351904D02*
X143254819Y-87447142D01*
X143254819Y-87447142D02*
X143254819Y-87637618D01*
X143254819Y-87637618D02*
X143207200Y-87732856D01*
X143207200Y-87732856D02*
X143111961Y-87828094D01*
X143111961Y-87828094D02*
X142921485Y-87875713D01*
X142921485Y-87875713D02*
X142588152Y-87875713D01*
X142588152Y-87875713D02*
X142397676Y-87828094D01*
X142397676Y-87828094D02*
X142302438Y-87732856D01*
X142302438Y-87732856D02*
X142254819Y-87637618D01*
X140254819Y-91970951D02*
X139254819Y-91970951D01*
X139254819Y-91970951D02*
X139254819Y-91589999D01*
X139254819Y-91589999D02*
X139302438Y-91494761D01*
X139302438Y-91494761D02*
X139350057Y-91447142D01*
X139350057Y-91447142D02*
X139445295Y-91399523D01*
X139445295Y-91399523D02*
X139588152Y-91399523D01*
X139588152Y-91399523D02*
X139683390Y-91447142D01*
X139683390Y-91447142D02*
X139731009Y-91494761D01*
X139731009Y-91494761D02*
X139778628Y-91589999D01*
X139778628Y-91589999D02*
X139778628Y-91970951D01*
X139731009Y-90637618D02*
X139778628Y-90494761D01*
X139778628Y-90494761D02*
X139826247Y-90447142D01*
X139826247Y-90447142D02*
X139921485Y-90399523D01*
X139921485Y-90399523D02*
X140064342Y-90399523D01*
X140064342Y-90399523D02*
X140159580Y-90447142D01*
X140159580Y-90447142D02*
X140207200Y-90494761D01*
X140207200Y-90494761D02*
X140254819Y-90589999D01*
X140254819Y-90589999D02*
X140254819Y-90970951D01*
X140254819Y-90970951D02*
X139254819Y-90970951D01*
X139254819Y-90970951D02*
X139254819Y-90637618D01*
X139254819Y-90637618D02*
X139302438Y-90542380D01*
X139302438Y-90542380D02*
X139350057Y-90494761D01*
X139350057Y-90494761D02*
X139445295Y-90447142D01*
X139445295Y-90447142D02*
X139540533Y-90447142D01*
X139540533Y-90447142D02*
X139635771Y-90494761D01*
X139635771Y-90494761D02*
X139683390Y-90542380D01*
X139683390Y-90542380D02*
X139731009Y-90637618D01*
X139731009Y-90637618D02*
X139731009Y-90970951D01*
X140254819Y-89447142D02*
X140254819Y-90018570D01*
X140254819Y-89732856D02*
X139254819Y-89732856D01*
X139254819Y-89732856D02*
X139397676Y-89828094D01*
X139397676Y-89828094D02*
X139492914Y-89923332D01*
X139492914Y-89923332D02*
X139540533Y-90018570D01*
X139873866Y-89018570D02*
X139873866Y-88256666D01*
X139254819Y-87589999D02*
X139254819Y-87399523D01*
X139254819Y-87399523D02*
X139302438Y-87304285D01*
X139302438Y-87304285D02*
X139397676Y-87209047D01*
X139397676Y-87209047D02*
X139588152Y-87161428D01*
X139588152Y-87161428D02*
X139921485Y-87161428D01*
X139921485Y-87161428D02*
X140111961Y-87209047D01*
X140111961Y-87209047D02*
X140207200Y-87304285D01*
X140207200Y-87304285D02*
X140254819Y-87399523D01*
X140254819Y-87399523D02*
X140254819Y-87589999D01*
X140254819Y-87589999D02*
X140207200Y-87685237D01*
X140207200Y-87685237D02*
X140111961Y-87780475D01*
X140111961Y-87780475D02*
X139921485Y-87828094D01*
X139921485Y-87828094D02*
X139588152Y-87828094D01*
X139588152Y-87828094D02*
X139397676Y-87780475D01*
X139397676Y-87780475D02*
X139302438Y-87685237D01*
X139302438Y-87685237D02*
X139254819Y-87589999D01*
X137254819Y-91970951D02*
X136254819Y-91970951D01*
X136254819Y-91970951D02*
X136254819Y-91589999D01*
X136254819Y-91589999D02*
X136302438Y-91494761D01*
X136302438Y-91494761D02*
X136350057Y-91447142D01*
X136350057Y-91447142D02*
X136445295Y-91399523D01*
X136445295Y-91399523D02*
X136588152Y-91399523D01*
X136588152Y-91399523D02*
X136683390Y-91447142D01*
X136683390Y-91447142D02*
X136731009Y-91494761D01*
X136731009Y-91494761D02*
X136778628Y-91589999D01*
X136778628Y-91589999D02*
X136778628Y-91970951D01*
X136731009Y-90637618D02*
X136778628Y-90494761D01*
X136778628Y-90494761D02*
X136826247Y-90447142D01*
X136826247Y-90447142D02*
X136921485Y-90399523D01*
X136921485Y-90399523D02*
X137064342Y-90399523D01*
X137064342Y-90399523D02*
X137159580Y-90447142D01*
X137159580Y-90447142D02*
X137207200Y-90494761D01*
X137207200Y-90494761D02*
X137254819Y-90589999D01*
X137254819Y-90589999D02*
X137254819Y-90970951D01*
X137254819Y-90970951D02*
X136254819Y-90970951D01*
X136254819Y-90970951D02*
X136254819Y-90637618D01*
X136254819Y-90637618D02*
X136302438Y-90542380D01*
X136302438Y-90542380D02*
X136350057Y-90494761D01*
X136350057Y-90494761D02*
X136445295Y-90447142D01*
X136445295Y-90447142D02*
X136540533Y-90447142D01*
X136540533Y-90447142D02*
X136635771Y-90494761D01*
X136635771Y-90494761D02*
X136683390Y-90542380D01*
X136683390Y-90542380D02*
X136731009Y-90637618D01*
X136731009Y-90637618D02*
X136731009Y-90970951D01*
X136254819Y-89780475D02*
X136254819Y-89685237D01*
X136254819Y-89685237D02*
X136302438Y-89589999D01*
X136302438Y-89589999D02*
X136350057Y-89542380D01*
X136350057Y-89542380D02*
X136445295Y-89494761D01*
X136445295Y-89494761D02*
X136635771Y-89447142D01*
X136635771Y-89447142D02*
X136873866Y-89447142D01*
X136873866Y-89447142D02*
X137064342Y-89494761D01*
X137064342Y-89494761D02*
X137159580Y-89542380D01*
X137159580Y-89542380D02*
X137207200Y-89589999D01*
X137207200Y-89589999D02*
X137254819Y-89685237D01*
X137254819Y-89685237D02*
X137254819Y-89780475D01*
X137254819Y-89780475D02*
X137207200Y-89875713D01*
X137207200Y-89875713D02*
X137159580Y-89923332D01*
X137159580Y-89923332D02*
X137064342Y-89970951D01*
X137064342Y-89970951D02*
X136873866Y-90018570D01*
X136873866Y-90018570D02*
X136635771Y-90018570D01*
X136635771Y-90018570D02*
X136445295Y-89970951D01*
X136445295Y-89970951D02*
X136350057Y-89923332D01*
X136350057Y-89923332D02*
X136302438Y-89875713D01*
X136302438Y-89875713D02*
X136254819Y-89780475D01*
X136873866Y-89018570D02*
X136873866Y-88256666D01*
X136254819Y-87589999D02*
X136254819Y-87399523D01*
X136254819Y-87399523D02*
X136302438Y-87304285D01*
X136302438Y-87304285D02*
X136397676Y-87209047D01*
X136397676Y-87209047D02*
X136588152Y-87161428D01*
X136588152Y-87161428D02*
X136921485Y-87161428D01*
X136921485Y-87161428D02*
X137111961Y-87209047D01*
X137111961Y-87209047D02*
X137207200Y-87304285D01*
X137207200Y-87304285D02*
X137254819Y-87399523D01*
X137254819Y-87399523D02*
X137254819Y-87589999D01*
X137254819Y-87589999D02*
X137207200Y-87685237D01*
X137207200Y-87685237D02*
X137111961Y-87780475D01*
X137111961Y-87780475D02*
X136921485Y-87828094D01*
X136921485Y-87828094D02*
X136588152Y-87828094D01*
X136588152Y-87828094D02*
X136397676Y-87780475D01*
X136397676Y-87780475D02*
X136302438Y-87685237D01*
X136302438Y-87685237D02*
X136254819Y-87589999D01*
X133302438Y-91494761D02*
X133254819Y-91589999D01*
X133254819Y-91589999D02*
X133254819Y-91732856D01*
X133254819Y-91732856D02*
X133302438Y-91875713D01*
X133302438Y-91875713D02*
X133397676Y-91970951D01*
X133397676Y-91970951D02*
X133492914Y-92018570D01*
X133492914Y-92018570D02*
X133683390Y-92066189D01*
X133683390Y-92066189D02*
X133826247Y-92066189D01*
X133826247Y-92066189D02*
X134016723Y-92018570D01*
X134016723Y-92018570D02*
X134111961Y-91970951D01*
X134111961Y-91970951D02*
X134207200Y-91875713D01*
X134207200Y-91875713D02*
X134254819Y-91732856D01*
X134254819Y-91732856D02*
X134254819Y-91637618D01*
X134254819Y-91637618D02*
X134207200Y-91494761D01*
X134207200Y-91494761D02*
X134159580Y-91447142D01*
X134159580Y-91447142D02*
X133826247Y-91447142D01*
X133826247Y-91447142D02*
X133826247Y-91637618D01*
X134254819Y-91018570D02*
X133254819Y-91018570D01*
X133254819Y-91018570D02*
X134254819Y-90447142D01*
X134254819Y-90447142D02*
X133254819Y-90447142D01*
X134254819Y-89970951D02*
X133254819Y-89970951D01*
X133254819Y-89970951D02*
X133254819Y-89732856D01*
X133254819Y-89732856D02*
X133302438Y-89589999D01*
X133302438Y-89589999D02*
X133397676Y-89494761D01*
X133397676Y-89494761D02*
X133492914Y-89447142D01*
X133492914Y-89447142D02*
X133683390Y-89399523D01*
X133683390Y-89399523D02*
X133826247Y-89399523D01*
X133826247Y-89399523D02*
X134016723Y-89447142D01*
X134016723Y-89447142D02*
X134111961Y-89494761D01*
X134111961Y-89494761D02*
X134207200Y-89589999D01*
X134207200Y-89589999D02*
X134254819Y-89732856D01*
X134254819Y-89732856D02*
X134254819Y-89970951D01*
X133873866Y-88970951D02*
X133873866Y-88209047D01*
X133254819Y-87542380D02*
X133254819Y-87351904D01*
X133254819Y-87351904D02*
X133302438Y-87256666D01*
X133302438Y-87256666D02*
X133397676Y-87161428D01*
X133397676Y-87161428D02*
X133588152Y-87113809D01*
X133588152Y-87113809D02*
X133921485Y-87113809D01*
X133921485Y-87113809D02*
X134111961Y-87161428D01*
X134111961Y-87161428D02*
X134207200Y-87256666D01*
X134207200Y-87256666D02*
X134254819Y-87351904D01*
X134254819Y-87351904D02*
X134254819Y-87542380D01*
X134254819Y-87542380D02*
X134207200Y-87637618D01*
X134207200Y-87637618D02*
X134111961Y-87732856D01*
X134111961Y-87732856D02*
X133921485Y-87780475D01*
X133921485Y-87780475D02*
X133588152Y-87780475D01*
X133588152Y-87780475D02*
X133397676Y-87732856D01*
X133397676Y-87732856D02*
X133302438Y-87637618D01*
X133302438Y-87637618D02*
X133254819Y-87542380D01*
X140654819Y-65400475D02*
X141654819Y-65067142D01*
X141654819Y-65067142D02*
X140654819Y-64733809D01*
X141559580Y-63829047D02*
X141607200Y-63876666D01*
X141607200Y-63876666D02*
X141654819Y-64019523D01*
X141654819Y-64019523D02*
X141654819Y-64114761D01*
X141654819Y-64114761D02*
X141607200Y-64257618D01*
X141607200Y-64257618D02*
X141511961Y-64352856D01*
X141511961Y-64352856D02*
X141416723Y-64400475D01*
X141416723Y-64400475D02*
X141226247Y-64448094D01*
X141226247Y-64448094D02*
X141083390Y-64448094D01*
X141083390Y-64448094D02*
X140892914Y-64400475D01*
X140892914Y-64400475D02*
X140797676Y-64352856D01*
X140797676Y-64352856D02*
X140702438Y-64257618D01*
X140702438Y-64257618D02*
X140654819Y-64114761D01*
X140654819Y-64114761D02*
X140654819Y-64019523D01*
X140654819Y-64019523D02*
X140702438Y-63876666D01*
X140702438Y-63876666D02*
X140750057Y-63829047D01*
X141559580Y-62829047D02*
X141607200Y-62876666D01*
X141607200Y-62876666D02*
X141654819Y-63019523D01*
X141654819Y-63019523D02*
X141654819Y-63114761D01*
X141654819Y-63114761D02*
X141607200Y-63257618D01*
X141607200Y-63257618D02*
X141511961Y-63352856D01*
X141511961Y-63352856D02*
X141416723Y-63400475D01*
X141416723Y-63400475D02*
X141226247Y-63448094D01*
X141226247Y-63448094D02*
X141083390Y-63448094D01*
X141083390Y-63448094D02*
X140892914Y-63400475D01*
X140892914Y-63400475D02*
X140797676Y-63352856D01*
X140797676Y-63352856D02*
X140702438Y-63257618D01*
X140702438Y-63257618D02*
X140654819Y-63114761D01*
X140654819Y-63114761D02*
X140654819Y-63019523D01*
X140654819Y-63019523D02*
X140702438Y-62876666D01*
X140702438Y-62876666D02*
X140750057Y-62829047D01*
X141273866Y-62400475D02*
X141273866Y-61638571D01*
X141654819Y-61162380D02*
X140654819Y-61162380D01*
X134661428Y-78169104D02*
X135137618Y-78169104D01*
X134566190Y-78454819D02*
X134899523Y-77454819D01*
X134899523Y-77454819D02*
X135232856Y-78454819D01*
X135423333Y-77454819D02*
X135994761Y-77454819D01*
X135709047Y-78454819D02*
X135709047Y-77454819D01*
X136185238Y-77788152D02*
X136566190Y-77788152D01*
X136328095Y-77454819D02*
X136328095Y-78311961D01*
X136328095Y-78311961D02*
X136375714Y-78407200D01*
X136375714Y-78407200D02*
X136470952Y-78454819D01*
X136470952Y-78454819D02*
X136566190Y-78454819D01*
X136899524Y-78454819D02*
X136899524Y-77788152D01*
X136899524Y-77454819D02*
X136851905Y-77502438D01*
X136851905Y-77502438D02*
X136899524Y-77550057D01*
X136899524Y-77550057D02*
X136947143Y-77502438D01*
X136947143Y-77502438D02*
X136899524Y-77454819D01*
X136899524Y-77454819D02*
X136899524Y-77550057D01*
X137375714Y-77788152D02*
X137375714Y-78454819D01*
X137375714Y-77883390D02*
X137423333Y-77835771D01*
X137423333Y-77835771D02*
X137518571Y-77788152D01*
X137518571Y-77788152D02*
X137661428Y-77788152D01*
X137661428Y-77788152D02*
X137756666Y-77835771D01*
X137756666Y-77835771D02*
X137804285Y-77931009D01*
X137804285Y-77931009D02*
X137804285Y-78454819D01*
X138185238Y-77788152D02*
X138423333Y-78454819D01*
X138661428Y-77788152D02*
X138423333Y-78454819D01*
X138423333Y-78454819D02*
X138328095Y-78692914D01*
X138328095Y-78692914D02*
X138280476Y-78740533D01*
X138280476Y-78740533D02*
X138185238Y-78788152D01*
X139185238Y-77883390D02*
X139090000Y-77835771D01*
X139090000Y-77835771D02*
X139042381Y-77788152D01*
X139042381Y-77788152D02*
X138994762Y-77692914D01*
X138994762Y-77692914D02*
X138994762Y-77645295D01*
X138994762Y-77645295D02*
X139042381Y-77550057D01*
X139042381Y-77550057D02*
X139090000Y-77502438D01*
X139090000Y-77502438D02*
X139185238Y-77454819D01*
X139185238Y-77454819D02*
X139375714Y-77454819D01*
X139375714Y-77454819D02*
X139470952Y-77502438D01*
X139470952Y-77502438D02*
X139518571Y-77550057D01*
X139518571Y-77550057D02*
X139566190Y-77645295D01*
X139566190Y-77645295D02*
X139566190Y-77692914D01*
X139566190Y-77692914D02*
X139518571Y-77788152D01*
X139518571Y-77788152D02*
X139470952Y-77835771D01*
X139470952Y-77835771D02*
X139375714Y-77883390D01*
X139375714Y-77883390D02*
X139185238Y-77883390D01*
X139185238Y-77883390D02*
X139090000Y-77931009D01*
X139090000Y-77931009D02*
X139042381Y-77978628D01*
X139042381Y-77978628D02*
X138994762Y-78073866D01*
X138994762Y-78073866D02*
X138994762Y-78264342D01*
X138994762Y-78264342D02*
X139042381Y-78359580D01*
X139042381Y-78359580D02*
X139090000Y-78407200D01*
X139090000Y-78407200D02*
X139185238Y-78454819D01*
X139185238Y-78454819D02*
X139375714Y-78454819D01*
X139375714Y-78454819D02*
X139470952Y-78407200D01*
X139470952Y-78407200D02*
X139518571Y-78359580D01*
X139518571Y-78359580D02*
X139566190Y-78264342D01*
X139566190Y-78264342D02*
X139566190Y-78073866D01*
X139566190Y-78073866D02*
X139518571Y-77978628D01*
X139518571Y-77978628D02*
X139470952Y-77931009D01*
X139470952Y-77931009D02*
X139375714Y-77883390D01*
X140470952Y-77454819D02*
X139994762Y-77454819D01*
X139994762Y-77454819D02*
X139947143Y-77931009D01*
X139947143Y-77931009D02*
X139994762Y-77883390D01*
X139994762Y-77883390D02*
X140090000Y-77835771D01*
X140090000Y-77835771D02*
X140328095Y-77835771D01*
X140328095Y-77835771D02*
X140423333Y-77883390D01*
X140423333Y-77883390D02*
X140470952Y-77931009D01*
X140470952Y-77931009D02*
X140518571Y-78026247D01*
X140518571Y-78026247D02*
X140518571Y-78264342D01*
X140518571Y-78264342D02*
X140470952Y-78359580D01*
X140470952Y-78359580D02*
X140423333Y-78407200D01*
X140423333Y-78407200D02*
X140328095Y-78454819D01*
X140328095Y-78454819D02*
X140090000Y-78454819D01*
X140090000Y-78454819D02*
X139994762Y-78407200D01*
X139994762Y-78407200D02*
X139947143Y-78359580D01*
X140254819Y-70362380D02*
X139254819Y-70362380D01*
X139254819Y-70362380D02*
X139254819Y-69981428D01*
X139254819Y-69981428D02*
X139302438Y-69886190D01*
X139302438Y-69886190D02*
X139350057Y-69838571D01*
X139350057Y-69838571D02*
X139445295Y-69790952D01*
X139445295Y-69790952D02*
X139588152Y-69790952D01*
X139588152Y-69790952D02*
X139683390Y-69838571D01*
X139683390Y-69838571D02*
X139731009Y-69886190D01*
X139731009Y-69886190D02*
X139778628Y-69981428D01*
X139778628Y-69981428D02*
X139778628Y-70362380D01*
X139731009Y-69029047D02*
X139778628Y-68886190D01*
X139778628Y-68886190D02*
X139826247Y-68838571D01*
X139826247Y-68838571D02*
X139921485Y-68790952D01*
X139921485Y-68790952D02*
X140064342Y-68790952D01*
X140064342Y-68790952D02*
X140159580Y-68838571D01*
X140159580Y-68838571D02*
X140207200Y-68886190D01*
X140207200Y-68886190D02*
X140254819Y-68981428D01*
X140254819Y-68981428D02*
X140254819Y-69362380D01*
X140254819Y-69362380D02*
X139254819Y-69362380D01*
X139254819Y-69362380D02*
X139254819Y-69029047D01*
X139254819Y-69029047D02*
X139302438Y-68933809D01*
X139302438Y-68933809D02*
X139350057Y-68886190D01*
X139350057Y-68886190D02*
X139445295Y-68838571D01*
X139445295Y-68838571D02*
X139540533Y-68838571D01*
X139540533Y-68838571D02*
X139635771Y-68886190D01*
X139635771Y-68886190D02*
X139683390Y-68933809D01*
X139683390Y-68933809D02*
X139731009Y-69029047D01*
X139731009Y-69029047D02*
X139731009Y-69362380D01*
X139254819Y-68457618D02*
X139254819Y-67838571D01*
X139254819Y-67838571D02*
X139635771Y-68171904D01*
X139635771Y-68171904D02*
X139635771Y-68029047D01*
X139635771Y-68029047D02*
X139683390Y-67933809D01*
X139683390Y-67933809D02*
X139731009Y-67886190D01*
X139731009Y-67886190D02*
X139826247Y-67838571D01*
X139826247Y-67838571D02*
X140064342Y-67838571D01*
X140064342Y-67838571D02*
X140159580Y-67886190D01*
X140159580Y-67886190D02*
X140207200Y-67933809D01*
X140207200Y-67933809D02*
X140254819Y-68029047D01*
X140254819Y-68029047D02*
X140254819Y-68314761D01*
X140254819Y-68314761D02*
X140207200Y-68409999D01*
X140207200Y-68409999D02*
X140159580Y-68457618D01*
X139873866Y-67409999D02*
X139873866Y-66648095D01*
X140254819Y-66171904D02*
X139254819Y-66171904D01*
X139254819Y-66171904D02*
X139969104Y-65838571D01*
X139969104Y-65838571D02*
X139254819Y-65505238D01*
X139254819Y-65505238D02*
X140254819Y-65505238D01*
X140254819Y-65029047D02*
X139254819Y-65029047D01*
X139254819Y-65029047D02*
X139254819Y-64790952D01*
X139254819Y-64790952D02*
X139302438Y-64648095D01*
X139302438Y-64648095D02*
X139397676Y-64552857D01*
X139397676Y-64552857D02*
X139492914Y-64505238D01*
X139492914Y-64505238D02*
X139683390Y-64457619D01*
X139683390Y-64457619D02*
X139826247Y-64457619D01*
X139826247Y-64457619D02*
X140016723Y-64505238D01*
X140016723Y-64505238D02*
X140111961Y-64552857D01*
X140111961Y-64552857D02*
X140207200Y-64648095D01*
X140207200Y-64648095D02*
X140254819Y-64790952D01*
X140254819Y-64790952D02*
X140254819Y-65029047D01*
X139254819Y-64029047D02*
X140064342Y-64029047D01*
X140064342Y-64029047D02*
X140159580Y-63981428D01*
X140159580Y-63981428D02*
X140207200Y-63933809D01*
X140207200Y-63933809D02*
X140254819Y-63838571D01*
X140254819Y-63838571D02*
X140254819Y-63648095D01*
X140254819Y-63648095D02*
X140207200Y-63552857D01*
X140207200Y-63552857D02*
X140159580Y-63505238D01*
X140159580Y-63505238D02*
X140064342Y-63457619D01*
X140064342Y-63457619D02*
X139254819Y-63457619D01*
X140254819Y-62981428D02*
X139254819Y-62981428D01*
X139254819Y-62981428D02*
X139254819Y-62600476D01*
X139254819Y-62600476D02*
X139302438Y-62505238D01*
X139302438Y-62505238D02*
X139350057Y-62457619D01*
X139350057Y-62457619D02*
X139445295Y-62410000D01*
X139445295Y-62410000D02*
X139588152Y-62410000D01*
X139588152Y-62410000D02*
X139683390Y-62457619D01*
X139683390Y-62457619D02*
X139731009Y-62505238D01*
X139731009Y-62505238D02*
X139778628Y-62600476D01*
X139778628Y-62600476D02*
X139778628Y-62981428D01*
X143254819Y-70352380D02*
X142254819Y-70352380D01*
X142254819Y-70352380D02*
X142254819Y-69971428D01*
X142254819Y-69971428D02*
X142302438Y-69876190D01*
X142302438Y-69876190D02*
X142350057Y-69828571D01*
X142350057Y-69828571D02*
X142445295Y-69780952D01*
X142445295Y-69780952D02*
X142588152Y-69780952D01*
X142588152Y-69780952D02*
X142683390Y-69828571D01*
X142683390Y-69828571D02*
X142731009Y-69876190D01*
X142731009Y-69876190D02*
X142778628Y-69971428D01*
X142778628Y-69971428D02*
X142778628Y-70352380D01*
X142731009Y-69019047D02*
X142778628Y-68876190D01*
X142778628Y-68876190D02*
X142826247Y-68828571D01*
X142826247Y-68828571D02*
X142921485Y-68780952D01*
X142921485Y-68780952D02*
X143064342Y-68780952D01*
X143064342Y-68780952D02*
X143159580Y-68828571D01*
X143159580Y-68828571D02*
X143207200Y-68876190D01*
X143207200Y-68876190D02*
X143254819Y-68971428D01*
X143254819Y-68971428D02*
X143254819Y-69352380D01*
X143254819Y-69352380D02*
X142254819Y-69352380D01*
X142254819Y-69352380D02*
X142254819Y-69019047D01*
X142254819Y-69019047D02*
X142302438Y-68923809D01*
X142302438Y-68923809D02*
X142350057Y-68876190D01*
X142350057Y-68876190D02*
X142445295Y-68828571D01*
X142445295Y-68828571D02*
X142540533Y-68828571D01*
X142540533Y-68828571D02*
X142635771Y-68876190D01*
X142635771Y-68876190D02*
X142683390Y-68923809D01*
X142683390Y-68923809D02*
X142731009Y-69019047D01*
X142731009Y-69019047D02*
X142731009Y-69352380D01*
X142350057Y-68399999D02*
X142302438Y-68352380D01*
X142302438Y-68352380D02*
X142254819Y-68257142D01*
X142254819Y-68257142D02*
X142254819Y-68019047D01*
X142254819Y-68019047D02*
X142302438Y-67923809D01*
X142302438Y-67923809D02*
X142350057Y-67876190D01*
X142350057Y-67876190D02*
X142445295Y-67828571D01*
X142445295Y-67828571D02*
X142540533Y-67828571D01*
X142540533Y-67828571D02*
X142683390Y-67876190D01*
X142683390Y-67876190D02*
X143254819Y-68447618D01*
X143254819Y-68447618D02*
X143254819Y-67828571D01*
X142873866Y-67399999D02*
X142873866Y-66638095D01*
X143254819Y-66161904D02*
X142254819Y-66161904D01*
X142254819Y-66161904D02*
X142969104Y-65828571D01*
X142969104Y-65828571D02*
X142254819Y-65495238D01*
X142254819Y-65495238D02*
X143254819Y-65495238D01*
X143254819Y-65019047D02*
X142254819Y-65019047D01*
X142254819Y-65019047D02*
X142254819Y-64780952D01*
X142254819Y-64780952D02*
X142302438Y-64638095D01*
X142302438Y-64638095D02*
X142397676Y-64542857D01*
X142397676Y-64542857D02*
X142492914Y-64495238D01*
X142492914Y-64495238D02*
X142683390Y-64447619D01*
X142683390Y-64447619D02*
X142826247Y-64447619D01*
X142826247Y-64447619D02*
X143016723Y-64495238D01*
X143016723Y-64495238D02*
X143111961Y-64542857D01*
X143111961Y-64542857D02*
X143207200Y-64638095D01*
X143207200Y-64638095D02*
X143254819Y-64780952D01*
X143254819Y-64780952D02*
X143254819Y-65019047D01*
X143254819Y-64019047D02*
X142254819Y-64019047D01*
X142254819Y-64019047D02*
X142254819Y-63780952D01*
X142254819Y-63780952D02*
X142302438Y-63638095D01*
X142302438Y-63638095D02*
X142397676Y-63542857D01*
X142397676Y-63542857D02*
X142492914Y-63495238D01*
X142492914Y-63495238D02*
X142683390Y-63447619D01*
X142683390Y-63447619D02*
X142826247Y-63447619D01*
X142826247Y-63447619D02*
X143016723Y-63495238D01*
X143016723Y-63495238D02*
X143111961Y-63542857D01*
X143111961Y-63542857D02*
X143207200Y-63638095D01*
X143207200Y-63638095D02*
X143254819Y-63780952D01*
X143254819Y-63780952D02*
X143254819Y-64019047D01*
X143254819Y-63019047D02*
X142254819Y-63019047D01*
X142254819Y-63019047D02*
X143254819Y-62447619D01*
X143254819Y-62447619D02*
X142254819Y-62447619D01*
D11*
%TO.C,J6*%
X135840000Y-70415000D02*
X135840000Y-62360000D01*
X137760000Y-70415000D02*
X137760000Y-62360000D01*
%TO.C,J7*%
X134760000Y-70415000D02*
X134760000Y-62360000D01*
X132840000Y-70415000D02*
X132840000Y-62360000D01*
%TO.C,J8*%
X134240000Y-67215000D02*
X134240000Y-59160000D01*
X136160000Y-67215000D02*
X136160000Y-59160000D01*
%TO.C,J10*%
X143760000Y-85585000D02*
X143760000Y-93640000D01*
X141840000Y-85585000D02*
X141840000Y-93640000D01*
%TO.C,J11*%
X138840000Y-85585000D02*
X138840000Y-93640000D01*
X140760000Y-85585000D02*
X140760000Y-93640000D01*
%TO.C,J12*%
X135840000Y-85585000D02*
X135840000Y-93640000D01*
X137760000Y-85585000D02*
X137760000Y-93640000D01*
%TO.C,J13*%
X132840000Y-85585000D02*
X132840000Y-93640000D01*
X134760000Y-85585000D02*
X134760000Y-93640000D01*
%TO.C,J14*%
X142160000Y-67215000D02*
X142160000Y-59160000D01*
X140240000Y-67215000D02*
X140240000Y-59160000D01*
%TO.C,U1*%
X132450000Y-75355000D02*
X132450000Y-80655000D01*
X132450000Y-80655000D02*
X142730000Y-80655000D01*
X142730000Y-75355000D02*
X132450000Y-75355000D01*
X142730000Y-77005000D02*
X142730000Y-75355000D01*
X142730000Y-80655000D02*
X142730000Y-79005000D01*
X142730000Y-79005000D02*
G75*
G02*
X142730000Y-77005000I0J1000000D01*
G01*
%TO.C,J5*%
X140760000Y-70415000D02*
X140760000Y-62360000D01*
X138840000Y-70415000D02*
X138840000Y-62360000D01*
%TO.C,J3*%
X141840000Y-70415000D02*
X141840000Y-62360000D01*
X143760000Y-70415000D02*
X143760000Y-62360000D01*
%TD*%
D12*
X131800000Y-56600000D02*
X144200728Y-56600000D01*
X144200728Y-96200000D01*
X131800000Y-96200000D01*
X131800000Y-56600000D01*
M02*
