%TF.GenerationSoftware,KiCad,Pcbnew,9.0.0*%
%TF.CreationDate,2025-05-11T23:31:38-04:00*%
%TF.ProjectId,WandLite,57616e64-4c69-4746-952e-6b696361645f,rev?*%
%TF.SameCoordinates,Original*%
%TF.FileFunction,Copper,L1,Top*%
%TF.FilePolarity,Positive*%
%FSLAX46Y46*%
G04 Gerber Fmt 4.6, Leading zero omitted, Abs format (unit mm)*
G04 Created by KiCad (PCBNEW 9.0.0) date 2025-05-11 23:31:38*
%MOMM*%
%LPD*%
G01*
G04 APERTURE LIST*
G04 Aperture macros list*
%AMRoundRect*
0 Rectangle with rounded corners*
0 $1 Rounding radius*
0 $2 $3 $4 $5 $6 $7 $8 $9 X,Y pos of 4 corners*
0 Add a 4 corners polygon primitive as box body*
4,1,4,$2,$3,$4,$5,$6,$7,$8,$9,$2,$3,0*
0 Add four circle primitives for the rounded corners*
1,1,$1+$1,$2,$3*
1,1,$1+$1,$4,$5*
1,1,$1+$1,$6,$7*
1,1,$1+$1,$8,$9*
0 Add four rect primitives between the rounded corners*
20,1,$1+$1,$2,$3,$4,$5,0*
20,1,$1+$1,$4,$5,$6,$7,0*
20,1,$1+$1,$6,$7,$8,$9,0*
20,1,$1+$1,$8,$9,$2,$3,0*%
G04 Aperture macros list end*
%TA.AperFunction,ComponentPad*%
%ADD10RoundRect,0.250000X0.675000X0.675000X-0.675000X0.675000X-0.675000X-0.675000X0.675000X-0.675000X0*%
%TD*%
%TA.AperFunction,ComponentPad*%
%ADD11RoundRect,0.250000X-0.675000X-0.675000X0.675000X-0.675000X0.675000X0.675000X-0.675000X0.675000X0*%
%TD*%
%TA.AperFunction,ComponentPad*%
%ADD12RoundRect,0.250000X-0.550000X0.550000X-0.550000X-0.550000X0.550000X-0.550000X0.550000X0.550000X0*%
%TD*%
%TA.AperFunction,ComponentPad*%
%ADD13C,1.600000*%
%TD*%
%TA.AperFunction,Conductor*%
%ADD14C,0.350000*%
%TD*%
%TA.AperFunction,Conductor*%
%ADD15C,0.600000*%
%TD*%
%TA.AperFunction,Conductor*%
%ADD16C,0.400000*%
%TD*%
%TA.AperFunction,Conductor*%
%ADD17C,0.200000*%
%TD*%
%TA.AperFunction,Profile*%
%ADD18C,0.050000*%
%TD*%
G04 APERTURE END LIST*
D10*
%TO.P,J6,1,Pin_1*%
%TO.N,Net-(J6-Pin_1)*%
X136800000Y-71600000D03*
%TD*%
%TO.P,J7,1,Pin_1*%
%TO.N,GND*%
X133800000Y-71600000D03*
%TD*%
%TO.P,J8,1,Pin_1*%
%TO.N,GND*%
X135200000Y-68400000D03*
%TD*%
D11*
%TO.P,J10,1,Pin_1*%
%TO.N,VCC*%
X142800000Y-84400000D03*
%TD*%
%TO.P,J11,1,Pin_1*%
%TO.N,Net-(J11-Pin_1)*%
X139800000Y-84400000D03*
%TD*%
%TO.P,J12,1,Pin_1*%
%TO.N,Net-(J12-Pin_1)*%
X136800000Y-84400000D03*
%TD*%
%TO.P,J13,1,Pin_1*%
%TO.N,GND*%
X133800000Y-84400000D03*
%TD*%
D10*
%TO.P,J14,1,Pin_1*%
%TO.N,VCC*%
X141200000Y-68400000D03*
%TD*%
D12*
%TO.P,U1,1,~{RESET}/PB5*%
%TO.N,unconnected-(U1-~{RESET}{slash}PB5-Pad1)*%
X141400000Y-74195000D03*
D13*
%TO.P,U1,2,XTAL1/PB3*%
%TO.N,Net-(J5-Pin_1)*%
X138860000Y-74195000D03*
%TO.P,U1,3,XTAL2/PB4*%
%TO.N,Net-(J6-Pin_1)*%
X136320000Y-74195000D03*
%TO.P,U1,4,GND*%
%TO.N,GND*%
X133780000Y-74195000D03*
%TO.P,U1,5,AREF/PB0*%
%TO.N,Net-(J12-Pin_1)*%
X133780000Y-81815000D03*
%TO.P,U1,6,PB1*%
%TO.N,Net-(J11-Pin_1)*%
X136320000Y-81815000D03*
%TO.P,U1,7,PB2*%
%TO.N,Net-(J3-Pin_1)*%
X138860000Y-81815000D03*
%TO.P,U1,8,VCC*%
%TO.N,VCC*%
X141400000Y-81815000D03*
%TD*%
D10*
%TO.P,J5,1,Pin_1*%
%TO.N,Net-(J5-Pin_1)*%
X139800000Y-71600000D03*
%TD*%
%TO.P,J3,1,Pin_1*%
%TO.N,Net-(J3-Pin_1)*%
X142800000Y-71600000D03*
%TD*%
D14*
%TO.N,GND*%
X132604000Y-83204000D02*
X133800000Y-84400000D01*
X132604000Y-75371000D02*
X132604000Y-83204000D01*
X133780000Y-74195000D02*
X132604000Y-75371000D01*
%TO.N,Net-(J3-Pin_1)*%
X137684000Y-73707884D02*
X137684000Y-80639000D01*
X138101000Y-73290884D02*
X137684000Y-73707884D01*
X139058774Y-67099000D02*
X138101000Y-68056774D01*
X142800000Y-67757774D02*
X142141226Y-67099000D01*
X142141226Y-67099000D02*
X139058774Y-67099000D01*
X138101000Y-68056774D02*
X138101000Y-73290884D01*
X137684000Y-80639000D02*
X138860000Y-81815000D01*
X142800000Y-71600000D02*
X142800000Y-67757774D01*
%TO.N,VCC*%
X140224000Y-73378774D02*
X140224000Y-80639000D01*
X140781000Y-73019000D02*
X140583774Y-73019000D01*
X140583774Y-73019000D02*
X140224000Y-73378774D01*
X141200000Y-72600000D02*
X140781000Y-73019000D01*
X141200000Y-68400000D02*
X141200000Y-72600000D01*
X140224000Y-80639000D02*
X141400000Y-81815000D01*
D15*
%TO.N,Net-(J11-Pin_1)*%
X136815000Y-81815000D02*
X139400000Y-84400000D01*
D16*
X139400000Y-84400000D02*
X139800000Y-84400000D01*
X136320000Y-81815000D02*
X136815000Y-81815000D01*
D17*
%TO.N,Net-(J12-Pin_1)*%
X134215000Y-81815000D02*
X133780000Y-81815000D01*
%TO.N,VCC*%
X142800000Y-84400000D02*
X142800000Y-83807500D01*
X142800000Y-83807500D02*
X142800000Y-83766200D01*
D15*
X142800000Y-83766200D02*
X142800000Y-83215000D01*
X142800000Y-83215000D02*
X141400000Y-81815000D01*
D17*
%TO.N,GND*%
X133400000Y-74005000D02*
X133495000Y-74100000D01*
X133495000Y-74100000D02*
X133590000Y-74195000D01*
D15*
X133800000Y-69800000D02*
X133800000Y-71600000D01*
X135200000Y-68400000D02*
X133800000Y-69800000D01*
X133685000Y-71715000D02*
X133685000Y-74100000D01*
D17*
X133800000Y-71600000D02*
X133685000Y-71715000D01*
X133685000Y-74100000D02*
X133780000Y-74195000D01*
X133495000Y-74100000D02*
X133590000Y-74100000D01*
X133590000Y-74100000D02*
X133685000Y-74100000D01*
%TO.N,Net-(J6-Pin_1)*%
X136320000Y-74005000D02*
X136320000Y-74195000D01*
X136365000Y-73960000D02*
X136320000Y-74005000D01*
X136600000Y-73725000D02*
X136365000Y-73960000D01*
X136365000Y-73960000D02*
X136130000Y-74195000D01*
D15*
X136600000Y-71800000D02*
X136600000Y-73725000D01*
D17*
X136800000Y-71600000D02*
X136600000Y-71800000D01*
D15*
%TO.N,Net-(J5-Pin_1)*%
X138860000Y-72540000D02*
X138860000Y-74195000D01*
X139800000Y-71600000D02*
X138860000Y-72540000D01*
%TO.N,Net-(J12-Pin_1)*%
X136800000Y-84400000D02*
X134215000Y-81815000D01*
%TD*%
D18*
X131800000Y-56600000D02*
X144200728Y-56600000D01*
X144200728Y-96200000D01*
X131800000Y-96200000D01*
X131800000Y-56600000D01*
M02*
