  0
SECTION
  2
HEADER
  9
$ANGBASE
  50
0.0
  9
$ANGDIR
  70
1
  9
$MEASUREMENT
  70
1
  0
ENDSEC
  0
SECTION
  2
TABLES
  0
TABLE
  2
LTYPE
  70
4
  0
LTYPE
  5
40F
  2
CONTINUOUS
  70
0
  3
Solid line
  72
65
  73
0
  40
0.0
  0
LTYPE
  5
410
  2
DASHDOT
 70
0
  3
Dash Dot ____ _ ____ _
 72
65
 73
4
 40
2.0
 49
1.25
 49
-0.25
 49
0.25
 49
-0.25
  0
LTYPE
  5
411
  2
DASHED
 70
0
  3
Dashed __ __ __ __ __
 72
65
 73
2
 40
0.75
 49
0.5
 49
-0.25
  0
LTYPE
  5
43B
  2
DOTTED
 70
0
  3
Dotted .  .  .  .
 72
65
 73
2
 40
0.2
 49
0.0
 49
-0.2
  0
ENDTAB
  0
TABLE
  2
STYLE
  70
4
  0
STYLE
  2
KICAD
  70
0
  40
0
  41
1
  42
1
  50
0
  71
0
  3
isocp.shx
  0
STYLE
  2
KICADB
  70
0
  40
0
  41
1
  42
1
  50
0
  71
0
  3
isocp.shx
  0
STYLE
  2
KICADI
  70
0
  40
0
  41
1
  42
1
  50
15
  71
0
  3
isocp.shx
  0
STYLE
  2
KICADBI
  70
0
  40
0
  41
1
  42
1
  50
15
  71
0
  3
isocp.shx
  0
ENDTAB
  0
TABLE
  2
LAYER
  70
1
  0
LAYER
  2
BLACK
  70
0
  62
7
  6
CONTINUOUS
  0
ENDTAB
  0
ENDSEC
  0
SECTION
  2
ENTITIES
0
LINE
8
BLACK
6
CONTINUOUS
10
171.5706710000000044
20
-130.1190299999999809
11
171.6517769999999814
21
-130.1732230000000072
0
LINE
8
BLACK
6
CONTINUOUS
10
171.6517769999999814
20
-130.1732230000000072
11
171.7059699999999793
21
-130.2543289999999843
0
LINE
8
BLACK
6
CONTINUOUS
10
171.7059699999999793
20
-130.2543289999999843
11
171.7249999999999943
21
-130.3499999999999943
0
LINE
8
BLACK
6
CONTINUOUS
10
171.7249999999999943
20
-130.3499999999999943
11
171.7249999999999943
21
-131.5499999999999829
0
LINE
8
BLACK
6
CONTINUOUS
10
171.7249999999999943
20
-131.5499999999999829
11
171.7059699999999793
21
-131.645670999999993
0
LINE
8
BLACK
6
CONTINUOUS
10
171.7059699999999793
20
-131.645670999999993
11
171.6517769999999814
21
-131.7267769999999985
0
LINE
8
BLACK
6
CONTINUOUS
10
171.6517769999999814
20
-131.7267769999999985
11
171.5706710000000044
21
-131.7809699999999964
0
LINE
8
BLACK
6
CONTINUOUS
10
171.5706710000000044
20
-131.7809699999999964
11
171.4749999999999943
21
-131.7999999999999829
0
LINE
8
BLACK
6
CONTINUOUS
10
171.4749999999999943
20
-131.7999999999999829
11
170.2750000000000057
21
-131.7999999999999829
0
LINE
8
BLACK
6
CONTINUOUS
10
170.2750000000000057
20
-131.7999999999999829
11
170.1793289999999956
21
-131.7809699999999964
0
LINE
8
BLACK
6
CONTINUOUS
10
170.1793289999999956
20
-131.7809699999999964
11
170.0982229999999902
21
-131.7267769999999985
0
LINE
8
BLACK
6
CONTINUOUS
10
170.0982229999999902
20
-131.7267769999999985
11
170.0440299999999922
21
-131.645670999999993
0
LINE
8
BLACK
6
CONTINUOUS
10
170.0440299999999922
20
-131.645670999999993
11
170.0250000000000057
21
-131.5499999999999829
0
LINE
8
BLACK
6
CONTINUOUS
10
170.0250000000000057
20
-131.5499999999999829
11
170.0250000000000057
21
-130.3499999999999943
0
LINE
8
BLACK
6
CONTINUOUS
10
170.0250000000000057
20
-130.3499999999999943
11
170.0440299999999922
21
-130.2543289999999843
0
LINE
8
BLACK
6
CONTINUOUS
10
170.0440299999999922
20
-130.2543289999999843
11
170.0982229999999902
21
-130.1732230000000072
0
LINE
8
BLACK
6
CONTINUOUS
10
170.0982229999999902
20
-130.1732230000000072
11
170.1793289999999956
21
-130.1190299999999809
0
LINE
8
BLACK
6
CONTINUOUS
10
170.1793289999999956
20
-130.1190299999999809
11
170.2750000000000057
21
-130.0999999999999943
0
LINE
8
BLACK
6
CONTINUOUS
10
170.2750000000000057
20
-130.0999999999999943
11
171.4749999999999943
21
-130.0999999999999943
0
LINE
8
BLACK
6
CONTINUOUS
10
171.4749999999999943
20
-130.0999999999999943
11
171.5706710000000044
21
-130.1190299999999809
0
LINE
8
BLACK
6
CONTINUOUS
10
161.7217420000000061
20
-130.1366009999999847
11
161.8756869999999992
21
-130.200367
0
LINE
8
BLACK
6
CONTINUOUS
10
161.8756869999999992
20
-130.200367
11
162.0142339999999876
21
-130.2929409999999848
0
LINE
8
BLACK
6
CONTINUOUS
10
162.0142339999999876
20
-130.2929409999999848
11
162.1320589999999982
21
-130.4107659999999953
0
LINE
8
BLACK
6
CONTINUOUS
10
162.1320589999999982
20
-130.4107659999999953
11
162.224632999999983
21
-130.5493129999999837
0
LINE
8
BLACK
6
CONTINUOUS
10
162.224632999999983
20
-130.5493129999999837
11
162.2883989999999983
21
-130.7032580000000053
0
LINE
8
BLACK
6
CONTINUOUS
10
162.2883989999999983
20
-130.7032580000000053
11
162.3209070000000054
21
-130.8666849999999897
0
LINE
8
BLACK
6
CONTINUOUS
10
162.3209070000000054
20
-130.8666849999999897
11
162.3209070000000054
21
-131.0333149999999875
0
LINE
8
BLACK
6
CONTINUOUS
10
162.3209070000000054
20
-131.0333149999999875
11
162.2883989999999983
21
-131.1967420000000004
0
LINE
8
BLACK
6
CONTINUOUS
10
162.2883989999999983
20
-131.1967420000000004
11
162.224632999999983
21
-131.3506869999999935
0
LINE
8
BLACK
6
CONTINUOUS
10
162.224632999999983
20
-131.3506869999999935
11
162.1320589999999982
21
-131.489233999999982
0
LINE
8
BLACK
6
CONTINUOUS
10
162.1320589999999982
20
-131.489233999999982
11
162.0142339999999876
21
-131.6070589999999925
0
LINE
8
BLACK
6
CONTINUOUS
10
162.0142339999999876
20
-131.6070589999999925
11
161.8756869999999992
21
-131.6996330000000057
0
LINE
8
BLACK
6
CONTINUOUS
10
161.8756869999999992
20
-131.6996330000000057
11
161.7217420000000061
21
-131.7633989999999926
0
LINE
8
BLACK
6
CONTINUOUS
10
161.7217420000000061
20
-131.7633989999999926
11
161.5583149999999932
21
-131.7959069999999997
0
LINE
8
BLACK
6
CONTINUOUS
10
161.5583149999999932
20
-131.7959069999999997
11
161.3916849999999954
21
-131.7959069999999997
0
LINE
8
BLACK
6
CONTINUOUS
10
161.3916849999999954
20
-131.7959069999999997
11
161.2282579999999825
21
-131.7633989999999926
0
LINE
8
BLACK
6
CONTINUOUS
10
161.2282579999999825
20
-131.7633989999999926
11
161.0743129999999894
21
-131.6996330000000057
0
LINE
8
BLACK
6
CONTINUOUS
10
161.0743129999999894
20
-131.6996330000000057
11
160.935766000000001
21
-131.6070589999999925
0
LINE
8
BLACK
6
CONTINUOUS
10
160.935766000000001
20
-131.6070589999999925
11
160.8179409999999905
21
-131.489233999999982
0
LINE
8
BLACK
6
CONTINUOUS
10
160.8179409999999905
20
-131.489233999999982
11
160.7253670000000056
21
-131.3506869999999935
0
LINE
8
BLACK
6
CONTINUOUS
10
160.7253670000000056
20
-131.3506869999999935
11
160.6616009999999903
21
-131.1967420000000004
0
LINE
8
BLACK
6
CONTINUOUS
10
160.6616009999999903
20
-131.1967420000000004
11
160.6290929999999832
21
-131.0333149999999875
0
LINE
8
BLACK
6
CONTINUOUS
10
160.6290929999999832
20
-131.0333149999999875
11
160.6290929999999832
21
-130.8666849999999897
0
LINE
8
BLACK
6
CONTINUOUS
10
160.6290929999999832
20
-130.8666849999999897
11
160.6616009999999903
21
-130.7032580000000053
0
LINE
8
BLACK
6
CONTINUOUS
10
160.6616009999999903
20
-130.7032580000000053
11
160.7253670000000056
21
-130.5493129999999837
0
LINE
8
BLACK
6
CONTINUOUS
10
160.7253670000000056
20
-130.5493129999999837
11
160.8179409999999905
21
-130.4107659999999953
0
LINE
8
BLACK
6
CONTINUOUS
10
160.8179409999999905
20
-130.4107659999999953
11
160.935766000000001
21
-130.2929409999999848
0
LINE
8
BLACK
6
CONTINUOUS
10
160.935766000000001
20
-130.2929409999999848
11
161.0743129999999894
21
-130.200367
0
LINE
8
BLACK
6
CONTINUOUS
10
161.0743129999999894
20
-130.200367
11
161.2282579999999825
21
-130.1366009999999847
0
LINE
8
BLACK
6
CONTINUOUS
10
161.2282579999999825
20
-130.1366009999999847
11
161.3916849999999954
21
-130.104093000000006
0
LINE
8
BLACK
6
CONTINUOUS
10
161.3916849999999954
20
-130.104093000000006
11
161.5583149999999932
21
-130.104093000000006
0
LINE
8
BLACK
6
CONTINUOUS
10
161.5583149999999932
20
-130.104093000000006
11
161.7217420000000061
21
-130.1366009999999847
0
LINE
8
BLACK
6
CONTINUOUS
10
169.3856710000000021
20
-130.10902999999999
11
169.4667769999999791
21
-130.1632229999999879
0
LINE
8
BLACK
6
CONTINUOUS
10
169.4667769999999791
20
-130.1632229999999879
11
169.5209700000000055
21
-130.2443289999999934
0
LINE
8
BLACK
6
CONTINUOUS
10
169.5209700000000055
20
-130.2443289999999934
11
169.539999999999992
21
-130.3400000000000034
0
LINE
8
BLACK
6
CONTINUOUS
10
169.539999999999992
20
-130.3400000000000034
11
169.539999999999992
21
-131.539999999999992
0
LINE
8
BLACK
6
CONTINUOUS
10
169.539999999999992
20
-131.539999999999992
11
169.5209700000000055
21
-131.6356710000000021
0
LINE
8
BLACK
6
CONTINUOUS
10
169.5209700000000055
20
-131.6356710000000021
11
169.4667769999999791
21
-131.7167770000000075
0
LINE
8
BLACK
6
CONTINUOUS
10
169.4667769999999791
20
-131.7167770000000075
11
169.3856710000000021
21
-131.7709700000000055
0
LINE
8
BLACK
6
CONTINUOUS
10
169.3856710000000021
20
-131.7709700000000055
11
169.289999999999992
21
-131.789999999999992
0
LINE
8
BLACK
6
CONTINUOUS
10
169.289999999999992
20
-131.789999999999992
11
168.0900000000000034
21
-131.789999999999992
0
LINE
8
BLACK
6
CONTINUOUS
10
168.0900000000000034
20
-131.789999999999992
11
167.9943289999999934
21
-131.7709700000000055
0
LINE
8
BLACK
6
CONTINUOUS
10
167.9943289999999934
20
-131.7709700000000055
11
167.9132229999999879
21
-131.7167770000000075
0
LINE
8
BLACK
6
CONTINUOUS
10
167.9132229999999879
20
-131.7167770000000075
11
167.85902999999999
21
-131.6356710000000021
0
LINE
8
BLACK
6
CONTINUOUS
10
167.85902999999999
20
-131.6356710000000021
11
167.8400000000000034
21
-131.539999999999992
0
LINE
8
BLACK
6
CONTINUOUS
10
167.8400000000000034
20
-131.539999999999992
11
167.8400000000000034
21
-130.3400000000000034
0
LINE
8
BLACK
6
CONTINUOUS
10
167.8400000000000034
20
-130.3400000000000034
11
167.85902999999999
21
-130.2443289999999934
0
LINE
8
BLACK
6
CONTINUOUS
10
167.85902999999999
20
-130.2443289999999934
11
167.9132229999999879
21
-130.1632229999999879
0
LINE
8
BLACK
6
CONTINUOUS
10
167.9132229999999879
20
-130.1632229999999879
11
167.9943289999999934
21
-130.10902999999999
0
LINE
8
BLACK
6
CONTINUOUS
10
167.9943289999999934
20
-130.10902999999999
11
168.0900000000000034
21
-130.0900000000000034
0
LINE
8
BLACK
6
CONTINUOUS
10
168.0900000000000034
20
-130.0900000000000034
11
169.289999999999992
21
-130.0900000000000034
0
LINE
8
BLACK
6
CONTINUOUS
10
169.289999999999992
20
-130.0900000000000034
11
169.3856710000000021
21
-130.10902999999999
0
LINE
8
BLACK
6
CONTINUOUS
10
163.856741999999997
20
-130.1266009999999937
11
164.0106869999999901
21
-130.1903669999999806
0
LINE
8
BLACK
6
CONTINUOUS
10
164.0106869999999901
20
-130.1903669999999806
11
164.1492339999999786
21
-130.2829409999999939
0
LINE
8
BLACK
6
CONTINUOUS
10
164.1492339999999786
20
-130.2829409999999939
11
164.2670589999999891
21
-130.4007660000000044
0
LINE
8
BLACK
6
CONTINUOUS
10
164.2670589999999891
20
-130.4007660000000044
11
164.3596330000000023
21
-130.5393129999999928
0
LINE
8
BLACK
6
CONTINUOUS
10
164.3596330000000023
20
-130.5393129999999928
11
164.4233989999999892
21
-130.6932579999999859
0
LINE
8
BLACK
6
CONTINUOUS
10
164.4233989999999892
20
-130.6932579999999859
11
164.4559069999999963
21
-130.8566849999999988
0
LINE
8
BLACK
6
CONTINUOUS
10
164.4559069999999963
20
-130.8566849999999988
11
164.4559069999999963
21
-131.0233149999999966
0
LINE
8
BLACK
6
CONTINUOUS
10
164.4559069999999963
20
-131.0233149999999966
11
164.4233989999999892
21
-131.1867419999999811
0
LINE
8
BLACK
6
CONTINUOUS
10
164.4233989999999892
20
-131.1867419999999811
11
164.3596330000000023
21
-131.3406870000000026
0
LINE
8
BLACK
6
CONTINUOUS
10
164.3596330000000023
20
-131.3406870000000026
11
164.2670589999999891
21
-131.4792339999999911
0
LINE
8
BLACK
6
CONTINUOUS
10
164.2670589999999891
20
-131.4792339999999911
11
164.1492339999999786
21
-131.5970590000000016
0
LINE
8
BLACK
6
CONTINUOUS
10
164.1492339999999786
20
-131.5970590000000016
11
164.0106869999999901
21
-131.6896329999999864
0
LINE
8
BLACK
6
CONTINUOUS
10
164.0106869999999901
20
-131.6896329999999864
11
163.856741999999997
21
-131.7533990000000017
0
LINE
8
BLACK
6
CONTINUOUS
10
163.856741999999997
20
-131.7533990000000017
11
163.6933149999999841
21
-131.7859069999999804
0
LINE
8
BLACK
6
CONTINUOUS
10
163.6933149999999841
20
-131.7859069999999804
11
163.5266849999999863
21
-131.7859069999999804
0
LINE
8
BLACK
6
CONTINUOUS
10
163.5266849999999863
20
-131.7859069999999804
11
163.3632580000000019
21
-131.7533990000000017
0
LINE
8
BLACK
6
CONTINUOUS
10
163.3632580000000019
20
-131.7533990000000017
11
163.2093129999999803
21
-131.6896329999999864
0
LINE
8
BLACK
6
CONTINUOUS
10
163.2093129999999803
20
-131.6896329999999864
11
163.0707659999999919
21
-131.5970590000000016
0
LINE
8
BLACK
6
CONTINUOUS
10
163.0707659999999919
20
-131.5970590000000016
11
162.9529409999999814
21
-131.4792339999999911
0
LINE
8
BLACK
6
CONTINUOUS
10
162.9529409999999814
20
-131.4792339999999911
11
162.8603669999999966
21
-131.3406870000000026
0
LINE
8
BLACK
6
CONTINUOUS
10
162.8603669999999966
20
-131.3406870000000026
11
162.7966009999999812
21
-131.1867419999999811
0
LINE
8
BLACK
6
CONTINUOUS
10
162.7966009999999812
20
-131.1867419999999811
11
162.7640930000000026
21
-131.0233149999999966
0
LINE
8
BLACK
6
CONTINUOUS
10
162.7640930000000026
20
-131.0233149999999966
11
162.7640930000000026
21
-130.8566849999999988
0
LINE
8
BLACK
6
CONTINUOUS
10
162.7640930000000026
20
-130.8566849999999988
11
162.7966009999999812
21
-130.6932579999999859
0
LINE
8
BLACK
6
CONTINUOUS
10
162.7966009999999812
20
-130.6932579999999859
11
162.8603669999999966
21
-130.5393129999999928
0
LINE
8
BLACK
6
CONTINUOUS
10
162.8603669999999966
20
-130.5393129999999928
11
162.9529409999999814
21
-130.4007660000000044
0
LINE
8
BLACK
6
CONTINUOUS
10
162.9529409999999814
20
-130.4007660000000044
11
163.0707659999999919
21
-130.2829409999999939
0
LINE
8
BLACK
6
CONTINUOUS
10
163.0707659999999919
20
-130.2829409999999939
11
163.2093129999999803
21
-130.1903669999999806
0
LINE
8
BLACK
6
CONTINUOUS
10
163.2093129999999803
20
-130.1903669999999806
11
163.3632580000000019
21
-130.1266009999999937
0
LINE
8
BLACK
6
CONTINUOUS
10
163.3632580000000019
20
-130.1266009999999937
11
163.5266849999999863
21
-130.0940929999999867
0
LINE
8
BLACK
6
CONTINUOUS
10
163.5266849999999863
20
-130.0940929999999867
11
163.6933149999999841
21
-130.0940929999999867
0
LINE
8
BLACK
6
CONTINUOUS
10
163.6933149999999841
20
-130.0940929999999867
11
163.856741999999997
21
-130.1266009999999937
0
LINE
8
BLACK
6
CONTINUOUS
10
166.396741999999989
20
-130.1266009999999937
11
166.5506869999999822
21
-130.1903669999999806
0
LINE
8
BLACK
6
CONTINUOUS
10
166.5506869999999822
20
-130.1903669999999806
11
166.689233999999999
21
-130.2829409999999939
0
LINE
8
BLACK
6
CONTINUOUS
10
166.689233999999999
20
-130.2829409999999939
11
166.8070589999999811
21
-130.4007660000000044
0
LINE
8
BLACK
6
CONTINUOUS
10
166.8070589999999811
20
-130.4007660000000044
11
166.8996329999999944
21
-130.5393129999999928
0
LINE
8
BLACK
6
CONTINUOUS
10
166.8996329999999944
20
-130.5393129999999928
11
166.9633989999999812
21
-130.6932579999999859
0
LINE
8
BLACK
6
CONTINUOUS
10
166.9633989999999812
20
-130.6932579999999859
11
166.9959069999999883
21
-130.8566849999999988
0
LINE
8
BLACK
6
CONTINUOUS
10
166.9959069999999883
20
-130.8566849999999988
11
166.9959069999999883
21
-131.0233149999999966
0
LINE
8
BLACK
6
CONTINUOUS
10
166.9959069999999883
20
-131.0233149999999966
11
166.9633989999999812
21
-131.1867419999999811
0
LINE
8
BLACK
6
CONTINUOUS
10
166.9633989999999812
20
-131.1867419999999811
11
166.8996329999999944
21
-131.3406870000000026
0
LINE
8
BLACK
6
CONTINUOUS
10
166.8996329999999944
20
-131.3406870000000026
11
166.8070589999999811
21
-131.4792339999999911
0
LINE
8
BLACK
6
CONTINUOUS
10
166.8070589999999811
20
-131.4792339999999911
11
166.689233999999999
21
-131.5970590000000016
0
LINE
8
BLACK
6
CONTINUOUS
10
166.689233999999999
20
-131.5970590000000016
11
166.5506869999999822
21
-131.6896329999999864
0
LINE
8
BLACK
6
CONTINUOUS
10
166.5506869999999822
20
-131.6896329999999864
11
166.396741999999989
21
-131.7533990000000017
0
LINE
8
BLACK
6
CONTINUOUS
10
166.396741999999989
20
-131.7533990000000017
11
166.2333150000000046
21
-131.7859069999999804
0
LINE
8
BLACK
6
CONTINUOUS
10
166.2333150000000046
20
-131.7859069999999804
11
166.0666849999999783
21
-131.7859069999999804
0
LINE
8
BLACK
6
CONTINUOUS
10
166.0666849999999783
20
-131.7859069999999804
11
165.9032579999999939
21
-131.7533990000000017
0
LINE
8
BLACK
6
CONTINUOUS
10
165.9032579999999939
20
-131.7533990000000017
11
165.7493130000000008
21
-131.6896329999999864
0
LINE
8
BLACK
6
CONTINUOUS
10
165.7493130000000008
20
-131.6896329999999864
11
165.6107659999999839
21
-131.5970590000000016
0
LINE
8
BLACK
6
CONTINUOUS
10
165.6107659999999839
20
-131.5970590000000016
11
165.4929410000000018
21
-131.4792339999999911
0
LINE
8
BLACK
6
CONTINUOUS
10
165.4929410000000018
20
-131.4792339999999911
11
165.4003669999999886
21
-131.3406870000000026
0
LINE
8
BLACK
6
CONTINUOUS
10
165.4003669999999886
20
-131.3406870000000026
11
165.3366010000000017
21
-131.1867419999999811
0
LINE
8
BLACK
6
CONTINUOUS
10
165.3366010000000017
20
-131.1867419999999811
11
165.3040929999999946
21
-131.0233149999999966
0
LINE
8
BLACK
6
CONTINUOUS
10
165.3040929999999946
20
-131.0233149999999966
11
165.3040929999999946
21
-130.8566849999999988
0
LINE
8
BLACK
6
CONTINUOUS
10
165.3040929999999946
20
-130.8566849999999988
11
165.3366010000000017
21
-130.6932579999999859
0
LINE
8
BLACK
6
CONTINUOUS
10
165.3366010000000017
20
-130.6932579999999859
11
165.4003669999999886
21
-130.5393129999999928
0
LINE
8
BLACK
6
CONTINUOUS
10
165.4003669999999886
20
-130.5393129999999928
11
165.4929410000000018
21
-130.4007660000000044
0
LINE
8
BLACK
6
CONTINUOUS
10
165.4929410000000018
20
-130.4007660000000044
11
165.6107659999999839
21
-130.2829409999999939
0
LINE
8
BLACK
6
CONTINUOUS
10
165.6107659999999839
20
-130.2829409999999939
11
165.7493130000000008
21
-130.1903669999999806
0
LINE
8
BLACK
6
CONTINUOUS
10
165.7493130000000008
20
-130.1903669999999806
11
165.9032579999999939
21
-130.1266009999999937
0
LINE
8
BLACK
6
CONTINUOUS
10
165.9032579999999939
20
-130.1266009999999937
11
166.0666849999999783
21
-130.0940929999999867
0
LINE
8
BLACK
6
CONTINUOUS
10
166.0666849999999783
20
-130.0940929999999867
11
166.2333150000000046
21
-130.0940929999999867
0
LINE
8
BLACK
6
CONTINUOUS
10
166.2333150000000046
20
-130.0940929999999867
11
166.396741999999989
21
-130.1266009999999937
0
LINE
8
BLACK
6
CONTINUOUS
10
169.3856710000000021
20
-127.5690299999999979
11
169.4667769999999791
21
-127.6232229999999959
0
LINE
8
BLACK
6
CONTINUOUS
10
169.4667769999999791
20
-127.6232229999999959
11
169.5209700000000055
21
-127.7043290000000013
0
LINE
8
BLACK
6
CONTINUOUS
10
169.5209700000000055
20
-127.7043290000000013
11
169.539999999999992
21
-127.7999999999999972
0
LINE
8
BLACK
6
CONTINUOUS
10
169.539999999999992
20
-127.7999999999999972
11
169.539999999999992
21
-129.
0
LINE
8
BLACK
6
CONTINUOUS
10
169.539999999999992
20
-129.
11
169.5209700000000055
21
-129.0956709999999816
0
LINE
8
BLACK
6
CONTINUOUS
10
169.5209700000000055
20
-129.0956709999999816
11
169.4667769999999791
21
-129.1767769999999871
0
LINE
8
BLACK
6
CONTINUOUS
10
169.4667769999999791
20
-129.1767769999999871
11
169.3856710000000021
21
-129.230969999999985
0
LINE
8
BLACK
6
CONTINUOUS
10
169.3856710000000021
20
-129.230969999999985
11
169.289999999999992
21
-129.25
0
LINE
8
BLACK
6
CONTINUOUS
10
169.289999999999992
20
-129.25
11
168.0900000000000034
21
-129.25
0
LINE
8
BLACK
6
CONTINUOUS
10
168.0900000000000034
20
-129.25
11
167.9943289999999934
21
-129.230969999999985
0
LINE
8
BLACK
6
CONTINUOUS
10
167.9943289999999934
20
-129.230969999999985
11
167.9132229999999879
21
-129.1767769999999871
0
LINE
8
BLACK
6
CONTINUOUS
10
167.9132229999999879
20
-129.1767769999999871
11
167.85902999999999
21
-129.0956709999999816
0
LINE
8
BLACK
6
CONTINUOUS
10
167.85902999999999
20
-129.0956709999999816
11
167.8400000000000034
21
-129.
0
LINE
8
BLACK
6
CONTINUOUS
10
167.8400000000000034
20
-129.
11
167.8400000000000034
21
-127.7999999999999972
0
LINE
8
BLACK
6
CONTINUOUS
10
167.8400000000000034
20
-127.7999999999999972
11
167.85902999999999
21
-127.7043290000000013
0
LINE
8
BLACK
6
CONTINUOUS
10
167.85902999999999
20
-127.7043290000000013
11
167.9132229999999879
21
-127.6232229999999959
0
LINE
8
BLACK
6
CONTINUOUS
10
167.9132229999999879
20
-127.6232229999999959
11
167.9943289999999934
21
-127.5690299999999979
0
LINE
8
BLACK
6
CONTINUOUS
10
167.9943289999999934
20
-127.5690299999999979
11
168.0900000000000034
21
-127.5499999999999972
0
LINE
8
BLACK
6
CONTINUOUS
10
168.0900000000000034
20
-127.5499999999999972
11
169.289999999999992
21
-127.5499999999999972
0
LINE
8
BLACK
6
CONTINUOUS
10
169.289999999999992
20
-127.5499999999999972
11
169.3856710000000021
21
-127.5690299999999979
0
LINE
8
BLACK
6
CONTINUOUS
10
171.5706710000000044
20
-127.5690299999999979
11
171.6517769999999814
21
-127.6232229999999959
0
LINE
8
BLACK
6
CONTINUOUS
10
171.6517769999999814
20
-127.6232229999999959
11
171.7059699999999793
21
-127.7043290000000013
0
LINE
8
BLACK
6
CONTINUOUS
10
171.7059699999999793
20
-127.7043290000000013
11
171.7249999999999943
21
-127.7999999999999972
0
LINE
8
BLACK
6
CONTINUOUS
10
171.7249999999999943
20
-127.7999999999999972
11
171.7249999999999943
21
-129.
0
LINE
8
BLACK
6
CONTINUOUS
10
171.7249999999999943
20
-129.
11
171.7059699999999793
21
-129.0956709999999816
0
LINE
8
BLACK
6
CONTINUOUS
10
171.7059699999999793
20
-129.0956709999999816
11
171.6517769999999814
21
-129.1767769999999871
0
LINE
8
BLACK
6
CONTINUOUS
10
171.6517769999999814
20
-129.1767769999999871
11
171.5706710000000044
21
-129.230969999999985
0
LINE
8
BLACK
6
CONTINUOUS
10
171.5706710000000044
20
-129.230969999999985
11
171.4749999999999943
21
-129.25
0
LINE
8
BLACK
6
CONTINUOUS
10
171.4749999999999943
20
-129.25
11
170.2750000000000057
21
-129.25
0
LINE
8
BLACK
6
CONTINUOUS
10
170.2750000000000057
20
-129.25
11
170.1793289999999956
21
-129.230969999999985
0
LINE
8
BLACK
6
CONTINUOUS
10
170.1793289999999956
20
-129.230969999999985
11
170.0982229999999902
21
-129.1767769999999871
0
LINE
8
BLACK
6
CONTINUOUS
10
170.0982229999999902
20
-129.1767769999999871
11
170.0440299999999922
21
-129.0956709999999816
0
LINE
8
BLACK
6
CONTINUOUS
10
170.0440299999999922
20
-129.0956709999999816
11
170.0250000000000057
21
-129.
0
LINE
8
BLACK
6
CONTINUOUS
10
170.0250000000000057
20
-129.
11
170.0250000000000057
21
-127.7999999999999972
0
LINE
8
BLACK
6
CONTINUOUS
10
170.0250000000000057
20
-127.7999999999999972
11
170.0440299999999922
21
-127.7043290000000013
0
LINE
8
BLACK
6
CONTINUOUS
10
170.0440299999999922
20
-127.7043290000000013
11
170.0982229999999902
21
-127.6232229999999959
0
LINE
8
BLACK
6
CONTINUOUS
10
170.0982229999999902
20
-127.6232229999999959
11
170.1793289999999956
21
-127.5690299999999979
0
LINE
8
BLACK
6
CONTINUOUS
10
170.1793289999999956
20
-127.5690299999999979
11
170.2750000000000057
21
-127.5499999999999972
0
LINE
8
BLACK
6
CONTINUOUS
10
170.2750000000000057
20
-127.5499999999999972
11
171.4749999999999943
21
-127.5499999999999972
0
LINE
8
BLACK
6
CONTINUOUS
10
171.4749999999999943
20
-127.5499999999999972
11
171.5706710000000044
21
-127.5690299999999979
0
LINE
8
BLACK
6
CONTINUOUS
10
161.7217420000000061
20
-127.5866009999999875
11
161.8756869999999992
21
-127.6503669999999886
0
LINE
8
BLACK
6
CONTINUOUS
10
161.8756869999999992
20
-127.6503669999999886
11
162.0142339999999876
21
-127.7429409999999876
0
LINE
8
BLACK
6
CONTINUOUS
10
162.0142339999999876
20
-127.7429409999999876
11
162.1320589999999982
21
-127.8607659999999981
0
LINE
8
BLACK
6
CONTINUOUS
10
162.1320589999999982
20
-127.8607659999999981
11
162.224632999999983
21
-127.9993130000000008
0
LINE
8
BLACK
6
CONTINUOUS
10
162.224632999999983
20
-127.9993130000000008
11
162.2883989999999983
21
-128.1532579999999939
0
LINE
8
BLACK
6
CONTINUOUS
10
162.2883989999999983
20
-128.1532579999999939
11
162.3209070000000054
21
-128.3166850000000068
0
LINE
8
BLACK
6
CONTINUOUS
10
162.3209070000000054
20
-128.3166850000000068
11
162.3209070000000054
21
-128.4833150000000046
0
LINE
8
BLACK
6
CONTINUOUS
10
162.3209070000000054
20
-128.4833150000000046
11
162.2883989999999983
21
-128.646741999999989
0
LINE
8
BLACK
6
CONTINUOUS
10
162.2883989999999983
20
-128.646741999999989
11
162.224632999999983
21
-128.8006869999999822
0
LINE
8
BLACK
6
CONTINUOUS
10
162.224632999999983
20
-128.8006869999999822
11
162.1320589999999982
21
-128.939233999999999
0
LINE
8
BLACK
6
CONTINUOUS
10
162.1320589999999982
20
-128.939233999999999
11
162.0142339999999876
21
-129.0570589999999811
0
LINE
8
BLACK
6
CONTINUOUS
10
162.0142339999999876
20
-129.0570589999999811
11
161.8756869999999992
21
-129.1496329999999944
0
LINE
8
BLACK
6
CONTINUOUS
10
161.8756869999999992
20
-129.1496329999999944
11
161.7217420000000061
21
-129.2133989999999812
0
LINE
8
BLACK
6
CONTINUOUS
10
161.7217420000000061
20
-129.2133989999999812
11
161.5583149999999932
21
-129.2459069999999883
0
LINE
8
BLACK
6
CONTINUOUS
10
161.5583149999999932
20
-129.2459069999999883
11
161.3916849999999954
21
-129.2459069999999883
0
LINE
8
BLACK
6
CONTINUOUS
10
161.3916849999999954
20
-129.2459069999999883
11
161.2282579999999825
21
-129.2133989999999812
0
LINE
8
BLACK
6
CONTINUOUS
10
161.2282579999999825
20
-129.2133989999999812
11
161.0743129999999894
21
-129.1496329999999944
0
LINE
8
BLACK
6
CONTINUOUS
10
161.0743129999999894
20
-129.1496329999999944
11
160.935766000000001
21
-129.0570589999999811
0
LINE
8
BLACK
6
CONTINUOUS
10
160.935766000000001
20
-129.0570589999999811
11
160.8179409999999905
21
-128.939233999999999
0
LINE
8
BLACK
6
CONTINUOUS
10
160.8179409999999905
20
-128.939233999999999
11
160.7253670000000056
21
-128.8006869999999822
0
LINE
8
BLACK
6
CONTINUOUS
10
160.7253670000000056
20
-128.8006869999999822
11
160.6616009999999903
21
-128.646741999999989
0
LINE
8
BLACK
6
CONTINUOUS
10
160.6616009999999903
20
-128.646741999999989
11
160.6290929999999832
21
-128.4833150000000046
0
LINE
8
BLACK
6
CONTINUOUS
10
160.6290929999999832
20
-128.4833150000000046
11
160.6290929999999832
21
-128.3166850000000068
0
LINE
8
BLACK
6
CONTINUOUS
10
160.6290929999999832
20
-128.3166850000000068
11
160.6616009999999903
21
-128.1532579999999939
0
LINE
8
BLACK
6
CONTINUOUS
10
160.6616009999999903
20
-128.1532579999999939
11
160.7253670000000056
21
-127.9993130000000008
0
LINE
8
BLACK
6
CONTINUOUS
10
160.7253670000000056
20
-127.9993130000000008
11
160.8179409999999905
21
-127.8607659999999981
0
LINE
8
BLACK
6
CONTINUOUS
10
160.8179409999999905
20
-127.8607659999999981
11
160.935766000000001
21
-127.7429409999999876
0
LINE
8
BLACK
6
CONTINUOUS
10
160.935766000000001
20
-127.7429409999999876
11
161.0743129999999894
21
-127.6503669999999886
0
LINE
8
BLACK
6
CONTINUOUS
10
161.0743129999999894
20
-127.6503669999999886
11
161.2282579999999825
21
-127.5866009999999875
0
LINE
8
BLACK
6
CONTINUOUS
10
161.2282579999999825
20
-127.5866009999999875
11
161.3916849999999954
21
-127.5540929999999946
0
LINE
8
BLACK
6
CONTINUOUS
10
161.3916849999999954
20
-127.5540929999999946
11
161.5583149999999932
21
-127.5540929999999946
0
LINE
8
BLACK
6
CONTINUOUS
10
161.5583149999999932
20
-127.5540929999999946
11
161.7217420000000061
21
-127.5866009999999875
0
LINE
8
BLACK
6
CONTINUOUS
10
163.856741999999997
20
-127.5866009999999875
11
164.0106869999999901
21
-127.6503669999999886
0
LINE
8
BLACK
6
CONTINUOUS
10
164.0106869999999901
20
-127.6503669999999886
11
164.1492339999999786
21
-127.7429409999999876
0
LINE
8
BLACK
6
CONTINUOUS
10
164.1492339999999786
20
-127.7429409999999876
11
164.2670589999999891
21
-127.8607659999999981
0
LINE
8
BLACK
6
CONTINUOUS
10
164.2670589999999891
20
-127.8607659999999981
11
164.3596330000000023
21
-127.9993130000000008
0
LINE
8
BLACK
6
CONTINUOUS
10
164.3596330000000023
20
-127.9993130000000008
11
164.4233989999999892
21
-128.1532579999999939
0
LINE
8
BLACK
6
CONTINUOUS
10
164.4233989999999892
20
-128.1532579999999939
11
164.4559069999999963
21
-128.3166850000000068
0
LINE
8
BLACK
6
CONTINUOUS
10
164.4559069999999963
20
-128.3166850000000068
11
164.4559069999999963
21
-128.4833150000000046
0
LINE
8
BLACK
6
CONTINUOUS
10
164.4559069999999963
20
-128.4833150000000046
11
164.4233989999999892
21
-128.646741999999989
0
LINE
8
BLACK
6
CONTINUOUS
10
164.4233989999999892
20
-128.646741999999989
11
164.3596330000000023
21
-128.8006869999999822
0
LINE
8
BLACK
6
CONTINUOUS
10
164.3596330000000023
20
-128.8006869999999822
11
164.2670589999999891
21
-128.939233999999999
0
LINE
8
BLACK
6
CONTINUOUS
10
164.2670589999999891
20
-128.939233999999999
11
164.1492339999999786
21
-129.0570589999999811
0
LINE
8
BLACK
6
CONTINUOUS
10
164.1492339999999786
20
-129.0570589999999811
11
164.0106869999999901
21
-129.1496329999999944
0
LINE
8
BLACK
6
CONTINUOUS
10
164.0106869999999901
20
-129.1496329999999944
11
163.856741999999997
21
-129.2133989999999812
0
LINE
8
BLACK
6
CONTINUOUS
10
163.856741999999997
20
-129.2133989999999812
11
163.6933149999999841
21
-129.2459069999999883
0
LINE
8
BLACK
6
CONTINUOUS
10
163.6933149999999841
20
-129.2459069999999883
11
163.5266849999999863
21
-129.2459069999999883
0
LINE
8
BLACK
6
CONTINUOUS
10
163.5266849999999863
20
-129.2459069999999883
11
163.3632580000000019
21
-129.2133989999999812
0
LINE
8
BLACK
6
CONTINUOUS
10
163.3632580000000019
20
-129.2133989999999812
11
163.2093129999999803
21
-129.1496329999999944
0
LINE
8
BLACK
6
CONTINUOUS
10
163.2093129999999803
20
-129.1496329999999944
11
163.0707659999999919
21
-129.0570589999999811
0
LINE
8
BLACK
6
CONTINUOUS
10
163.0707659999999919
20
-129.0570589999999811
11
162.9529409999999814
21
-128.939233999999999
0
LINE
8
BLACK
6
CONTINUOUS
10
162.9529409999999814
20
-128.939233999999999
11
162.8603669999999966
21
-128.8006869999999822
0
LINE
8
BLACK
6
CONTINUOUS
10
162.8603669999999966
20
-128.8006869999999822
11
162.7966009999999812
21
-128.646741999999989
0
LINE
8
BLACK
6
CONTINUOUS
10
162.7966009999999812
20
-128.646741999999989
11
162.7640930000000026
21
-128.4833150000000046
0
LINE
8
BLACK
6
CONTINUOUS
10
162.7640930000000026
20
-128.4833150000000046
11
162.7640930000000026
21
-128.3166850000000068
0
LINE
8
BLACK
6
CONTINUOUS
10
162.7640930000000026
20
-128.3166850000000068
11
162.7966009999999812
21
-128.1532579999999939
0
LINE
8
BLACK
6
CONTINUOUS
10
162.7966009999999812
20
-128.1532579999999939
11
162.8603669999999966
21
-127.9993130000000008
0
LINE
8
BLACK
6
CONTINUOUS
10
162.8603669999999966
20
-127.9993130000000008
11
162.9529409999999814
21
-127.8607659999999981
0
LINE
8
BLACK
6
CONTINUOUS
10
162.9529409999999814
20
-127.8607659999999981
11
163.0707659999999919
21
-127.7429409999999876
0
LINE
8
BLACK
6
CONTINUOUS
10
163.0707659999999919
20
-127.7429409999999876
11
163.2093129999999803
21
-127.6503669999999886
0
LINE
8
BLACK
6
CONTINUOUS
10
163.2093129999999803
20
-127.6503669999999886
11
163.3632580000000019
21
-127.5866009999999875
0
LINE
8
BLACK
6
CONTINUOUS
10
163.3632580000000019
20
-127.5866009999999875
11
163.5266849999999863
21
-127.5540929999999946
0
LINE
8
BLACK
6
CONTINUOUS
10
163.5266849999999863
20
-127.5540929999999946
11
163.6933149999999841
21
-127.5540929999999946
0
LINE
8
BLACK
6
CONTINUOUS
10
163.6933149999999841
20
-127.5540929999999946
11
163.856741999999997
21
-127.5866009999999875
0
LINE
8
BLACK
6
CONTINUOUS
10
166.396741999999989
20
-127.5866009999999875
11
166.5506869999999822
21
-127.6503669999999886
0
LINE
8
BLACK
6
CONTINUOUS
10
166.5506869999999822
20
-127.6503669999999886
11
166.689233999999999
21
-127.7429409999999876
0
LINE
8
BLACK
6
CONTINUOUS
10
166.689233999999999
20
-127.7429409999999876
11
166.8070589999999811
21
-127.8607659999999981
0
LINE
8
BLACK
6
CONTINUOUS
10
166.8070589999999811
20
-127.8607659999999981
11
166.8996329999999944
21
-127.9993130000000008
0
LINE
8
BLACK
6
CONTINUOUS
10
166.8996329999999944
20
-127.9993130000000008
11
166.9633989999999812
21
-128.1532579999999939
0
LINE
8
BLACK
6
CONTINUOUS
10
166.9633989999999812
20
-128.1532579999999939
11
166.9959069999999883
21
-128.3166850000000068
0
LINE
8
BLACK
6
CONTINUOUS
10
166.9959069999999883
20
-128.3166850000000068
11
166.9959069999999883
21
-128.4833150000000046
0
LINE
8
BLACK
6
CONTINUOUS
10
166.9959069999999883
20
-128.4833150000000046
11
166.9633989999999812
21
-128.646741999999989
0
LINE
8
BLACK
6
CONTINUOUS
10
166.9633989999999812
20
-128.646741999999989
11
166.8996329999999944
21
-128.8006869999999822
0
LINE
8
BLACK
6
CONTINUOUS
10
166.8996329999999944
20
-128.8006869999999822
11
166.8070589999999811
21
-128.939233999999999
0
LINE
8
BLACK
6
CONTINUOUS
10
166.8070589999999811
20
-128.939233999999999
11
166.689233999999999
21
-129.0570589999999811
0
LINE
8
BLACK
6
CONTINUOUS
10
166.689233999999999
20
-129.0570589999999811
11
166.5506869999999822
21
-129.1496329999999944
0
LINE
8
BLACK
6
CONTINUOUS
10
166.5506869999999822
20
-129.1496329999999944
11
166.396741999999989
21
-129.2133989999999812
0
LINE
8
BLACK
6
CONTINUOUS
10
166.396741999999989
20
-129.2133989999999812
11
166.2333150000000046
21
-129.2459069999999883
0
LINE
8
BLACK
6
CONTINUOUS
10
166.2333150000000046
20
-129.2459069999999883
11
166.0666849999999783
21
-129.2459069999999883
0
LINE
8
BLACK
6
CONTINUOUS
10
166.0666849999999783
20
-129.2459069999999883
11
165.9032579999999939
21
-129.2133989999999812
0
LINE
8
BLACK
6
CONTINUOUS
10
165.9032579999999939
20
-129.2133989999999812
11
165.7493130000000008
21
-129.1496329999999944
0
LINE
8
BLACK
6
CONTINUOUS
10
165.7493130000000008
20
-129.1496329999999944
11
165.6107659999999839
21
-129.0570589999999811
0
LINE
8
BLACK
6
CONTINUOUS
10
165.6107659999999839
20
-129.0570589999999811
11
165.4929410000000018
21
-128.939233999999999
0
LINE
8
BLACK
6
CONTINUOUS
10
165.4929410000000018
20
-128.939233999999999
11
165.4003669999999886
21
-128.8006869999999822
0
LINE
8
BLACK
6
CONTINUOUS
10
165.4003669999999886
20
-128.8006869999999822
11
165.3366010000000017
21
-128.646741999999989
0
LINE
8
BLACK
6
CONTINUOUS
10
165.3366010000000017
20
-128.646741999999989
11
165.3040929999999946
21
-128.4833150000000046
0
LINE
8
BLACK
6
CONTINUOUS
10
165.3040929999999946
20
-128.4833150000000046
11
165.3040929999999946
21
-128.3166850000000068
0
LINE
8
BLACK
6
CONTINUOUS
10
165.3040929999999946
20
-128.3166850000000068
11
165.3366010000000017
21
-128.1532579999999939
0
LINE
8
BLACK
6
CONTINUOUS
10
165.3366010000000017
20
-128.1532579999999939
11
165.4003669999999886
21
-127.9993130000000008
0
LINE
8
BLACK
6
CONTINUOUS
10
165.4003669999999886
20
-127.9993130000000008
11
165.4929410000000018
21
-127.8607659999999981
0
LINE
8
BLACK
6
CONTINUOUS
10
165.4929410000000018
20
-127.8607659999999981
11
165.6107659999999839
21
-127.7429409999999876
0
LINE
8
BLACK
6
CONTINUOUS
10
165.6107659999999839
20
-127.7429409999999876
11
165.7493130000000008
21
-127.6503669999999886
0
LINE
8
BLACK
6
CONTINUOUS
10
165.7493130000000008
20
-127.6503669999999886
11
165.9032579999999939
21
-127.5866009999999875
0
LINE
8
BLACK
6
CONTINUOUS
10
165.9032579999999939
20
-127.5866009999999875
11
166.0666849999999783
21
-127.5540929999999946
0
LINE
8
BLACK
6
CONTINUOUS
10
166.0666849999999783
20
-127.5540929999999946
11
166.2333150000000046
21
-127.5540929999999946
0
LINE
8
BLACK
6
CONTINUOUS
10
166.2333150000000046
20
-127.5540929999999946
11
166.396741999999989
21
-127.5866009999999875
0
LINE
8
BLACK
6
CONTINUOUS
10
162.6429179999999803
20
-123.9900559999999956
11
162.8447989999999947
21
-124.0302129999999892
0
LINE
8
BLACK
6
CONTINUOUS
10
162.8447989999999947
20
-124.0302129999999892
11
163.0349669999999946
21
-124.1089829999999949
0
LINE
8
BLACK
6
CONTINUOUS
10
163.0349669999999946
20
-124.1089829999999949
11
163.2061129999999878
21
-124.2233389999999957
0
LINE
8
BLACK
6
CONTINUOUS
10
163.2061129999999878
20
-124.2233389999999957
11
163.3516609999999787
21
-124.3688870000000009
0
LINE
8
BLACK
6
CONTINUOUS
10
163.3516609999999787
20
-124.3688870000000009
11
163.4660169999999937
21
-124.540032999999994
0
LINE
8
BLACK
6
CONTINUOUS
10
163.4660169999999937
20
-124.540032999999994
11
163.5447869999999853
21
-124.7302009999999939
0
LINE
8
BLACK
6
CONTINUOUS
10
163.5447869999999853
20
-124.7302009999999939
11
163.5849439999999788
21
-124.9320819999999941
0
LINE
8
BLACK
6
CONTINUOUS
10
163.5849439999999788
20
-124.9320819999999941
11
163.5849439999999788
21
-125.1379179999999991
0
LINE
8
BLACK
6
CONTINUOUS
10
163.5849439999999788
20
-125.1379179999999991
11
163.5447869999999853
21
-125.3397989999999993
0
LINE
8
BLACK
6
CONTINUOUS
10
163.5447869999999853
20
-125.3397989999999993
11
163.4660169999999937
21
-125.5299669999999992
0
LINE
8
BLACK
6
CONTINUOUS
10
163.4660169999999937
20
-125.5299669999999992
11
163.3516609999999787
21
-125.7011129999999923
0
LINE
8
BLACK
6
CONTINUOUS
10
163.3516609999999787
20
-125.7011129999999923
11
163.2061129999999878
21
-125.8466609999999974
0
LINE
8
BLACK
6
CONTINUOUS
10
163.2061129999999878
20
-125.8466609999999974
11
163.0349669999999946
21
-125.9610169999999982
0
LINE
8
BLACK
6
CONTINUOUS
10
163.0349669999999946
20
-125.9610169999999982
11
162.8447989999999947
21
-126.0397869999999898
0
LINE
8
BLACK
6
CONTINUOUS
10
162.8447989999999947
20
-126.0397869999999898
11
162.6429179999999803
21
-126.0799439999999976
0
LINE
8
BLACK
6
CONTINUOUS
10
162.6429179999999803
20
-126.0799439999999976
11
162.539999999999992
21
-126.0849999999999937
0
LINE
8
BLACK
6
CONTINUOUS
10
162.539999999999992
20
-126.0849999999999937
11
162.1399999999999864
21
-126.0849999999999937
0
LINE
8
BLACK
6
CONTINUOUS
10
162.1399999999999864
20
-126.0849999999999937
11
162.0370819999999981
21
-126.0799439999999976
0
LINE
8
BLACK
6
CONTINUOUS
10
162.0370819999999981
20
-126.0799439999999976
11
161.8352009999999837
21
-126.0397869999999898
0
LINE
8
BLACK
6
CONTINUOUS
10
161.8352009999999837
20
-126.0397869999999898
11
161.6450329999999838
21
-125.9610169999999982
0
LINE
8
BLACK
6
CONTINUOUS
10
161.6450329999999838
20
-125.9610169999999982
11
161.4738869999999906
21
-125.8466609999999974
0
LINE
8
BLACK
6
CONTINUOUS
10
161.4738869999999906
20
-125.8466609999999974
11
161.3283389999999997
21
-125.7011129999999923
0
LINE
8
BLACK
6
CONTINUOUS
10
161.3283389999999997
20
-125.7011129999999923
11
161.2139829999999847
21
-125.5299669999999992
0
LINE
8
BLACK
6
CONTINUOUS
10
161.2139829999999847
20
-125.5299669999999992
11
161.1352129999999931
21
-125.3397989999999993
0
LINE
8
BLACK
6
CONTINUOUS
10
161.1352129999999931
20
-125.3397989999999993
11
161.0950559999999996
21
-125.1379179999999991
0
LINE
8
BLACK
6
CONTINUOUS
10
161.0950559999999996
20
-125.1379179999999991
11
161.0950559999999996
21
-124.9320819999999941
0
LINE
8
BLACK
6
CONTINUOUS
10
161.0950559999999996
20
-124.9320819999999941
11
161.1352129999999931
21
-124.7302009999999939
0
LINE
8
BLACK
6
CONTINUOUS
10
161.1352129999999931
20
-124.7302009999999939
11
161.2139829999999847
21
-124.540032999999994
0
LINE
8
BLACK
6
CONTINUOUS
10
161.2139829999999847
20
-124.540032999999994
11
161.3283389999999997
21
-124.3688870000000009
0
LINE
8
BLACK
6
CONTINUOUS
10
161.3283389999999997
20
-124.3688870000000009
11
161.4738869999999906
21
-124.2233389999999957
0
LINE
8
BLACK
6
CONTINUOUS
10
161.4738869999999906
20
-124.2233389999999957
11
161.6450329999999838
21
-124.1089829999999949
0
LINE
8
BLACK
6
CONTINUOUS
10
161.6450329999999838
20
-124.1089829999999949
11
161.8352009999999837
21
-124.0302129999999892
0
LINE
8
BLACK
6
CONTINUOUS
10
161.8352009999999837
20
-124.0302129999999892
11
162.0370819999999981
21
-123.9900559999999956
0
LINE
8
BLACK
6
CONTINUOUS
10
162.0370819999999981
20
-123.9900559999999956
11
162.1399999999999864
21
-123.9849999999999994
0
LINE
8
BLACK
6
CONTINUOUS
10
162.1399999999999864
20
-123.9849999999999994
11
162.539999999999992
21
-123.9849999999999994
0
LINE
8
BLACK
6
CONTINUOUS
10
162.539999999999992
20
-123.9849999999999994
11
162.6429179999999803
21
-123.9900559999999956
0
LINE
8
BLACK
6
CONTINUOUS
10
170.9668000000000063
20
-123.9961809999999929
11
171.0700799999999902
21
-124.0443409999999886
0
LINE
8
BLACK
6
CONTINUOUS
10
171.0700799999999902
20
-124.0443409999999886
11
171.1506589999999903
21
-124.1249199999999888
0
LINE
8
BLACK
6
CONTINUOUS
10
171.1506589999999903
20
-124.1249199999999888
11
171.1988189999999861
21
-124.2282000000000011
0
LINE
8
BLACK
6
CONTINUOUS
10
171.1988189999999861
20
-124.2282000000000011
11
171.2099989999999821
21
-124.3131259999999969
0
LINE
8
BLACK
6
CONTINUOUS
10
171.2099989999999821
20
-124.3131259999999969
11
171.2099999999999795
21
-125.7568749999999937
0
LINE
8
BLACK
6
CONTINUOUS
10
171.2099999999999795
20
-125.7568749999999937
11
171.1988189999999861
21
-125.8417999999999921
0
LINE
8
BLACK
6
CONTINUOUS
10
171.1988189999999861
20
-125.8417999999999921
11
171.1506589999999903
21
-125.9450799999999902
0
LINE
8
BLACK
6
CONTINUOUS
10
171.1506589999999903
20
-125.9450799999999902
11
171.0700799999999902
21
-126.0256589999999903
0
LINE
8
BLACK
6
CONTINUOUS
10
171.0700799999999902
20
-126.0256589999999903
11
170.9668000000000063
21
-126.0738190000000003
0
LINE
8
BLACK
6
CONTINUOUS
10
170.9668000000000063
20
-126.0738190000000003
11
170.8818739999999821
21
-126.0849989999999963
0
LINE
8
BLACK
6
CONTINUOUS
10
170.8818739999999821
20
-126.0849989999999963
11
169.0381249999999795
21
-126.0849999999999937
0
LINE
8
BLACK
6
CONTINUOUS
10
169.0381249999999795
20
-126.0849999999999937
11
168.9531999999999812
21
-126.0738190000000003
0
LINE
8
BLACK
6
CONTINUOUS
10
168.9531999999999812
20
-126.0738190000000003
11
168.8499199999999973
21
-126.0256589999999903
0
LINE
8
BLACK
6
CONTINUOUS
10
168.8499199999999973
20
-126.0256589999999903
11
168.7693409999999972
21
-125.9450799999999902
0
LINE
8
BLACK
6
CONTINUOUS
10
168.7693409999999972
20
-125.9450799999999902
11
168.7211810000000014
21
-125.8417999999999921
0
LINE
8
BLACK
6
CONTINUOUS
10
168.7211810000000014
20
-125.8417999999999921
11
168.7100010000000054
21
-125.7568739999999963
0
LINE
8
BLACK
6
CONTINUOUS
10
168.7100010000000054
20
-125.7568739999999963
11
168.7099999999999795
21
-124.3131249999999994
0
LINE
8
BLACK
6
CONTINUOUS
10
168.7099999999999795
20
-124.3131249999999994
11
168.7211810000000014
21
-124.2282000000000011
0
LINE
8
BLACK
6
CONTINUOUS
10
168.7211810000000014
20
-124.2282000000000011
11
168.7693409999999972
21
-124.1249199999999888
0
LINE
8
BLACK
6
CONTINUOUS
10
168.7693409999999972
20
-124.1249199999999888
11
168.8499199999999973
21
-124.0443409999999886
0
LINE
8
BLACK
6
CONTINUOUS
10
168.8499199999999973
20
-124.0443409999999886
11
168.9531999999999812
21
-123.9961809999999929
0
LINE
8
BLACK
6
CONTINUOUS
10
168.9531999999999812
20
-123.9961809999999929
11
169.0381260000000054
21
-123.9850009999999969
0
LINE
8
BLACK
6
CONTINUOUS
10
169.0381260000000054
20
-123.9850009999999969
11
170.8818749999999795
21
-123.9849999999999994
0
LINE
8
BLACK
6
CONTINUOUS
10
170.8818749999999795
20
-123.9849999999999994
11
170.9668000000000063
21
-123.9961809999999929
0
LINE
8
BLACK
6
CONTINUOUS
10
162.6429179999999803
20
-121.4500559999999894
11
162.8447989999999947
21
-121.4902129999999971
0
LINE
8
BLACK
6
CONTINUOUS
10
162.8447989999999947
20
-121.4902129999999971
11
163.0349669999999946
21
-121.5689829999999887
0
LINE
8
BLACK
6
CONTINUOUS
10
163.0349669999999946
20
-121.5689829999999887
11
163.2061129999999878
21
-121.6833389999999895
0
LINE
8
BLACK
6
CONTINUOUS
10
163.2061129999999878
20
-121.6833389999999895
11
163.3516609999999787
21
-121.8288869999999946
0
LINE
8
BLACK
6
CONTINUOUS
10
163.3516609999999787
20
-121.8288869999999946
11
163.4660169999999937
21
-122.0000329999999877
0
LINE
8
BLACK
6
CONTINUOUS
10
163.4660169999999937
20
-122.0000329999999877
11
163.5447869999999853
21
-122.1902009999999876
0
LINE
8
BLACK
6
CONTINUOUS
10
163.5447869999999853
20
-122.1902009999999876
11
163.5849439999999788
21
-122.3920819999999878
0
LINE
8
BLACK
6
CONTINUOUS
10
163.5849439999999788
20
-122.3920819999999878
11
163.5849439999999788
21
-122.5979179999999928
0
LINE
8
BLACK
6
CONTINUOUS
10
163.5849439999999788
20
-122.5979179999999928
11
163.5447869999999853
21
-122.799798999999993
0
LINE
8
BLACK
6
CONTINUOUS
10
163.5447869999999853
20
-122.799798999999993
11
163.4660169999999937
21
-122.9899669999999929
0
LINE
8
BLACK
6
CONTINUOUS
10
163.4660169999999937
20
-122.9899669999999929
11
163.3516609999999787
21
-123.1611130000000003
0
LINE
8
BLACK
6
CONTINUOUS
10
163.3516609999999787
20
-123.1611130000000003
11
163.2061129999999878
21
-123.3066609999999912
0
LINE
8
BLACK
6
CONTINUOUS
10
163.2061129999999878
20
-123.3066609999999912
11
163.0349669999999946
21
-123.421016999999992
0
LINE
8
BLACK
6
CONTINUOUS
10
163.0349669999999946
20
-123.421016999999992
11
162.8447989999999947
21
-123.4997869999999978
0
LINE
8
BLACK
6
CONTINUOUS
10
162.8447989999999947
20
-123.4997869999999978
11
162.6429179999999803
21
-123.5399439999999913
0
LINE
8
BLACK
6
CONTINUOUS
10
162.6429179999999803
20
-123.5399439999999913
11
162.539999999999992
21
-123.5449999999999875
0
LINE
8
BLACK
6
CONTINUOUS
10
162.539999999999992
20
-123.5449999999999875
11
162.1399999999999864
21
-123.5449999999999875
0
LINE
8
BLACK
6
CONTINUOUS
10
162.1399999999999864
20
-123.5449999999999875
11
162.0370819999999981
21
-123.5399439999999913
0
LINE
8
BLACK
6
CONTINUOUS
10
162.0370819999999981
20
-123.5399439999999913
11
161.8352009999999837
21
-123.4997869999999978
0
LINE
8
BLACK
6
CONTINUOUS
10
161.8352009999999837
20
-123.4997869999999978
11
161.6450329999999838
21
-123.421016999999992
0
LINE
8
BLACK
6
CONTINUOUS
10
161.6450329999999838
20
-123.421016999999992
11
161.4738869999999906
21
-123.3066609999999912
0
LINE
8
BLACK
6
CONTINUOUS
10
161.4738869999999906
20
-123.3066609999999912
11
161.3283389999999997
21
-123.1611130000000003
0
LINE
8
BLACK
6
CONTINUOUS
10
161.3283389999999997
20
-123.1611130000000003
11
161.2139829999999847
21
-122.9899669999999929
0
LINE
8
BLACK
6
CONTINUOUS
10
161.2139829999999847
20
-122.9899669999999929
11
161.1352129999999931
21
-122.799798999999993
0
LINE
8
BLACK
6
CONTINUOUS
10
161.1352129999999931
20
-122.799798999999993
11
161.0950559999999996
21
-122.5979179999999928
0
LINE
8
BLACK
6
CONTINUOUS
10
161.0950559999999996
20
-122.5979179999999928
11
161.0950559999999996
21
-122.3920819999999878
0
LINE
8
BLACK
6
CONTINUOUS
10
161.0950559999999996
20
-122.3920819999999878
11
161.1352129999999931
21
-122.1902009999999876
0
LINE
8
BLACK
6
CONTINUOUS
10
161.1352129999999931
20
-122.1902009999999876
11
161.2139829999999847
21
-122.0000329999999877
0
LINE
8
BLACK
6
CONTINUOUS
10
161.2139829999999847
20
-122.0000329999999877
11
161.3283389999999997
21
-121.8288869999999946
0
LINE
8
BLACK
6
CONTINUOUS
10
161.3283389999999997
20
-121.8288869999999946
11
161.4738869999999906
21
-121.6833389999999895
0
LINE
8
BLACK
6
CONTINUOUS
10
161.4738869999999906
20
-121.6833389999999895
11
161.6450329999999838
21
-121.5689829999999887
0
LINE
8
BLACK
6
CONTINUOUS
10
161.6450329999999838
20
-121.5689829999999887
11
161.8352009999999837
21
-121.4902129999999971
0
LINE
8
BLACK
6
CONTINUOUS
10
161.8352009999999837
20
-121.4902129999999971
11
162.0370819999999981
21
-121.4500559999999894
0
LINE
8
BLACK
6
CONTINUOUS
10
162.0370819999999981
20
-121.4500559999999894
11
162.1399999999999864
21
-121.4449999999999932
0
LINE
8
BLACK
6
CONTINUOUS
10
162.1399999999999864
20
-121.4449999999999932
11
162.539999999999992
21
-121.4449999999999932
0
LINE
8
BLACK
6
CONTINUOUS
10
162.539999999999992
20
-121.4449999999999932
11
162.6429179999999803
21
-121.4500559999999894
0
LINE
8
BLACK
6
CONTINUOUS
10
170.2629179999999849
20
-121.4500559999999894
11
170.4647989999999993
21
-121.4902129999999971
0
LINE
8
BLACK
6
CONTINUOUS
10
170.4647989999999993
20
-121.4902129999999971
11
170.6549669999999992
21
-121.5689829999999887
0
LINE
8
BLACK
6
CONTINUOUS
10
170.6549669999999992
20
-121.5689829999999887
11
170.8261129999999923
21
-121.6833389999999895
0
LINE
8
BLACK
6
CONTINUOUS
10
170.8261129999999923
20
-121.6833389999999895
11
170.9716609999999832
21
-121.8288869999999946
0
LINE
8
BLACK
6
CONTINUOUS
10
170.9716609999999832
20
-121.8288869999999946
11
171.0860169999999982
21
-122.0000329999999877
0
LINE
8
BLACK
6
CONTINUOUS
10
171.0860169999999982
20
-122.0000329999999877
11
171.1647869999999898
21
-122.1902009999999876
0
LINE
8
BLACK
6
CONTINUOUS
10
171.1647869999999898
20
-122.1902009999999876
11
171.2049439999999834
21
-122.3920819999999878
0
LINE
8
BLACK
6
CONTINUOUS
10
171.2049439999999834
20
-122.3920819999999878
11
171.2049439999999834
21
-122.5979179999999928
0
LINE
8
BLACK
6
CONTINUOUS
10
171.2049439999999834
20
-122.5979179999999928
11
171.1647869999999898
21
-122.799798999999993
0
LINE
8
BLACK
6
CONTINUOUS
10
171.1647869999999898
20
-122.799798999999993
11
171.0860169999999982
21
-122.9899669999999929
0
LINE
8
BLACK
6
CONTINUOUS
10
171.0860169999999982
20
-122.9899669999999929
11
170.9716609999999832
21
-123.1611130000000003
0
LINE
8
BLACK
6
CONTINUOUS
10
170.9716609999999832
20
-123.1611130000000003
11
170.8261129999999923
21
-123.3066609999999912
0
LINE
8
BLACK
6
CONTINUOUS
10
170.8261129999999923
20
-123.3066609999999912
11
170.6549669999999992
21
-123.421016999999992
0
LINE
8
BLACK
6
CONTINUOUS
10
170.6549669999999992
20
-123.421016999999992
11
170.4647989999999993
21
-123.4997869999999978
0
LINE
8
BLACK
6
CONTINUOUS
10
170.4647989999999993
20
-123.4997869999999978
11
170.2629179999999849
21
-123.5399439999999913
0
LINE
8
BLACK
6
CONTINUOUS
10
170.2629179999999849
20
-123.5399439999999913
11
170.1599999999999966
21
-123.5449999999999875
0
LINE
8
BLACK
6
CONTINUOUS
10
170.1599999999999966
20
-123.5449999999999875
11
169.7599999999999909
21
-123.5449999999999875
0
LINE
8
BLACK
6
CONTINUOUS
10
169.7599999999999909
20
-123.5449999999999875
11
169.6570820000000026
21
-123.5399439999999913
0
LINE
8
BLACK
6
CONTINUOUS
10
169.6570820000000026
20
-123.5399439999999913
11
169.4552009999999882
21
-123.4997869999999978
0
LINE
8
BLACK
6
CONTINUOUS
10
169.4552009999999882
20
-123.4997869999999978
11
169.2650329999999883
21
-123.421016999999992
0
LINE
8
BLACK
6
CONTINUOUS
10
169.2650329999999883
20
-123.421016999999992
11
169.0938869999999952
21
-123.3066609999999912
0
LINE
8
BLACK
6
CONTINUOUS
10
169.0938869999999952
20
-123.3066609999999912
11
168.9483390000000043
21
-123.1611130000000003
0
LINE
8
BLACK
6
CONTINUOUS
10
168.9483390000000043
20
-123.1611130000000003
11
168.8339829999999893
21
-122.9899669999999929
0
LINE
8
BLACK
6
CONTINUOUS
10
168.8339829999999893
20
-122.9899669999999929
11
168.7552129999999977
21
-122.799798999999993
0
LINE
8
BLACK
6
CONTINUOUS
10
168.7552129999999977
20
-122.799798999999993
11
168.7150560000000041
21
-122.5979179999999928
0
LINE
8
BLACK
6
CONTINUOUS
10
168.7150560000000041
20
-122.5979179999999928
11
168.7150560000000041
21
-122.3920819999999878
0
LINE
8
BLACK
6
CONTINUOUS
10
168.7150560000000041
20
-122.3920819999999878
11
168.7552129999999977
21
-122.1902009999999876
0
LINE
8
BLACK
6
CONTINUOUS
10
168.7552129999999977
20
-122.1902009999999876
11
168.8339829999999893
21
-122.0000329999999877
0
LINE
8
BLACK
6
CONTINUOUS
10
168.8339829999999893
20
-122.0000329999999877
11
168.9483390000000043
21
-121.8288869999999946
0
LINE
8
BLACK
6
CONTINUOUS
10
168.9483390000000043
20
-121.8288869999999946
11
169.0938869999999952
21
-121.6833389999999895
0
LINE
8
BLACK
6
CONTINUOUS
10
169.0938869999999952
20
-121.6833389999999895
11
169.2650329999999883
21
-121.5689829999999887
0
LINE
8
BLACK
6
CONTINUOUS
10
169.2650329999999883
20
-121.5689829999999887
11
169.4552009999999882
21
-121.4902129999999971
0
LINE
8
BLACK
6
CONTINUOUS
10
169.4552009999999882
20
-121.4902129999999971
11
169.6570820000000026
21
-121.4500559999999894
0
LINE
8
BLACK
6
CONTINUOUS
10
169.6570820000000026
20
-121.4500559999999894
11
169.7599999999999909
21
-121.4449999999999932
0
LINE
8
BLACK
6
CONTINUOUS
10
169.7599999999999909
20
-121.4449999999999932
11
170.1599999999999966
21
-121.4449999999999932
0
LINE
8
BLACK
6
CONTINUOUS
10
170.1599999999999966
20
-121.4449999999999932
11
170.2629179999999849
21
-121.4500559999999894
0
LINE
8
BLACK
6
CONTINUOUS
10
162.6429179999999803
20
-118.9100559999999973
11
162.8447989999999947
21
-118.9502129999999909
0
LINE
8
BLACK
6
CONTINUOUS
10
162.8447989999999947
20
-118.9502129999999909
11
163.0349669999999946
21
-119.0289829999999967
0
LINE
8
BLACK
6
CONTINUOUS
10
163.0349669999999946
20
-119.0289829999999967
11
163.2061129999999878
21
-119.1433389999999974
0
LINE
8
BLACK
6
CONTINUOUS
10
163.2061129999999878
20
-119.1433389999999974
11
163.3516609999999787
21
-119.2888869999999883
0
LINE
8
BLACK
6
CONTINUOUS
10
163.3516609999999787
20
-119.2888869999999883
11
163.4660169999999937
21
-119.4600329999999957
0
LINE
8
BLACK
6
CONTINUOUS
10
163.4660169999999937
20
-119.4600329999999957
11
163.5447869999999853
21
-119.6502009999999956
0
LINE
8
BLACK
6
CONTINUOUS
10
163.5447869999999853
20
-119.6502009999999956
11
163.5849439999999788
21
-119.8520819999999958
0
LINE
8
BLACK
6
CONTINUOUS
10
163.5849439999999788
20
-119.8520819999999958
11
163.5849439999999788
21
-120.0579180000000008
0
LINE
8
BLACK
6
CONTINUOUS
10
163.5849439999999788
20
-120.0579180000000008
11
163.5447869999999853
21
-120.259799000000001
0
LINE
8
BLACK
6
CONTINUOUS
10
163.5447869999999853
20
-120.259799000000001
11
163.4660169999999937
21
-120.4499670000000009
0
LINE
8
BLACK
6
CONTINUOUS
10
163.4660169999999937
20
-120.4499670000000009
11
163.3516609999999787
21
-120.621112999999994
0
LINE
8
BLACK
6
CONTINUOUS
10
163.3516609999999787
20
-120.621112999999994
11
163.2061129999999878
21
-120.7666609999999991
0
LINE
8
BLACK
6
CONTINUOUS
10
163.2061129999999878
20
-120.7666609999999991
11
163.0349669999999946
21
-120.8810169999999999
0
LINE
8
BLACK
6
CONTINUOUS
10
163.0349669999999946
20
-120.8810169999999999
11
162.8447989999999947
21
-120.9597869999999915
0
LINE
8
BLACK
6
CONTINUOUS
10
162.8447989999999947
20
-120.9597869999999915
11
162.6429179999999803
21
-120.9999439999999993
0
LINE
8
BLACK
6
CONTINUOUS
10
162.6429179999999803
20
-120.9999439999999993
11
162.539999999999992
21
-121.0049999999999955
0
LINE
8
BLACK
6
CONTINUOUS
10
162.539999999999992
20
-121.0049999999999955
11
162.1399999999999864
21
-121.0049999999999955
0
LINE
8
BLACK
6
CONTINUOUS
10
162.1399999999999864
20
-121.0049999999999955
11
162.0370819999999981
21
-120.9999439999999993
0
LINE
8
BLACK
6
CONTINUOUS
10
162.0370819999999981
20
-120.9999439999999993
11
161.8352009999999837
21
-120.9597869999999915
0
LINE
8
BLACK
6
CONTINUOUS
10
161.8352009999999837
20
-120.9597869999999915
11
161.6450329999999838
21
-120.8810169999999999
0
LINE
8
BLACK
6
CONTINUOUS
10
161.6450329999999838
20
-120.8810169999999999
11
161.4738869999999906
21
-120.7666609999999991
0
LINE
8
BLACK
6
CONTINUOUS
10
161.4738869999999906
20
-120.7666609999999991
11
161.3283389999999997
21
-120.621112999999994
0
LINE
8
BLACK
6
CONTINUOUS
10
161.3283389999999997
20
-120.621112999999994
11
161.2139829999999847
21
-120.4499670000000009
0
LINE
8
BLACK
6
CONTINUOUS
10
161.2139829999999847
20
-120.4499670000000009
11
161.1352129999999931
21
-120.259799000000001
0
LINE
8
BLACK
6
CONTINUOUS
10
161.1352129999999931
20
-120.259799000000001
11
161.0950559999999996
21
-120.0579180000000008
0
LINE
8
BLACK
6
CONTINUOUS
10
161.0950559999999996
20
-120.0579180000000008
11
161.0950559999999996
21
-119.8520819999999958
0
LINE
8
BLACK
6
CONTINUOUS
10
161.0950559999999996
20
-119.8520819999999958
11
161.1352129999999931
21
-119.6502009999999956
0
LINE
8
BLACK
6
CONTINUOUS
10
161.1352129999999931
20
-119.6502009999999956
11
161.2139829999999847
21
-119.4600329999999957
0
LINE
8
BLACK
6
CONTINUOUS
10
161.2139829999999847
20
-119.4600329999999957
11
161.3283389999999997
21
-119.2888869999999883
0
LINE
8
BLACK
6
CONTINUOUS
10
161.3283389999999997
20
-119.2888869999999883
11
161.4738869999999906
21
-119.1433389999999974
0
LINE
8
BLACK
6
CONTINUOUS
10
161.4738869999999906
20
-119.1433389999999974
11
161.6450329999999838
21
-119.0289829999999967
0
LINE
8
BLACK
6
CONTINUOUS
10
161.6450329999999838
20
-119.0289829999999967
11
161.8352009999999837
21
-118.9502129999999909
0
LINE
8
BLACK
6
CONTINUOUS
10
161.8352009999999837
20
-118.9502129999999909
11
162.0370819999999981
21
-118.9100559999999973
0
LINE
8
BLACK
6
CONTINUOUS
10
162.0370819999999981
20
-118.9100559999999973
11
162.1399999999999864
21
-118.9050000000000011
0
LINE
8
BLACK
6
CONTINUOUS
10
162.1399999999999864
20
-118.9050000000000011
11
162.539999999999992
21
-118.9050000000000011
0
LINE
8
BLACK
6
CONTINUOUS
10
162.539999999999992
20
-118.9050000000000011
11
162.6429179999999803
21
-118.9100559999999973
0
LINE
8
BLACK
6
CONTINUOUS
10
170.2629179999999849
20
-118.9100559999999973
11
170.4647989999999993
21
-118.9502129999999909
0
LINE
8
BLACK
6
CONTINUOUS
10
170.4647989999999993
20
-118.9502129999999909
11
170.6549669999999992
21
-119.0289829999999967
0
LINE
8
BLACK
6
CONTINUOUS
10
170.6549669999999992
20
-119.0289829999999967
11
170.8261129999999923
21
-119.1433389999999974
0
LINE
8
BLACK
6
CONTINUOUS
10
170.8261129999999923
20
-119.1433389999999974
11
170.9716609999999832
21
-119.2888869999999883
0
LINE
8
BLACK
6
CONTINUOUS
10
170.9716609999999832
20
-119.2888869999999883
11
171.0860169999999982
21
-119.4600329999999957
0
LINE
8
BLACK
6
CONTINUOUS
10
171.0860169999999982
20
-119.4600329999999957
11
171.1647869999999898
21
-119.6502009999999956
0
LINE
8
BLACK
6
CONTINUOUS
10
171.1647869999999898
20
-119.6502009999999956
11
171.2049439999999834
21
-119.8520819999999958
0
LINE
8
BLACK
6
CONTINUOUS
10
171.2049439999999834
20
-119.8520819999999958
11
171.2049439999999834
21
-120.0579180000000008
0
LINE
8
BLACK
6
CONTINUOUS
10
171.2049439999999834
20
-120.0579180000000008
11
171.1647869999999898
21
-120.259799000000001
0
LINE
8
BLACK
6
CONTINUOUS
10
171.1647869999999898
20
-120.259799000000001
11
171.0860169999999982
21
-120.4499670000000009
0
LINE
8
BLACK
6
CONTINUOUS
10
171.0860169999999982
20
-120.4499670000000009
11
170.9716609999999832
21
-120.621112999999994
0
LINE
8
BLACK
6
CONTINUOUS
10
170.9716609999999832
20
-120.621112999999994
11
170.8261129999999923
21
-120.7666609999999991
0
LINE
8
BLACK
6
CONTINUOUS
10
170.8261129999999923
20
-120.7666609999999991
11
170.6549669999999992
21
-120.8810169999999999
0
LINE
8
BLACK
6
CONTINUOUS
10
170.6549669999999992
20
-120.8810169999999999
11
170.4647989999999993
21
-120.9597869999999915
0
LINE
8
BLACK
6
CONTINUOUS
10
170.4647989999999993
20
-120.9597869999999915
11
170.2629179999999849
21
-120.9999439999999993
0
LINE
8
BLACK
6
CONTINUOUS
10
170.2629179999999849
20
-120.9999439999999993
11
170.1599999999999966
21
-121.0049999999999955
0
LINE
8
BLACK
6
CONTINUOUS
10
170.1599999999999966
20
-121.0049999999999955
11
169.7599999999999909
21
-121.0049999999999955
0
LINE
8
BLACK
6
CONTINUOUS
10
169.7599999999999909
20
-121.0049999999999955
11
169.6570820000000026
21
-120.9999439999999993
0
LINE
8
BLACK
6
CONTINUOUS
10
169.6570820000000026
20
-120.9999439999999993
11
169.4552009999999882
21
-120.9597869999999915
0
LINE
8
BLACK
6
CONTINUOUS
10
169.4552009999999882
20
-120.9597869999999915
11
169.2650329999999883
21
-120.8810169999999999
0
LINE
8
BLACK
6
CONTINUOUS
10
169.2650329999999883
20
-120.8810169999999999
11
169.0938869999999952
21
-120.7666609999999991
0
LINE
8
BLACK
6
CONTINUOUS
10
169.0938869999999952
20
-120.7666609999999991
11
168.9483390000000043
21
-120.621112999999994
0
LINE
8
BLACK
6
CONTINUOUS
10
168.9483390000000043
20
-120.621112999999994
11
168.8339829999999893
21
-120.4499670000000009
0
LINE
8
BLACK
6
CONTINUOUS
10
168.8339829999999893
20
-120.4499670000000009
11
168.7552129999999977
21
-120.259799000000001
0
LINE
8
BLACK
6
CONTINUOUS
10
168.7552129999999977
20
-120.259799000000001
11
168.7150560000000041
21
-120.0579180000000008
0
LINE
8
BLACK
6
CONTINUOUS
10
168.7150560000000041
20
-120.0579180000000008
11
168.7150560000000041
21
-119.8520819999999958
0
LINE
8
BLACK
6
CONTINUOUS
10
168.7150560000000041
20
-119.8520819999999958
11
168.7552129999999977
21
-119.6502009999999956
0
LINE
8
BLACK
6
CONTINUOUS
10
168.7552129999999977
20
-119.6502009999999956
11
168.8339829999999893
21
-119.4600329999999957
0
LINE
8
BLACK
6
CONTINUOUS
10
168.8339829999999893
20
-119.4600329999999957
11
168.9483390000000043
21
-119.2888869999999883
0
LINE
8
BLACK
6
CONTINUOUS
10
168.9483390000000043
20
-119.2888869999999883
11
169.0938869999999952
21
-119.1433389999999974
0
LINE
8
BLACK
6
CONTINUOUS
10
169.0938869999999952
20
-119.1433389999999974
11
169.2650329999999883
21
-119.0289829999999967
0
LINE
8
BLACK
6
CONTINUOUS
10
169.2650329999999883
20
-119.0289829999999967
11
169.4552009999999882
21
-118.9502129999999909
0
LINE
8
BLACK
6
CONTINUOUS
10
169.4552009999999882
20
-118.9502129999999909
11
169.6570820000000026
21
-118.9100559999999973
0
LINE
8
BLACK
6
CONTINUOUS
10
169.6570820000000026
20
-118.9100559999999973
11
169.7599999999999909
21
-118.9050000000000011
0
LINE
8
BLACK
6
CONTINUOUS
10
169.7599999999999909
20
-118.9050000000000011
11
170.1599999999999966
21
-118.9050000000000011
0
LINE
8
BLACK
6
CONTINUOUS
10
170.1599999999999966
20
-118.9050000000000011
11
170.2629179999999849
21
-118.9100559999999973
0
LINE
8
BLACK
6
CONTINUOUS
10
162.6429179999999803
20
-116.3700559999999911
11
162.8447989999999947
21
-116.4102129999999988
0
LINE
8
BLACK
6
CONTINUOUS
10
162.8447989999999947
20
-116.4102129999999988
11
163.0349669999999946
21
-116.4889829999999904
0
LINE
8
BLACK
6
CONTINUOUS
10
163.0349669999999946
20
-116.4889829999999904
11
163.2061129999999878
21
-116.6033389999999912
0
LINE
8
BLACK
6
CONTINUOUS
10
163.2061129999999878
20
-116.6033389999999912
11
163.3516609999999787
21
-116.7488869999999963
0
LINE
8
BLACK
6
CONTINUOUS
10
163.3516609999999787
20
-116.7488869999999963
11
163.4660169999999937
21
-116.9200329999999894
0
LINE
8
BLACK
6
CONTINUOUS
10
163.4660169999999937
20
-116.9200329999999894
11
163.5447869999999853
21
-117.1102009999999893
0
LINE
8
BLACK
6
CONTINUOUS
10
163.5447869999999853
20
-117.1102009999999893
11
163.5849439999999788
21
-117.3120819999999895
0
LINE
8
BLACK
6
CONTINUOUS
10
163.5849439999999788
20
-117.3120819999999895
11
163.5849439999999788
21
-117.5179179999999945
0
LINE
8
BLACK
6
CONTINUOUS
10
163.5849439999999788
20
-117.5179179999999945
11
163.5447869999999853
21
-117.7197989999999947
0
LINE
8
BLACK
6
CONTINUOUS
10
163.5447869999999853
20
-117.7197989999999947
11
163.4660169999999937
21
-117.9099669999999946
0
LINE
8
BLACK
6
CONTINUOUS
10
163.4660169999999937
20
-117.9099669999999946
11
163.3516609999999787
21
-118.0811129999999878
0
LINE
8
BLACK
6
CONTINUOUS
10
163.3516609999999787
20
-118.0811129999999878
11
163.2061129999999878
21
-118.2266609999999929
0
LINE
8
BLACK
6
CONTINUOUS
10
163.2061129999999878
20
-118.2266609999999929
11
163.0349669999999946
21
-118.3410169999999937
0
LINE
8
BLACK
6
CONTINUOUS
10
163.0349669999999946
20
-118.3410169999999937
11
162.8447989999999947
21
-118.4197869999999995
0
LINE
8
BLACK
6
CONTINUOUS
10
162.8447989999999947
20
-118.4197869999999995
11
162.6429179999999803
21
-118.459943999999993
0
LINE
8
BLACK
6
CONTINUOUS
10
162.6429179999999803
20
-118.459943999999993
11
162.539999999999992
21
-118.4649999999999892
0
LINE
8
BLACK
6
CONTINUOUS
10
162.539999999999992
20
-118.4649999999999892
11
162.1399999999999864
21
-118.4649999999999892
0
LINE
8
BLACK
6
CONTINUOUS
10
162.1399999999999864
20
-118.4649999999999892
11
162.0370819999999981
21
-118.459943999999993
0
LINE
8
BLACK
6
CONTINUOUS
10
162.0370819999999981
20
-118.459943999999993
11
161.8352009999999837
21
-118.4197869999999995
0
LINE
8
BLACK
6
CONTINUOUS
10
161.8352009999999837
20
-118.4197869999999995
11
161.6450329999999838
21
-118.3410169999999937
0
LINE
8
BLACK
6
CONTINUOUS
10
161.6450329999999838
20
-118.3410169999999937
11
161.4738869999999906
21
-118.2266609999999929
0
LINE
8
BLACK
6
CONTINUOUS
10
161.4738869999999906
20
-118.2266609999999929
11
161.3283389999999997
21
-118.0811129999999878
0
LINE
8
BLACK
6
CONTINUOUS
10
161.3283389999999997
20
-118.0811129999999878
11
161.2139829999999847
21
-117.9099669999999946
0
LINE
8
BLACK
6
CONTINUOUS
10
161.2139829999999847
20
-117.9099669999999946
11
161.1352129999999931
21
-117.7197989999999947
0
LINE
8
BLACK
6
CONTINUOUS
10
161.1352129999999931
20
-117.7197989999999947
11
161.0950559999999996
21
-117.5179179999999945
0
LINE
8
BLACK
6
CONTINUOUS
10
161.0950559999999996
20
-117.5179179999999945
11
161.0950559999999996
21
-117.3120819999999895
0
LINE
8
BLACK
6
CONTINUOUS
10
161.0950559999999996
20
-117.3120819999999895
11
161.1352129999999931
21
-117.1102009999999893
0
LINE
8
BLACK
6
CONTINUOUS
10
161.1352129999999931
20
-117.1102009999999893
11
161.2139829999999847
21
-116.9200329999999894
0
LINE
8
BLACK
6
CONTINUOUS
10
161.2139829999999847
20
-116.9200329999999894
11
161.3283389999999997
21
-116.7488869999999963
0
LINE
8
BLACK
6
CONTINUOUS
10
161.3283389999999997
20
-116.7488869999999963
11
161.4738869999999906
21
-116.6033389999999912
0
LINE
8
BLACK
6
CONTINUOUS
10
161.4738869999999906
20
-116.6033389999999912
11
161.6450329999999838
21
-116.4889829999999904
0
LINE
8
BLACK
6
CONTINUOUS
10
161.6450329999999838
20
-116.4889829999999904
11
161.8352009999999837
21
-116.4102129999999988
0
LINE
8
BLACK
6
CONTINUOUS
10
161.8352009999999837
20
-116.4102129999999988
11
162.0370819999999981
21
-116.3700559999999911
0
LINE
8
BLACK
6
CONTINUOUS
10
162.0370819999999981
20
-116.3700559999999911
11
162.1399999999999864
21
-116.3649999999999949
0
LINE
8
BLACK
6
CONTINUOUS
10
162.1399999999999864
20
-116.3649999999999949
11
162.539999999999992
21
-116.3649999999999949
0
LINE
8
BLACK
6
CONTINUOUS
10
162.539999999999992
20
-116.3649999999999949
11
162.6429179999999803
21
-116.3700559999999911
0
LINE
8
BLACK
6
CONTINUOUS
10
170.2629179999999849
20
-116.3700559999999911
11
170.4647989999999993
21
-116.4102129999999988
0
LINE
8
BLACK
6
CONTINUOUS
10
170.4647989999999993
20
-116.4102129999999988
11
170.6549669999999992
21
-116.4889829999999904
0
LINE
8
BLACK
6
CONTINUOUS
10
170.6549669999999992
20
-116.4889829999999904
11
170.8261129999999923
21
-116.6033389999999912
0
LINE
8
BLACK
6
CONTINUOUS
10
170.8261129999999923
20
-116.6033389999999912
11
170.9716609999999832
21
-116.7488869999999963
0
LINE
8
BLACK
6
CONTINUOUS
10
170.9716609999999832
20
-116.7488869999999963
11
171.0860169999999982
21
-116.9200329999999894
0
LINE
8
BLACK
6
CONTINUOUS
10
171.0860169999999982
20
-116.9200329999999894
11
171.1647869999999898
21
-117.1102009999999893
0
LINE
8
BLACK
6
CONTINUOUS
10
171.1647869999999898
20
-117.1102009999999893
11
171.2049439999999834
21
-117.3120819999999895
0
LINE
8
BLACK
6
CONTINUOUS
10
171.2049439999999834
20
-117.3120819999999895
11
171.2049439999999834
21
-117.5179179999999945
0
LINE
8
BLACK
6
CONTINUOUS
10
171.2049439999999834
20
-117.5179179999999945
11
171.1647869999999898
21
-117.7197989999999947
0
LINE
8
BLACK
6
CONTINUOUS
10
171.1647869999999898
20
-117.7197989999999947
11
171.0860169999999982
21
-117.9099669999999946
0
LINE
8
BLACK
6
CONTINUOUS
10
171.0860169999999982
20
-117.9099669999999946
11
170.9716609999999832
21
-118.0811129999999878
0
LINE
8
BLACK
6
CONTINUOUS
10
170.9716609999999832
20
-118.0811129999999878
11
170.8261129999999923
21
-118.2266609999999929
0
LINE
8
BLACK
6
CONTINUOUS
10
170.8261129999999923
20
-118.2266609999999929
11
170.6549669999999992
21
-118.3410169999999937
0
LINE
8
BLACK
6
CONTINUOUS
10
170.6549669999999992
20
-118.3410169999999937
11
170.4647989999999993
21
-118.4197869999999995
0
LINE
8
BLACK
6
CONTINUOUS
10
170.4647989999999993
20
-118.4197869999999995
11
170.2629179999999849
21
-118.459943999999993
0
LINE
8
BLACK
6
CONTINUOUS
10
170.2629179999999849
20
-118.459943999999993
11
170.1599999999999966
21
-118.4649999999999892
0
LINE
8
BLACK
6
CONTINUOUS
10
170.1599999999999966
20
-118.4649999999999892
11
169.7599999999999909
21
-118.4649999999999892
0
LINE
8
BLACK
6
CONTINUOUS
10
169.7599999999999909
20
-118.4649999999999892
11
169.6570820000000026
21
-118.459943999999993
0
LINE
8
BLACK
6
CONTINUOUS
10
169.6570820000000026
20
-118.459943999999993
11
169.4552009999999882
21
-118.4197869999999995
0
LINE
8
BLACK
6
CONTINUOUS
10
169.4552009999999882
20
-118.4197869999999995
11
169.2650329999999883
21
-118.3410169999999937
0
LINE
8
BLACK
6
CONTINUOUS
10
169.2650329999999883
20
-118.3410169999999937
11
169.0938869999999952
21
-118.2266609999999929
0
LINE
8
BLACK
6
CONTINUOUS
10
169.0938869999999952
20
-118.2266609999999929
11
168.9483390000000043
21
-118.0811129999999878
0
LINE
8
BLACK
6
CONTINUOUS
10
168.9483390000000043
20
-118.0811129999999878
11
168.8339829999999893
21
-117.9099669999999946
0
LINE
8
BLACK
6
CONTINUOUS
10
168.8339829999999893
20
-117.9099669999999946
11
168.7552129999999977
21
-117.7197989999999947
0
LINE
8
BLACK
6
CONTINUOUS
10
168.7552129999999977
20
-117.7197989999999947
11
168.7150560000000041
21
-117.5179179999999945
0
LINE
8
BLACK
6
CONTINUOUS
10
168.7150560000000041
20
-117.5179179999999945
11
168.7150560000000041
21
-117.3120819999999895
0
LINE
8
BLACK
6
CONTINUOUS
10
168.7150560000000041
20
-117.3120819999999895
11
168.7552129999999977
21
-117.1102009999999893
0
LINE
8
BLACK
6
CONTINUOUS
10
168.7552129999999977
20
-117.1102009999999893
11
168.8339829999999893
21
-116.9200329999999894
0
LINE
8
BLACK
6
CONTINUOUS
10
168.8339829999999893
20
-116.9200329999999894
11
168.9483390000000043
21
-116.7488869999999963
0
LINE
8
BLACK
6
CONTINUOUS
10
168.9483390000000043
20
-116.7488869999999963
11
169.0938869999999952
21
-116.6033389999999912
0
LINE
8
BLACK
6
CONTINUOUS
10
169.0938869999999952
20
-116.6033389999999912
11
169.2650329999999883
21
-116.4889829999999904
0
LINE
8
BLACK
6
CONTINUOUS
10
169.2650329999999883
20
-116.4889829999999904
11
169.4552009999999882
21
-116.4102129999999988
0
LINE
8
BLACK
6
CONTINUOUS
10
169.4552009999999882
20
-116.4102129999999988
11
169.6570820000000026
21
-116.3700559999999911
0
LINE
8
BLACK
6
CONTINUOUS
10
169.6570820000000026
20
-116.3700559999999911
11
169.7599999999999909
21
-116.3649999999999949
0
LINE
8
BLACK
6
CONTINUOUS
10
169.7599999999999909
20
-116.3649999999999949
11
170.1599999999999966
21
-116.3649999999999949
0
LINE
8
BLACK
6
CONTINUOUS
10
170.1599999999999966
20
-116.3649999999999949
11
170.2629179999999849
21
-116.3700559999999911
0
LINE
8
BLACK
6
CONTINUOUS
10
168.6206709999999873
20
-113.1440300000000008
11
168.7017769999999928
21
-113.1982229999999987
0
LINE
8
BLACK
6
CONTINUOUS
10
168.7017769999999928
20
-113.1982229999999987
11
168.7559699999999907
21
-113.2793289999999899
0
LINE
8
BLACK
6
CONTINUOUS
10
168.7559699999999907
20
-113.2793289999999899
11
168.7750000000000057
21
-113.375
0
LINE
8
BLACK
6
CONTINUOUS
10
168.7750000000000057
20
-113.375
11
168.7750000000000057
21
-114.625
0
LINE
8
BLACK
6
CONTINUOUS
10
168.7750000000000057
20
-114.625
11
168.7559699999999907
21
-114.7206709999999958
0
LINE
8
BLACK
6
CONTINUOUS
10
168.7559699999999907
20
-114.7206709999999958
11
168.7017769999999928
21
-114.8017770000000013
0
LINE
8
BLACK
6
CONTINUOUS
10
168.7017769999999928
20
-114.8017770000000013
11
168.6206709999999873
21
-114.8559699999999992
0
LINE
8
BLACK
6
CONTINUOUS
10
168.6206709999999873
20
-114.8559699999999992
11
168.5250000000000057
21
-114.875
0
LINE
8
BLACK
6
CONTINUOUS
10
168.5250000000000057
20
-114.875
11
167.8249999999999886
21
-114.875
0
LINE
8
BLACK
6
CONTINUOUS
10
167.8249999999999886
20
-114.875
11
167.7293289999999786
21
-114.8559699999999992
0
LINE
8
BLACK
6
CONTINUOUS
10
167.7293289999999786
20
-114.8559699999999992
11
167.6482230000000015
21
-114.8017770000000013
0
LINE
8
BLACK
6
CONTINUOUS
10
167.6482230000000015
20
-114.8017770000000013
11
167.5940300000000036
21
-114.7206709999999958
0
LINE
8
BLACK
6
CONTINUOUS
10
167.5940300000000036
20
-114.7206709999999958
11
167.5749999999999886
21
-114.625
0
LINE
8
BLACK
6
CONTINUOUS
10
167.5749999999999886
20
-114.625
11
167.5749999999999886
21
-113.375
0
LINE
8
BLACK
6
CONTINUOUS
10
167.5749999999999886
20
-113.375
11
167.5940300000000036
21
-113.2793289999999899
0
LINE
8
BLACK
6
CONTINUOUS
10
167.5940300000000036
20
-113.2793289999999899
11
167.6482230000000015
21
-113.1982229999999987
0
LINE
8
BLACK
6
CONTINUOUS
10
167.6482230000000015
20
-113.1982229999999987
11
167.7293289999999786
21
-113.1440300000000008
0
LINE
8
BLACK
6
CONTINUOUS
10
167.7293289999999786
20
-113.1440300000000008
11
167.8249999999999886
21
-113.125
0
LINE
8
BLACK
6
CONTINUOUS
10
167.8249999999999886
20
-113.125
11
168.5250000000000057
21
-113.125
0
LINE
8
BLACK
6
CONTINUOUS
10
168.5250000000000057
20
-113.125
11
168.6206709999999873
21
-113.1440300000000008
0
LINE
8
BLACK
6
CONTINUOUS
10
164.404609999999991
20
-113.1706719999999962
11
164.5402569999999969
21
-113.2489879999999971
0
LINE
8
BLACK
6
CONTINUOUS
10
164.5402569999999969
20
-113.2489879999999971
11
164.6510119999999802
21
-113.3597429999999946
0
LINE
8
BLACK
6
CONTINUOUS
10
164.6510119999999802
20
-113.3597429999999946
11
164.7293279999999811
21
-113.4953900000000004
0
LINE
8
BLACK
6
CONTINUOUS
10
164.7293279999999811
20
-113.4953900000000004
11
164.769867000000005
21
-113.6466839999999934
0
LINE
8
BLACK
6
CONTINUOUS
10
164.769867000000005
20
-113.6466839999999934
11
164.7750000000000057
21
-113.7249999999999943
0
LINE
8
BLACK
6
CONTINUOUS
10
164.7750000000000057
20
-113.7249999999999943
11
164.7750000000000057
21
-114.2749999999999915
0
LINE
8
BLACK
6
CONTINUOUS
10
164.7750000000000057
20
-114.2749999999999915
11
164.769867000000005
21
-114.3533159999999924
0
LINE
8
BLACK
6
CONTINUOUS
10
164.769867000000005
20
-114.3533159999999924
11
164.7293279999999811
21
-114.5046099999999996
0
LINE
8
BLACK
6
CONTINUOUS
10
164.7293279999999811
20
-114.5046099999999996
11
164.6510119999999802
21
-114.6402569999999912
0
LINE
8
BLACK
6
CONTINUOUS
10
164.6510119999999802
20
-114.6402569999999912
11
164.5402569999999969
21
-114.7510119999999887
0
LINE
8
BLACK
6
CONTINUOUS
10
164.5402569999999969
20
-114.7510119999999887
11
164.404609999999991
21
-114.8293279999999896
0
LINE
8
BLACK
6
CONTINUOUS
10
164.404609999999991
20
-114.8293279999999896
11
164.2533159999999839
21
-114.8698669999999993
0
LINE
8
BLACK
6
CONTINUOUS
10
164.2533159999999839
20
-114.8698669999999993
11
164.096683999999982
21
-114.8698669999999993
0
LINE
8
BLACK
6
CONTINUOUS
10
164.096683999999982
20
-114.8698669999999993
11
163.9453900000000033
21
-114.8293279999999896
0
LINE
8
BLACK
6
CONTINUOUS
10
163.9453900000000033
20
-114.8293279999999896
11
163.8097429999999974
21
-114.7510119999999887
0
LINE
8
BLACK
6
CONTINUOUS
10
163.8097429999999974
20
-114.7510119999999887
11
163.6989879999999857
21
-114.6402569999999912
0
LINE
8
BLACK
6
CONTINUOUS
10
163.6989879999999857
20
-114.6402569999999912
11
163.6206719999999848
21
-114.5046099999999996
0
LINE
8
BLACK
6
CONTINUOUS
10
163.6206719999999848
20
-114.5046099999999996
11
163.5801329999999894
21
-114.3533159999999924
0
LINE
8
BLACK
6
CONTINUOUS
10
163.5801329999999894
20
-114.3533159999999924
11
163.5749999999999886
21
-114.2749999999999915
0
LINE
8
BLACK
6
CONTINUOUS
10
163.5749999999999886
20
-114.2749999999999915
11
163.5749999999999886
21
-113.7249999999999943
0
LINE
8
BLACK
6
CONTINUOUS
10
163.5749999999999886
20
-113.7249999999999943
11
163.5801329999999894
21
-113.6466839999999934
0
LINE
8
BLACK
6
CONTINUOUS
10
163.5801329999999894
20
-113.6466839999999934
11
163.6206719999999848
21
-113.4953900000000004
0
LINE
8
BLACK
6
CONTINUOUS
10
163.6206719999999848
20
-113.4953900000000004
11
163.6989879999999857
21
-113.3597429999999946
0
LINE
8
BLACK
6
CONTINUOUS
10
163.6989879999999857
20
-113.3597429999999946
11
163.8097429999999974
21
-113.2489879999999971
0
LINE
8
BLACK
6
CONTINUOUS
10
163.8097429999999974
20
-113.2489879999999971
11
163.9453900000000033
21
-113.1706719999999962
0
LINE
8
BLACK
6
CONTINUOUS
10
163.9453900000000033
20
-113.1706719999999962
11
164.096683999999982
21
-113.1301330000000007
0
LINE
8
BLACK
6
CONTINUOUS
10
164.096683999999982
20
-113.1301330000000007
11
164.2533159999999839
21
-113.1301330000000007
0
LINE
8
BLACK
6
CONTINUOUS
10
164.2533159999999839
20
-113.1301330000000007
11
164.404609999999991
21
-113.1706719999999962
0
LINE
8
BLACK
6
CONTINUOUS
10
166.404609999999991
20
-113.1706719999999962
11
166.5402569999999969
21
-113.2489879999999971
0
LINE
8
BLACK
6
CONTINUOUS
10
166.5402569999999969
20
-113.2489879999999971
11
166.6510119999999802
21
-113.3597429999999946
0
LINE
8
BLACK
6
CONTINUOUS
10
166.6510119999999802
20
-113.3597429999999946
11
166.7293279999999811
21
-113.4953900000000004
0
LINE
8
BLACK
6
CONTINUOUS
10
166.7293279999999811
20
-113.4953900000000004
11
166.769867000000005
21
-113.6466839999999934
0
LINE
8
BLACK
6
CONTINUOUS
10
166.769867000000005
20
-113.6466839999999934
11
166.7750000000000057
21
-113.7249999999999943
0
LINE
8
BLACK
6
CONTINUOUS
10
166.7750000000000057
20
-113.7249999999999943
11
166.7750000000000057
21
-114.2749999999999915
0
LINE
8
BLACK
6
CONTINUOUS
10
166.7750000000000057
20
-114.2749999999999915
11
166.769867000000005
21
-114.3533159999999924
0
LINE
8
BLACK
6
CONTINUOUS
10
166.769867000000005
20
-114.3533159999999924
11
166.7293279999999811
21
-114.5046099999999996
0
LINE
8
BLACK
6
CONTINUOUS
10
166.7293279999999811
20
-114.5046099999999996
11
166.6510119999999802
21
-114.6402569999999912
0
LINE
8
BLACK
6
CONTINUOUS
10
166.6510119999999802
20
-114.6402569999999912
11
166.5402569999999969
21
-114.7510119999999887
0
LINE
8
BLACK
6
CONTINUOUS
10
166.5402569999999969
20
-114.7510119999999887
11
166.404609999999991
21
-114.8293279999999896
0
LINE
8
BLACK
6
CONTINUOUS
10
166.404609999999991
20
-114.8293279999999896
11
166.2533159999999839
21
-114.8698669999999993
0
LINE
8
BLACK
6
CONTINUOUS
10
166.2533159999999839
20
-114.8698669999999993
11
166.096683999999982
21
-114.8698669999999993
0
LINE
8
BLACK
6
CONTINUOUS
10
166.096683999999982
20
-114.8698669999999993
11
165.9453900000000033
21
-114.8293279999999896
0
LINE
8
BLACK
6
CONTINUOUS
10
165.9453900000000033
20
-114.8293279999999896
11
165.8097429999999974
21
-114.7510119999999887
0
LINE
8
BLACK
6
CONTINUOUS
10
165.8097429999999974
20
-114.7510119999999887
11
165.6989879999999857
21
-114.6402569999999912
0
LINE
8
BLACK
6
CONTINUOUS
10
165.6989879999999857
20
-114.6402569999999912
11
165.6206719999999848
21
-114.5046099999999996
0
LINE
8
BLACK
6
CONTINUOUS
10
165.6206719999999848
20
-114.5046099999999996
11
165.5801329999999894
21
-114.3533159999999924
0
LINE
8
BLACK
6
CONTINUOUS
10
165.5801329999999894
20
-114.3533159999999924
11
165.5749999999999886
21
-114.2749999999999915
0
LINE
8
BLACK
6
CONTINUOUS
10
165.5749999999999886
20
-114.2749999999999915
11
165.5749999999999886
21
-113.7249999999999943
0
LINE
8
BLACK
6
CONTINUOUS
10
165.5749999999999886
20
-113.7249999999999943
11
165.5801329999999894
21
-113.6466839999999934
0
LINE
8
BLACK
6
CONTINUOUS
10
165.5801329999999894
20
-113.6466839999999934
11
165.6206719999999848
21
-113.4953900000000004
0
LINE
8
BLACK
6
CONTINUOUS
10
165.6206719999999848
20
-113.4953900000000004
11
165.6989879999999857
21
-113.3597429999999946
0
LINE
8
BLACK
6
CONTINUOUS
10
165.6989879999999857
20
-113.3597429999999946
11
165.8097429999999974
21
-113.2489879999999971
0
LINE
8
BLACK
6
CONTINUOUS
10
165.8097429999999974
20
-113.2489879999999971
11
165.9453900000000033
21
-113.1706719999999962
0
LINE
8
BLACK
6
CONTINUOUS
10
165.9453900000000033
20
-113.1706719999999962
11
166.096683999999982
21
-113.1301330000000007
0
LINE
8
BLACK
6
CONTINUOUS
10
166.096683999999982
20
-113.1301330000000007
11
166.2533159999999839
21
-113.1301330000000007
0
LINE
8
BLACK
6
CONTINUOUS
10
166.2533159999999839
20
-113.1301330000000007
11
166.404609999999991
21
-113.1706719999999962
0
LINE
8
BLACK
6
CONTINUOUS
10
172.2345669999999984
20
-107.2519029999999987
11
172.2480970000000013
21
-107.2654330000000016
0
LINE
8
BLACK
6
CONTINUOUS
10
172.2480970000000013
20
-107.2654330000000016
11
172.25
21
-107.2749999999999915
0
LINE
8
BLACK
6
CONTINUOUS
10
172.25
20
-107.2749999999999915
11
172.25
21
-132.8499999999999943
0
LINE
8
BLACK
6
CONTINUOUS
10
172.25
20
-132.8499999999999943
11
172.2480970000000013
21
-132.8595669999999984
0
LINE
8
BLACK
6
CONTINUOUS
10
172.2480970000000013
20
-132.8595669999999984
11
172.2345669999999984
21
-132.8730970000000013
0
LINE
8
BLACK
6
CONTINUOUS
10
172.2345669999999984
20
-132.8730970000000013
11
172.2249999999999943
21
-132.875
0
LINE
8
BLACK
6
CONTINUOUS
10
172.2249999999999943
20
-132.875
11
160.125
21
-132.875
0
LINE
8
BLACK
6
CONTINUOUS
10
160.125
20
-132.875
11
160.1154329999999959
21
-132.8730970000000013
0
LINE
8
BLACK
6
CONTINUOUS
10
160.1154329999999959
20
-132.8730970000000013
11
160.101902999999993
21
-132.8595669999999984
0
LINE
8
BLACK
6
CONTINUOUS
10
160.101902999999993
20
-132.8595669999999984
11
160.0999999999999943
21
-132.8499999999999943
0
LINE
8
BLACK
6
CONTINUOUS
10
160.0999999999999943
20
-132.8499999999999943
11
160.0999999999999943
21
-107.2749999999999915
0
LINE
8
BLACK
6
CONTINUOUS
10
160.0999999999999943
20
-107.2749999999999915
11
160.101902999999993
21
-107.2654330000000016
0
LINE
8
BLACK
6
CONTINUOUS
10
160.101902999999993
20
-107.2654330000000016
11
160.1154329999999959
21
-107.2519029999999987
0
LINE
8
BLACK
6
CONTINUOUS
10
160.1154329999999959
20
-107.2519029999999987
11
160.125
21
-107.25
0
LINE
8
BLACK
6
CONTINUOUS
10
160.125
20
-107.25
11
172.2249999999999943
21
-107.25
0
LINE
8
BLACK
6
CONTINUOUS
10
172.2249999999999943
20
-107.25
11
172.2345669999999984
21
-107.2519029999999987
0
LINE
8
BLACK
6
CONTINUOUS
10
160.1500000000000057
20
-107.2999999999999972
11
160.1500000000000057
21
-132.8249999999999886
0
LINE
8
BLACK
6
CONTINUOUS
10
160.1500000000000057
20
-132.8249999999999886
11
172.1999999999999886
21
-132.8249999999999886
0
LINE
8
BLACK
6
CONTINUOUS
10
172.1999999999999886
20
-132.8249999999999886
11
172.1999999999999886
21
-107.2999999999999972
0
LINE
8
BLACK
6
CONTINUOUS
10
172.1999999999999886
20
-107.2999999999999972
11
160.1500000000000057
21
-107.2999999999999972
  0
ENDSEC
  0
EOF
