  0
SECTION
  2
HEADER
  9
$ANGBASE
  50
0.0
  9
$ANGDIR
  70
1
  9
$MEASUREMENT
  70
1
  0
ENDSEC
  0
SECTION
  2
TABLES
  0
TABLE
  2
LTYPE
  70
4
  0
LTYPE
  5
40F
  2
CONTINUOUS
  70
0
  3
Solid line
  72
65
  73
0
  40
0.0
  0
LTYPE
  5
410
  2
DASHDOT
 70
0
  3
Dash Dot ____ _ ____ _
 72
65
 73
4
 40
2.0
 49
1.25
 49
-0.25
 49
0.25
 49
-0.25
  0
LTYPE
  5
411
  2
DASHED
 70
0
  3
Dashed __ __ __ __ __
 72
65
 73
2
 40
0.75
 49
0.5
 49
-0.25
  0
LTYPE
  5
43B
  2
DOTTED
 70
0
  3
Dotted .  .  .  .
 72
65
 73
2
 40
0.2
 49
0.0
 49
-0.2
  0
ENDTAB
  0
TABLE
  2
STYLE
  70
4
  0
STYLE
  2
KICAD
  70
0
  40
0
  41
1
  42
1
  50
0
  71
0
  3
isocp.shx
  0
STYLE
  2
KICADB
  70
0
  40
0
  41
1
  42
1
  50
0
  71
0
  3
isocp.shx
  0
STYLE
  2
KICADI
  70
0
  40
0
  41
1
  42
1
  50
15
  71
0
  3
isocp.shx
  0
STYLE
  2
KICADBI
  70
0
  40
0
  41
1
  42
1
  50
15
  71
0
  3
isocp.shx
  0
ENDTAB
  0
TABLE
  2
LAYER
  70
1
  0
LAYER
  2
BLACK
  70
0
  62
7
  6
CONTINUOUS
  0
ENDTAB
  0
ENDSEC
  0
SECTION
  2
ENTITIES
0
LINE
8
BLACK
6
CONTINUOUS
10
152.3900219999999877
20
-48.1059300000000007
11
152.4621180000000038
21
-48.1357929999999996
0
LINE
8
BLACK
6
CONTINUOUS
10
152.4621180000000038
20
-48.1357929999999996
11
152.4924249999999972
21
-48.1606659999999991
0
LINE
8
BLACK
6
CONTINUOUS
10
152.4924249999999972
20
-48.1606659999999991
11
154.6414209999999798
21
-50.3096609999999984
0
LINE
8
BLACK
6
CONTINUOUS
10
154.6414209999999798
20
-50.3096609999999984
11
154.6662939999999935
21
-50.3399689999999964
0
LINE
8
BLACK
6
CONTINUOUS
10
154.6662939999999935
20
-50.3399689999999964
11
154.6961569999999995
21
-50.4120649999999983
0
LINE
8
BLACK
6
CONTINUOUS
10
154.6961569999999995
20
-50.4120649999999983
11
154.6999999999999886
21
-50.451082999999997
0
LINE
8
BLACK
6
CONTINUOUS
10
154.6999999999999886
20
-50.451082999999997
11
154.6999999999999886
21
-51.625
0
LINE
8
BLACK
6
CONTINUOUS
10
154.6999999999999886
20
-51.625
11
154.8499999999999943
21
-51.625
0
LINE
8
BLACK
6
CONTINUOUS
10
154.8499999999999943
20
-51.625
11
154.9456710000000044
21
-51.6440300000000008
0
LINE
8
BLACK
6
CONTINUOUS
10
154.9456710000000044
20
-51.6440300000000008
11
155.0267769999999814
21
-51.6982229999999987
0
LINE
8
BLACK
6
CONTINUOUS
10
155.0267769999999814
20
-51.6982229999999987
11
155.0809699999999793
21
-51.7793289999999971
0
LINE
8
BLACK
6
CONTINUOUS
10
155.0809699999999793
20
-51.7793289999999971
11
155.0999999999999943
21
-51.875
0
LINE
8
BLACK
6
CONTINUOUS
10
155.0999999999999943
20
-51.875
11
155.0999999999999943
21
-53.125
0
LINE
8
BLACK
6
CONTINUOUS
10
155.0999999999999943
20
-53.125
11
155.0809699999999793
21
-53.2206709999999958
0
LINE
8
BLACK
6
CONTINUOUS
10
155.0809699999999793
20
-53.2206709999999958
11
155.0267769999999814
21
-53.3017769999999942
0
LINE
8
BLACK
6
CONTINUOUS
10
155.0267769999999814
20
-53.3017769999999942
11
154.9456710000000044
21
-53.3559699999999992
0
LINE
8
BLACK
6
CONTINUOUS
10
154.9456710000000044
20
-53.3559699999999992
11
154.8499999999999943
21
-53.375
0
LINE
8
BLACK
6
CONTINUOUS
10
154.8499999999999943
20
-53.375
11
154.1500000000000057
21
-53.375
0
LINE
8
BLACK
6
CONTINUOUS
10
154.1500000000000057
20
-53.375
11
154.0543289999999956
21
-53.3559699999999992
0
LINE
8
BLACK
6
CONTINUOUS
10
154.0543289999999956
20
-53.3559699999999992
11
153.9732229999999902
21
-53.3017769999999942
0
LINE
8
BLACK
6
CONTINUOUS
10
153.9732229999999902
20
-53.3017769999999942
11
153.9190299999999922
21
-53.2206709999999958
0
LINE
8
BLACK
6
CONTINUOUS
10
153.9190299999999922
20
-53.2206709999999958
11
153.9000000000000057
21
-53.125
0
LINE
8
BLACK
6
CONTINUOUS
10
153.9000000000000057
20
-53.125
11
153.9000000000000057
21
-51.875
0
LINE
8
BLACK
6
CONTINUOUS
10
153.9000000000000057
20
-51.875
11
153.9190299999999922
21
-51.7793289999999971
0
LINE
8
BLACK
6
CONTINUOUS
10
153.9190299999999922
20
-51.7793289999999971
11
153.9732229999999902
21
-51.6982229999999987
0
LINE
8
BLACK
6
CONTINUOUS
10
153.9732229999999902
20
-51.6982229999999987
11
154.0543289999999956
21
-51.6440300000000008
0
LINE
8
BLACK
6
CONTINUOUS
10
154.0543289999999956
20
-51.6440300000000008
11
154.1500000000000057
21
-51.625
0
LINE
8
BLACK
6
CONTINUOUS
10
154.1500000000000057
20
-51.625
11
154.2999999999999829
21
-51.625
0
LINE
8
BLACK
6
CONTINUOUS
10
154.2999999999999829
20
-51.625
11
154.2999999999999829
21
-50.5339249999999964
0
LINE
8
BLACK
6
CONTINUOUS
10
154.2999999999999829
20
-50.5339249999999964
11
152.2681619999999896
21
-48.502086999999996
0
LINE
8
BLACK
6
CONTINUOUS
10
152.2681619999999896
20
-48.502086999999996
11
150.7807549999999992
21
-48.502086999999996
0
LINE
8
BLACK
6
CONTINUOUS
10
150.7807549999999992
20
-48.502086999999996
11
150.4942240000000027
21
-48.788616999999995
0
LINE
8
BLACK
6
CONTINUOUS
10
150.4942240000000027
20
-48.788616999999995
11
150.4942539999999838
21
-48.788688999999998
0
LINE
8
BLACK
6
CONTINUOUS
10
150.4942539999999838
20
-48.788688999999998
11
150.4931530000000066
21
-48.7936440000000005
0
LINE
8
BLACK
6
CONTINUOUS
10
150.4931530000000066
20
-48.7936440000000005
11
150.00473199999999
21
-49.8384049999999945
0
LINE
8
BLACK
6
CONTINUOUS
10
150.00473199999999
20
-49.8384049999999945
11
150.
21
-49.842731999999998
0
LINE
8
BLACK
6
CONTINUOUS
10
150.
20
-49.842731999999998
11
150.
21
-49.875
0
LINE
8
BLACK
6
CONTINUOUS
10
150.
20
-49.875
11
149.9948669999999993
21
-49.9533160000000009
0
LINE
8
BLACK
6
CONTINUOUS
10
149.9948669999999993
20
-49.9533160000000009
11
149.9543280000000038
21
-50.104610000000001
0
LINE
8
BLACK
6
CONTINUOUS
10
149.9543280000000038
20
-50.104610000000001
11
149.8760120000000029
21
-50.2402569999999997
0
LINE
8
BLACK
6
CONTINUOUS
10
149.8760120000000029
20
-50.2402569999999997
11
149.7652569999999912
21
-50.3510119999999972
0
LINE
8
BLACK
6
CONTINUOUS
10
149.7652569999999912
20
-50.3510119999999972
11
149.6296099999999853
21
-50.4293279999999982
0
LINE
8
BLACK
6
CONTINUOUS
10
149.6296099999999853
20
-50.4293279999999982
11
149.4783160000000066
21
-50.4698670000000007
0
LINE
8
BLACK
6
CONTINUOUS
10
149.4783160000000066
20
-50.4698670000000007
11
149.3216840000000047
21
-50.4698670000000007
0
LINE
8
BLACK
6
CONTINUOUS
10
149.3216840000000047
20
-50.4698670000000007
11
149.1703899999999976
21
-50.4293279999999982
0
LINE
8
BLACK
6
CONTINUOUS
10
149.1703899999999976
20
-50.4293279999999982
11
149.0347429999999918
21
-50.3510119999999972
0
LINE
8
BLACK
6
CONTINUOUS
10
149.0347429999999918
20
-50.3510119999999972
11
148.92398799999998
21
-50.2402569999999997
0
LINE
8
BLACK
6
CONTINUOUS
10
148.92398799999998
20
-50.2402569999999997
11
148.8981569999999977
21
-50.1955169999999953
0
LINE
8
BLACK
6
CONTINUOUS
10
148.8981569999999977
20
-50.1955169999999953
11
148.8960099999999898
21
-50.196635999999998
0
LINE
8
BLACK
6
CONTINUOUS
10
148.8960099999999898
20
-50.196635999999998
11
148.8891710000000046
21
-50.1951309999999964
0
LINE
8
BLACK
6
CONTINUOUS
10
148.8891710000000046
20
-50.1951309999999964
11
148.6668080000000032
21
-50.0676409999999947
0
LINE
8
BLACK
6
CONTINUOUS
10
148.6668080000000032
20
-50.0676409999999947
11
148.2058810000000051
21
-49.8033709999999985
0
LINE
8
BLACK
6
CONTINUOUS
10
148.2058810000000051
20
-49.8033709999999985
11
148.2032779999999832
21
-49.7999999999999972
0
LINE
8
BLACK
6
CONTINUOUS
10
148.2032779999999832
20
-49.7999999999999972
11
147.5850859999999898
21
-49.7999999999999972
0
LINE
8
BLACK
6
CONTINUOUS
10
147.5850859999999898
20
-49.7999999999999972
11
145.6876210000000071
21
-51.6974650000000011
0
LINE
8
BLACK
6
CONTINUOUS
10
145.6876210000000071
20
-51.6974650000000011
11
145.6876210000000071
21
-60.2030779999999979
0
LINE
8
BLACK
6
CONTINUOUS
10
145.6876210000000071
20
-60.2030779999999979
11
147.2614219999999818
21
-61.7768789999999939
0
LINE
8
BLACK
6
CONTINUOUS
10
147.2614219999999818
20
-61.7768789999999939
11
147.2862939999999981
21
-61.8071859999999944
0
LINE
8
BLACK
6
CONTINUOUS
10
147.2862939999999981
20
-61.8071859999999944
11
147.316157000000004
21
-61.8792819999999963
0
LINE
8
BLACK
6
CONTINUOUS
10
147.316157000000004
20
-61.8792819999999963
11
147.3199999999999932
21
-61.918299999999995
0
LINE
8
BLACK
6
CONTINUOUS
10
147.3199999999999932
20
-61.918299999999995
11
147.3199999999999932
21
-61.9625679999999974
0
LINE
8
BLACK
6
CONTINUOUS
10
147.3199999999999932
20
-61.9625679999999974
11
147.7339000000000055
21
-62.5079769999999968
0
LINE
8
BLACK
6
CONTINUOUS
10
147.7339000000000055
20
-62.5079769999999968
11
147.7384079999999926
21
-62.5124849999999981
0
LINE
8
BLACK
6
CONTINUOUS
10
147.7384079999999926
20
-62.5124849999999981
11
147.7464149999999847
21
-62.5244679999999988
0
LINE
8
BLACK
6
CONTINUOUS
10
147.7464149999999847
20
-62.5244679999999988
11
147.777672999999993
21
-62.5656579999999991
0
LINE
8
BLACK
6
CONTINUOUS
10
147.777672999999993
20
-62.5656579999999991
11
147.7799449999999979
21
-62.5743200000000002
0
LINE
8
BLACK
6
CONTINUOUS
10
147.7799449999999979
20
-62.5743200000000002
11
147.7798420000000021
21
-62.5744949999999989
0
LINE
8
BLACK
6
CONTINUOUS
10
147.7798420000000021
20
-62.5744949999999989
11
147.8255369999999971
21
-62.6428829999999977
0
LINE
8
BLACK
6
CONTINUOUS
10
147.8255369999999971
20
-62.6428829999999977
11
147.8855519999999899
21
-62.7877719999999968
0
LINE
8
BLACK
6
CONTINUOUS
10
147.8855519999999899
20
-62.7877719999999968
11
147.9161479999999926
21
-62.9415859999999938
0
LINE
8
BLACK
6
CONTINUOUS
10
147.9161479999999926
20
-62.9415859999999938
11
147.9161479999999926
21
-63.0984139999999982
0
LINE
8
BLACK
6
CONTINUOUS
10
147.9161479999999926
20
-63.0984139999999982
11
147.8994529999999941
21
-63.1823429999999959
0
LINE
8
BLACK
6
CONTINUOUS
10
147.8994529999999941
20
-63.1823429999999959
11
147.9004079999999988
21
-63.1871609999999961
0
LINE
8
BLACK
6
CONTINUOUS
10
147.9004079999999988
20
-63.1871609999999961
11
147.8999169999999879
21
-63.1889019999999988
0
LINE
8
BLACK
6
CONTINUOUS
10
147.8999169999999879
20
-63.1889019999999988
11
147.8960569999999848
21
-63.1994139999999973
0
LINE
8
BLACK
6
CONTINUOUS
10
147.8960569999999848
20
-63.1994139999999973
11
147.8855519999999899
21
-63.2522279999999952
0
LINE
8
BLACK
6
CONTINUOUS
10
147.8855519999999899
20
-63.2522279999999952
11
147.8255369999999971
21
-63.3971169999999944
0
LINE
8
BLACK
6
CONTINUOUS
10
147.8255369999999971
20
-63.3971169999999944
11
147.8209579999999903
21
-63.4039689999999965
0
LINE
8
BLACK
6
CONTINUOUS
10
147.8209579999999903
20
-63.4039689999999965
11
147.4635710000000017
21
-64.3774209999999982
0
LINE
8
BLACK
6
CONTINUOUS
10
147.4635710000000017
20
-64.3774209999999982
11
147.4622809999999902
21
-64.3794389999999908
0
LINE
8
BLACK
6
CONTINUOUS
10
147.4622809999999902
20
-64.3794389999999908
11
147.9882439999999804
21
-64.9054009999999977
0
LINE
8
BLACK
6
CONTINUOUS
10
147.9882439999999804
20
-64.9054009999999977
11
147.9895889999999952
21
-64.9048449999999946
0
LINE
8
BLACK
6
CONTINUOUS
10
147.9895889999999952
20
-64.9048449999999946
11
147.9928649999999948
21
-64.9053129999999925
0
LINE
8
BLACK
6
CONTINUOUS
10
147.9928649999999948
20
-64.9053129999999925
11
148.7631429999999852
21
-65.1301330000000007
0
LINE
8
BLACK
6
CONTINUOUS
10
148.7631429999999852
20
-65.1301330000000007
11
148.8783159999999839
21
-65.1301330000000007
0
LINE
8
BLACK
6
CONTINUOUS
10
148.8783159999999839
20
-65.1301330000000007
11
149.029609999999991
21
-65.1706719999999962
0
LINE
8
BLACK
6
CONTINUOUS
10
149.029609999999991
20
-65.1706719999999962
11
149.1652569999999969
21
-65.2489879999999971
0
LINE
8
BLACK
6
CONTINUOUS
10
149.1652569999999969
20
-65.2489879999999971
11
149.2760119999999802
21
-65.3597429999999946
0
LINE
8
BLACK
6
CONTINUOUS
10
149.2760119999999802
20
-65.3597429999999946
11
149.3543279999999811
21
-65.4953900000000004
0
LINE
8
BLACK
6
CONTINUOUS
10
149.3543279999999811
20
-65.4953900000000004
11
149.394867000000005
21
-65.6466839999999934
0
LINE
8
BLACK
6
CONTINUOUS
10
149.394867000000005
20
-65.6466839999999934
11
149.4000000000000057
21
-65.7249999999999943
0
LINE
8
BLACK
6
CONTINUOUS
10
149.4000000000000057
20
-65.7249999999999943
11
149.4000000000000057
21
-66.2749999999999915
0
LINE
8
BLACK
6
CONTINUOUS
10
149.4000000000000057
20
-66.2749999999999915
11
149.394867000000005
21
-66.3533159999999924
0
LINE
8
BLACK
6
CONTINUOUS
10
149.394867000000005
20
-66.3533159999999924
11
149.3543279999999811
21
-66.5046099999999996
0
LINE
8
BLACK
6
CONTINUOUS
10
149.3543279999999811
20
-66.5046099999999996
11
149.2760119999999802
21
-66.6402569999999912
0
LINE
8
BLACK
6
CONTINUOUS
10
149.2760119999999802
20
-66.6402569999999912
11
149.1652569999999969
21
-66.7510120000000029
0
LINE
8
BLACK
6
CONTINUOUS
10
149.1652569999999969
20
-66.7510120000000029
11
149.029609999999991
21
-66.8293280000000038
0
LINE
8
BLACK
6
CONTINUOUS
10
149.029609999999991
20
-66.8293280000000038
11
148.8783159999999839
21
-66.8698669999999993
0
LINE
8
BLACK
6
CONTINUOUS
10
148.8783159999999839
20
-66.8698669999999993
11
148.7631419999999878
21
-66.8698669999999993
0
LINE
8
BLACK
6
CONTINUOUS
10
148.7631419999999878
20
-66.8698669999999993
11
147.9989999999999952
21
-67.0928940000000011
0
LINE
8
BLACK
6
CONTINUOUS
10
147.9989999999999952
20
-67.0928940000000011
11
147.9989999999999952
21
-69.2187380000000019
0
LINE
8
BLACK
6
CONTINUOUS
10
147.9989999999999952
20
-69.2187380000000019
11
148.2562619999999924
21
-69.4759999999999991
0
LINE
8
BLACK
6
CONTINUOUS
10
148.2562619999999924
20
-69.4759999999999991
11
151.4411580000000015
21
-69.4759999999999991
0
LINE
8
BLACK
6
CONTINUOUS
10
151.4411580000000015
20
-69.4759999999999991
11
151.7057749999999885
21
-69.2113820000000004
0
LINE
8
BLACK
6
CONTINUOUS
10
151.7057749999999885
20
-69.2113820000000004
11
151.705744999999979
21
-69.2113099999999974
0
LINE
8
BLACK
6
CONTINUOUS
10
151.705744999999979
20
-69.2113099999999974
11
151.7068459999999845
21
-69.2063550000000021
0
LINE
8
BLACK
6
CONTINUOUS
10
151.7068459999999845
20
-69.2063550000000021
11
152.1952679999999987
21
-68.1615910000000014
0
LINE
8
BLACK
6
CONTINUOUS
10
152.1952679999999987
20
-68.1615910000000014
11
152.1999999999999886
21
-68.1572639999999978
0
LINE
8
BLACK
6
CONTINUOUS
10
152.1999999999999886
20
-68.1572639999999978
11
152.1999999999999886
21
-68.125
0
LINE
8
BLACK
6
CONTINUOUS
10
152.1999999999999886
20
-68.125
11
152.2051329999999894
21
-68.0466839999999991
0
LINE
8
BLACK
6
CONTINUOUS
10
152.2051329999999894
20
-68.0466839999999991
11
152.2456719999999848
21
-67.8953899999999919
0
LINE
8
BLACK
6
CONTINUOUS
10
152.2456719999999848
20
-67.8953899999999919
11
152.3239879999999857
21
-67.7597430000000003
0
LINE
8
BLACK
6
CONTINUOUS
10
152.3239879999999857
20
-67.7597430000000003
11
152.4347429999999974
21
-67.6489880000000028
0
LINE
8
BLACK
6
CONTINUOUS
10
152.4347429999999974
20
-67.6489880000000028
11
152.5703900000000033
21
-67.5706720000000018
0
LINE
8
BLACK
6
CONTINUOUS
10
152.5703900000000033
20
-67.5706720000000018
11
152.721683999999982
21
-67.5301329999999922
0
LINE
8
BLACK
6
CONTINUOUS
10
152.721683999999982
20
-67.5301329999999922
11
152.8783159999999839
21
-67.5301329999999922
0
LINE
8
BLACK
6
CONTINUOUS
10
152.8783159999999839
20
-67.5301329999999922
11
153.029609999999991
21
-67.5706720000000018
0
LINE
8
BLACK
6
CONTINUOUS
10
153.029609999999991
20
-67.5706720000000018
11
153.1652569999999969
21
-67.6489880000000028
0
LINE
8
BLACK
6
CONTINUOUS
10
153.1652569999999969
20
-67.6489880000000028
11
153.2760119999999802
21
-67.7597430000000003
0
LINE
8
BLACK
6
CONTINUOUS
10
153.2760119999999802
20
-67.7597430000000003
11
153.3543279999999811
21
-67.8953899999999919
0
LINE
8
BLACK
6
CONTINUOUS
10
153.3543279999999811
20
-67.8953899999999919
11
153.394867000000005
21
-68.0466839999999991
0
LINE
8
BLACK
6
CONTINUOUS
10
153.394867000000005
20
-68.0466839999999991
11
153.4000000000000057
21
-68.125
0
LINE
8
BLACK
6
CONTINUOUS
10
153.4000000000000057
20
-68.125
11
153.4000000000000057
21
-68.6749999999999972
0
LINE
8
BLACK
6
CONTINUOUS
10
153.4000000000000057
20
-68.6749999999999972
11
153.394867000000005
21
-68.7533159999999981
0
LINE
8
BLACK
6
CONTINUOUS
10
153.394867000000005
20
-68.7533159999999981
11
153.3543279999999811
21
-68.904609999999991
0
LINE
8
BLACK
6
CONTINUOUS
10
153.3543279999999811
20
-68.904609999999991
11
153.2760119999999802
21
-69.0402569999999969
0
LINE
8
BLACK
6
CONTINUOUS
10
153.2760119999999802
20
-69.0402569999999969
11
153.1652569999999969
21
-69.1510119999999944
0
LINE
8
BLACK
6
CONTINUOUS
10
153.1652569999999969
20
-69.1510119999999944
11
153.029609999999991
21
-69.2293279999999953
0
LINE
8
BLACK
6
CONTINUOUS
10
153.029609999999991
20
-69.2293279999999953
11
152.8783159999999839
21
-69.2698669999999908
0
LINE
8
BLACK
6
CONTINUOUS
10
152.8783159999999839
20
-69.2698669999999908
11
152.7631419999999878
21
-69.2698669999999908
0
LINE
8
BLACK
6
CONTINUOUS
10
152.7631419999999878
20
-69.2698669999999908
11
151.9928669999999897
21
-69.4946849999999898
0
LINE
8
BLACK
6
CONTINUOUS
10
151.9928669999999897
20
-69.4946849999999898
11
151.9886199999999974
21
-69.494220999999996
0
LINE
8
BLACK
6
CONTINUOUS
10
151.9886199999999974
20
-69.494220999999996
11
151.6654209999999807
21
-69.817420999999996
0
LINE
8
BLACK
6
CONTINUOUS
10
151.6654209999999807
20
-69.817420999999996
11
151.6351139999999873
21
-69.8422939999999954
0
LINE
8
BLACK
6
CONTINUOUS
10
151.6351139999999873
20
-69.8422939999999954
11
151.5630179999999996
21
-69.8721570000000014
0
LINE
8
BLACK
6
CONTINUOUS
10
151.5630179999999996
20
-69.8721570000000014
11
151.5240000000000009
21
-69.8759999999999906
0
LINE
8
BLACK
6
CONTINUOUS
10
151.5240000000000009
20
-69.8759999999999906
11
148.173419999999993
21
-69.8759999999999906
0
LINE
8
BLACK
6
CONTINUOUS
10
148.173419999999993
20
-69.8759999999999906
11
148.1344019999999944
21
-69.8721570000000014
0
LINE
8
BLACK
6
CONTINUOUS
10
148.1344019999999944
20
-69.8721570000000014
11
148.0623060000000066
21
-69.8422939999999954
0
LINE
8
BLACK
6
CONTINUOUS
10
148.0623060000000066
20
-69.8422939999999954
11
148.0319989999999848
21
-69.817420999999996
0
LINE
8
BLACK
6
CONTINUOUS
10
148.0319989999999848
20
-69.817420999999996
11
147.6575789999999984
21
-69.4430009999999953
0
LINE
8
BLACK
6
CONTINUOUS
10
147.6575789999999984
20
-69.4430009999999953
11
147.6327059999999847
21
-69.4126940000000019
0
LINE
8
BLACK
6
CONTINUOUS
10
147.6327059999999847
20
-69.4126940000000019
11
147.6028430000000071
21
-69.340598
0
LINE
8
BLACK
6
CONTINUOUS
10
147.6028430000000071
20
-69.340598
11
147.5989999999999895
21
-69.3015800000000013
0
LINE
8
BLACK
6
CONTINUOUS
10
147.5989999999999895
20
-69.3015800000000013
11
147.5989999999999895
21
-67.0009999999999906
0
LINE
8
BLACK
6
CONTINUOUS
10
147.5989999999999895
20
-67.0009999999999906
11
147.6028430000000071
21
-66.9619819999999919
0
LINE
8
BLACK
6
CONTINUOUS
10
147.6028430000000071
20
-66.9619819999999919
11
147.6327059999999847
21
-66.88988599999999
0
LINE
8
BLACK
6
CONTINUOUS
10
147.6327059999999847
20
-66.88988599999999
11
147.6575789999999984
21
-66.8595789999999965
0
LINE
8
BLACK
6
CONTINUOUS
10
147.6575789999999984
20
-66.8595789999999965
11
147.7057749999999885
21
-66.8113819999999947
0
LINE
8
BLACK
6
CONTINUOUS
10
147.7057749999999885
20
-66.8113819999999947
11
147.7057450000000074
21
-66.8113099999999918
0
LINE
8
BLACK
6
CONTINUOUS
10
147.7057450000000074
20
-66.8113099999999918
11
147.7068459999999845
21
-66.8063549999999964
0
LINE
8
BLACK
6
CONTINUOUS
10
147.7068459999999845
20
-66.8063549999999964
11
148.0838129999999921
21
-65.9999990000000025
0
LINE
8
BLACK
6
CONTINUOUS
10
148.0838129999999921
20
-65.9999990000000025
11
147.7068459999999845
21
-65.1936439999999919
0
LINE
8
BLACK
6
CONTINUOUS
10
147.7068459999999845
20
-65.1936439999999919
11
147.7066609999999969
21
-65.189503000000002
0
LINE
8
BLACK
6
CONTINUOUS
10
147.7066609999999969
20
-65.189503000000002
11
146.9785789999999963
21
-64.4614210000000014
0
LINE
8
BLACK
6
CONTINUOUS
10
146.9785789999999963
20
-64.4614210000000014
11
146.9537059999999826
21
-64.4311139999999938
0
LINE
8
BLACK
6
CONTINUOUS
10
146.9537059999999826
20
-64.4311139999999938
11
146.9238430000000051
21
-64.3590179999999918
0
LINE
8
BLACK
6
CONTINUOUS
10
146.9238430000000051
20
-64.3590179999999918
11
146.9199999999999875
21
-64.3199999999999932
0
LINE
8
BLACK
6
CONTINUOUS
10
146.9199999999999875
20
-64.3199999999999932
11
146.9199999999999875
21
-64.2332469999999915
0
LINE
8
BLACK
6
CONTINUOUS
10
146.9199999999999875
20
-64.2332469999999915
11
146.4606069999999818
21
-63.4740139999999968
0
LINE
8
BLACK
6
CONTINUOUS
10
146.4606069999999818
20
-63.4740139999999968
11
146.4592559999999821
21
-63.4651619999999994
0
LINE
8
BLACK
6
CONTINUOUS
10
146.4592559999999821
20
-63.4651619999999994
11
146.4595999999999947
21
-63.4646699999999981
0
LINE
8
BLACK
6
CONTINUOUS
10
146.4595999999999947
20
-63.4646699999999981
11
146.4144629999999836
21
-63.3971169999999944
0
LINE
8
BLACK
6
CONTINUOUS
10
146.4144629999999836
20
-63.3971169999999944
11
146.3544479999999908
21
-63.2522279999999952
0
LINE
8
BLACK
6
CONTINUOUS
10
146.3544479999999908
20
-63.2522279999999952
11
146.323851999999988
21
-63.0984139999999982
0
LINE
8
BLACK
6
CONTINUOUS
10
146.323851999999988
20
-63.0984139999999982
11
146.323851999999988
21
-62.9415859999999938
0
LINE
8
BLACK
6
CONTINUOUS
10
146.323851999999988
20
-62.9415859999999938
11
146.3399619999999857
21
-62.860593999999999
0
LINE
8
BLACK
6
CONTINUOUS
10
146.3399619999999857
20
-62.860593999999999
11
146.3383769999999799
21
-62.8525959999999984
0
LINE
8
BLACK
6
CONTINUOUS
10
146.3383769999999799
20
-62.8525959999999984
11
146.3385299999999916
21
-62.8519329999999954
0
LINE
8
BLACK
6
CONTINUOUS
10
146.3385299999999916
20
-62.8519329999999954
11
146.3514250000000061
21
-62.8029679999999999
0
LINE
8
BLACK
6
CONTINUOUS
10
146.3514250000000061
20
-62.8029679999999999
11
146.3544479999999908
21
-62.7877719999999968
0
LINE
8
BLACK
6
CONTINUOUS
10
146.3544479999999908
20
-62.7877719999999968
11
146.357135999999997
21
-62.7812799999999953
0
LINE
8
BLACK
6
CONTINUOUS
10
146.357135999999997
20
-62.7812799999999953
11
146.6362919999999974
21
-61.7212940000000003
0
LINE
8
BLACK
6
CONTINUOUS
10
146.6362919999999974
20
-61.7212940000000003
11
146.6376999999999953
21
-61.7188419999999951
0
LINE
8
BLACK
6
CONTINUOUS
10
146.6376999999999953
20
-61.7188419999999951
11
145.3461999999999819
21
-60.4273419999999959
0
LINE
8
BLACK
6
CONTINUOUS
10
145.3461999999999819
20
-60.4273419999999959
11
145.3213269999999966
21
-60.3970349999999954
0
LINE
8
BLACK
6
CONTINUOUS
10
145.3213269999999966
20
-60.3970349999999954
11
145.2914639999999906
21
-60.3249390000000005
0
LINE
8
BLACK
6
CONTINUOUS
10
145.2914639999999906
20
-60.3249390000000005
11
145.2876210000000015
21
-60.2859209999999948
0
LINE
8
BLACK
6
CONTINUOUS
10
145.2876210000000015
20
-60.2859209999999948
11
145.2876210000000015
21
-51.6146229999999946
0
LINE
8
BLACK
6
CONTINUOUS
10
145.2876210000000015
20
-51.6146229999999946
11
145.2914639999999906
21
-51.5756049999999959
0
LINE
8
BLACK
6
CONTINUOUS
10
145.2914639999999906
20
-51.5756049999999959
11
145.3213269999999966
21
-51.5035090000000011
0
LINE
8
BLACK
6
CONTINUOUS
10
145.3213269999999966
20
-51.5035090000000011
11
145.3461999999999819
21
-51.4732020000000006
0
LINE
8
BLACK
6
CONTINUOUS
10
145.3461999999999819
20
-51.4732020000000006
11
147.3608229999999821
21
-49.4585790000000003
0
LINE
8
BLACK
6
CONTINUOUS
10
147.3608229999999821
20
-49.4585790000000003
11
147.391130000000004
21
-49.4337060000000008
0
LINE
8
BLACK
6
CONTINUOUS
10
147.391130000000004
20
-49.4337060000000008
11
147.4632259999999917
21
-49.4038429999999948
0
LINE
8
BLACK
6
CONTINUOUS
10
147.4632259999999917
20
-49.4038429999999948
11
147.5022439999999904
21
-49.3999999999999986
0
LINE
8
BLACK
6
CONTINUOUS
10
147.5022439999999904
20
-49.3999999999999986
11
148.2028080000000045
21
-49.3999999999999986
0
LINE
8
BLACK
6
CONTINUOUS
10
148.2028080000000045
20
-49.3999999999999986
11
148.2034270000000049
21
-49.3985050000000001
0
LINE
8
BLACK
6
CONTINUOUS
10
148.2034270000000049
20
-49.3985050000000001
11
148.2058810000000051
21
-49.3966279999999998
0
LINE
8
BLACK
6
CONTINUOUS
10
148.2058810000000051
20
-49.3966279999999998
11
148.8891729999999995
21
-49.0048669999999973
0
LINE
8
BLACK
6
CONTINUOUS
10
148.8891729999999995
20
-49.0048669999999973
11
148.8980509999999811
21
-49.0037260000000003
0
LINE
8
BLACK
6
CONTINUOUS
10
148.8980509999999811
20
-49.0037260000000003
11
148.8984470000000044
21
-49.0039790000000011
0
LINE
8
BLACK
6
CONTINUOUS
10
148.8984470000000044
20
-49.0039790000000011
11
148.92398799999998
21
-48.959742999999996
0
LINE
8
BLACK
6
CONTINUOUS
10
148.92398799999998
20
-48.959742999999996
11
149.0347429999999918
21
-48.8489879999999985
0
LINE
8
BLACK
6
CONTINUOUS
10
149.0347429999999918
20
-48.8489879999999985
11
149.1703899999999976
21
-48.7706719999999976
0
LINE
8
BLACK
6
CONTINUOUS
10
149.1703899999999976
20
-48.7706719999999976
11
149.3216840000000047
21
-48.730132999999995
0
LINE
8
BLACK
6
CONTINUOUS
10
149.3216840000000047
20
-48.730132999999995
11
149.4368560000000059
21
-48.730132999999995
0
LINE
8
BLACK
6
CONTINUOUS
10
149.4368560000000059
20
-48.730132999999995
11
150.2071329999999989
21
-48.5053139999999985
0
LINE
8
BLACK
6
CONTINUOUS
10
150.2071329999999989
20
-48.5053139999999985
11
150.2113799999999912
21
-48.5057769999999948
0
LINE
8
BLACK
6
CONTINUOUS
10
150.2113799999999912
20
-48.5057769999999948
11
150.5564919999999915
21
-48.1606659999999991
0
LINE
8
BLACK
6
CONTINUOUS
10
150.5564919999999915
20
-48.1606659999999991
11
150.586798999999985
21
-48.1357929999999996
0
LINE
8
BLACK
6
CONTINUOUS
10
150.586798999999985
20
-48.1357929999999996
11
150.6588950000000011
21
-48.1059300000000007
0
LINE
8
BLACK
6
CONTINUOUS
10
150.6588950000000011
20
-48.1059300000000007
11
150.6979129999999998
21
-48.1020869999999974
0
LINE
8
BLACK
6
CONTINUOUS
10
150.6979129999999998
20
-48.1020869999999974
11
152.351003999999989
21
-48.1020869999999974
0
LINE
8
BLACK
6
CONTINUOUS
10
152.351003999999989
20
-48.1020869999999974
11
152.3900219999999877
21
-48.1059300000000007
0
LINE
8
BLACK
6
CONTINUOUS
10
152.4322279999999807
20
-62.2544479999999965
11
152.577116999999987
21
-62.3144629999999964
0
LINE
8
BLACK
6
CONTINUOUS
10
152.577116999999987
20
-62.3144629999999964
11
152.7075150000000008
21
-62.4015919999999937
0
LINE
8
BLACK
6
CONTINUOUS
10
152.7075150000000008
20
-62.4015919999999937
11
152.8184080000000051
21
-62.5124849999999981
0
LINE
8
BLACK
6
CONTINUOUS
10
152.8184080000000051
20
-62.5124849999999981
11
152.9055369999999812
21
-62.6428829999999977
0
LINE
8
BLACK
6
CONTINUOUS
10
152.9055369999999812
20
-62.6428829999999977
11
152.9655520000000024
21
-62.7877719999999968
0
LINE
8
BLACK
6
CONTINUOUS
10
152.9655520000000024
20
-62.7877719999999968
11
152.9961480000000051
21
-62.9415859999999938
0
LINE
8
BLACK
6
CONTINUOUS
10
152.9961480000000051
20
-62.9415859999999938
11
152.9961480000000051
21
-63.0984139999999982
0
LINE
8
BLACK
6
CONTINUOUS
10
152.9961480000000051
20
-63.0984139999999982
11
152.9655520000000024
21
-63.2522279999999952
0
LINE
8
BLACK
6
CONTINUOUS
10
152.9655520000000024
20
-63.2522279999999952
11
152.9055369999999812
21
-63.3971169999999944
0
LINE
8
BLACK
6
CONTINUOUS
10
152.9055369999999812
20
-63.3971169999999944
11
152.8184080000000051
21
-63.527514999999994
0
LINE
8
BLACK
6
CONTINUOUS
10
152.8184080000000051
20
-63.527514999999994
11
152.7075150000000008
21
-63.6384079999999983
0
LINE
8
BLACK
6
CONTINUOUS
10
152.7075150000000008
20
-63.6384079999999983
11
152.577116999999987
21
-63.7255369999999957
0
LINE
8
BLACK
6
CONTINUOUS
10
152.577116999999987
20
-63.7255369999999957
11
152.4322279999999807
21
-63.7855519999999956
0
LINE
8
BLACK
6
CONTINUOUS
10
152.4322279999999807
20
-63.7855519999999956
11
152.3525259999999832
21
-63.8014049999999955
0
LINE
8
BLACK
6
CONTINUOUS
10
152.3525259999999832
20
-63.8014049999999955
11
152.3522319999999866
21
-63.8028759999999977
0
LINE
8
BLACK
6
CONTINUOUS
10
152.3522319999999866
20
-63.8028759999999977
11
152.3457569999999919
21
-63.8076049999999952
0
LINE
8
BLACK
6
CONTINUOUS
10
152.3457569999999919
20
-63.8076049999999952
11
151.4112999999999829
21
-64.0773989999999998
0
LINE
8
BLACK
6
CONTINUOUS
10
151.4112999999999829
20
-64.0773989999999998
11
151.3543499999999824
21
-64.1343499999999977
0
LINE
8
BLACK
6
CONTINUOUS
10
151.3543499999999824
20
-64.1343499999999977
11
151.3255580000000009
21
-64.1579789999999974
0
LINE
8
BLACK
6
CONTINUOUS
10
151.3255580000000009
20
-64.1579789999999974
11
151.2570670000000064
21
-64.1863489999999928
0
LINE
8
BLACK
6
CONTINUOUS
10
151.2570670000000064
20
-64.1863489999999928
11
151.2199999999999989
21
-64.1899999999999977
0
LINE
8
BLACK
6
CONTINUOUS
10
151.2199999999999989
20
-64.1899999999999977
11
150.6786999999999921
21
-64.1899999999999977
0
LINE
8
BLACK
6
CONTINUOUS
10
150.6786999999999921
20
-64.1899999999999977
11
149.9894029999999816
21
-64.879296999999994
0
LINE
8
BLACK
6
CONTINUOUS
10
149.9894029999999816
20
-64.879296999999994
11
149.9894029999999816
21
-67.3315029999999979
0
LINE
8
BLACK
6
CONTINUOUS
10
149.9894029999999816
20
-67.3315029999999979
11
149.997714000000002
21
-67.3515680000000003
0
LINE
8
BLACK
6
CONTINUOUS
10
149.997714000000002
20
-67.3515680000000003
11
149.997714000000002
21
-67.4257020000000011
0
LINE
8
BLACK
6
CONTINUOUS
10
149.997714000000002
20
-67.4257020000000011
11
149.9693440000000066
21
-67.4941929999999957
0
LINE
8
BLACK
6
CONTINUOUS
10
149.9693440000000066
20
-67.4941929999999957
11
149.916922999999997
21
-67.5466139999999911
0
LINE
8
BLACK
6
CONTINUOUS
10
149.916922999999997
20
-67.5466139999999911
11
149.8887650000000065
21
-67.5582770000000039
0
LINE
8
BLACK
6
CONTINUOUS
10
149.8887650000000065
20
-67.5582770000000039
11
149.8672939999999869
21
-67.6101139999999958
0
LINE
8
BLACK
6
CONTINUOUS
10
149.8672939999999869
20
-67.6101139999999958
11
149.8424210000000016
21
-67.6404220000000009
0
LINE
8
BLACK
6
CONTINUOUS
10
149.8424210000000016
20
-67.6404220000000009
11
149.7856579999999838
21
-67.6971839999999929
0
LINE
8
BLACK
6
CONTINUOUS
10
149.7856579999999838
20
-67.6971839999999929
11
149.4044219999999825
21
-68.6376180000000033
0
LINE
8
BLACK
6
CONTINUOUS
10
149.4044219999999825
20
-68.6376180000000033
11
149.4000000000000057
21
-68.6421059999999983
0
LINE
8
BLACK
6
CONTINUOUS
10
149.4000000000000057
20
-68.6421059999999983
11
149.4000000000000057
21
-69.0249999999999915
0
LINE
8
BLACK
6
CONTINUOUS
10
149.4000000000000057
20
-69.0249999999999915
11
149.3809699999999907
21
-69.1206710000000015
0
LINE
8
BLACK
6
CONTINUOUS
10
149.3809699999999907
20
-69.1206710000000015
11
149.3267769999999928
21
-69.2017769999999928
0
LINE
8
BLACK
6
CONTINUOUS
10
149.3267769999999928
20
-69.2017769999999928
11
149.2456709999999873
21
-69.2559699999999907
0
LINE
8
BLACK
6
CONTINUOUS
10
149.2456709999999873
20
-69.2559699999999907
11
149.1500000000000057
21
-69.2749999999999915
0
LINE
8
BLACK
6
CONTINUOUS
10
149.1500000000000057
20
-69.2749999999999915
11
148.4499999999999886
21
-69.2749999999999915
0
LINE
8
BLACK
6
CONTINUOUS
10
148.4499999999999886
20
-69.2749999999999915
11
148.354329000000007
21
-69.2559699999999907
0
LINE
8
BLACK
6
CONTINUOUS
10
148.354329000000007
20
-69.2559699999999907
11
148.2732230000000015
21
-69.2017769999999928
0
LINE
8
BLACK
6
CONTINUOUS
10
148.2732230000000015
20
-69.2017769999999928
11
148.2190300000000036
21
-69.1206710000000015
0
LINE
8
BLACK
6
CONTINUOUS
10
148.2190300000000036
20
-69.1206710000000015
11
148.1999999999999886
21
-69.0249999999999915
0
LINE
8
BLACK
6
CONTINUOUS
10
148.1999999999999886
20
-69.0249999999999915
11
148.1999999999999886
21
-67.7749999999999915
0
LINE
8
BLACK
6
CONTINUOUS
10
148.1999999999999886
20
-67.7749999999999915
11
148.2190300000000036
21
-67.6793289999999956
0
LINE
8
BLACK
6
CONTINUOUS
10
148.2190300000000036
20
-67.6793289999999956
11
148.2732230000000015
21
-67.5982229999999902
0
LINE
8
BLACK
6
CONTINUOUS
10
148.2732230000000015
20
-67.5982229999999902
11
148.354329000000007
21
-67.5440299999999922
0
LINE
8
BLACK
6
CONTINUOUS
10
148.354329000000007
20
-67.5440299999999922
11
148.4499999999999886
21
-67.5249999999999915
0
LINE
8
BLACK
6
CONTINUOUS
10
148.4499999999999886
20
-67.5249999999999915
11
148.8315359999999998
21
-67.5249999999999915
0
LINE
8
BLACK
6
CONTINUOUS
10
148.8315359999999998
20
-67.5249999999999915
11
148.8352979999999945
21
-67.5229999999999961
0
LINE
8
BLACK
6
CONTINUOUS
10
148.8352979999999945
20
-67.5229999999999961
11
149.557817
21
-67.3593389999999914
0
LINE
8
BLACK
6
CONTINUOUS
10
149.557817
20
-67.3593389999999914
11
149.5595779999999877
21
-67.3575790000000012
0
LINE
8
BLACK
6
CONTINUOUS
10
149.5595779999999877
20
-67.3575790000000012
11
149.589886000000007
21
-67.3327060000000017
0
LINE
8
BLACK
6
CONTINUOUS
10
149.589886000000007
20
-67.3327060000000017
11
149.6094029999999862
21
-67.3246209999999934
0
LINE
8
BLACK
6
CONTINUOUS
10
149.6094029999999862
20
-67.3246209999999934
11
149.6094029999999862
21
-64.8005969999999962
0
LINE
8
BLACK
6
CONTINUOUS
10
149.6094029999999862
20
-64.8005969999999962
11
149.6130540000000053
21
-64.7635300000000029
0
LINE
8
BLACK
6
CONTINUOUS
10
149.6130540000000053
20
-64.7635300000000029
11
149.6414240000000007
21
-64.6950389999999942
0
LINE
8
BLACK
6
CONTINUOUS
10
149.6414240000000007
20
-64.6950389999999942
11
149.6650530000000003
21
-64.6662469999999985
0
LINE
8
BLACK
6
CONTINUOUS
10
149.6650530000000003
20
-64.6662469999999985
11
150.4656499999999824
21
-63.8656499999999951
0
LINE
8
BLACK
6
CONTINUOUS
10
150.4656499999999824
20
-63.8656499999999951
11
150.4944419999999923
21
-63.8420209999999955
0
LINE
8
BLACK
6
CONTINUOUS
10
150.4944419999999923
20
-63.8420209999999955
11
150.5629329999999868
21
-63.8136510000000001
0
LINE
8
BLACK
6
CONTINUOUS
10
150.5629329999999868
20
-63.8136510000000001
11
150.5999999999999943
21
-63.8099999999999952
0
LINE
8
BLACK
6
CONTINUOUS
10
150.5999999999999943
20
-63.8099999999999952
11
151.0217669999999828
21
-63.8099999999999952
0
LINE
8
BLACK
6
CONTINUOUS
10
151.0217669999999828
20
-63.8099999999999952
11
151.022198000000003
21
-63.8078429999999983
0
LINE
8
BLACK
6
CONTINUOUS
10
151.022198000000003
20
-63.8078429999999983
11
151.0222969999999805
21
-63.8076049999999952
0
LINE
8
BLACK
6
CONTINUOUS
10
151.0222969999999805
20
-63.8076049999999952
11
151.4233689999999797
21
-62.8434679999999943
0
LINE
8
BLACK
6
CONTINUOUS
10
151.4233689999999797
20
-62.8434679999999943
11
151.4344480000000033
21
-62.7877719999999968
0
LINE
8
BLACK
6
CONTINUOUS
10
151.4344480000000033
20
-62.7877719999999968
11
151.4944629999999961
21
-62.6428829999999977
0
LINE
8
BLACK
6
CONTINUOUS
10
151.4944629999999961
20
-62.6428829999999977
11
151.5271789999999896
21
-62.5939189999999996
0
LINE
8
BLACK
6
CONTINUOUS
10
151.5271789999999896
20
-62.5939189999999996
11
151.5293609999999944
21
-62.588674999999995
0
LINE
8
BLACK
6
CONTINUOUS
10
151.5293609999999944
20
-62.588674999999995
11
151.5333200000000033
21
-62.5847279999999984
0
LINE
8
BLACK
6
CONTINUOUS
10
151.5333200000000033
20
-62.5847279999999984
11
151.5815920000000006
21
-62.5124849999999981
0
LINE
8
BLACK
6
CONTINUOUS
10
151.5815920000000006
20
-62.5124849999999981
11
151.6924850000000049
21
-62.4015919999999937
0
LINE
8
BLACK
6
CONTINUOUS
10
151.6924850000000049
20
-62.4015919999999937
11
151.8228829999999903
21
-62.3144629999999964
0
LINE
8
BLACK
6
CONTINUOUS
10
151.8228829999999903
20
-62.3144629999999964
11
151.9677719999999965
21
-62.2544479999999965
0
LINE
8
BLACK
6
CONTINUOUS
10
151.9677719999999965
20
-62.2544479999999965
11
152.1215859999999793
21
-62.2238519999999937
0
LINE
8
BLACK
6
CONTINUOUS
10
152.1215859999999793
20
-62.2238519999999937
11
152.2784139999999979
21
-62.2238519999999937
0
LINE
8
BLACK
6
CONTINUOUS
10
152.2784139999999979
20
-62.2238519999999937
11
152.4322279999999807
21
-62.2544479999999965
0
LINE
8
BLACK
6
CONTINUOUS
10
151.8456709999999816
20
-48.7440299999999951
11
151.9267769999999871
21
-48.7982230000000001
0
LINE
8
BLACK
6
CONTINUOUS
10
151.9267769999999871
20
-48.7982230000000001
11
151.980969999999985
21
-48.8793289999999985
0
LINE
8
BLACK
6
CONTINUOUS
10
151.980969999999985
20
-48.8793289999999985
11
152.
21
-48.9749999999999943
0
LINE
8
BLACK
6
CONTINUOUS
10
152.
20
-48.9749999999999943
11
152.
21
-49.3566649999999996
0
LINE
8
BLACK
6
CONTINUOUS
10
152.
20
-49.3566649999999996
11
152.0048669999999902
21
-49.3612059999999957
0
LINE
8
BLACK
6
CONTINUOUS
10
152.0048669999999902
20
-49.3612059999999957
11
152.1239109999999926
21
-49.5992929999999959
0
LINE
8
BLACK
6
CONTINUOUS
10
152.1239109999999926
20
-49.5992929999999959
11
152.5601159999999936
21
-50.471702999999998
0
LINE
8
BLACK
6
CONTINUOUS
10
152.5601159999999936
20
-50.471702999999998
11
152.5619140000000016
21
-50.4752999999999972
0
LINE
8
BLACK
6
CONTINUOUS
10
152.5619140000000016
20
-50.4752999999999972
11
152.562201999999985
21
-50.4793599999999998
0
LINE
8
BLACK
6
CONTINUOUS
10
152.562201999999985
20
-50.4793599999999998
11
153.6191759999999817
21
-51.5363329999999991
0
LINE
8
BLACK
6
CONTINUOUS
10
153.6191759999999817
20
-51.5363329999999991
11
153.6440489999999954
21
-51.5666409999999971
0
LINE
8
BLACK
6
CONTINUOUS
10
153.6440489999999954
20
-51.5666409999999971
11
153.6739120000000014
21
-51.638736999999999
0
LINE
8
BLACK
6
CONTINUOUS
10
153.6739120000000014
20
-51.638736999999999
11
153.6739120000000014
21
-51.6474489999999946
0
LINE
8
BLACK
6
CONTINUOUS
10
153.6739120000000014
20
-51.6474489999999946
11
153.6760659999999916
21
-51.6526499999999942
0
LINE
8
BLACK
6
CONTINUOUS
10
153.6760659999999916
20
-51.6526499999999942
11
153.6797169999999824
21
-51.6897169999999946
0
LINE
8
BLACK
6
CONTINUOUS
10
153.6797169999999824
20
-51.6897169999999946
11
153.6797169999999824
21
-54.8861950000000007
0
LINE
8
BLACK
6
CONTINUOUS
10
153.6797169999999824
20
-54.8861950000000007
11
154.4752229999999997
21
-54.6479299999999952
0
LINE
8
BLACK
6
CONTINUOUS
10
154.4752229999999997
20
-54.6479299999999952
11
154.5077719999999886
21
-54.634447999999999
0
LINE
8
BLACK
6
CONTINUOUS
10
154.5077719999999886
20
-54.634447999999999
11
154.5448820000000012
21
-54.6270659999999992
0
LINE
8
BLACK
6
CONTINUOUS
10
154.5448820000000012
20
-54.6270659999999992
11
154.5715930000000071
21
-54.6190659999999966
0
LINE
8
BLACK
6
CONTINUOUS
10
154.5715930000000071
20
-54.6190659999999966
11
154.5805000000000007
21
-54.6199749999999966
0
LINE
8
BLACK
6
CONTINUOUS
10
154.5805000000000007
20
-54.6199749999999966
11
154.5805039999999906
21
-54.6199799999999982
0
LINE
8
BLACK
6
CONTINUOUS
10
154.5805039999999906
20
-54.6199799999999982
11
154.6615859999999998
21
-54.6038519999999963
0
LINE
8
BLACK
6
CONTINUOUS
10
154.6615859999999998
20
-54.6038519999999963
11
154.81841399999999
21
-54.6038519999999963
0
LINE
8
BLACK
6
CONTINUOUS
10
154.81841399999999
20
-54.6038519999999963
11
154.9722280000000012
21
-54.634447999999999
0
LINE
8
BLACK
6
CONTINUOUS
10
154.9722280000000012
20
-54.634447999999999
11
155.117116999999979
21
-54.6944629999999989
0
LINE
8
BLACK
6
CONTINUOUS
10
155.117116999999979
20
-54.6944629999999989
11
155.2475149999999928
21
-54.7815919999999963
0
LINE
8
BLACK
6
CONTINUOUS
10
155.2475149999999928
20
-54.7815919999999963
11
155.3584079999999972
21
-54.8924850000000006
0
LINE
8
BLACK
6
CONTINUOUS
10
155.3584079999999972
20
-54.8924850000000006
11
155.4455370000000016
21
-55.0228830000000002
0
LINE
8
BLACK
6
CONTINUOUS
10
155.4455370000000016
20
-55.0228830000000002
11
155.5055519999999945
21
-55.1677719999999994
0
LINE
8
BLACK
6
CONTINUOUS
10
155.5055519999999945
20
-55.1677719999999994
11
155.5361479999999972
21
-55.3215859999999964
0
LINE
8
BLACK
6
CONTINUOUS
10
155.5361479999999972
20
-55.3215859999999964
11
155.5361479999999972
21
-55.4784140000000008
0
LINE
8
BLACK
6
CONTINUOUS
10
155.5361479999999972
20
-55.4784140000000008
11
155.5192099999999868
21
-55.5635599999999954
0
LINE
8
BLACK
6
CONTINUOUS
10
155.5192099999999868
20
-55.5635599999999954
11
155.5199020000000019
21
-55.5670579999999958
0
LINE
8
BLACK
6
CONTINUOUS
10
155.5199020000000019
20
-55.5670579999999958
11
155.5192579999999793
21
-55.569192000000001
0
LINE
8
BLACK
6
CONTINUOUS
10
155.5192579999999793
20
-55.569192000000001
11
155.5169870000000003
21
-55.5747409999999959
0
LINE
8
BLACK
6
CONTINUOUS
10
155.5169870000000003
20
-55.5747409999999959
11
155.5055519999999945
21
-55.6322279999999978
0
LINE
8
BLACK
6
CONTINUOUS
10
155.5055519999999945
20
-55.6322279999999978
11
155.4455370000000016
21
-55.7771169999999969
0
LINE
8
BLACK
6
CONTINUOUS
10
155.4455370000000016
20
-55.7771169999999969
11
155.4161939999999902
21
-55.8210309999999978
0
LINE
8
BLACK
6
CONTINUOUS
10
155.4161939999999902
20
-55.8210309999999978
11
154.9429749999999899
21
-56.9773589999999999
0
LINE
8
BLACK
6
CONTINUOUS
10
154.9429749999999899
20
-56.9773589999999999
11
154.9399999999999977
21
-56.980359
0
LINE
8
BLACK
6
CONTINUOUS
10
154.9399999999999977
20
-56.980359
11
154.9399999999999977
21
-57.6599999999999966
0
LINE
8
BLACK
6
CONTINUOUS
10
154.9399999999999977
20
-57.6599999999999966
11
154.9361569999999801
21
-57.6990179999999953
0
LINE
8
BLACK
6
CONTINUOUS
10
154.9361569999999801
20
-57.6990179999999953
11
154.9062940000000026
21
-57.7711139999999972
0
LINE
8
BLACK
6
CONTINUOUS
10
154.9062940000000026
20
-57.7711139999999972
11
154.8814209999999889
21
-57.8014209999999977
0
LINE
8
BLACK
6
CONTINUOUS
10
154.8814209999999889
20
-57.8014209999999977
11
153.6999999999999886
21
-58.982841999999998
0
LINE
8
BLACK
6
CONTINUOUS
10
153.6999999999999886
20
-58.982841999999998
11
153.6999999999999886
21
-63.4184709999999967
0
LINE
8
BLACK
6
CONTINUOUS
10
153.6999999999999886
20
-63.4184709999999967
11
153.6961569999999995
21
-63.4574889999999954
0
LINE
8
BLACK
6
CONTINUOUS
10
153.6961569999999995
20
-63.4574889999999954
11
153.6662939999999935
21
-63.5295849999999973
0
LINE
8
BLACK
6
CONTINUOUS
10
153.6662939999999935
20
-63.5295849999999973
11
153.6414209999999798
21
-63.5598919999999978
0
LINE
8
BLACK
6
CONTINUOUS
10
153.6414209999999798
20
-63.5598919999999978
11
152.3358920000000012
21
-64.8654209999999978
0
LINE
8
BLACK
6
CONTINUOUS
10
152.3358920000000012
20
-64.8654209999999978
11
152.3055849999999793
21
-64.8902939999999973
0
LINE
8
BLACK
6
CONTINUOUS
10
152.3055849999999793
20
-64.8902939999999973
11
152.2334889999999916
21
-64.9201570000000032
0
LINE
8
BLACK
6
CONTINUOUS
10
152.2334889999999916
20
-64.9201570000000032
11
152.194470999999993
21
-64.9239999999999924
0
LINE
8
BLACK
6
CONTINUOUS
10
152.194470999999993
20
-64.9239999999999924
11
152.1588429999999903
21
-64.9239999999999924
0
LINE
8
BLACK
6
CONTINUOUS
10
152.1588429999999903
20
-64.9239999999999924
11
151.8942239999999799
21
-65.1886179999999911
0
LINE
8
BLACK
6
CONTINUOUS
10
151.8942239999999799
20
-65.1886179999999911
11
151.8942539999999894
21
-65.1886889999999966
0
LINE
8
BLACK
6
CONTINUOUS
10
151.8942539999999894
20
-65.1886889999999966
11
151.8931529999999839
21
-65.1936439999999919
0
LINE
8
BLACK
6
CONTINUOUS
10
151.8931529999999839
20
-65.1936439999999919
11
151.4047319999999957
21
-66.2384050000000002
0
LINE
8
BLACK
6
CONTINUOUS
10
151.4047319999999957
20
-66.2384050000000002
11
151.4000000000000057
21
-66.2427320000000037
0
LINE
8
BLACK
6
CONTINUOUS
10
151.4000000000000057
20
-66.2427320000000037
11
151.4000000000000057
21
-66.2749999999999915
0
LINE
8
BLACK
6
CONTINUOUS
10
151.4000000000000057
20
-66.2749999999999915
11
151.394867000000005
21
-66.3533159999999924
0
LINE
8
BLACK
6
CONTINUOUS
10
151.394867000000005
20
-66.3533159999999924
11
151.3543279999999811
21
-66.5046099999999996
0
LINE
8
BLACK
6
CONTINUOUS
10
151.3543279999999811
20
-66.5046099999999996
11
151.295423999999997
21
-66.6066319999999905
0
LINE
8
BLACK
6
CONTINUOUS
10
151.295423999999997
20
-66.6066319999999905
11
151.2968109999999911
21
-66.6112219999999979
0
LINE
8
BLACK
6
CONTINUOUS
10
151.2968109999999911
20
-66.6112219999999979
11
151.2957719999999995
21
-66.6150080000000031
0
LINE
8
BLACK
6
CONTINUOUS
10
151.2957719999999995
20
-66.6150080000000031
11
151.0228970000000004
21
-67.1999989999999912
0
LINE
8
BLACK
6
CONTINUOUS
10
151.0228970000000004
20
-67.1999989999999912
11
151.2957719999999995
21
-67.7849909999999909
0
LINE
8
BLACK
6
CONTINUOUS
10
151.2957719999999995
20
-67.7849909999999909
11
151.2961640000000045
21
-67.7939369999999997
0
LINE
8
BLACK
6
CONTINUOUS
10
151.2961640000000045
20
-67.7939369999999997
11
151.2959599999999796
21
-67.7942939999999936
0
LINE
8
BLACK
6
CONTINUOUS
10
151.2959599999999796
20
-67.7942939999999936
11
151.3543279999999811
21
-67.8953899999999919
0
LINE
8
BLACK
6
CONTINUOUS
10
151.3543279999999811
20
-67.8953899999999919
11
151.394867000000005
21
-68.0466839999999991
0
LINE
8
BLACK
6
CONTINUOUS
10
151.394867000000005
20
-68.0466839999999991
11
151.4000000000000057
21
-68.125
0
LINE
8
BLACK
6
CONTINUOUS
10
151.4000000000000057
20
-68.125
11
151.4000000000000057
21
-68.6749999999999972
0
LINE
8
BLACK
6
CONTINUOUS
10
151.4000000000000057
20
-68.6749999999999972
11
151.394867000000005
21
-68.7533159999999981
0
LINE
8
BLACK
6
CONTINUOUS
10
151.394867000000005
20
-68.7533159999999981
11
151.3543279999999811
21
-68.904609999999991
0
LINE
8
BLACK
6
CONTINUOUS
10
151.3543279999999811
20
-68.904609999999991
11
151.2760119999999802
21
-69.0402569999999969
0
LINE
8
BLACK
6
CONTINUOUS
10
151.2760119999999802
20
-69.0402569999999969
11
151.1652569999999969
21
-69.1510119999999944
0
LINE
8
BLACK
6
CONTINUOUS
10
151.1652569999999969
20
-69.1510119999999944
11
151.029609999999991
21
-69.2293279999999953
0
LINE
8
BLACK
6
CONTINUOUS
10
151.029609999999991
20
-69.2293279999999953
11
150.8783159999999839
21
-69.2698669999999908
0
LINE
8
BLACK
6
CONTINUOUS
10
150.8783159999999839
20
-69.2698669999999908
11
150.721683999999982
21
-69.2698669999999908
0
LINE
8
BLACK
6
CONTINUOUS
10
150.721683999999982
20
-69.2698669999999908
11
150.5703900000000033
21
-69.2293279999999953
0
LINE
8
BLACK
6
CONTINUOUS
10
150.5703900000000033
20
-69.2293279999999953
11
150.4347429999999974
21
-69.1510119999999944
0
LINE
8
BLACK
6
CONTINUOUS
10
150.4347429999999974
20
-69.1510119999999944
11
150.3239879999999857
21
-69.0402569999999969
0
LINE
8
BLACK
6
CONTINUOUS
10
150.3239879999999857
20
-69.0402569999999969
11
150.2456719999999848
21
-68.904609999999991
0
LINE
8
BLACK
6
CONTINUOUS
10
150.2456719999999848
20
-68.904609999999991
11
150.2051329999999894
21
-68.7533159999999981
0
LINE
8
BLACK
6
CONTINUOUS
10
150.2051329999999894
20
-68.7533159999999981
11
150.1999999999999886
21
-68.6749999999999972
0
LINE
8
BLACK
6
CONTINUOUS
10
150.1999999999999886
20
-68.6749999999999972
11
150.1999999999999886
21
-68.125
0
LINE
8
BLACK
6
CONTINUOUS
10
150.1999999999999886
20
-68.125
11
150.2051329999999894
21
-68.0466839999999991
0
LINE
8
BLACK
6
CONTINUOUS
10
150.2051329999999894
20
-68.0466839999999991
11
150.2456719999999848
21
-67.8953899999999919
0
LINE
8
BLACK
6
CONTINUOUS
10
150.2456719999999848
20
-67.8953899999999919
11
150.3045740000000023
21
-67.7933670000000035
0
LINE
8
BLACK
6
CONTINUOUS
10
150.3045740000000023
20
-67.7933670000000035
11
150.3031880000000058
21
-67.7887769999999961
0
LINE
8
BLACK
6
CONTINUOUS
10
150.3031880000000058
20
-67.7887769999999961
11
150.3042250000000024
21
-67.784994999999995
0
LINE
8
BLACK
6
CONTINUOUS
10
150.3042250000000024
20
-67.784994999999995
11
150.577100999999999
21
-67.1999989999999912
0
LINE
8
BLACK
6
CONTINUOUS
10
150.577100999999999
20
-67.1999989999999912
11
150.3042269999999974
21
-66.6150080000000031
0
LINE
8
BLACK
6
CONTINUOUS
10
150.3042269999999974
20
-66.6150080000000031
11
150.3038349999999923
21
-66.6060619999999943
0
LINE
8
BLACK
6
CONTINUOUS
10
150.3038349999999923
20
-66.6060619999999943
11
150.3040379999999914
21
-66.6057029999999912
0
LINE
8
BLACK
6
CONTINUOUS
10
150.3040379999999914
20
-66.6057029999999912
11
150.2456719999999848
21
-66.5046099999999996
0
LINE
8
BLACK
6
CONTINUOUS
10
150.2456719999999848
20
-66.5046099999999996
11
150.2051329999999894
21
-66.3533159999999924
0
LINE
8
BLACK
6
CONTINUOUS
10
150.2051329999999894
20
-66.3533159999999924
11
150.1999999999999886
21
-66.2749999999999915
0
LINE
8
BLACK
6
CONTINUOUS
10
150.1999999999999886
20
-66.2749999999999915
11
150.1999999999999886
21
-65.7249999999999943
0
LINE
8
BLACK
6
CONTINUOUS
10
150.1999999999999886
20
-65.7249999999999943
11
150.2051329999999894
21
-65.6466839999999934
0
LINE
8
BLACK
6
CONTINUOUS
10
150.2051329999999894
20
-65.6466839999999934
11
150.2456719999999848
21
-65.4953900000000004
0
LINE
8
BLACK
6
CONTINUOUS
10
150.2456719999999848
20
-65.4953900000000004
11
150.3239879999999857
21
-65.3597429999999946
0
LINE
8
BLACK
6
CONTINUOUS
10
150.3239879999999857
20
-65.3597429999999946
11
150.4347429999999974
21
-65.2489879999999971
0
LINE
8
BLACK
6
CONTINUOUS
10
150.4347429999999974
20
-65.2489879999999971
11
150.5703900000000033
21
-65.1706719999999962
0
LINE
8
BLACK
6
CONTINUOUS
10
150.5703900000000033
20
-65.1706719999999962
11
150.721683999999982
21
-65.1301330000000007
0
LINE
8
BLACK
6
CONTINUOUS
10
150.721683999999982
20
-65.1301330000000007
11
150.8368559999999832
21
-65.1301330000000007
0
LINE
8
BLACK
6
CONTINUOUS
10
150.8368559999999832
20
-65.1301330000000007
11
151.6071330000000046
21
-64.90531399999999
0
LINE
8
BLACK
6
CONTINUOUS
10
151.6071330000000046
20
-64.90531399999999
11
151.6113789999999995
21
-64.9057770000000005
0
LINE
8
BLACK
6
CONTINUOUS
10
151.6113789999999995
20
-64.9057770000000005
11
151.9345789999999852
21
-64.582577999999998
0
LINE
8
BLACK
6
CONTINUOUS
10
151.9345789999999852
20
-64.582577999999998
11
151.964886000000007
21
-64.557705999999996
0
LINE
8
BLACK
6
CONTINUOUS
10
151.964886000000007
20
-64.557705999999996
11
152.0369819999999947
21
-64.5278429999999901
0
LINE
8
BLACK
6
CONTINUOUS
10
152.0369819999999947
20
-64.5278429999999901
11
152.0759999999999934
21
-64.5240000000000009
0
LINE
8
BLACK
6
CONTINUOUS
10
152.0759999999999934
20
-64.5240000000000009
11
152.1116289999999935
21
-64.5240000000000009
0
LINE
8
BLACK
6
CONTINUOUS
10
152.1116289999999935
20
-64.5240000000000009
11
153.2999999999999829
21
-63.3356289999999973
0
LINE
8
BLACK
6
CONTINUOUS
10
153.2999999999999829
20
-63.3356289999999973
11
153.2999999999999829
21
-58.8999999999999986
0
LINE
8
BLACK
6
CONTINUOUS
10
153.2999999999999829
20
-58.8999999999999986
11
153.3038430000000005
21
-58.8609819999999999
0
LINE
8
BLACK
6
CONTINUOUS
10
153.3038430000000005
20
-58.8609819999999999
11
153.3337060000000065
21
-58.788885999999998
0
LINE
8
BLACK
6
CONTINUOUS
10
153.3337060000000065
20
-58.788885999999998
11
153.3585789999999918
21
-58.7585789999999974
0
LINE
8
BLACK
6
CONTINUOUS
10
153.3585789999999918
20
-58.7585789999999974
11
154.539999999999992
21
-57.5771579999999972
0
LINE
8
BLACK
6
CONTINUOUS
10
154.539999999999992
20
-57.5771579999999972
11
154.539999999999992
21
-56.9813739999999953
0
LINE
8
BLACK
6
CONTINUOUS
10
154.539999999999992
20
-56.9813739999999953
11
154.5395800000000008
21
-56.9812009999999987
0
LINE
8
BLACK
6
CONTINUOUS
10
154.5395800000000008
20
-56.9812009999999987
11
154.5370249999999999
21
-56.9773589999999999
0
LINE
8
BLACK
6
CONTINUOUS
10
154.5370249999999999
20
-56.9773589999999999
11
154.1438629999999819
21
-56.016656999999995
0
LINE
8
BLACK
6
CONTINUOUS
10
154.1438629999999819
20
-56.016656999999995
11
154.1295819999999992
21
-56.016656999999995
0
LINE
8
BLACK
6
CONTINUOUS
10
154.1295819999999992
20
-56.016656999999995
11
154.0574859999999831
21
-55.9867939999999962
0
LINE
8
BLACK
6
CONTINUOUS
10
154.0574859999999831
20
-55.9867939999999962
11
154.0271779999999922
21
-55.9619209999999967
0
LINE
8
BLACK
6
CONTINUOUS
10
154.0271779999999922
20
-55.9619209999999967
11
153.3363339999999937
21
-55.2710760000000008
0
LINE
8
BLACK
6
CONTINUOUS
10
153.3363339999999937
20
-55.2710760000000008
11
153.31146099999998
21
-55.2407690000000002
0
LINE
8
BLACK
6
CONTINUOUS
10
153.31146099999998
20
-55.2407690000000002
11
153.2815980000000025
21
-55.1686729999999983
0
LINE
8
BLACK
6
CONTINUOUS
10
153.2815980000000025
20
-55.1686729999999983
11
153.2815980000000025
21
-55.090637000000001
0
LINE
8
BLACK
6
CONTINUOUS
10
153.2815980000000025
20
-55.090637000000001
11
153.2997169999999869
21
-55.0468929999999972
0
LINE
8
BLACK
6
CONTINUOUS
10
153.2997169999999869
20
-55.0468929999999972
11
153.2997169999999869
21
-51.7825589999999991
0
LINE
8
BLACK
6
CONTINUOUS
10
153.2997169999999869
20
-51.7825589999999991
11
152.2807109999999966
21
-50.7635529999999946
0
LINE
8
BLACK
6
CONTINUOUS
10
152.2807109999999966
20
-50.7635529999999946
11
152.2797129999999868
21
-50.763967000000001
0
LINE
8
BLACK
6
CONTINUOUS
10
152.2797129999999868
20
-50.763967000000001
11
152.2759519999999895
21
-50.7633459999999985
0
LINE
8
BLACK
6
CONTINUOUS
10
152.2759519999999895
20
-50.7633459999999985
11
151.4367489999999918
21
-50.4784879999999987
0
LINE
8
BLACK
6
CONTINUOUS
10
151.4367489999999918
20
-50.4784879999999987
11
150.7731689999999958
21
-50.6561459999999997
0
LINE
8
BLACK
6
CONTINUOUS
10
150.7731689999999958
20
-50.6561459999999997
11
150.7128009999999847
21
-50.6723089999999985
0
LINE
8
BLACK
6
CONTINUOUS
10
150.7128009999999847
20
-50.6723089999999985
11
150.701486999999986
21
-50.6753379999999964
0
LINE
8
BLACK
6
CONTINUOUS
10
150.701486999999986
20
-50.6753379999999964
11
150.6999999999999886
21
-50.6755329999999944
0
LINE
8
BLACK
6
CONTINUOUS
10
150.6999999999999886
20
-50.6755329999999944
11
150.6999999999999886
21
-51.6627379999999974
0
LINE
8
BLACK
6
CONTINUOUS
10
150.6999999999999886
20
-51.6627379999999974
11
150.7296099999999797
21
-51.6706719999999962
0
LINE
8
BLACK
6
CONTINUOUS
10
150.7296099999999797
20
-51.6706719999999962
11
150.8652569999999855
21
-51.7489879999999971
0
LINE
8
BLACK
6
CONTINUOUS
10
150.8652569999999855
20
-51.7489879999999971
11
150.9760119999999972
21
-51.8597429999999946
0
LINE
8
BLACK
6
CONTINUOUS
10
150.9760119999999972
20
-51.8597429999999946
11
151.0543279999999982
21
-51.9953900000000004
0
LINE
8
BLACK
6
CONTINUOUS
10
151.0543279999999982
20
-51.9953900000000004
11
151.0948669999999936
21
-52.1466840000000005
0
LINE
8
BLACK
6
CONTINUOUS
10
151.0948669999999936
20
-52.1466840000000005
11
151.0999999999999943
21
-52.2249999999999943
0
LINE
8
BLACK
6
CONTINUOUS
10
151.0999999999999943
20
-52.2249999999999943
11
151.0999999999999943
21
-52.7749999999999986
0
LINE
8
BLACK
6
CONTINUOUS
10
151.0999999999999943
20
-52.7749999999999986
11
151.0948669999999936
21
-52.8533159999999995
0
LINE
8
BLACK
6
CONTINUOUS
10
151.0948669999999936
20
-52.8533159999999995
11
151.0543279999999982
21
-53.0046099999999996
0
LINE
8
BLACK
6
CONTINUOUS
10
151.0543279999999982
20
-53.0046099999999996
11
150.9760119999999972
21
-53.1402569999999983
0
LINE
8
BLACK
6
CONTINUOUS
10
150.9760119999999972
20
-53.1402569999999983
11
150.8652569999999855
21
-53.2510119999999958
0
LINE
8
BLACK
6
CONTINUOUS
10
150.8652569999999855
20
-53.2510119999999958
11
150.7296099999999797
21
-53.3293279999999967
0
LINE
8
BLACK
6
CONTINUOUS
10
150.7296099999999797
20
-53.3293279999999967
11
150.5783160000000009
21
-53.3698669999999993
0
LINE
8
BLACK
6
CONTINUOUS
10
150.5783160000000009
20
-53.3698669999999993
11
150.4216839999999991
21
-53.3698669999999993
0
LINE
8
BLACK
6
CONTINUOUS
10
150.4216839999999991
20
-53.3698669999999993
11
150.2703899999999919
21
-53.3293279999999967
0
LINE
8
BLACK
6
CONTINUOUS
10
150.2703899999999919
20
-53.3293279999999967
11
150.1347429999999861
21
-53.2510119999999958
0
LINE
8
BLACK
6
CONTINUOUS
10
150.1347429999999861
20
-53.2510119999999958
11
150.0239880000000028
21
-53.1402569999999983
0
LINE
8
BLACK
6
CONTINUOUS
10
150.0239880000000028
20
-53.1402569999999983
11
149.9456720000000018
21
-53.0046099999999996
0
LINE
8
BLACK
6
CONTINUOUS
10
149.9456720000000018
20
-53.0046099999999996
11
149.9051330000000064
21
-52.8533159999999995
0
LINE
8
BLACK
6
CONTINUOUS
10
149.9051330000000064
20
-52.8533159999999995
11
149.9000000000000057
21
-52.7749999999999986
0
LINE
8
BLACK
6
CONTINUOUS
10
149.9000000000000057
20
-52.7749999999999986
11
149.9000000000000057
21
-52.2249999999999943
0
LINE
8
BLACK
6
CONTINUOUS
10
149.9000000000000057
20
-52.2249999999999943
11
149.9051330000000064
21
-52.1466840000000005
0
LINE
8
BLACK
6
CONTINUOUS
10
149.9051330000000064
20
-52.1466840000000005
11
149.9456720000000018
21
-51.9953900000000004
0
LINE
8
BLACK
6
CONTINUOUS
10
149.9456720000000018
20
-51.9953900000000004
11
150.0239880000000028
21
-51.8597429999999946
0
LINE
8
BLACK
6
CONTINUOUS
10
150.0239880000000028
20
-51.8597429999999946
11
150.1347429999999861
21
-51.7489879999999971
0
LINE
8
BLACK
6
CONTINUOUS
10
150.1347429999999861
20
-51.7489879999999971
11
150.2703899999999919
21
-51.6706719999999962
0
LINE
8
BLACK
6
CONTINUOUS
10
150.2703899999999919
20
-51.6706719999999962
11
150.2999999999999829
21
-51.6627379999999974
0
LINE
8
BLACK
6
CONTINUOUS
10
150.2999999999999829
20
-51.6627379999999974
11
150.2999999999999829
21
-50.5
0
LINE
8
BLACK
6
CONTINUOUS
10
150.2999999999999829
20
-50.5
11
150.3038430000000005
21
-50.4609819999999942
0
LINE
8
BLACK
6
CONTINUOUS
10
150.3038430000000005
20
-50.4609819999999942
11
150.3337060000000065
21
-50.3888859999999994
0
LINE
8
BLACK
6
CONTINUOUS
10
150.3337060000000065
20
-50.3888859999999994
11
150.3585789999999918
21
-50.3585789999999989
0
LINE
8
BLACK
6
CONTINUOUS
10
150.3585789999999918
20
-50.3585789999999989
11
150.4627360000000067
21
-50.2544210000000007
0
LINE
8
BLACK
6
CONTINUOUS
10
150.4627360000000067
20
-50.2544210000000007
11
150.7958699999999794
21
-49.3919560000000004
0
LINE
8
BLACK
6
CONTINUOUS
10
150.7958699999999794
20
-49.3919560000000004
11
150.7999999999999829
21
-49.3876220000000004
0
LINE
8
BLACK
6
CONTINUOUS
10
150.7999999999999829
20
-49.3876220000000004
11
150.7999999999999829
21
-48.9749999999999943
0
LINE
8
BLACK
6
CONTINUOUS
10
150.7999999999999829
20
-48.9749999999999943
11
150.8190299999999979
21
-48.8793289999999985
0
LINE
8
BLACK
6
CONTINUOUS
10
150.8190299999999979
20
-48.8793289999999985
11
150.8732229999999959
21
-48.7982230000000001
0
LINE
8
BLACK
6
CONTINUOUS
10
150.8732229999999959
20
-48.7982230000000001
11
150.9543290000000013
21
-48.7440299999999951
0
LINE
8
BLACK
6
CONTINUOUS
10
150.9543290000000013
20
-48.7440299999999951
11
151.0499999999999829
21
-48.7249999999999943
0
LINE
8
BLACK
6
CONTINUOUS
10
151.0499999999999829
20
-48.7249999999999943
11
151.75
21
-48.7249999999999943
0
LINE
8
BLACK
6
CONTINUOUS
10
151.75
20
-48.7249999999999943
11
151.8456709999999816
21
-48.7440299999999951
0
LINE
8
BLACK
6
CONTINUOUS
10
154.9722280000000012
20
-62.2544479999999965
11
155.117116999999979
21
-62.3144629999999964
0
LINE
8
BLACK
6
CONTINUOUS
10
155.117116999999979
20
-62.3144629999999964
11
155.2475149999999928
21
-62.4015919999999937
0
LINE
8
BLACK
6
CONTINUOUS
10
155.2475149999999928
20
-62.4015919999999937
11
155.3584079999999972
21
-62.5124849999999981
0
LINE
8
BLACK
6
CONTINUOUS
10
155.3584079999999972
20
-62.5124849999999981
11
155.4455370000000016
21
-62.6428829999999977
0
LINE
8
BLACK
6
CONTINUOUS
10
155.4455370000000016
20
-62.6428829999999977
11
155.5055519999999945
21
-62.7877719999999968
0
LINE
8
BLACK
6
CONTINUOUS
10
155.5055519999999945
20
-62.7877719999999968
11
155.5361479999999972
21
-62.9415859999999938
0
LINE
8
BLACK
6
CONTINUOUS
10
155.5361479999999972
20
-62.9415859999999938
11
155.5361479999999972
21
-63.0984139999999982
0
LINE
8
BLACK
6
CONTINUOUS
10
155.5361479999999972
20
-63.0984139999999982
11
155.5192099999999868
21
-63.1835599999999999
0
LINE
8
BLACK
6
CONTINUOUS
10
155.5192099999999868
20
-63.1835599999999999
11
155.5199020000000019
21
-63.1870580000000004
0
LINE
8
BLACK
6
CONTINUOUS
10
155.5199020000000019
20
-63.1870580000000004
11
155.5192579999999793
21
-63.1891919999999985
0
LINE
8
BLACK
6
CONTINUOUS
10
155.5192579999999793
20
-63.1891919999999985
11
155.5169870000000003
21
-63.1947410000000005
0
LINE
8
BLACK
6
CONTINUOUS
10
155.5169870000000003
20
-63.1947410000000005
11
155.5055519999999945
21
-63.2522279999999952
0
LINE
8
BLACK
6
CONTINUOUS
10
155.5055519999999945
20
-63.2522279999999952
11
155.4455370000000016
21
-63.3971169999999944
0
LINE
8
BLACK
6
CONTINUOUS
10
155.4455370000000016
20
-63.3971169999999944
11
155.4161939999999902
21
-63.4410309999999953
0
LINE
8
BLACK
6
CONTINUOUS
10
155.4161939999999902
20
-63.4410309999999953
11
154.9429749999999899
21
-64.5973589999999973
0
LINE
8
BLACK
6
CONTINUOUS
10
154.9429749999999899
20
-64.5973589999999973
11
154.9399999999999977
21
-64.6003589999999974
0
LINE
8
BLACK
6
CONTINUOUS
10
154.9399999999999977
20
-64.6003589999999974
11
154.9399999999999977
21
-65.8599999999999994
0
LINE
8
BLACK
6
CONTINUOUS
10
154.9399999999999977
20
-65.8599999999999994
11
154.9361569999999801
21
-65.8990179999999981
0
LINE
8
BLACK
6
CONTINUOUS
10
154.9361569999999801
20
-65.8990179999999981
11
154.9062940000000026
21
-65.971114
0
LINE
8
BLACK
6
CONTINUOUS
10
154.9062940000000026
20
-65.971114
11
154.8814209999999889
21
-66.0014209999999935
0
LINE
8
BLACK
6
CONTINUOUS
10
154.8814209999999889
20
-66.0014209999999935
11
154.7414210000000026
21
-66.141420999999994
0
LINE
8
BLACK
6
CONTINUOUS
10
154.7414210000000026
20
-66.141420999999994
11
154.7111139999999807
21
-66.1662939999999935
0
LINE
8
BLACK
6
CONTINUOUS
10
154.7111139999999807
20
-66.1662939999999935
11
154.639017999999993
21
-66.1961569999999995
0
LINE
8
BLACK
6
CONTINUOUS
10
154.639017999999993
20
-66.1961569999999995
11
154.5999999999999943
21
-66.2000000000000028
0
LINE
8
BLACK
6
CONTINUOUS
10
154.5999999999999943
20
-66.2000000000000028
11
153.9974059999999838
21
-66.2000000000000028
0
LINE
8
BLACK
6
CONTINUOUS
10
153.9974059999999838
20
-66.2000000000000028
11
153.9965729999999837
21
-66.2020109999999988
0
LINE
8
BLACK
6
CONTINUOUS
10
153.9965729999999837
20
-66.2020109999999988
11
153.9947899999999947
21
-66.2034730000000025
0
LINE
8
BLACK
6
CONTINUOUS
10
153.9947899999999947
20
-66.2034730000000025
11
153.4079729999999984
21
-66.5946840000000009
0
LINE
8
BLACK
6
CONTINUOUS
10
153.4079729999999984
20
-66.5946840000000009
11
153.4000000000000057
21
-66.5962609999999984
0
LINE
8
BLACK
6
CONTINUOUS
10
153.4000000000000057
20
-66.5962609999999984
11
153.4000000000000057
21
-66.625
0
LINE
8
BLACK
6
CONTINUOUS
10
153.4000000000000057
20
-66.625
11
153.3809699999999907
21
-66.7206709999999958
0
LINE
8
BLACK
6
CONTINUOUS
10
153.3809699999999907
20
-66.7206709999999958
11
153.3267769999999928
21
-66.8017770000000013
0
LINE
8
BLACK
6
CONTINUOUS
10
153.3267769999999928
20
-66.8017770000000013
11
153.2456709999999873
21
-66.8559699999999992
0
LINE
8
BLACK
6
CONTINUOUS
10
153.2456709999999873
20
-66.8559699999999992
11
153.1500000000000057
21
-66.875
0
LINE
8
BLACK
6
CONTINUOUS
10
153.1500000000000057
20
-66.875
11
152.4499999999999886
21
-66.875
0
LINE
8
BLACK
6
CONTINUOUS
10
152.4499999999999886
20
-66.875
11
152.354329000000007
21
-66.8559699999999992
0
LINE
8
BLACK
6
CONTINUOUS
10
152.354329000000007
20
-66.8559699999999992
11
152.2732230000000015
21
-66.8017770000000013
0
LINE
8
BLACK
6
CONTINUOUS
10
152.2732230000000015
20
-66.8017770000000013
11
152.2190300000000036
21
-66.7206709999999958
0
LINE
8
BLACK
6
CONTINUOUS
10
152.2190300000000036
20
-66.7206709999999958
11
152.1999999999999886
21
-66.625
0
LINE
8
BLACK
6
CONTINUOUS
10
152.1999999999999886
20
-66.625
11
152.1999999999999886
21
-65.375
0
LINE
8
BLACK
6
CONTINUOUS
10
152.1999999999999886
20
-65.375
11
152.2190300000000036
21
-65.2793289999999899
0
LINE
8
BLACK
6
CONTINUOUS
10
152.2190300000000036
20
-65.2793289999999899
11
152.2732230000000015
21
-65.1982229999999987
0
LINE
8
BLACK
6
CONTINUOUS
10
152.2732230000000015
20
-65.1982229999999987
11
152.354329000000007
21
-65.1440300000000008
0
LINE
8
BLACK
6
CONTINUOUS
10
152.354329000000007
20
-65.1440300000000008
11
152.4499999999999886
21
-65.125
0
LINE
8
BLACK
6
CONTINUOUS
10
152.4499999999999886
20
-65.125
11
153.1500000000000057
21
-65.125
0
LINE
8
BLACK
6
CONTINUOUS
10
153.1500000000000057
20
-65.125
11
153.2456709999999873
21
-65.1440300000000008
0
LINE
8
BLACK
6
CONTINUOUS
10
153.2456709999999873
20
-65.1440300000000008
11
153.3267769999999928
21
-65.1982229999999987
0
LINE
8
BLACK
6
CONTINUOUS
10
153.3267769999999928
20
-65.1982229999999987
11
153.3809699999999907
21
-65.2793289999999899
0
LINE
8
BLACK
6
CONTINUOUS
10
153.3809699999999907
20
-65.2793289999999899
11
153.4000000000000057
21
-65.375
0
LINE
8
BLACK
6
CONTINUOUS
10
153.4000000000000057
20
-65.375
11
153.4000000000000057
21
-65.4039659999999969
0
LINE
8
BLACK
6
CONTINUOUS
10
153.4000000000000057
20
-65.4039659999999969
11
153.4014929999999879
21
-65.4033500000000032
0
LINE
8
BLACK
6
CONTINUOUS
10
153.4014929999999879
20
-65.4033500000000032
11
153.4079720000000009
21
-65.40531399999999
0
LINE
8
BLACK
6
CONTINUOUS
10
153.4079720000000009
20
-65.40531399999999
11
153.9947899999999947
21
-65.7965269999999975
0
LINE
8
BLACK
6
CONTINUOUS
10
153.9947899999999947
20
-65.7965269999999975
11
153.9971160000000054
21
-65.7999999999999972
0
LINE
8
BLACK
6
CONTINUOUS
10
153.9971160000000054
20
-65.7999999999999972
11
154.5171579999999949
21
-65.7999999999999972
0
LINE
8
BLACK
6
CONTINUOUS
10
154.5171579999999949
20
-65.7999999999999972
11
154.539999999999992
21
-65.777158
0
LINE
8
BLACK
6
CONTINUOUS
10
154.539999999999992
20
-65.777158
11
154.539999999999992
21
-64.6013739999999927
0
LINE
8
BLACK
6
CONTINUOUS
10
154.539999999999992
20
-64.6013739999999927
11
154.5395800000000008
21
-64.6012010000000032
0
LINE
8
BLACK
6
CONTINUOUS
10
154.5395800000000008
20
-64.6012010000000032
11
154.5370249999999999
21
-64.5973589999999973
0
LINE
8
BLACK
6
CONTINUOUS
10
154.5370249999999999
20
-64.5973589999999973
11
154.0638030000000072
21
-63.4410279999999958
0
LINE
8
BLACK
6
CONTINUOUS
10
154.0638030000000072
20
-63.4410279999999958
11
154.0344629999999881
21
-63.3971169999999944
0
LINE
8
BLACK
6
CONTINUOUS
10
154.0344629999999881
20
-63.3971169999999944
11
153.9744479999999953
21
-63.2522279999999952
0
LINE
8
BLACK
6
CONTINUOUS
10
153.9744479999999953
20
-63.2522279999999952
11
153.9630129999999895
21
-63.1947449999999975
0
LINE
8
BLACK
6
CONTINUOUS
10
153.9630129999999895
20
-63.1947449999999975
11
153.9607409999999845
21
-63.1891919999999985
0
LINE
8
BLACK
6
CONTINUOUS
10
153.9607409999999845
20
-63.1891919999999985
11
153.9607649999999808
21
-63.1834419999999994
0
LINE
8
BLACK
6
CONTINUOUS
10
153.9607649999999808
20
-63.1834419999999994
11
153.9438519999999926
21
-63.0984139999999982
0
LINE
8
BLACK
6
CONTINUOUS
10
153.9438519999999926
20
-63.0984139999999982
11
153.9438519999999926
21
-62.9415859999999938
0
LINE
8
BLACK
6
CONTINUOUS
10
153.9438519999999926
20
-62.9415859999999938
11
153.9744479999999953
21
-62.7877719999999968
0
LINE
8
BLACK
6
CONTINUOUS
10
153.9744479999999953
20
-62.7877719999999968
11
154.0344629999999881
21
-62.6428829999999977
0
LINE
8
BLACK
6
CONTINUOUS
10
154.0344629999999881
20
-62.6428829999999977
11
154.1215919999999926
21
-62.5124849999999981
0
LINE
8
BLACK
6
CONTINUOUS
10
154.1215919999999926
20
-62.5124849999999981
11
154.2324849999999969
21
-62.4015919999999937
0
LINE
8
BLACK
6
CONTINUOUS
10
154.2324849999999969
20
-62.4015919999999937
11
154.3628829999999823
21
-62.3144629999999964
0
LINE
8
BLACK
6
CONTINUOUS
10
154.3628829999999823
20
-62.3144629999999964
11
154.5077719999999886
21
-62.2544479999999965
0
LINE
8
BLACK
6
CONTINUOUS
10
154.5077719999999886
20
-62.2544479999999965
11
154.6615859999999998
21
-62.2238519999999937
0
LINE
8
BLACK
6
CONTINUOUS
10
154.6615859999999998
20
-62.2238519999999937
11
154.81841399999999
21
-62.2238519999999937
0
LINE
8
BLACK
6
CONTINUOUS
10
154.81841399999999
20
-62.2238519999999937
11
154.9722280000000012
21
-62.2544479999999965
0
LINE
8
BLACK
6
CONTINUOUS
10
148.9456710000000044
20
-51.6440300000000008
11
149.0267769999999814
21
-51.6982229999999987
0
LINE
8
BLACK
6
CONTINUOUS
10
149.0267769999999814
20
-51.6982229999999987
11
149.0809699999999793
21
-51.7793289999999971
0
LINE
8
BLACK
6
CONTINUOUS
10
149.0809699999999793
20
-51.7793289999999971
11
149.0999999999999943
21
-51.875
0
LINE
8
BLACK
6
CONTINUOUS
10
149.0999999999999943
20
-51.875
11
149.0999999999999943
21
-52.2566649999999981
0
LINE
8
BLACK
6
CONTINUOUS
10
149.0999999999999943
20
-52.2566649999999981
11
149.1048669999999845
21
-52.2612059999999943
0
LINE
8
BLACK
6
CONTINUOUS
10
149.1048669999999845
20
-52.2612059999999943
11
149.2239109999999869
21
-52.4992929999999944
0
LINE
8
BLACK
6
CONTINUOUS
10
149.2239109999999869
20
-52.4992929999999944
11
149.6601159999999879
21
-53.3717029999999966
0
LINE
8
BLACK
6
CONTINUOUS
10
149.6601159999999879
20
-53.3717029999999966
11
149.6619139999999959
21
-53.3752999999999957
0
LINE
8
BLACK
6
CONTINUOUS
10
149.6619139999999959
20
-53.3752999999999957
11
149.6622019999999793
21
-53.3793599999999984
0
LINE
8
BLACK
6
CONTINUOUS
10
149.6622019999999793
20
-53.3793599999999984
11
150.9024210000000039
21
-54.6195789999999946
0
LINE
8
BLACK
6
CONTINUOUS
10
150.9024210000000039
20
-54.6195789999999946
11
150.9272939999999892
21
-54.6498859999999951
0
LINE
8
BLACK
6
CONTINUOUS
10
150.9272939999999892
20
-54.6498859999999951
11
150.9334509999999909
21
-54.6647509999999954
0
LINE
8
BLACK
6
CONTINUOUS
10
150.9334509999999909
20
-54.6647509999999954
11
151.1343499999999835
21
-54.8656499999999951
0
LINE
8
BLACK
6
CONTINUOUS
10
151.1343499999999835
20
-54.8656499999999951
11
151.1579789999999832
21
-54.894441999999998
0
LINE
8
BLACK
6
CONTINUOUS
10
151.1579789999999832
20
-54.894441999999998
11
151.186349000000007
21
-54.9629329999999996
0
LINE
8
BLACK
6
CONTINUOUS
10
151.186349000000007
20
-54.9629329999999996
11
151.1899999999999977
21
-55.
0
LINE
8
BLACK
6
CONTINUOUS
10
151.1899999999999977
20
-55.
11
151.1899999999999977
21
-56.6864500000000007
0
LINE
8
BLACK
6
CONTINUOUS
10
151.1899999999999977
20
-56.6864500000000007
11
151.186349000000007
21
-56.723516999999994
0
LINE
8
BLACK
6
CONTINUOUS
10
151.186349000000007
20
-56.723516999999994
11
151.1579789999999832
21
-56.7920079999999956
0
LINE
8
BLACK
6
CONTINUOUS
10
151.1579789999999832
20
-56.7920079999999956
11
151.1343499999999835
21
-56.8207999999999984
0
LINE
8
BLACK
6
CONTINUOUS
10
151.1343499999999835
20
-56.8207999999999984
11
150.9334509999999909
21
-57.0216980000000007
0
LINE
8
BLACK
6
CONTINUOUS
10
150.9334509999999909
20
-57.0216980000000007
11
150.9272939999999892
21
-57.0365639999999985
0
LINE
8
BLACK
6
CONTINUOUS
10
150.9272939999999892
20
-57.0365639999999985
11
150.9024210000000039
21
-57.066870999999999
0
LINE
8
BLACK
6
CONTINUOUS
10
150.9024210000000039
20
-57.066870999999999
11
149.8599999999999852
21
-58.1092919999999964
0
LINE
8
BLACK
6
CONTINUOUS
10
149.8599999999999852
20
-58.1092919999999964
11
149.8599999999999852
21
-61.4386249999999947
0
LINE
8
BLACK
6
CONTINUOUS
10
149.8599999999999852
20
-61.4386249999999947
11
149.8604200000000048
21
-61.4387989999999959
0
LINE
8
BLACK
6
CONTINUOUS
10
149.8604200000000048
20
-61.4387989999999959
11
149.8629750000000058
21
-61.4426409999999947
0
LINE
8
BLACK
6
CONTINUOUS
10
149.8629750000000058
20
-61.4426409999999947
11
150.3361950000000036
21
-62.5989689999999968
0
LINE
8
BLACK
6
CONTINUOUS
10
150.3361950000000036
20
-62.5989689999999968
11
150.3655369999999891
21
-62.6428829999999977
0
LINE
8
BLACK
6
CONTINUOUS
10
150.3655369999999891
20
-62.6428829999999977
11
150.4255519999999819
21
-62.7877719999999968
0
LINE
8
BLACK
6
CONTINUOUS
10
150.4255519999999819
20
-62.7877719999999968
11
150.4369859999999903
21
-62.8452559999999991
0
LINE
8
BLACK
6
CONTINUOUS
10
150.4369859999999903
20
-62.8452559999999991
11
150.4392579999999953
21
-62.8508069999999961
0
LINE
8
BLACK
6
CONTINUOUS
10
150.4392579999999953
20
-62.8508069999999961
11
150.4392330000000015
21
-62.8565529999999981
0
LINE
8
BLACK
6
CONTINUOUS
10
150.4392330000000015
20
-62.8565529999999981
11
150.4561479999999847
21
-62.9415859999999938
0
LINE
8
BLACK
6
CONTINUOUS
10
150.4561479999999847
20
-62.9415859999999938
11
150.4561479999999847
21
-63.0984139999999982
0
LINE
8
BLACK
6
CONTINUOUS
10
150.4561479999999847
20
-63.0984139999999982
11
150.4255519999999819
21
-63.2522279999999952
0
LINE
8
BLACK
6
CONTINUOUS
10
150.4255519999999819
20
-63.2522279999999952
11
150.3655369999999891
21
-63.3971169999999944
0
LINE
8
BLACK
6
CONTINUOUS
10
150.3655369999999891
20
-63.3971169999999944
11
150.2784079999999847
21
-63.527514999999994
0
LINE
8
BLACK
6
CONTINUOUS
10
150.2784079999999847
20
-63.527514999999994
11
150.1675149999999803
21
-63.6384079999999983
0
LINE
8
BLACK
6
CONTINUOUS
10
150.1675149999999803
20
-63.6384079999999983
11
150.037116999999995
21
-63.7255369999999957
0
LINE
8
BLACK
6
CONTINUOUS
10
150.037116999999995
20
-63.7255369999999957
11
149.8922279999999887
21
-63.7855519999999956
0
LINE
8
BLACK
6
CONTINUOUS
10
149.8922279999999887
20
-63.7855519999999956
11
149.7384140000000059
21
-63.8161479999999983
0
LINE
8
BLACK
6
CONTINUOUS
10
149.7384140000000059
20
-63.8161479999999983
11
149.5815859999999873
21
-63.8161479999999983
0
LINE
8
BLACK
6
CONTINUOUS
10
149.5815859999999873
20
-63.8161479999999983
11
149.4277720000000045
21
-63.7855519999999956
0
LINE
8
BLACK
6
CONTINUOUS
10
149.4277720000000045
20
-63.7855519999999956
11
149.2828829999999982
21
-63.7255369999999957
0
LINE
8
BLACK
6
CONTINUOUS
10
149.2828829999999982
20
-63.7255369999999957
11
149.1524849999999844
21
-63.6384079999999983
0
LINE
8
BLACK
6
CONTINUOUS
10
149.1524849999999844
20
-63.6384079999999983
11
149.0415919999999801
21
-63.527514999999994
0
LINE
8
BLACK
6
CONTINUOUS
10
149.0415919999999801
20
-63.527514999999994
11
148.9544630000000041
21
-63.3971169999999944
0
LINE
8
BLACK
6
CONTINUOUS
10
148.9544630000000041
20
-63.3971169999999944
11
148.8944479999999828
21
-63.2522279999999952
0
LINE
8
BLACK
6
CONTINUOUS
10
148.8944479999999828
20
-63.2522279999999952
11
148.8638519999999801
21
-63.0984139999999982
0
LINE
8
BLACK
6
CONTINUOUS
10
148.8638519999999801
20
-63.0984139999999982
11
148.8638519999999801
21
-62.9415859999999938
0
LINE
8
BLACK
6
CONTINUOUS
10
148.8638519999999801
20
-62.9415859999999938
11
148.8807879999999955
21
-62.8564409999999967
0
LINE
8
BLACK
6
CONTINUOUS
10
148.8807879999999955
20
-62.8564409999999967
11
148.8800970000000063
21
-62.8529409999999942
0
LINE
8
BLACK
6
CONTINUOUS
10
148.8800970000000063
20
-62.8529409999999942
11
148.8807390000000055
21
-62.8508129999999952
0
LINE
8
BLACK
6
CONTINUOUS
10
148.8807390000000055
20
-62.8508129999999952
11
148.8830130000000054
21
-62.8452539999999971
0
LINE
8
BLACK
6
CONTINUOUS
10
148.8830130000000054
20
-62.8452539999999971
11
148.8944479999999828
21
-62.7877719999999968
0
LINE
8
BLACK
6
CONTINUOUS
10
148.8944479999999828
20
-62.7877719999999968
11
148.9544630000000041
21
-62.6428829999999977
0
LINE
8
BLACK
6
CONTINUOUS
10
148.9544630000000041
20
-62.6428829999999977
11
148.9838029999999947
21
-62.5989709999999988
0
LINE
8
BLACK
6
CONTINUOUS
10
148.9838029999999947
20
-62.5989709999999988
11
149.4570249999999874
21
-61.4426399999999973
0
LINE
8
BLACK
6
CONTINUOUS
10
149.4570249999999874
20
-61.4426399999999973
11
149.4599999999999795
21
-61.4396389999999997
0
LINE
8
BLACK
6
CONTINUOUS
10
149.4599999999999795
20
-61.4396389999999997
11
149.4599999999999795
21
-58.026449999999997
0
LINE
8
BLACK
6
CONTINUOUS
10
149.4599999999999795
20
-58.026449999999997
11
149.4638429999999971
21
-57.9874319999999983
0
LINE
8
BLACK
6
CONTINUOUS
10
149.4638429999999971
20
-57.9874319999999983
11
149.4937060000000031
21
-57.9153359999999964
0
LINE
8
BLACK
6
CONTINUOUS
10
149.4937060000000031
20
-57.9153359999999964
11
149.5185789999999884
21
-57.8850289999999958
0
LINE
8
BLACK
6
CONTINUOUS
10
149.5185789999999884
20
-57.8850289999999958
11
150.6195789999999874
21
-56.7840289999999968
0
LINE
8
BLACK
6
CONTINUOUS
10
150.6195789999999874
20
-56.7840289999999968
11
150.6498859999999809
21
-56.7591559999999973
0
LINE
8
BLACK
6
CONTINUOUS
10
150.6498859999999809
20
-56.7591559999999973
11
150.6647509999999954
21
-56.7529979999999981
0
LINE
8
BLACK
6
CONTINUOUS
10
150.6647509999999954
20
-56.7529979999999981
11
150.8100000000000023
21
-56.6077499999999958
0
LINE
8
BLACK
6
CONTINUOUS
10
150.8100000000000023
20
-56.6077499999999958
11
150.8100000000000023
21
-55.0786999999999978
0
LINE
8
BLACK
6
CONTINUOUS
10
150.8100000000000023
20
-55.0786999999999978
11
150.6647509999999954
21
-54.933450999999998
0
LINE
8
BLACK
6
CONTINUOUS
10
150.6647509999999954
20
-54.933450999999998
11
150.6498859999999809
21
-54.9272939999999963
0
LINE
8
BLACK
6
CONTINUOUS
10
150.6498859999999809
20
-54.9272939999999963
11
150.6195789999999874
21
-54.9024209999999968
0
LINE
8
BLACK
6
CONTINUOUS
10
150.6195789999999874
20
-54.9024209999999968
11
149.3807109999999909
21
-53.6635530000000003
0
LINE
8
BLACK
6
CONTINUOUS
10
149.3807109999999909
20
-53.6635530000000003
11
149.3797129999999811
21
-53.6639669999999995
0
LINE
8
BLACK
6
CONTINUOUS
10
149.3797129999999811
20
-53.6639669999999995
11
149.3759519999999839
21
-53.6633459999999971
0
LINE
8
BLACK
6
CONTINUOUS
10
149.3759519999999839
20
-53.6633459999999971
11
148.5341530000000034
21
-53.3776069999999976
0
LINE
8
BLACK
6
CONTINUOUS
10
148.5341530000000034
20
-53.3776069999999976
11
148.5311800000000062
21
-53.375
0
LINE
8
BLACK
6
CONTINUOUS
10
148.5311800000000062
20
-53.375
11
148.1500000000000057
21
-53.375
0
LINE
8
BLACK
6
CONTINUOUS
10
148.1500000000000057
20
-53.375
11
148.0543289999999956
21
-53.3559699999999992
0
LINE
8
BLACK
6
CONTINUOUS
10
148.0543289999999956
20
-53.3559699999999992
11
147.9732229999999902
21
-53.3017769999999942
0
LINE
8
BLACK
6
CONTINUOUS
10
147.9732229999999902
20
-53.3017769999999942
11
147.9190299999999922
21
-53.2206709999999958
0
LINE
8
BLACK
6
CONTINUOUS
10
147.9190299999999922
20
-53.2206709999999958
11
147.9000000000000057
21
-53.125
0
LINE
8
BLACK
6
CONTINUOUS
10
147.9000000000000057
20
-53.125
11
147.9000000000000057
21
-51.875
0
LINE
8
BLACK
6
CONTINUOUS
10
147.9000000000000057
20
-51.875
11
147.9190299999999922
21
-51.7793289999999971
0
LINE
8
BLACK
6
CONTINUOUS
10
147.9190299999999922
20
-51.7793289999999971
11
147.9732229999999902
21
-51.6982229999999987
0
LINE
8
BLACK
6
CONTINUOUS
10
147.9732229999999902
20
-51.6982229999999987
11
148.0543289999999956
21
-51.6440300000000008
0
LINE
8
BLACK
6
CONTINUOUS
10
148.0543289999999956
20
-51.6440300000000008
11
148.1500000000000057
21
-51.625
0
LINE
8
BLACK
6
CONTINUOUS
10
148.1500000000000057
20
-51.625
11
148.8499999999999943
21
-51.625
0
LINE
8
BLACK
6
CONTINUOUS
10
148.8499999999999943
20
-51.625
11
148.9456710000000044
21
-51.6440300000000008
0
LINE
8
BLACK
6
CONTINUOUS
10
147.9199999999999875
20
-56.1999999999999957
11
146.3199999999999932
21
-56.1999999999999957
0
LINE
8
BLACK
6
CONTINUOUS
10
146.3199999999999932
20
-56.1999999999999957
11
146.3199999999999932
21
-54.5999999999999943
0
LINE
8
BLACK
6
CONTINUOUS
10
146.3199999999999932
20
-54.5999999999999943
11
147.9199999999999875
21
-54.5999999999999943
0
LINE
8
BLACK
6
CONTINUOUS
10
147.9199999999999875
20
-54.5999999999999943
11
147.9199999999999875
21
-56.1999999999999957
0
LINE
8
BLACK
6
CONTINUOUS
10
146.7296099999999797
20
-51.6706719999999962
11
146.8652569999999855
21
-51.7489879999999971
0
LINE
8
BLACK
6
CONTINUOUS
10
146.8652569999999855
20
-51.7489879999999971
11
146.9760119999999972
21
-51.8597429999999946
0
LINE
8
BLACK
6
CONTINUOUS
10
146.9760119999999972
20
-51.8597429999999946
11
147.0543279999999982
21
-51.9953900000000004
0
LINE
8
BLACK
6
CONTINUOUS
10
147.0543279999999982
20
-51.9953900000000004
11
147.0948669999999936
21
-52.1466840000000005
0
LINE
8
BLACK
6
CONTINUOUS
10
147.0948669999999936
20
-52.1466840000000005
11
147.0999999999999943
21
-52.2249999999999943
0
LINE
8
BLACK
6
CONTINUOUS
10
147.0999999999999943
20
-52.2249999999999943
11
147.0999999999999943
21
-52.7749999999999986
0
LINE
8
BLACK
6
CONTINUOUS
10
147.0999999999999943
20
-52.7749999999999986
11
147.0974060000000065
21
-52.8145639999999972
0
LINE
8
BLACK
6
CONTINUOUS
10
147.0974060000000065
20
-52.8145639999999972
11
148.5610369999999989
21
-54.2781939999999992
0
LINE
8
BLACK
6
CONTINUOUS
10
148.5610369999999989
20
-54.2781939999999992
11
148.5625409999999818
21
-54.2775719999999993
0
LINE
8
BLACK
6
CONTINUOUS
10
148.5625409999999818
20
-54.2775719999999993
11
148.5655889999999886
21
-54.2779759999999953
0
LINE
8
BLACK
6
CONTINUOUS
10
148.5655889999999886
20
-54.2779759999999953
11
149.8055209999999988
21
-54.612524999999998
0
LINE
8
BLACK
6
CONTINUOUS
10
149.8055209999999988
20
-54.612524999999998
11
149.8126159999999913
21
-54.6179889999999943
0
LINE
8
BLACK
6
CONTINUOUS
10
149.8126159999999913
20
-54.6179889999999943
11
149.8127219999999795
21
-54.6186329999999955
0
LINE
8
BLACK
6
CONTINUOUS
10
149.8127219999999795
20
-54.6186329999999955
11
149.8922279999999887
21
-54.634447999999999
0
LINE
8
BLACK
6
CONTINUOUS
10
149.8922279999999887
20
-54.634447999999999
11
150.037116999999995
21
-54.6944629999999989
0
LINE
8
BLACK
6
CONTINUOUS
10
150.037116999999995
20
-54.6944629999999989
11
150.1675149999999803
21
-54.7815919999999963
0
LINE
8
BLACK
6
CONTINUOUS
10
150.1675149999999803
20
-54.7815919999999963
11
150.2784079999999847
21
-54.8924850000000006
0
LINE
8
BLACK
6
CONTINUOUS
10
150.2784079999999847
20
-54.8924850000000006
11
150.3655369999999891
21
-55.0228830000000002
0
LINE
8
BLACK
6
CONTINUOUS
10
150.3655369999999891
20
-55.0228830000000002
11
150.4255519999999819
21
-55.1677719999999994
0
LINE
8
BLACK
6
CONTINUOUS
10
150.4255519999999819
20
-55.1677719999999994
11
150.4561479999999847
21
-55.3215859999999964
0
LINE
8
BLACK
6
CONTINUOUS
10
150.4561479999999847
20
-55.3215859999999964
11
150.4561479999999847
21
-55.4784140000000008
0
LINE
8
BLACK
6
CONTINUOUS
10
150.4561479999999847
20
-55.4784140000000008
11
150.4255519999999819
21
-55.6322279999999978
0
LINE
8
BLACK
6
CONTINUOUS
10
150.4255519999999819
20
-55.6322279999999978
11
150.3655369999999891
21
-55.7771169999999969
0
LINE
8
BLACK
6
CONTINUOUS
10
150.3655369999999891
20
-55.7771169999999969
11
150.2784079999999847
21
-55.9075149999999965
0
LINE
8
BLACK
6
CONTINUOUS
10
150.2784079999999847
20
-55.9075149999999965
11
150.1675149999999803
21
-56.0184080000000009
0
LINE
8
BLACK
6
CONTINUOUS
10
150.1675149999999803
20
-56.0184080000000009
11
150.037116999999995
21
-56.1055369999999982
0
LINE
8
BLACK
6
CONTINUOUS
10
150.037116999999995
20
-56.1055369999999982
11
149.8922279999999887
21
-56.1655519999999981
0
LINE
8
BLACK
6
CONTINUOUS
10
149.8922279999999887
20
-56.1655519999999981
11
149.7384140000000059
21
-56.1961480000000009
0
LINE
8
BLACK
6
CONTINUOUS
10
149.7384140000000059
20
-56.1961480000000009
11
149.5815859999999873
21
-56.1961480000000009
0
LINE
8
BLACK
6
CONTINUOUS
10
149.5815859999999873
20
-56.1961480000000009
11
149.4277720000000045
21
-56.1655519999999981
0
LINE
8
BLACK
6
CONTINUOUS
10
149.4277720000000045
20
-56.1655519999999981
11
149.2828829999999982
21
-56.1055369999999982
0
LINE
8
BLACK
6
CONTINUOUS
10
149.2828829999999982
20
-56.1055369999999982
11
149.1524849999999844
21
-56.0184080000000009
0
LINE
8
BLACK
6
CONTINUOUS
10
149.1524849999999844
20
-56.0184080000000009
11
149.0415919999999801
21
-55.9075149999999965
0
LINE
8
BLACK
6
CONTINUOUS
10
149.0415919999999801
20
-55.9075149999999965
11
148.9954139999999825
21
-55.8384049999999945
0
LINE
8
BLACK
6
CONTINUOUS
10
148.9954139999999825
20
-55.8384049999999945
11
148.9891259999999988
21
-55.8341919999999945
0
LINE
8
BLACK
6
CONTINUOUS
10
148.9891259999999988
20
-55.8341919999999945
11
148.9886500000000069
21
-55.8334130000000002
0
LINE
8
BLACK
6
CONTINUOUS
10
148.9886500000000069
20
-55.8334130000000002
11
148.971082999999993
21
-55.801991000000001
0
LINE
8
BLACK
6
CONTINUOUS
10
148.971082999999993
20
-55.801991000000001
11
148.9544630000000041
21
-55.7771169999999969
0
LINE
8
BLACK
6
CONTINUOUS
10
148.9544630000000041
20
-55.7771169999999969
11
148.9466999999999928
21
-55.7583769999999959
0
LINE
8
BLACK
6
CONTINUOUS
10
148.9466999999999928
20
-55.7583769999999959
11
148.7482499999999845
21
-55.4034029999999973
0
LINE
8
BLACK
6
CONTINUOUS
10
148.7482499999999845
20
-55.4034029999999973
11
148.2805299999999988
21
-54.5667779999999993
0
LINE
8
BLACK
6
CONTINUOUS
10
148.2805299999999988
20
-54.5667779999999993
11
148.2800759999999798
21
-54.5629190000000008
0
LINE
8
BLACK
6
CONTINUOUS
10
148.2800759999999798
20
-54.5629190000000008
11
146.9167129999999872
21
-53.1995549999999966
0
LINE
8
BLACK
6
CONTINUOUS
10
146.9167129999999872
20
-53.1995549999999966
11
146.8652569999999855
21
-53.2510119999999958
0
LINE
8
BLACK
6
CONTINUOUS
10
146.8652569999999855
20
-53.2510119999999958
11
146.7296099999999797
21
-53.3293279999999967
0
LINE
8
BLACK
6
CONTINUOUS
10
146.7296099999999797
20
-53.3293279999999967
11
146.5783160000000009
21
-53.3698669999999993
0
LINE
8
BLACK
6
CONTINUOUS
10
146.5783160000000009
20
-53.3698669999999993
11
146.4216839999999991
21
-53.3698669999999993
0
LINE
8
BLACK
6
CONTINUOUS
10
146.4216839999999991
20
-53.3698669999999993
11
146.2703899999999919
21
-53.3293279999999967
0
LINE
8
BLACK
6
CONTINUOUS
10
146.2703899999999919
20
-53.3293279999999967
11
146.1347429999999861
21
-53.2510119999999958
0
LINE
8
BLACK
6
CONTINUOUS
10
146.1347429999999861
20
-53.2510119999999958
11
146.0239880000000028
21
-53.1402569999999983
0
LINE
8
BLACK
6
CONTINUOUS
10
146.0239880000000028
20
-53.1402569999999983
11
145.9456720000000018
21
-53.0046099999999996
0
LINE
8
BLACK
6
CONTINUOUS
10
145.9456720000000018
20
-53.0046099999999996
11
145.9051330000000064
21
-52.8533159999999995
0
LINE
8
BLACK
6
CONTINUOUS
10
145.9051330000000064
20
-52.8533159999999995
11
145.9000000000000057
21
-52.7749999999999986
0
LINE
8
BLACK
6
CONTINUOUS
10
145.9000000000000057
20
-52.7749999999999986
11
145.9000000000000057
21
-52.2249999999999943
0
LINE
8
BLACK
6
CONTINUOUS
10
145.9000000000000057
20
-52.2249999999999943
11
145.9051330000000064
21
-52.1466840000000005
0
LINE
8
BLACK
6
CONTINUOUS
10
145.9051330000000064
20
-52.1466840000000005
11
145.9456720000000018
21
-51.9953900000000004
0
LINE
8
BLACK
6
CONTINUOUS
10
145.9456720000000018
20
-51.9953900000000004
11
146.0239880000000028
21
-51.8597429999999946
0
LINE
8
BLACK
6
CONTINUOUS
10
146.0239880000000028
20
-51.8597429999999946
11
146.1347429999999861
21
-51.7489879999999971
0
LINE
8
BLACK
6
CONTINUOUS
10
146.1347429999999861
20
-51.7489879999999971
11
146.2703899999999919
21
-51.6706719999999962
0
LINE
8
BLACK
6
CONTINUOUS
10
146.2703899999999919
20
-51.6706719999999962
11
146.4216839999999991
21
-51.6301330000000007
0
LINE
8
BLACK
6
CONTINUOUS
10
146.4216839999999991
20
-51.6301330000000007
11
146.5783160000000009
21
-51.6301330000000007
0
LINE
8
BLACK
6
CONTINUOUS
10
146.5783160000000009
20
-51.6301330000000007
11
146.7296099999999797
21
-51.6706719999999962
0
LINE
8
BLACK
6
CONTINUOUS
10
152.7296099999999797
20
-51.6706719999999962
11
152.8652569999999855
21
-51.7489879999999971
0
LINE
8
BLACK
6
CONTINUOUS
10
152.8652569999999855
20
-51.7489879999999971
11
152.9760119999999972
21
-51.8597429999999946
0
LINE
8
BLACK
6
CONTINUOUS
10
152.9760119999999972
20
-51.8597429999999946
11
153.0543279999999982
21
-51.9953900000000004
0
LINE
8
BLACK
6
CONTINUOUS
10
153.0543279999999982
20
-51.9953900000000004
11
153.0948669999999936
21
-52.1466840000000005
0
LINE
8
BLACK
6
CONTINUOUS
10
153.0948669999999936
20
-52.1466840000000005
11
153.0999999999999943
21
-52.2249999999999943
0
LINE
8
BLACK
6
CONTINUOUS
10
153.0999999999999943
20
-52.2249999999999943
11
153.0999999999999943
21
-52.7749999999999986
0
LINE
8
BLACK
6
CONTINUOUS
10
153.0999999999999943
20
-52.7749999999999986
11
153.0948669999999936
21
-52.8533159999999995
0
LINE
8
BLACK
6
CONTINUOUS
10
153.0948669999999936
20
-52.8533159999999995
11
153.0543279999999982
21
-53.0046099999999996
0
LINE
8
BLACK
6
CONTINUOUS
10
153.0543279999999982
20
-53.0046099999999996
11
152.9951719999999966
21
-53.1070689999999956
0
LINE
8
BLACK
6
CONTINUOUS
10
152.9951719999999966
20
-53.1070689999999956
11
152.9961999999999875
21
-53.1104759999999985
0
LINE
8
BLACK
6
CONTINUOUS
10
152.9961999999999875
20
-53.1104759999999985
11
152.994529
21
-53.1154310000000009
0
LINE
8
BLACK
6
CONTINUOUS
10
152.994529
20
-53.1154310000000009
11
152.6999999999999886
21
-53.5951809999999966
0
LINE
8
BLACK
6
CONTINUOUS
10
152.6999999999999886
20
-53.5951809999999966
11
152.6999999999999886
21
-53.6766999999999967
0
LINE
8
BLACK
6
CONTINUOUS
10
152.6999999999999886
20
-53.6766999999999967
11
152.6961569999999995
21
-53.7157179999999954
0
LINE
8
BLACK
6
CONTINUOUS
10
152.6961569999999995
20
-53.7157179999999954
11
152.6662939999999935
21
-53.7878139999999973
0
LINE
8
BLACK
6
CONTINUOUS
10
152.6662939999999935
20
-53.7878139999999973
11
152.6414209999999798
21
-53.8181209999999979
0
LINE
8
BLACK
6
CONTINUOUS
10
152.6414209999999798
20
-53.8181209999999979
11
152.4551919999999825
21
-54.0043489999999977
0
LINE
8
BLACK
6
CONTINUOUS
10
152.4551919999999825
20
-54.0043489999999977
11
152.4563829999999882
21
-54.0061040000000006
0
LINE
8
BLACK
6
CONTINUOUS
10
152.4563829999999882
20
-54.0061040000000006
11
152.8613249999999937
21
-54.9465999999999966
0
LINE
8
BLACK
6
CONTINUOUS
10
152.8613249999999937
20
-54.9465999999999966
11
152.8614489999999932
21
-54.9555539999999993
0
LINE
8
BLACK
6
CONTINUOUS
10
152.8614489999999932
20
-54.9555539999999993
11
152.8609559999999874
21
-54.9561629999999965
0
LINE
8
BLACK
6
CONTINUOUS
10
152.8609559999999874
20
-54.9561629999999965
11
152.9055369999999812
21
-55.0228830000000002
0
LINE
8
BLACK
6
CONTINUOUS
10
152.9055369999999812
20
-55.0228830000000002
11
152.9655520000000024
21
-55.1677719999999994
0
LINE
8
BLACK
6
CONTINUOUS
10
152.9655520000000024
20
-55.1677719999999994
11
152.9961480000000051
21
-55.3215859999999964
0
LINE
8
BLACK
6
CONTINUOUS
10
152.9961480000000051
20
-55.3215859999999964
11
152.9961480000000051
21
-55.4784140000000008
0
LINE
8
BLACK
6
CONTINUOUS
10
152.9961480000000051
20
-55.4784140000000008
11
152.9655520000000024
21
-55.6322279999999978
0
LINE
8
BLACK
6
CONTINUOUS
10
152.9655520000000024
20
-55.6322279999999978
11
152.9055369999999812
21
-55.7771169999999969
0
LINE
8
BLACK
6
CONTINUOUS
10
152.9055369999999812
20
-55.7771169999999969
11
152.8184080000000051
21
-55.9075149999999965
0
LINE
8
BLACK
6
CONTINUOUS
10
152.8184080000000051
20
-55.9075149999999965
11
152.7075150000000008
21
-56.0184080000000009
0
LINE
8
BLACK
6
CONTINUOUS
10
152.7075150000000008
20
-56.0184080000000009
11
152.577116999999987
21
-56.1055369999999982
0
LINE
8
BLACK
6
CONTINUOUS
10
152.577116999999987
20
-56.1055369999999982
11
152.4322279999999807
21
-56.1655519999999981
0
LINE
8
BLACK
6
CONTINUOUS
10
152.4322279999999807
20
-56.1655519999999981
11
152.2784139999999979
21
-56.1961480000000009
0
LINE
8
BLACK
6
CONTINUOUS
10
152.2784139999999979
20
-56.1961480000000009
11
152.1215859999999793
21
-56.1961480000000009
0
LINE
8
BLACK
6
CONTINUOUS
10
152.1215859999999793
20
-56.1961480000000009
11
151.9677719999999965
21
-56.1655519999999981
0
LINE
8
BLACK
6
CONTINUOUS
10
151.9677719999999965
20
-56.1655519999999981
11
151.8228829999999903
21
-56.1055369999999982
0
LINE
8
BLACK
6
CONTINUOUS
10
151.8228829999999903
20
-56.1055369999999982
11
151.6924850000000049
21
-56.0184080000000009
0
LINE
8
BLACK
6
CONTINUOUS
10
151.6924850000000049
20
-56.0184080000000009
11
151.5815920000000006
21
-55.9075149999999965
0
LINE
8
BLACK
6
CONTINUOUS
10
151.5815920000000006
20
-55.9075149999999965
11
151.4944629999999961
21
-55.7771169999999969
0
LINE
8
BLACK
6
CONTINUOUS
10
151.4944629999999961
20
-55.7771169999999969
11
151.4344480000000033
21
-55.6322279999999978
0
LINE
8
BLACK
6
CONTINUOUS
10
151.4344480000000033
20
-55.6322279999999978
11
151.4038520000000005
21
-55.4784140000000008
0
LINE
8
BLACK
6
CONTINUOUS
10
151.4038520000000005
20
-55.4784140000000008
11
151.4038520000000005
21
-55.3215859999999964
0
LINE
8
BLACK
6
CONTINUOUS
10
151.4038520000000005
20
-55.3215859999999964
11
151.4344480000000033
21
-55.1677719999999994
0
LINE
8
BLACK
6
CONTINUOUS
10
151.4344480000000033
20
-55.1677719999999994
11
151.4944629999999961
21
-55.0228830000000002
0
LINE
8
BLACK
6
CONTINUOUS
10
151.4944629999999961
20
-55.0228830000000002
11
151.5395419999999831
21
-54.9554159999999996
0
LINE
8
BLACK
6
CONTINUOUS
10
151.5395419999999831
20
-54.9554159999999996
11
151.5385339999999985
21
-54.9539039999999943
0
LINE
8
BLACK
6
CONTINUOUS
10
151.5385339999999985
20
-54.9539039999999943
11
151.5396169999999927
21
-54.9462669999999989
0
LINE
8
BLACK
6
CONTINUOUS
10
151.5396169999999927
20
-54.9462669999999989
11
152.
21
-54.0553249999999963
0
LINE
8
BLACK
6
CONTINUOUS
10
152.
20
-54.0553249999999963
11
152.
21
-53.976700000000001
0
LINE
8
BLACK
6
CONTINUOUS
10
152.
20
-53.976700000000001
11
152.0038429999999892
21
-53.9376819999999952
0
LINE
8
BLACK
6
CONTINUOUS
10
152.0038429999999892
20
-53.9376819999999952
11
152.0337059999999951
21
-53.8655860000000004
0
LINE
8
BLACK
6
CONTINUOUS
10
152.0337059999999951
20
-53.8655860000000004
11
152.0585789999999804
21
-53.8352789999999999
0
LINE
8
BLACK
6
CONTINUOUS
10
152.0585789999999804
20
-53.8352789999999999
11
152.1563500000000033
21
-53.7375070000000008
0
LINE
8
BLACK
6
CONTINUOUS
10
152.1563500000000033
20
-53.7375070000000008
11
152.1549650000000042
21
-53.735160999999998
0
LINE
8
BLACK
6
CONTINUOUS
10
152.1549650000000042
20
-53.735160999999998
11
151.9139049999999997
21
-52.9002829999999946
0
LINE
8
BLACK
6
CONTINUOUS
10
151.9139049999999997
20
-52.9002829999999946
11
151.9149029999999811
21
-52.8913839999999951
0
LINE
8
BLACK
6
CONTINUOUS
10
151.9149029999999811
20
-52.8913839999999951
11
151.9152359999999931
21
-52.891020999999995
0
LINE
8
BLACK
6
CONTINUOUS
10
151.9152359999999931
20
-52.891020999999995
11
151.9051330000000064
21
-52.8533159999999995
0
LINE
8
BLACK
6
CONTINUOUS
10
151.9051330000000064
20
-52.8533159999999995
11
151.9000000000000057
21
-52.7749999999999986
0
LINE
8
BLACK
6
CONTINUOUS
10
151.9000000000000057
20
-52.7749999999999986
11
151.9000000000000057
21
-52.2249999999999943
0
LINE
8
BLACK
6
CONTINUOUS
10
151.9000000000000057
20
-52.2249999999999943
11
151.9051330000000064
21
-52.1466840000000005
0
LINE
8
BLACK
6
CONTINUOUS
10
151.9051330000000064
20
-52.1466840000000005
11
151.9456720000000018
21
-51.9953900000000004
0
LINE
8
BLACK
6
CONTINUOUS
10
151.9456720000000018
20
-51.9953900000000004
11
152.0239880000000028
21
-51.8597429999999946
0
LINE
8
BLACK
6
CONTINUOUS
10
152.0239880000000028
20
-51.8597429999999946
11
152.1347429999999861
21
-51.7489879999999971
0
LINE
8
BLACK
6
CONTINUOUS
10
152.1347429999999861
20
-51.7489879999999971
11
152.2703899999999919
21
-51.6706719999999962
0
LINE
8
BLACK
6
CONTINUOUS
10
152.2703899999999919
20
-51.6706719999999962
11
152.4216839999999991
21
-51.6301330000000007
0
LINE
8
BLACK
6
CONTINUOUS
10
152.4216839999999991
20
-51.6301330000000007
11
152.5783160000000009
21
-51.6301330000000007
0
LINE
8
BLACK
6
CONTINUOUS
10
152.5783160000000009
20
-51.6301330000000007
11
152.7296099999999797
21
-51.6706719999999962
0
CIRCLE
8
BLACK
10
152.7999999999999829
20
-66.
40
0.375
0
CIRCLE
8
BLACK
10
150.7999999999999829
20
-66.
40
0.375
0
CIRCLE
8
BLACK
10
148.7999999999999829
20
-66.
40
0.375
0
CIRCLE
8
BLACK
10
148.7999999999999829
20
-68.3999999999999915
40
0.375
0
CIRCLE
8
BLACK
10
150.7999999999999829
20
-68.3999999999999915
40
0.375
0
CIRCLE
8
BLACK
10
152.7999999999999829
20
-68.3999999999999915
40
0.375
0
CIRCLE
8
BLACK
10
146.5
20
-52.5
40
0.375
0
CIRCLE
8
BLACK
10
148.5
20
-52.5
40
0.375
0
CIRCLE
8
BLACK
10
150.5
20
-52.5
40
0.375
0
CIRCLE
8
BLACK
10
152.5
20
-52.5
40
0.375
0
CIRCLE
8
BLACK
10
154.5
20
-52.5
40
0.375
0
CIRCLE
8
BLACK
10
152.5
20
-52.5
40
0.375
0
CIRCLE
8
BLACK
10
150.5
20
-52.5
40
0.375
0
CIRCLE
8
BLACK
10
148.5
20
-52.5
40
0.375
0
CIRCLE
8
BLACK
10
151.4000000000000057
20
-49.5999999999999943
40
0.375
0
CIRCLE
8
BLACK
10
149.4000000000000057
20
-49.5999999999999943
40
0.375
0
CIRCLE
8
BLACK
10
147.1200000000000045
20
-55.3999999999999986
40
0.4
0
CIRCLE
8
BLACK
10
149.6599999999999966
20
-55.3999999999999986
40
0.4
0
CIRCLE
8
BLACK
10
152.1999999999999886
20
-55.3999999999999986
40
0.4
0
CIRCLE
8
BLACK
10
154.7399999999999807
20
-55.3999999999999986
40
0.4
0
CIRCLE
8
BLACK
10
154.7399999999999807
20
-63.019999999999996
40
0.4
0
CIRCLE
8
BLACK
10
152.1999999999999886
20
-63.019999999999996
40
0.4
0
CIRCLE
8
BLACK
10
149.6599999999999966
20
-63.019999999999996
40
0.4
0
CIRCLE
8
BLACK
10
147.1200000000000045
20
-63.019999999999996
40
0.4
0
LINE
8
BLACK
6
CONTINUOUS
10
156.4556379999999933
20
-40.4769030000000001
11
156.4691679999999963
21
-40.4904329999999959
0
LINE
8
BLACK
6
CONTINUOUS
10
156.4691679999999963
20
-40.4904329999999959
11
156.4710709999999949
21
-40.5
0
LINE
8
BLACK
6
CONTINUOUS
10
156.4710709999999949
20
-40.5
11
156.4710709999999949
21
-78.7999999999999972
0
LINE
8
BLACK
6
CONTINUOUS
10
156.4710709999999949
20
-78.7999999999999972
11
156.4691679999999963
21
-78.8095670000000013
0
LINE
8
BLACK
6
CONTINUOUS
10
156.4691679999999963
20
-78.8095670000000013
11
156.4556379999999933
21
-78.82309699999999
0
LINE
8
BLACK
6
CONTINUOUS
10
156.4556379999999933
20
-78.82309699999999
11
156.4460709999999892
21
-78.8250000000000028
0
LINE
8
BLACK
6
CONTINUOUS
10
156.4460709999999892
20
-78.8250000000000028
11
144.7999999999999829
21
-78.8250000000000028
0
LINE
8
BLACK
6
CONTINUOUS
10
144.7999999999999829
20
-78.8250000000000028
11
144.7904330000000073
21
-78.82309699999999
0
LINE
8
BLACK
6
CONTINUOUS
10
144.7904330000000073
20
-78.82309699999999
11
144.7769030000000043
21
-78.8095670000000013
0
LINE
8
BLACK
6
CONTINUOUS
10
144.7769030000000043
20
-78.8095670000000013
11
144.7750000000000057
21
-78.7999999999999972
0
LINE
8
BLACK
6
CONTINUOUS
10
144.7750000000000057
20
-78.7999999999999972
11
144.7750000000000057
21
-40.5
0
LINE
8
BLACK
6
CONTINUOUS
10
144.7750000000000057
20
-40.5
11
144.7769030000000043
21
-40.4904329999999959
0
LINE
8
BLACK
6
CONTINUOUS
10
144.7769030000000043
20
-40.4904329999999959
11
144.7904330000000073
21
-40.4769030000000001
0
LINE
8
BLACK
6
CONTINUOUS
10
144.7904330000000073
20
-40.4769030000000001
11
144.7999999999999829
21
-40.4750000000000014
0
LINE
8
BLACK
6
CONTINUOUS
10
144.7999999999999829
20
-40.4750000000000014
11
156.4460709999999892
21
-40.4750000000000014
0
LINE
8
BLACK
6
CONTINUOUS
10
156.4460709999999892
20
-40.4750000000000014
11
156.4556379999999933
21
-40.4769030000000001
0
LINE
8
BLACK
6
CONTINUOUS
10
144.8249999999999886
20
-40.5249999999999986
11
144.8249999999999886
21
-78.7749999999999915
0
LINE
8
BLACK
6
CONTINUOUS
10
144.8249999999999886
20
-78.7749999999999915
11
156.4210709999999835
21
-78.7749999999999915
0
LINE
8
BLACK
6
CONTINUOUS
10
156.4210709999999835
20
-78.7749999999999915
11
156.4210709999999835
21
-40.5249999999999986
0
LINE
8
BLACK
6
CONTINUOUS
10
156.4210709999999835
20
-40.5249999999999986
11
144.8249999999999886
21
-40.5249999999999986
0
CIRCLE
8
BLACK
10
152.7999999999999829
20
-66.
40
0.375
0
CIRCLE
8
BLACK
10
150.7999999999999829
20
-66.
40
0.375
0
CIRCLE
8
BLACK
10
148.7999999999999829
20
-66.
40
0.375
0
CIRCLE
8
BLACK
10
148.7999999999999829
20
-68.3999999999999915
40
0.375
0
CIRCLE
8
BLACK
10
150.7999999999999829
20
-68.3999999999999915
40
0.375
0
CIRCLE
8
BLACK
10
152.7999999999999829
20
-68.3999999999999915
40
0.375
0
CIRCLE
8
BLACK
10
146.5
20
-52.5
40
0.375
0
CIRCLE
8
BLACK
10
148.5
20
-52.5
40
0.375
0
CIRCLE
8
BLACK
10
150.5
20
-52.5
40
0.375
0
CIRCLE
8
BLACK
10
152.5
20
-52.5
40
0.375
0
CIRCLE
8
BLACK
10
154.5
20
-52.5
40
0.375
0
CIRCLE
8
BLACK
10
152.5
20
-52.5
40
0.375
0
CIRCLE
8
BLACK
10
150.5
20
-52.5
40
0.375
0
CIRCLE
8
BLACK
10
148.5
20
-52.5
40
0.375
0
CIRCLE
8
BLACK
10
151.4000000000000057
20
-49.5999999999999943
40
0.375
0
CIRCLE
8
BLACK
10
149.4000000000000057
20
-49.5999999999999943
40
0.375
0
CIRCLE
8
BLACK
10
147.1200000000000045
20
-55.3999999999999986
40
0.4
0
CIRCLE
8
BLACK
10
149.6599999999999966
20
-55.3999999999999986
40
0.4
0
CIRCLE
8
BLACK
10
152.1999999999999886
20
-55.3999999999999986
40
0.4
0
CIRCLE
8
BLACK
10
154.7399999999999807
20
-55.3999999999999986
40
0.4
0
CIRCLE
8
BLACK
10
154.7399999999999807
20
-63.019999999999996
40
0.4
0
CIRCLE
8
BLACK
10
152.1999999999999886
20
-63.019999999999996
40
0.4
0
CIRCLE
8
BLACK
10
149.6599999999999966
20
-63.019999999999996
40
0.4
0
CIRCLE
8
BLACK
10
147.1200000000000045
20
-63.019999999999996
40
0.4
0
CIRCLE
8
WHITE
10
152.7999999999999829
20
-66.
40
0.375
0
CIRCLE
8
WHITE
10
150.7999999999999829
20
-66.
40
0.375
0
CIRCLE
8
WHITE
10
148.7999999999999829
20
-66.
40
0.375
0
CIRCLE
8
WHITE
10
148.7999999999999829
20
-68.3999999999999915
40
0.375
0
CIRCLE
8
WHITE
10
150.7999999999999829
20
-68.3999999999999915
40
0.375
0
CIRCLE
8
WHITE
10
152.7999999999999829
20
-68.3999999999999915
40
0.375
0
CIRCLE
8
WHITE
10
146.5
20
-52.5
40
0.375
0
CIRCLE
8
WHITE
10
148.5
20
-52.5
40
0.375
0
CIRCLE
8
WHITE
10
150.5
20
-52.5
40
0.375
0
CIRCLE
8
WHITE
10
152.5
20
-52.5
40
0.375
0
CIRCLE
8
WHITE
10
154.5
20
-52.5
40
0.375
0
CIRCLE
8
WHITE
10
152.5
20
-52.5
40
0.375
0
CIRCLE
8
WHITE
10
150.5
20
-52.5
40
0.375
0
CIRCLE
8
WHITE
10
148.5
20
-52.5
40
0.375
0
CIRCLE
8
WHITE
10
151.4000000000000057
20
-49.5999999999999943
40
0.375
0
CIRCLE
8
WHITE
10
149.4000000000000057
20
-49.5999999999999943
40
0.375
0
CIRCLE
8
WHITE
10
147.1200000000000045
20
-55.3999999999999986
40
0.4
0
CIRCLE
8
WHITE
10
149.6599999999999966
20
-55.3999999999999986
40
0.4
0
CIRCLE
8
WHITE
10
152.1999999999999886
20
-55.3999999999999986
40
0.4
0
CIRCLE
8
WHITE
10
154.7399999999999807
20
-55.3999999999999986
40
0.4
0
CIRCLE
8
WHITE
10
154.7399999999999807
20
-63.019999999999996
40
0.4
0
CIRCLE
8
WHITE
10
152.1999999999999886
20
-63.019999999999996
40
0.4
0
CIRCLE
8
WHITE
10
149.6599999999999966
20
-63.019999999999996
40
0.4
0
CIRCLE
8
WHITE
10
147.1200000000000045
20
-63.019999999999996
40
0.4
  0
ENDSEC
  0
EOF
