  0
SECTION
  2
HEADER
  9
$ANGBASE
  50
0.0
  9
$ANGDIR
  70
1
  9
$MEASUREMENT
  70
1
  0
ENDSEC
  0
SECTION
  2
TABLES
  0
TABLE
  2
LTYPE
  70
4
  0
LTYPE
  5
40F
  2
CONTINUOUS
  70
0
  3
Solid line
  72
65
  73
0
  40
0.0
  0
LTYPE
  5
410
  2
DASHDOT
 70
0
  3
Dash Dot ____ _ ____ _
 72
65
 73
4
 40
2.0
 49
1.25
 49
-0.25
 49
0.25
 49
-0.25
  0
LTYPE
  5
411
  2
DASHED
 70
0
  3
Dashed __ __ __ __ __
 72
65
 73
2
 40
0.75
 49
0.5
 49
-0.25
  0
LTYPE
  5
43B
  2
DOTTED
 70
0
  3
Dotted .  .  .  .
 72
65
 73
2
 40
0.2
 49
0.0
 49
-0.2
  0
ENDTAB
  0
TABLE
  2
STYLE
  70
4
  0
STYLE
  2
KICAD
  70
0
  40
0
  41
1
  42
1
  50
0
  71
0
  3
isocp.shx
  0
STYLE
  2
KICADB
  70
0
  40
0
  41
1
  42
1
  50
0
  71
0
  3
isocp.shx
  0
STYLE
  2
KICADI
  70
0
  40
0
  41
1
  42
1
  50
15
  71
0
  3
isocp.shx
  0
STYLE
  2
KICADBI
  70
0
  40
0
  41
1
  42
1
  50
15
  71
0
  3
isocp.shx
  0
ENDTAB
  0
TABLE
  2
LAYER
  70
1
  0
LAYER
  2
BLACK
  70
0
  62
7
  6
CONTINUOUS
  0
ENDTAB
  0
ENDSEC
  0
SECTION
  2
ENTITIES
0
LINE
8
BLACK
6
CONTINUOUS
10
156.4556379999999933
20
-40.4769030000000001
11
156.4691679999999963
21
-40.4904329999999959
0
LINE
8
BLACK
6
CONTINUOUS
10
156.4691679999999963
20
-40.4904329999999959
11
156.4710709999999949
21
-40.5
0
LINE
8
BLACK
6
CONTINUOUS
10
156.4710709999999949
20
-40.5
11
156.4710709999999949
21
-78.7999999999999972
0
LINE
8
BLACK
6
CONTINUOUS
10
156.4710709999999949
20
-78.7999999999999972
11
156.4691679999999963
21
-78.8095670000000013
0
LINE
8
BLACK
6
CONTINUOUS
10
156.4691679999999963
20
-78.8095670000000013
11
156.4556379999999933
21
-78.82309699999999
0
LINE
8
BLACK
6
CONTINUOUS
10
156.4556379999999933
20
-78.82309699999999
11
156.4460709999999892
21
-78.8250000000000028
0
LINE
8
BLACK
6
CONTINUOUS
10
156.4460709999999892
20
-78.8250000000000028
11
144.7999999999999829
21
-78.8250000000000028
0
LINE
8
BLACK
6
CONTINUOUS
10
144.7999999999999829
20
-78.8250000000000028
11
144.7904330000000073
21
-78.82309699999999
0
LINE
8
BLACK
6
CONTINUOUS
10
144.7904330000000073
20
-78.82309699999999
11
144.7769030000000043
21
-78.8095670000000013
0
LINE
8
BLACK
6
CONTINUOUS
10
144.7769030000000043
20
-78.8095670000000013
11
144.7750000000000057
21
-78.7999999999999972
0
LINE
8
BLACK
6
CONTINUOUS
10
144.7750000000000057
20
-78.7999999999999972
11
144.7750000000000057
21
-40.5
0
LINE
8
BLACK
6
CONTINUOUS
10
144.7750000000000057
20
-40.5
11
144.7769030000000043
21
-40.4904329999999959
0
LINE
8
BLACK
6
CONTINUOUS
10
144.7769030000000043
20
-40.4904329999999959
11
144.7904330000000073
21
-40.4769030000000001
0
LINE
8
BLACK
6
CONTINUOUS
10
144.7904330000000073
20
-40.4769030000000001
11
144.7999999999999829
21
-40.4750000000000014
0
LINE
8
BLACK
6
CONTINUOUS
10
144.7999999999999829
20
-40.4750000000000014
11
156.4460709999999892
21
-40.4750000000000014
0
LINE
8
BLACK
6
CONTINUOUS
10
156.4460709999999892
20
-40.4750000000000014
11
156.4556379999999933
21
-40.4769030000000001
0
LINE
8
BLACK
6
CONTINUOUS
10
144.8249999999999886
20
-40.5249999999999986
11
144.8249999999999886
21
-78.7749999999999915
0
LINE
8
BLACK
6
CONTINUOUS
10
144.8249999999999886
20
-78.7749999999999915
11
156.4210709999999835
21
-78.7749999999999915
0
LINE
8
BLACK
6
CONTINUOUS
10
156.4210709999999835
20
-78.7749999999999915
11
156.4210709999999835
21
-40.5249999999999986
0
LINE
8
BLACK
6
CONTINUOUS
10
156.4210709999999835
20
-40.5249999999999986
11
144.8249999999999886
21
-40.5249999999999986
0
CIRCLE
8
BLACK
10
152.7999999999999829
20
-66.
40
0.375
0
CIRCLE
8
BLACK
10
150.7999999999999829
20
-66.
40
0.375
0
CIRCLE
8
BLACK
10
148.7999999999999829
20
-66.
40
0.375
0
CIRCLE
8
BLACK
10
148.7999999999999829
20
-68.3999999999999915
40
0.375
0
CIRCLE
8
BLACK
10
150.7999999999999829
20
-68.3999999999999915
40
0.375
0
CIRCLE
8
BLACK
10
152.7999999999999829
20
-68.3999999999999915
40
0.375
0
CIRCLE
8
BLACK
10
146.5
20
-52.5
40
0.375
0
CIRCLE
8
BLACK
10
148.5
20
-52.5
40
0.375
0
CIRCLE
8
BLACK
10
150.5
20
-52.5
40
0.375
0
CIRCLE
8
BLACK
10
152.5
20
-52.5
40
0.375
0
CIRCLE
8
BLACK
10
154.5
20
-52.5
40
0.375
0
CIRCLE
8
BLACK
10
152.5
20
-52.5
40
0.375
0
CIRCLE
8
BLACK
10
150.5
20
-52.5
40
0.375
0
CIRCLE
8
BLACK
10
148.5
20
-52.5
40
0.375
0
CIRCLE
8
BLACK
10
151.4000000000000057
20
-49.5999999999999943
40
0.375
0
CIRCLE
8
BLACK
10
149.4000000000000057
20
-49.5999999999999943
40
0.375
0
CIRCLE
8
BLACK
10
147.1200000000000045
20
-55.3999999999999986
40
0.4
0
CIRCLE
8
BLACK
10
149.6599999999999966
20
-55.3999999999999986
40
0.4
0
CIRCLE
8
BLACK
10
152.1999999999999886
20
-55.3999999999999986
40
0.4
0
CIRCLE
8
BLACK
10
154.7399999999999807
20
-55.3999999999999986
40
0.4
0
CIRCLE
8
BLACK
10
154.7399999999999807
20
-63.019999999999996
40
0.4
0
CIRCLE
8
BLACK
10
152.1999999999999886
20
-63.019999999999996
40
0.4
0
CIRCLE
8
BLACK
10
149.6599999999999966
20
-63.019999999999996
40
0.4
0
CIRCLE
8
BLACK
10
147.1200000000000045
20
-63.019999999999996
40
0.4
0
CIRCLE
8
WHITE
10
152.7999999999999829
20
-66.
40
0.375
0
CIRCLE
8
WHITE
10
150.7999999999999829
20
-66.
40
0.375
0
CIRCLE
8
WHITE
10
148.7999999999999829
20
-66.
40
0.375
0
CIRCLE
8
WHITE
10
148.7999999999999829
20
-68.3999999999999915
40
0.375
0
CIRCLE
8
WHITE
10
150.7999999999999829
20
-68.3999999999999915
40
0.375
0
CIRCLE
8
WHITE
10
152.7999999999999829
20
-68.3999999999999915
40
0.375
0
CIRCLE
8
WHITE
10
146.5
20
-52.5
40
0.375
0
CIRCLE
8
WHITE
10
148.5
20
-52.5
40
0.375
0
CIRCLE
8
WHITE
10
150.5
20
-52.5
40
0.375
0
CIRCLE
8
WHITE
10
152.5
20
-52.5
40
0.375
0
CIRCLE
8
WHITE
10
154.5
20
-52.5
40
0.375
0
CIRCLE
8
WHITE
10
152.5
20
-52.5
40
0.375
0
CIRCLE
8
WHITE
10
150.5
20
-52.5
40
0.375
0
CIRCLE
8
WHITE
10
148.5
20
-52.5
40
0.375
0
CIRCLE
8
WHITE
10
151.4000000000000057
20
-49.5999999999999943
40
0.375
0
CIRCLE
8
WHITE
10
149.4000000000000057
20
-49.5999999999999943
40
0.375
0
CIRCLE
8
WHITE
10
147.1200000000000045
20
-55.3999999999999986
40
0.4
0
CIRCLE
8
WHITE
10
149.6599999999999966
20
-55.3999999999999986
40
0.4
0
CIRCLE
8
WHITE
10
152.1999999999999886
20
-55.3999999999999986
40
0.4
0
CIRCLE
8
WHITE
10
154.7399999999999807
20
-55.3999999999999986
40
0.4
0
CIRCLE
8
WHITE
10
154.7399999999999807
20
-63.019999999999996
40
0.4
0
CIRCLE
8
WHITE
10
152.1999999999999886
20
-63.019999999999996
40
0.4
0
CIRCLE
8
WHITE
10
149.6599999999999966
20
-63.019999999999996
40
0.4
0
CIRCLE
8
WHITE
10
147.1200000000000045
20
-63.019999999999996
40
0.4
  0
ENDSEC
  0
EOF
