  0
SECTION
  2
HEADER
  9
$ANGBASE
  50
0.0
  9
$ANGDIR
  70
1
  9
$MEASUREMENT
  70
1
  0
ENDSEC
  0
SECTION
  2
TABLES
  0
TABLE
  2
LTYPE
  70
4
  0
LTYPE
  5
40F
  2
CONTINUOUS
  70
0
  3
Solid line
  72
65
  73
0
  40
0.0
  0
LTYPE
  5
410
  2
DASHDOT
 70
0
  3
Dash Dot ____ _ ____ _
 72
65
 73
4
 40
2.0
 49
1.25
 49
-0.25
 49
0.25
 49
-0.25
  0
LTYPE
  5
411
  2
DASHED
 70
0
  3
Dashed __ __ __ __ __
 72
65
 73
2
 40
0.75
 49
0.5
 49
-0.25
  0
LTYPE
  5
43B
  2
DOTTED
 70
0
  3
Dotted .  .  .  .
 72
65
 73
2
 40
0.2
 49
0.0
 49
-0.2
  0
ENDTAB
  0
TABLE
  2
STYLE
  70
4
  0
STYLE
  2
KICAD
  70
0
  40
0
  41
1
  42
1
  50
0
  71
0
  3
isocp.shx
  0
STYLE
  2
KICADB
  70
0
  40
0
  41
1
  42
1
  50
0
  71
0
  3
isocp.shx
  0
STYLE
  2
KICADI
  70
0
  40
0
  41
1
  42
1
  50
15
  71
0
  3
isocp.shx
  0
STYLE
  2
KICADBI
  70
0
  40
0
  41
1
  42
1
  50
15
  71
0
  3
isocp.shx
  0
ENDTAB
  0
TABLE
  2
LAYER
  70
1
  0
LAYER
  2
BLACK
  70
0
  62
7
  6
CONTINUOUS
  0
ENDTAB
  0
ENDSEC
  0
SECTION
  2
ENTITIES
0
LINE
8
BLACK
6
CONTINUOUS
10
149.2456709999999873
20
-67.5440299999999922
11
149.3267769999999928
21
-67.5982229999999902
0
LINE
8
BLACK
6
CONTINUOUS
10
149.3267769999999928
20
-67.5982229999999902
11
149.3809699999999907
21
-67.6793289999999956
0
LINE
8
BLACK
6
CONTINUOUS
10
149.3809699999999907
20
-67.6793289999999956
11
149.4000000000000057
21
-67.7749999999999915
0
LINE
8
BLACK
6
CONTINUOUS
10
149.4000000000000057
20
-67.7749999999999915
11
149.4000000000000057
21
-69.0249999999999915
0
LINE
8
BLACK
6
CONTINUOUS
10
149.4000000000000057
20
-69.0249999999999915
11
149.3809699999999907
21
-69.1206710000000015
0
LINE
8
BLACK
6
CONTINUOUS
10
149.3809699999999907
20
-69.1206710000000015
11
149.3267769999999928
21
-69.2017769999999928
0
LINE
8
BLACK
6
CONTINUOUS
10
149.3267769999999928
20
-69.2017769999999928
11
149.2456709999999873
21
-69.2559699999999907
0
LINE
8
BLACK
6
CONTINUOUS
10
149.2456709999999873
20
-69.2559699999999907
11
149.1500000000000057
21
-69.2749999999999915
0
LINE
8
BLACK
6
CONTINUOUS
10
149.1500000000000057
20
-69.2749999999999915
11
148.4499999999999886
21
-69.2749999999999915
0
LINE
8
BLACK
6
CONTINUOUS
10
148.4499999999999886
20
-69.2749999999999915
11
148.354329000000007
21
-69.2559699999999907
0
LINE
8
BLACK
6
CONTINUOUS
10
148.354329000000007
20
-69.2559699999999907
11
148.2732230000000015
21
-69.2017769999999928
0
LINE
8
BLACK
6
CONTINUOUS
10
148.2732230000000015
20
-69.2017769999999928
11
148.2190300000000036
21
-69.1206710000000015
0
LINE
8
BLACK
6
CONTINUOUS
10
148.2190300000000036
20
-69.1206710000000015
11
148.1999999999999886
21
-69.0249999999999915
0
LINE
8
BLACK
6
CONTINUOUS
10
148.1999999999999886
20
-69.0249999999999915
11
148.1999999999999886
21
-67.7749999999999915
0
LINE
8
BLACK
6
CONTINUOUS
10
148.1999999999999886
20
-67.7749999999999915
11
148.2190300000000036
21
-67.6793289999999956
0
LINE
8
BLACK
6
CONTINUOUS
10
148.2190300000000036
20
-67.6793289999999956
11
148.2732230000000015
21
-67.5982229999999902
0
LINE
8
BLACK
6
CONTINUOUS
10
148.2732230000000015
20
-67.5982229999999902
11
148.354329000000007
21
-67.5440299999999922
0
LINE
8
BLACK
6
CONTINUOUS
10
148.354329000000007
20
-67.5440299999999922
11
148.4499999999999886
21
-67.5249999999999915
0
LINE
8
BLACK
6
CONTINUOUS
10
148.4499999999999886
20
-67.5249999999999915
11
149.1500000000000057
21
-67.5249999999999915
0
LINE
8
BLACK
6
CONTINUOUS
10
149.1500000000000057
20
-67.5249999999999915
11
149.2456709999999873
21
-67.5440299999999922
0
LINE
8
BLACK
6
CONTINUOUS
10
151.029609999999991
20
-67.5706720000000018
11
151.1652569999999969
21
-67.6489880000000028
0
LINE
8
BLACK
6
CONTINUOUS
10
151.1652569999999969
20
-67.6489880000000028
11
151.2760119999999802
21
-67.7597430000000003
0
LINE
8
BLACK
6
CONTINUOUS
10
151.2760119999999802
20
-67.7597430000000003
11
151.3543279999999811
21
-67.8953899999999919
0
LINE
8
BLACK
6
CONTINUOUS
10
151.3543279999999811
20
-67.8953899999999919
11
151.394867000000005
21
-68.0466839999999991
0
LINE
8
BLACK
6
CONTINUOUS
10
151.394867000000005
20
-68.0466839999999991
11
151.4000000000000057
21
-68.125
0
LINE
8
BLACK
6
CONTINUOUS
10
151.4000000000000057
20
-68.125
11
151.4000000000000057
21
-68.6749999999999972
0
LINE
8
BLACK
6
CONTINUOUS
10
151.4000000000000057
20
-68.6749999999999972
11
151.394867000000005
21
-68.7533159999999981
0
LINE
8
BLACK
6
CONTINUOUS
10
151.394867000000005
20
-68.7533159999999981
11
151.3543279999999811
21
-68.904609999999991
0
LINE
8
BLACK
6
CONTINUOUS
10
151.3543279999999811
20
-68.904609999999991
11
151.2760119999999802
21
-69.0402569999999969
0
LINE
8
BLACK
6
CONTINUOUS
10
151.2760119999999802
20
-69.0402569999999969
11
151.1652569999999969
21
-69.1510119999999944
0
LINE
8
BLACK
6
CONTINUOUS
10
151.1652569999999969
20
-69.1510119999999944
11
151.029609999999991
21
-69.2293279999999953
0
LINE
8
BLACK
6
CONTINUOUS
10
151.029609999999991
20
-69.2293279999999953
11
150.8783159999999839
21
-69.2698669999999908
0
LINE
8
BLACK
6
CONTINUOUS
10
150.8783159999999839
20
-69.2698669999999908
11
150.721683999999982
21
-69.2698669999999908
0
LINE
8
BLACK
6
CONTINUOUS
10
150.721683999999982
20
-69.2698669999999908
11
150.5703900000000033
21
-69.2293279999999953
0
LINE
8
BLACK
6
CONTINUOUS
10
150.5703900000000033
20
-69.2293279999999953
11
150.4347429999999974
21
-69.1510119999999944
0
LINE
8
BLACK
6
CONTINUOUS
10
150.4347429999999974
20
-69.1510119999999944
11
150.3239879999999857
21
-69.0402569999999969
0
LINE
8
BLACK
6
CONTINUOUS
10
150.3239879999999857
20
-69.0402569999999969
11
150.2456719999999848
21
-68.904609999999991
0
LINE
8
BLACK
6
CONTINUOUS
10
150.2456719999999848
20
-68.904609999999991
11
150.2051329999999894
21
-68.7533159999999981
0
LINE
8
BLACK
6
CONTINUOUS
10
150.2051329999999894
20
-68.7533159999999981
11
150.1999999999999886
21
-68.6749999999999972
0
LINE
8
BLACK
6
CONTINUOUS
10
150.1999999999999886
20
-68.6749999999999972
11
150.1999999999999886
21
-68.125
0
LINE
8
BLACK
6
CONTINUOUS
10
150.1999999999999886
20
-68.125
11
150.2051329999999894
21
-68.0466839999999991
0
LINE
8
BLACK
6
CONTINUOUS
10
150.2051329999999894
20
-68.0466839999999991
11
150.2456719999999848
21
-67.8953899999999919
0
LINE
8
BLACK
6
CONTINUOUS
10
150.2456719999999848
20
-67.8953899999999919
11
150.3239879999999857
21
-67.7597430000000003
0
LINE
8
BLACK
6
CONTINUOUS
10
150.3239879999999857
20
-67.7597430000000003
11
150.4347429999999974
21
-67.6489880000000028
0
LINE
8
BLACK
6
CONTINUOUS
10
150.4347429999999974
20
-67.6489880000000028
11
150.5703900000000033
21
-67.5706720000000018
0
LINE
8
BLACK
6
CONTINUOUS
10
150.5703900000000033
20
-67.5706720000000018
11
150.721683999999982
21
-67.5301329999999922
0
LINE
8
BLACK
6
CONTINUOUS
10
150.721683999999982
20
-67.5301329999999922
11
150.8783159999999839
21
-67.5301329999999922
0
LINE
8
BLACK
6
CONTINUOUS
10
150.8783159999999839
20
-67.5301329999999922
11
151.029609999999991
21
-67.5706720000000018
0
LINE
8
BLACK
6
CONTINUOUS
10
153.029609999999991
20
-67.5706720000000018
11
153.1652569999999969
21
-67.6489880000000028
0
LINE
8
BLACK
6
CONTINUOUS
10
153.1652569999999969
20
-67.6489880000000028
11
153.2760119999999802
21
-67.7597430000000003
0
LINE
8
BLACK
6
CONTINUOUS
10
153.2760119999999802
20
-67.7597430000000003
11
153.3543279999999811
21
-67.8953899999999919
0
LINE
8
BLACK
6
CONTINUOUS
10
153.3543279999999811
20
-67.8953899999999919
11
153.394867000000005
21
-68.0466839999999991
0
LINE
8
BLACK
6
CONTINUOUS
10
153.394867000000005
20
-68.0466839999999991
11
153.4000000000000057
21
-68.125
0
LINE
8
BLACK
6
CONTINUOUS
10
153.4000000000000057
20
-68.125
11
153.4000000000000057
21
-68.6749999999999972
0
LINE
8
BLACK
6
CONTINUOUS
10
153.4000000000000057
20
-68.6749999999999972
11
153.394867000000005
21
-68.7533159999999981
0
LINE
8
BLACK
6
CONTINUOUS
10
153.394867000000005
20
-68.7533159999999981
11
153.3543279999999811
21
-68.904609999999991
0
LINE
8
BLACK
6
CONTINUOUS
10
153.3543279999999811
20
-68.904609999999991
11
153.2760119999999802
21
-69.0402569999999969
0
LINE
8
BLACK
6
CONTINUOUS
10
153.2760119999999802
20
-69.0402569999999969
11
153.1652569999999969
21
-69.1510119999999944
0
LINE
8
BLACK
6
CONTINUOUS
10
153.1652569999999969
20
-69.1510119999999944
11
153.029609999999991
21
-69.2293279999999953
0
LINE
8
BLACK
6
CONTINUOUS
10
153.029609999999991
20
-69.2293279999999953
11
152.8783159999999839
21
-69.2698669999999908
0
LINE
8
BLACK
6
CONTINUOUS
10
152.8783159999999839
20
-69.2698669999999908
11
152.721683999999982
21
-69.2698669999999908
0
LINE
8
BLACK
6
CONTINUOUS
10
152.721683999999982
20
-69.2698669999999908
11
152.5703900000000033
21
-69.2293279999999953
0
LINE
8
BLACK
6
CONTINUOUS
10
152.5703900000000033
20
-69.2293279999999953
11
152.4347429999999974
21
-69.1510119999999944
0
LINE
8
BLACK
6
CONTINUOUS
10
152.4347429999999974
20
-69.1510119999999944
11
152.3239879999999857
21
-69.0402569999999969
0
LINE
8
BLACK
6
CONTINUOUS
10
152.3239879999999857
20
-69.0402569999999969
11
152.2456719999999848
21
-68.904609999999991
0
LINE
8
BLACK
6
CONTINUOUS
10
152.2456719999999848
20
-68.904609999999991
11
152.2051329999999894
21
-68.7533159999999981
0
LINE
8
BLACK
6
CONTINUOUS
10
152.2051329999999894
20
-68.7533159999999981
11
152.1999999999999886
21
-68.6749999999999972
0
LINE
8
BLACK
6
CONTINUOUS
10
152.1999999999999886
20
-68.6749999999999972
11
152.1999999999999886
21
-68.125
0
LINE
8
BLACK
6
CONTINUOUS
10
152.1999999999999886
20
-68.125
11
152.2051329999999894
21
-68.0466839999999991
0
LINE
8
BLACK
6
CONTINUOUS
10
152.2051329999999894
20
-68.0466839999999991
11
152.2456719999999848
21
-67.8953899999999919
0
LINE
8
BLACK
6
CONTINUOUS
10
152.2456719999999848
20
-67.8953899999999919
11
152.3239879999999857
21
-67.7597430000000003
0
LINE
8
BLACK
6
CONTINUOUS
10
152.3239879999999857
20
-67.7597430000000003
11
152.4347429999999974
21
-67.6489880000000028
0
LINE
8
BLACK
6
CONTINUOUS
10
152.4347429999999974
20
-67.6489880000000028
11
152.5703900000000033
21
-67.5706720000000018
0
LINE
8
BLACK
6
CONTINUOUS
10
152.5703900000000033
20
-67.5706720000000018
11
152.721683999999982
21
-67.5301329999999922
0
LINE
8
BLACK
6
CONTINUOUS
10
152.721683999999982
20
-67.5301329999999922
11
152.8783159999999839
21
-67.5301329999999922
0
LINE
8
BLACK
6
CONTINUOUS
10
152.8783159999999839
20
-67.5301329999999922
11
153.029609999999991
21
-67.5706720000000018
0
LINE
8
BLACK
6
CONTINUOUS
10
153.2456709999999873
20
-65.1440300000000008
11
153.3267769999999928
21
-65.1982229999999987
0
LINE
8
BLACK
6
CONTINUOUS
10
153.3267769999999928
20
-65.1982229999999987
11
153.3809699999999907
21
-65.2793289999999899
0
LINE
8
BLACK
6
CONTINUOUS
10
153.3809699999999907
20
-65.2793289999999899
11
153.4000000000000057
21
-65.375
0
LINE
8
BLACK
6
CONTINUOUS
10
153.4000000000000057
20
-65.375
11
153.4000000000000057
21
-66.625
0
LINE
8
BLACK
6
CONTINUOUS
10
153.4000000000000057
20
-66.625
11
153.3809699999999907
21
-66.7206709999999958
0
LINE
8
BLACK
6
CONTINUOUS
10
153.3809699999999907
20
-66.7206709999999958
11
153.3267769999999928
21
-66.8017770000000013
0
LINE
8
BLACK
6
CONTINUOUS
10
153.3267769999999928
20
-66.8017770000000013
11
153.2456709999999873
21
-66.8559699999999992
0
LINE
8
BLACK
6
CONTINUOUS
10
153.2456709999999873
20
-66.8559699999999992
11
153.1500000000000057
21
-66.875
0
LINE
8
BLACK
6
CONTINUOUS
10
153.1500000000000057
20
-66.875
11
152.4499999999999886
21
-66.875
0
LINE
8
BLACK
6
CONTINUOUS
10
152.4499999999999886
20
-66.875
11
152.354329000000007
21
-66.8559699999999992
0
LINE
8
BLACK
6
CONTINUOUS
10
152.354329000000007
20
-66.8559699999999992
11
152.2732230000000015
21
-66.8017770000000013
0
LINE
8
BLACK
6
CONTINUOUS
10
152.2732230000000015
20
-66.8017770000000013
11
152.2190300000000036
21
-66.7206709999999958
0
LINE
8
BLACK
6
CONTINUOUS
10
152.2190300000000036
20
-66.7206709999999958
11
152.1999999999999886
21
-66.625
0
LINE
8
BLACK
6
CONTINUOUS
10
152.1999999999999886
20
-66.625
11
152.1999999999999886
21
-65.375
0
LINE
8
BLACK
6
CONTINUOUS
10
152.1999999999999886
20
-65.375
11
152.2190300000000036
21
-65.2793289999999899
0
LINE
8
BLACK
6
CONTINUOUS
10
152.2190300000000036
20
-65.2793289999999899
11
152.2732230000000015
21
-65.1982229999999987
0
LINE
8
BLACK
6
CONTINUOUS
10
152.2732230000000015
20
-65.1982229999999987
11
152.354329000000007
21
-65.1440300000000008
0
LINE
8
BLACK
6
CONTINUOUS
10
152.354329000000007
20
-65.1440300000000008
11
152.4499999999999886
21
-65.125
0
LINE
8
BLACK
6
CONTINUOUS
10
152.4499999999999886
20
-65.125
11
153.1500000000000057
21
-65.125
0
LINE
8
BLACK
6
CONTINUOUS
10
153.1500000000000057
20
-65.125
11
153.2456709999999873
21
-65.1440300000000008
0
LINE
8
BLACK
6
CONTINUOUS
10
149.029609999999991
20
-65.1706719999999962
11
149.1652569999999969
21
-65.2489879999999971
0
LINE
8
BLACK
6
CONTINUOUS
10
149.1652569999999969
20
-65.2489879999999971
11
149.2760119999999802
21
-65.3597429999999946
0
LINE
8
BLACK
6
CONTINUOUS
10
149.2760119999999802
20
-65.3597429999999946
11
149.3543279999999811
21
-65.4953900000000004
0
LINE
8
BLACK
6
CONTINUOUS
10
149.3543279999999811
20
-65.4953900000000004
11
149.394867000000005
21
-65.6466839999999934
0
LINE
8
BLACK
6
CONTINUOUS
10
149.394867000000005
20
-65.6466839999999934
11
149.4000000000000057
21
-65.7249999999999943
0
LINE
8
BLACK
6
CONTINUOUS
10
149.4000000000000057
20
-65.7249999999999943
11
149.4000000000000057
21
-66.2749999999999915
0
LINE
8
BLACK
6
CONTINUOUS
10
149.4000000000000057
20
-66.2749999999999915
11
149.394867000000005
21
-66.3533159999999924
0
LINE
8
BLACK
6
CONTINUOUS
10
149.394867000000005
20
-66.3533159999999924
11
149.3543279999999811
21
-66.5046099999999996
0
LINE
8
BLACK
6
CONTINUOUS
10
149.3543279999999811
20
-66.5046099999999996
11
149.2760119999999802
21
-66.6402569999999912
0
LINE
8
BLACK
6
CONTINUOUS
10
149.2760119999999802
20
-66.6402569999999912
11
149.1652569999999969
21
-66.7510120000000029
0
LINE
8
BLACK
6
CONTINUOUS
10
149.1652569999999969
20
-66.7510120000000029
11
149.029609999999991
21
-66.8293280000000038
0
LINE
8
BLACK
6
CONTINUOUS
10
149.029609999999991
20
-66.8293280000000038
11
148.8783159999999839
21
-66.8698669999999993
0
LINE
8
BLACK
6
CONTINUOUS
10
148.8783159999999839
20
-66.8698669999999993
11
148.721683999999982
21
-66.8698669999999993
0
LINE
8
BLACK
6
CONTINUOUS
10
148.721683999999982
20
-66.8698669999999993
11
148.5703900000000033
21
-66.8293280000000038
0
LINE
8
BLACK
6
CONTINUOUS
10
148.5703900000000033
20
-66.8293280000000038
11
148.4347429999999974
21
-66.7510120000000029
0
LINE
8
BLACK
6
CONTINUOUS
10
148.4347429999999974
20
-66.7510120000000029
11
148.3239879999999857
21
-66.6402569999999912
0
LINE
8
BLACK
6
CONTINUOUS
10
148.3239879999999857
20
-66.6402569999999912
11
148.2456719999999848
21
-66.5046099999999996
0
LINE
8
BLACK
6
CONTINUOUS
10
148.2456719999999848
20
-66.5046099999999996
11
148.2051329999999894
21
-66.3533159999999924
0
LINE
8
BLACK
6
CONTINUOUS
10
148.2051329999999894
20
-66.3533159999999924
11
148.1999999999999886
21
-66.2749999999999915
0
LINE
8
BLACK
6
CONTINUOUS
10
148.1999999999999886
20
-66.2749999999999915
11
148.1999999999999886
21
-65.7249999999999943
0
LINE
8
BLACK
6
CONTINUOUS
10
148.1999999999999886
20
-65.7249999999999943
11
148.2051329999999894
21
-65.6466839999999934
0
LINE
8
BLACK
6
CONTINUOUS
10
148.2051329999999894
20
-65.6466839999999934
11
148.2456719999999848
21
-65.4953900000000004
0
LINE
8
BLACK
6
CONTINUOUS
10
148.2456719999999848
20
-65.4953900000000004
11
148.3239879999999857
21
-65.3597429999999946
0
LINE
8
BLACK
6
CONTINUOUS
10
148.3239879999999857
20
-65.3597429999999946
11
148.4347429999999974
21
-65.2489879999999971
0
LINE
8
BLACK
6
CONTINUOUS
10
148.4347429999999974
20
-65.2489879999999971
11
148.5703900000000033
21
-65.1706719999999962
0
LINE
8
BLACK
6
CONTINUOUS
10
148.5703900000000033
20
-65.1706719999999962
11
148.721683999999982
21
-65.1301330000000007
0
LINE
8
BLACK
6
CONTINUOUS
10
148.721683999999982
20
-65.1301330000000007
11
148.8783159999999839
21
-65.1301330000000007
0
LINE
8
BLACK
6
CONTINUOUS
10
148.8783159999999839
20
-65.1301330000000007
11
149.029609999999991
21
-65.1706719999999962
0
LINE
8
BLACK
6
CONTINUOUS
10
151.029609999999991
20
-65.1706719999999962
11
151.1652569999999969
21
-65.2489879999999971
0
LINE
8
BLACK
6
CONTINUOUS
10
151.1652569999999969
20
-65.2489879999999971
11
151.2760119999999802
21
-65.3597429999999946
0
LINE
8
BLACK
6
CONTINUOUS
10
151.2760119999999802
20
-65.3597429999999946
11
151.3543279999999811
21
-65.4953900000000004
0
LINE
8
BLACK
6
CONTINUOUS
10
151.3543279999999811
20
-65.4953900000000004
11
151.394867000000005
21
-65.6466839999999934
0
LINE
8
BLACK
6
CONTINUOUS
10
151.394867000000005
20
-65.6466839999999934
11
151.4000000000000057
21
-65.7249999999999943
0
LINE
8
BLACK
6
CONTINUOUS
10
151.4000000000000057
20
-65.7249999999999943
11
151.4000000000000057
21
-66.2749999999999915
0
LINE
8
BLACK
6
CONTINUOUS
10
151.4000000000000057
20
-66.2749999999999915
11
151.394867000000005
21
-66.3533159999999924
0
LINE
8
BLACK
6
CONTINUOUS
10
151.394867000000005
20
-66.3533159999999924
11
151.3543279999999811
21
-66.5046099999999996
0
LINE
8
BLACK
6
CONTINUOUS
10
151.3543279999999811
20
-66.5046099999999996
11
151.2760119999999802
21
-66.6402569999999912
0
LINE
8
BLACK
6
CONTINUOUS
10
151.2760119999999802
20
-66.6402569999999912
11
151.1652569999999969
21
-66.7510120000000029
0
LINE
8
BLACK
6
CONTINUOUS
10
151.1652569999999969
20
-66.7510120000000029
11
151.029609999999991
21
-66.8293280000000038
0
LINE
8
BLACK
6
CONTINUOUS
10
151.029609999999991
20
-66.8293280000000038
11
150.8783159999999839
21
-66.8698669999999993
0
LINE
8
BLACK
6
CONTINUOUS
10
150.8783159999999839
20
-66.8698669999999993
11
150.721683999999982
21
-66.8698669999999993
0
LINE
8
BLACK
6
CONTINUOUS
10
150.721683999999982
20
-66.8698669999999993
11
150.5703900000000033
21
-66.8293280000000038
0
LINE
8
BLACK
6
CONTINUOUS
10
150.5703900000000033
20
-66.8293280000000038
11
150.4347429999999974
21
-66.7510120000000029
0
LINE
8
BLACK
6
CONTINUOUS
10
150.4347429999999974
20
-66.7510120000000029
11
150.3239879999999857
21
-66.6402569999999912
0
LINE
8
BLACK
6
CONTINUOUS
10
150.3239879999999857
20
-66.6402569999999912
11
150.2456719999999848
21
-66.5046099999999996
0
LINE
8
BLACK
6
CONTINUOUS
10
150.2456719999999848
20
-66.5046099999999996
11
150.2051329999999894
21
-66.3533159999999924
0
LINE
8
BLACK
6
CONTINUOUS
10
150.2051329999999894
20
-66.3533159999999924
11
150.1999999999999886
21
-66.2749999999999915
0
LINE
8
BLACK
6
CONTINUOUS
10
150.1999999999999886
20
-66.2749999999999915
11
150.1999999999999886
21
-65.7249999999999943
0
LINE
8
BLACK
6
CONTINUOUS
10
150.1999999999999886
20
-65.7249999999999943
11
150.2051329999999894
21
-65.6466839999999934
0
LINE
8
BLACK
6
CONTINUOUS
10
150.2051329999999894
20
-65.6466839999999934
11
150.2456719999999848
21
-65.4953900000000004
0
LINE
8
BLACK
6
CONTINUOUS
10
150.2456719999999848
20
-65.4953900000000004
11
150.3239879999999857
21
-65.3597429999999946
0
LINE
8
BLACK
6
CONTINUOUS
10
150.3239879999999857
20
-65.3597429999999946
11
150.4347429999999974
21
-65.2489879999999971
0
LINE
8
BLACK
6
CONTINUOUS
10
150.4347429999999974
20
-65.2489879999999971
11
150.5703900000000033
21
-65.1706719999999962
0
LINE
8
BLACK
6
CONTINUOUS
10
150.5703900000000033
20
-65.1706719999999962
11
150.721683999999982
21
-65.1301330000000007
0
LINE
8
BLACK
6
CONTINUOUS
10
150.721683999999982
20
-65.1301330000000007
11
150.8783159999999839
21
-65.1301330000000007
0
LINE
8
BLACK
6
CONTINUOUS
10
150.8783159999999839
20
-65.1301330000000007
11
151.029609999999991
21
-65.1706719999999962
0
LINE
8
BLACK
6
CONTINUOUS
10
147.3522279999999967
20
-62.2544479999999965
11
147.4971170000000029
21
-62.3144629999999964
0
LINE
8
BLACK
6
CONTINUOUS
10
147.4971170000000029
20
-62.3144629999999964
11
147.6275149999999883
21
-62.4015919999999937
0
LINE
8
BLACK
6
CONTINUOUS
10
147.6275149999999883
20
-62.4015919999999937
11
147.7384079999999926
21
-62.5124849999999981
0
LINE
8
BLACK
6
CONTINUOUS
10
147.7384079999999926
20
-62.5124849999999981
11
147.8255369999999971
21
-62.6428829999999977
0
LINE
8
BLACK
6
CONTINUOUS
10
147.8255369999999971
20
-62.6428829999999977
11
147.8855519999999899
21
-62.7877719999999968
0
LINE
8
BLACK
6
CONTINUOUS
10
147.8855519999999899
20
-62.7877719999999968
11
147.9161479999999926
21
-62.9415859999999938
0
LINE
8
BLACK
6
CONTINUOUS
10
147.9161479999999926
20
-62.9415859999999938
11
147.9161479999999926
21
-63.0984139999999982
0
LINE
8
BLACK
6
CONTINUOUS
10
147.9161479999999926
20
-63.0984139999999982
11
147.8855519999999899
21
-63.2522279999999952
0
LINE
8
BLACK
6
CONTINUOUS
10
147.8855519999999899
20
-63.2522279999999952
11
147.8255369999999971
21
-63.3971169999999944
0
LINE
8
BLACK
6
CONTINUOUS
10
147.8255369999999971
20
-63.3971169999999944
11
147.7384079999999926
21
-63.527514999999994
0
LINE
8
BLACK
6
CONTINUOUS
10
147.7384079999999926
20
-63.527514999999994
11
147.6275149999999883
21
-63.6384079999999983
0
LINE
8
BLACK
6
CONTINUOUS
10
147.6275149999999883
20
-63.6384079999999983
11
147.4971170000000029
21
-63.7255369999999957
0
LINE
8
BLACK
6
CONTINUOUS
10
147.4971170000000029
20
-63.7255369999999957
11
147.3522279999999967
21
-63.7855519999999956
0
LINE
8
BLACK
6
CONTINUOUS
10
147.3522279999999967
20
-63.7855519999999956
11
147.1984139999999854
21
-63.8161479999999983
0
LINE
8
BLACK
6
CONTINUOUS
10
147.1984139999999854
20
-63.8161479999999983
11
147.0415859999999952
21
-63.8161479999999983
0
LINE
8
BLACK
6
CONTINUOUS
10
147.0415859999999952
20
-63.8161479999999983
11
146.887771999999984
21
-63.7855519999999956
0
LINE
8
BLACK
6
CONTINUOUS
10
146.887771999999984
20
-63.7855519999999956
11
146.7428830000000062
21
-63.7255369999999957
0
LINE
8
BLACK
6
CONTINUOUS
10
146.7428830000000062
20
-63.7255369999999957
11
146.6124849999999924
21
-63.6384079999999983
0
LINE
8
BLACK
6
CONTINUOUS
10
146.6124849999999924
20
-63.6384079999999983
11
146.501591999999988
21
-63.527514999999994
0
LINE
8
BLACK
6
CONTINUOUS
10
146.501591999999988
20
-63.527514999999994
11
146.4144629999999836
21
-63.3971169999999944
0
LINE
8
BLACK
6
CONTINUOUS
10
146.4144629999999836
20
-63.3971169999999944
11
146.3544479999999908
21
-63.2522279999999952
0
LINE
8
BLACK
6
CONTINUOUS
10
146.3544479999999908
20
-63.2522279999999952
11
146.323851999999988
21
-63.0984139999999982
0
LINE
8
BLACK
6
CONTINUOUS
10
146.323851999999988
20
-63.0984139999999982
11
146.323851999999988
21
-62.9415859999999938
0
LINE
8
BLACK
6
CONTINUOUS
10
146.323851999999988
20
-62.9415859999999938
11
146.3544479999999908
21
-62.7877719999999968
0
LINE
8
BLACK
6
CONTINUOUS
10
146.3544479999999908
20
-62.7877719999999968
11
146.4144629999999836
21
-62.6428829999999977
0
LINE
8
BLACK
6
CONTINUOUS
10
146.4144629999999836
20
-62.6428829999999977
11
146.501591999999988
21
-62.5124849999999981
0
LINE
8
BLACK
6
CONTINUOUS
10
146.501591999999988
20
-62.5124849999999981
11
146.6124849999999924
21
-62.4015919999999937
0
LINE
8
BLACK
6
CONTINUOUS
10
146.6124849999999924
20
-62.4015919999999937
11
146.7428830000000062
21
-62.3144629999999964
0
LINE
8
BLACK
6
CONTINUOUS
10
146.7428830000000062
20
-62.3144629999999964
11
146.887771999999984
21
-62.2544479999999965
0
LINE
8
BLACK
6
CONTINUOUS
10
146.887771999999984
20
-62.2544479999999965
11
147.0415859999999952
21
-62.2238519999999937
0
LINE
8
BLACK
6
CONTINUOUS
10
147.0415859999999952
20
-62.2238519999999937
11
147.1984139999999854
21
-62.2238519999999937
0
LINE
8
BLACK
6
CONTINUOUS
10
147.1984139999999854
20
-62.2238519999999937
11
147.3522279999999967
21
-62.2544479999999965
0
LINE
8
BLACK
6
CONTINUOUS
10
149.8922279999999887
20
-62.2544479999999965
11
150.037116999999995
21
-62.3144629999999964
0
LINE
8
BLACK
6
CONTINUOUS
10
150.037116999999995
20
-62.3144629999999964
11
150.1675149999999803
21
-62.4015919999999937
0
LINE
8
BLACK
6
CONTINUOUS
10
150.1675149999999803
20
-62.4015919999999937
11
150.2784079999999847
21
-62.5124849999999981
0
LINE
8
BLACK
6
CONTINUOUS
10
150.2784079999999847
20
-62.5124849999999981
11
150.3655369999999891
21
-62.6428829999999977
0
LINE
8
BLACK
6
CONTINUOUS
10
150.3655369999999891
20
-62.6428829999999977
11
150.4255519999999819
21
-62.7877719999999968
0
LINE
8
BLACK
6
CONTINUOUS
10
150.4255519999999819
20
-62.7877719999999968
11
150.4561479999999847
21
-62.9415859999999938
0
LINE
8
BLACK
6
CONTINUOUS
10
150.4561479999999847
20
-62.9415859999999938
11
150.4561479999999847
21
-63.0984139999999982
0
LINE
8
BLACK
6
CONTINUOUS
10
150.4561479999999847
20
-63.0984139999999982
11
150.4255519999999819
21
-63.2522279999999952
0
LINE
8
BLACK
6
CONTINUOUS
10
150.4255519999999819
20
-63.2522279999999952
11
150.3655369999999891
21
-63.3971169999999944
0
LINE
8
BLACK
6
CONTINUOUS
10
150.3655369999999891
20
-63.3971169999999944
11
150.2784079999999847
21
-63.527514999999994
0
LINE
8
BLACK
6
CONTINUOUS
10
150.2784079999999847
20
-63.527514999999994
11
150.1675149999999803
21
-63.6384079999999983
0
LINE
8
BLACK
6
CONTINUOUS
10
150.1675149999999803
20
-63.6384079999999983
11
150.037116999999995
21
-63.7255369999999957
0
LINE
8
BLACK
6
CONTINUOUS
10
150.037116999999995
20
-63.7255369999999957
11
149.8922279999999887
21
-63.7855519999999956
0
LINE
8
BLACK
6
CONTINUOUS
10
149.8922279999999887
20
-63.7855519999999956
11
149.7384140000000059
21
-63.8161479999999983
0
LINE
8
BLACK
6
CONTINUOUS
10
149.7384140000000059
20
-63.8161479999999983
11
149.5815859999999873
21
-63.8161479999999983
0
LINE
8
BLACK
6
CONTINUOUS
10
149.5815859999999873
20
-63.8161479999999983
11
149.4277720000000045
21
-63.7855519999999956
0
LINE
8
BLACK
6
CONTINUOUS
10
149.4277720000000045
20
-63.7855519999999956
11
149.2828829999999982
21
-63.7255369999999957
0
LINE
8
BLACK
6
CONTINUOUS
10
149.2828829999999982
20
-63.7255369999999957
11
149.1524849999999844
21
-63.6384079999999983
0
LINE
8
BLACK
6
CONTINUOUS
10
149.1524849999999844
20
-63.6384079999999983
11
149.0415919999999801
21
-63.527514999999994
0
LINE
8
BLACK
6
CONTINUOUS
10
149.0415919999999801
20
-63.527514999999994
11
148.9544630000000041
21
-63.3971169999999944
0
LINE
8
BLACK
6
CONTINUOUS
10
148.9544630000000041
20
-63.3971169999999944
11
148.8944479999999828
21
-63.2522279999999952
0
LINE
8
BLACK
6
CONTINUOUS
10
148.8944479999999828
20
-63.2522279999999952
11
148.8638519999999801
21
-63.0984139999999982
0
LINE
8
BLACK
6
CONTINUOUS
10
148.8638519999999801
20
-63.0984139999999982
11
148.8638519999999801
21
-62.9415859999999938
0
LINE
8
BLACK
6
CONTINUOUS
10
148.8638519999999801
20
-62.9415859999999938
11
148.8944479999999828
21
-62.7877719999999968
0
LINE
8
BLACK
6
CONTINUOUS
10
148.8944479999999828
20
-62.7877719999999968
11
148.9544630000000041
21
-62.6428829999999977
0
LINE
8
BLACK
6
CONTINUOUS
10
148.9544630000000041
20
-62.6428829999999977
11
149.0415919999999801
21
-62.5124849999999981
0
LINE
8
BLACK
6
CONTINUOUS
10
149.0415919999999801
20
-62.5124849999999981
11
149.1524849999999844
21
-62.4015919999999937
0
LINE
8
BLACK
6
CONTINUOUS
10
149.1524849999999844
20
-62.4015919999999937
11
149.2828829999999982
21
-62.3144629999999964
0
LINE
8
BLACK
6
CONTINUOUS
10
149.2828829999999982
20
-62.3144629999999964
11
149.4277720000000045
21
-62.2544479999999965
0
LINE
8
BLACK
6
CONTINUOUS
10
149.4277720000000045
20
-62.2544479999999965
11
149.5815859999999873
21
-62.2238519999999937
0
LINE
8
BLACK
6
CONTINUOUS
10
149.5815859999999873
20
-62.2238519999999937
11
149.7384140000000059
21
-62.2238519999999937
0
LINE
8
BLACK
6
CONTINUOUS
10
149.7384140000000059
20
-62.2238519999999937
11
149.8922279999999887
21
-62.2544479999999965
0
LINE
8
BLACK
6
CONTINUOUS
10
152.4322279999999807
20
-62.2544479999999965
11
152.577116999999987
21
-62.3144629999999964
0
LINE
8
BLACK
6
CONTINUOUS
10
152.577116999999987
20
-62.3144629999999964
11
152.7075150000000008
21
-62.4015919999999937
0
LINE
8
BLACK
6
CONTINUOUS
10
152.7075150000000008
20
-62.4015919999999937
11
152.8184080000000051
21
-62.5124849999999981
0
LINE
8
BLACK
6
CONTINUOUS
10
152.8184080000000051
20
-62.5124849999999981
11
152.9055369999999812
21
-62.6428829999999977
0
LINE
8
BLACK
6
CONTINUOUS
10
152.9055369999999812
20
-62.6428829999999977
11
152.9655520000000024
21
-62.7877719999999968
0
LINE
8
BLACK
6
CONTINUOUS
10
152.9655520000000024
20
-62.7877719999999968
11
152.9961480000000051
21
-62.9415859999999938
0
LINE
8
BLACK
6
CONTINUOUS
10
152.9961480000000051
20
-62.9415859999999938
11
152.9961480000000051
21
-63.0984139999999982
0
LINE
8
BLACK
6
CONTINUOUS
10
152.9961480000000051
20
-63.0984139999999982
11
152.9655520000000024
21
-63.2522279999999952
0
LINE
8
BLACK
6
CONTINUOUS
10
152.9655520000000024
20
-63.2522279999999952
11
152.9055369999999812
21
-63.3971169999999944
0
LINE
8
BLACK
6
CONTINUOUS
10
152.9055369999999812
20
-63.3971169999999944
11
152.8184080000000051
21
-63.527514999999994
0
LINE
8
BLACK
6
CONTINUOUS
10
152.8184080000000051
20
-63.527514999999994
11
152.7075150000000008
21
-63.6384079999999983
0
LINE
8
BLACK
6
CONTINUOUS
10
152.7075150000000008
20
-63.6384079999999983
11
152.577116999999987
21
-63.7255369999999957
0
LINE
8
BLACK
6
CONTINUOUS
10
152.577116999999987
20
-63.7255369999999957
11
152.4322279999999807
21
-63.7855519999999956
0
LINE
8
BLACK
6
CONTINUOUS
10
152.4322279999999807
20
-63.7855519999999956
11
152.2784139999999979
21
-63.8161479999999983
0
LINE
8
BLACK
6
CONTINUOUS
10
152.2784139999999979
20
-63.8161479999999983
11
152.1215859999999793
21
-63.8161479999999983
0
LINE
8
BLACK
6
CONTINUOUS
10
152.1215859999999793
20
-63.8161479999999983
11
151.9677719999999965
21
-63.7855519999999956
0
LINE
8
BLACK
6
CONTINUOUS
10
151.9677719999999965
20
-63.7855519999999956
11
151.8228829999999903
21
-63.7255369999999957
0
LINE
8
BLACK
6
CONTINUOUS
10
151.8228829999999903
20
-63.7255369999999957
11
151.6924850000000049
21
-63.6384079999999983
0
LINE
8
BLACK
6
CONTINUOUS
10
151.6924850000000049
20
-63.6384079999999983
11
151.5815920000000006
21
-63.527514999999994
0
LINE
8
BLACK
6
CONTINUOUS
10
151.5815920000000006
20
-63.527514999999994
11
151.4944629999999961
21
-63.3971169999999944
0
LINE
8
BLACK
6
CONTINUOUS
10
151.4944629999999961
20
-63.3971169999999944
11
151.4344480000000033
21
-63.2522279999999952
0
LINE
8
BLACK
6
CONTINUOUS
10
151.4344480000000033
20
-63.2522279999999952
11
151.4038520000000005
21
-63.0984139999999982
0
LINE
8
BLACK
6
CONTINUOUS
10
151.4038520000000005
20
-63.0984139999999982
11
151.4038520000000005
21
-62.9415859999999938
0
LINE
8
BLACK
6
CONTINUOUS
10
151.4038520000000005
20
-62.9415859999999938
11
151.4344480000000033
21
-62.7877719999999968
0
LINE
8
BLACK
6
CONTINUOUS
10
151.4344480000000033
20
-62.7877719999999968
11
151.4944629999999961
21
-62.6428829999999977
0
LINE
8
BLACK
6
CONTINUOUS
10
151.4944629999999961
20
-62.6428829999999977
11
151.5815920000000006
21
-62.5124849999999981
0
LINE
8
BLACK
6
CONTINUOUS
10
151.5815920000000006
20
-62.5124849999999981
11
151.6924850000000049
21
-62.4015919999999937
0
LINE
8
BLACK
6
CONTINUOUS
10
151.6924850000000049
20
-62.4015919999999937
11
151.8228829999999903
21
-62.3144629999999964
0
LINE
8
BLACK
6
CONTINUOUS
10
151.8228829999999903
20
-62.3144629999999964
11
151.9677719999999965
21
-62.2544479999999965
0
LINE
8
BLACK
6
CONTINUOUS
10
151.9677719999999965
20
-62.2544479999999965
11
152.1215859999999793
21
-62.2238519999999937
0
LINE
8
BLACK
6
CONTINUOUS
10
152.1215859999999793
20
-62.2238519999999937
11
152.2784139999999979
21
-62.2238519999999937
0
LINE
8
BLACK
6
CONTINUOUS
10
152.2784139999999979
20
-62.2238519999999937
11
152.4322279999999807
21
-62.2544479999999965
0
LINE
8
BLACK
6
CONTINUOUS
10
154.9722280000000012
20
-62.2544479999999965
11
155.117116999999979
21
-62.3144629999999964
0
LINE
8
BLACK
6
CONTINUOUS
10
155.117116999999979
20
-62.3144629999999964
11
155.2475149999999928
21
-62.4015919999999937
0
LINE
8
BLACK
6
CONTINUOUS
10
155.2475149999999928
20
-62.4015919999999937
11
155.3584079999999972
21
-62.5124849999999981
0
LINE
8
BLACK
6
CONTINUOUS
10
155.3584079999999972
20
-62.5124849999999981
11
155.4455370000000016
21
-62.6428829999999977
0
LINE
8
BLACK
6
CONTINUOUS
10
155.4455370000000016
20
-62.6428829999999977
11
155.5055519999999945
21
-62.7877719999999968
0
LINE
8
BLACK
6
CONTINUOUS
10
155.5055519999999945
20
-62.7877719999999968
11
155.5361479999999972
21
-62.9415859999999938
0
LINE
8
BLACK
6
CONTINUOUS
10
155.5361479999999972
20
-62.9415859999999938
11
155.5361479999999972
21
-63.0984139999999982
0
LINE
8
BLACK
6
CONTINUOUS
10
155.5361479999999972
20
-63.0984139999999982
11
155.5055519999999945
21
-63.2522279999999952
0
LINE
8
BLACK
6
CONTINUOUS
10
155.5055519999999945
20
-63.2522279999999952
11
155.4455370000000016
21
-63.3971169999999944
0
LINE
8
BLACK
6
CONTINUOUS
10
155.4455370000000016
20
-63.3971169999999944
11
155.3584079999999972
21
-63.527514999999994
0
LINE
8
BLACK
6
CONTINUOUS
10
155.3584079999999972
20
-63.527514999999994
11
155.2475149999999928
21
-63.6384079999999983
0
LINE
8
BLACK
6
CONTINUOUS
10
155.2475149999999928
20
-63.6384079999999983
11
155.117116999999979
21
-63.7255369999999957
0
LINE
8
BLACK
6
CONTINUOUS
10
155.117116999999979
20
-63.7255369999999957
11
154.9722280000000012
21
-63.7855519999999956
0
LINE
8
BLACK
6
CONTINUOUS
10
154.9722280000000012
20
-63.7855519999999956
11
154.81841399999999
21
-63.8161479999999983
0
LINE
8
BLACK
6
CONTINUOUS
10
154.81841399999999
20
-63.8161479999999983
11
154.6615859999999998
21
-63.8161479999999983
0
LINE
8
BLACK
6
CONTINUOUS
10
154.6615859999999998
20
-63.8161479999999983
11
154.5077719999999886
21
-63.7855519999999956
0
LINE
8
BLACK
6
CONTINUOUS
10
154.5077719999999886
20
-63.7855519999999956
11
154.3628829999999823
21
-63.7255369999999957
0
LINE
8
BLACK
6
CONTINUOUS
10
154.3628829999999823
20
-63.7255369999999957
11
154.2324849999999969
21
-63.6384079999999983
0
LINE
8
BLACK
6
CONTINUOUS
10
154.2324849999999969
20
-63.6384079999999983
11
154.1215919999999926
21
-63.527514999999994
0
LINE
8
BLACK
6
CONTINUOUS
10
154.1215919999999926
20
-63.527514999999994
11
154.0344629999999881
21
-63.3971169999999944
0
LINE
8
BLACK
6
CONTINUOUS
10
154.0344629999999881
20
-63.3971169999999944
11
153.9744479999999953
21
-63.2522279999999952
0
LINE
8
BLACK
6
CONTINUOUS
10
153.9744479999999953
20
-63.2522279999999952
11
153.9438519999999926
21
-63.0984139999999982
0
LINE
8
BLACK
6
CONTINUOUS
10
153.9438519999999926
20
-63.0984139999999982
11
153.9438519999999926
21
-62.9415859999999938
0
LINE
8
BLACK
6
CONTINUOUS
10
153.9438519999999926
20
-62.9415859999999938
11
153.9744479999999953
21
-62.7877719999999968
0
LINE
8
BLACK
6
CONTINUOUS
10
153.9744479999999953
20
-62.7877719999999968
11
154.0344629999999881
21
-62.6428829999999977
0
LINE
8
BLACK
6
CONTINUOUS
10
154.0344629999999881
20
-62.6428829999999977
11
154.1215919999999926
21
-62.5124849999999981
0
LINE
8
BLACK
6
CONTINUOUS
10
154.1215919999999926
20
-62.5124849999999981
11
154.2324849999999969
21
-62.4015919999999937
0
LINE
8
BLACK
6
CONTINUOUS
10
154.2324849999999969
20
-62.4015919999999937
11
154.3628829999999823
21
-62.3144629999999964
0
LINE
8
BLACK
6
CONTINUOUS
10
154.3628829999999823
20
-62.3144629999999964
11
154.5077719999999886
21
-62.2544479999999965
0
LINE
8
BLACK
6
CONTINUOUS
10
154.5077719999999886
20
-62.2544479999999965
11
154.6615859999999998
21
-62.2238519999999937
0
LINE
8
BLACK
6
CONTINUOUS
10
154.6615859999999998
20
-62.2238519999999937
11
154.81841399999999
21
-62.2238519999999937
0
LINE
8
BLACK
6
CONTINUOUS
10
154.81841399999999
20
-62.2238519999999937
11
154.9722280000000012
21
-62.2544479999999965
0
LINE
8
BLACK
6
CONTINUOUS
10
147.9199999999999875
20
-56.1999999999999957
11
146.3199999999999932
21
-56.1999999999999957
0
LINE
8
BLACK
6
CONTINUOUS
10
146.3199999999999932
20
-56.1999999999999957
11
146.3199999999999932
21
-54.5999999999999943
0
LINE
8
BLACK
6
CONTINUOUS
10
146.3199999999999932
20
-54.5999999999999943
11
147.9199999999999875
21
-54.5999999999999943
0
LINE
8
BLACK
6
CONTINUOUS
10
147.9199999999999875
20
-54.5999999999999943
11
147.9199999999999875
21
-56.1999999999999957
0
LINE
8
BLACK
6
CONTINUOUS
10
149.8922279999999887
20
-54.634447999999999
11
150.037116999999995
21
-54.6944629999999989
0
LINE
8
BLACK
6
CONTINUOUS
10
150.037116999999995
20
-54.6944629999999989
11
150.1675149999999803
21
-54.7815919999999963
0
LINE
8
BLACK
6
CONTINUOUS
10
150.1675149999999803
20
-54.7815919999999963
11
150.2784079999999847
21
-54.8924850000000006
0
LINE
8
BLACK
6
CONTINUOUS
10
150.2784079999999847
20
-54.8924850000000006
11
150.3655369999999891
21
-55.0228830000000002
0
LINE
8
BLACK
6
CONTINUOUS
10
150.3655369999999891
20
-55.0228830000000002
11
150.4255519999999819
21
-55.1677719999999994
0
LINE
8
BLACK
6
CONTINUOUS
10
150.4255519999999819
20
-55.1677719999999994
11
150.4561479999999847
21
-55.3215859999999964
0
LINE
8
BLACK
6
CONTINUOUS
10
150.4561479999999847
20
-55.3215859999999964
11
150.4561479999999847
21
-55.4784140000000008
0
LINE
8
BLACK
6
CONTINUOUS
10
150.4561479999999847
20
-55.4784140000000008
11
150.4255519999999819
21
-55.6322279999999978
0
LINE
8
BLACK
6
CONTINUOUS
10
150.4255519999999819
20
-55.6322279999999978
11
150.3655369999999891
21
-55.7771169999999969
0
LINE
8
BLACK
6
CONTINUOUS
10
150.3655369999999891
20
-55.7771169999999969
11
150.2784079999999847
21
-55.9075149999999965
0
LINE
8
BLACK
6
CONTINUOUS
10
150.2784079999999847
20
-55.9075149999999965
11
150.1675149999999803
21
-56.0184080000000009
0
LINE
8
BLACK
6
CONTINUOUS
10
150.1675149999999803
20
-56.0184080000000009
11
150.037116999999995
21
-56.1055369999999982
0
LINE
8
BLACK
6
CONTINUOUS
10
150.037116999999995
20
-56.1055369999999982
11
149.8922279999999887
21
-56.1655519999999981
0
LINE
8
BLACK
6
CONTINUOUS
10
149.8922279999999887
20
-56.1655519999999981
11
149.7384140000000059
21
-56.1961480000000009
0
LINE
8
BLACK
6
CONTINUOUS
10
149.7384140000000059
20
-56.1961480000000009
11
149.5815859999999873
21
-56.1961480000000009
0
LINE
8
BLACK
6
CONTINUOUS
10
149.5815859999999873
20
-56.1961480000000009
11
149.4277720000000045
21
-56.1655519999999981
0
LINE
8
BLACK
6
CONTINUOUS
10
149.4277720000000045
20
-56.1655519999999981
11
149.2828829999999982
21
-56.1055369999999982
0
LINE
8
BLACK
6
CONTINUOUS
10
149.2828829999999982
20
-56.1055369999999982
11
149.1524849999999844
21
-56.0184080000000009
0
LINE
8
BLACK
6
CONTINUOUS
10
149.1524849999999844
20
-56.0184080000000009
11
149.0415919999999801
21
-55.9075149999999965
0
LINE
8
BLACK
6
CONTINUOUS
10
149.0415919999999801
20
-55.9075149999999965
11
148.9544630000000041
21
-55.7771169999999969
0
LINE
8
BLACK
6
CONTINUOUS
10
148.9544630000000041
20
-55.7771169999999969
11
148.8944479999999828
21
-55.6322279999999978
0
LINE
8
BLACK
6
CONTINUOUS
10
148.8944479999999828
20
-55.6322279999999978
11
148.8638519999999801
21
-55.4784140000000008
0
LINE
8
BLACK
6
CONTINUOUS
10
148.8638519999999801
20
-55.4784140000000008
11
148.8638519999999801
21
-55.3215859999999964
0
LINE
8
BLACK
6
CONTINUOUS
10
148.8638519999999801
20
-55.3215859999999964
11
148.8944479999999828
21
-55.1677719999999994
0
LINE
8
BLACK
6
CONTINUOUS
10
148.8944479999999828
20
-55.1677719999999994
11
148.9544630000000041
21
-55.0228830000000002
0
LINE
8
BLACK
6
CONTINUOUS
10
148.9544630000000041
20
-55.0228830000000002
11
149.0415919999999801
21
-54.8924850000000006
0
LINE
8
BLACK
6
CONTINUOUS
10
149.0415919999999801
20
-54.8924850000000006
11
149.1524849999999844
21
-54.7815919999999963
0
LINE
8
BLACK
6
CONTINUOUS
10
149.1524849999999844
20
-54.7815919999999963
11
149.2828829999999982
21
-54.6944629999999989
0
LINE
8
BLACK
6
CONTINUOUS
10
149.2828829999999982
20
-54.6944629999999989
11
149.4277720000000045
21
-54.634447999999999
0
LINE
8
BLACK
6
CONTINUOUS
10
149.4277720000000045
20
-54.634447999999999
11
149.5815859999999873
21
-54.6038519999999963
0
LINE
8
BLACK
6
CONTINUOUS
10
149.5815859999999873
20
-54.6038519999999963
11
149.7384140000000059
21
-54.6038519999999963
0
LINE
8
BLACK
6
CONTINUOUS
10
149.7384140000000059
20
-54.6038519999999963
11
149.8922279999999887
21
-54.634447999999999
0
LINE
8
BLACK
6
CONTINUOUS
10
152.4322279999999807
20
-54.634447999999999
11
152.577116999999987
21
-54.6944629999999989
0
LINE
8
BLACK
6
CONTINUOUS
10
152.577116999999987
20
-54.6944629999999989
11
152.7075150000000008
21
-54.7815919999999963
0
LINE
8
BLACK
6
CONTINUOUS
10
152.7075150000000008
20
-54.7815919999999963
11
152.8184080000000051
21
-54.8924850000000006
0
LINE
8
BLACK
6
CONTINUOUS
10
152.8184080000000051
20
-54.8924850000000006
11
152.9055369999999812
21
-55.0228830000000002
0
LINE
8
BLACK
6
CONTINUOUS
10
152.9055369999999812
20
-55.0228830000000002
11
152.9655520000000024
21
-55.1677719999999994
0
LINE
8
BLACK
6
CONTINUOUS
10
152.9655520000000024
20
-55.1677719999999994
11
152.9961480000000051
21
-55.3215859999999964
0
LINE
8
BLACK
6
CONTINUOUS
10
152.9961480000000051
20
-55.3215859999999964
11
152.9961480000000051
21
-55.4784140000000008
0
LINE
8
BLACK
6
CONTINUOUS
10
152.9961480000000051
20
-55.4784140000000008
11
152.9655520000000024
21
-55.6322279999999978
0
LINE
8
BLACK
6
CONTINUOUS
10
152.9655520000000024
20
-55.6322279999999978
11
152.9055369999999812
21
-55.7771169999999969
0
LINE
8
BLACK
6
CONTINUOUS
10
152.9055369999999812
20
-55.7771169999999969
11
152.8184080000000051
21
-55.9075149999999965
0
LINE
8
BLACK
6
CONTINUOUS
10
152.8184080000000051
20
-55.9075149999999965
11
152.7075150000000008
21
-56.0184080000000009
0
LINE
8
BLACK
6
CONTINUOUS
10
152.7075150000000008
20
-56.0184080000000009
11
152.577116999999987
21
-56.1055369999999982
0
LINE
8
BLACK
6
CONTINUOUS
10
152.577116999999987
20
-56.1055369999999982
11
152.4322279999999807
21
-56.1655519999999981
0
LINE
8
BLACK
6
CONTINUOUS
10
152.4322279999999807
20
-56.1655519999999981
11
152.2784139999999979
21
-56.1961480000000009
0
LINE
8
BLACK
6
CONTINUOUS
10
152.2784139999999979
20
-56.1961480000000009
11
152.1215859999999793
21
-56.1961480000000009
0
LINE
8
BLACK
6
CONTINUOUS
10
152.1215859999999793
20
-56.1961480000000009
11
151.9677719999999965
21
-56.1655519999999981
0
LINE
8
BLACK
6
CONTINUOUS
10
151.9677719999999965
20
-56.1655519999999981
11
151.8228829999999903
21
-56.1055369999999982
0
LINE
8
BLACK
6
CONTINUOUS
10
151.8228829999999903
20
-56.1055369999999982
11
151.6924850000000049
21
-56.0184080000000009
0
LINE
8
BLACK
6
CONTINUOUS
10
151.6924850000000049
20
-56.0184080000000009
11
151.5815920000000006
21
-55.9075149999999965
0
LINE
8
BLACK
6
CONTINUOUS
10
151.5815920000000006
20
-55.9075149999999965
11
151.4944629999999961
21
-55.7771169999999969
0
LINE
8
BLACK
6
CONTINUOUS
10
151.4944629999999961
20
-55.7771169999999969
11
151.4344480000000033
21
-55.6322279999999978
0
LINE
8
BLACK
6
CONTINUOUS
10
151.4344480000000033
20
-55.6322279999999978
11
151.4038520000000005
21
-55.4784140000000008
0
LINE
8
BLACK
6
CONTINUOUS
10
151.4038520000000005
20
-55.4784140000000008
11
151.4038520000000005
21
-55.3215859999999964
0
LINE
8
BLACK
6
CONTINUOUS
10
151.4038520000000005
20
-55.3215859999999964
11
151.4344480000000033
21
-55.1677719999999994
0
LINE
8
BLACK
6
CONTINUOUS
10
151.4344480000000033
20
-55.1677719999999994
11
151.4944629999999961
21
-55.0228830000000002
0
LINE
8
BLACK
6
CONTINUOUS
10
151.4944629999999961
20
-55.0228830000000002
11
151.5815920000000006
21
-54.8924850000000006
0
LINE
8
BLACK
6
CONTINUOUS
10
151.5815920000000006
20
-54.8924850000000006
11
151.6924850000000049
21
-54.7815919999999963
0
LINE
8
BLACK
6
CONTINUOUS
10
151.6924850000000049
20
-54.7815919999999963
11
151.8228829999999903
21
-54.6944629999999989
0
LINE
8
BLACK
6
CONTINUOUS
10
151.8228829999999903
20
-54.6944629999999989
11
151.9677719999999965
21
-54.634447999999999
0
LINE
8
BLACK
6
CONTINUOUS
10
151.9677719999999965
20
-54.634447999999999
11
152.1215859999999793
21
-54.6038519999999963
0
LINE
8
BLACK
6
CONTINUOUS
10
152.1215859999999793
20
-54.6038519999999963
11
152.2784139999999979
21
-54.6038519999999963
0
LINE
8
BLACK
6
CONTINUOUS
10
152.2784139999999979
20
-54.6038519999999963
11
152.4322279999999807
21
-54.634447999999999
0
LINE
8
BLACK
6
CONTINUOUS
10
154.9722280000000012
20
-54.634447999999999
11
155.117116999999979
21
-54.6944629999999989
0
LINE
8
BLACK
6
CONTINUOUS
10
155.117116999999979
20
-54.6944629999999989
11
155.2475149999999928
21
-54.7815919999999963
0
LINE
8
BLACK
6
CONTINUOUS
10
155.2475149999999928
20
-54.7815919999999963
11
155.3584079999999972
21
-54.8924850000000006
0
LINE
8
BLACK
6
CONTINUOUS
10
155.3584079999999972
20
-54.8924850000000006
11
155.4455370000000016
21
-55.0228830000000002
0
LINE
8
BLACK
6
CONTINUOUS
10
155.4455370000000016
20
-55.0228830000000002
11
155.5055519999999945
21
-55.1677719999999994
0
LINE
8
BLACK
6
CONTINUOUS
10
155.5055519999999945
20
-55.1677719999999994
11
155.5361479999999972
21
-55.3215859999999964
0
LINE
8
BLACK
6
CONTINUOUS
10
155.5361479999999972
20
-55.3215859999999964
11
155.5361479999999972
21
-55.4784140000000008
0
LINE
8
BLACK
6
CONTINUOUS
10
155.5361479999999972
20
-55.4784140000000008
11
155.5055519999999945
21
-55.6322279999999978
0
LINE
8
BLACK
6
CONTINUOUS
10
155.5055519999999945
20
-55.6322279999999978
11
155.4455370000000016
21
-55.7771169999999969
0
LINE
8
BLACK
6
CONTINUOUS
10
155.4455370000000016
20
-55.7771169999999969
11
155.3584079999999972
21
-55.9075149999999965
0
LINE
8
BLACK
6
CONTINUOUS
10
155.3584079999999972
20
-55.9075149999999965
11
155.2475149999999928
21
-56.0184080000000009
0
LINE
8
BLACK
6
CONTINUOUS
10
155.2475149999999928
20
-56.0184080000000009
11
155.117116999999979
21
-56.1055369999999982
0
LINE
8
BLACK
6
CONTINUOUS
10
155.117116999999979
20
-56.1055369999999982
11
154.9722280000000012
21
-56.1655519999999981
0
LINE
8
BLACK
6
CONTINUOUS
10
154.9722280000000012
20
-56.1655519999999981
11
154.81841399999999
21
-56.1961480000000009
0
LINE
8
BLACK
6
CONTINUOUS
10
154.81841399999999
20
-56.1961480000000009
11
154.6615859999999998
21
-56.1961480000000009
0
LINE
8
BLACK
6
CONTINUOUS
10
154.6615859999999998
20
-56.1961480000000009
11
154.5077719999999886
21
-56.1655519999999981
0
LINE
8
BLACK
6
CONTINUOUS
10
154.5077719999999886
20
-56.1655519999999981
11
154.3628829999999823
21
-56.1055369999999982
0
LINE
8
BLACK
6
CONTINUOUS
10
154.3628829999999823
20
-56.1055369999999982
11
154.2324849999999969
21
-56.0184080000000009
0
LINE
8
BLACK
6
CONTINUOUS
10
154.2324849999999969
20
-56.0184080000000009
11
154.1215919999999926
21
-55.9075149999999965
0
LINE
8
BLACK
6
CONTINUOUS
10
154.1215919999999926
20
-55.9075149999999965
11
154.0344629999999881
21
-55.7771169999999969
0
LINE
8
BLACK
6
CONTINUOUS
10
154.0344629999999881
20
-55.7771169999999969
11
153.9744479999999953
21
-55.6322279999999978
0
LINE
8
BLACK
6
CONTINUOUS
10
153.9744479999999953
20
-55.6322279999999978
11
153.9438519999999926
21
-55.4784140000000008
0
LINE
8
BLACK
6
CONTINUOUS
10
153.9438519999999926
20
-55.4784140000000008
11
153.9438519999999926
21
-55.3215859999999964
0
LINE
8
BLACK
6
CONTINUOUS
10
153.9438519999999926
20
-55.3215859999999964
11
153.9744479999999953
21
-55.1677719999999994
0
LINE
8
BLACK
6
CONTINUOUS
10
153.9744479999999953
20
-55.1677719999999994
11
154.0344629999999881
21
-55.0228830000000002
0
LINE
8
BLACK
6
CONTINUOUS
10
154.0344629999999881
20
-55.0228830000000002
11
154.1215919999999926
21
-54.8924850000000006
0
LINE
8
BLACK
6
CONTINUOUS
10
154.1215919999999926
20
-54.8924850000000006
11
154.2324849999999969
21
-54.7815919999999963
0
LINE
8
BLACK
6
CONTINUOUS
10
154.2324849999999969
20
-54.7815919999999963
11
154.3628829999999823
21
-54.6944629999999989
0
LINE
8
BLACK
6
CONTINUOUS
10
154.3628829999999823
20
-54.6944629999999989
11
154.5077719999999886
21
-54.634447999999999
0
LINE
8
BLACK
6
CONTINUOUS
10
154.5077719999999886
20
-54.634447999999999
11
154.6615859999999998
21
-54.6038519999999963
0
LINE
8
BLACK
6
CONTINUOUS
10
154.6615859999999998
20
-54.6038519999999963
11
154.81841399999999
21
-54.6038519999999963
0
LINE
8
BLACK
6
CONTINUOUS
10
154.81841399999999
20
-54.6038519999999963
11
154.9722280000000012
21
-54.634447999999999
0
LINE
8
BLACK
6
CONTINUOUS
10
148.9456710000000044
20
-51.6440300000000008
11
149.0267769999999814
21
-51.6982229999999987
0
LINE
8
BLACK
6
CONTINUOUS
10
149.0267769999999814
20
-51.6982229999999987
11
149.0809699999999793
21
-51.7793289999999971
0
LINE
8
BLACK
6
CONTINUOUS
10
149.0809699999999793
20
-51.7793289999999971
11
149.0999999999999943
21
-51.875
0
LINE
8
BLACK
6
CONTINUOUS
10
149.0999999999999943
20
-51.875
11
149.0999999999999943
21
-53.125
0
LINE
8
BLACK
6
CONTINUOUS
10
149.0999999999999943
20
-53.125
11
149.0809699999999793
21
-53.2206709999999958
0
LINE
8
BLACK
6
CONTINUOUS
10
149.0809699999999793
20
-53.2206709999999958
11
149.0267769999999814
21
-53.3017769999999942
0
LINE
8
BLACK
6
CONTINUOUS
10
149.0267769999999814
20
-53.3017769999999942
11
148.9456710000000044
21
-53.3559699999999992
0
LINE
8
BLACK
6
CONTINUOUS
10
148.9456710000000044
20
-53.3559699999999992
11
148.8499999999999943
21
-53.375
0
LINE
8
BLACK
6
CONTINUOUS
10
148.8499999999999943
20
-53.375
11
148.1500000000000057
21
-53.375
0
LINE
8
BLACK
6
CONTINUOUS
10
148.1500000000000057
20
-53.375
11
148.0543289999999956
21
-53.3559699999999992
0
LINE
8
BLACK
6
CONTINUOUS
10
148.0543289999999956
20
-53.3559699999999992
11
147.9732229999999902
21
-53.3017769999999942
0
LINE
8
BLACK
6
CONTINUOUS
10
147.9732229999999902
20
-53.3017769999999942
11
147.9190299999999922
21
-53.2206709999999958
0
LINE
8
BLACK
6
CONTINUOUS
10
147.9190299999999922
20
-53.2206709999999958
11
147.9000000000000057
21
-53.125
0
LINE
8
BLACK
6
CONTINUOUS
10
147.9000000000000057
20
-53.125
11
147.9000000000000057
21
-51.875
0
LINE
8
BLACK
6
CONTINUOUS
10
147.9000000000000057
20
-51.875
11
147.9190299999999922
21
-51.7793289999999971
0
LINE
8
BLACK
6
CONTINUOUS
10
147.9190299999999922
20
-51.7793289999999971
11
147.9732229999999902
21
-51.6982229999999987
0
LINE
8
BLACK
6
CONTINUOUS
10
147.9732229999999902
20
-51.6982229999999987
11
148.0543289999999956
21
-51.6440300000000008
0
LINE
8
BLACK
6
CONTINUOUS
10
148.0543289999999956
20
-51.6440300000000008
11
148.1500000000000057
21
-51.625
0
LINE
8
BLACK
6
CONTINUOUS
10
148.1500000000000057
20
-51.625
11
148.8499999999999943
21
-51.625
0
LINE
8
BLACK
6
CONTINUOUS
10
148.8499999999999943
20
-51.625
11
148.9456710000000044
21
-51.6440300000000008
0
LINE
8
BLACK
6
CONTINUOUS
10
154.9456710000000044
20
-51.6440300000000008
11
155.0267769999999814
21
-51.6982229999999987
0
LINE
8
BLACK
6
CONTINUOUS
10
155.0267769999999814
20
-51.6982229999999987
11
155.0809699999999793
21
-51.7793289999999971
0
LINE
8
BLACK
6
CONTINUOUS
10
155.0809699999999793
20
-51.7793289999999971
11
155.0999999999999943
21
-51.875
0
LINE
8
BLACK
6
CONTINUOUS
10
155.0999999999999943
20
-51.875
11
155.0999999999999943
21
-53.125
0
LINE
8
BLACK
6
CONTINUOUS
10
155.0999999999999943
20
-53.125
11
155.0809699999999793
21
-53.2206709999999958
0
LINE
8
BLACK
6
CONTINUOUS
10
155.0809699999999793
20
-53.2206709999999958
11
155.0267769999999814
21
-53.3017769999999942
0
LINE
8
BLACK
6
CONTINUOUS
10
155.0267769999999814
20
-53.3017769999999942
11
154.9456710000000044
21
-53.3559699999999992
0
LINE
8
BLACK
6
CONTINUOUS
10
154.9456710000000044
20
-53.3559699999999992
11
154.8499999999999943
21
-53.375
0
LINE
8
BLACK
6
CONTINUOUS
10
154.8499999999999943
20
-53.375
11
154.1500000000000057
21
-53.375
0
LINE
8
BLACK
6
CONTINUOUS
10
154.1500000000000057
20
-53.375
11
154.0543289999999956
21
-53.3559699999999992
0
LINE
8
BLACK
6
CONTINUOUS
10
154.0543289999999956
20
-53.3559699999999992
11
153.9732229999999902
21
-53.3017769999999942
0
LINE
8
BLACK
6
CONTINUOUS
10
153.9732229999999902
20
-53.3017769999999942
11
153.9190299999999922
21
-53.2206709999999958
0
LINE
8
BLACK
6
CONTINUOUS
10
153.9190299999999922
20
-53.2206709999999958
11
153.9000000000000057
21
-53.125
0
LINE
8
BLACK
6
CONTINUOUS
10
153.9000000000000057
20
-53.125
11
153.9000000000000057
21
-51.875
0
LINE
8
BLACK
6
CONTINUOUS
10
153.9000000000000057
20
-51.875
11
153.9190299999999922
21
-51.7793289999999971
0
LINE
8
BLACK
6
CONTINUOUS
10
153.9190299999999922
20
-51.7793289999999971
11
153.9732229999999902
21
-51.6982229999999987
0
LINE
8
BLACK
6
CONTINUOUS
10
153.9732229999999902
20
-51.6982229999999987
11
154.0543289999999956
21
-51.6440300000000008
0
LINE
8
BLACK
6
CONTINUOUS
10
154.0543289999999956
20
-51.6440300000000008
11
154.1500000000000057
21
-51.625
0
LINE
8
BLACK
6
CONTINUOUS
10
154.1500000000000057
20
-51.625
11
154.8499999999999943
21
-51.625
0
LINE
8
BLACK
6
CONTINUOUS
10
154.8499999999999943
20
-51.625
11
154.9456710000000044
21
-51.6440300000000008
0
LINE
8
BLACK
6
CONTINUOUS
10
146.7296099999999797
20
-51.6706719999999962
11
146.8652569999999855
21
-51.7489879999999971
0
LINE
8
BLACK
6
CONTINUOUS
10
146.8652569999999855
20
-51.7489879999999971
11
146.9760119999999972
21
-51.8597429999999946
0
LINE
8
BLACK
6
CONTINUOUS
10
146.9760119999999972
20
-51.8597429999999946
11
147.0543279999999982
21
-51.9953900000000004
0
LINE
8
BLACK
6
CONTINUOUS
10
147.0543279999999982
20
-51.9953900000000004
11
147.0948669999999936
21
-52.1466840000000005
0
LINE
8
BLACK
6
CONTINUOUS
10
147.0948669999999936
20
-52.1466840000000005
11
147.0999999999999943
21
-52.2249999999999943
0
LINE
8
BLACK
6
CONTINUOUS
10
147.0999999999999943
20
-52.2249999999999943
11
147.0999999999999943
21
-52.7749999999999986
0
LINE
8
BLACK
6
CONTINUOUS
10
147.0999999999999943
20
-52.7749999999999986
11
147.0948669999999936
21
-52.8533159999999995
0
LINE
8
BLACK
6
CONTINUOUS
10
147.0948669999999936
20
-52.8533159999999995
11
147.0543279999999982
21
-53.0046099999999996
0
LINE
8
BLACK
6
CONTINUOUS
10
147.0543279999999982
20
-53.0046099999999996
11
146.9760119999999972
21
-53.1402569999999983
0
LINE
8
BLACK
6
CONTINUOUS
10
146.9760119999999972
20
-53.1402569999999983
11
146.8652569999999855
21
-53.2510119999999958
0
LINE
8
BLACK
6
CONTINUOUS
10
146.8652569999999855
20
-53.2510119999999958
11
146.7296099999999797
21
-53.3293279999999967
0
LINE
8
BLACK
6
CONTINUOUS
10
146.7296099999999797
20
-53.3293279999999967
11
146.5783160000000009
21
-53.3698669999999993
0
LINE
8
BLACK
6
CONTINUOUS
10
146.5783160000000009
20
-53.3698669999999993
11
146.4216839999999991
21
-53.3698669999999993
0
LINE
8
BLACK
6
CONTINUOUS
10
146.4216839999999991
20
-53.3698669999999993
11
146.2703899999999919
21
-53.3293279999999967
0
LINE
8
BLACK
6
CONTINUOUS
10
146.2703899999999919
20
-53.3293279999999967
11
146.1347429999999861
21
-53.2510119999999958
0
LINE
8
BLACK
6
CONTINUOUS
10
146.1347429999999861
20
-53.2510119999999958
11
146.0239880000000028
21
-53.1402569999999983
0
LINE
8
BLACK
6
CONTINUOUS
10
146.0239880000000028
20
-53.1402569999999983
11
145.9456720000000018
21
-53.0046099999999996
0
LINE
8
BLACK
6
CONTINUOUS
10
145.9456720000000018
20
-53.0046099999999996
11
145.9051330000000064
21
-52.8533159999999995
0
LINE
8
BLACK
6
CONTINUOUS
10
145.9051330000000064
20
-52.8533159999999995
11
145.9000000000000057
21
-52.7749999999999986
0
LINE
8
BLACK
6
CONTINUOUS
10
145.9000000000000057
20
-52.7749999999999986
11
145.9000000000000057
21
-52.2249999999999943
0
LINE
8
BLACK
6
CONTINUOUS
10
145.9000000000000057
20
-52.2249999999999943
11
145.9051330000000064
21
-52.1466840000000005
0
LINE
8
BLACK
6
CONTINUOUS
10
145.9051330000000064
20
-52.1466840000000005
11
145.9456720000000018
21
-51.9953900000000004
0
LINE
8
BLACK
6
CONTINUOUS
10
145.9456720000000018
20
-51.9953900000000004
11
146.0239880000000028
21
-51.8597429999999946
0
LINE
8
BLACK
6
CONTINUOUS
10
146.0239880000000028
20
-51.8597429999999946
11
146.1347429999999861
21
-51.7489879999999971
0
LINE
8
BLACK
6
CONTINUOUS
10
146.1347429999999861
20
-51.7489879999999971
11
146.2703899999999919
21
-51.6706719999999962
0
LINE
8
BLACK
6
CONTINUOUS
10
146.2703899999999919
20
-51.6706719999999962
11
146.4216839999999991
21
-51.6301330000000007
0
LINE
8
BLACK
6
CONTINUOUS
10
146.4216839999999991
20
-51.6301330000000007
11
146.5783160000000009
21
-51.6301330000000007
0
LINE
8
BLACK
6
CONTINUOUS
10
146.5783160000000009
20
-51.6301330000000007
11
146.7296099999999797
21
-51.6706719999999962
0
LINE
8
BLACK
6
CONTINUOUS
10
150.7296099999999797
20
-51.6706719999999962
11
150.8652569999999855
21
-51.7489879999999971
0
LINE
8
BLACK
6
CONTINUOUS
10
150.8652569999999855
20
-51.7489879999999971
11
150.9760119999999972
21
-51.8597429999999946
0
LINE
8
BLACK
6
CONTINUOUS
10
150.9760119999999972
20
-51.8597429999999946
11
151.0543279999999982
21
-51.9953900000000004
0
LINE
8
BLACK
6
CONTINUOUS
10
151.0543279999999982
20
-51.9953900000000004
11
151.0948669999999936
21
-52.1466840000000005
0
LINE
8
BLACK
6
CONTINUOUS
10
151.0948669999999936
20
-52.1466840000000005
11
151.0999999999999943
21
-52.2249999999999943
0
LINE
8
BLACK
6
CONTINUOUS
10
151.0999999999999943
20
-52.2249999999999943
11
151.0999999999999943
21
-52.7749999999999986
0
LINE
8
BLACK
6
CONTINUOUS
10
151.0999999999999943
20
-52.7749999999999986
11
151.0948669999999936
21
-52.8533159999999995
0
LINE
8
BLACK
6
CONTINUOUS
10
151.0948669999999936
20
-52.8533159999999995
11
151.0543279999999982
21
-53.0046099999999996
0
LINE
8
BLACK
6
CONTINUOUS
10
151.0543279999999982
20
-53.0046099999999996
11
150.9760119999999972
21
-53.1402569999999983
0
LINE
8
BLACK
6
CONTINUOUS
10
150.9760119999999972
20
-53.1402569999999983
11
150.8652569999999855
21
-53.2510119999999958
0
LINE
8
BLACK
6
CONTINUOUS
10
150.8652569999999855
20
-53.2510119999999958
11
150.7296099999999797
21
-53.3293279999999967
0
LINE
8
BLACK
6
CONTINUOUS
10
150.7296099999999797
20
-53.3293279999999967
11
150.5783160000000009
21
-53.3698669999999993
0
LINE
8
BLACK
6
CONTINUOUS
10
150.5783160000000009
20
-53.3698669999999993
11
150.4216839999999991
21
-53.3698669999999993
0
LINE
8
BLACK
6
CONTINUOUS
10
150.4216839999999991
20
-53.3698669999999993
11
150.2703899999999919
21
-53.3293279999999967
0
LINE
8
BLACK
6
CONTINUOUS
10
150.2703899999999919
20
-53.3293279999999967
11
150.1347429999999861
21
-53.2510119999999958
0
LINE
8
BLACK
6
CONTINUOUS
10
150.1347429999999861
20
-53.2510119999999958
11
150.0239880000000028
21
-53.1402569999999983
0
LINE
8
BLACK
6
CONTINUOUS
10
150.0239880000000028
20
-53.1402569999999983
11
149.9456720000000018
21
-53.0046099999999996
0
LINE
8
BLACK
6
CONTINUOUS
10
149.9456720000000018
20
-53.0046099999999996
11
149.9051330000000064
21
-52.8533159999999995
0
LINE
8
BLACK
6
CONTINUOUS
10
149.9051330000000064
20
-52.8533159999999995
11
149.9000000000000057
21
-52.7749999999999986
0
LINE
8
BLACK
6
CONTINUOUS
10
149.9000000000000057
20
-52.7749999999999986
11
149.9000000000000057
21
-52.2249999999999943
0
LINE
8
BLACK
6
CONTINUOUS
10
149.9000000000000057
20
-52.2249999999999943
11
149.9051330000000064
21
-52.1466840000000005
0
LINE
8
BLACK
6
CONTINUOUS
10
149.9051330000000064
20
-52.1466840000000005
11
149.9456720000000018
21
-51.9953900000000004
0
LINE
8
BLACK
6
CONTINUOUS
10
149.9456720000000018
20
-51.9953900000000004
11
150.0239880000000028
21
-51.8597429999999946
0
LINE
8
BLACK
6
CONTINUOUS
10
150.0239880000000028
20
-51.8597429999999946
11
150.1347429999999861
21
-51.7489879999999971
0
LINE
8
BLACK
6
CONTINUOUS
10
150.1347429999999861
20
-51.7489879999999971
11
150.2703899999999919
21
-51.6706719999999962
0
LINE
8
BLACK
6
CONTINUOUS
10
150.2703899999999919
20
-51.6706719999999962
11
150.4216839999999991
21
-51.6301330000000007
0
LINE
8
BLACK
6
CONTINUOUS
10
150.4216839999999991
20
-51.6301330000000007
11
150.5783160000000009
21
-51.6301330000000007
0
LINE
8
BLACK
6
CONTINUOUS
10
150.5783160000000009
20
-51.6301330000000007
11
150.7296099999999797
21
-51.6706719999999962
0
LINE
8
BLACK
6
CONTINUOUS
10
152.7296099999999797
20
-51.6706719999999962
11
152.8652569999999855
21
-51.7489879999999971
0
LINE
8
BLACK
6
CONTINUOUS
10
152.8652569999999855
20
-51.7489879999999971
11
152.9760119999999972
21
-51.8597429999999946
0
LINE
8
BLACK
6
CONTINUOUS
10
152.9760119999999972
20
-51.8597429999999946
11
153.0543279999999982
21
-51.9953900000000004
0
LINE
8
BLACK
6
CONTINUOUS
10
153.0543279999999982
20
-51.9953900000000004
11
153.0948669999999936
21
-52.1466840000000005
0
LINE
8
BLACK
6
CONTINUOUS
10
153.0948669999999936
20
-52.1466840000000005
11
153.0999999999999943
21
-52.2249999999999943
0
LINE
8
BLACK
6
CONTINUOUS
10
153.0999999999999943
20
-52.2249999999999943
11
153.0999999999999943
21
-52.7749999999999986
0
LINE
8
BLACK
6
CONTINUOUS
10
153.0999999999999943
20
-52.7749999999999986
11
153.0948669999999936
21
-52.8533159999999995
0
LINE
8
BLACK
6
CONTINUOUS
10
153.0948669999999936
20
-52.8533159999999995
11
153.0543279999999982
21
-53.0046099999999996
0
LINE
8
BLACK
6
CONTINUOUS
10
153.0543279999999982
20
-53.0046099999999996
11
152.9760119999999972
21
-53.1402569999999983
0
LINE
8
BLACK
6
CONTINUOUS
10
152.9760119999999972
20
-53.1402569999999983
11
152.8652569999999855
21
-53.2510119999999958
0
LINE
8
BLACK
6
CONTINUOUS
10
152.8652569999999855
20
-53.2510119999999958
11
152.7296099999999797
21
-53.3293279999999967
0
LINE
8
BLACK
6
CONTINUOUS
10
152.7296099999999797
20
-53.3293279999999967
11
152.5783160000000009
21
-53.3698669999999993
0
LINE
8
BLACK
6
CONTINUOUS
10
152.5783160000000009
20
-53.3698669999999993
11
152.4216839999999991
21
-53.3698669999999993
0
LINE
8
BLACK
6
CONTINUOUS
10
152.4216839999999991
20
-53.3698669999999993
11
152.2703899999999919
21
-53.3293279999999967
0
LINE
8
BLACK
6
CONTINUOUS
10
152.2703899999999919
20
-53.3293279999999967
11
152.1347429999999861
21
-53.2510119999999958
0
LINE
8
BLACK
6
CONTINUOUS
10
152.1347429999999861
20
-53.2510119999999958
11
152.0239880000000028
21
-53.1402569999999983
0
LINE
8
BLACK
6
CONTINUOUS
10
152.0239880000000028
20
-53.1402569999999983
11
151.9456720000000018
21
-53.0046099999999996
0
LINE
8
BLACK
6
CONTINUOUS
10
151.9456720000000018
20
-53.0046099999999996
11
151.9051330000000064
21
-52.8533159999999995
0
LINE
8
BLACK
6
CONTINUOUS
10
151.9051330000000064
20
-52.8533159999999995
11
151.9000000000000057
21
-52.7749999999999986
0
LINE
8
BLACK
6
CONTINUOUS
10
151.9000000000000057
20
-52.7749999999999986
11
151.9000000000000057
21
-52.2249999999999943
0
LINE
8
BLACK
6
CONTINUOUS
10
151.9000000000000057
20
-52.2249999999999943
11
151.9051330000000064
21
-52.1466840000000005
0
LINE
8
BLACK
6
CONTINUOUS
10
151.9051330000000064
20
-52.1466840000000005
11
151.9456720000000018
21
-51.9953900000000004
0
LINE
8
BLACK
6
CONTINUOUS
10
151.9456720000000018
20
-51.9953900000000004
11
152.0239880000000028
21
-51.8597429999999946
0
LINE
8
BLACK
6
CONTINUOUS
10
152.0239880000000028
20
-51.8597429999999946
11
152.1347429999999861
21
-51.7489879999999971
0
LINE
8
BLACK
6
CONTINUOUS
10
152.1347429999999861
20
-51.7489879999999971
11
152.2703899999999919
21
-51.6706719999999962
0
LINE
8
BLACK
6
CONTINUOUS
10
152.2703899999999919
20
-51.6706719999999962
11
152.4216839999999991
21
-51.6301330000000007
0
LINE
8
BLACK
6
CONTINUOUS
10
152.4216839999999991
20
-51.6301330000000007
11
152.5783160000000009
21
-51.6301330000000007
0
LINE
8
BLACK
6
CONTINUOUS
10
152.5783160000000009
20
-51.6301330000000007
11
152.7296099999999797
21
-51.6706719999999962
0
LINE
8
BLACK
6
CONTINUOUS
10
151.8456709999999816
20
-48.7440299999999951
11
151.9267769999999871
21
-48.7982230000000001
0
LINE
8
BLACK
6
CONTINUOUS
10
151.9267769999999871
20
-48.7982230000000001
11
151.980969999999985
21
-48.8793289999999985
0
LINE
8
BLACK
6
CONTINUOUS
10
151.980969999999985
20
-48.8793289999999985
11
152.
21
-48.9749999999999943
0
LINE
8
BLACK
6
CONTINUOUS
10
152.
20
-48.9749999999999943
11
152.
21
-50.2249999999999943
0
LINE
8
BLACK
6
CONTINUOUS
10
152.
20
-50.2249999999999943
11
151.980969999999985
21
-50.3206709999999973
0
LINE
8
BLACK
6
CONTINUOUS
10
151.980969999999985
20
-50.3206709999999973
11
151.9267769999999871
21
-50.4017769999999956
0
LINE
8
BLACK
6
CONTINUOUS
10
151.9267769999999871
20
-50.4017769999999956
11
151.8456709999999816
21
-50.4559700000000007
0
LINE
8
BLACK
6
CONTINUOUS
10
151.8456709999999816
20
-50.4559700000000007
11
151.75
21
-50.4749999999999943
0
LINE
8
BLACK
6
CONTINUOUS
10
151.75
20
-50.4749999999999943
11
151.0499999999999829
21
-50.4749999999999943
0
LINE
8
BLACK
6
CONTINUOUS
10
151.0499999999999829
20
-50.4749999999999943
11
150.9543290000000013
21
-50.4559700000000007
0
LINE
8
BLACK
6
CONTINUOUS
10
150.9543290000000013
20
-50.4559700000000007
11
150.8732229999999959
21
-50.4017769999999956
0
LINE
8
BLACK
6
CONTINUOUS
10
150.8732229999999959
20
-50.4017769999999956
11
150.8190299999999979
21
-50.3206709999999973
0
LINE
8
BLACK
6
CONTINUOUS
10
150.8190299999999979
20
-50.3206709999999973
11
150.7999999999999829
21
-50.2249999999999943
0
LINE
8
BLACK
6
CONTINUOUS
10
150.7999999999999829
20
-50.2249999999999943
11
150.7999999999999829
21
-48.9749999999999943
0
LINE
8
BLACK
6
CONTINUOUS
10
150.7999999999999829
20
-48.9749999999999943
11
150.8190299999999979
21
-48.8793289999999985
0
LINE
8
BLACK
6
CONTINUOUS
10
150.8190299999999979
20
-48.8793289999999985
11
150.8732229999999959
21
-48.7982230000000001
0
LINE
8
BLACK
6
CONTINUOUS
10
150.8732229999999959
20
-48.7982230000000001
11
150.9543290000000013
21
-48.7440299999999951
0
LINE
8
BLACK
6
CONTINUOUS
10
150.9543290000000013
20
-48.7440299999999951
11
151.0499999999999829
21
-48.7249999999999943
0
LINE
8
BLACK
6
CONTINUOUS
10
151.0499999999999829
20
-48.7249999999999943
11
151.75
21
-48.7249999999999943
0
LINE
8
BLACK
6
CONTINUOUS
10
151.75
20
-48.7249999999999943
11
151.8456709999999816
21
-48.7440299999999951
0
LINE
8
BLACK
6
CONTINUOUS
10
149.6296099999999853
20
-48.7706719999999976
11
149.7652569999999912
21
-48.8489879999999985
0
LINE
8
BLACK
6
CONTINUOUS
10
149.7652569999999912
20
-48.8489879999999985
11
149.8760120000000029
21
-48.959742999999996
0
LINE
8
BLACK
6
CONTINUOUS
10
149.8760120000000029
20
-48.959742999999996
11
149.9543280000000038
21
-49.0953899999999948
0
LINE
8
BLACK
6
CONTINUOUS
10
149.9543280000000038
20
-49.0953899999999948
11
149.9948669999999993
21
-49.2466839999999948
0
LINE
8
BLACK
6
CONTINUOUS
10
149.9948669999999993
20
-49.2466839999999948
11
150.
21
-49.3249999999999957
0
LINE
8
BLACK
6
CONTINUOUS
10
150.
20
-49.3249999999999957
11
150.
21
-49.875
0
LINE
8
BLACK
6
CONTINUOUS
10
150.
20
-49.875
11
149.9948669999999993
21
-49.9533160000000009
0
LINE
8
BLACK
6
CONTINUOUS
10
149.9948669999999993
20
-49.9533160000000009
11
149.9543280000000038
21
-50.104610000000001
0
LINE
8
BLACK
6
CONTINUOUS
10
149.9543280000000038
20
-50.104610000000001
11
149.8760120000000029
21
-50.2402569999999997
0
LINE
8
BLACK
6
CONTINUOUS
10
149.8760120000000029
20
-50.2402569999999997
11
149.7652569999999912
21
-50.3510119999999972
0
LINE
8
BLACK
6
CONTINUOUS
10
149.7652569999999912
20
-50.3510119999999972
11
149.6296099999999853
21
-50.4293279999999982
0
LINE
8
BLACK
6
CONTINUOUS
10
149.6296099999999853
20
-50.4293279999999982
11
149.4783160000000066
21
-50.4698670000000007
0
LINE
8
BLACK
6
CONTINUOUS
10
149.4783160000000066
20
-50.4698670000000007
11
149.3216840000000047
21
-50.4698670000000007
0
LINE
8
BLACK
6
CONTINUOUS
10
149.3216840000000047
20
-50.4698670000000007
11
149.1703899999999976
21
-50.4293279999999982
0
LINE
8
BLACK
6
CONTINUOUS
10
149.1703899999999976
20
-50.4293279999999982
11
149.0347429999999918
21
-50.3510119999999972
0
LINE
8
BLACK
6
CONTINUOUS
10
149.0347429999999918
20
-50.3510119999999972
11
148.92398799999998
21
-50.2402569999999997
0
LINE
8
BLACK
6
CONTINUOUS
10
148.92398799999998
20
-50.2402569999999997
11
148.8456719999999791
21
-50.104610000000001
0
LINE
8
BLACK
6
CONTINUOUS
10
148.8456719999999791
20
-50.104610000000001
11
148.8051329999999837
21
-49.9533160000000009
0
LINE
8
BLACK
6
CONTINUOUS
10
148.8051329999999837
20
-49.9533160000000009
11
148.7999999999999829
21
-49.875
0
LINE
8
BLACK
6
CONTINUOUS
10
148.7999999999999829
20
-49.875
11
148.7999999999999829
21
-49.3249999999999957
0
LINE
8
BLACK
6
CONTINUOUS
10
148.7999999999999829
20
-49.3249999999999957
11
148.8051329999999837
21
-49.2466839999999948
0
LINE
8
BLACK
6
CONTINUOUS
10
148.8051329999999837
20
-49.2466839999999948
11
148.8456719999999791
21
-49.0953899999999948
0
LINE
8
BLACK
6
CONTINUOUS
10
148.8456719999999791
20
-49.0953899999999948
11
148.92398799999998
21
-48.959742999999996
0
LINE
8
BLACK
6
CONTINUOUS
10
148.92398799999998
20
-48.959742999999996
11
149.0347429999999918
21
-48.8489879999999985
0
LINE
8
BLACK
6
CONTINUOUS
10
149.0347429999999918
20
-48.8489879999999985
11
149.1703899999999976
21
-48.7706719999999976
0
LINE
8
BLACK
6
CONTINUOUS
10
149.1703899999999976
20
-48.7706719999999976
11
149.3216840000000047
21
-48.730132999999995
0
LINE
8
BLACK
6
CONTINUOUS
10
149.3216840000000047
20
-48.730132999999995
11
149.4783160000000066
21
-48.730132999999995
0
LINE
8
BLACK
6
CONTINUOUS
10
149.4783160000000066
20
-48.730132999999995
11
149.6296099999999853
21
-48.7706719999999976
0
LINE
8
BLACK
6
CONTINUOUS
10
156.4556379999999933
20
-40.4769030000000001
11
156.4691679999999963
21
-40.4904329999999959
0
LINE
8
BLACK
6
CONTINUOUS
10
156.4691679999999963
20
-40.4904329999999959
11
156.4710709999999949
21
-40.5
0
LINE
8
BLACK
6
CONTINUOUS
10
156.4710709999999949
20
-40.5
11
156.4710709999999949
21
-78.7999999999999972
0
LINE
8
BLACK
6
CONTINUOUS
10
156.4710709999999949
20
-78.7999999999999972
11
156.4691679999999963
21
-78.8095670000000013
0
LINE
8
BLACK
6
CONTINUOUS
10
156.4691679999999963
20
-78.8095670000000013
11
156.4556379999999933
21
-78.82309699999999
0
LINE
8
BLACK
6
CONTINUOUS
10
156.4556379999999933
20
-78.82309699999999
11
156.4460709999999892
21
-78.8250000000000028
0
LINE
8
BLACK
6
CONTINUOUS
10
156.4460709999999892
20
-78.8250000000000028
11
144.7999999999999829
21
-78.8250000000000028
0
LINE
8
BLACK
6
CONTINUOUS
10
144.7999999999999829
20
-78.8250000000000028
11
144.7904330000000073
21
-78.82309699999999
0
LINE
8
BLACK
6
CONTINUOUS
10
144.7904330000000073
20
-78.82309699999999
11
144.7769030000000043
21
-78.8095670000000013
0
LINE
8
BLACK
6
CONTINUOUS
10
144.7769030000000043
20
-78.8095670000000013
11
144.7750000000000057
21
-78.7999999999999972
0
LINE
8
BLACK
6
CONTINUOUS
10
144.7750000000000057
20
-78.7999999999999972
11
144.7750000000000057
21
-40.5
0
LINE
8
BLACK
6
CONTINUOUS
10
144.7750000000000057
20
-40.5
11
144.7769030000000043
21
-40.4904329999999959
0
LINE
8
BLACK
6
CONTINUOUS
10
144.7769030000000043
20
-40.4904329999999959
11
144.7904330000000073
21
-40.4769030000000001
0
LINE
8
BLACK
6
CONTINUOUS
10
144.7904330000000073
20
-40.4769030000000001
11
144.7999999999999829
21
-40.4750000000000014
0
LINE
8
BLACK
6
CONTINUOUS
10
144.7999999999999829
20
-40.4750000000000014
11
156.4460709999999892
21
-40.4750000000000014
0
LINE
8
BLACK
6
CONTINUOUS
10
156.4460709999999892
20
-40.4750000000000014
11
156.4556379999999933
21
-40.4769030000000001
0
LINE
8
BLACK
6
CONTINUOUS
10
144.8249999999999886
20
-40.5249999999999986
11
144.8249999999999886
21
-78.7749999999999915
0
LINE
8
BLACK
6
CONTINUOUS
10
144.8249999999999886
20
-78.7749999999999915
11
156.4210709999999835
21
-78.7749999999999915
0
LINE
8
BLACK
6
CONTINUOUS
10
156.4210709999999835
20
-78.7749999999999915
11
156.4210709999999835
21
-40.5249999999999986
0
LINE
8
BLACK
6
CONTINUOUS
10
156.4210709999999835
20
-40.5249999999999986
11
144.8249999999999886
21
-40.5249999999999986
0
CIRCLE
8
BLACK
10
152.7999999999999829
20
-66.
40
0.375
0
CIRCLE
8
BLACK
10
150.7999999999999829
20
-66.
40
0.375
0
CIRCLE
8
BLACK
10
148.7999999999999829
20
-66.
40
0.375
0
CIRCLE
8
BLACK
10
148.7999999999999829
20
-68.3999999999999915
40
0.375
0
CIRCLE
8
BLACK
10
150.7999999999999829
20
-68.3999999999999915
40
0.375
0
CIRCLE
8
BLACK
10
152.7999999999999829
20
-68.3999999999999915
40
0.375
0
CIRCLE
8
BLACK
10
146.5
20
-52.5
40
0.375
0
CIRCLE
8
BLACK
10
148.5
20
-52.5
40
0.375
0
CIRCLE
8
BLACK
10
150.5
20
-52.5
40
0.375
0
CIRCLE
8
BLACK
10
152.5
20
-52.5
40
0.375
0
CIRCLE
8
BLACK
10
154.5
20
-52.5
40
0.375
0
CIRCLE
8
BLACK
10
152.5
20
-52.5
40
0.375
0
CIRCLE
8
BLACK
10
150.5
20
-52.5
40
0.375
0
CIRCLE
8
BLACK
10
148.5
20
-52.5
40
0.375
0
CIRCLE
8
BLACK
10
151.4000000000000057
20
-49.5999999999999943
40
0.375
0
CIRCLE
8
BLACK
10
149.4000000000000057
20
-49.5999999999999943
40
0.375
0
CIRCLE
8
BLACK
10
147.1200000000000045
20
-55.3999999999999986
40
0.4
0
CIRCLE
8
BLACK
10
149.6599999999999966
20
-55.3999999999999986
40
0.4
0
CIRCLE
8
BLACK
10
152.1999999999999886
20
-55.3999999999999986
40
0.4
0
CIRCLE
8
BLACK
10
154.7399999999999807
20
-55.3999999999999986
40
0.4
0
CIRCLE
8
BLACK
10
154.7399999999999807
20
-63.019999999999996
40
0.4
0
CIRCLE
8
BLACK
10
152.1999999999999886
20
-63.019999999999996
40
0.4
0
CIRCLE
8
BLACK
10
149.6599999999999966
20
-63.019999999999996
40
0.4
0
CIRCLE
8
BLACK
10
147.1200000000000045
20
-63.019999999999996
40
0.4
0
CIRCLE
8
WHITE
10
152.7999999999999829
20
-66.
40
0.375
0
CIRCLE
8
WHITE
10
150.7999999999999829
20
-66.
40
0.375
0
CIRCLE
8
WHITE
10
148.7999999999999829
20
-66.
40
0.375
0
CIRCLE
8
WHITE
10
148.7999999999999829
20
-68.3999999999999915
40
0.375
0
CIRCLE
8
WHITE
10
150.7999999999999829
20
-68.3999999999999915
40
0.375
0
CIRCLE
8
WHITE
10
152.7999999999999829
20
-68.3999999999999915
40
0.375
0
CIRCLE
8
WHITE
10
146.5
20
-52.5
40
0.375
0
CIRCLE
8
WHITE
10
148.5
20
-52.5
40
0.375
0
CIRCLE
8
WHITE
10
150.5
20
-52.5
40
0.375
0
CIRCLE
8
WHITE
10
152.5
20
-52.5
40
0.375
0
CIRCLE
8
WHITE
10
154.5
20
-52.5
40
0.375
0
CIRCLE
8
WHITE
10
152.5
20
-52.5
40
0.375
0
CIRCLE
8
WHITE
10
150.5
20
-52.5
40
0.375
0
CIRCLE
8
WHITE
10
148.5
20
-52.5
40
0.375
0
CIRCLE
8
WHITE
10
151.4000000000000057
20
-49.5999999999999943
40
0.375
0
CIRCLE
8
WHITE
10
149.4000000000000057
20
-49.5999999999999943
40
0.375
0
CIRCLE
8
WHITE
10
147.1200000000000045
20
-55.3999999999999986
40
0.4
0
CIRCLE
8
WHITE
10
149.6599999999999966
20
-55.3999999999999986
40
0.4
0
CIRCLE
8
WHITE
10
152.1999999999999886
20
-55.3999999999999986
40
0.4
0
CIRCLE
8
WHITE
10
154.7399999999999807
20
-55.3999999999999986
40
0.4
0
CIRCLE
8
WHITE
10
154.7399999999999807
20
-63.019999999999996
40
0.4
0
CIRCLE
8
WHITE
10
152.1999999999999886
20
-63.019999999999996
40
0.4
0
CIRCLE
8
WHITE
10
149.6599999999999966
20
-63.019999999999996
40
0.4
0
CIRCLE
8
WHITE
10
147.1200000000000045
20
-63.019999999999996
40
0.4
  0
ENDSEC
  0
EOF
