  0
SECTION
  2
HEADER
  9
$ANGBASE
  50
0.0
  9
$ANGDIR
  70
1
  9
$MEASUREMENT
  70
1
  0
ENDSEC
  0
SECTION
  2
TABLES
  0
TABLE
  2
LTYPE
  70
4
  0
LTYPE
  5
40F
  2
CONTINUOUS
  70
0
  3
Solid line
  72
65
  73
0
  40
0.0
  0
LTYPE
  5
410
  2
DASHDOT
 70
0
  3
Dash Dot ____ _ ____ _
 72
65
 73
4
 40
2.0
 49
1.25
 49
-0.25
 49
0.25
 49
-0.25
  0
LTYPE
  5
411
  2
DASHED
 70
0
  3
Dashed __ __ __ __ __
 72
65
 73
2
 40
0.75
 49
0.5
 49
-0.25
  0
LTYPE
  5
43B
  2
DOTTED
 70
0
  3
Dotted .  .  .  .
 72
65
 73
2
 40
0.2
 49
0.0
 49
-0.2
  0
ENDTAB
  0
TABLE
  2
STYLE
  70
4
  0
STYLE
  2
KICAD
  70
0
  40
0
  41
1
  42
1
  50
0
  71
0
  3
isocp.shx
  0
STYLE
  2
KICADB
  70
0
  40
0
  41
1
  42
1
  50
0
  71
0
  3
isocp.shx
  0
STYLE
  2
KICADI
  70
0
  40
0
  41
1
  42
1
  50
15
  71
0
  3
isocp.shx
  0
STYLE
  2
KICADBI
  70
0
  40
0
  41
1
  42
1
  50
15
  71
0
  3
isocp.shx
  0
ENDTAB
  0
TABLE
  2
LAYER
  70
1
  0
LAYER
  2
BLACK
  70
0
  62
7
  6
CONTINUOUS
  0
ENDTAB
  0
ENDSEC
  0
SECTION
  2
ENTITIES
0
LINE
8
BLACK
6
CONTINUOUS
10
153.1956710000000044
20
-67.9107300000000009
11
153.2767769999999814
21
-67.9649229999999989
0
LINE
8
BLACK
6
CONTINUOUS
10
153.2767769999999814
20
-67.9649229999999989
11
153.3309699999999793
21
-68.0460289999999901
0
LINE
8
BLACK
6
CONTINUOUS
10
153.3309699999999793
20
-68.0460289999999901
11
153.3499999999999943
21
-68.1417000000000002
0
LINE
8
BLACK
6
CONTINUOUS
10
153.3499999999999943
20
-68.1417000000000002
11
153.3499999999999943
21
-69.3917000000000002
0
LINE
8
BLACK
6
CONTINUOUS
10
153.3499999999999943
20
-69.3917000000000002
11
153.3309699999999793
21
-69.487370999999996
0
LINE
8
BLACK
6
CONTINUOUS
10
153.3309699999999793
20
-69.487370999999996
11
153.2767769999999814
21
-69.5684770000000015
0
LINE
8
BLACK
6
CONTINUOUS
10
153.2767769999999814
20
-69.5684770000000015
11
153.1956710000000044
21
-69.6226699999999994
0
LINE
8
BLACK
6
CONTINUOUS
10
153.1956710000000044
20
-69.6226699999999994
11
153.0999999999999943
21
-69.6417000000000002
0
LINE
8
BLACK
6
CONTINUOUS
10
153.0999999999999943
20
-69.6417000000000002
11
152.4000000000000057
21
-69.6417000000000002
0
LINE
8
BLACK
6
CONTINUOUS
10
152.4000000000000057
20
-69.6417000000000002
11
152.3043289999999956
21
-69.6226699999999994
0
LINE
8
BLACK
6
CONTINUOUS
10
152.3043289999999956
20
-69.6226699999999994
11
152.2232229999999902
21
-69.5684770000000015
0
LINE
8
BLACK
6
CONTINUOUS
10
152.2232229999999902
20
-69.5684770000000015
11
152.1690299999999922
21
-69.487370999999996
0
LINE
8
BLACK
6
CONTINUOUS
10
152.1690299999999922
20
-69.487370999999996
11
152.1500000000000057
21
-69.3917000000000002
0
LINE
8
BLACK
6
CONTINUOUS
10
152.1500000000000057
20
-69.3917000000000002
11
152.1500000000000057
21
-68.1417000000000002
0
LINE
8
BLACK
6
CONTINUOUS
10
152.1500000000000057
20
-68.1417000000000002
11
152.1690299999999922
21
-68.0460289999999901
0
LINE
8
BLACK
6
CONTINUOUS
10
152.1690299999999922
20
-68.0460289999999901
11
152.2232229999999902
21
-67.9649229999999989
0
LINE
8
BLACK
6
CONTINUOUS
10
152.2232229999999902
20
-67.9649229999999989
11
152.3043289999999956
21
-67.9107300000000009
0
LINE
8
BLACK
6
CONTINUOUS
10
152.3043289999999956
20
-67.9107300000000009
11
152.4000000000000057
21
-67.8917000000000002
0
LINE
8
BLACK
6
CONTINUOUS
10
152.4000000000000057
20
-67.8917000000000002
11
153.0999999999999943
21
-67.8917000000000002
0
LINE
8
BLACK
6
CONTINUOUS
10
153.0999999999999943
20
-67.8917000000000002
11
153.1956710000000044
21
-67.9107300000000009
0
LINE
8
BLACK
6
CONTINUOUS
10
148.9796099999999797
20
-67.9373719999999963
11
149.1152569999999855
21
-68.0156879999999973
0
LINE
8
BLACK
6
CONTINUOUS
10
149.1152569999999855
20
-68.0156879999999973
11
149.2260119999999972
21
-68.1264429999999948
0
LINE
8
BLACK
6
CONTINUOUS
10
149.2260119999999972
20
-68.1264429999999948
11
149.3043279999999982
21
-68.2620900000000006
0
LINE
8
BLACK
6
CONTINUOUS
10
149.3043279999999982
20
-68.2620900000000006
11
149.3448669999999936
21
-68.4133839999999935
0
LINE
8
BLACK
6
CONTINUOUS
10
149.3448669999999936
20
-68.4133839999999935
11
149.3499999999999943
21
-68.4916999999999945
0
LINE
8
BLACK
6
CONTINUOUS
10
149.3499999999999943
20
-68.4916999999999945
11
149.3499999999999943
21
-69.0416999999999916
0
LINE
8
BLACK
6
CONTINUOUS
10
149.3499999999999943
20
-69.0416999999999916
11
149.3448669999999936
21
-69.1200159999999926
0
LINE
8
BLACK
6
CONTINUOUS
10
149.3448669999999936
20
-69.1200159999999926
11
149.3043279999999982
21
-69.2713099999999997
0
LINE
8
BLACK
6
CONTINUOUS
10
149.3043279999999982
20
-69.2713099999999997
11
149.2260119999999972
21
-69.4069569999999914
0
LINE
8
BLACK
6
CONTINUOUS
10
149.2260119999999972
20
-69.4069569999999914
11
149.1152569999999855
21
-69.5177120000000031
0
LINE
8
BLACK
6
CONTINUOUS
10
149.1152569999999855
20
-69.5177120000000031
11
148.9796099999999797
21
-69.5960279999999898
0
LINE
8
BLACK
6
CONTINUOUS
10
148.9796099999999797
20
-69.5960279999999898
11
148.8283160000000009
21
-69.6365669999999994
0
LINE
8
BLACK
6
CONTINUOUS
10
148.8283160000000009
20
-69.6365669999999994
11
148.6716839999999991
21
-69.6365669999999994
0
LINE
8
BLACK
6
CONTINUOUS
10
148.6716839999999991
20
-69.6365669999999994
11
148.5203899999999919
21
-69.5960279999999898
0
LINE
8
BLACK
6
CONTINUOUS
10
148.5203899999999919
20
-69.5960279999999898
11
148.3847429999999861
21
-69.5177120000000031
0
LINE
8
BLACK
6
CONTINUOUS
10
148.3847429999999861
20
-69.5177120000000031
11
148.2739880000000028
21
-69.4069569999999914
0
LINE
8
BLACK
6
CONTINUOUS
10
148.2739880000000028
20
-69.4069569999999914
11
148.1956720000000018
21
-69.2713099999999997
0
LINE
8
BLACK
6
CONTINUOUS
10
148.1956720000000018
20
-69.2713099999999997
11
148.1551330000000064
21
-69.1200159999999926
0
LINE
8
BLACK
6
CONTINUOUS
10
148.1551330000000064
20
-69.1200159999999926
11
148.1500000000000057
21
-69.0416999999999916
0
LINE
8
BLACK
6
CONTINUOUS
10
148.1500000000000057
20
-69.0416999999999916
11
148.1500000000000057
21
-68.4916999999999945
0
LINE
8
BLACK
6
CONTINUOUS
10
148.1500000000000057
20
-68.4916999999999945
11
148.1551330000000064
21
-68.4133839999999935
0
LINE
8
BLACK
6
CONTINUOUS
10
148.1551330000000064
20
-68.4133839999999935
11
148.1956720000000018
21
-68.2620900000000006
0
LINE
8
BLACK
6
CONTINUOUS
10
148.1956720000000018
20
-68.2620900000000006
11
148.2739880000000028
21
-68.1264429999999948
0
LINE
8
BLACK
6
CONTINUOUS
10
148.2739880000000028
20
-68.1264429999999948
11
148.3847429999999861
21
-68.0156879999999973
0
LINE
8
BLACK
6
CONTINUOUS
10
148.3847429999999861
20
-68.0156879999999973
11
148.5203899999999919
21
-67.9373719999999963
0
LINE
8
BLACK
6
CONTINUOUS
10
148.5203899999999919
20
-67.9373719999999963
11
148.6716839999999991
21
-67.8968330000000009
0
LINE
8
BLACK
6
CONTINUOUS
10
148.6716839999999991
20
-67.8968330000000009
11
148.8283160000000009
21
-67.8968330000000009
0
LINE
8
BLACK
6
CONTINUOUS
10
148.8283160000000009
20
-67.8968330000000009
11
148.9796099999999797
21
-67.9373719999999963
0
LINE
8
BLACK
6
CONTINUOUS
10
150.9796099999999797
20
-67.9373719999999963
11
151.1152569999999855
21
-68.0156879999999973
0
LINE
8
BLACK
6
CONTINUOUS
10
151.1152569999999855
20
-68.0156879999999973
11
151.2260119999999972
21
-68.1264429999999948
0
LINE
8
BLACK
6
CONTINUOUS
10
151.2260119999999972
20
-68.1264429999999948
11
151.3043279999999982
21
-68.2620900000000006
0
LINE
8
BLACK
6
CONTINUOUS
10
151.3043279999999982
20
-68.2620900000000006
11
151.3448669999999936
21
-68.4133839999999935
0
LINE
8
BLACK
6
CONTINUOUS
10
151.3448669999999936
20
-68.4133839999999935
11
151.3499999999999943
21
-68.4916999999999945
0
LINE
8
BLACK
6
CONTINUOUS
10
151.3499999999999943
20
-68.4916999999999945
11
151.3499999999999943
21
-69.0416999999999916
0
LINE
8
BLACK
6
CONTINUOUS
10
151.3499999999999943
20
-69.0416999999999916
11
151.3448669999999936
21
-69.1200159999999926
0
LINE
8
BLACK
6
CONTINUOUS
10
151.3448669999999936
20
-69.1200159999999926
11
151.3043279999999982
21
-69.2713099999999997
0
LINE
8
BLACK
6
CONTINUOUS
10
151.3043279999999982
20
-69.2713099999999997
11
151.2260119999999972
21
-69.4069569999999914
0
LINE
8
BLACK
6
CONTINUOUS
10
151.2260119999999972
20
-69.4069569999999914
11
151.1152569999999855
21
-69.5177120000000031
0
LINE
8
BLACK
6
CONTINUOUS
10
151.1152569999999855
20
-69.5177120000000031
11
150.9796099999999797
21
-69.5960279999999898
0
LINE
8
BLACK
6
CONTINUOUS
10
150.9796099999999797
20
-69.5960279999999898
11
150.8283160000000009
21
-69.6365669999999994
0
LINE
8
BLACK
6
CONTINUOUS
10
150.8283160000000009
20
-69.6365669999999994
11
150.6716839999999991
21
-69.6365669999999994
0
LINE
8
BLACK
6
CONTINUOUS
10
150.6716839999999991
20
-69.6365669999999994
11
150.5203899999999919
21
-69.5960279999999898
0
LINE
8
BLACK
6
CONTINUOUS
10
150.5203899999999919
20
-69.5960279999999898
11
150.3847429999999861
21
-69.5177120000000031
0
LINE
8
BLACK
6
CONTINUOUS
10
150.3847429999999861
20
-69.5177120000000031
11
150.2739880000000028
21
-69.4069569999999914
0
LINE
8
BLACK
6
CONTINUOUS
10
150.2739880000000028
20
-69.4069569999999914
11
150.1956720000000018
21
-69.2713099999999997
0
LINE
8
BLACK
6
CONTINUOUS
10
150.1956720000000018
20
-69.2713099999999997
11
150.1551330000000064
21
-69.1200159999999926
0
LINE
8
BLACK
6
CONTINUOUS
10
150.1551330000000064
20
-69.1200159999999926
11
150.1500000000000057
21
-69.0416999999999916
0
LINE
8
BLACK
6
CONTINUOUS
10
150.1500000000000057
20
-69.0416999999999916
11
150.1500000000000057
21
-68.4916999999999945
0
LINE
8
BLACK
6
CONTINUOUS
10
150.1500000000000057
20
-68.4916999999999945
11
150.1551330000000064
21
-68.4133839999999935
0
LINE
8
BLACK
6
CONTINUOUS
10
150.1551330000000064
20
-68.4133839999999935
11
150.1956720000000018
21
-68.2620900000000006
0
LINE
8
BLACK
6
CONTINUOUS
10
150.1956720000000018
20
-68.2620900000000006
11
150.2739880000000028
21
-68.1264429999999948
0
LINE
8
BLACK
6
CONTINUOUS
10
150.2739880000000028
20
-68.1264429999999948
11
150.3847429999999861
21
-68.0156879999999973
0
LINE
8
BLACK
6
CONTINUOUS
10
150.3847429999999861
20
-68.0156879999999973
11
150.5203899999999919
21
-67.9373719999999963
0
LINE
8
BLACK
6
CONTINUOUS
10
150.5203899999999919
20
-67.9373719999999963
11
150.6716839999999991
21
-67.8968330000000009
0
LINE
8
BLACK
6
CONTINUOUS
10
150.6716839999999991
20
-67.8968330000000009
11
150.8283160000000009
21
-67.8968330000000009
0
LINE
8
BLACK
6
CONTINUOUS
10
150.8283160000000009
20
-67.8968330000000009
11
150.9796099999999797
21
-67.9373719999999963
0
LINE
8
BLACK
6
CONTINUOUS
10
149.1956710000000044
20
-65.7440299999999951
11
149.2767769999999814
21
-65.798222999999993
0
LINE
8
BLACK
6
CONTINUOUS
10
149.2767769999999814
20
-65.798222999999993
11
149.3309699999999793
21
-65.8793289999999985
0
LINE
8
BLACK
6
CONTINUOUS
10
149.3309699999999793
20
-65.8793289999999985
11
149.3499999999999943
21
-65.9749999999999943
0
LINE
8
BLACK
6
CONTINUOUS
10
149.3499999999999943
20
-65.9749999999999943
11
149.3499999999999943
21
-67.2249999999999943
0
LINE
8
BLACK
6
CONTINUOUS
10
149.3499999999999943
20
-67.2249999999999943
11
149.3309699999999793
21
-67.3206709999999902
0
LINE
8
BLACK
6
CONTINUOUS
10
149.3309699999999793
20
-67.3206709999999902
11
149.2767769999999814
21
-67.4017769999999956
0
LINE
8
BLACK
6
CONTINUOUS
10
149.2767769999999814
20
-67.4017769999999956
11
149.1956710000000044
21
-67.4559699999999935
0
LINE
8
BLACK
6
CONTINUOUS
10
149.1956710000000044
20
-67.4559699999999935
11
149.0999999999999943
21
-67.4749999999999943
0
LINE
8
BLACK
6
CONTINUOUS
10
149.0999999999999943
20
-67.4749999999999943
11
148.4000000000000057
21
-67.4749999999999943
0
LINE
8
BLACK
6
CONTINUOUS
10
148.4000000000000057
20
-67.4749999999999943
11
148.3043289999999956
21
-67.4559699999999935
0
LINE
8
BLACK
6
CONTINUOUS
10
148.3043289999999956
20
-67.4559699999999935
11
148.2232229999999902
21
-67.4017769999999956
0
LINE
8
BLACK
6
CONTINUOUS
10
148.2232229999999902
20
-67.4017769999999956
11
148.1690299999999922
21
-67.3206709999999902
0
LINE
8
BLACK
6
CONTINUOUS
10
148.1690299999999922
20
-67.3206709999999902
11
148.1500000000000057
21
-67.2249999999999943
0
LINE
8
BLACK
6
CONTINUOUS
10
148.1500000000000057
20
-67.2249999999999943
11
148.1500000000000057
21
-65.9749999999999943
0
LINE
8
BLACK
6
CONTINUOUS
10
148.1500000000000057
20
-65.9749999999999943
11
148.1690299999999922
21
-65.8793289999999985
0
LINE
8
BLACK
6
CONTINUOUS
10
148.1690299999999922
20
-65.8793289999999985
11
148.2232229999999902
21
-65.798222999999993
0
LINE
8
BLACK
6
CONTINUOUS
10
148.2232229999999902
20
-65.798222999999993
11
148.3043289999999956
21
-65.7440299999999951
0
LINE
8
BLACK
6
CONTINUOUS
10
148.3043289999999956
20
-65.7440299999999951
11
148.4000000000000057
21
-65.7249999999999943
0
LINE
8
BLACK
6
CONTINUOUS
10
148.4000000000000057
20
-65.7249999999999943
11
149.0999999999999943
21
-65.7249999999999943
0
LINE
8
BLACK
6
CONTINUOUS
10
149.0999999999999943
20
-65.7249999999999943
11
149.1956710000000044
21
-65.7440299999999951
0
LINE
8
BLACK
6
CONTINUOUS
10
150.9796099999999797
20
-65.7706719999999905
11
151.1152569999999855
21
-65.8489879999999914
0
LINE
8
BLACK
6
CONTINUOUS
10
151.1152569999999855
20
-65.8489879999999914
11
151.2260119999999972
21
-65.9597430000000031
0
LINE
8
BLACK
6
CONTINUOUS
10
151.2260119999999972
20
-65.9597430000000031
11
151.3043279999999982
21
-66.0953899999999948
0
LINE
8
BLACK
6
CONTINUOUS
10
151.3043279999999982
20
-66.0953899999999948
11
151.3448669999999936
21
-66.2466840000000019
0
LINE
8
BLACK
6
CONTINUOUS
10
151.3448669999999936
20
-66.2466840000000019
11
151.3499999999999943
21
-66.3250000000000028
0
LINE
8
BLACK
6
CONTINUOUS
10
151.3499999999999943
20
-66.3250000000000028
11
151.3499999999999943
21
-66.875
0
LINE
8
BLACK
6
CONTINUOUS
10
151.3499999999999943
20
-66.875
11
151.3448669999999936
21
-66.9533160000000009
0
LINE
8
BLACK
6
CONTINUOUS
10
151.3448669999999936
20
-66.9533160000000009
11
151.3043279999999982
21
-67.1046099999999939
0
LINE
8
BLACK
6
CONTINUOUS
10
151.3043279999999982
20
-67.1046099999999939
11
151.2260119999999972
21
-67.2402569999999997
0
LINE
8
BLACK
6
CONTINUOUS
10
151.2260119999999972
20
-67.2402569999999997
11
151.1152569999999855
21
-67.3510119999999972
0
LINE
8
BLACK
6
CONTINUOUS
10
151.1152569999999855
20
-67.3510119999999972
11
150.9796099999999797
21
-67.4293279999999982
0
LINE
8
BLACK
6
CONTINUOUS
10
150.9796099999999797
20
-67.4293279999999982
11
150.8283160000000009
21
-67.4698669999999936
0
LINE
8
BLACK
6
CONTINUOUS
10
150.8283160000000009
20
-67.4698669999999936
11
150.6716839999999991
21
-67.4698669999999936
0
LINE
8
BLACK
6
CONTINUOUS
10
150.6716839999999991
20
-67.4698669999999936
11
150.5203899999999919
21
-67.4293279999999982
0
LINE
8
BLACK
6
CONTINUOUS
10
150.5203899999999919
20
-67.4293279999999982
11
150.3847429999999861
21
-67.3510119999999972
0
LINE
8
BLACK
6
CONTINUOUS
10
150.3847429999999861
20
-67.3510119999999972
11
150.2739880000000028
21
-67.2402569999999997
0
LINE
8
BLACK
6
CONTINUOUS
10
150.2739880000000028
20
-67.2402569999999997
11
150.1956720000000018
21
-67.1046099999999939
0
LINE
8
BLACK
6
CONTINUOUS
10
150.1956720000000018
20
-67.1046099999999939
11
150.1551330000000064
21
-66.9533160000000009
0
LINE
8
BLACK
6
CONTINUOUS
10
150.1551330000000064
20
-66.9533160000000009
11
150.1500000000000057
21
-66.875
0
LINE
8
BLACK
6
CONTINUOUS
10
150.1500000000000057
20
-66.875
11
150.1500000000000057
21
-66.3250000000000028
0
LINE
8
BLACK
6
CONTINUOUS
10
150.1500000000000057
20
-66.3250000000000028
11
150.1551330000000064
21
-66.2466840000000019
0
LINE
8
BLACK
6
CONTINUOUS
10
150.1551330000000064
20
-66.2466840000000019
11
150.1956720000000018
21
-66.0953899999999948
0
LINE
8
BLACK
6
CONTINUOUS
10
150.1956720000000018
20
-66.0953899999999948
11
150.2739880000000028
21
-65.9597430000000031
0
LINE
8
BLACK
6
CONTINUOUS
10
150.2739880000000028
20
-65.9597430000000031
11
150.3847429999999861
21
-65.8489879999999914
0
LINE
8
BLACK
6
CONTINUOUS
10
150.3847429999999861
20
-65.8489879999999914
11
150.5203899999999919
21
-65.7706719999999905
0
LINE
8
BLACK
6
CONTINUOUS
10
150.5203899999999919
20
-65.7706719999999905
11
150.6716839999999991
21
-65.730132999999995
0
LINE
8
BLACK
6
CONTINUOUS
10
150.6716839999999991
20
-65.730132999999995
11
150.8283160000000009
21
-65.730132999999995
0
LINE
8
BLACK
6
CONTINUOUS
10
150.8283160000000009
20
-65.730132999999995
11
150.9796099999999797
21
-65.7706719999999905
0
LINE
8
BLACK
6
CONTINUOUS
10
152.9796099999999797
20
-65.7706719999999905
11
153.1152569999999855
21
-65.8489879999999914
0
LINE
8
BLACK
6
CONTINUOUS
10
153.1152569999999855
20
-65.8489879999999914
11
153.2260119999999972
21
-65.9597430000000031
0
LINE
8
BLACK
6
CONTINUOUS
10
153.2260119999999972
20
-65.9597430000000031
11
153.3043279999999982
21
-66.0953899999999948
0
LINE
8
BLACK
6
CONTINUOUS
10
153.3043279999999982
20
-66.0953899999999948
11
153.3448669999999936
21
-66.2466840000000019
0
LINE
8
BLACK
6
CONTINUOUS
10
153.3448669999999936
20
-66.2466840000000019
11
153.3499999999999943
21
-66.3250000000000028
0
LINE
8
BLACK
6
CONTINUOUS
10
153.3499999999999943
20
-66.3250000000000028
11
153.3499999999999943
21
-66.875
0
LINE
8
BLACK
6
CONTINUOUS
10
153.3499999999999943
20
-66.875
11
153.3448669999999936
21
-66.9533160000000009
0
LINE
8
BLACK
6
CONTINUOUS
10
153.3448669999999936
20
-66.9533160000000009
11
153.3043279999999982
21
-67.1046099999999939
0
LINE
8
BLACK
6
CONTINUOUS
10
153.3043279999999982
20
-67.1046099999999939
11
153.2260119999999972
21
-67.2402569999999997
0
LINE
8
BLACK
6
CONTINUOUS
10
153.2260119999999972
20
-67.2402569999999997
11
153.1152569999999855
21
-67.3510119999999972
0
LINE
8
BLACK
6
CONTINUOUS
10
153.1152569999999855
20
-67.3510119999999972
11
152.9796099999999797
21
-67.4293279999999982
0
LINE
8
BLACK
6
CONTINUOUS
10
152.9796099999999797
20
-67.4293279999999982
11
152.8283160000000009
21
-67.4698669999999936
0
LINE
8
BLACK
6
CONTINUOUS
10
152.8283160000000009
20
-67.4698669999999936
11
152.6716839999999991
21
-67.4698669999999936
0
LINE
8
BLACK
6
CONTINUOUS
10
152.6716839999999991
20
-67.4698669999999936
11
152.5203899999999919
21
-67.4293279999999982
0
LINE
8
BLACK
6
CONTINUOUS
10
152.5203899999999919
20
-67.4293279999999982
11
152.3847429999999861
21
-67.3510119999999972
0
LINE
8
BLACK
6
CONTINUOUS
10
152.3847429999999861
20
-67.3510119999999972
11
152.2739880000000028
21
-67.2402569999999997
0
LINE
8
BLACK
6
CONTINUOUS
10
152.2739880000000028
20
-67.2402569999999997
11
152.1956720000000018
21
-67.1046099999999939
0
LINE
8
BLACK
6
CONTINUOUS
10
152.1956720000000018
20
-67.1046099999999939
11
152.1551330000000064
21
-66.9533160000000009
0
LINE
8
BLACK
6
CONTINUOUS
10
152.1551330000000064
20
-66.9533160000000009
11
152.1500000000000057
21
-66.875
0
LINE
8
BLACK
6
CONTINUOUS
10
152.1500000000000057
20
-66.875
11
152.1500000000000057
21
-66.3250000000000028
0
LINE
8
BLACK
6
CONTINUOUS
10
152.1500000000000057
20
-66.3250000000000028
11
152.1551330000000064
21
-66.2466840000000019
0
LINE
8
BLACK
6
CONTINUOUS
10
152.1551330000000064
20
-66.2466840000000019
11
152.1956720000000018
21
-66.0953899999999948
0
LINE
8
BLACK
6
CONTINUOUS
10
152.1956720000000018
20
-66.0953899999999948
11
152.2739880000000028
21
-65.9597430000000031
0
LINE
8
BLACK
6
CONTINUOUS
10
152.2739880000000028
20
-65.9597430000000031
11
152.3847429999999861
21
-65.8489879999999914
0
LINE
8
BLACK
6
CONTINUOUS
10
152.3847429999999861
20
-65.8489879999999914
11
152.5203899999999919
21
-65.7706719999999905
0
LINE
8
BLACK
6
CONTINUOUS
10
152.5203899999999919
20
-65.7706719999999905
11
152.6716839999999991
21
-65.730132999999995
0
LINE
8
BLACK
6
CONTINUOUS
10
152.6716839999999991
20
-65.730132999999995
11
152.8283160000000009
21
-65.730132999999995
0
LINE
8
BLACK
6
CONTINUOUS
10
152.8283160000000009
20
-65.730132999999995
11
152.9796099999999797
21
-65.7706719999999905
0
LINE
8
BLACK
6
CONTINUOUS
10
147.1922280000000001
20
-62.6749480000000005
11
147.3371170000000063
21
-62.7349630000000005
0
LINE
8
BLACK
6
CONTINUOUS
10
147.3371170000000063
20
-62.7349630000000005
11
147.4675149999999917
21
-62.8220919999999978
0
LINE
8
BLACK
6
CONTINUOUS
10
147.4675149999999917
20
-62.8220919999999978
11
147.578407999999996
21
-62.9329849999999951
0
LINE
8
BLACK
6
CONTINUOUS
10
147.578407999999996
20
-62.9329849999999951
11
147.6655370000000005
21
-63.0633829999999946
0
LINE
8
BLACK
6
CONTINUOUS
10
147.6655370000000005
20
-63.0633829999999946
11
147.7255519999999933
21
-63.2082719999999938
0
LINE
8
BLACK
6
CONTINUOUS
10
147.7255519999999933
20
-63.2082719999999938
11
147.756147999999996
21
-63.3620859999999979
0
LINE
8
BLACK
6
CONTINUOUS
10
147.756147999999996
20
-63.3620859999999979
11
147.756147999999996
21
-63.5189139999999952
0
LINE
8
BLACK
6
CONTINUOUS
10
147.756147999999996
20
-63.5189139999999952
11
147.7255519999999933
21
-63.6727279999999993
0
LINE
8
BLACK
6
CONTINUOUS
10
147.7255519999999933
20
-63.6727279999999993
11
147.6655370000000005
21
-63.8176169999999985
0
LINE
8
BLACK
6
CONTINUOUS
10
147.6655370000000005
20
-63.8176169999999985
11
147.578407999999996
21
-63.9480149999999981
0
LINE
8
BLACK
6
CONTINUOUS
10
147.578407999999996
20
-63.9480149999999981
11
147.4675149999999917
21
-64.0589080000000024
0
LINE
8
BLACK
6
CONTINUOUS
10
147.4675149999999917
20
-64.0589080000000024
11
147.3371170000000063
21
-64.1460369999999926
0
LINE
8
BLACK
6
CONTINUOUS
10
147.3371170000000063
20
-64.1460369999999926
11
147.1922280000000001
21
-64.2060519999999997
0
LINE
8
BLACK
6
CONTINUOUS
10
147.1922280000000001
20
-64.2060519999999997
11
147.0384139999999888
21
-64.2366480000000024
0
LINE
8
BLACK
6
CONTINUOUS
10
147.0384139999999888
20
-64.2366480000000024
11
146.8815859999999986
21
-64.2366480000000024
0
LINE
8
BLACK
6
CONTINUOUS
10
146.8815859999999986
20
-64.2366480000000024
11
146.7277719999999874
21
-64.2060519999999997
0
LINE
8
BLACK
6
CONTINUOUS
10
146.7277719999999874
20
-64.2060519999999997
11
146.5828829999999812
21
-64.1460369999999926
0
LINE
8
BLACK
6
CONTINUOUS
10
146.5828829999999812
20
-64.1460369999999926
11
146.4524849999999958
21
-64.0589080000000024
0
LINE
8
BLACK
6
CONTINUOUS
10
146.4524849999999958
20
-64.0589080000000024
11
146.3415919999999915
21
-63.9480149999999981
0
LINE
8
BLACK
6
CONTINUOUS
10
146.3415919999999915
20
-63.9480149999999981
11
146.254462999999987
21
-63.8176169999999985
0
LINE
8
BLACK
6
CONTINUOUS
10
146.254462999999987
20
-63.8176169999999985
11
146.1944479999999942
21
-63.6727279999999993
0
LINE
8
BLACK
6
CONTINUOUS
10
146.1944479999999942
20
-63.6727279999999993
11
146.1638519999999914
21
-63.5189139999999952
0
LINE
8
BLACK
6
CONTINUOUS
10
146.1638519999999914
20
-63.5189139999999952
11
146.1638519999999914
21
-63.3620859999999979
0
LINE
8
BLACK
6
CONTINUOUS
10
146.1638519999999914
20
-63.3620859999999979
11
146.1944479999999942
21
-63.2082719999999938
0
LINE
8
BLACK
6
CONTINUOUS
10
146.1944479999999942
20
-63.2082719999999938
11
146.254462999999987
21
-63.0633829999999946
0
LINE
8
BLACK
6
CONTINUOUS
10
146.254462999999987
20
-63.0633829999999946
11
146.3415919999999915
21
-62.9329849999999951
0
LINE
8
BLACK
6
CONTINUOUS
10
146.3415919999999915
20
-62.9329849999999951
11
146.4524849999999958
21
-62.8220919999999978
0
LINE
8
BLACK
6
CONTINUOUS
10
146.4524849999999958
20
-62.8220919999999978
11
146.5828829999999812
21
-62.7349630000000005
0
LINE
8
BLACK
6
CONTINUOUS
10
146.5828829999999812
20
-62.7349630000000005
11
146.7277719999999874
21
-62.6749480000000005
0
LINE
8
BLACK
6
CONTINUOUS
10
146.7277719999999874
20
-62.6749480000000005
11
146.8815859999999986
21
-62.6443519999999978
0
LINE
8
BLACK
6
CONTINUOUS
10
146.8815859999999986
20
-62.6443519999999978
11
147.0384139999999888
21
-62.6443519999999978
0
LINE
8
BLACK
6
CONTINUOUS
10
147.0384139999999888
20
-62.6443519999999978
11
147.1922280000000001
21
-62.6749480000000005
0
LINE
8
BLACK
6
CONTINUOUS
10
149.7322279999999921
20
-62.6749480000000005
11
149.8771169999999984
21
-62.7349630000000005
0
LINE
8
BLACK
6
CONTINUOUS
10
149.8771169999999984
20
-62.7349630000000005
11
150.0075149999999837
21
-62.8220919999999978
0
LINE
8
BLACK
6
CONTINUOUS
10
150.0075149999999837
20
-62.8220919999999978
11
150.1184079999999881
21
-62.9329849999999951
0
LINE
8
BLACK
6
CONTINUOUS
10
150.1184079999999881
20
-62.9329849999999951
11
150.2055369999999925
21
-63.0633829999999946
0
LINE
8
BLACK
6
CONTINUOUS
10
150.2055369999999925
20
-63.0633829999999946
11
150.2655519999999854
21
-63.2082719999999938
0
LINE
8
BLACK
6
CONTINUOUS
10
150.2655519999999854
20
-63.2082719999999938
11
150.2961479999999881
21
-63.3620859999999979
0
LINE
8
BLACK
6
CONTINUOUS
10
150.2961479999999881
20
-63.3620859999999979
11
150.2961479999999881
21
-63.5189139999999952
0
LINE
8
BLACK
6
CONTINUOUS
10
150.2961479999999881
20
-63.5189139999999952
11
150.2655519999999854
21
-63.6727279999999993
0
LINE
8
BLACK
6
CONTINUOUS
10
150.2655519999999854
20
-63.6727279999999993
11
150.2055369999999925
21
-63.8176169999999985
0
LINE
8
BLACK
6
CONTINUOUS
10
150.2055369999999925
20
-63.8176169999999985
11
150.1184079999999881
21
-63.9480149999999981
0
LINE
8
BLACK
6
CONTINUOUS
10
150.1184079999999881
20
-63.9480149999999981
11
150.0075149999999837
21
-64.0589080000000024
0
LINE
8
BLACK
6
CONTINUOUS
10
150.0075149999999837
20
-64.0589080000000024
11
149.8771169999999984
21
-64.1460369999999926
0
LINE
8
BLACK
6
CONTINUOUS
10
149.8771169999999984
20
-64.1460369999999926
11
149.7322279999999921
21
-64.2060519999999997
0
LINE
8
BLACK
6
CONTINUOUS
10
149.7322279999999921
20
-64.2060519999999997
11
149.5784139999999809
21
-64.2366480000000024
0
LINE
8
BLACK
6
CONTINUOUS
10
149.5784139999999809
20
-64.2366480000000024
11
149.4215859999999907
21
-64.2366480000000024
0
LINE
8
BLACK
6
CONTINUOUS
10
149.4215859999999907
20
-64.2366480000000024
11
149.2677719999999795
21
-64.2060519999999997
0
LINE
8
BLACK
6
CONTINUOUS
10
149.2677719999999795
20
-64.2060519999999997
11
149.1228830000000016
21
-64.1460369999999926
0
LINE
8
BLACK
6
CONTINUOUS
10
149.1228830000000016
20
-64.1460369999999926
11
148.9924849999999878
21
-64.0589080000000024
0
LINE
8
BLACK
6
CONTINUOUS
10
148.9924849999999878
20
-64.0589080000000024
11
148.8815919999999835
21
-63.9480149999999981
0
LINE
8
BLACK
6
CONTINUOUS
10
148.8815919999999835
20
-63.9480149999999981
11
148.7944630000000075
21
-63.8176169999999985
0
LINE
8
BLACK
6
CONTINUOUS
10
148.7944630000000075
20
-63.8176169999999985
11
148.7344479999999862
21
-63.6727279999999993
0
LINE
8
BLACK
6
CONTINUOUS
10
148.7344479999999862
20
-63.6727279999999993
11
148.7038519999999835
21
-63.5189139999999952
0
LINE
8
BLACK
6
CONTINUOUS
10
148.7038519999999835
20
-63.5189139999999952
11
148.7038519999999835
21
-63.3620859999999979
0
LINE
8
BLACK
6
CONTINUOUS
10
148.7038519999999835
20
-63.3620859999999979
11
148.7344479999999862
21
-63.2082719999999938
0
LINE
8
BLACK
6
CONTINUOUS
10
148.7344479999999862
20
-63.2082719999999938
11
148.7944630000000075
21
-63.0633829999999946
0
LINE
8
BLACK
6
CONTINUOUS
10
148.7944630000000075
20
-63.0633829999999946
11
148.8815919999999835
21
-62.9329849999999951
0
LINE
8
BLACK
6
CONTINUOUS
10
148.8815919999999835
20
-62.9329849999999951
11
148.9924849999999878
21
-62.8220919999999978
0
LINE
8
BLACK
6
CONTINUOUS
10
148.9924849999999878
20
-62.8220919999999978
11
149.1228830000000016
21
-62.7349630000000005
0
LINE
8
BLACK
6
CONTINUOUS
10
149.1228830000000016
20
-62.7349630000000005
11
149.2677719999999795
21
-62.6749480000000005
0
LINE
8
BLACK
6
CONTINUOUS
10
149.2677719999999795
20
-62.6749480000000005
11
149.4215859999999907
21
-62.6443519999999978
0
LINE
8
BLACK
6
CONTINUOUS
10
149.4215859999999907
20
-62.6443519999999978
11
149.5784139999999809
21
-62.6443519999999978
0
LINE
8
BLACK
6
CONTINUOUS
10
149.5784139999999809
20
-62.6443519999999978
11
149.7322279999999921
21
-62.6749480000000005
0
LINE
8
BLACK
6
CONTINUOUS
10
152.2722279999999841
20
-62.6749480000000005
11
152.4171169999999904
21
-62.7349630000000005
0
LINE
8
BLACK
6
CONTINUOUS
10
152.4171169999999904
20
-62.7349630000000005
11
152.5475150000000042
21
-62.8220919999999978
0
LINE
8
BLACK
6
CONTINUOUS
10
152.5475150000000042
20
-62.8220919999999978
11
152.6584079999999801
21
-62.9329849999999951
0
LINE
8
BLACK
6
CONTINUOUS
10
152.6584079999999801
20
-62.9329849999999951
11
152.7455369999999846
21
-63.0633829999999946
0
LINE
8
BLACK
6
CONTINUOUS
10
152.7455369999999846
20
-63.0633829999999946
11
152.8055520000000058
21
-63.2082719999999938
0
LINE
8
BLACK
6
CONTINUOUS
10
152.8055520000000058
20
-63.2082719999999938
11
152.8361479999999801
21
-63.3620859999999979
0
LINE
8
BLACK
6
CONTINUOUS
10
152.8361479999999801
20
-63.3620859999999979
11
152.8361479999999801
21
-63.5189139999999952
0
LINE
8
BLACK
6
CONTINUOUS
10
152.8361479999999801
20
-63.5189139999999952
11
152.8055520000000058
21
-63.6727279999999993
0
LINE
8
BLACK
6
CONTINUOUS
10
152.8055520000000058
20
-63.6727279999999993
11
152.7455369999999846
21
-63.8176169999999985
0
LINE
8
BLACK
6
CONTINUOUS
10
152.7455369999999846
20
-63.8176169999999985
11
152.6584079999999801
21
-63.9480149999999981
0
LINE
8
BLACK
6
CONTINUOUS
10
152.6584079999999801
20
-63.9480149999999981
11
152.5475150000000042
21
-64.0589080000000024
0
LINE
8
BLACK
6
CONTINUOUS
10
152.5475150000000042
20
-64.0589080000000024
11
152.4171169999999904
21
-64.1460369999999926
0
LINE
8
BLACK
6
CONTINUOUS
10
152.4171169999999904
20
-64.1460369999999926
11
152.2722279999999841
21
-64.2060519999999997
0
LINE
8
BLACK
6
CONTINUOUS
10
152.2722279999999841
20
-64.2060519999999997
11
152.1184140000000014
21
-64.2366480000000024
0
LINE
8
BLACK
6
CONTINUOUS
10
152.1184140000000014
20
-64.2366480000000024
11
151.9615859999999827
21
-64.2366480000000024
0
LINE
8
BLACK
6
CONTINUOUS
10
151.9615859999999827
20
-64.2366480000000024
11
151.8077719999999999
21
-64.2060519999999997
0
LINE
8
BLACK
6
CONTINUOUS
10
151.8077719999999999
20
-64.2060519999999997
11
151.6628829999999937
21
-64.1460369999999926
0
LINE
8
BLACK
6
CONTINUOUS
10
151.6628829999999937
20
-64.1460369999999926
11
151.5324849999999799
21
-64.0589080000000024
0
LINE
8
BLACK
6
CONTINUOUS
10
151.5324849999999799
20
-64.0589080000000024
11
151.421592000000004
21
-63.9480149999999981
0
LINE
8
BLACK
6
CONTINUOUS
10
151.421592000000004
20
-63.9480149999999981
11
151.3344629999999995
21
-63.8176169999999985
0
LINE
8
BLACK
6
CONTINUOUS
10
151.3344629999999995
20
-63.8176169999999985
11
151.2744480000000067
21
-63.6727279999999993
0
LINE
8
BLACK
6
CONTINUOUS
10
151.2744480000000067
20
-63.6727279999999993
11
151.243852000000004
21
-63.5189139999999952
0
LINE
8
BLACK
6
CONTINUOUS
10
151.243852000000004
20
-63.5189139999999952
11
151.243852000000004
21
-63.3620859999999979
0
LINE
8
BLACK
6
CONTINUOUS
10
151.243852000000004
20
-63.3620859999999979
11
151.2744480000000067
21
-63.2082719999999938
0
LINE
8
BLACK
6
CONTINUOUS
10
151.2744480000000067
20
-63.2082719999999938
11
151.3344629999999995
21
-63.0633829999999946
0
LINE
8
BLACK
6
CONTINUOUS
10
151.3344629999999995
20
-63.0633829999999946
11
151.421592000000004
21
-62.9329849999999951
0
LINE
8
BLACK
6
CONTINUOUS
10
151.421592000000004
20
-62.9329849999999951
11
151.5324849999999799
21
-62.8220919999999978
0
LINE
8
BLACK
6
CONTINUOUS
10
151.5324849999999799
20
-62.8220919999999978
11
151.6628829999999937
21
-62.7349630000000005
0
LINE
8
BLACK
6
CONTINUOUS
10
151.6628829999999937
20
-62.7349630000000005
11
151.8077719999999999
21
-62.6749480000000005
0
LINE
8
BLACK
6
CONTINUOUS
10
151.8077719999999999
20
-62.6749480000000005
11
151.9615859999999827
21
-62.6443519999999978
0
LINE
8
BLACK
6
CONTINUOUS
10
151.9615859999999827
20
-62.6443519999999978
11
152.1184140000000014
21
-62.6443519999999978
0
LINE
8
BLACK
6
CONTINUOUS
10
152.1184140000000014
20
-62.6443519999999978
11
152.2722279999999841
21
-62.6749480000000005
0
LINE
8
BLACK
6
CONTINUOUS
10
154.8122280000000046
20
-62.6749480000000005
11
154.9571169999999825
21
-62.7349630000000005
0
LINE
8
BLACK
6
CONTINUOUS
10
154.9571169999999825
20
-62.7349630000000005
11
155.0875149999999962
21
-62.8220919999999978
0
LINE
8
BLACK
6
CONTINUOUS
10
155.0875149999999962
20
-62.8220919999999978
11
155.1984080000000006
21
-62.9329849999999951
0
LINE
8
BLACK
6
CONTINUOUS
10
155.1984080000000006
20
-62.9329849999999951
11
155.285537000000005
21
-63.0633829999999946
0
LINE
8
BLACK
6
CONTINUOUS
10
155.285537000000005
20
-63.0633829999999946
11
155.3455519999999979
21
-63.2082719999999938
0
LINE
8
BLACK
6
CONTINUOUS
10
155.3455519999999979
20
-63.2082719999999938
11
155.3761480000000006
21
-63.3620859999999979
0
LINE
8
BLACK
6
CONTINUOUS
10
155.3761480000000006
20
-63.3620859999999979
11
155.3761480000000006
21
-63.5189139999999952
0
LINE
8
BLACK
6
CONTINUOUS
10
155.3761480000000006
20
-63.5189139999999952
11
155.3455519999999979
21
-63.6727279999999993
0
LINE
8
BLACK
6
CONTINUOUS
10
155.3455519999999979
20
-63.6727279999999993
11
155.285537000000005
21
-63.8176169999999985
0
LINE
8
BLACK
6
CONTINUOUS
10
155.285537000000005
20
-63.8176169999999985
11
155.1984080000000006
21
-63.9480149999999981
0
LINE
8
BLACK
6
CONTINUOUS
10
155.1984080000000006
20
-63.9480149999999981
11
155.0875149999999962
21
-64.0589080000000024
0
LINE
8
BLACK
6
CONTINUOUS
10
155.0875149999999962
20
-64.0589080000000024
11
154.9571169999999825
21
-64.1460369999999926
0
LINE
8
BLACK
6
CONTINUOUS
10
154.9571169999999825
20
-64.1460369999999926
11
154.8122280000000046
21
-64.2060519999999997
0
LINE
8
BLACK
6
CONTINUOUS
10
154.8122280000000046
20
-64.2060519999999997
11
154.6584139999999934
21
-64.2366480000000024
0
LINE
8
BLACK
6
CONTINUOUS
10
154.6584139999999934
20
-64.2366480000000024
11
154.5015860000000032
21
-64.2366480000000024
0
LINE
8
BLACK
6
CONTINUOUS
10
154.5015860000000032
20
-64.2366480000000024
11
154.347771999999992
21
-64.2060519999999997
0
LINE
8
BLACK
6
CONTINUOUS
10
154.347771999999992
20
-64.2060519999999997
11
154.2028829999999857
21
-64.1460369999999926
0
LINE
8
BLACK
6
CONTINUOUS
10
154.2028829999999857
20
-64.1460369999999926
11
154.0724850000000004
21
-64.0589080000000024
0
LINE
8
BLACK
6
CONTINUOUS
10
154.0724850000000004
20
-64.0589080000000024
11
153.961591999999996
21
-63.9480149999999981
0
LINE
8
BLACK
6
CONTINUOUS
10
153.961591999999996
20
-63.9480149999999981
11
153.8744629999999916
21
-63.8176169999999985
0
LINE
8
BLACK
6
CONTINUOUS
10
153.8744629999999916
20
-63.8176169999999985
11
153.8144479999999987
21
-63.6727279999999993
0
LINE
8
BLACK
6
CONTINUOUS
10
153.8144479999999987
20
-63.6727279999999993
11
153.783851999999996
21
-63.5189139999999952
0
LINE
8
BLACK
6
CONTINUOUS
10
153.783851999999996
20
-63.5189139999999952
11
153.783851999999996
21
-63.3620859999999979
0
LINE
8
BLACK
6
CONTINUOUS
10
153.783851999999996
20
-63.3620859999999979
11
153.8144479999999987
21
-63.2082719999999938
0
LINE
8
BLACK
6
CONTINUOUS
10
153.8144479999999987
20
-63.2082719999999938
11
153.8744629999999916
21
-63.0633829999999946
0
LINE
8
BLACK
6
CONTINUOUS
10
153.8744629999999916
20
-63.0633829999999946
11
153.961591999999996
21
-62.9329849999999951
0
LINE
8
BLACK
6
CONTINUOUS
10
153.961591999999996
20
-62.9329849999999951
11
154.0724850000000004
21
-62.8220919999999978
0
LINE
8
BLACK
6
CONTINUOUS
10
154.0724850000000004
20
-62.8220919999999978
11
154.2028829999999857
21
-62.7349630000000005
0
LINE
8
BLACK
6
CONTINUOUS
10
154.2028829999999857
20
-62.7349630000000005
11
154.347771999999992
21
-62.6749480000000005
0
LINE
8
BLACK
6
CONTINUOUS
10
154.347771999999992
20
-62.6749480000000005
11
154.5015860000000032
21
-62.6443519999999978
0
LINE
8
BLACK
6
CONTINUOUS
10
154.5015860000000032
20
-62.6443519999999978
11
154.6584139999999934
21
-62.6443519999999978
0
LINE
8
BLACK
6
CONTINUOUS
10
154.6584139999999934
20
-62.6443519999999978
11
154.8122280000000046
21
-62.6749480000000005
0
LINE
8
BLACK
6
CONTINUOUS
10
155.3799999999999955
20
-56.6204999999999998
11
153.7800000000000011
21
-56.6204999999999998
0
LINE
8
BLACK
6
CONTINUOUS
10
153.7800000000000011
20
-56.6204999999999998
11
153.7800000000000011
21
-55.0204999999999984
0
LINE
8
BLACK
6
CONTINUOUS
10
153.7800000000000011
20
-55.0204999999999984
11
155.3799999999999955
21
-55.0204999999999984
0
LINE
8
BLACK
6
CONTINUOUS
10
155.3799999999999955
20
-55.0204999999999984
11
155.3799999999999955
21
-56.6204999999999998
0
LINE
8
BLACK
6
CONTINUOUS
10
147.1922280000000001
20
-55.054947999999996
11
147.3371170000000063
21
-55.1149629999999959
0
LINE
8
BLACK
6
CONTINUOUS
10
147.3371170000000063
20
-55.1149629999999959
11
147.4675149999999917
21
-55.2020920000000004
0
LINE
8
BLACK
6
CONTINUOUS
10
147.4675149999999917
20
-55.2020920000000004
11
147.578407999999996
21
-55.3129849999999976
0
LINE
8
BLACK
6
CONTINUOUS
10
147.578407999999996
20
-55.3129849999999976
11
147.6655370000000005
21
-55.4433829999999972
0
LINE
8
BLACK
6
CONTINUOUS
10
147.6655370000000005
20
-55.4433829999999972
11
147.7255519999999933
21
-55.5882719999999964
0
LINE
8
BLACK
6
CONTINUOUS
10
147.7255519999999933
20
-55.5882719999999964
11
147.756147999999996
21
-55.7420860000000005
0
LINE
8
BLACK
6
CONTINUOUS
10
147.756147999999996
20
-55.7420860000000005
11
147.756147999999996
21
-55.8989139999999978
0
LINE
8
BLACK
6
CONTINUOUS
10
147.756147999999996
20
-55.8989139999999978
11
147.7255519999999933
21
-56.0527279999999948
0
LINE
8
BLACK
6
CONTINUOUS
10
147.7255519999999933
20
-56.0527279999999948
11
147.6655370000000005
21
-56.1976169999999939
0
LINE
8
BLACK
6
CONTINUOUS
10
147.6655370000000005
20
-56.1976169999999939
11
147.578407999999996
21
-56.3280150000000006
0
LINE
8
BLACK
6
CONTINUOUS
10
147.578407999999996
20
-56.3280150000000006
11
147.4675149999999917
21
-56.4389079999999979
0
LINE
8
BLACK
6
CONTINUOUS
10
147.4675149999999917
20
-56.4389079999999979
11
147.3371170000000063
21
-56.5260369999999952
0
LINE
8
BLACK
6
CONTINUOUS
10
147.3371170000000063
20
-56.5260369999999952
11
147.1922280000000001
21
-56.5860519999999951
0
LINE
8
BLACK
6
CONTINUOUS
10
147.1922280000000001
20
-56.5860519999999951
11
147.0384139999999888
21
-56.6166479999999979
0
LINE
8
BLACK
6
CONTINUOUS
10
147.0384139999999888
20
-56.6166479999999979
11
146.8815859999999986
21
-56.6166479999999979
0
LINE
8
BLACK
6
CONTINUOUS
10
146.8815859999999986
20
-56.6166479999999979
11
146.7277719999999874
21
-56.5860519999999951
0
LINE
8
BLACK
6
CONTINUOUS
10
146.7277719999999874
20
-56.5860519999999951
11
146.5828829999999812
21
-56.5260369999999952
0
LINE
8
BLACK
6
CONTINUOUS
10
146.5828829999999812
20
-56.5260369999999952
11
146.4524849999999958
21
-56.4389079999999979
0
LINE
8
BLACK
6
CONTINUOUS
10
146.4524849999999958
20
-56.4389079999999979
11
146.3415919999999915
21
-56.3280150000000006
0
LINE
8
BLACK
6
CONTINUOUS
10
146.3415919999999915
20
-56.3280150000000006
11
146.254462999999987
21
-56.1976169999999939
0
LINE
8
BLACK
6
CONTINUOUS
10
146.254462999999987
20
-56.1976169999999939
11
146.1944479999999942
21
-56.0527279999999948
0
LINE
8
BLACK
6
CONTINUOUS
10
146.1944479999999942
20
-56.0527279999999948
11
146.1638519999999914
21
-55.8989139999999978
0
LINE
8
BLACK
6
CONTINUOUS
10
146.1638519999999914
20
-55.8989139999999978
11
146.1638519999999914
21
-55.7420860000000005
0
LINE
8
BLACK
6
CONTINUOUS
10
146.1638519999999914
20
-55.7420860000000005
11
146.1944479999999942
21
-55.5882719999999964
0
LINE
8
BLACK
6
CONTINUOUS
10
146.1944479999999942
20
-55.5882719999999964
11
146.254462999999987
21
-55.4433829999999972
0
LINE
8
BLACK
6
CONTINUOUS
10
146.254462999999987
20
-55.4433829999999972
11
146.3415919999999915
21
-55.3129849999999976
0
LINE
8
BLACK
6
CONTINUOUS
10
146.3415919999999915
20
-55.3129849999999976
11
146.4524849999999958
21
-55.2020920000000004
0
LINE
8
BLACK
6
CONTINUOUS
10
146.4524849999999958
20
-55.2020920000000004
11
146.5828829999999812
21
-55.1149629999999959
0
LINE
8
BLACK
6
CONTINUOUS
10
146.5828829999999812
20
-55.1149629999999959
11
146.7277719999999874
21
-55.054947999999996
0
LINE
8
BLACK
6
CONTINUOUS
10
146.7277719999999874
20
-55.054947999999996
11
146.8815859999999986
21
-55.0243520000000004
0
LINE
8
BLACK
6
CONTINUOUS
10
146.8815859999999986
20
-55.0243520000000004
11
147.0384139999999888
21
-55.0243520000000004
0
LINE
8
BLACK
6
CONTINUOUS
10
147.0384139999999888
20
-55.0243520000000004
11
147.1922280000000001
21
-55.054947999999996
0
LINE
8
BLACK
6
CONTINUOUS
10
149.7322279999999921
20
-55.054947999999996
11
149.8771169999999984
21
-55.1149629999999959
0
LINE
8
BLACK
6
CONTINUOUS
10
149.8771169999999984
20
-55.1149629999999959
11
150.0075149999999837
21
-55.2020920000000004
0
LINE
8
BLACK
6
CONTINUOUS
10
150.0075149999999837
20
-55.2020920000000004
11
150.1184079999999881
21
-55.3129849999999976
0
LINE
8
BLACK
6
CONTINUOUS
10
150.1184079999999881
20
-55.3129849999999976
11
150.2055369999999925
21
-55.4433829999999972
0
LINE
8
BLACK
6
CONTINUOUS
10
150.2055369999999925
20
-55.4433829999999972
11
150.2655519999999854
21
-55.5882719999999964
0
LINE
8
BLACK
6
CONTINUOUS
10
150.2655519999999854
20
-55.5882719999999964
11
150.2961479999999881
21
-55.7420860000000005
0
LINE
8
BLACK
6
CONTINUOUS
10
150.2961479999999881
20
-55.7420860000000005
11
150.2961479999999881
21
-55.8989139999999978
0
LINE
8
BLACK
6
CONTINUOUS
10
150.2961479999999881
20
-55.8989139999999978
11
150.2655519999999854
21
-56.0527279999999948
0
LINE
8
BLACK
6
CONTINUOUS
10
150.2655519999999854
20
-56.0527279999999948
11
150.2055369999999925
21
-56.1976169999999939
0
LINE
8
BLACK
6
CONTINUOUS
10
150.2055369999999925
20
-56.1976169999999939
11
150.1184079999999881
21
-56.3280150000000006
0
LINE
8
BLACK
6
CONTINUOUS
10
150.1184079999999881
20
-56.3280150000000006
11
150.0075149999999837
21
-56.4389079999999979
0
LINE
8
BLACK
6
CONTINUOUS
10
150.0075149999999837
20
-56.4389079999999979
11
149.8771169999999984
21
-56.5260369999999952
0
LINE
8
BLACK
6
CONTINUOUS
10
149.8771169999999984
20
-56.5260369999999952
11
149.7322279999999921
21
-56.5860519999999951
0
LINE
8
BLACK
6
CONTINUOUS
10
149.7322279999999921
20
-56.5860519999999951
11
149.5784139999999809
21
-56.6166479999999979
0
LINE
8
BLACK
6
CONTINUOUS
10
149.5784139999999809
20
-56.6166479999999979
11
149.4215859999999907
21
-56.6166479999999979
0
LINE
8
BLACK
6
CONTINUOUS
10
149.4215859999999907
20
-56.6166479999999979
11
149.2677719999999795
21
-56.5860519999999951
0
LINE
8
BLACK
6
CONTINUOUS
10
149.2677719999999795
20
-56.5860519999999951
11
149.1228830000000016
21
-56.5260369999999952
0
LINE
8
BLACK
6
CONTINUOUS
10
149.1228830000000016
20
-56.5260369999999952
11
148.9924849999999878
21
-56.4389079999999979
0
LINE
8
BLACK
6
CONTINUOUS
10
148.9924849999999878
20
-56.4389079999999979
11
148.8815919999999835
21
-56.3280150000000006
0
LINE
8
BLACK
6
CONTINUOUS
10
148.8815919999999835
20
-56.3280150000000006
11
148.7944630000000075
21
-56.1976169999999939
0
LINE
8
BLACK
6
CONTINUOUS
10
148.7944630000000075
20
-56.1976169999999939
11
148.7344479999999862
21
-56.0527279999999948
0
LINE
8
BLACK
6
CONTINUOUS
10
148.7344479999999862
20
-56.0527279999999948
11
148.7038519999999835
21
-55.8989139999999978
0
LINE
8
BLACK
6
CONTINUOUS
10
148.7038519999999835
20
-55.8989139999999978
11
148.7038519999999835
21
-55.7420860000000005
0
LINE
8
BLACK
6
CONTINUOUS
10
148.7038519999999835
20
-55.7420860000000005
11
148.7344479999999862
21
-55.5882719999999964
0
LINE
8
BLACK
6
CONTINUOUS
10
148.7344479999999862
20
-55.5882719999999964
11
148.7944630000000075
21
-55.4433829999999972
0
LINE
8
BLACK
6
CONTINUOUS
10
148.7944630000000075
20
-55.4433829999999972
11
148.8815919999999835
21
-55.3129849999999976
0
LINE
8
BLACK
6
CONTINUOUS
10
148.8815919999999835
20
-55.3129849999999976
11
148.9924849999999878
21
-55.2020920000000004
0
LINE
8
BLACK
6
CONTINUOUS
10
148.9924849999999878
20
-55.2020920000000004
11
149.1228830000000016
21
-55.1149629999999959
0
LINE
8
BLACK
6
CONTINUOUS
10
149.1228830000000016
20
-55.1149629999999959
11
149.2677719999999795
21
-55.054947999999996
0
LINE
8
BLACK
6
CONTINUOUS
10
149.2677719999999795
20
-55.054947999999996
11
149.4215859999999907
21
-55.0243520000000004
0
LINE
8
BLACK
6
CONTINUOUS
10
149.4215859999999907
20
-55.0243520000000004
11
149.5784139999999809
21
-55.0243520000000004
0
LINE
8
BLACK
6
CONTINUOUS
10
149.5784139999999809
20
-55.0243520000000004
11
149.7322279999999921
21
-55.054947999999996
0
LINE
8
BLACK
6
CONTINUOUS
10
152.2722279999999841
20
-55.054947999999996
11
152.4171169999999904
21
-55.1149629999999959
0
LINE
8
BLACK
6
CONTINUOUS
10
152.4171169999999904
20
-55.1149629999999959
11
152.5475150000000042
21
-55.2020920000000004
0
LINE
8
BLACK
6
CONTINUOUS
10
152.5475150000000042
20
-55.2020920000000004
11
152.6584079999999801
21
-55.3129849999999976
0
LINE
8
BLACK
6
CONTINUOUS
10
152.6584079999999801
20
-55.3129849999999976
11
152.7455369999999846
21
-55.4433829999999972
0
LINE
8
BLACK
6
CONTINUOUS
10
152.7455369999999846
20
-55.4433829999999972
11
152.8055520000000058
21
-55.5882719999999964
0
LINE
8
BLACK
6
CONTINUOUS
10
152.8055520000000058
20
-55.5882719999999964
11
152.8361479999999801
21
-55.7420860000000005
0
LINE
8
BLACK
6
CONTINUOUS
10
152.8361479999999801
20
-55.7420860000000005
11
152.8361479999999801
21
-55.8989139999999978
0
LINE
8
BLACK
6
CONTINUOUS
10
152.8361479999999801
20
-55.8989139999999978
11
152.8055520000000058
21
-56.0527279999999948
0
LINE
8
BLACK
6
CONTINUOUS
10
152.8055520000000058
20
-56.0527279999999948
11
152.7455369999999846
21
-56.1976169999999939
0
LINE
8
BLACK
6
CONTINUOUS
10
152.7455369999999846
20
-56.1976169999999939
11
152.6584079999999801
21
-56.3280150000000006
0
LINE
8
BLACK
6
CONTINUOUS
10
152.6584079999999801
20
-56.3280150000000006
11
152.5475150000000042
21
-56.4389079999999979
0
LINE
8
BLACK
6
CONTINUOUS
10
152.5475150000000042
20
-56.4389079999999979
11
152.4171169999999904
21
-56.5260369999999952
0
LINE
8
BLACK
6
CONTINUOUS
10
152.4171169999999904
20
-56.5260369999999952
11
152.2722279999999841
21
-56.5860519999999951
0
LINE
8
BLACK
6
CONTINUOUS
10
152.2722279999999841
20
-56.5860519999999951
11
152.1184140000000014
21
-56.6166479999999979
0
LINE
8
BLACK
6
CONTINUOUS
10
152.1184140000000014
20
-56.6166479999999979
11
151.9615859999999827
21
-56.6166479999999979
0
LINE
8
BLACK
6
CONTINUOUS
10
151.9615859999999827
20
-56.6166479999999979
11
151.8077719999999999
21
-56.5860519999999951
0
LINE
8
BLACK
6
CONTINUOUS
10
151.8077719999999999
20
-56.5860519999999951
11
151.6628829999999937
21
-56.5260369999999952
0
LINE
8
BLACK
6
CONTINUOUS
10
151.6628829999999937
20
-56.5260369999999952
11
151.5324849999999799
21
-56.4389079999999979
0
LINE
8
BLACK
6
CONTINUOUS
10
151.5324849999999799
20
-56.4389079999999979
11
151.421592000000004
21
-56.3280150000000006
0
LINE
8
BLACK
6
CONTINUOUS
10
151.421592000000004
20
-56.3280150000000006
11
151.3344629999999995
21
-56.1976169999999939
0
LINE
8
BLACK
6
CONTINUOUS
10
151.3344629999999995
20
-56.1976169999999939
11
151.2744480000000067
21
-56.0527279999999948
0
LINE
8
BLACK
6
CONTINUOUS
10
151.2744480000000067
20
-56.0527279999999948
11
151.243852000000004
21
-55.8989139999999978
0
LINE
8
BLACK
6
CONTINUOUS
10
151.243852000000004
20
-55.8989139999999978
11
151.243852000000004
21
-55.7420860000000005
0
LINE
8
BLACK
6
CONTINUOUS
10
151.243852000000004
20
-55.7420860000000005
11
151.2744480000000067
21
-55.5882719999999964
0
LINE
8
BLACK
6
CONTINUOUS
10
151.2744480000000067
20
-55.5882719999999964
11
151.3344629999999995
21
-55.4433829999999972
0
LINE
8
BLACK
6
CONTINUOUS
10
151.3344629999999995
20
-55.4433829999999972
11
151.421592000000004
21
-55.3129849999999976
0
LINE
8
BLACK
6
CONTINUOUS
10
151.421592000000004
20
-55.3129849999999976
11
151.5324849999999799
21
-55.2020920000000004
0
LINE
8
BLACK
6
CONTINUOUS
10
151.5324849999999799
20
-55.2020920000000004
11
151.6628829999999937
21
-55.1149629999999959
0
LINE
8
BLACK
6
CONTINUOUS
10
151.6628829999999937
20
-55.1149629999999959
11
151.8077719999999999
21
-55.054947999999996
0
LINE
8
BLACK
6
CONTINUOUS
10
151.8077719999999999
20
-55.054947999999996
11
151.9615859999999827
21
-55.0243520000000004
0
LINE
8
BLACK
6
CONTINUOUS
10
151.9615859999999827
20
-55.0243520000000004
11
152.1184140000000014
21
-55.0243520000000004
0
LINE
8
BLACK
6
CONTINUOUS
10
152.1184140000000014
20
-55.0243520000000004
11
152.2722279999999841
21
-55.054947999999996
0
LINE
8
BLACK
6
CONTINUOUS
10
152.9456710000000044
20
-51.6440300000000008
11
153.0267769999999814
21
-51.6982229999999987
0
LINE
8
BLACK
6
CONTINUOUS
10
153.0267769999999814
20
-51.6982229999999987
11
153.0809699999999793
21
-51.7793289999999971
0
LINE
8
BLACK
6
CONTINUOUS
10
153.0809699999999793
20
-51.7793289999999971
11
153.0999999999999943
21
-51.875
0
LINE
8
BLACK
6
CONTINUOUS
10
153.0999999999999943
20
-51.875
11
153.0999999999999943
21
-53.125
0
LINE
8
BLACK
6
CONTINUOUS
10
153.0999999999999943
20
-53.125
11
153.0809699999999793
21
-53.2206709999999958
0
LINE
8
BLACK
6
CONTINUOUS
10
153.0809699999999793
20
-53.2206709999999958
11
153.0267769999999814
21
-53.3017769999999942
0
LINE
8
BLACK
6
CONTINUOUS
10
153.0267769999999814
20
-53.3017769999999942
11
152.9456710000000044
21
-53.3559699999999992
0
LINE
8
BLACK
6
CONTINUOUS
10
152.9456710000000044
20
-53.3559699999999992
11
152.8499999999999943
21
-53.375
0
LINE
8
BLACK
6
CONTINUOUS
10
152.8499999999999943
20
-53.375
11
152.1500000000000057
21
-53.375
0
LINE
8
BLACK
6
CONTINUOUS
10
152.1500000000000057
20
-53.375
11
152.0543289999999956
21
-53.3559699999999992
0
LINE
8
BLACK
6
CONTINUOUS
10
152.0543289999999956
20
-53.3559699999999992
11
151.9732229999999902
21
-53.3017769999999942
0
LINE
8
BLACK
6
CONTINUOUS
10
151.9732229999999902
20
-53.3017769999999942
11
151.9190299999999922
21
-53.2206709999999958
0
LINE
8
BLACK
6
CONTINUOUS
10
151.9190299999999922
20
-53.2206709999999958
11
151.9000000000000057
21
-53.125
0
LINE
8
BLACK
6
CONTINUOUS
10
151.9000000000000057
20
-53.125
11
151.9000000000000057
21
-51.875
0
LINE
8
BLACK
6
CONTINUOUS
10
151.9000000000000057
20
-51.875
11
151.9190299999999922
21
-51.7793289999999971
0
LINE
8
BLACK
6
CONTINUOUS
10
151.9190299999999922
20
-51.7793289999999971
11
151.9732229999999902
21
-51.6982229999999987
0
LINE
8
BLACK
6
CONTINUOUS
10
151.9732229999999902
20
-51.6982229999999987
11
152.0543289999999956
21
-51.6440300000000008
0
LINE
8
BLACK
6
CONTINUOUS
10
152.0543289999999956
20
-51.6440300000000008
11
152.1500000000000057
21
-51.625
0
LINE
8
BLACK
6
CONTINUOUS
10
152.1500000000000057
20
-51.625
11
152.8499999999999943
21
-51.625
0
LINE
8
BLACK
6
CONTINUOUS
10
152.8499999999999943
20
-51.625
11
152.9456710000000044
21
-51.6440300000000008
0
LINE
8
BLACK
6
CONTINUOUS
10
154.9456710000000044
20
-51.643029999999996
11
155.0267769999999814
21
-51.697223000000001
0
LINE
8
BLACK
6
CONTINUOUS
10
155.0267769999999814
20
-51.697223000000001
11
155.0809699999999793
21
-51.7783289999999994
0
LINE
8
BLACK
6
CONTINUOUS
10
155.0809699999999793
20
-51.7783289999999994
11
155.0999999999999943
21
-51.8739999999999952
0
LINE
8
BLACK
6
CONTINUOUS
10
155.0999999999999943
20
-51.8739999999999952
11
155.0999999999999943
21
-53.1239999999999952
0
LINE
8
BLACK
6
CONTINUOUS
10
155.0999999999999943
20
-53.1239999999999952
11
155.0809699999999793
21
-53.2196709999999982
0
LINE
8
BLACK
6
CONTINUOUS
10
155.0809699999999793
20
-53.2196709999999982
11
155.0267769999999814
21
-53.3007769999999965
0
LINE
8
BLACK
6
CONTINUOUS
10
155.0267769999999814
20
-53.3007769999999965
11
154.9456710000000044
21
-53.3549699999999945
0
LINE
8
BLACK
6
CONTINUOUS
10
154.9456710000000044
20
-53.3549699999999945
11
154.8499999999999943
21
-53.3739999999999952
0
LINE
8
BLACK
6
CONTINUOUS
10
154.8499999999999943
20
-53.3739999999999952
11
154.1500000000000057
21
-53.3739999999999952
0
LINE
8
BLACK
6
CONTINUOUS
10
154.1500000000000057
20
-53.3739999999999952
11
154.0543289999999956
21
-53.3549699999999945
0
LINE
8
BLACK
6
CONTINUOUS
10
154.0543289999999956
20
-53.3549699999999945
11
153.9732229999999902
21
-53.3007769999999965
0
LINE
8
BLACK
6
CONTINUOUS
10
153.9732229999999902
20
-53.3007769999999965
11
153.9190299999999922
21
-53.2196709999999982
0
LINE
8
BLACK
6
CONTINUOUS
10
153.9190299999999922
20
-53.2196709999999982
11
153.9000000000000057
21
-53.1239999999999952
0
LINE
8
BLACK
6
CONTINUOUS
10
153.9000000000000057
20
-53.1239999999999952
11
153.9000000000000057
21
-51.8739999999999952
0
LINE
8
BLACK
6
CONTINUOUS
10
153.9000000000000057
20
-51.8739999999999952
11
153.9190299999999922
21
-51.7783289999999994
0
LINE
8
BLACK
6
CONTINUOUS
10
153.9190299999999922
20
-51.7783289999999994
11
153.9732229999999902
21
-51.697223000000001
0
LINE
8
BLACK
6
CONTINUOUS
10
153.9732229999999902
20
-51.697223000000001
11
154.0543289999999956
21
-51.643029999999996
0
LINE
8
BLACK
6
CONTINUOUS
10
154.0543289999999956
20
-51.643029999999996
11
154.1500000000000057
21
-51.6239999999999952
0
LINE
8
BLACK
6
CONTINUOUS
10
154.1500000000000057
20
-51.6239999999999952
11
154.8499999999999943
21
-51.6239999999999952
0
LINE
8
BLACK
6
CONTINUOUS
10
154.8499999999999943
20
-51.6239999999999952
11
154.9456710000000044
21
-51.643029999999996
0
LINE
8
BLACK
6
CONTINUOUS
10
148.7296099999999797
20
-51.6696719999999985
11
148.8652569999999855
21
-51.7479879999999994
0
LINE
8
BLACK
6
CONTINUOUS
10
148.8652569999999855
20
-51.7479879999999994
11
148.9760119999999972
21
-51.8587429999999969
0
LINE
8
BLACK
6
CONTINUOUS
10
148.9760119999999972
20
-51.8587429999999969
11
149.0543279999999982
21
-51.9943899999999957
0
LINE
8
BLACK
6
CONTINUOUS
10
149.0543279999999982
20
-51.9943899999999957
11
149.0948669999999936
21
-52.1456839999999957
0
LINE
8
BLACK
6
CONTINUOUS
10
149.0948669999999936
20
-52.1456839999999957
11
149.0999999999999943
21
-52.2239999999999966
0
LINE
8
BLACK
6
CONTINUOUS
10
149.0999999999999943
20
-52.2239999999999966
11
149.0999999999999943
21
-52.2249999999999943
0
LINE
8
BLACK
6
CONTINUOUS
10
149.0999999999999943
20
-52.2249999999999943
11
149.0999999999999943
21
-52.7749999999999986
0
LINE
8
BLACK
6
CONTINUOUS
10
149.0999999999999943
20
-52.7749999999999986
11
149.0948669999999936
21
-52.8533159999999995
0
LINE
8
BLACK
6
CONTINUOUS
10
149.0948669999999936
20
-52.8533159999999995
11
149.0543279999999982
21
-53.0046099999999996
0
LINE
8
BLACK
6
CONTINUOUS
10
149.0543279999999982
20
-53.0046099999999996
11
148.9760119999999972
21
-53.1402569999999983
0
LINE
8
BLACK
6
CONTINUOUS
10
148.9760119999999972
20
-53.1402569999999983
11
148.8652569999999855
21
-53.2510119999999958
0
LINE
8
BLACK
6
CONTINUOUS
10
148.8652569999999855
20
-53.2510119999999958
11
148.7296099999999797
21
-53.3293279999999967
0
LINE
8
BLACK
6
CONTINUOUS
10
148.7296099999999797
20
-53.3293279999999967
11
148.5783160000000009
21
-53.3698669999999993
0
LINE
8
BLACK
6
CONTINUOUS
10
148.5783160000000009
20
-53.3698669999999993
11
148.4216839999999991
21
-53.3698669999999993
0
LINE
8
BLACK
6
CONTINUOUS
10
148.4216839999999991
20
-53.3698669999999993
11
148.2703899999999919
21
-53.3293279999999967
0
LINE
8
BLACK
6
CONTINUOUS
10
148.2703899999999919
20
-53.3293279999999967
11
148.1347429999999861
21
-53.2510119999999958
0
LINE
8
BLACK
6
CONTINUOUS
10
148.1347429999999861
20
-53.2510119999999958
11
148.0239880000000028
21
-53.1402569999999983
0
LINE
8
BLACK
6
CONTINUOUS
10
148.0239880000000028
20
-53.1402569999999983
11
147.9456720000000018
21
-53.0046099999999996
0
LINE
8
BLACK
6
CONTINUOUS
10
147.9456720000000018
20
-53.0046099999999996
11
147.9051330000000064
21
-52.8533159999999995
0
LINE
8
BLACK
6
CONTINUOUS
10
147.9051330000000064
20
-52.8533159999999995
11
147.9000000000000057
21
-52.7749999999999986
0
LINE
8
BLACK
6
CONTINUOUS
10
147.9000000000000057
20
-52.7749999999999986
11
147.9000000000000057
21
-52.2249999999999943
0
LINE
8
BLACK
6
CONTINUOUS
10
147.9000000000000057
20
-52.2249999999999943
11
147.9000000000000057
21
-52.2239999999999966
0
LINE
8
BLACK
6
CONTINUOUS
10
147.9000000000000057
20
-52.2239999999999966
11
147.9051330000000064
21
-52.1456839999999957
0
LINE
8
BLACK
6
CONTINUOUS
10
147.9051330000000064
20
-52.1456839999999957
11
147.9456720000000018
21
-51.9943899999999957
0
LINE
8
BLACK
6
CONTINUOUS
10
147.9456720000000018
20
-51.9943899999999957
11
148.0239880000000028
21
-51.8587429999999969
0
LINE
8
BLACK
6
CONTINUOUS
10
148.0239880000000028
20
-51.8587429999999969
11
148.1347429999999861
21
-51.7479879999999994
0
LINE
8
BLACK
6
CONTINUOUS
10
148.1347429999999861
20
-51.7479879999999994
11
148.2703899999999919
21
-51.6696719999999985
0
LINE
8
BLACK
6
CONTINUOUS
10
148.2703899999999919
20
-51.6696719999999985
11
148.4216839999999991
21
-51.6291329999999959
0
LINE
8
BLACK
6
CONTINUOUS
10
148.4216839999999991
20
-51.6291329999999959
11
148.5783160000000009
21
-51.6291329999999959
0
LINE
8
BLACK
6
CONTINUOUS
10
148.5783160000000009
20
-51.6291329999999959
11
148.7296099999999797
21
-51.6696719999999985
0
LINE
8
BLACK
6
CONTINUOUS
10
150.7296099999999797
20
-51.6696719999999985
11
150.8652569999999855
21
-51.7479879999999994
0
LINE
8
BLACK
6
CONTINUOUS
10
150.8652569999999855
20
-51.7479879999999994
11
150.9760119999999972
21
-51.8587429999999969
0
LINE
8
BLACK
6
CONTINUOUS
10
150.9760119999999972
20
-51.8587429999999969
11
151.0543279999999982
21
-51.9943899999999957
0
LINE
8
BLACK
6
CONTINUOUS
10
151.0543279999999982
20
-51.9943899999999957
11
151.0948669999999936
21
-52.1456839999999957
0
LINE
8
BLACK
6
CONTINUOUS
10
151.0948669999999936
20
-52.1456839999999957
11
151.0999999999999943
21
-52.2239999999999966
0
LINE
8
BLACK
6
CONTINUOUS
10
151.0999999999999943
20
-52.2239999999999966
11
151.0999999999999943
21
-52.2249999999999943
0
LINE
8
BLACK
6
CONTINUOUS
10
151.0999999999999943
20
-52.2249999999999943
11
151.0999999999999943
21
-52.7749999999999986
0
LINE
8
BLACK
6
CONTINUOUS
10
151.0999999999999943
20
-52.7749999999999986
11
151.0948669999999936
21
-52.8533159999999995
0
LINE
8
BLACK
6
CONTINUOUS
10
151.0948669999999936
20
-52.8533159999999995
11
151.0543279999999982
21
-53.0046099999999996
0
LINE
8
BLACK
6
CONTINUOUS
10
151.0543279999999982
20
-53.0046099999999996
11
150.9760119999999972
21
-53.1402569999999983
0
LINE
8
BLACK
6
CONTINUOUS
10
150.9760119999999972
20
-53.1402569999999983
11
150.8652569999999855
21
-53.2510119999999958
0
LINE
8
BLACK
6
CONTINUOUS
10
150.8652569999999855
20
-53.2510119999999958
11
150.7296099999999797
21
-53.3293279999999967
0
LINE
8
BLACK
6
CONTINUOUS
10
150.7296099999999797
20
-53.3293279999999967
11
150.5783160000000009
21
-53.3698669999999993
0
LINE
8
BLACK
6
CONTINUOUS
10
150.5783160000000009
20
-53.3698669999999993
11
150.4216839999999991
21
-53.3698669999999993
0
LINE
8
BLACK
6
CONTINUOUS
10
150.4216839999999991
20
-53.3698669999999993
11
150.2703899999999919
21
-53.3293279999999967
0
LINE
8
BLACK
6
CONTINUOUS
10
150.2703899999999919
20
-53.3293279999999967
11
150.1347429999999861
21
-53.2510119999999958
0
LINE
8
BLACK
6
CONTINUOUS
10
150.1347429999999861
20
-53.2510119999999958
11
150.0239880000000028
21
-53.1402569999999983
0
LINE
8
BLACK
6
CONTINUOUS
10
150.0239880000000028
20
-53.1402569999999983
11
149.9456720000000018
21
-53.0046099999999996
0
LINE
8
BLACK
6
CONTINUOUS
10
149.9456720000000018
20
-53.0046099999999996
11
149.9051330000000064
21
-52.8533159999999995
0
LINE
8
BLACK
6
CONTINUOUS
10
149.9051330000000064
20
-52.8533159999999995
11
149.9000000000000057
21
-52.7749999999999986
0
LINE
8
BLACK
6
CONTINUOUS
10
149.9000000000000057
20
-52.7749999999999986
11
149.9000000000000057
21
-52.2249999999999943
0
LINE
8
BLACK
6
CONTINUOUS
10
149.9000000000000057
20
-52.2249999999999943
11
149.9000000000000057
21
-52.2239999999999966
0
LINE
8
BLACK
6
CONTINUOUS
10
149.9000000000000057
20
-52.2239999999999966
11
149.9051330000000064
21
-52.1456839999999957
0
LINE
8
BLACK
6
CONTINUOUS
10
149.9051330000000064
20
-52.1456839999999957
11
149.9456720000000018
21
-51.9943899999999957
0
LINE
8
BLACK
6
CONTINUOUS
10
149.9456720000000018
20
-51.9943899999999957
11
150.0239880000000028
21
-51.8587429999999969
0
LINE
8
BLACK
6
CONTINUOUS
10
150.0239880000000028
20
-51.8587429999999969
11
150.1347429999999861
21
-51.7479879999999994
0
LINE
8
BLACK
6
CONTINUOUS
10
150.1347429999999861
20
-51.7479879999999994
11
150.2703899999999919
21
-51.6696719999999985
0
LINE
8
BLACK
6
CONTINUOUS
10
150.2703899999999919
20
-51.6696719999999985
11
150.4216839999999991
21
-51.6291329999999959
0
LINE
8
BLACK
6
CONTINUOUS
10
150.4216839999999991
20
-51.6291329999999959
11
150.5783160000000009
21
-51.6291329999999959
0
LINE
8
BLACK
6
CONTINUOUS
10
150.5783160000000009
20
-51.6291329999999959
11
150.7296099999999797
21
-51.6696719999999985
0
LINE
8
BLACK
6
CONTINUOUS
10
146.7296099999999797
20
-51.6696719999999985
11
146.8652569999999855
21
-51.7479879999999994
0
LINE
8
BLACK
6
CONTINUOUS
10
146.8652569999999855
20
-51.7479879999999994
11
146.9760119999999972
21
-51.8587429999999969
0
LINE
8
BLACK
6
CONTINUOUS
10
146.9760119999999972
20
-51.8587429999999969
11
147.0543279999999982
21
-51.9943899999999957
0
LINE
8
BLACK
6
CONTINUOUS
10
147.0543279999999982
20
-51.9943899999999957
11
147.0948669999999936
21
-52.1456839999999957
0
LINE
8
BLACK
6
CONTINUOUS
10
147.0948669999999936
20
-52.1456839999999957
11
147.0999999999999943
21
-52.2239999999999966
0
LINE
8
BLACK
6
CONTINUOUS
10
147.0999999999999943
20
-52.2239999999999966
11
147.0999999999999943
21
-52.7740000000000009
0
LINE
8
BLACK
6
CONTINUOUS
10
147.0999999999999943
20
-52.7740000000000009
11
147.0948669999999936
21
-52.8523159999999947
0
LINE
8
BLACK
6
CONTINUOUS
10
147.0948669999999936
20
-52.8523159999999947
11
147.0543279999999982
21
-53.0036099999999948
0
LINE
8
BLACK
6
CONTINUOUS
10
147.0543279999999982
20
-53.0036099999999948
11
146.9760119999999972
21
-53.1392570000000006
0
LINE
8
BLACK
6
CONTINUOUS
10
146.9760119999999972
20
-53.1392570000000006
11
146.8652569999999855
21
-53.2500119999999981
0
LINE
8
BLACK
6
CONTINUOUS
10
146.8652569999999855
20
-53.2500119999999981
11
146.7296099999999797
21
-53.3283279999999991
0
LINE
8
BLACK
6
CONTINUOUS
10
146.7296099999999797
20
-53.3283279999999991
11
146.5783160000000009
21
-53.3688669999999945
0
LINE
8
BLACK
6
CONTINUOUS
10
146.5783160000000009
20
-53.3688669999999945
11
146.4216839999999991
21
-53.3688669999999945
0
LINE
8
BLACK
6
CONTINUOUS
10
146.4216839999999991
20
-53.3688669999999945
11
146.2703899999999919
21
-53.3283279999999991
0
LINE
8
BLACK
6
CONTINUOUS
10
146.2703899999999919
20
-53.3283279999999991
11
146.1347429999999861
21
-53.2500119999999981
0
LINE
8
BLACK
6
CONTINUOUS
10
146.1347429999999861
20
-53.2500119999999981
11
146.0239880000000028
21
-53.1392570000000006
0
LINE
8
BLACK
6
CONTINUOUS
10
146.0239880000000028
20
-53.1392570000000006
11
145.9456720000000018
21
-53.0036099999999948
0
LINE
8
BLACK
6
CONTINUOUS
10
145.9456720000000018
20
-53.0036099999999948
11
145.9051330000000064
21
-52.8523159999999947
0
LINE
8
BLACK
6
CONTINUOUS
10
145.9051330000000064
20
-52.8523159999999947
11
145.9000000000000057
21
-52.7740000000000009
0
LINE
8
BLACK
6
CONTINUOUS
10
145.9000000000000057
20
-52.7740000000000009
11
145.9000000000000057
21
-52.2239999999999966
0
LINE
8
BLACK
6
CONTINUOUS
10
145.9000000000000057
20
-52.2239999999999966
11
145.9051330000000064
21
-52.1456839999999957
0
LINE
8
BLACK
6
CONTINUOUS
10
145.9051330000000064
20
-52.1456839999999957
11
145.9456720000000018
21
-51.9943899999999957
0
LINE
8
BLACK
6
CONTINUOUS
10
145.9456720000000018
20
-51.9943899999999957
11
146.0239880000000028
21
-51.8587429999999969
0
LINE
8
BLACK
6
CONTINUOUS
10
146.0239880000000028
20
-51.8587429999999969
11
146.1347429999999861
21
-51.7479879999999994
0
LINE
8
BLACK
6
CONTINUOUS
10
146.1347429999999861
20
-51.7479879999999994
11
146.2703899999999919
21
-51.6696719999999985
0
LINE
8
BLACK
6
CONTINUOUS
10
146.2703899999999919
20
-51.6696719999999985
11
146.4216839999999991
21
-51.6291329999999959
0
LINE
8
BLACK
6
CONTINUOUS
10
146.4216839999999991
20
-51.6291329999999959
11
146.5783160000000009
21
-51.6291329999999959
0
LINE
8
BLACK
6
CONTINUOUS
10
146.5783160000000009
20
-51.6291329999999959
11
146.7296099999999797
21
-51.6696719999999985
0
LINE
8
BLACK
6
CONTINUOUS
10
149.9456710000000044
20
-48.6440300000000008
11
150.0267769999999814
21
-48.6982229999999987
0
LINE
8
BLACK
6
CONTINUOUS
10
150.0267769999999814
20
-48.6982229999999987
11
150.0809699999999793
21
-48.7793289999999971
0
LINE
8
BLACK
6
CONTINUOUS
10
150.0809699999999793
20
-48.7793289999999971
11
150.0999999999999943
21
-48.875
0
LINE
8
BLACK
6
CONTINUOUS
10
150.0999999999999943
20
-48.875
11
150.0999999999999943
21
-50.125
0
LINE
8
BLACK
6
CONTINUOUS
10
150.0999999999999943
20
-50.125
11
150.0809699999999793
21
-50.2206709999999958
0
LINE
8
BLACK
6
CONTINUOUS
10
150.0809699999999793
20
-50.2206709999999958
11
150.0267769999999814
21
-50.3017769999999942
0
LINE
8
BLACK
6
CONTINUOUS
10
150.0267769999999814
20
-50.3017769999999942
11
149.9456710000000044
21
-50.3559699999999992
0
LINE
8
BLACK
6
CONTINUOUS
10
149.9456710000000044
20
-50.3559699999999992
11
149.8499999999999943
21
-50.375
0
LINE
8
BLACK
6
CONTINUOUS
10
149.8499999999999943
20
-50.375
11
149.1500000000000057
21
-50.375
0
LINE
8
BLACK
6
CONTINUOUS
10
149.1500000000000057
20
-50.375
11
149.0543289999999956
21
-50.3559699999999992
0
LINE
8
BLACK
6
CONTINUOUS
10
149.0543289999999956
20
-50.3559699999999992
11
148.9732229999999902
21
-50.3017769999999942
0
LINE
8
BLACK
6
CONTINUOUS
10
148.9732229999999902
20
-50.3017769999999942
11
148.9190299999999922
21
-50.2206709999999958
0
LINE
8
BLACK
6
CONTINUOUS
10
148.9190299999999922
20
-50.2206709999999958
11
148.9000000000000057
21
-50.125
0
LINE
8
BLACK
6
CONTINUOUS
10
148.9000000000000057
20
-50.125
11
148.9000000000000057
21
-48.875
0
LINE
8
BLACK
6
CONTINUOUS
10
148.9000000000000057
20
-48.875
11
148.9190299999999922
21
-48.7793289999999971
0
LINE
8
BLACK
6
CONTINUOUS
10
148.9190299999999922
20
-48.7793289999999971
11
148.9732229999999902
21
-48.6982229999999987
0
LINE
8
BLACK
6
CONTINUOUS
10
148.9732229999999902
20
-48.6982229999999987
11
149.0543289999999956
21
-48.6440300000000008
0
LINE
8
BLACK
6
CONTINUOUS
10
149.0543289999999956
20
-48.6440300000000008
11
149.1500000000000057
21
-48.625
0
LINE
8
BLACK
6
CONTINUOUS
10
149.1500000000000057
20
-48.625
11
149.8499999999999943
21
-48.625
0
LINE
8
BLACK
6
CONTINUOUS
10
149.8499999999999943
20
-48.625
11
149.9456710000000044
21
-48.6440300000000008
0
LINE
8
BLACK
6
CONTINUOUS
10
151.7296099999999797
20
-48.6706719999999962
11
151.8652569999999855
21
-48.7489879999999971
0
LINE
8
BLACK
6
CONTINUOUS
10
151.8652569999999855
20
-48.7489879999999971
11
151.9760119999999972
21
-48.8597429999999946
0
LINE
8
BLACK
6
CONTINUOUS
10
151.9760119999999972
20
-48.8597429999999946
11
152.0543279999999982
21
-48.9953900000000004
0
LINE
8
BLACK
6
CONTINUOUS
10
152.0543279999999982
20
-48.9953900000000004
11
152.0948669999999936
21
-49.1466840000000005
0
LINE
8
BLACK
6
CONTINUOUS
10
152.0948669999999936
20
-49.1466840000000005
11
152.0999999999999943
21
-49.2249999999999943
0
LINE
8
BLACK
6
CONTINUOUS
10
152.0999999999999943
20
-49.2249999999999943
11
152.0999999999999943
21
-49.7749999999999986
0
LINE
8
BLACK
6
CONTINUOUS
10
152.0999999999999943
20
-49.7749999999999986
11
152.0948669999999936
21
-49.8533159999999995
0
LINE
8
BLACK
6
CONTINUOUS
10
152.0948669999999936
20
-49.8533159999999995
11
152.0543279999999982
21
-50.0046099999999996
0
LINE
8
BLACK
6
CONTINUOUS
10
152.0543279999999982
20
-50.0046099999999996
11
151.9760119999999972
21
-50.1402569999999983
0
LINE
8
BLACK
6
CONTINUOUS
10
151.9760119999999972
20
-50.1402569999999983
11
151.8652569999999855
21
-50.2510119999999958
0
LINE
8
BLACK
6
CONTINUOUS
10
151.8652569999999855
20
-50.2510119999999958
11
151.7296099999999797
21
-50.3293279999999967
0
LINE
8
BLACK
6
CONTINUOUS
10
151.7296099999999797
20
-50.3293279999999967
11
151.5783160000000009
21
-50.3698669999999993
0
LINE
8
BLACK
6
CONTINUOUS
10
151.5783160000000009
20
-50.3698669999999993
11
151.4216839999999991
21
-50.3698669999999993
0
LINE
8
BLACK
6
CONTINUOUS
10
151.4216839999999991
20
-50.3698669999999993
11
151.2703899999999919
21
-50.3293279999999967
0
LINE
8
BLACK
6
CONTINUOUS
10
151.2703899999999919
20
-50.3293279999999967
11
151.1347429999999861
21
-50.2510119999999958
0
LINE
8
BLACK
6
CONTINUOUS
10
151.1347429999999861
20
-50.2510119999999958
11
151.0239880000000028
21
-50.1402569999999983
0
LINE
8
BLACK
6
CONTINUOUS
10
151.0239880000000028
20
-50.1402569999999983
11
150.9456720000000018
21
-50.0046099999999996
0
LINE
8
BLACK
6
CONTINUOUS
10
150.9456720000000018
20
-50.0046099999999996
11
150.9051330000000064
21
-49.8533159999999995
0
LINE
8
BLACK
6
CONTINUOUS
10
150.9051330000000064
20
-49.8533159999999995
11
150.9000000000000057
21
-49.7749999999999986
0
LINE
8
BLACK
6
CONTINUOUS
10
150.9000000000000057
20
-49.7749999999999986
11
150.9000000000000057
21
-49.2249999999999943
0
LINE
8
BLACK
6
CONTINUOUS
10
150.9000000000000057
20
-49.2249999999999943
11
150.9051330000000064
21
-49.1466840000000005
0
LINE
8
BLACK
6
CONTINUOUS
10
150.9051330000000064
20
-49.1466840000000005
11
150.9456720000000018
21
-48.9953900000000004
0
LINE
8
BLACK
6
CONTINUOUS
10
150.9456720000000018
20
-48.9953900000000004
11
151.0239880000000028
21
-48.8597429999999946
0
LINE
8
BLACK
6
CONTINUOUS
10
151.0239880000000028
20
-48.8597429999999946
11
151.1347429999999861
21
-48.7489879999999971
0
LINE
8
BLACK
6
CONTINUOUS
10
151.1347429999999861
20
-48.7489879999999971
11
151.2703899999999919
21
-48.6706719999999962
0
LINE
8
BLACK
6
CONTINUOUS
10
151.2703899999999919
20
-48.6706719999999962
11
151.4216839999999991
21
-48.6301330000000007
0
LINE
8
BLACK
6
CONTINUOUS
10
151.4216839999999991
20
-48.6301330000000007
11
151.5783160000000009
21
-48.6301330000000007
0
LINE
8
BLACK
6
CONTINUOUS
10
151.5783160000000009
20
-48.6301330000000007
11
151.7296099999999797
21
-48.6706719999999962
0
LINE
8
BLACK
6
CONTINUOUS
10
156.4556379999999933
20
-40.4769030000000001
11
156.4691679999999963
21
-40.4904329999999959
0
LINE
8
BLACK
6
CONTINUOUS
10
156.4691679999999963
20
-40.4904329999999959
11
156.4710709999999949
21
-40.5
0
LINE
8
BLACK
6
CONTINUOUS
10
156.4710709999999949
20
-40.5
11
156.4710709999999949
21
-78.7999999999999972
0
LINE
8
BLACK
6
CONTINUOUS
10
156.4710709999999949
20
-78.7999999999999972
11
156.4691679999999963
21
-78.8095670000000013
0
LINE
8
BLACK
6
CONTINUOUS
10
156.4691679999999963
20
-78.8095670000000013
11
156.4556379999999933
21
-78.82309699999999
0
LINE
8
BLACK
6
CONTINUOUS
10
156.4556379999999933
20
-78.82309699999999
11
156.4460709999999892
21
-78.8250000000000028
0
LINE
8
BLACK
6
CONTINUOUS
10
156.4460709999999892
20
-78.8250000000000028
11
145.4000000000000057
21
-78.8250000000000028
0
LINE
8
BLACK
6
CONTINUOUS
10
145.4000000000000057
20
-78.8250000000000028
11
145.3904330000000016
21
-78.82309699999999
0
LINE
8
BLACK
6
CONTINUOUS
10
145.3904330000000016
20
-78.82309699999999
11
145.3769029999999987
21
-78.8095670000000013
0
LINE
8
BLACK
6
CONTINUOUS
10
145.3769029999999987
20
-78.8095670000000013
11
145.375
21
-78.7999999999999972
0
LINE
8
BLACK
6
CONTINUOUS
10
145.375
20
-78.7999999999999972
11
145.375
21
-40.5
0
LINE
8
BLACK
6
CONTINUOUS
10
145.375
20
-40.5
11
145.3769029999999987
21
-40.4904329999999959
0
LINE
8
BLACK
6
CONTINUOUS
10
145.3769029999999987
20
-40.4904329999999959
11
145.3904330000000016
21
-40.4769030000000001
0
LINE
8
BLACK
6
CONTINUOUS
10
145.3904330000000016
20
-40.4769030000000001
11
145.4000000000000057
21
-40.4750000000000014
0
LINE
8
BLACK
6
CONTINUOUS
10
145.4000000000000057
20
-40.4750000000000014
11
156.4460709999999892
21
-40.4750000000000014
0
LINE
8
BLACK
6
CONTINUOUS
10
156.4460709999999892
20
-40.4750000000000014
11
156.4556379999999933
21
-40.4769030000000001
0
LINE
8
BLACK
6
CONTINUOUS
10
145.4249999999999829
20
-40.5249999999999986
11
145.4249999999999829
21
-78.7749999999999915
0
LINE
8
BLACK
6
CONTINUOUS
10
145.4249999999999829
20
-78.7749999999999915
11
156.4210709999999835
21
-78.7749999999999915
0
LINE
8
BLACK
6
CONTINUOUS
10
156.4210709999999835
20
-78.7749999999999915
11
156.4210709999999835
21
-40.5249999999999986
0
LINE
8
BLACK
6
CONTINUOUS
10
156.4210709999999835
20
-40.5249999999999986
11
145.4249999999999829
21
-40.5249999999999986
0
CIRCLE
8
BLACK
10
152.5
20
-52.5
40
0.375
0
CIRCLE
8
BLACK
10
150.5
20
-52.5
40
0.375
0
CIRCLE
8
BLACK
10
148.5
20
-52.5
40
0.375
0
CIRCLE
8
BLACK
10
152.75
20
-66.5999999999999943
40
0.375
0
CIRCLE
8
BLACK
10
150.75
20
-66.5999999999999943
40
0.375
0
CIRCLE
8
BLACK
10
148.75
20
-66.5999999999999943
40
0.375
0
CIRCLE
8
BLACK
10
154.5799999999999841
20
-63.4405000000000001
40
0.4
0
CIRCLE
8
BLACK
10
152.039999999999992
20
-63.4405000000000001
40
0.4
0
CIRCLE
8
BLACK
10
149.5
20
-63.4405000000000001
40
0.4
0
CIRCLE
8
BLACK
10
146.9599999999999795
20
-63.4405000000000001
40
0.4
0
CIRCLE
8
BLACK
10
146.9599999999999795
20
-55.8204999999999956
40
0.4
0
CIRCLE
8
BLACK
10
149.5
20
-55.8204999999999956
40
0.4
0
CIRCLE
8
BLACK
10
152.039999999999992
20
-55.8204999999999956
40
0.4
0
CIRCLE
8
BLACK
10
154.5799999999999841
20
-55.8204999999999956
40
0.4
0
CIRCLE
8
BLACK
10
148.75
20
-68.7667000000000002
40
0.375
0
CIRCLE
8
BLACK
10
150.75
20
-68.7667000000000002
40
0.375
0
CIRCLE
8
BLACK
10
152.75
20
-68.7667000000000002
40
0.375
0
CIRCLE
8
BLACK
10
149.5
20
-49.5
40
0.375
0
CIRCLE
8
BLACK
10
151.5
20
-49.5
40
0.375
0
CIRCLE
8
BLACK
10
154.5
20
-52.4989999999999952
40
0.375
0
CIRCLE
8
BLACK
10
152.5
20
-52.4989999999999952
40
0.375
0
CIRCLE
8
BLACK
10
150.5
20
-52.4989999999999952
40
0.375
0
CIRCLE
8
BLACK
10
148.5
20
-52.4989999999999952
40
0.375
0
CIRCLE
8
BLACK
10
146.5
20
-52.4989999999999952
40
0.375
0
CIRCLE
8
WHITE
10
152.5
20
-52.5
40
0.375
0
CIRCLE
8
WHITE
10
150.5
20
-52.5
40
0.375
0
CIRCLE
8
WHITE
10
148.5
20
-52.5
40
0.375
0
CIRCLE
8
WHITE
10
152.75
20
-66.5999999999999943
40
0.375
0
CIRCLE
8
WHITE
10
150.75
20
-66.5999999999999943
40
0.375
0
CIRCLE
8
WHITE
10
148.75
20
-66.5999999999999943
40
0.375
0
CIRCLE
8
WHITE
10
154.5799999999999841
20
-63.4405000000000001
40
0.4
0
CIRCLE
8
WHITE
10
152.039999999999992
20
-63.4405000000000001
40
0.4
0
CIRCLE
8
WHITE
10
149.5
20
-63.4405000000000001
40
0.4
0
CIRCLE
8
WHITE
10
146.9599999999999795
20
-63.4405000000000001
40
0.4
0
CIRCLE
8
WHITE
10
146.9599999999999795
20
-55.8204999999999956
40
0.4
0
CIRCLE
8
WHITE
10
149.5
20
-55.8204999999999956
40
0.4
0
CIRCLE
8
WHITE
10
152.039999999999992
20
-55.8204999999999956
40
0.4
0
CIRCLE
8
WHITE
10
154.5799999999999841
20
-55.8204999999999956
40
0.4
0
CIRCLE
8
WHITE
10
148.75
20
-68.7667000000000002
40
0.375
0
CIRCLE
8
WHITE
10
150.75
20
-68.7667000000000002
40
0.375
0
CIRCLE
8
WHITE
10
152.75
20
-68.7667000000000002
40
0.375
0
CIRCLE
8
WHITE
10
149.5
20
-49.5
40
0.375
0
CIRCLE
8
WHITE
10
151.5
20
-49.5
40
0.375
0
CIRCLE
8
WHITE
10
154.5
20
-52.4989999999999952
40
0.375
0
CIRCLE
8
WHITE
10
152.5
20
-52.4989999999999952
40
0.375
0
CIRCLE
8
WHITE
10
150.5
20
-52.4989999999999952
40
0.375
0
CIRCLE
8
WHITE
10
148.5
20
-52.4989999999999952
40
0.375
0
CIRCLE
8
WHITE
10
146.5
20
-52.4989999999999952
40
0.375
  0
ENDSEC
  0
EOF
