  0
SECTION
  2
HEADER
  9
$ANGBASE
  50
0.0
  9
$ANGDIR
  70
1
  9
$MEASUREMENT
  70
1
  0
ENDSEC
  0
SECTION
  2
TABLES
  0
TABLE
  2
LTYPE
  70
4
  0
LTYPE
  5
40F
  2
CONTINUOUS
  70
0
  3
Solid line
  72
65
  73
0
  40
0.0
  0
LTYPE
  5
410
  2
DASHDOT
 70
0
  3
Dash Dot ____ _ ____ _
 72
65
 73
4
 40
2.0
 49
1.25
 49
-0.25
 49
0.25
 49
-0.25
  0
LTYPE
  5
411
  2
DASHED
 70
0
  3
Dashed __ __ __ __ __
 72
65
 73
2
 40
0.75
 49
0.5
 49
-0.25
  0
LTYPE
  5
43B
  2
DOTTED
 70
0
  3
Dotted .  .  .  .
 72
65
 73
2
 40
0.2
 49
0.0
 49
-0.2
  0
ENDTAB
  0
TABLE
  2
STYLE
  70
4
  0
STYLE
  2
KICAD
  70
0
  40
0
  41
1
  42
1
  50
0
  71
0
  3
isocp.shx
  0
STYLE
  2
KICADB
  70
0
  40
0
  41
1
  42
1
  50
0
  71
0
  3
isocp.shx
  0
STYLE
  2
KICADI
  70
0
  40
0
  41
1
  42
1
  50
15
  71
0
  3
isocp.shx
  0
STYLE
  2
KICADBI
  70
0
  40
0
  41
1
  42
1
  50
15
  71
0
  3
isocp.shx
  0
ENDTAB
  0
TABLE
  2
LAYER
  70
1
  0
LAYER
  2
BLACK
  70
0
  62
7
  6
CONTINUOUS
  0
ENDTAB
  0
ENDSEC
  0
SECTION
  2
ENTITIES
0
LINE
8
BLACK
6
CONTINUOUS
10
147.1922280000000001
20
-62.6749480000000005
11
147.3371170000000063
21
-62.7349630000000005
0
LINE
8
BLACK
6
CONTINUOUS
10
147.3371170000000063
20
-62.7349630000000005
11
147.4675149999999917
21
-62.8220919999999978
0
LINE
8
BLACK
6
CONTINUOUS
10
147.4675149999999917
20
-62.8220919999999978
11
147.578407999999996
21
-62.9329849999999951
0
LINE
8
BLACK
6
CONTINUOUS
10
147.578407999999996
20
-62.9329849999999951
11
147.6655370000000005
21
-63.0633829999999946
0
LINE
8
BLACK
6
CONTINUOUS
10
147.6655370000000005
20
-63.0633829999999946
11
147.7255519999999933
21
-63.2082719999999938
0
LINE
8
BLACK
6
CONTINUOUS
10
147.7255519999999933
20
-63.2082719999999938
11
147.756147999999996
21
-63.3620859999999979
0
LINE
8
BLACK
6
CONTINUOUS
10
147.756147999999996
20
-63.3620859999999979
11
147.756147999999996
21
-63.5189139999999952
0
LINE
8
BLACK
6
CONTINUOUS
10
147.756147999999996
20
-63.5189139999999952
11
147.7392099999999857
21
-63.6040599999999969
0
LINE
8
BLACK
6
CONTINUOUS
10
147.7392099999999857
20
-63.6040599999999969
11
147.7399020000000007
21
-63.6075579999999974
0
LINE
8
BLACK
6
CONTINUOUS
10
147.7399020000000007
20
-63.6075579999999974
11
147.7392580000000066
21
-63.6096919999999955
0
LINE
8
BLACK
6
CONTINUOUS
10
147.7392580000000066
20
-63.6096919999999955
11
147.7369869999999992
21
-63.6152409999999975
0
LINE
8
BLACK
6
CONTINUOUS
10
147.7369869999999992
20
-63.6152409999999975
11
147.7255519999999933
21
-63.6727279999999993
0
LINE
8
BLACK
6
CONTINUOUS
10
147.7255519999999933
20
-63.6727279999999993
11
147.6655370000000005
21
-63.8176169999999985
0
LINE
8
BLACK
6
CONTINUOUS
10
147.6655370000000005
20
-63.8176169999999985
11
147.636193999999989
21
-63.8615309999999994
0
LINE
8
BLACK
6
CONTINUOUS
10
147.636193999999989
20
-63.8615309999999994
11
147.1629749999999888
21
-65.0178590000000014
0
LINE
8
BLACK
6
CONTINUOUS
10
147.1629749999999888
20
-65.0178590000000014
11
147.1599999999999966
21
-65.0208590000000015
0
LINE
8
BLACK
6
CONTINUOUS
10
147.1599999999999966
20
-65.0208590000000015
11
147.1599999999999966
21
-69.0017610000000019
0
LINE
8
BLACK
6
CONTINUOUS
10
147.1599999999999966
20
-69.0017610000000019
11
149.3082389999999862
21
-71.1499999999999915
0
LINE
8
BLACK
6
CONTINUOUS
10
149.3082389999999862
20
-71.1499999999999915
11
151.9171580000000006
21
-71.1499999999999915
0
LINE
8
BLACK
6
CONTINUOUS
10
151.9171580000000006
20
-71.1499999999999915
11
152.7999999999999829
21
-70.2671569999999974
0
LINE
8
BLACK
6
CONTINUOUS
10
152.7999999999999829
20
-70.2671569999999974
11
152.7999999999999829
21
-70.2393979999999942
0
LINE
8
BLACK
6
CONTINUOUS
10
152.7999999999999829
20
-70.2393979999999942
11
152.7972839999999906
21
-70.2382729999999924
0
LINE
8
BLACK
6
CONTINUOUS
10
152.7972839999999906
20
-70.2382729999999924
11
152.7964889999999798
21
-70.2373939999999948
0
LINE
8
BLACK
6
CONTINUOUS
10
152.7964889999999798
20
-70.2373939999999948
11
152.2893379999999866
21
-69.6154420000000016
0
LINE
8
BLACK
6
CONTINUOUS
10
152.2893379999999866
20
-69.6154420000000016
11
152.2882919999999842
21
-69.6119539999999972
0
LINE
8
BLACK
6
CONTINUOUS
10
152.2882919999999842
20
-69.6119539999999972
11
152.2232229999999902
21
-69.5684770000000015
0
LINE
8
BLACK
6
CONTINUOUS
10
152.2232229999999902
20
-69.5684770000000015
11
152.1690299999999922
21
-69.487370999999996
0
LINE
8
BLACK
6
CONTINUOUS
10
152.1690299999999922
20
-69.487370999999996
11
152.1500000000000057
21
-69.3917000000000002
0
LINE
8
BLACK
6
CONTINUOUS
10
152.1500000000000057
20
-69.3917000000000002
11
152.1500000000000057
21
-68.1417000000000002
0
LINE
8
BLACK
6
CONTINUOUS
10
152.1500000000000057
20
-68.1417000000000002
11
152.1690299999999922
21
-68.0460289999999901
0
LINE
8
BLACK
6
CONTINUOUS
10
152.1690299999999922
20
-68.0460289999999901
11
152.2232229999999902
21
-67.9649229999999989
0
LINE
8
BLACK
6
CONTINUOUS
10
152.2232229999999902
20
-67.9649229999999989
11
152.3043289999999956
21
-67.9107300000000009
0
LINE
8
BLACK
6
CONTINUOUS
10
152.3043289999999956
20
-67.9107300000000009
11
152.4000000000000057
21
-67.8917000000000002
0
LINE
8
BLACK
6
CONTINUOUS
10
152.4000000000000057
20
-67.8917000000000002
11
153.0999999999999943
21
-67.8917000000000002
0
LINE
8
BLACK
6
CONTINUOUS
10
153.0999999999999943
20
-67.8917000000000002
11
153.1956710000000044
21
-67.9107300000000009
0
LINE
8
BLACK
6
CONTINUOUS
10
153.1956710000000044
20
-67.9107300000000009
11
153.2767769999999814
21
-67.9649229999999989
0
LINE
8
BLACK
6
CONTINUOUS
10
153.2767769999999814
20
-67.9649229999999989
11
153.3309699999999793
21
-68.0460289999999901
0
LINE
8
BLACK
6
CONTINUOUS
10
153.3309699999999793
20
-68.0460289999999901
11
153.3499999999999943
21
-68.1417000000000002
0
LINE
8
BLACK
6
CONTINUOUS
10
153.3499999999999943
20
-68.1417000000000002
11
153.3499999999999943
21
-69.3917000000000002
0
LINE
8
BLACK
6
CONTINUOUS
10
153.3499999999999943
20
-69.3917000000000002
11
153.3490939999999796
21
-69.3962499999999949
0
LINE
8
BLACK
6
CONTINUOUS
10
153.3490939999999796
20
-69.3962499999999949
11
153.3489679999999851
21
-69.3975439999999963
0
LINE
8
BLACK
6
CONTINUOUS
10
153.3489679999999851
20
-69.3975439999999963
11
153.2017060000000015
21
-70.2320330000000013
0
LINE
8
BLACK
6
CONTINUOUS
10
153.2017060000000015
20
-70.2320330000000013
11
153.1999999999999886
21
-70.2347099999999926
0
LINE
8
BLACK
6
CONTINUOUS
10
153.1999999999999886
20
-70.2347099999999926
11
153.1999999999999886
21
-70.3499999999999943
0
LINE
8
BLACK
6
CONTINUOUS
10
153.1999999999999886
20
-70.3499999999999943
11
153.1961569999999995
21
-70.389017999999993
0
LINE
8
BLACK
6
CONTINUOUS
10
153.1961569999999995
20
-70.389017999999993
11
153.1662939999999935
21
-70.4611139999999949
0
LINE
8
BLACK
6
CONTINUOUS
10
153.1662939999999935
20
-70.4611139999999949
11
153.1414220000000057
21
-70.4914210000000026
0
LINE
8
BLACK
6
CONTINUOUS
10
153.1414220000000057
20
-70.4914210000000026
11
152.1414209999999798
21
-71.4914210000000026
0
LINE
8
BLACK
6
CONTINUOUS
10
152.1414209999999798
20
-71.4914210000000026
11
152.1111139999999864
21
-71.516294000000002
0
LINE
8
BLACK
6
CONTINUOUS
10
152.1111139999999864
20
-71.516294000000002
11
152.0390179999999987
21
-71.5461569999999938
0
LINE
8
BLACK
6
CONTINUOUS
10
152.0390179999999987
20
-71.5461569999999938
11
152.
21
-71.5499999999999972
0
LINE
8
BLACK
6
CONTINUOUS
10
152.
20
-71.5499999999999972
11
149.2253969999999867
21
-71.5499999999999972
0
LINE
8
BLACK
6
CONTINUOUS
10
149.2253969999999867
20
-71.5499999999999972
11
149.1863789999999881
21
-71.5461569999999938
0
LINE
8
BLACK
6
CONTINUOUS
10
149.1863789999999881
20
-71.5461569999999938
11
149.1142830000000004
21
-71.516294000000002
0
LINE
8
BLACK
6
CONTINUOUS
10
149.1142830000000004
20
-71.516294000000002
11
149.0839760000000069
21
-71.4914210000000026
0
LINE
8
BLACK
6
CONTINUOUS
10
149.0839760000000069
20
-71.4914210000000026
11
147.0925330000000031
21
-69.4999779999999987
0
LINE
8
BLACK
6
CONTINUOUS
10
147.0925330000000031
20
-69.4999779999999987
11
147.0711139999999943
21
-69.5213969999999932
0
LINE
8
BLACK
6
CONTINUOUS
10
147.0711139999999943
20
-69.5213969999999932
11
146.9990180000000066
21
-69.5512599999999992
0
LINE
8
BLACK
6
CONTINUOUS
10
146.9990180000000066
20
-69.5512599999999992
11
146.9209819999999809
21
-69.5512599999999992
0
LINE
8
BLACK
6
CONTINUOUS
10
146.9209819999999809
20
-69.5512599999999992
11
146.8488859999999931
21
-69.5213969999999932
0
LINE
8
BLACK
6
CONTINUOUS
10
146.8488859999999931
20
-69.5213969999999932
11
146.793705999999986
21
-69.4662170000000003
0
LINE
8
BLACK
6
CONTINUOUS
10
146.793705999999986
20
-69.4662170000000003
11
146.7638429999999801
21
-69.3941209999999984
0
LINE
8
BLACK
6
CONTINUOUS
10
146.7638429999999801
20
-69.3941209999999984
11
146.7599999999999909
21
-69.3551029999999997
0
LINE
8
BLACK
6
CONTINUOUS
10
146.7599999999999909
20
-69.3551029999999997
11
146.7599999999999909
21
-65.0218739999999968
0
LINE
8
BLACK
6
CONTINUOUS
10
146.7599999999999909
20
-65.0218739999999968
11
146.7595799999999997
21
-65.0217009999999931
0
LINE
8
BLACK
6
CONTINUOUS
10
146.7595799999999997
20
-65.0217009999999931
11
146.7570249999999987
21
-65.0178590000000014
0
LINE
8
BLACK
6
CONTINUOUS
10
146.7570249999999987
20
-65.0178590000000014
11
146.283803000000006
21
-63.8615279999999998
0
LINE
8
BLACK
6
CONTINUOUS
10
146.283803000000006
20
-63.8615279999999998
11
146.254462999999987
21
-63.8176169999999985
0
LINE
8
BLACK
6
CONTINUOUS
10
146.254462999999987
20
-63.8176169999999985
11
146.1944479999999942
21
-63.6727279999999993
0
LINE
8
BLACK
6
CONTINUOUS
10
146.1944479999999942
20
-63.6727279999999993
11
146.1830129999999883
21
-63.6152449999999945
0
LINE
8
BLACK
6
CONTINUOUS
10
146.1830129999999883
20
-63.6152449999999945
11
146.1807409999999834
21
-63.6096919999999955
0
LINE
8
BLACK
6
CONTINUOUS
10
146.1807409999999834
20
-63.6096919999999955
11
146.1807649999999796
21
-63.6039419999999964
0
LINE
8
BLACK
6
CONTINUOUS
10
146.1807649999999796
20
-63.6039419999999964
11
146.1638519999999914
21
-63.5189139999999952
0
LINE
8
BLACK
6
CONTINUOUS
10
146.1638519999999914
20
-63.5189139999999952
11
146.1638519999999914
21
-63.3620859999999979
0
LINE
8
BLACK
6
CONTINUOUS
10
146.1638519999999914
20
-63.3620859999999979
11
146.1944479999999942
21
-63.2082719999999938
0
LINE
8
BLACK
6
CONTINUOUS
10
146.1944479999999942
20
-63.2082719999999938
11
146.254462999999987
21
-63.0633829999999946
0
LINE
8
BLACK
6
CONTINUOUS
10
146.254462999999987
20
-63.0633829999999946
11
146.3415919999999915
21
-62.9329849999999951
0
LINE
8
BLACK
6
CONTINUOUS
10
146.3415919999999915
20
-62.9329849999999951
11
146.4524849999999958
21
-62.8220919999999978
0
LINE
8
BLACK
6
CONTINUOUS
10
146.4524849999999958
20
-62.8220919999999978
11
146.5828829999999812
21
-62.7349630000000005
0
LINE
8
BLACK
6
CONTINUOUS
10
146.5828829999999812
20
-62.7349630000000005
11
146.7277719999999874
21
-62.6749480000000005
0
LINE
8
BLACK
6
CONTINUOUS
10
146.7277719999999874
20
-62.6749480000000005
11
146.8815859999999986
21
-62.6443519999999978
0
LINE
8
BLACK
6
CONTINUOUS
10
146.8815859999999986
20
-62.6443519999999978
11
147.0384139999999888
21
-62.6443519999999978
0
LINE
8
BLACK
6
CONTINUOUS
10
147.0384139999999888
20
-62.6443519999999978
11
147.1922280000000001
21
-62.6749480000000005
0
LINE
8
BLACK
6
CONTINUOUS
10
151.7296099999999797
20
-48.6706719999999962
11
151.8652569999999855
21
-48.7489879999999971
0
LINE
8
BLACK
6
CONTINUOUS
10
151.8652569999999855
20
-48.7489879999999971
11
151.9760119999999972
21
-48.8597429999999946
0
LINE
8
BLACK
6
CONTINUOUS
10
151.9760119999999972
20
-48.8597429999999946
11
152.0018409999999847
21
-48.9044799999999995
0
LINE
8
BLACK
6
CONTINUOUS
10
152.0018409999999847
20
-48.9044799999999995
11
152.00398899999999
21
-48.9033629999999988
0
LINE
8
BLACK
6
CONTINUOUS
10
152.00398899999999
20
-48.9033629999999988
11
152.0108259999999802
21
-48.9048669999999959
0
LINE
8
BLACK
6
CONTINUOUS
10
152.0108259999999802
20
-48.9048669999999959
11
152.6941190000000006
21
-49.2966279999999983
0
LINE
8
BLACK
6
CONTINUOUS
10
152.6941190000000006
20
-49.2966279999999983
11
152.6967229999999915
21
-49.2999999999999972
0
LINE
8
BLACK
6
CONTINUOUS
10
152.6967229999999915
20
-49.2999999999999972
11
154.5
21
-49.2999999999999972
0
LINE
8
BLACK
6
CONTINUOUS
10
154.5
20
-49.2999999999999972
11
154.5390179999999987
21
-49.3038430000000005
0
LINE
8
BLACK
6
CONTINUOUS
10
154.5390179999999987
20
-49.3038430000000005
11
154.6111139999999864
21
-49.3337059999999994
0
LINE
8
BLACK
6
CONTINUOUS
10
154.6111139999999864
20
-49.3337059999999994
11
154.6662939999999935
21
-49.3888859999999994
0
LINE
8
BLACK
6
CONTINUOUS
10
154.6662939999999935
20
-49.3888859999999994
11
154.6961569999999995
21
-49.4609819999999942
0
LINE
8
BLACK
6
CONTINUOUS
10
154.6961569999999995
20
-49.4609819999999942
11
154.6999999999999886
21
-49.5
0
LINE
8
BLACK
6
CONTINUOUS
10
154.6999999999999886
20
-49.5
11
154.6999999999999886
21
-51.0269819999999967
0
LINE
8
BLACK
6
CONTINUOUS
10
154.6999999999999886
20
-51.0269819999999967
11
154.7010740000000055
21
-51.0274269999999959
0
LINE
8
BLACK
6
CONTINUOUS
10
154.7010740000000055
20
-51.0274269999999959
11
154.7032449999999812
21
-51.0304259999999985
0
LINE
8
BLACK
6
CONTINUOUS
10
154.7032449999999812
20
-51.0304259999999985
11
155.0775679999999852
21
-51.7715949999999978
0
LINE
8
BLACK
6
CONTINUOUS
10
155.0775679999999852
20
-51.7715949999999978
11
155.0777060000000063
21
-51.7734449999999953
0
LINE
8
BLACK
6
CONTINUOUS
10
155.0777060000000063
20
-51.7734449999999953
11
155.0809699999999793
21
-51.7783289999999994
0
LINE
8
BLACK
6
CONTINUOUS
10
155.0809699999999793
20
-51.7783289999999994
11
155.0999999999999943
21
-51.8739999999999952
0
LINE
8
BLACK
6
CONTINUOUS
10
155.0999999999999943
20
-51.8739999999999952
11
155.0999999999999943
21
-52.2558379999999971
0
LINE
8
BLACK
6
CONTINUOUS
10
155.0999999999999943
20
-52.2558379999999971
11
155.1048639999999921
21
-52.2603779999999958
0
LINE
8
BLACK
6
CONTINUOUS
10
155.1048639999999921
20
-52.2603779999999958
11
155.6619169999999883
21
-53.3752999999999957
0
LINE
8
BLACK
6
CONTINUOUS
10
155.6619169999999883
20
-53.3752999999999957
11
155.6622040000000027
21
-53.3793620000000004
0
LINE
8
BLACK
6
CONTINUOUS
10
155.6622040000000027
20
-53.3793620000000004
11
155.9224219999999832
21
-53.6395789999999977
0
LINE
8
BLACK
6
CONTINUOUS
10
155.9224219999999832
20
-53.6395789999999977
11
155.9472939999999994
21
-53.6698859999999982
0
LINE
8
BLACK
6
CONTINUOUS
10
155.9472939999999994
20
-53.6698859999999982
11
155.9771570000000054
21
-53.7419820000000001
0
LINE
8
BLACK
6
CONTINUOUS
10
155.9771570000000054
20
-53.7419820000000001
11
155.9809999999999945
21
-53.7809999999999988
0
LINE
8
BLACK
6
CONTINUOUS
10
155.9809999999999945
20
-53.7809999999999988
11
155.9809999999999945
21
-56.8384999999999962
0
LINE
8
BLACK
6
CONTINUOUS
10
155.9809999999999945
20
-56.8384999999999962
11
155.9771570000000054
21
-56.8775179999999949
0
LINE
8
BLACK
6
CONTINUOUS
10
155.9771570000000054
20
-56.8775179999999949
11
155.9472939999999994
21
-56.9496139999999968
0
LINE
8
BLACK
6
CONTINUOUS
10
155.9472939999999994
20
-56.9496139999999968
11
155.9472879999999861
21
-56.9496189999999984
0
LINE
8
BLACK
6
CONTINUOUS
10
155.9472879999999861
20
-56.9496189999999984
11
155.9224209999999857
21
-56.9799219999999949
0
LINE
8
BLACK
6
CONTINUOUS
10
155.9224209999999857
20
-56.9799219999999949
11
154.7800000000000011
21
-58.1223419999999962
0
LINE
8
BLACK
6
CONTINUOUS
10
154.7800000000000011
20
-58.1223419999999962
11
154.7800000000000011
21
-61.8591249999999988
0
LINE
8
BLACK
6
CONTINUOUS
10
154.7800000000000011
20
-61.8591249999999988
11
154.7804199999999923
21
-61.859299
0
LINE
8
BLACK
6
CONTINUOUS
10
154.7804199999999923
20
-61.859299
11
154.7829749999999933
21
-61.8631409999999988
0
LINE
8
BLACK
6
CONTINUOUS
10
154.7829749999999933
20
-61.8631409999999988
11
155.2561949999999911
21
-63.0194689999999937
0
LINE
8
BLACK
6
CONTINUOUS
10
155.2561949999999911
20
-63.0194689999999937
11
155.285537000000005
21
-63.0633829999999946
0
LINE
8
BLACK
6
CONTINUOUS
10
155.285537000000005
20
-63.0633829999999946
11
155.3455519999999979
21
-63.2082719999999938
0
LINE
8
BLACK
6
CONTINUOUS
10
155.3455519999999979
20
-63.2082719999999938
11
155.3569860000000062
21
-63.2657559999999961
0
LINE
8
BLACK
6
CONTINUOUS
10
155.3569860000000062
20
-63.2657559999999961
11
155.3592579999999828
21
-63.2713070000000002
0
LINE
8
BLACK
6
CONTINUOUS
10
155.3592579999999828
20
-63.2713070000000002
11
155.359232999999989
21
-63.2770529999999951
0
LINE
8
BLACK
6
CONTINUOUS
10
155.359232999999989
20
-63.2770529999999951
11
155.3761480000000006
21
-63.3620859999999979
0
LINE
8
BLACK
6
CONTINUOUS
10
155.3761480000000006
20
-63.3620859999999979
11
155.3761480000000006
21
-63.5189139999999952
0
LINE
8
BLACK
6
CONTINUOUS
10
155.3761480000000006
20
-63.5189139999999952
11
155.3592099999999903
21
-63.6040599999999969
0
LINE
8
BLACK
6
CONTINUOUS
10
155.3592099999999903
20
-63.6040599999999969
11
155.3599020000000053
21
-63.6075579999999974
0
LINE
8
BLACK
6
CONTINUOUS
10
155.3599020000000053
20
-63.6075579999999974
11
155.3592579999999828
21
-63.6096919999999955
0
LINE
8
BLACK
6
CONTINUOUS
10
155.3592579999999828
20
-63.6096919999999955
11
155.3569870000000037
21
-63.6152409999999975
0
LINE
8
BLACK
6
CONTINUOUS
10
155.3569870000000037
20
-63.6152409999999975
11
155.3455519999999979
21
-63.6727279999999993
0
LINE
8
BLACK
6
CONTINUOUS
10
155.3455519999999979
20
-63.6727279999999993
11
155.285537000000005
21
-63.8176169999999985
0
LINE
8
BLACK
6
CONTINUOUS
10
155.285537000000005
20
-63.8176169999999985
11
155.2561939999999936
21
-63.8615309999999994
0
LINE
8
BLACK
6
CONTINUOUS
10
155.2561939999999936
20
-63.8615309999999994
11
154.7829749999999933
21
-65.0178590000000014
0
LINE
8
BLACK
6
CONTINUOUS
10
154.7829749999999933
20
-65.0178590000000014
11
154.7800000000000011
21
-65.0208590000000015
0
LINE
8
BLACK
6
CONTINUOUS
10
154.7800000000000011
20
-65.0208590000000015
11
154.7800000000000011
21
-65.3199999999999932
0
LINE
8
BLACK
6
CONTINUOUS
10
154.7800000000000011
20
-65.3199999999999932
11
154.7761569999999836
21
-65.3590179999999918
0
LINE
8
BLACK
6
CONTINUOUS
10
154.7761569999999836
20
-65.3590179999999918
11
154.746294000000006
21
-65.4311139999999938
0
LINE
8
BLACK
6
CONTINUOUS
10
154.746294000000006
20
-65.4311139999999938
11
154.6911139999999989
21
-65.4862940000000009
0
LINE
8
BLACK
6
CONTINUOUS
10
154.6911139999999989
20
-65.4862940000000009
11
154.6190179999999827
21
-65.5161569999999926
0
LINE
8
BLACK
6
CONTINUOUS
10
154.6190179999999827
20
-65.5161569999999926
11
154.5799999999999841
21
-65.519999999999996
0
LINE
8
BLACK
6
CONTINUOUS
10
154.5799999999999841
20
-65.519999999999996
11
154.112842999999998
21
-65.519999999999996
0
LINE
8
BLACK
6
CONTINUOUS
10
154.112842999999998
20
-65.519999999999996
11
153.844223999999997
21
-65.7886179999999996
0
LINE
8
BLACK
6
CONTINUOUS
10
153.844223999999997
20
-65.7886179999999996
11
153.8442540000000065
21
-65.7886889999999909
0
LINE
8
BLACK
6
CONTINUOUS
10
153.8442540000000065
20
-65.7886889999999909
11
153.8431530000000009
21
-65.7936440000000005
0
LINE
8
BLACK
6
CONTINUOUS
10
153.8431530000000009
20
-65.7936440000000005
11
153.3547319999999843
21
-66.8384049999999945
0
LINE
8
BLACK
6
CONTINUOUS
10
153.3547319999999843
20
-66.8384049999999945
11
153.3499999999999943
21
-66.842731999999998
0
LINE
8
BLACK
6
CONTINUOUS
10
153.3499999999999943
20
-66.842731999999998
11
153.3499999999999943
21
-66.875
0
LINE
8
BLACK
6
CONTINUOUS
10
153.3499999999999943
20
-66.875
11
153.3448669999999936
21
-66.9533160000000009
0
LINE
8
BLACK
6
CONTINUOUS
10
153.3448669999999936
20
-66.9533160000000009
11
153.3043279999999982
21
-67.1046099999999939
0
LINE
8
BLACK
6
CONTINUOUS
10
153.3043279999999982
20
-67.1046099999999939
11
153.2260119999999972
21
-67.2402569999999997
0
LINE
8
BLACK
6
CONTINUOUS
10
153.2260119999999972
20
-67.2402569999999997
11
153.1152569999999855
21
-67.3510119999999972
0
LINE
8
BLACK
6
CONTINUOUS
10
153.1152569999999855
20
-67.3510119999999972
11
152.9796099999999797
21
-67.4293279999999982
0
LINE
8
BLACK
6
CONTINUOUS
10
152.9796099999999797
20
-67.4293279999999982
11
152.8283160000000009
21
-67.4698669999999936
0
LINE
8
BLACK
6
CONTINUOUS
10
152.8283160000000009
20
-67.4698669999999936
11
152.710819999999984
21
-67.4698669999999936
0
LINE
8
BLACK
6
CONTINUOUS
10
152.710819999999984
20
-67.4698669999999936
11
151.9250399999999956
21
-67.6772330000000011
0
LINE
8
BLACK
6
CONTINUOUS
10
151.9250399999999956
20
-67.6772330000000011
11
151.9244679999999903
21
-67.6771549999999991
0
LINE
8
BLACK
6
CONTINUOUS
10
151.9244679999999903
20
-67.6771549999999991
11
151.9244679999999903
21
-69.4599039999999945
0
LINE
8
BLACK
6
CONTINUOUS
10
151.9244679999999903
20
-69.4599039999999945
11
151.9456250000000068
21
-69.5109819999999985
0
LINE
8
BLACK
6
CONTINUOUS
10
151.9456250000000068
20
-69.5109819999999985
11
151.9456250000000068
21
-69.5890179999999958
0
LINE
8
BLACK
6
CONTINUOUS
10
151.9456250000000068
20
-69.5890179999999958
11
151.9157620000000009
21
-69.6611139999999978
0
LINE
8
BLACK
6
CONTINUOUS
10
151.9157620000000009
20
-69.6611139999999978
11
151.8908889999999872
21
-69.6914209999999912
0
LINE
8
BLACK
6
CONTINUOUS
10
151.8908889999999872
20
-69.6914209999999912
11
151.2908889999999928
21
-70.2914209999999997
0
LINE
8
BLACK
6
CONTINUOUS
10
151.2908889999999928
20
-70.2914209999999997
11
151.2605819999999994
21
-70.3162939999999992
0
LINE
8
BLACK
6
CONTINUOUS
10
151.2605819999999994
20
-70.3162939999999992
11
151.1884859999999833
21
-70.3461569999999909
0
LINE
8
BLACK
6
CONTINUOUS
10
151.1884859999999833
20
-70.3461569999999909
11
151.1494679999999846
21
-70.3499999999999943
0
LINE
8
BLACK
6
CONTINUOUS
10
151.1494679999999846
20
-70.3499999999999943
11
150.1332999999999913
21
-70.3499999999999943
0
LINE
8
BLACK
6
CONTINUOUS
10
150.1332999999999913
20
-70.3499999999999943
11
150.0942819999999926
21
-70.3461569999999909
0
LINE
8
BLACK
6
CONTINUOUS
10
150.0942819999999926
20
-70.3461569999999909
11
150.0221860000000049
21
-70.3162939999999992
0
LINE
8
BLACK
6
CONTINUOUS
10
150.0221860000000049
20
-70.3162939999999992
11
149.9918789999999831
21
-70.2914219999999972
0
LINE
8
BLACK
6
CONTINUOUS
10
149.9918789999999831
20
-70.2914219999999972
11
149.5617539999999792
21
-69.8612969999999933
0
LINE
8
BLACK
6
CONTINUOUS
10
149.5617539999999792
20
-69.8612969999999933
11
149.5604099999999903
21
-69.8618539999999939
0
LINE
8
BLACK
6
CONTINUOUS
10
149.5604099999999903
20
-69.8618539999999939
11
149.5571319999999957
21
-69.8613849999999985
0
LINE
8
BLACK
6
CONTINUOUS
10
149.5571319999999957
20
-69.8613849999999985
11
148.7868569999999977
21
-69.6365669999999994
0
LINE
8
BLACK
6
CONTINUOUS
10
148.7868569999999977
20
-69.6365669999999994
11
148.6716839999999991
21
-69.6365669999999994
0
LINE
8
BLACK
6
CONTINUOUS
10
148.6716839999999991
20
-69.6365669999999994
11
148.5203899999999919
21
-69.5960279999999898
0
LINE
8
BLACK
6
CONTINUOUS
10
148.5203899999999919
20
-69.5960279999999898
11
148.3847429999999861
21
-69.5177120000000031
0
LINE
8
BLACK
6
CONTINUOUS
10
148.3847429999999861
20
-69.5177120000000031
11
148.2739880000000028
21
-69.4069569999999914
0
LINE
8
BLACK
6
CONTINUOUS
10
148.2739880000000028
20
-69.4069569999999914
11
148.1956720000000018
21
-69.2713099999999997
0
LINE
8
BLACK
6
CONTINUOUS
10
148.1956720000000018
20
-69.2713099999999997
11
148.1551330000000064
21
-69.1200159999999926
0
LINE
8
BLACK
6
CONTINUOUS
10
148.1551330000000064
20
-69.1200159999999926
11
148.1500000000000057
21
-69.0416999999999916
0
LINE
8
BLACK
6
CONTINUOUS
10
148.1500000000000057
20
-69.0416999999999916
11
148.1500000000000057
21
-68.4916999999999945
0
LINE
8
BLACK
6
CONTINUOUS
10
148.1500000000000057
20
-68.4916999999999945
11
148.1551330000000064
21
-68.4133839999999935
0
LINE
8
BLACK
6
CONTINUOUS
10
148.1551330000000064
20
-68.4133839999999935
11
148.1956720000000018
21
-68.2620900000000006
0
LINE
8
BLACK
6
CONTINUOUS
10
148.1956720000000018
20
-68.2620900000000006
11
148.2739880000000028
21
-68.1264429999999948
0
LINE
8
BLACK
6
CONTINUOUS
10
148.2739880000000028
20
-68.1264429999999948
11
148.3847429999999861
21
-68.0156879999999973
0
LINE
8
BLACK
6
CONTINUOUS
10
148.3847429999999861
20
-68.0156879999999973
11
148.5203899999999919
21
-67.9373719999999963
0
LINE
8
BLACK
6
CONTINUOUS
10
148.5203899999999919
20
-67.9373719999999963
11
148.6716839999999991
21
-67.8968330000000009
0
LINE
8
BLACK
6
CONTINUOUS
10
148.6716839999999991
20
-67.8968330000000009
11
148.8283160000000009
21
-67.8968330000000009
0
LINE
8
BLACK
6
CONTINUOUS
10
148.8283160000000009
20
-67.8968330000000009
11
148.9796099999999797
21
-67.9373719999999963
0
LINE
8
BLACK
6
CONTINUOUS
10
148.9796099999999797
20
-67.9373719999999963
11
149.1152569999999855
21
-68.0156879999999973
0
LINE
8
BLACK
6
CONTINUOUS
10
149.1152569999999855
20
-68.0156879999999973
11
149.2260119999999972
21
-68.1264429999999948
0
LINE
8
BLACK
6
CONTINUOUS
10
149.2260119999999972
20
-68.1264429999999948
11
149.3043279999999982
21
-68.2620900000000006
0
LINE
8
BLACK
6
CONTINUOUS
10
149.3043279999999982
20
-68.2620900000000006
11
149.3448669999999936
21
-68.4133839999999935
0
LINE
8
BLACK
6
CONTINUOUS
10
149.3448669999999936
20
-68.4133839999999935
11
149.3499999999999943
21
-68.4916999999999945
0
LINE
8
BLACK
6
CONTINUOUS
10
149.3499999999999943
20
-68.4916999999999945
11
149.3499999999999943
21
-68.5237609999999933
0
LINE
8
BLACK
6
CONTINUOUS
10
149.3499999999999943
20
-68.5237609999999933
11
149.3547319999999843
21
-68.5282940000000025
0
LINE
8
BLACK
6
CONTINUOUS
10
149.3547319999999843
20
-68.5282940000000025
11
149.8431530000000009
21
-69.5730549999999965
0
LINE
8
BLACK
6
CONTINUOUS
10
149.8431530000000009
20
-69.5730549999999965
11
149.8433369999999911
21
-69.5771939999999915
0
LINE
8
BLACK
6
CONTINUOUS
10
149.8433369999999911
20
-69.5771939999999915
11
150.2161429999999882
21
-69.9500000000000028
0
LINE
8
BLACK
6
CONTINUOUS
10
150.2161429999999882
20
-69.9500000000000028
11
151.0666259999999852
21
-69.9500000000000028
0
LINE
8
BLACK
6
CONTINUOUS
10
151.0666259999999852
20
-69.9500000000000028
11
151.574467999999996
21
-69.4421579999999921
0
LINE
8
BLACK
6
CONTINUOUS
10
151.574467999999996
20
-69.4421579999999921
11
151.574467999999996
21
-67.6005320000000012
0
LINE
8
BLACK
6
CONTINUOUS
10
151.574467999999996
20
-67.6005320000000012
11
151.5778310000000033
21
-67.5663909999999959
0
LINE
8
BLACK
6
CONTINUOUS
10
151.5778310000000033
20
-67.5663909999999959
11
151.6039609999999982
21
-67.5033069999999924
0
LINE
8
BLACK
6
CONTINUOUS
10
151.6039609999999982
20
-67.5033069999999924
11
151.6039649999999881
21
-67.5033019999999908
0
LINE
8
BLACK
6
CONTINUOUS
10
151.6039649999999881
20
-67.5033019999999908
11
151.6257239999999911
21
-67.4767879999999991
0
LINE
8
BLACK
6
CONTINUOUS
10
151.6257239999999911
20
-67.4767879999999991
11
151.6734009999999842
21
-67.4291099999999943
0
LINE
8
BLACK
6
CONTINUOUS
10
151.6734009999999842
20
-67.4291099999999943
11
151.6732999999999834
21
-67.4288650000000018
0
LINE
8
BLACK
6
CONTINUOUS
10
151.6732999999999834
20
-67.4288650000000018
11
151.6743029999999806
21
-67.4241260000000011
0
LINE
8
BLACK
6
CONTINUOUS
10
151.6743029999999806
20
-67.4241260000000011
11
152.1453789999999913
21
-66.3618889999999908
0
LINE
8
BLACK
6
CONTINUOUS
10
152.1453789999999913
20
-66.3618889999999908
11
152.1500000000000057
21
-66.3574899999999985
0
LINE
8
BLACK
6
CONTINUOUS
10
152.1500000000000057
20
-66.3574899999999985
11
152.1500000000000057
21
-66.3250000000000028
0
LINE
8
BLACK
6
CONTINUOUS
10
152.1500000000000057
20
-66.3250000000000028
11
152.1551330000000064
21
-66.2466840000000019
0
LINE
8
BLACK
6
CONTINUOUS
10
152.1551330000000064
20
-66.2466840000000019
11
152.1956720000000018
21
-66.0953899999999948
0
LINE
8
BLACK
6
CONTINUOUS
10
152.1956720000000018
20
-66.0953899999999948
11
152.2739880000000028
21
-65.9597430000000031
0
LINE
8
BLACK
6
CONTINUOUS
10
152.2739880000000028
20
-65.9597430000000031
11
152.3847429999999861
21
-65.8489879999999914
0
LINE
8
BLACK
6
CONTINUOUS
10
152.3847429999999861
20
-65.8489879999999914
11
152.5203899999999919
21
-65.7706719999999905
0
LINE
8
BLACK
6
CONTINUOUS
10
152.5203899999999919
20
-65.7706719999999905
11
152.6716839999999991
21
-65.730132999999995
0
LINE
8
BLACK
6
CONTINUOUS
10
152.6716839999999991
20
-65.730132999999995
11
152.7868560000000002
21
-65.730132999999995
0
LINE
8
BLACK
6
CONTINUOUS
10
152.7868560000000002
20
-65.730132999999995
11
153.5571329999999932
21
-65.5053139999999985
0
LINE
8
BLACK
6
CONTINUOUS
10
153.5571329999999932
20
-65.5053139999999985
11
153.5613789999999881
21
-65.5057769999999948
0
LINE
8
BLACK
6
CONTINUOUS
10
153.5613789999999881
20
-65.5057769999999948
11
153.8885779999999954
21
-65.1785789999999992
0
LINE
8
BLACK
6
CONTINUOUS
10
153.8885779999999954
20
-65.1785789999999992
11
153.9188859999999863
21
-65.1537059999999997
0
LINE
8
BLACK
6
CONTINUOUS
10
153.9188859999999863
20
-65.1537059999999997
11
153.9909820000000025
21
-65.1238429999999937
0
LINE
8
BLACK
6
CONTINUOUS
10
153.9909820000000025
20
-65.1238429999999937
11
154.0300000000000011
21
-65.1199999999999903
0
LINE
8
BLACK
6
CONTINUOUS
10
154.0300000000000011
20
-65.1199999999999903
11
154.3799999999999955
21
-65.1199999999999903
0
LINE
8
BLACK
6
CONTINUOUS
10
154.3799999999999955
20
-65.1199999999999903
11
154.3799999999999955
21
-65.0218739999999968
0
LINE
8
BLACK
6
CONTINUOUS
10
154.3799999999999955
20
-65.0218739999999968
11
154.3795800000000042
21
-65.0217009999999931
0
LINE
8
BLACK
6
CONTINUOUS
10
154.3795800000000042
20
-65.0217009999999931
11
154.3770250000000033
21
-65.0178590000000014
0
LINE
8
BLACK
6
CONTINUOUS
10
154.3770250000000033
20
-65.0178590000000014
11
153.9038029999999821
21
-63.8615279999999998
0
LINE
8
BLACK
6
CONTINUOUS
10
153.9038029999999821
20
-63.8615279999999998
11
153.8744629999999916
21
-63.8176169999999985
0
LINE
8
BLACK
6
CONTINUOUS
10
153.8744629999999916
20
-63.8176169999999985
11
153.8144479999999987
21
-63.6727279999999993
0
LINE
8
BLACK
6
CONTINUOUS
10
153.8144479999999987
20
-63.6727279999999993
11
153.8030129999999929
21
-63.6152449999999945
0
LINE
8
BLACK
6
CONTINUOUS
10
153.8030129999999929
20
-63.6152449999999945
11
153.8007409999999879
21
-63.6096919999999955
0
LINE
8
BLACK
6
CONTINUOUS
10
153.8007409999999879
20
-63.6096919999999955
11
153.8007649999999842
21
-63.6039419999999964
0
LINE
8
BLACK
6
CONTINUOUS
10
153.8007649999999842
20
-63.6039419999999964
11
153.783851999999996
21
-63.5189139999999952
0
LINE
8
BLACK
6
CONTINUOUS
10
153.783851999999996
20
-63.5189139999999952
11
153.783851999999996
21
-63.3620859999999979
0
LINE
8
BLACK
6
CONTINUOUS
10
153.783851999999996
20
-63.3620859999999979
11
153.800787999999983
21
-63.2769409999999937
0
LINE
8
BLACK
6
CONTINUOUS
10
153.800787999999983
20
-63.2769409999999937
11
153.8000969999999938
21
-63.2734409999999983
0
LINE
8
BLACK
6
CONTINUOUS
10
153.8000969999999938
20
-63.2734409999999983
11
153.800738999999993
21
-63.2713129999999992
0
LINE
8
BLACK
6
CONTINUOUS
10
153.800738999999993
20
-63.2713129999999992
11
153.8030129999999929
21
-63.2657539999999941
0
LINE
8
BLACK
6
CONTINUOUS
10
153.8030129999999929
20
-63.2657539999999941
11
153.8144479999999987
21
-63.2082719999999938
0
LINE
8
BLACK
6
CONTINUOUS
10
153.8144479999999987
20
-63.2082719999999938
11
153.8744629999999916
21
-63.0633829999999946
0
LINE
8
BLACK
6
CONTINUOUS
10
153.8744629999999916
20
-63.0633829999999946
11
153.9038029999999821
21
-63.0194709999999958
0
LINE
8
BLACK
6
CONTINUOUS
10
153.9038029999999821
20
-63.0194709999999958
11
154.3770250000000033
21
-61.8631399999999942
0
LINE
8
BLACK
6
CONTINUOUS
10
154.3770250000000033
20
-61.8631399999999942
11
154.3799999999999955
21
-61.8601389999999967
0
LINE
8
BLACK
6
CONTINUOUS
10
154.3799999999999955
20
-61.8601389999999967
11
154.3799999999999955
21
-58.0394999999999968
0
LINE
8
BLACK
6
CONTINUOUS
10
154.3799999999999955
20
-58.0394999999999968
11
154.3838429999999846
21
-58.0004819999999981
0
LINE
8
BLACK
6
CONTINUOUS
10
154.3838429999999846
20
-58.0004819999999981
11
154.4137059999999906
21
-57.9283859999999962
0
LINE
8
BLACK
6
CONTINUOUS
10
154.4137059999999906
20
-57.9283859999999962
11
154.4385790000000043
21
-57.8980789999999956
0
LINE
8
BLACK
6
CONTINUOUS
10
154.4385790000000043
20
-57.8980789999999956
11
155.5809999999999889
21
-56.7556569999999994
0
LINE
8
BLACK
6
CONTINUOUS
10
155.5809999999999889
20
-56.7556569999999994
11
155.5809999999999889
21
-53.8638419999999982
0
LINE
8
BLACK
6
CONTINUOUS
10
155.5809999999999889
20
-53.8638419999999982
11
155.3807079999999985
21
-53.6635509999999982
0
LINE
8
BLACK
6
CONTINUOUS
10
155.3807079999999985
20
-53.6635509999999982
11
155.3797179999999969
21
-53.6639619999999979
0
LINE
8
BLACK
6
CONTINUOUS
10
155.3797179999999969
20
-53.6639619999999979
11
155.375947999999994
21
-53.663337999999996
0
LINE
8
BLACK
6
CONTINUOUS
10
155.375947999999994
20
-53.663337999999996
11
154.8329799999999921
21
-53.4784939999999978
0
LINE
8
BLACK
6
CONTINUOUS
10
154.8329799999999921
20
-53.4784939999999978
11
154.5337079999999901
21
-53.376612999999999
0
LINE
8
BLACK
6
CONTINUOUS
10
154.5337079999999901
20
-53.376612999999999
11
154.5307339999999954
21
-53.3739999999999952
0
LINE
8
BLACK
6
CONTINUOUS
10
154.5307339999999954
20
-53.3739999999999952
11
154.1500000000000057
21
-53.3739999999999952
0
LINE
8
BLACK
6
CONTINUOUS
10
154.1500000000000057
20
-53.3739999999999952
11
154.0543289999999956
21
-53.3549699999999945
0
LINE
8
BLACK
6
CONTINUOUS
10
154.0543289999999956
20
-53.3549699999999945
11
153.9732229999999902
21
-53.3007769999999965
0
LINE
8
BLACK
6
CONTINUOUS
10
153.9732229999999902
20
-53.3007769999999965
11
153.9190299999999922
21
-53.2196709999999982
0
LINE
8
BLACK
6
CONTINUOUS
10
153.9190299999999922
20
-53.2196709999999982
11
153.9000000000000057
21
-53.1239999999999952
0
LINE
8
BLACK
6
CONTINUOUS
10
153.9000000000000057
20
-53.1239999999999952
11
153.9000000000000057
21
-51.8739999999999952
0
LINE
8
BLACK
6
CONTINUOUS
10
153.9000000000000057
20
-51.8739999999999952
11
153.9190299999999922
21
-51.7783289999999994
0
LINE
8
BLACK
6
CONTINUOUS
10
153.9190299999999922
20
-51.7783289999999994
11
153.9215580000000045
21
-51.7745439999999988
0
LINE
8
BLACK
6
CONTINUOUS
10
153.9215580000000045
20
-51.7745439999999988
11
153.9224309999999889
21
-51.7715940000000003
0
LINE
8
BLACK
6
CONTINUOUS
10
153.9224309999999889
20
-51.7715940000000003
11
154.2967549999999903
21
-51.0304259999999985
0
LINE
8
BLACK
6
CONTINUOUS
10
154.2967549999999903
20
-51.0304259999999985
11
154.2967549999999903
21
-51.0304239999999965
0
LINE
8
BLACK
6
CONTINUOUS
10
154.2967549999999903
20
-51.0304239999999965
11
154.2999999999999829
21
-51.0276329999999945
0
LINE
8
BLACK
6
CONTINUOUS
10
154.2999999999999829
20
-51.0276329999999945
11
154.2999999999999829
21
-49.6999999999999957
0
LINE
8
BLACK
6
CONTINUOUS
10
154.2999999999999829
20
-49.6999999999999957
11
152.6971920000000011
21
-49.6999999999999957
0
LINE
8
BLACK
6
CONTINUOUS
10
152.6971920000000011
20
-49.6999999999999957
11
152.6965730000000008
21
-49.7014939999999967
0
LINE
8
BLACK
6
CONTINUOUS
10
152.6965730000000008
20
-49.7014939999999967
11
152.6941190000000006
21
-49.7033709999999971
0
LINE
8
BLACK
6
CONTINUOUS
10
152.6941190000000006
20
-49.7033709999999971
11
152.0427179999999794
21
-50.0768470000000008
0
LINE
8
BLACK
6
CONTINUOUS
10
152.0427179999999794
20
-50.0768470000000008
11
151.7925899999999899
21
-50.389961999999997
0
LINE
8
BLACK
6
CONTINUOUS
10
151.7925899999999899
20
-50.389961999999997
11
151.784749000000005
21
-50.394287999999996
0
LINE
8
BLACK
6
CONTINUOUS
10
151.784749000000005
20
-50.394287999999996
11
151.7768769999999847
21
-50.3923399999999972
0
LINE
8
BLACK
6
CONTINUOUS
10
151.7768769999999847
20
-50.3923399999999972
11
151.6969540000000052
21
-50.3380769999999984
0
LINE
8
BLACK
6
CONTINUOUS
10
151.6969540000000052
20
-50.3380769999999984
11
151.5783160000000009
21
-50.3698669999999993
0
LINE
8
BLACK
6
CONTINUOUS
10
151.5783160000000009
20
-50.3698669999999993
11
151.4216839999999991
21
-50.3698669999999993
0
LINE
8
BLACK
6
CONTINUOUS
10
151.4216839999999991
20
-50.3698669999999993
11
151.2703899999999919
21
-50.3293279999999967
0
LINE
8
BLACK
6
CONTINUOUS
10
151.2703899999999919
20
-50.3293279999999967
11
151.1347429999999861
21
-50.2510119999999958
0
LINE
8
BLACK
6
CONTINUOUS
10
151.1347429999999861
20
-50.2510119999999958
11
151.0239880000000028
21
-50.1402569999999983
0
LINE
8
BLACK
6
CONTINUOUS
10
151.0239880000000028
20
-50.1402569999999983
11
150.9456720000000018
21
-50.0046099999999996
0
LINE
8
BLACK
6
CONTINUOUS
10
150.9456720000000018
20
-50.0046099999999996
11
150.9051330000000064
21
-49.8533159999999995
0
LINE
8
BLACK
6
CONTINUOUS
10
150.9051330000000064
20
-49.8533159999999995
11
150.9000000000000057
21
-49.7749999999999986
0
LINE
8
BLACK
6
CONTINUOUS
10
150.9000000000000057
20
-49.7749999999999986
11
150.9000000000000057
21
-49.2249999999999943
0
LINE
8
BLACK
6
CONTINUOUS
10
150.9000000000000057
20
-49.2249999999999943
11
150.9051330000000064
21
-49.1466840000000005
0
LINE
8
BLACK
6
CONTINUOUS
10
150.9051330000000064
20
-49.1466840000000005
11
150.9456720000000018
21
-48.9953900000000004
0
LINE
8
BLACK
6
CONTINUOUS
10
150.9456720000000018
20
-48.9953900000000004
11
151.0239880000000028
21
-48.8597429999999946
0
LINE
8
BLACK
6
CONTINUOUS
10
151.0239880000000028
20
-48.8597429999999946
11
151.1347429999999861
21
-48.7489879999999971
0
LINE
8
BLACK
6
CONTINUOUS
10
151.1347429999999861
20
-48.7489879999999971
11
151.2703899999999919
21
-48.6706719999999962
0
LINE
8
BLACK
6
CONTINUOUS
10
151.2703899999999919
20
-48.6706719999999962
11
151.4216839999999991
21
-48.6301330000000007
0
LINE
8
BLACK
6
CONTINUOUS
10
151.4216839999999991
20
-48.6301330000000007
11
151.5783160000000009
21
-48.6301330000000007
0
LINE
8
BLACK
6
CONTINUOUS
10
151.5783160000000009
20
-48.6301330000000007
11
151.7296099999999797
21
-48.6706719999999962
0
LINE
8
BLACK
6
CONTINUOUS
10
149.9456710000000044
20
-48.6440300000000008
11
150.0267769999999814
21
-48.6982229999999987
0
LINE
8
BLACK
6
CONTINUOUS
10
150.0267769999999814
20
-48.6982229999999987
11
150.0809699999999793
21
-48.7793289999999971
0
LINE
8
BLACK
6
CONTINUOUS
10
150.0809699999999793
20
-48.7793289999999971
11
150.0999999999999943
21
-48.875
0
LINE
8
BLACK
6
CONTINUOUS
10
150.0999999999999943
20
-48.875
11
150.0999999999999943
21
-50.125
0
LINE
8
BLACK
6
CONTINUOUS
10
150.0999999999999943
20
-50.125
11
150.0809699999999793
21
-50.2206709999999958
0
LINE
8
BLACK
6
CONTINUOUS
10
150.0809699999999793
20
-50.2206709999999958
11
150.0784380000000056
21
-50.224458999999996
0
LINE
8
BLACK
6
CONTINUOUS
10
150.0784380000000056
20
-50.224458999999996
11
150.0775679999999852
21
-50.2274039999999999
0
LINE
8
BLACK
6
CONTINUOUS
10
150.0775679999999852
20
-50.2274039999999999
11
149.7032449999999812
21
-50.9685739999999967
0
LINE
8
BLACK
6
CONTINUOUS
10
149.7032449999999812
20
-50.9685739999999967
11
149.6999999999999886
21
-50.9713649999999987
0
LINE
8
BLACK
6
CONTINUOUS
10
149.6999999999999886
20
-50.9713649999999987
11
149.6999999999999886
21
-51.417156999999996
0
LINE
8
BLACK
6
CONTINUOUS
10
149.6999999999999886
20
-51.417156999999996
11
150.0827859999999987
21
-51.7999439999999964
0
LINE
8
BLACK
6
CONTINUOUS
10
150.0827859999999987
20
-51.7999439999999964
11
150.1347429999999861
21
-51.7479879999999994
0
LINE
8
BLACK
6
CONTINUOUS
10
150.1347429999999861
20
-51.7479879999999994
11
150.2703899999999919
21
-51.6696719999999985
0
LINE
8
BLACK
6
CONTINUOUS
10
150.2703899999999919
20
-51.6696719999999985
11
150.4216839999999991
21
-51.6291329999999959
0
LINE
8
BLACK
6
CONTINUOUS
10
150.4216839999999991
20
-51.6291329999999959
11
150.5783160000000009
21
-51.6291329999999959
0
LINE
8
BLACK
6
CONTINUOUS
10
150.5783160000000009
20
-51.6291329999999959
11
150.7296099999999797
21
-51.6696719999999985
0
LINE
8
BLACK
6
CONTINUOUS
10
150.7296099999999797
20
-51.6696719999999985
11
150.8652569999999855
21
-51.7479879999999994
0
LINE
8
BLACK
6
CONTINUOUS
10
150.8652569999999855
20
-51.7479879999999994
11
150.9760119999999972
21
-51.8587429999999969
0
LINE
8
BLACK
6
CONTINUOUS
10
150.9760119999999972
20
-51.8587429999999969
11
151.0543279999999982
21
-51.9943899999999957
0
LINE
8
BLACK
6
CONTINUOUS
10
151.0543279999999982
20
-51.9943899999999957
11
151.0948669999999936
21
-52.1456839999999957
0
LINE
8
BLACK
6
CONTINUOUS
10
151.0948669999999936
20
-52.1456839999999957
11
151.0999999999999943
21
-52.2239999999999966
0
LINE
8
BLACK
6
CONTINUOUS
10
151.0999999999999943
20
-52.2239999999999966
11
151.0999999999999943
21
-52.2249999999999943
0
LINE
8
BLACK
6
CONTINUOUS
10
151.0999999999999943
20
-52.2249999999999943
11
151.0999999999999943
21
-52.7749999999999986
0
LINE
8
BLACK
6
CONTINUOUS
10
151.0999999999999943
20
-52.7749999999999986
11
151.0948669999999936
21
-52.8533159999999995
0
LINE
8
BLACK
6
CONTINUOUS
10
151.0948669999999936
20
-52.8533159999999995
11
151.0543279999999982
21
-53.0046099999999996
0
LINE
8
BLACK
6
CONTINUOUS
10
151.0543279999999982
20
-53.0046099999999996
11
150.9760119999999972
21
-53.1402569999999983
0
LINE
8
BLACK
6
CONTINUOUS
10
150.9760119999999972
20
-53.1402569999999983
11
150.8652569999999855
21
-53.2510119999999958
0
LINE
8
BLACK
6
CONTINUOUS
10
150.8652569999999855
20
-53.2510119999999958
11
150.7296099999999797
21
-53.3293279999999967
0
LINE
8
BLACK
6
CONTINUOUS
10
150.7296099999999797
20
-53.3293279999999967
11
150.5783160000000009
21
-53.3698669999999993
0
LINE
8
BLACK
6
CONTINUOUS
10
150.5783160000000009
20
-53.3698669999999993
11
150.4216839999999991
21
-53.3698669999999993
0
LINE
8
BLACK
6
CONTINUOUS
10
150.4216839999999991
20
-53.3698669999999993
11
150.2703899999999919
21
-53.3293279999999967
0
LINE
8
BLACK
6
CONTINUOUS
10
150.2703899999999919
20
-53.3293279999999967
11
150.1347429999999861
21
-53.2510119999999958
0
LINE
8
BLACK
6
CONTINUOUS
10
150.1347429999999861
20
-53.2510119999999958
11
150.0239880000000028
21
-53.1402569999999983
0
LINE
8
BLACK
6
CONTINUOUS
10
150.0239880000000028
20
-53.1402569999999983
11
149.9456720000000018
21
-53.0046099999999996
0
LINE
8
BLACK
6
CONTINUOUS
10
149.9456720000000018
20
-53.0046099999999996
11
149.9051330000000064
21
-52.8533159999999995
0
LINE
8
BLACK
6
CONTINUOUS
10
149.9051330000000064
20
-52.8533159999999995
11
149.9000000000000057
21
-52.7749999999999986
0
LINE
8
BLACK
6
CONTINUOUS
10
149.9000000000000057
20
-52.7749999999999986
11
149.9000000000000057
21
-52.2249999999999943
0
LINE
8
BLACK
6
CONTINUOUS
10
149.9000000000000057
20
-52.2249999999999943
11
149.9000000000000057
21
-52.2239999999999966
0
LINE
8
BLACK
6
CONTINUOUS
10
149.9000000000000057
20
-52.2239999999999966
11
149.902530999999982
21
-52.1853739999999959
0
LINE
8
BLACK
6
CONTINUOUS
10
149.902530999999982
20
-52.1853739999999959
11
149.3585789999999918
21
-51.6414210000000011
0
LINE
8
BLACK
6
CONTINUOUS
10
149.3585789999999918
20
-51.6414210000000011
11
149.3337060000000065
21
-51.6111140000000006
0
LINE
8
BLACK
6
CONTINUOUS
10
149.3337060000000065
20
-51.6111140000000006
11
149.3038430000000005
21
-51.5390179999999987
0
LINE
8
BLACK
6
CONTINUOUS
10
149.3038430000000005
20
-51.5390179999999987
11
149.2999999999999829
21
-51.5
0
LINE
8
BLACK
6
CONTINUOUS
10
149.2999999999999829
20
-51.5
11
149.2999999999999829
21
-50.972017000000001
0
LINE
8
BLACK
6
CONTINUOUS
10
149.2999999999999829
20
-50.972017000000001
11
149.2989259999999945
21
-50.9715729999999994
0
LINE
8
BLACK
6
CONTINUOUS
10
149.2989259999999945
20
-50.9715729999999994
11
149.2967549999999903
21
-50.9685749999999942
0
LINE
8
BLACK
6
CONTINUOUS
10
149.2967549999999903
20
-50.9685749999999942
11
149.2967539999999929
21
-50.9685739999999967
0
LINE
8
BLACK
6
CONTINUOUS
10
149.2967539999999929
20
-50.9685739999999967
11
149.0667129999999929
21
-50.5130869999999987
0
LINE
8
BLACK
6
CONTINUOUS
10
149.0667129999999929
20
-50.5130869999999987
11
148.6240469999999902
21
-50.6633459999999971
0
LINE
8
BLACK
6
CONTINUOUS
10
148.6240469999999902
20
-50.6633459999999971
11
148.6197760000000017
21
-50.663064999999996
0
LINE
8
BLACK
6
CONTINUOUS
10
148.6197760000000017
20
-50.663064999999996
11
147.6771970000000067
21
-51.6056449999999955
0
LINE
8
BLACK
6
CONTINUOUS
10
147.6771970000000067
20
-51.6056449999999955
11
147.6771970000000067
21
-54.4627389999999991
0
LINE
8
BLACK
6
CONTINUOUS
10
147.6771970000000067
20
-54.4627389999999991
11
147.6778119999999888
21
-54.4641149999999996
0
LINE
8
BLACK
6
CONTINUOUS
10
147.6778119999999888
20
-54.4641149999999996
11
147.7440639999999803
21
-55.6542969999999997
0
LINE
8
BLACK
6
CONTINUOUS
10
147.7440639999999803
20
-55.6542969999999997
11
147.7430410000000052
21
-55.6572129999999987
0
LINE
8
BLACK
6
CONTINUOUS
10
147.7430410000000052
20
-55.6572129999999987
11
148.2188850000000002
21
-56.7923369999999963
0
LINE
8
BLACK
6
CONTINUOUS
10
148.2188850000000002
20
-56.7923369999999963
11
148.2189019999999857
21
-56.7965599999999995
0
LINE
8
BLACK
6
CONTINUOUS
10
148.2189019999999857
20
-56.7965599999999995
11
150.9114219999999875
21
-59.4890789999999967
0
LINE
8
BLACK
6
CONTINUOUS
10
150.9114219999999875
20
-59.4890789999999967
11
150.9362940000000037
21
-59.5193859999999972
0
LINE
8
BLACK
6
CONTINUOUS
10
150.9362940000000037
20
-59.5193859999999972
11
150.9661569999999813
21
-59.5914819999999992
0
LINE
8
BLACK
6
CONTINUOUS
10
150.9661569999999813
20
-59.5914819999999992
11
150.9661569999999813
21
-59.6695179999999965
0
LINE
8
BLACK
6
CONTINUOUS
10
150.9661569999999813
20
-59.6695179999999965
11
150.9499999999999886
21
-59.708523999999997
0
LINE
8
BLACK
6
CONTINUOUS
10
150.9499999999999886
20
-59.708523999999997
11
150.9499999999999886
21
-65.1399270000000001
0
LINE
8
BLACK
6
CONTINUOUS
10
150.9499999999999886
20
-65.1399270000000001
11
150.9500699999999824
21
-65.139955999999998
0
LINE
8
BLACK
6
CONTINUOUS
10
150.9500699999999824
20
-65.139955999999998
11
150.9527960000000064
21
-65.1442409999999938
0
LINE
8
BLACK
6
CONTINUOUS
10
150.9527960000000064
20
-65.1442409999999938
11
151.2864040000000045
21
-66.064345000000003
0
LINE
8
BLACK
6
CONTINUOUS
10
151.2864040000000045
20
-66.064345000000003
11
151.3043279999999982
21
-66.0953899999999948
0
LINE
8
BLACK
6
CONTINUOUS
10
151.3043279999999982
20
-66.0953899999999948
11
151.3232079999999939
21
-66.1658510000000035
0
LINE
8
BLACK
6
CONTINUOUS
10
151.3232079999999939
20
-66.1658510000000035
11
151.3353439999999921
21
-66.1993229999999926
0
LINE
8
BLACK
6
CONTINUOUS
10
151.3353439999999921
20
-66.1993229999999926
11
151.3349429999999813
21
-66.2082690000000014
0
LINE
8
BLACK
6
CONTINUOUS
10
151.3349429999999813
20
-66.2082690000000014
11
151.3346609999999828
21
-66.208596
0
LINE
8
BLACK
6
CONTINUOUS
10
151.3346609999999828
20
-66.208596
11
151.3448669999999936
21
-66.2466840000000019
0
LINE
8
BLACK
6
CONTINUOUS
10
151.3448669999999936
20
-66.2466840000000019
11
151.3499999999999943
21
-66.3250000000000028
0
LINE
8
BLACK
6
CONTINUOUS
10
151.3499999999999943
20
-66.3250000000000028
11
151.3499999999999943
21
-66.875
0
LINE
8
BLACK
6
CONTINUOUS
10
151.3499999999999943
20
-66.875
11
151.3448669999999936
21
-66.9533160000000009
0
LINE
8
BLACK
6
CONTINUOUS
10
151.3448669999999936
20
-66.9533160000000009
11
151.3043279999999982
21
-67.1046099999999939
0
LINE
8
BLACK
6
CONTINUOUS
10
151.3043279999999982
20
-67.1046099999999939
11
151.2260119999999972
21
-67.2402569999999997
0
LINE
8
BLACK
6
CONTINUOUS
10
151.2260119999999972
20
-67.2402569999999997
11
151.1152569999999855
21
-67.3510119999999972
0
LINE
8
BLACK
6
CONTINUOUS
10
151.1152569999999855
20
-67.3510119999999972
11
150.9929309999999987
21
-67.4216359999999924
0
LINE
8
BLACK
6
CONTINUOUS
10
150.9929309999999987
20
-67.4216359999999924
11
151.2864040000000045
21
-68.2310449999999946
0
LINE
8
BLACK
6
CONTINUOUS
10
151.2864040000000045
20
-68.2310449999999946
11
151.3043279999999982
21
-68.2620900000000006
0
LINE
8
BLACK
6
CONTINUOUS
10
151.3043279999999982
20
-68.2620900000000006
11
151.3232079999999939
21
-68.3325509999999952
0
LINE
8
BLACK
6
CONTINUOUS
10
151.3232079999999939
20
-68.3325509999999952
11
151.3353439999999921
21
-68.3660229999999984
0
LINE
8
BLACK
6
CONTINUOUS
10
151.3353439999999921
20
-68.3660229999999984
11
151.3349429999999813
21
-68.374968999999993
0
LINE
8
BLACK
6
CONTINUOUS
10
151.3349429999999813
20
-68.374968999999993
11
151.3346609999999828
21
-68.3752959999999916
0
LINE
8
BLACK
6
CONTINUOUS
10
151.3346609999999828
20
-68.3752959999999916
11
151.3448669999999936
21
-68.4133839999999935
0
LINE
8
BLACK
6
CONTINUOUS
10
151.3448669999999936
20
-68.4133839999999935
11
151.3499999999999943
21
-68.4916999999999945
0
LINE
8
BLACK
6
CONTINUOUS
10
151.3499999999999943
20
-68.4916999999999945
11
151.3499999999999943
21
-69.0416999999999916
0
LINE
8
BLACK
6
CONTINUOUS
10
151.3499999999999943
20
-69.0416999999999916
11
151.3448669999999936
21
-69.1200159999999926
0
LINE
8
BLACK
6
CONTINUOUS
10
151.3448669999999936
20
-69.1200159999999926
11
151.3043279999999982
21
-69.2713099999999997
0
LINE
8
BLACK
6
CONTINUOUS
10
151.3043279999999982
20
-69.2713099999999997
11
151.2260119999999972
21
-69.4069569999999914
0
LINE
8
BLACK
6
CONTINUOUS
10
151.2260119999999972
20
-69.4069569999999914
11
151.1152569999999855
21
-69.5177120000000031
0
LINE
8
BLACK
6
CONTINUOUS
10
151.1152569999999855
20
-69.5177120000000031
11
150.9796099999999797
21
-69.5960279999999898
0
LINE
8
BLACK
6
CONTINUOUS
10
150.9796099999999797
20
-69.5960279999999898
11
150.8283160000000009
21
-69.6365669999999994
0
LINE
8
BLACK
6
CONTINUOUS
10
150.8283160000000009
20
-69.6365669999999994
11
150.6716839999999991
21
-69.6365669999999994
0
LINE
8
BLACK
6
CONTINUOUS
10
150.6716839999999991
20
-69.6365669999999994
11
150.5203899999999919
21
-69.5960279999999898
0
LINE
8
BLACK
6
CONTINUOUS
10
150.5203899999999919
20
-69.5960279999999898
11
150.3847429999999861
21
-69.5177120000000031
0
LINE
8
BLACK
6
CONTINUOUS
10
150.3847429999999861
20
-69.5177120000000031
11
150.2739880000000028
21
-69.4069569999999914
0
LINE
8
BLACK
6
CONTINUOUS
10
150.2739880000000028
20
-69.4069569999999914
11
150.1956720000000018
21
-69.2713099999999997
0
LINE
8
BLACK
6
CONTINUOUS
10
150.1956720000000018
20
-69.2713099999999997
11
150.1551330000000064
21
-69.1200159999999926
0
LINE
8
BLACK
6
CONTINUOUS
10
150.1551330000000064
20
-69.1200159999999926
11
150.1500000000000057
21
-69.0416999999999916
0
LINE
8
BLACK
6
CONTINUOUS
10
150.1500000000000057
20
-69.0416999999999916
11
150.1500000000000057
21
-68.4916999999999945
0
LINE
8
BLACK
6
CONTINUOUS
10
150.1500000000000057
20
-68.4916999999999945
11
150.1551330000000064
21
-68.4133839999999935
0
LINE
8
BLACK
6
CONTINUOUS
10
150.1551330000000064
20
-68.4133839999999935
11
150.1655800000000056
21
-68.3743920000000003
0
LINE
8
BLACK
6
CONTINUOUS
10
150.1655800000000056
20
-68.3743920000000003
11
150.1641789999999901
21
-68.3722959999999915
0
LINE
8
BLACK
6
CONTINUOUS
10
150.1641789999999901
20
-68.3722959999999915
11
150.1646539999999845
21
-68.3660239999999959
0
LINE
8
BLACK
6
CONTINUOUS
10
150.1646539999999845
20
-68.3660239999999959
11
150.176795999999996
21
-68.3325349999999929
0
LINE
8
BLACK
6
CONTINUOUS
10
150.176795999999996
20
-68.3325349999999929
11
150.1956720000000018
21
-68.2620900000000006
0
LINE
8
BLACK
6
CONTINUOUS
10
150.1956720000000018
20
-68.2620900000000006
11
150.2135909999999797
21
-68.2310509999999937
0
LINE
8
BLACK
6
CONTINUOUS
10
150.2135909999999797
20
-68.2310509999999937
11
150.5070680000000038
21
-67.4216359999999924
0
LINE
8
BLACK
6
CONTINUOUS
10
150.5070680000000038
20
-67.4216359999999924
11
150.3847429999999861
21
-67.3510119999999972
0
LINE
8
BLACK
6
CONTINUOUS
10
150.3847429999999861
20
-67.3510119999999972
11
150.2739880000000028
21
-67.2402569999999997
0
LINE
8
BLACK
6
CONTINUOUS
10
150.2739880000000028
20
-67.2402569999999997
11
150.1956720000000018
21
-67.1046099999999939
0
LINE
8
BLACK
6
CONTINUOUS
10
150.1956720000000018
20
-67.1046099999999939
11
150.1551330000000064
21
-66.9533160000000009
0
LINE
8
BLACK
6
CONTINUOUS
10
150.1551330000000064
20
-66.9533160000000009
11
150.1500000000000057
21
-66.875
0
LINE
8
BLACK
6
CONTINUOUS
10
150.1500000000000057
20
-66.875
11
150.1500000000000057
21
-66.3250000000000028
0
LINE
8
BLACK
6
CONTINUOUS
10
150.1500000000000057
20
-66.3250000000000028
11
150.1551330000000064
21
-66.2466840000000019
0
LINE
8
BLACK
6
CONTINUOUS
10
150.1551330000000064
20
-66.2466840000000019
11
150.1655800000000056
21
-66.2076919999999944
0
LINE
8
BLACK
6
CONTINUOUS
10
150.1655800000000056
20
-66.2076919999999944
11
150.1641789999999901
21
-66.2055959999999999
0
LINE
8
BLACK
6
CONTINUOUS
10
150.1641789999999901
20
-66.2055959999999999
11
150.1646539999999845
21
-66.1993239999999901
0
LINE
8
BLACK
6
CONTINUOUS
10
150.1646539999999845
20
-66.1993239999999901
11
150.176795999999996
21
-66.1658350000000013
0
LINE
8
BLACK
6
CONTINUOUS
10
150.176795999999996
20
-66.1658350000000013
11
150.1956720000000018
21
-66.0953899999999948
0
LINE
8
BLACK
6
CONTINUOUS
10
150.1956720000000018
20
-66.0953899999999948
11
150.2135909999999797
21
-66.064351000000002
0
LINE
8
BLACK
6
CONTINUOUS
10
150.2135909999999797
20
-66.064351000000002
11
150.5472039999999936
21
-65.1442409999999938
0
LINE
8
BLACK
6
CONTINUOUS
10
150.5472039999999936
20
-65.1442409999999938
11
150.5499999999999829
21
-65.1411810000000031
0
LINE
8
BLACK
6
CONTINUOUS
10
150.5499999999999829
20
-65.1411810000000031
11
150.5499999999999829
21
-59.6933419999999941
0
LINE
8
BLACK
6
CONTINUOUS
10
150.5499999999999829
20
-59.6933419999999941
11
147.9367790000000014
21
-57.0801209999999983
0
LINE
8
BLACK
6
CONTINUOUS
10
147.9367790000000014
20
-57.0801209999999983
11
147.9363599999999792
21
-57.0802949999999996
0
LINE
8
BLACK
6
CONTINUOUS
10
147.9363599999999792
20
-57.0802949999999996
11
147.9318370000000016
21
-57.0793849999999949
0
LINE
8
BLACK
6
CONTINUOUS
10
147.9318370000000016
20
-57.0793849999999949
11
146.7795710000000042
21
-56.5963549999999955
0
LINE
8
BLACK
6
CONTINUOUS
10
146.7795710000000042
20
-56.5963549999999955
11
146.7277719999999874
21
-56.5860519999999951
0
LINE
8
BLACK
6
CONTINUOUS
10
146.7277719999999874
20
-56.5860519999999951
11
146.5828829999999812
21
-56.5260369999999952
0
LINE
8
BLACK
6
CONTINUOUS
10
146.5828829999999812
20
-56.5260369999999952
11
146.5341509999999801
21
-56.4934749999999966
0
LINE
8
BLACK
6
CONTINUOUS
10
146.5341509999999801
20
-56.4934749999999966
11
146.5286179999999945
21
-56.4911559999999966
0
LINE
8
BLACK
6
CONTINUOUS
10
146.5286179999999945
20
-56.4911559999999966
11
146.5245699999999829
21
-56.4870739999999998
0
LINE
8
BLACK
6
CONTINUOUS
10
146.5245699999999829
20
-56.4870739999999998
11
146.4524849999999958
21
-56.4389079999999979
0
LINE
8
BLACK
6
CONTINUOUS
10
146.4524849999999958
20
-56.4389079999999979
11
146.3415919999999915
21
-56.3280150000000006
0
LINE
8
BLACK
6
CONTINUOUS
10
146.3415919999999915
20
-56.3280150000000006
11
146.254462999999987
21
-56.1976169999999939
0
LINE
8
BLACK
6
CONTINUOUS
10
146.254462999999987
20
-56.1976169999999939
11
146.1944479999999942
21
-56.0527279999999948
0
LINE
8
BLACK
6
CONTINUOUS
10
146.1944479999999942
20
-56.0527279999999948
11
146.1638519999999914
21
-55.8989139999999978
0
LINE
8
BLACK
6
CONTINUOUS
10
146.1638519999999914
20
-55.8989139999999978
11
146.1638519999999914
21
-55.7420860000000005
0
LINE
8
BLACK
6
CONTINUOUS
10
146.1638519999999914
20
-55.7420860000000005
11
146.1944479999999942
21
-55.5882719999999964
0
LINE
8
BLACK
6
CONTINUOUS
10
146.1944479999999942
20
-55.5882719999999964
11
146.254462999999987
21
-55.4433829999999972
0
LINE
8
BLACK
6
CONTINUOUS
10
146.254462999999987
20
-55.4433829999999972
11
146.3415919999999915
21
-55.3129849999999976
0
LINE
8
BLACK
6
CONTINUOUS
10
146.3415919999999915
20
-55.3129849999999976
11
146.4524849999999958
21
-55.2020920000000004
0
LINE
8
BLACK
6
CONTINUOUS
10
146.4524849999999958
20
-55.2020920000000004
11
146.5199099999999817
21
-55.1570389999999975
0
LINE
8
BLACK
6
CONTINUOUS
10
146.5199099999999817
20
-55.1570389999999975
11
146.5195310000000006
21
-55.1551259999999957
0
LINE
8
BLACK
6
CONTINUOUS
10
146.5195310000000006
20
-55.1551259999999957
11
146.5233479999999986
21
-55.1485709999999969
0
LINE
8
BLACK
6
CONTINUOUS
10
146.5233479999999986
20
-55.1485709999999969
11
147.3239010000000064
21
-54.4559169999999995
0
LINE
8
BLACK
6
CONTINUOUS
10
147.3239010000000064
20
-54.4559169999999995
11
147.327196999999984
21
-54.4546889999999948
0
LINE
8
BLACK
6
CONTINUOUS
10
147.327196999999984
20
-54.4546889999999948
11
147.327196999999984
21
-51.5878979999999956
0
LINE
8
BLACK
6
CONTINUOUS
10
147.327196999999984
20
-51.5878979999999956
11
147.3060399999999959
21
-51.5368209999999962
0
LINE
8
BLACK
6
CONTINUOUS
10
147.3060399999999959
20
-51.5368209999999962
11
147.3060399999999959
21
-51.4587849999999989
0
LINE
8
BLACK
6
CONTINUOUS
10
147.3060399999999959
20
-51.4587849999999989
11
147.3359030000000018
21
-51.386688999999997
0
LINE
8
BLACK
6
CONTINUOUS
10
147.3359030000000018
20
-51.386688999999997
11
147.3607759999999871
21
-51.3563819999999964
0
LINE
8
BLACK
6
CONTINUOUS
10
147.3607759999999871
20
-51.3563819999999964
11
148.3369199999999921
21
-50.380237000000001
0
LINE
8
BLACK
6
CONTINUOUS
10
148.3369199999999921
20
-50.380237000000001
11
148.3380860000000041
21
-50.3752999999999957
0
LINE
8
BLACK
6
CONTINUOUS
10
148.3380860000000041
20
-50.3752999999999957
11
148.3382359999999949
21
-50.375
0
LINE
8
BLACK
6
CONTINUOUS
10
148.3382359999999949
20
-50.375
11
148.8951329999999871
21
-49.2612039999999993
0
LINE
8
BLACK
6
CONTINUOUS
10
148.8951329999999871
20
-49.2612039999999993
11
148.9000000000000057
21
-49.2569829999999982
0
LINE
8
BLACK
6
CONTINUOUS
10
148.9000000000000057
20
-49.2569829999999982
11
148.9000000000000057
21
-48.875
0
LINE
8
BLACK
6
CONTINUOUS
10
148.9000000000000057
20
-48.875
11
148.9190299999999922
21
-48.7793289999999971
0
LINE
8
BLACK
6
CONTINUOUS
10
148.9190299999999922
20
-48.7793289999999971
11
148.9732229999999902
21
-48.6982229999999987
0
LINE
8
BLACK
6
CONTINUOUS
10
148.9732229999999902
20
-48.6982229999999987
11
149.0543289999999956
21
-48.6440300000000008
0
LINE
8
BLACK
6
CONTINUOUS
10
149.0543289999999956
20
-48.6440300000000008
11
149.1500000000000057
21
-48.625
0
LINE
8
BLACK
6
CONTINUOUS
10
149.1500000000000057
20
-48.625
11
149.8499999999999943
21
-48.625
0
LINE
8
BLACK
6
CONTINUOUS
10
149.8499999999999943
20
-48.625
11
149.9456710000000044
21
-48.6440300000000008
0
LINE
8
BLACK
6
CONTINUOUS
10
149.7322279999999921
20
-62.6749480000000005
11
149.8771169999999984
21
-62.7349630000000005
0
LINE
8
BLACK
6
CONTINUOUS
10
149.8771169999999984
20
-62.7349630000000005
11
150.0075149999999837
21
-62.8220919999999978
0
LINE
8
BLACK
6
CONTINUOUS
10
150.0075149999999837
20
-62.8220919999999978
11
150.1184079999999881
21
-62.9329849999999951
0
LINE
8
BLACK
6
CONTINUOUS
10
150.1184079999999881
20
-62.9329849999999951
11
150.2055369999999925
21
-63.0633829999999946
0
LINE
8
BLACK
6
CONTINUOUS
10
150.2055369999999925
20
-63.0633829999999946
11
150.2655519999999854
21
-63.2082719999999938
0
LINE
8
BLACK
6
CONTINUOUS
10
150.2655519999999854
20
-63.2082719999999938
11
150.2961479999999881
21
-63.3620859999999979
0
LINE
8
BLACK
6
CONTINUOUS
10
150.2961479999999881
20
-63.3620859999999979
11
150.2961479999999881
21
-63.5189139999999952
0
LINE
8
BLACK
6
CONTINUOUS
10
150.2961479999999881
20
-63.5189139999999952
11
150.2655519999999854
21
-63.6727279999999993
0
LINE
8
BLACK
6
CONTINUOUS
10
150.2655519999999854
20
-63.6727279999999993
11
150.2055369999999925
21
-63.8176169999999985
0
LINE
8
BLACK
6
CONTINUOUS
10
150.2055369999999925
20
-63.8176169999999985
11
150.1184079999999881
21
-63.9480149999999981
0
LINE
8
BLACK
6
CONTINUOUS
10
150.1184079999999881
20
-63.9480149999999981
11
150.0075149999999837
21
-64.0589080000000024
0
LINE
8
BLACK
6
CONTINUOUS
10
150.0075149999999837
20
-64.0589080000000024
11
149.9393819999999948
21
-64.1044320000000027
0
LINE
8
BLACK
6
CONTINUOUS
10
149.9393819999999948
20
-64.1044320000000027
11
149.9344639999999913
21
-64.1117809999999935
0
LINE
8
BLACK
6
CONTINUOUS
10
149.9344639999999913
20
-64.1117809999999935
11
149.9340799999999945
21
-64.1120269999999977
0
LINE
8
BLACK
6
CONTINUOUS
10
149.9340799999999945
20
-64.1120269999999977
11
148.952810999999997
21
-64.7127469999999931
0
LINE
8
BLACK
6
CONTINUOUS
10
148.952810999999997
20
-64.7127469999999931
11
148.9499999999999886
21
-64.7135379999999998
0
LINE
8
BLACK
6
CONTINUOUS
10
148.9499999999999886
20
-64.7135379999999998
11
148.9499999999999886
21
-65.1279820000000029
0
LINE
8
BLACK
6
CONTINUOUS
10
148.9499999999999886
20
-65.1279820000000029
11
148.9510740000000055
21
-65.1284270000000021
0
LINE
8
BLACK
6
CONTINUOUS
10
148.9510740000000055
20
-65.1284270000000021
11
148.9532449999999812
21
-65.1314259999999905
0
LINE
8
BLACK
6
CONTINUOUS
10
148.9532449999999812
20
-65.1314259999999905
11
149.3275679999999852
21
-65.872595000000004
0
LINE
8
BLACK
6
CONTINUOUS
10
149.3275679999999852
20
-65.872595000000004
11
149.3277060000000063
21
-65.8744449999999944
0
LINE
8
BLACK
6
CONTINUOUS
10
149.3277060000000063
20
-65.8744449999999944
11
149.3309699999999793
21
-65.8793289999999985
0
LINE
8
BLACK
6
CONTINUOUS
10
149.3309699999999793
20
-65.8793289999999985
11
149.3499999999999943
21
-65.9749999999999943
0
LINE
8
BLACK
6
CONTINUOUS
10
149.3499999999999943
20
-65.9749999999999943
11
149.3499999999999943
21
-67.2249999999999943
0
LINE
8
BLACK
6
CONTINUOUS
10
149.3499999999999943
20
-67.2249999999999943
11
149.3309699999999793
21
-67.3206709999999902
0
LINE
8
BLACK
6
CONTINUOUS
10
149.3309699999999793
20
-67.3206709999999902
11
149.2767769999999814
21
-67.4017769999999956
0
LINE
8
BLACK
6
CONTINUOUS
10
149.2767769999999814
20
-67.4017769999999956
11
149.1956710000000044
21
-67.4559699999999935
0
LINE
8
BLACK
6
CONTINUOUS
10
149.1956710000000044
20
-67.4559699999999935
11
149.0999999999999943
21
-67.4749999999999943
0
LINE
8
BLACK
6
CONTINUOUS
10
149.0999999999999943
20
-67.4749999999999943
11
148.4000000000000057
21
-67.4749999999999943
0
LINE
8
BLACK
6
CONTINUOUS
10
148.4000000000000057
20
-67.4749999999999943
11
148.3043289999999956
21
-67.4559699999999935
0
LINE
8
BLACK
6
CONTINUOUS
10
148.3043289999999956
20
-67.4559699999999935
11
148.2232229999999902
21
-67.4017769999999956
0
LINE
8
BLACK
6
CONTINUOUS
10
148.2232229999999902
20
-67.4017769999999956
11
148.1690299999999922
21
-67.3206709999999902
0
LINE
8
BLACK
6
CONTINUOUS
10
148.1690299999999922
20
-67.3206709999999902
11
148.1500000000000057
21
-67.2249999999999943
0
LINE
8
BLACK
6
CONTINUOUS
10
148.1500000000000057
20
-67.2249999999999943
11
148.1500000000000057
21
-65.9749999999999943
0
LINE
8
BLACK
6
CONTINUOUS
10
148.1500000000000057
20
-65.9749999999999943
11
148.1690299999999922
21
-65.8793289999999985
0
LINE
8
BLACK
6
CONTINUOUS
10
148.1690299999999922
20
-65.8793289999999985
11
148.1715580000000045
21
-65.8755439999999908
0
LINE
8
BLACK
6
CONTINUOUS
10
148.1715580000000045
20
-65.8755439999999908
11
148.1724309999999889
21
-65.8725939999999923
0
LINE
8
BLACK
6
CONTINUOUS
10
148.1724309999999889
20
-65.8725939999999923
11
148.5467549999999903
21
-65.1314259999999905
0
LINE
8
BLACK
6
CONTINUOUS
10
148.5467549999999903
20
-65.1314259999999905
11
148.5467549999999903
21
-65.1314239999999955
0
LINE
8
BLACK
6
CONTINUOUS
10
148.5467549999999903
20
-65.1314239999999955
11
148.5499999999999829
21
-65.1286329999999936
0
LINE
8
BLACK
6
CONTINUOUS
10
148.5499999999999829
20
-65.1286329999999936
11
148.5499999999999829
21
-64.1905000000000001
0
LINE
8
BLACK
6
CONTINUOUS
10
148.5499999999999829
20
-64.1905000000000001
11
148.5538430000000005
21
-64.1514820000000014
0
LINE
8
BLACK
6
CONTINUOUS
10
148.5538430000000005
20
-64.1514820000000014
11
148.5837060000000065
21
-64.0793859999999995
0
LINE
8
BLACK
6
CONTINUOUS
10
148.5837060000000065
20
-64.0793859999999995
11
148.6085789999999918
21
-64.0490789999999919
0
LINE
8
BLACK
6
CONTINUOUS
10
148.6085789999999918
20
-64.0490789999999919
11
148.6293479999999931
21
-64.028308999999993
0
LINE
8
BLACK
6
CONTINUOUS
10
148.6293479999999931
20
-64.028308999999993
11
148.7038519999999835
21
-63.3840429999999984
0
LINE
8
BLACK
6
CONTINUOUS
10
148.7038519999999835
20
-63.3840429999999984
11
148.7038519999999835
21
-63.3620859999999979
0
LINE
8
BLACK
6
CONTINUOUS
10
148.7038519999999835
20
-63.3620859999999979
11
148.7099169999999901
21
-63.331592999999998
0
LINE
8
BLACK
6
CONTINUOUS
10
148.7099169999999901
20
-63.331592999999998
11
148.7139159999999833
21
-63.2970159999999993
0
LINE
8
BLACK
6
CONTINUOUS
10
148.7139159999999833
20
-63.2970159999999993
11
148.7182699999999897
21
-63.2891939999999948
0
LINE
8
BLACK
6
CONTINUOUS
10
148.7182699999999897
20
-63.2891939999999948
11
148.718356
21
-63.289168999999994
0
LINE
8
BLACK
6
CONTINUOUS
10
148.718356
20
-63.289168999999994
11
148.7344479999999862
21
-63.2082719999999938
0
LINE
8
BLACK
6
CONTINUOUS
10
148.7344479999999862
20
-63.2082719999999938
11
148.7944630000000075
21
-63.0633829999999946
0
LINE
8
BLACK
6
CONTINUOUS
10
148.7944630000000075
20
-63.0633829999999946
11
148.8815919999999835
21
-62.9329849999999951
0
LINE
8
BLACK
6
CONTINUOUS
10
148.8815919999999835
20
-62.9329849999999951
11
148.9924849999999878
21
-62.8220919999999978
0
LINE
8
BLACK
6
CONTINUOUS
10
148.9924849999999878
20
-62.8220919999999978
11
149.1228830000000016
21
-62.7349630000000005
0
LINE
8
BLACK
6
CONTINUOUS
10
149.1228830000000016
20
-62.7349630000000005
11
149.2677719999999795
21
-62.6749480000000005
0
LINE
8
BLACK
6
CONTINUOUS
10
149.2677719999999795
20
-62.6749480000000005
11
149.4215859999999907
21
-62.6443519999999978
0
LINE
8
BLACK
6
CONTINUOUS
10
149.4215859999999907
20
-62.6443519999999978
11
149.5784139999999809
21
-62.6443519999999978
0
LINE
8
BLACK
6
CONTINUOUS
10
149.5784139999999809
20
-62.6443519999999978
11
149.7322279999999921
21
-62.6749480000000005
0
LINE
8
BLACK
6
CONTINUOUS
10
152.9456710000000044
20
-51.6440300000000008
11
153.0267769999999814
21
-51.6982229999999987
0
LINE
8
BLACK
6
CONTINUOUS
10
153.0267769999999814
20
-51.6982229999999987
11
153.0809699999999793
21
-51.7793289999999971
0
LINE
8
BLACK
6
CONTINUOUS
10
153.0809699999999793
20
-51.7793289999999971
11
153.0999999999999943
21
-51.875
0
LINE
8
BLACK
6
CONTINUOUS
10
153.0999999999999943
20
-51.875
11
153.0999999999999943
21
-52.8171579999999992
0
LINE
8
BLACK
6
CONTINUOUS
10
153.0999999999999943
20
-52.8171579999999992
11
153.2731540000000052
21
-52.9903119999999959
0
LINE
8
BLACK
6
CONTINUOUS
10
153.2731540000000052
20
-52.9903119999999959
11
153.2811069999999916
21
-52.9503330000000005
0
LINE
8
BLACK
6
CONTINUOUS
10
153.2811069999999916
20
-52.9503330000000005
11
153.2860809999999958
21
-52.9428899999999985
0
LINE
8
BLACK
6
CONTINUOUS
10
153.2860809999999958
20
-52.9428899999999985
11
153.2948629999999923
21
-52.9411429999999967
0
LINE
8
BLACK
6
CONTINUOUS
10
153.2948629999999923
20
-52.9411429999999967
11
153.3023089999999797
21
-52.9461179999999985
0
LINE
8
BLACK
6
CONTINUOUS
10
153.3023089999999797
20
-52.9461179999999985
11
153.3037510000000054
21
-52.9491370000000003
0
LINE
8
BLACK
6
CONTINUOUS
10
153.3037510000000054
20
-52.9491370000000003
11
153.3362489999999809
21
-53.053407
0
LINE
8
BLACK
6
CONTINUOUS
10
153.3362489999999809
20
-53.053407
11
153.4249369999999999
21
-53.1420949999999976
0
LINE
8
BLACK
6
CONTINUOUS
10
153.4249369999999999
20
-53.1420949999999976
11
153.4498099999999852
21
-53.1724019999999982
0
LINE
8
BLACK
6
CONTINUOUS
10
153.4498099999999852
20
-53.1724019999999982
11
153.4796729999999911
21
-53.2444980000000001
0
LINE
8
BLACK
6
CONTINUOUS
10
153.4796729999999911
20
-53.2444980000000001
11
153.4835159999999803
21
-53.2835159999999988
0
LINE
8
BLACK
6
CONTINUOUS
10
153.4835159999999803
20
-53.2835159999999988
11
153.4835159999999803
21
-56.2754550000000009
0
LINE
8
BLACK
6
CONTINUOUS
10
153.4835159999999803
20
-56.2754550000000009
11
153.4796729999999911
21
-56.3144729999999996
0
LINE
8
BLACK
6
CONTINUOUS
10
153.4796729999999911
20
-56.3144729999999996
11
153.4498099999999852
21
-56.3865689999999944
0
LINE
8
BLACK
6
CONTINUOUS
10
153.4498099999999852
20
-56.3865689999999944
11
153.4249369999999999
21
-56.4168759999999949
0
LINE
8
BLACK
6
CONTINUOUS
10
153.4249369999999999
20
-56.4168759999999949
11
152.2399999999999807
21
-57.6018129999999999
0
LINE
8
BLACK
6
CONTINUOUS
10
152.2399999999999807
20
-57.6018129999999999
11
152.2399999999999807
21
-61.8591249999999988
0
LINE
8
BLACK
6
CONTINUOUS
10
152.2399999999999807
20
-61.8591249999999988
11
152.2404200000000003
21
-61.859299
0
LINE
8
BLACK
6
CONTINUOUS
10
152.2404200000000003
20
-61.859299
11
152.2429750000000013
21
-61.8631409999999988
0
LINE
8
BLACK
6
CONTINUOUS
10
152.2429750000000013
20
-61.8631409999999988
11
152.716194999999999
21
-63.0194689999999937
0
LINE
8
BLACK
6
CONTINUOUS
10
152.716194999999999
20
-63.0194689999999937
11
152.7455369999999846
21
-63.0633829999999946
0
LINE
8
BLACK
6
CONTINUOUS
10
152.7455369999999846
20
-63.0633829999999946
11
152.8055520000000058
21
-63.2082719999999938
0
LINE
8
BLACK
6
CONTINUOUS
10
152.8055520000000058
20
-63.2082719999999938
11
152.8169859999999858
21
-63.2657559999999961
0
LINE
8
BLACK
6
CONTINUOUS
10
152.8169859999999858
20
-63.2657559999999961
11
152.8192579999999907
21
-63.2713070000000002
0
LINE
8
BLACK
6
CONTINUOUS
10
152.8192579999999907
20
-63.2713070000000002
11
152.819232999999997
21
-63.2770529999999951
0
LINE
8
BLACK
6
CONTINUOUS
10
152.819232999999997
20
-63.2770529999999951
11
152.8361479999999801
21
-63.3620859999999979
0
LINE
8
BLACK
6
CONTINUOUS
10
152.8361479999999801
20
-63.3620859999999979
11
152.8361479999999801
21
-63.5189139999999952
0
LINE
8
BLACK
6
CONTINUOUS
10
152.8361479999999801
20
-63.5189139999999952
11
152.8055520000000058
21
-63.6727279999999993
0
LINE
8
BLACK
6
CONTINUOUS
10
152.8055520000000058
20
-63.6727279999999993
11
152.7455369999999846
21
-63.8176169999999985
0
LINE
8
BLACK
6
CONTINUOUS
10
152.7455369999999846
20
-63.8176169999999985
11
152.6584079999999801
21
-63.9480149999999981
0
LINE
8
BLACK
6
CONTINUOUS
10
152.6584079999999801
20
-63.9480149999999981
11
152.5475150000000042
21
-64.0589080000000024
0
LINE
8
BLACK
6
CONTINUOUS
10
152.5475150000000042
20
-64.0589080000000024
11
152.4171169999999904
21
-64.1460369999999926
0
LINE
8
BLACK
6
CONTINUOUS
10
152.4171169999999904
20
-64.1460369999999926
11
152.2722279999999841
21
-64.2060519999999997
0
LINE
8
BLACK
6
CONTINUOUS
10
152.2722279999999841
20
-64.2060519999999997
11
152.1184140000000014
21
-64.2366480000000024
0
LINE
8
BLACK
6
CONTINUOUS
10
152.1184140000000014
20
-64.2366480000000024
11
151.9615859999999827
21
-64.2366480000000024
0
LINE
8
BLACK
6
CONTINUOUS
10
151.9615859999999827
20
-64.2366480000000024
11
151.8077719999999999
21
-64.2060519999999997
0
LINE
8
BLACK
6
CONTINUOUS
10
151.8077719999999999
20
-64.2060519999999997
11
151.6628829999999937
21
-64.1460369999999926
0
LINE
8
BLACK
6
CONTINUOUS
10
151.6628829999999937
20
-64.1460369999999926
11
151.5324849999999799
21
-64.0589080000000024
0
LINE
8
BLACK
6
CONTINUOUS
10
151.5324849999999799
20
-64.0589080000000024
11
151.421592000000004
21
-63.9480149999999981
0
LINE
8
BLACK
6
CONTINUOUS
10
151.421592000000004
20
-63.9480149999999981
11
151.3344629999999995
21
-63.8176169999999985
0
LINE
8
BLACK
6
CONTINUOUS
10
151.3344629999999995
20
-63.8176169999999985
11
151.2744480000000067
21
-63.6727279999999993
0
LINE
8
BLACK
6
CONTINUOUS
10
151.2744480000000067
20
-63.6727279999999993
11
151.243852000000004
21
-63.5189139999999952
0
LINE
8
BLACK
6
CONTINUOUS
10
151.243852000000004
20
-63.5189139999999952
11
151.243852000000004
21
-63.3620859999999979
0
LINE
8
BLACK
6
CONTINUOUS
10
151.243852000000004
20
-63.3620859999999979
11
151.2607879999999909
21
-63.2769409999999937
0
LINE
8
BLACK
6
CONTINUOUS
10
151.2607879999999909
20
-63.2769409999999937
11
151.2600970000000018
21
-63.2734409999999983
0
LINE
8
BLACK
6
CONTINUOUS
10
151.2600970000000018
20
-63.2734409999999983
11
151.2607390000000009
21
-63.2713129999999992
0
LINE
8
BLACK
6
CONTINUOUS
10
151.2607390000000009
20
-63.2713129999999992
11
151.2630130000000008
21
-63.2657539999999941
0
LINE
8
BLACK
6
CONTINUOUS
10
151.2630130000000008
20
-63.2657539999999941
11
151.2744480000000067
21
-63.2082719999999938
0
LINE
8
BLACK
6
CONTINUOUS
10
151.2744480000000067
20
-63.2082719999999938
11
151.3344629999999995
21
-63.0633829999999946
0
LINE
8
BLACK
6
CONTINUOUS
10
151.3344629999999995
20
-63.0633829999999946
11
151.3638029999999901
21
-63.0194709999999958
0
LINE
8
BLACK
6
CONTINUOUS
10
151.3638029999999901
20
-63.0194709999999958
11
151.8370249999999828
21
-61.8631399999999942
0
LINE
8
BLACK
6
CONTINUOUS
10
151.8370249999999828
20
-61.8631399999999942
11
151.8400000000000034
21
-61.8601389999999967
0
LINE
8
BLACK
6
CONTINUOUS
10
151.8400000000000034
20
-61.8601389999999967
11
151.8400000000000034
21
-57.5189710000000005
0
LINE
8
BLACK
6
CONTINUOUS
10
151.8400000000000034
20
-57.5189710000000005
11
151.8438429999999926
21
-57.4799529999999947
0
LINE
8
BLACK
6
CONTINUOUS
10
151.8438429999999926
20
-57.4799529999999947
11
151.8737059999999985
21
-57.4078569999999999
0
LINE
8
BLACK
6
CONTINUOUS
10
151.8737059999999985
20
-57.4078569999999999
11
151.8985789999999838
21
-57.3775499999999994
0
LINE
8
BLACK
6
CONTINUOUS
10
151.8985789999999838
20
-57.3775499999999994
11
153.083516000000003
21
-56.1926129999999944
0
LINE
8
BLACK
6
CONTINUOUS
10
153.083516000000003
20
-56.1926129999999944
11
153.083516000000003
21
-53.6236399999999946
0
LINE
8
BLACK
6
CONTINUOUS
10
153.083516000000003
20
-53.6236399999999946
11
153.0816229999999791
21
-53.6233159999999955
0
LINE
8
BLACK
6
CONTINUOUS
10
153.0816229999999791
20
-53.6233159999999955
11
152.818854999999985
21
-53.5304599999999979
0
LINE
8
BLACK
6
CONTINUOUS
10
152.818854999999985
20
-53.5304599999999979
11
152.8121960000000001
21
-53.5244730000000004
0
LINE
8
BLACK
6
CONTINUOUS
10
152.8121960000000001
20
-53.5244730000000004
11
152.8117220000000032
21
-53.5155309999999957
0
LINE
8
BLACK
6
CONTINUOUS
10
152.8117220000000032
20
-53.5155309999999957
11
152.8177089999999794
21
-53.5088719999999967
0
LINE
8
BLACK
6
CONTINUOUS
10
152.8177089999999794
20
-53.5088719999999967
11
152.818253999999996
21
-53.5086289999999991
0
LINE
8
BLACK
6
CONTINUOUS
10
152.818253999999996
20
-53.5086289999999991
11
152.8791789999999935
21
-53.483393999999997
0
LINE
8
BLACK
6
CONTINUOUS
10
152.8791789999999935
20
-53.483393999999997
11
152.9087350000000072
21
-53.4636449999999996
0
LINE
8
BLACK
6
CONTINUOUS
10
152.9087350000000072
20
-53.4636449999999996
11
152.9087360000000047
21
-53.4636439999999951
0
LINE
8
BLACK
6
CONTINUOUS
10
152.9087360000000047
20
-53.4636439999999951
11
153.0102890000000002
21
-53.3957890000000006
0
LINE
8
BLACK
6
CONTINUOUS
10
153.0102890000000002
20
-53.3957890000000006
11
153.0616179999999815
21
-53.344459999999998
0
LINE
8
BLACK
6
CONTINUOUS
10
153.0616179999999815
20
-53.344459999999998
11
153.0220759999999984
21
-53.3049180000000007
0
LINE
8
BLACK
6
CONTINUOUS
10
153.0220759999999984
20
-53.3049180000000007
11
152.9456710000000044
21
-53.3559699999999992
0
LINE
8
BLACK
6
CONTINUOUS
10
152.9456710000000044
20
-53.3559699999999992
11
152.8499999999999943
21
-53.375
0
LINE
8
BLACK
6
CONTINUOUS
10
152.8499999999999943
20
-53.375
11
152.1500000000000057
21
-53.375
0
LINE
8
BLACK
6
CONTINUOUS
10
152.1500000000000057
20
-53.375
11
152.0543289999999956
21
-53.3559699999999992
0
LINE
8
BLACK
6
CONTINUOUS
10
152.0543289999999956
20
-53.3559699999999992
11
151.9732229999999902
21
-53.3017769999999942
0
LINE
8
BLACK
6
CONTINUOUS
10
151.9732229999999902
20
-53.3017769999999942
11
151.9190299999999922
21
-53.2206709999999958
0
LINE
8
BLACK
6
CONTINUOUS
10
151.9190299999999922
20
-53.2206709999999958
11
151.9000000000000057
21
-53.125
0
LINE
8
BLACK
6
CONTINUOUS
10
151.9000000000000057
20
-53.125
11
151.9000000000000057
21
-51.875
0
LINE
8
BLACK
6
CONTINUOUS
10
151.9000000000000057
20
-51.875
11
151.9190299999999922
21
-51.7793289999999971
0
LINE
8
BLACK
6
CONTINUOUS
10
151.9190299999999922
20
-51.7793289999999971
11
151.9732229999999902
21
-51.6982229999999987
0
LINE
8
BLACK
6
CONTINUOUS
10
151.9732229999999902
20
-51.6982229999999987
11
152.0543289999999956
21
-51.6440300000000008
0
LINE
8
BLACK
6
CONTINUOUS
10
152.0543289999999956
20
-51.6440300000000008
11
152.1500000000000057
21
-51.625
0
LINE
8
BLACK
6
CONTINUOUS
10
152.1500000000000057
20
-51.625
11
152.8499999999999943
21
-51.625
0
LINE
8
BLACK
6
CONTINUOUS
10
152.8499999999999943
20
-51.625
11
152.9456710000000044
21
-51.6440300000000008
0
LINE
8
BLACK
6
CONTINUOUS
10
155.3799999999999955
20
-56.6204999999999998
11
153.7800000000000011
21
-56.6204999999999998
0
LINE
8
BLACK
6
CONTINUOUS
10
153.7800000000000011
20
-56.6204999999999998
11
153.7800000000000011
21
-55.0204999999999984
0
LINE
8
BLACK
6
CONTINUOUS
10
153.7800000000000011
20
-55.0204999999999984
11
155.3799999999999955
21
-55.0204999999999984
0
LINE
8
BLACK
6
CONTINUOUS
10
155.3799999999999955
20
-55.0204999999999984
11
155.3799999999999955
21
-56.6204999999999998
0
LINE
8
BLACK
6
CONTINUOUS
10
148.7296099999999797
20
-51.6696719999999985
11
148.8652569999999855
21
-51.7479879999999994
0
LINE
8
BLACK
6
CONTINUOUS
10
148.8652569999999855
20
-51.7479879999999994
11
148.9760119999999972
21
-51.8587429999999969
0
LINE
8
BLACK
6
CONTINUOUS
10
148.9760119999999972
20
-51.8587429999999969
11
149.0543279999999982
21
-51.9943899999999957
0
LINE
8
BLACK
6
CONTINUOUS
10
149.0543279999999982
20
-51.9943899999999957
11
149.0948669999999936
21
-52.1456839999999957
0
LINE
8
BLACK
6
CONTINUOUS
10
149.0948669999999936
20
-52.1456839999999957
11
149.0999999999999943
21
-52.2239999999999966
0
LINE
8
BLACK
6
CONTINUOUS
10
149.0999999999999943
20
-52.2239999999999966
11
149.0999999999999943
21
-52.2249999999999943
0
LINE
8
BLACK
6
CONTINUOUS
10
149.0999999999999943
20
-52.2249999999999943
11
149.0999999999999943
21
-52.7749999999999986
0
LINE
8
BLACK
6
CONTINUOUS
10
149.0999999999999943
20
-52.7749999999999986
11
149.0948669999999936
21
-52.8533159999999995
0
LINE
8
BLACK
6
CONTINUOUS
10
149.0948669999999936
20
-52.8533159999999995
11
149.0543279999999982
21
-53.0046099999999996
0
LINE
8
BLACK
6
CONTINUOUS
10
149.0543279999999982
20
-53.0046099999999996
11
148.9760119999999972
21
-53.1402569999999983
0
LINE
8
BLACK
6
CONTINUOUS
10
148.9760119999999972
20
-53.1402569999999983
11
148.8652569999999855
21
-53.2510119999999958
0
LINE
8
BLACK
6
CONTINUOUS
10
148.8652569999999855
20
-53.2510119999999958
11
148.7296099999999797
21
-53.3293279999999967
0
LINE
8
BLACK
6
CONTINUOUS
10
148.7296099999999797
20
-53.3293279999999967
11
148.6999999999999886
21
-53.337260999999998
0
LINE
8
BLACK
6
CONTINUOUS
10
148.6999999999999886
20
-53.337260999999998
11
148.6999999999999886
21
-54.6505249999999947
0
LINE
8
BLACK
6
CONTINUOUS
10
148.6999999999999886
20
-54.6505249999999947
11
148.7021059999999864
21
-54.6509339999999995
0
LINE
8
BLACK
6
CONTINUOUS
10
148.7021059999999864
20
-54.6509339999999995
11
149.0364390000000014
21
-54.7858419999999953
0
LINE
8
BLACK
6
CONTINUOUS
10
149.0364390000000014
20
-54.7858419999999953
11
149.6470850000000041
21
-55.0322460000000007
0
LINE
8
BLACK
6
CONTINUOUS
10
149.6470850000000041
20
-55.0322460000000007
11
149.653474999999986
21
-55.0385199999999983
0
LINE
8
BLACK
6
CONTINUOUS
10
149.653474999999986
20
-55.0385199999999983
11
149.653554999999983
21
-55.0392979999999952
0
LINE
8
BLACK
6
CONTINUOUS
10
149.653554999999983
20
-55.0392979999999952
11
149.7322279999999921
21
-55.054947999999996
0
LINE
8
BLACK
6
CONTINUOUS
10
149.7322279999999921
20
-55.054947999999996
11
149.8771169999999984
21
-55.1149629999999959
0
LINE
8
BLACK
6
CONTINUOUS
10
149.8771169999999984
20
-55.1149629999999959
11
150.0075149999999837
21
-55.2020920000000004
0
LINE
8
BLACK
6
CONTINUOUS
10
150.0075149999999837
20
-55.2020920000000004
11
150.1184079999999881
21
-55.3129849999999976
0
LINE
8
BLACK
6
CONTINUOUS
10
150.1184079999999881
20
-55.3129849999999976
11
150.2055369999999925
21
-55.4433829999999972
0
LINE
8
BLACK
6
CONTINUOUS
10
150.2055369999999925
20
-55.4433829999999972
11
150.2655519999999854
21
-55.5882719999999964
0
LINE
8
BLACK
6
CONTINUOUS
10
150.2655519999999854
20
-55.5882719999999964
11
150.2961479999999881
21
-55.7420860000000005
0
LINE
8
BLACK
6
CONTINUOUS
10
150.2961479999999881
20
-55.7420860000000005
11
150.2961479999999881
21
-55.8989139999999978
0
LINE
8
BLACK
6
CONTINUOUS
10
150.2961479999999881
20
-55.8989139999999978
11
150.2655519999999854
21
-56.0527279999999948
0
LINE
8
BLACK
6
CONTINUOUS
10
150.2655519999999854
20
-56.0527279999999948
11
150.2055369999999925
21
-56.1976169999999939
0
LINE
8
BLACK
6
CONTINUOUS
10
150.2055369999999925
20
-56.1976169999999939
11
150.1184079999999881
21
-56.3280150000000006
0
LINE
8
BLACK
6
CONTINUOUS
10
150.1184079999999881
20
-56.3280150000000006
11
150.0075149999999837
21
-56.4389079999999979
0
LINE
8
BLACK
6
CONTINUOUS
10
150.0075149999999837
20
-56.4389079999999979
11
149.8771169999999984
21
-56.5260369999999952
0
LINE
8
BLACK
6
CONTINUOUS
10
149.8771169999999984
20
-56.5260369999999952
11
149.7322279999999921
21
-56.5860519999999951
0
LINE
8
BLACK
6
CONTINUOUS
10
149.7322279999999921
20
-56.5860519999999951
11
149.5784139999999809
21
-56.6166479999999979
0
LINE
8
BLACK
6
CONTINUOUS
10
149.5784139999999809
20
-56.6166479999999979
11
149.4215859999999907
21
-56.6166479999999979
0
LINE
8
BLACK
6
CONTINUOUS
10
149.4215859999999907
20
-56.6166479999999979
11
149.2677719999999795
21
-56.5860519999999951
0
LINE
8
BLACK
6
CONTINUOUS
10
149.2677719999999795
20
-56.5860519999999951
11
149.1228830000000016
21
-56.5260369999999952
0
LINE
8
BLACK
6
CONTINUOUS
10
149.1228830000000016
20
-56.5260369999999952
11
148.9924849999999878
21
-56.4389079999999979
0
LINE
8
BLACK
6
CONTINUOUS
10
148.9924849999999878
20
-56.4389079999999979
11
148.8815919999999835
21
-56.3280150000000006
0
LINE
8
BLACK
6
CONTINUOUS
10
148.8815919999999835
20
-56.3280150000000006
11
148.7944630000000075
21
-56.1976169999999939
0
LINE
8
BLACK
6
CONTINUOUS
10
148.7944630000000075
20
-56.1976169999999939
11
148.7344479999999862
21
-56.0527279999999948
0
LINE
8
BLACK
6
CONTINUOUS
10
148.7344479999999862
20
-56.0527279999999948
11
148.7186130000000048
21
-55.9731239999999985
0
LINE
8
BLACK
6
CONTINUOUS
10
148.7186130000000048
20
-55.9731239999999985
11
148.7168879999999831
21
-55.9727789999999956
0
LINE
8
BLACK
6
CONTINUOUS
10
148.7168879999999831
20
-55.9727789999999956
11
148.7122349999999926
21
-55.9665549999999996
0
LINE
8
BLACK
6
CONTINUOUS
10
148.7122349999999926
20
-55.9665549999999996
11
148.415458000000001
21
-55.0187999999999988
0
LINE
8
BLACK
6
CONTINUOUS
10
148.415458000000001
20
-55.0187999999999988
11
148.3585789999999918
21
-54.9619209999999967
0
LINE
8
BLACK
6
CONTINUOUS
10
148.3585789999999918
20
-54.9619209999999967
11
148.3337060000000065
21
-54.9316139999999962
0
LINE
8
BLACK
6
CONTINUOUS
10
148.3337060000000065
20
-54.9316139999999962
11
148.3038430000000005
21
-54.8595179999999942
0
LINE
8
BLACK
6
CONTINUOUS
10
148.3038430000000005
20
-54.8595179999999942
11
148.2999999999999829
21
-54.8204999999999956
0
LINE
8
BLACK
6
CONTINUOUS
10
148.2999999999999829
20
-54.8204999999999956
11
148.2999999999999829
21
-53.337260999999998
0
LINE
8
BLACK
6
CONTINUOUS
10
148.2999999999999829
20
-53.337260999999998
11
148.2703899999999919
21
-53.3293279999999967
0
LINE
8
BLACK
6
CONTINUOUS
10
148.2703899999999919
20
-53.3293279999999967
11
148.1347429999999861
21
-53.2510119999999958
0
LINE
8
BLACK
6
CONTINUOUS
10
148.1347429999999861
20
-53.2510119999999958
11
148.0239880000000028
21
-53.1402569999999983
0
LINE
8
BLACK
6
CONTINUOUS
10
148.0239880000000028
20
-53.1402569999999983
11
147.9456720000000018
21
-53.0046099999999996
0
LINE
8
BLACK
6
CONTINUOUS
10
147.9456720000000018
20
-53.0046099999999996
11
147.9051330000000064
21
-52.8533159999999995
0
LINE
8
BLACK
6
CONTINUOUS
10
147.9051330000000064
20
-52.8533159999999995
11
147.9000000000000057
21
-52.7749999999999986
0
LINE
8
BLACK
6
CONTINUOUS
10
147.9000000000000057
20
-52.7749999999999986
11
147.9000000000000057
21
-52.2249999999999943
0
LINE
8
BLACK
6
CONTINUOUS
10
147.9000000000000057
20
-52.2249999999999943
11
147.9000000000000057
21
-52.2239999999999966
0
LINE
8
BLACK
6
CONTINUOUS
10
147.9000000000000057
20
-52.2239999999999966
11
147.9051330000000064
21
-52.1456839999999957
0
LINE
8
BLACK
6
CONTINUOUS
10
147.9051330000000064
20
-52.1456839999999957
11
147.9456720000000018
21
-51.9943899999999957
0
LINE
8
BLACK
6
CONTINUOUS
10
147.9456720000000018
20
-51.9943899999999957
11
148.0239880000000028
21
-51.8587429999999969
0
LINE
8
BLACK
6
CONTINUOUS
10
148.0239880000000028
20
-51.8587429999999969
11
148.1347429999999861
21
-51.7479879999999994
0
LINE
8
BLACK
6
CONTINUOUS
10
148.1347429999999861
20
-51.7479879999999994
11
148.2703899999999919
21
-51.6696719999999985
0
LINE
8
BLACK
6
CONTINUOUS
10
148.2703899999999919
20
-51.6696719999999985
11
148.4216839999999991
21
-51.6291329999999959
0
LINE
8
BLACK
6
CONTINUOUS
10
148.4216839999999991
20
-51.6291329999999959
11
148.5783160000000009
21
-51.6291329999999959
0
LINE
8
BLACK
6
CONTINUOUS
10
148.5783160000000009
20
-51.6291329999999959
11
148.7296099999999797
21
-51.6696719999999985
0
LINE
8
BLACK
6
CONTINUOUS
10
150.1415979999999877
20
-48.0038429999999963
11
150.2136940000000038
21
-48.0337059999999951
0
LINE
8
BLACK
6
CONTINUOUS
10
150.2136940000000038
20
-48.0337059999999951
11
150.2440009999999972
21
-48.0585789999999946
0
LINE
8
BLACK
6
CONTINUOUS
10
150.2440009999999972
20
-48.0585789999999946
11
150.6390030000000024
21
-48.4535809999999998
0
LINE
8
BLACK
6
CONTINUOUS
10
150.6390030000000024
20
-48.4535809999999998
11
150.6638759999999877
21
-48.4838880000000003
0
LINE
8
BLACK
6
CONTINUOUS
10
150.6638759999999877
20
-48.4838880000000003
11
150.6937389999999937
21
-48.5559839999999951
0
LINE
8
BLACK
6
CONTINUOUS
10
150.6937389999999937
20
-48.5559839999999951
11
150.6975819999999828
21
-48.5950020000000009
0
LINE
8
BLACK
6
CONTINUOUS
10
150.6975819999999828
20
-48.5950020000000009
11
150.6975819999999828
21
-50.214739999999999
0
LINE
8
BLACK
6
CONTINUOUS
10
150.6975819999999828
20
-50.214739999999999
11
151.6504209999999944
21
-51.1675789999999964
0
LINE
8
BLACK
6
CONTINUOUS
10
151.6504209999999944
20
-51.1675789999999964
11
151.6752939999999796
21
-51.1978859999999969
0
LINE
8
BLACK
6
CONTINUOUS
10
151.6752939999999796
20
-51.1978859999999969
11
151.7051569999999856
21
-51.2699819999999988
0
LINE
8
BLACK
6
CONTINUOUS
10
151.7051569999999856
20
-51.2699819999999988
11
151.7090000000000032
21
-51.3089999999999975
0
LINE
8
BLACK
6
CONTINUOUS
10
151.7090000000000032
20
-51.3089999999999975
11
151.7090000000000032
21
-54.4436469999999986
0
LINE
8
BLACK
6
CONTINUOUS
10
151.7090000000000032
20
-54.4436469999999986
11
151.7123579999999947
21
-54.4449569999999952
0
LINE
8
BLACK
6
CONTINUOUS
10
151.7123579999999947
20
-54.4449569999999952
11
152.3762639999999919
21
-55.0557820000000007
0
LINE
8
BLACK
6
CONTINUOUS
10
152.3762639999999919
20
-55.0557820000000007
11
152.477090000000004
21
-55.1485470000000007
0
LINE
8
BLACK
6
CONTINUOUS
10
152.477090000000004
20
-55.1485470000000007
11
152.4808579999999836
21
-55.1566699999999983
0
LINE
8
BLACK
6
CONTINUOUS
10
152.4808579999999836
20
-55.1566699999999983
11
152.4806489999999997
21
-55.1574129999999982
0
LINE
8
BLACK
6
CONTINUOUS
10
152.4806489999999997
20
-55.1574129999999982
11
152.5475150000000042
21
-55.2020920000000004
0
LINE
8
BLACK
6
CONTINUOUS
10
152.5475150000000042
20
-55.2020920000000004
11
152.6584079999999801
21
-55.3129849999999976
0
LINE
8
BLACK
6
CONTINUOUS
10
152.6584079999999801
20
-55.3129849999999976
11
152.7455369999999846
21
-55.4433829999999972
0
LINE
8
BLACK
6
CONTINUOUS
10
152.7455369999999846
20
-55.4433829999999972
11
152.8055520000000058
21
-55.5882719999999964
0
LINE
8
BLACK
6
CONTINUOUS
10
152.8055520000000058
20
-55.5882719999999964
11
152.8361479999999801
21
-55.7420860000000005
0
LINE
8
BLACK
6
CONTINUOUS
10
152.8361479999999801
20
-55.7420860000000005
11
152.8361479999999801
21
-55.8989139999999978
0
LINE
8
BLACK
6
CONTINUOUS
10
152.8361479999999801
20
-55.8989139999999978
11
152.8055520000000058
21
-56.0527279999999948
0
LINE
8
BLACK
6
CONTINUOUS
10
152.8055520000000058
20
-56.0527279999999948
11
152.7455369999999846
21
-56.1976169999999939
0
LINE
8
BLACK
6
CONTINUOUS
10
152.7455369999999846
20
-56.1976169999999939
11
152.6584079999999801
21
-56.3280150000000006
0
LINE
8
BLACK
6
CONTINUOUS
10
152.6584079999999801
20
-56.3280150000000006
11
152.5475150000000042
21
-56.4389079999999979
0
LINE
8
BLACK
6
CONTINUOUS
10
152.5475150000000042
20
-56.4389079999999979
11
152.4171169999999904
21
-56.5260369999999952
0
LINE
8
BLACK
6
CONTINUOUS
10
152.4171169999999904
20
-56.5260369999999952
11
152.2722279999999841
21
-56.5860519999999951
0
LINE
8
BLACK
6
CONTINUOUS
10
152.2722279999999841
20
-56.5860519999999951
11
152.1184140000000014
21
-56.6166479999999979
0
LINE
8
BLACK
6
CONTINUOUS
10
152.1184140000000014
20
-56.6166479999999979
11
151.9615859999999827
21
-56.6166479999999979
0
LINE
8
BLACK
6
CONTINUOUS
10
151.9615859999999827
20
-56.6166479999999979
11
151.8077719999999999
21
-56.5860519999999951
0
LINE
8
BLACK
6
CONTINUOUS
10
151.8077719999999999
20
-56.5860519999999951
11
151.6628829999999937
21
-56.5260369999999952
0
LINE
8
BLACK
6
CONTINUOUS
10
151.6628829999999937
20
-56.5260369999999952
11
151.5324849999999799
21
-56.4389079999999979
0
LINE
8
BLACK
6
CONTINUOUS
10
151.5324849999999799
20
-56.4389079999999979
11
151.421592000000004
21
-56.3280150000000006
0
LINE
8
BLACK
6
CONTINUOUS
10
151.421592000000004
20
-56.3280150000000006
11
151.3344629999999995
21
-56.1976169999999939
0
LINE
8
BLACK
6
CONTINUOUS
10
151.3344629999999995
20
-56.1976169999999939
11
151.2744480000000067
21
-56.0527279999999948
0
LINE
8
BLACK
6
CONTINUOUS
10
151.2744480000000067
20
-56.0527279999999948
11
151.243852000000004
21
-55.8989139999999978
0
LINE
8
BLACK
6
CONTINUOUS
10
151.243852000000004
20
-55.8989139999999978
11
151.243852000000004
21
-55.7420860000000005
0
LINE
8
BLACK
6
CONTINUOUS
10
151.243852000000004
20
-55.7420860000000005
11
151.2596479999999985
21
-55.6626739999999955
0
LINE
8
BLACK
6
CONTINUOUS
10
151.2596479999999985
20
-55.6626739999999955
11
151.2577639999999803
21
-55.6614119999999986
0
LINE
8
BLACK
6
CONTINUOUS
10
151.2577639999999803
20
-55.6614119999999986
11
151.2558109999999942
21
-55.6544109999999961
0
LINE
8
BLACK
6
CONTINUOUS
10
151.2558109999999942
20
-55.6544109999999961
11
151.2773389999999836
21
-55.163649999999997
0
LINE
8
BLACK
6
CONTINUOUS
10
151.2773389999999836
20
-55.163649999999997
11
151.3085089999999866
21
-54.4530539999999945
0
LINE
8
BLACK
6
CONTINUOUS
10
151.3085089999999866
20
-54.4530539999999945
11
151.3089999999999975
21
-54.4520009999999957
0
LINE
8
BLACK
6
CONTINUOUS
10
151.3089999999999975
20
-54.4520009999999957
11
151.3089999999999975
21
-51.3918419999999969
0
LINE
8
BLACK
6
CONTINUOUS
10
151.3089999999999975
20
-51.3918419999999969
11
150.356160999999986
21
-50.4390029999999996
0
LINE
8
BLACK
6
CONTINUOUS
10
150.356160999999986
20
-50.4390029999999996
11
150.3312880000000007
21
-50.4086959999999991
0
LINE
8
BLACK
6
CONTINUOUS
10
150.3312880000000007
20
-50.4086959999999991
11
150.3014249999999947
21
-50.3365999999999971
0
LINE
8
BLACK
6
CONTINUOUS
10
150.3014249999999947
20
-50.3365999999999971
11
150.2975820000000056
21
-50.2975819999999985
0
LINE
8
BLACK
6
CONTINUOUS
10
150.2975820000000056
20
-50.2975819999999985
11
150.2975820000000056
21
-48.6778440000000003
0
LINE
8
BLACK
6
CONTINUOUS
10
150.2975820000000056
20
-48.6778440000000003
11
150.0197379999999896
21
-48.3999999999999986
0
LINE
8
BLACK
6
CONTINUOUS
10
150.0197379999999896
20
-48.3999999999999986
11
148.5539939999999888
21
-48.3999999999999986
0
LINE
8
BLACK
6
CONTINUOUS
10
148.5539939999999888
20
-48.3999999999999986
11
146.6999999999999886
21
-50.2539939999999987
0
LINE
8
BLACK
6
CONTINUOUS
10
146.6999999999999886
20
-50.2539939999999987
11
146.6999999999999886
21
-51.038927000000001
0
LINE
8
BLACK
6
CONTINUOUS
10
146.6999999999999886
20
-51.038927000000001
11
146.7000699999999824
21
-51.0389559999999989
0
LINE
8
BLACK
6
CONTINUOUS
10
146.7000699999999824
20
-51.0389559999999989
11
146.7027960000000064
21
-51.0432409999999948
0
LINE
8
BLACK
6
CONTINUOUS
10
146.7027960000000064
20
-51.0432409999999948
11
147.0364040000000045
21
-51.9633449999999968
0
LINE
8
BLACK
6
CONTINUOUS
10
147.0364040000000045
20
-51.9633449999999968
11
147.0543279999999982
21
-51.9943899999999957
0
LINE
8
BLACK
6
CONTINUOUS
10
147.0543279999999982
20
-51.9943899999999957
11
147.0732079999999939
21
-52.0648509999999973
0
LINE
8
BLACK
6
CONTINUOUS
10
147.0732079999999939
20
-52.0648509999999973
11
147.0853439999999921
21
-52.0983230000000006
0
LINE
8
BLACK
6
CONTINUOUS
10
147.0853439999999921
20
-52.0983230000000006
11
147.0849429999999813
21
-52.1072689999999952
0
LINE
8
BLACK
6
CONTINUOUS
10
147.0849429999999813
20
-52.1072689999999952
11
147.0846609999999828
21
-52.1075960000000009
0
LINE
8
BLACK
6
CONTINUOUS
10
147.0846609999999828
20
-52.1075960000000009
11
147.0948669999999936
21
-52.1456839999999957
0
LINE
8
BLACK
6
CONTINUOUS
10
147.0948669999999936
20
-52.1456839999999957
11
147.0999999999999943
21
-52.2239999999999966
0
LINE
8
BLACK
6
CONTINUOUS
10
147.0999999999999943
20
-52.2239999999999966
11
147.0999999999999943
21
-52.7740000000000009
0
LINE
8
BLACK
6
CONTINUOUS
10
147.0999999999999943
20
-52.7740000000000009
11
147.0948669999999936
21
-52.8523159999999947
0
LINE
8
BLACK
6
CONTINUOUS
10
147.0948669999999936
20
-52.8523159999999947
11
147.0543279999999982
21
-53.0036099999999948
0
LINE
8
BLACK
6
CONTINUOUS
10
147.0543279999999982
20
-53.0036099999999948
11
146.9760119999999972
21
-53.1392570000000006
0
LINE
8
BLACK
6
CONTINUOUS
10
146.9760119999999972
20
-53.1392570000000006
11
146.8652569999999855
21
-53.2500119999999981
0
LINE
8
BLACK
6
CONTINUOUS
10
146.8652569999999855
20
-53.2500119999999981
11
146.7296099999999797
21
-53.3283279999999991
0
LINE
8
BLACK
6
CONTINUOUS
10
146.7296099999999797
20
-53.3283279999999991
11
146.5783160000000009
21
-53.3688669999999945
0
LINE
8
BLACK
6
CONTINUOUS
10
146.5783160000000009
20
-53.3688669999999945
11
146.4216839999999991
21
-53.3688669999999945
0
LINE
8
BLACK
6
CONTINUOUS
10
146.4216839999999991
20
-53.3688669999999945
11
146.2703899999999919
21
-53.3283279999999991
0
LINE
8
BLACK
6
CONTINUOUS
10
146.2703899999999919
20
-53.3283279999999991
11
146.1347429999999861
21
-53.2500119999999981
0
LINE
8
BLACK
6
CONTINUOUS
10
146.1347429999999861
20
-53.2500119999999981
11
146.0239880000000028
21
-53.1392570000000006
0
LINE
8
BLACK
6
CONTINUOUS
10
146.0239880000000028
20
-53.1392570000000006
11
145.9456720000000018
21
-53.0036099999999948
0
LINE
8
BLACK
6
CONTINUOUS
10
145.9456720000000018
20
-53.0036099999999948
11
145.9051330000000064
21
-52.8523159999999947
0
LINE
8
BLACK
6
CONTINUOUS
10
145.9051330000000064
20
-52.8523159999999947
11
145.9000000000000057
21
-52.7740000000000009
0
LINE
8
BLACK
6
CONTINUOUS
10
145.9000000000000057
20
-52.7740000000000009
11
145.9000000000000057
21
-52.2239999999999966
0
LINE
8
BLACK
6
CONTINUOUS
10
145.9000000000000057
20
-52.2239999999999966
11
145.9051330000000064
21
-52.1456839999999957
0
LINE
8
BLACK
6
CONTINUOUS
10
145.9051330000000064
20
-52.1456839999999957
11
145.9155800000000056
21
-52.1066919999999953
0
LINE
8
BLACK
6
CONTINUOUS
10
145.9155800000000056
20
-52.1066919999999953
11
145.9141789999999901
21
-52.1045960000000008
0
LINE
8
BLACK
6
CONTINUOUS
10
145.9141789999999901
20
-52.1045960000000008
11
145.9146539999999845
21
-52.0983239999999981
0
LINE
8
BLACK
6
CONTINUOUS
10
145.9146539999999845
20
-52.0983239999999981
11
145.926795999999996
21
-52.0648349999999951
0
LINE
8
BLACK
6
CONTINUOUS
10
145.926795999999996
20
-52.0648349999999951
11
145.9456720000000018
21
-51.9943899999999957
0
LINE
8
BLACK
6
CONTINUOUS
10
145.9456720000000018
20
-51.9943899999999957
11
145.9635909999999797
21
-51.9633509999999958
0
LINE
8
BLACK
6
CONTINUOUS
10
145.9635909999999797
20
-51.9633509999999958
11
146.2972039999999936
21
-51.0432409999999948
0
LINE
8
BLACK
6
CONTINUOUS
10
146.2972039999999936
20
-51.0432409999999948
11
146.2999999999999829
21
-51.0401809999999969
0
LINE
8
BLACK
6
CONTINUOUS
10
146.2999999999999829
20
-51.0401809999999969
11
146.2999999999999829
21
-50.1711519999999993
0
LINE
8
BLACK
6
CONTINUOUS
10
146.2999999999999829
20
-50.1711519999999993
11
146.3038430000000005
21
-50.1321340000000006
0
LINE
8
BLACK
6
CONTINUOUS
10
146.3038430000000005
20
-50.1321340000000006
11
146.3337060000000065
21
-50.0600379999999987
0
LINE
8
BLACK
6
CONTINUOUS
10
146.3337060000000065
20
-50.0600379999999987
11
146.3585789999999918
21
-50.0297309999999982
0
LINE
8
BLACK
6
CONTINUOUS
10
146.3585789999999918
20
-50.0297309999999982
11
148.3297309999999811
21
-48.0585789999999946
0
LINE
8
BLACK
6
CONTINUOUS
10
148.3297309999999811
20
-48.0585789999999946
11
148.360038000000003
21
-48.0337059999999951
0
LINE
8
BLACK
6
CONTINUOUS
10
148.360038000000003
20
-48.0337059999999951
11
148.4321339999999907
21
-48.0038429999999963
0
LINE
8
BLACK
6
CONTINUOUS
10
148.4321339999999907
20
-48.0038429999999963
11
148.4711519999999894
21
-48.
0
LINE
8
BLACK
6
CONTINUOUS
10
148.4711519999999894
20
-48.
11
150.102579999999989
21
-48.
0
LINE
8
BLACK
6
CONTINUOUS
10
150.102579999999989
20
-48.
11
150.1415979999999877
21
-48.0038429999999963
0
CIRCLE
8
BLACK
10
152.5
20
-52.5
40
0.375
0
CIRCLE
8
BLACK
10
150.5
20
-52.5
40
0.375
0
CIRCLE
8
BLACK
10
148.5
20
-52.5
40
0.375
0
CIRCLE
8
BLACK
10
152.75
20
-66.5999999999999943
40
0.375
0
CIRCLE
8
BLACK
10
150.75
20
-66.5999999999999943
40
0.375
0
CIRCLE
8
BLACK
10
148.75
20
-66.5999999999999943
40
0.375
0
CIRCLE
8
BLACK
10
154.5799999999999841
20
-63.4405000000000001
40
0.4
0
CIRCLE
8
BLACK
10
152.039999999999992
20
-63.4405000000000001
40
0.4
0
CIRCLE
8
BLACK
10
149.5
20
-63.4405000000000001
40
0.4
0
CIRCLE
8
BLACK
10
146.9599999999999795
20
-63.4405000000000001
40
0.4
0
CIRCLE
8
BLACK
10
146.9599999999999795
20
-55.8204999999999956
40
0.4
0
CIRCLE
8
BLACK
10
149.5
20
-55.8204999999999956
40
0.4
0
CIRCLE
8
BLACK
10
152.039999999999992
20
-55.8204999999999956
40
0.4
0
CIRCLE
8
BLACK
10
154.5799999999999841
20
-55.8204999999999956
40
0.4
0
CIRCLE
8
BLACK
10
148.75
20
-68.7667000000000002
40
0.375
0
CIRCLE
8
BLACK
10
150.75
20
-68.7667000000000002
40
0.375
0
CIRCLE
8
BLACK
10
152.75
20
-68.7667000000000002
40
0.375
0
CIRCLE
8
BLACK
10
149.5
20
-49.5
40
0.375
0
CIRCLE
8
BLACK
10
151.5
20
-49.5
40
0.375
0
CIRCLE
8
BLACK
10
154.5
20
-52.4989999999999952
40
0.375
0
CIRCLE
8
BLACK
10
152.5
20
-52.4989999999999952
40
0.375
0
CIRCLE
8
BLACK
10
150.5
20
-52.4989999999999952
40
0.375
0
CIRCLE
8
BLACK
10
148.5
20
-52.4989999999999952
40
0.375
0
CIRCLE
8
BLACK
10
146.5
20
-52.4989999999999952
40
0.375
0
LINE
8
BLACK
6
CONTINUOUS
10
156.4556379999999933
20
-40.4769030000000001
11
156.4691679999999963
21
-40.4904329999999959
0
LINE
8
BLACK
6
CONTINUOUS
10
156.4691679999999963
20
-40.4904329999999959
11
156.4710709999999949
21
-40.5
0
LINE
8
BLACK
6
CONTINUOUS
10
156.4710709999999949
20
-40.5
11
156.4710709999999949
21
-78.7999999999999972
0
LINE
8
BLACK
6
CONTINUOUS
10
156.4710709999999949
20
-78.7999999999999972
11
156.4691679999999963
21
-78.8095670000000013
0
LINE
8
BLACK
6
CONTINUOUS
10
156.4691679999999963
20
-78.8095670000000013
11
156.4556379999999933
21
-78.82309699999999
0
LINE
8
BLACK
6
CONTINUOUS
10
156.4556379999999933
20
-78.82309699999999
11
156.4460709999999892
21
-78.8250000000000028
0
LINE
8
BLACK
6
CONTINUOUS
10
156.4460709999999892
20
-78.8250000000000028
11
145.4000000000000057
21
-78.8250000000000028
0
LINE
8
BLACK
6
CONTINUOUS
10
145.4000000000000057
20
-78.8250000000000028
11
145.3904330000000016
21
-78.82309699999999
0
LINE
8
BLACK
6
CONTINUOUS
10
145.3904330000000016
20
-78.82309699999999
11
145.3769029999999987
21
-78.8095670000000013
0
LINE
8
BLACK
6
CONTINUOUS
10
145.3769029999999987
20
-78.8095670000000013
11
145.375
21
-78.7999999999999972
0
LINE
8
BLACK
6
CONTINUOUS
10
145.375
20
-78.7999999999999972
11
145.375
21
-40.5
0
LINE
8
BLACK
6
CONTINUOUS
10
145.375
20
-40.5
11
145.3769029999999987
21
-40.4904329999999959
0
LINE
8
BLACK
6
CONTINUOUS
10
145.3769029999999987
20
-40.4904329999999959
11
145.3904330000000016
21
-40.4769030000000001
0
LINE
8
BLACK
6
CONTINUOUS
10
145.3904330000000016
20
-40.4769030000000001
11
145.4000000000000057
21
-40.4750000000000014
0
LINE
8
BLACK
6
CONTINUOUS
10
145.4000000000000057
20
-40.4750000000000014
11
156.4460709999999892
21
-40.4750000000000014
0
LINE
8
BLACK
6
CONTINUOUS
10
156.4460709999999892
20
-40.4750000000000014
11
156.4556379999999933
21
-40.4769030000000001
0
LINE
8
BLACK
6
CONTINUOUS
10
145.4249999999999829
20
-40.5249999999999986
11
145.4249999999999829
21
-78.7749999999999915
0
LINE
8
BLACK
6
CONTINUOUS
10
145.4249999999999829
20
-78.7749999999999915
11
156.4210709999999835
21
-78.7749999999999915
0
LINE
8
BLACK
6
CONTINUOUS
10
156.4210709999999835
20
-78.7749999999999915
11
156.4210709999999835
21
-40.5249999999999986
0
LINE
8
BLACK
6
CONTINUOUS
10
156.4210709999999835
20
-40.5249999999999986
11
145.4249999999999829
21
-40.5249999999999986
0
CIRCLE
8
BLACK
10
152.5
20
-52.5
40
0.375
0
CIRCLE
8
BLACK
10
150.5
20
-52.5
40
0.375
0
CIRCLE
8
BLACK
10
148.5
20
-52.5
40
0.375
0
CIRCLE
8
BLACK
10
152.75
20
-66.5999999999999943
40
0.375
0
CIRCLE
8
BLACK
10
150.75
20
-66.5999999999999943
40
0.375
0
CIRCLE
8
BLACK
10
148.75
20
-66.5999999999999943
40
0.375
0
CIRCLE
8
BLACK
10
154.5799999999999841
20
-63.4405000000000001
40
0.4
0
CIRCLE
8
BLACK
10
152.039999999999992
20
-63.4405000000000001
40
0.4
0
CIRCLE
8
BLACK
10
149.5
20
-63.4405000000000001
40
0.4
0
CIRCLE
8
BLACK
10
146.9599999999999795
20
-63.4405000000000001
40
0.4
0
CIRCLE
8
BLACK
10
146.9599999999999795
20
-55.8204999999999956
40
0.4
0
CIRCLE
8
BLACK
10
149.5
20
-55.8204999999999956
40
0.4
0
CIRCLE
8
BLACK
10
152.039999999999992
20
-55.8204999999999956
40
0.4
0
CIRCLE
8
BLACK
10
154.5799999999999841
20
-55.8204999999999956
40
0.4
0
CIRCLE
8
BLACK
10
148.75
20
-68.7667000000000002
40
0.375
0
CIRCLE
8
BLACK
10
150.75
20
-68.7667000000000002
40
0.375
0
CIRCLE
8
BLACK
10
152.75
20
-68.7667000000000002
40
0.375
0
CIRCLE
8
BLACK
10
149.5
20
-49.5
40
0.375
0
CIRCLE
8
BLACK
10
151.5
20
-49.5
40
0.375
0
CIRCLE
8
BLACK
10
154.5
20
-52.4989999999999952
40
0.375
0
CIRCLE
8
BLACK
10
152.5
20
-52.4989999999999952
40
0.375
0
CIRCLE
8
BLACK
10
150.5
20
-52.4989999999999952
40
0.375
0
CIRCLE
8
BLACK
10
148.5
20
-52.4989999999999952
40
0.375
0
CIRCLE
8
BLACK
10
146.5
20
-52.4989999999999952
40
0.375
0
CIRCLE
8
WHITE
10
152.5
20
-52.5
40
0.375
0
CIRCLE
8
WHITE
10
150.5
20
-52.5
40
0.375
0
CIRCLE
8
WHITE
10
148.5
20
-52.5
40
0.375
0
CIRCLE
8
WHITE
10
152.75
20
-66.5999999999999943
40
0.375
0
CIRCLE
8
WHITE
10
150.75
20
-66.5999999999999943
40
0.375
0
CIRCLE
8
WHITE
10
148.75
20
-66.5999999999999943
40
0.375
0
CIRCLE
8
WHITE
10
154.5799999999999841
20
-63.4405000000000001
40
0.4
0
CIRCLE
8
WHITE
10
152.039999999999992
20
-63.4405000000000001
40
0.4
0
CIRCLE
8
WHITE
10
149.5
20
-63.4405000000000001
40
0.4
0
CIRCLE
8
WHITE
10
146.9599999999999795
20
-63.4405000000000001
40
0.4
0
CIRCLE
8
WHITE
10
146.9599999999999795
20
-55.8204999999999956
40
0.4
0
CIRCLE
8
WHITE
10
149.5
20
-55.8204999999999956
40
0.4
0
CIRCLE
8
WHITE
10
152.039999999999992
20
-55.8204999999999956
40
0.4
0
CIRCLE
8
WHITE
10
154.5799999999999841
20
-55.8204999999999956
40
0.4
0
CIRCLE
8
WHITE
10
148.75
20
-68.7667000000000002
40
0.375
0
CIRCLE
8
WHITE
10
150.75
20
-68.7667000000000002
40
0.375
0
CIRCLE
8
WHITE
10
152.75
20
-68.7667000000000002
40
0.375
0
CIRCLE
8
WHITE
10
149.5
20
-49.5
40
0.375
0
CIRCLE
8
WHITE
10
151.5
20
-49.5
40
0.375
0
CIRCLE
8
WHITE
10
154.5
20
-52.4989999999999952
40
0.375
0
CIRCLE
8
WHITE
10
152.5
20
-52.4989999999999952
40
0.375
0
CIRCLE
8
WHITE
10
150.5
20
-52.4989999999999952
40
0.375
0
CIRCLE
8
WHITE
10
148.5
20
-52.4989999999999952
40
0.375
0
CIRCLE
8
WHITE
10
146.5
20
-52.4989999999999952
40
0.375
  0
ENDSEC
  0
EOF
