  0
SECTION
  2
HEADER
  9
$ANGBASE
  50
0.0
  9
$ANGDIR
  70
1
  9
$MEASUREMENT
  70
1
  0
ENDSEC
  0
SECTION
  2
TABLES
  0
TABLE
  2
LTYPE
  70
4
  0
LTYPE
  5
40F
  2
CONTINUOUS
  70
0
  3
Solid line
  72
65
  73
0
  40
0.0
  0
LTYPE
  5
410
  2
DASHDOT
 70
0
  3
Dash Dot ____ _ ____ _
 72
65
 73
4
 40
2.0
 49
1.25
 49
-0.25
 49
0.25
 49
-0.25
  0
LTYPE
  5
411
  2
DASHED
 70
0
  3
Dashed __ __ __ __ __
 72
65
 73
2
 40
0.75
 49
0.5
 49
-0.25
  0
LTYPE
  5
43B
  2
DOTTED
 70
0
  3
Dotted .  .  .  .
 72
65
 73
2
 40
0.2
 49
0.0
 49
-0.2
  0
ENDTAB
  0
TABLE
  2
STYLE
  70
4
  0
STYLE
  2
KICAD
  70
0
  40
0
  41
1
  42
1
  50
0
  71
0
  3
isocp.shx
  0
STYLE
  2
KICADB
  70
0
  40
0
  41
1
  42
1
  50
0
  71
0
  3
isocp.shx
  0
STYLE
  2
KICADI
  70
0
  40
0
  41
1
  42
1
  50
15
  71
0
  3
isocp.shx
  0
STYLE
  2
KICADBI
  70
0
  40
0
  41
1
  42
1
  50
15
  71
0
  3
isocp.shx
  0
ENDTAB
  0
TABLE
  2
LAYER
  70
1
  0
LAYER
  2
BLACK
  70
0
  62
7
  6
CONTINUOUS
  0
ENDTAB
  0
ENDSEC
  0
SECTION
  2
ENTITIES
0
LINE
8
BLACK
6
CONTINUOUS
10
102.7867419999999896
20
-106.8066010000000006
11
102.9406869999999969
21
-106.8703670000000017
0
LINE
8
BLACK
6
CONTINUOUS
10
102.9406869999999969
20
-106.8703670000000017
11
103.0792339999999996
21
-106.9629410000000007
0
LINE
8
BLACK
6
CONTINUOUS
10
103.0792339999999996
20
-106.9629410000000007
11
103.1970589999999959
21
-107.080765999999997
0
LINE
8
BLACK
6
CONTINUOUS
10
103.1970589999999959
20
-107.080765999999997
11
103.2896329999999949
21
-107.2193129999999996
0
LINE
8
BLACK
6
CONTINUOUS
10
103.2896329999999949
20
-107.2193129999999996
11
103.353398999999996
21
-107.3732579999999928
0
LINE
8
BLACK
6
CONTINUOUS
10
103.353398999999996
20
-107.3732579999999928
11
103.3859069999999889
21
-107.5366849999999914
0
LINE
8
BLACK
6
CONTINUOUS
10
103.3859069999999889
20
-107.5366849999999914
11
103.3859069999999889
21
-107.7033149999999893
0
LINE
8
BLACK
6
CONTINUOUS
10
103.3859069999999889
20
-107.7033149999999893
11
103.353398999999996
21
-107.8667420000000021
0
LINE
8
BLACK
6
CONTINUOUS
10
103.353398999999996
20
-107.8667420000000021
11
103.2896329999999949
21
-108.0206869999999952
0
LINE
8
BLACK
6
CONTINUOUS
10
103.2896329999999949
20
-108.0206869999999952
11
103.1970589999999959
21
-108.1592339999999979
0
LINE
8
BLACK
6
CONTINUOUS
10
103.1970589999999959
20
-108.1592339999999979
11
103.0792339999999996
21
-108.2770589999999942
0
LINE
8
BLACK
6
CONTINUOUS
10
103.0792339999999996
20
-108.2770589999999942
11
102.9406869999999969
21
-108.3696329999999932
0
LINE
8
BLACK
6
CONTINUOUS
10
102.9406869999999969
20
-108.3696329999999932
11
102.8306789999999893
21
-108.4151990000000012
0
LINE
8
BLACK
6
CONTINUOUS
10
102.8306789999999893
20
-108.4151990000000012
11
102.9705189999999959
21
-108.4606359999999938
0
LINE
8
BLACK
6
CONTINUOUS
10
102.9705189999999959
20
-108.4606359999999938
11
103.1278109999999941
21
-108.540779999999998
0
LINE
8
BLACK
6
CONTINUOUS
10
103.1278109999999941
20
-108.540779999999998
11
103.2706289999999996
21
-108.6445429999999988
0
LINE
8
BLACK
6
CONTINUOUS
10
103.2706289999999996
20
-108.6445429999999988
11
103.3954569999999933
21
-108.7693709999999925
0
LINE
8
BLACK
6
CONTINUOUS
10
103.3954569999999933
20
-108.7693709999999925
11
103.499219999999994
21
-108.9121889999999979
0
LINE
8
BLACK
6
CONTINUOUS
10
103.499219999999994
20
-108.9121889999999979
11
103.5793639999999982
21
-109.0694809999999961
0
LINE
8
BLACK
6
CONTINUOUS
10
103.5793639999999982
20
-109.0694809999999961
11
103.6339159999999993
21
-109.2373739999999884
0
LINE
8
BLACK
6
CONTINUOUS
10
103.6339159999999993
20
-109.2373739999999884
11
103.661531999999994
21
-109.4117339999999956
0
LINE
8
BLACK
6
CONTINUOUS
10
103.661531999999994
20
-109.4117339999999956
11
103.661531999999994
21
-109.5882659999999902
0
LINE
8
BLACK
6
CONTINUOUS
10
103.661531999999994
20
-109.5882659999999902
11
103.6339159999999993
21
-109.7626259999999974
0
LINE
8
BLACK
6
CONTINUOUS
10
103.6339159999999993
20
-109.7626259999999974
11
103.5793639999999982
21
-109.9305189999999897
0
LINE
8
BLACK
6
CONTINUOUS
10
103.5793639999999982
20
-109.9305189999999897
11
103.499219999999994
21
-110.0878110000000021
0
LINE
8
BLACK
6
CONTINUOUS
10
103.499219999999994
20
-110.0878110000000021
11
103.3954569999999933
21
-110.2306289999999933
0
LINE
8
BLACK
6
CONTINUOUS
10
103.3954569999999933
20
-110.2306289999999933
11
103.2706289999999996
21
-110.3554570000000012
0
LINE
8
BLACK
6
CONTINUOUS
10
103.2706289999999996
20
-110.3554570000000012
11
103.1278109999999941
21
-110.459220000000002
0
LINE
8
BLACK
6
CONTINUOUS
10
103.1278109999999941
20
-110.459220000000002
11
102.9705189999999959
21
-110.539363999999992
0
LINE
8
BLACK
6
CONTINUOUS
10
102.9705189999999959
20
-110.539363999999992
11
102.8026259999999894
21
-110.593915999999993
0
LINE
8
BLACK
6
CONTINUOUS
10
102.8026259999999894
20
-110.593915999999993
11
102.6282659999999964
21
-110.621532000000002
0
LINE
8
BLACK
6
CONTINUOUS
10
102.6282659999999964
20
-110.621532000000002
11
102.4517340000000019
21
-110.621532000000002
0
LINE
8
BLACK
6
CONTINUOUS
10
102.4517340000000019
20
-110.621532000000002
11
102.2773739999999947
21
-110.593915999999993
0
LINE
8
BLACK
6
CONTINUOUS
10
102.2773739999999947
20
-110.593915999999993
11
102.1094810000000024
21
-110.539363999999992
0
LINE
8
BLACK
6
CONTINUOUS
10
102.1094810000000024
20
-110.539363999999992
11
101.95218899999999
21
-110.459220000000002
0
LINE
8
BLACK
6
CONTINUOUS
10
101.95218899999999
20
-110.459220000000002
11
101.8093709999999987
21
-110.3554570000000012
0
LINE
8
BLACK
6
CONTINUOUS
10
101.8093709999999987
20
-110.3554570000000012
11
101.6845429999999908
21
-110.2306289999999933
0
LINE
8
BLACK
6
CONTINUOUS
10
101.6845429999999908
20
-110.2306289999999933
11
101.5807799999999901
21
-110.0878110000000021
0
LINE
8
BLACK
6
CONTINUOUS
10
101.5807799999999901
20
-110.0878110000000021
11
101.5006360000000001
21
-109.9305189999999897
0
LINE
8
BLACK
6
CONTINUOUS
10
101.5006360000000001
20
-109.9305189999999897
11
101.446083999999999
21
-109.7626259999999974
0
LINE
8
BLACK
6
CONTINUOUS
10
101.446083999999999
20
-109.7626259999999974
11
101.4184679999999901
21
-109.5882659999999902
0
LINE
8
BLACK
6
CONTINUOUS
10
101.4184679999999901
20
-109.5882659999999902
11
101.4184679999999901
21
-109.4117339999999956
0
LINE
8
BLACK
6
CONTINUOUS
10
101.4184679999999901
20
-109.4117339999999956
11
101.446083999999999
21
-109.2373739999999884
0
LINE
8
BLACK
6
CONTINUOUS
10
101.446083999999999
20
-109.2373739999999884
11
101.5006360000000001
21
-109.0694809999999961
0
LINE
8
BLACK
6
CONTINUOUS
10
101.5006360000000001
20
-109.0694809999999961
11
101.5807799999999901
21
-108.9121889999999979
0
LINE
8
BLACK
6
CONTINUOUS
10
101.5807799999999901
20
-108.9121889999999979
11
101.6845429999999908
21
-108.7693709999999925
0
LINE
8
BLACK
6
CONTINUOUS
10
101.6845429999999908
20
-108.7693709999999925
11
101.8093709999999987
21
-108.6445429999999988
0
LINE
8
BLACK
6
CONTINUOUS
10
101.8093709999999987
20
-108.6445429999999988
11
101.95218899999999
21
-108.540779999999998
0
LINE
8
BLACK
6
CONTINUOUS
10
101.95218899999999
20
-108.540779999999998
11
102.1094810000000024
21
-108.4606359999999938
0
LINE
8
BLACK
6
CONTINUOUS
10
102.1094810000000024
20
-108.4606359999999938
11
102.2493199999999973
21
-108.4151990000000012
0
LINE
8
BLACK
6
CONTINUOUS
10
102.2493199999999973
20
-108.4151990000000012
11
102.1393130000000014
21
-108.3696329999999932
0
LINE
8
BLACK
6
CONTINUOUS
10
102.1393130000000014
20
-108.3696329999999932
11
102.0007659999999987
21
-108.2770589999999942
0
LINE
8
BLACK
6
CONTINUOUS
10
102.0007659999999987
20
-108.2770589999999942
11
101.8829410000000024
21
-108.1592339999999979
0
LINE
8
BLACK
6
CONTINUOUS
10
101.8829410000000024
20
-108.1592339999999979
11
101.7903669999999892
21
-108.0206869999999952
0
LINE
8
BLACK
6
CONTINUOUS
10
101.7903669999999892
20
-108.0206869999999952
11
101.7266010000000023
21
-107.8667420000000021
0
LINE
8
BLACK
6
CONTINUOUS
10
101.7266010000000023
20
-107.8667420000000021
11
101.6940929999999952
21
-107.7033149999999893
0
LINE
8
BLACK
6
CONTINUOUS
10
101.6940929999999952
20
-107.7033149999999893
11
101.6940929999999952
21
-107.5366849999999914
0
LINE
8
BLACK
6
CONTINUOUS
10
101.6940929999999952
20
-107.5366849999999914
11
101.7266010000000023
21
-107.3732579999999928
0
LINE
8
BLACK
6
CONTINUOUS
10
101.7266010000000023
20
-107.3732579999999928
11
101.7903669999999892
21
-107.2193129999999996
0
LINE
8
BLACK
6
CONTINUOUS
10
101.7903669999999892
20
-107.2193129999999996
11
101.8829410000000024
21
-107.080765999999997
0
LINE
8
BLACK
6
CONTINUOUS
10
101.8829410000000024
20
-107.080765999999997
11
102.0007659999999987
21
-106.9629410000000007
0
LINE
8
BLACK
6
CONTINUOUS
10
102.0007659999999987
20
-106.9629410000000007
11
102.1393130000000014
21
-106.8703670000000017
0
LINE
8
BLACK
6
CONTINUOUS
10
102.1393130000000014
20
-106.8703670000000017
11
102.2932579999999945
21
-106.8066010000000006
0
LINE
8
BLACK
6
CONTINUOUS
10
102.2932579999999945
20
-106.8066010000000006
11
102.4566849999999931
21
-106.7740929999999935
0
LINE
8
BLACK
6
CONTINUOUS
10
102.4566849999999931
20
-106.7740929999999935
11
102.623314999999991
21
-106.7740929999999935
0
LINE
8
BLACK
6
CONTINUOUS
10
102.623314999999991
20
-106.7740929999999935
11
102.7867419999999896
21
-106.8066010000000006
0
LINE
8
BLACK
6
CONTINUOUS
10
105.3267419999999959
20
-106.8066010000000006
11
105.480686999999989
21
-106.8703670000000017
0
LINE
8
BLACK
6
CONTINUOUS
10
105.480686999999989
20
-106.8703670000000017
11
105.6192339999999916
21
-106.9629410000000007
0
LINE
8
BLACK
6
CONTINUOUS
10
105.6192339999999916
20
-106.9629410000000007
11
105.7370590000000021
21
-107.080765999999997
0
LINE
8
BLACK
6
CONTINUOUS
10
105.7370590000000021
20
-107.080765999999997
11
105.8296330000000012
21
-107.2193129999999996
0
LINE
8
BLACK
6
CONTINUOUS
10
105.8296330000000012
20
-107.2193129999999996
11
105.8933990000000023
21
-107.3732579999999928
0
LINE
8
BLACK
6
CONTINUOUS
10
105.8933990000000023
20
-107.3732579999999928
11
105.9259069999999952
21
-107.5366849999999914
0
LINE
8
BLACK
6
CONTINUOUS
10
105.9259069999999952
20
-107.5366849999999914
11
105.9259069999999952
21
-107.7033149999999893
0
LINE
8
BLACK
6
CONTINUOUS
10
105.9259069999999952
20
-107.7033149999999893
11
105.8933990000000023
21
-107.8667420000000021
0
LINE
8
BLACK
6
CONTINUOUS
10
105.8933990000000023
20
-107.8667420000000021
11
105.8296330000000012
21
-108.0206869999999952
0
LINE
8
BLACK
6
CONTINUOUS
10
105.8296330000000012
20
-108.0206869999999952
11
105.7370590000000021
21
-108.1592339999999979
0
LINE
8
BLACK
6
CONTINUOUS
10
105.7370590000000021
20
-108.1592339999999979
11
105.6192339999999916
21
-108.2770589999999942
0
LINE
8
BLACK
6
CONTINUOUS
10
105.6192339999999916
20
-108.2770589999999942
11
105.480686999999989
21
-108.3696329999999932
0
LINE
8
BLACK
6
CONTINUOUS
10
105.480686999999989
20
-108.3696329999999932
11
105.3706789999999955
21
-108.4151990000000012
0
LINE
8
BLACK
6
CONTINUOUS
10
105.3706789999999955
20
-108.4151990000000012
11
105.5105190000000022
21
-108.4606359999999938
0
LINE
8
BLACK
6
CONTINUOUS
10
105.5105190000000022
20
-108.4606359999999938
11
105.6678110000000004
21
-108.540779999999998
0
LINE
8
BLACK
6
CONTINUOUS
10
105.6678110000000004
20
-108.540779999999998
11
105.8106289999999916
21
-108.6445429999999988
0
LINE
8
BLACK
6
CONTINUOUS
10
105.8106289999999916
20
-108.6445429999999988
11
105.9354569999999995
21
-108.7693709999999925
0
LINE
8
BLACK
6
CONTINUOUS
10
105.9354569999999995
20
-108.7693709999999925
11
106.0392200000000003
21
-108.9121889999999979
0
LINE
8
BLACK
6
CONTINUOUS
10
106.0392200000000003
20
-108.9121889999999979
11
106.1193639999999903
21
-109.0694809999999961
0
LINE
8
BLACK
6
CONTINUOUS
10
106.1193639999999903
20
-109.0694809999999961
11
106.1739159999999913
21
-109.2373739999999884
0
LINE
8
BLACK
6
CONTINUOUS
10
106.1739159999999913
20
-109.2373739999999884
11
106.2015320000000003
21
-109.4117339999999956
0
LINE
8
BLACK
6
CONTINUOUS
10
106.2015320000000003
20
-109.4117339999999956
11
106.2015320000000003
21
-109.5882659999999902
0
LINE
8
BLACK
6
CONTINUOUS
10
106.2015320000000003
20
-109.5882659999999902
11
106.1739159999999913
21
-109.7626259999999974
0
LINE
8
BLACK
6
CONTINUOUS
10
106.1739159999999913
20
-109.7626259999999974
11
106.1193639999999903
21
-109.9305189999999897
0
LINE
8
BLACK
6
CONTINUOUS
10
106.1193639999999903
20
-109.9305189999999897
11
106.0392200000000003
21
-110.0878110000000021
0
LINE
8
BLACK
6
CONTINUOUS
10
106.0392200000000003
20
-110.0878110000000021
11
105.9354569999999995
21
-110.2306289999999933
0
LINE
8
BLACK
6
CONTINUOUS
10
105.9354569999999995
20
-110.2306289999999933
11
105.8106289999999916
21
-110.3554570000000012
0
LINE
8
BLACK
6
CONTINUOUS
10
105.8106289999999916
20
-110.3554570000000012
11
105.6678110000000004
21
-110.459220000000002
0
LINE
8
BLACK
6
CONTINUOUS
10
105.6678110000000004
20
-110.459220000000002
11
105.5105190000000022
21
-110.539363999999992
0
LINE
8
BLACK
6
CONTINUOUS
10
105.5105190000000022
20
-110.539363999999992
11
105.3426259999999957
21
-110.593915999999993
0
LINE
8
BLACK
6
CONTINUOUS
10
105.3426259999999957
20
-110.593915999999993
11
105.1682659999999885
21
-110.621532000000002
0
LINE
8
BLACK
6
CONTINUOUS
10
105.1682659999999885
20
-110.621532000000002
11
104.9917339999999939
21
-110.621532000000002
0
LINE
8
BLACK
6
CONTINUOUS
10
104.9917339999999939
20
-110.621532000000002
11
104.8173740000000009
21
-110.593915999999993
0
LINE
8
BLACK
6
CONTINUOUS
10
104.8173740000000009
20
-110.593915999999993
11
104.6494809999999944
21
-110.539363999999992
0
LINE
8
BLACK
6
CONTINUOUS
10
104.6494809999999944
20
-110.539363999999992
11
104.4921889999999962
21
-110.459220000000002
0
LINE
8
BLACK
6
CONTINUOUS
10
104.4921889999999962
20
-110.459220000000002
11
104.3493709999999908
21
-110.3554570000000012
0
LINE
8
BLACK
6
CONTINUOUS
10
104.3493709999999908
20
-110.3554570000000012
11
104.2245429999999971
21
-110.2306289999999933
0
LINE
8
BLACK
6
CONTINUOUS
10
104.2245429999999971
20
-110.2306289999999933
11
104.1207799999999963
21
-110.0878110000000021
0
LINE
8
BLACK
6
CONTINUOUS
10
104.1207799999999963
20
-110.0878110000000021
11
104.0406359999999921
21
-109.9305189999999897
0
LINE
8
BLACK
6
CONTINUOUS
10
104.0406359999999921
20
-109.9305189999999897
11
103.9860839999999911
21
-109.7626259999999974
0
LINE
8
BLACK
6
CONTINUOUS
10
103.9860839999999911
20
-109.7626259999999974
11
103.9584679999999963
21
-109.5882659999999902
0
LINE
8
BLACK
6
CONTINUOUS
10
103.9584679999999963
20
-109.5882659999999902
11
103.9584679999999963
21
-109.4117339999999956
0
LINE
8
BLACK
6
CONTINUOUS
10
103.9584679999999963
20
-109.4117339999999956
11
103.9860839999999911
21
-109.2373739999999884
0
LINE
8
BLACK
6
CONTINUOUS
10
103.9860839999999911
20
-109.2373739999999884
11
104.0406359999999921
21
-109.0694809999999961
0
LINE
8
BLACK
6
CONTINUOUS
10
104.0406359999999921
20
-109.0694809999999961
11
104.1207799999999963
21
-108.9121889999999979
0
LINE
8
BLACK
6
CONTINUOUS
10
104.1207799999999963
20
-108.9121889999999979
11
104.2245429999999971
21
-108.7693709999999925
0
LINE
8
BLACK
6
CONTINUOUS
10
104.2245429999999971
20
-108.7693709999999925
11
104.3493709999999908
21
-108.6445429999999988
0
LINE
8
BLACK
6
CONTINUOUS
10
104.3493709999999908
20
-108.6445429999999988
11
104.4921889999999962
21
-108.540779999999998
0
LINE
8
BLACK
6
CONTINUOUS
10
104.4921889999999962
20
-108.540779999999998
11
104.6494809999999944
21
-108.4606359999999938
0
LINE
8
BLACK
6
CONTINUOUS
10
104.6494809999999944
20
-108.4606359999999938
11
104.7893199999999894
21
-108.4151990000000012
0
LINE
8
BLACK
6
CONTINUOUS
10
104.7893199999999894
20
-108.4151990000000012
11
104.6793129999999934
21
-108.3696329999999932
0
LINE
8
BLACK
6
CONTINUOUS
10
104.6793129999999934
20
-108.3696329999999932
11
104.5407659999999908
21
-108.2770589999999942
0
LINE
8
BLACK
6
CONTINUOUS
10
104.5407659999999908
20
-108.2770589999999942
11
104.4229409999999945
21
-108.1592339999999979
0
LINE
8
BLACK
6
CONTINUOUS
10
104.4229409999999945
20
-108.1592339999999979
11
104.3303669999999954
21
-108.0206869999999952
0
LINE
8
BLACK
6
CONTINUOUS
10
104.3303669999999954
20
-108.0206869999999952
11
104.2666009999999943
21
-107.8667420000000021
0
LINE
8
BLACK
6
CONTINUOUS
10
104.2666009999999943
20
-107.8667420000000021
11
104.2340930000000014
21
-107.7033149999999893
0
LINE
8
BLACK
6
CONTINUOUS
10
104.2340930000000014
20
-107.7033149999999893
11
104.2340930000000014
21
-107.5366849999999914
0
LINE
8
BLACK
6
CONTINUOUS
10
104.2340930000000014
20
-107.5366849999999914
11
104.2666009999999943
21
-107.3732579999999928
0
LINE
8
BLACK
6
CONTINUOUS
10
104.2666009999999943
20
-107.3732579999999928
11
104.3303669999999954
21
-107.2193129999999996
0
LINE
8
BLACK
6
CONTINUOUS
10
104.3303669999999954
20
-107.2193129999999996
11
104.4229409999999945
21
-107.080765999999997
0
LINE
8
BLACK
6
CONTINUOUS
10
104.4229409999999945
20
-107.080765999999997
11
104.5407659999999908
21
-106.9629410000000007
0
LINE
8
BLACK
6
CONTINUOUS
10
104.5407659999999908
20
-106.9629410000000007
11
104.6793129999999934
21
-106.8703670000000017
0
LINE
8
BLACK
6
CONTINUOUS
10
104.6793129999999934
20
-106.8703670000000017
11
104.8332580000000007
21
-106.8066010000000006
0
LINE
8
BLACK
6
CONTINUOUS
10
104.8332580000000007
20
-106.8066010000000006
11
104.9966849999999994
21
-106.7740929999999935
0
LINE
8
BLACK
6
CONTINUOUS
10
104.9966849999999994
20
-106.7740929999999935
11
105.1633149999999972
21
-106.7740929999999935
0
LINE
8
BLACK
6
CONTINUOUS
10
105.1633149999999972
20
-106.7740929999999935
11
105.3267419999999959
21
-106.8066010000000006
0
LINE
8
BLACK
6
CONTINUOUS
10
100.2626259999999974
20
-106.5260839999999973
11
100.4305189999999897
21
-106.5806359999999984
0
LINE
8
BLACK
6
CONTINUOUS
10
100.4305189999999897
20
-106.5806359999999984
11
100.5878110000000021
21
-106.6607799999999884
0
LINE
8
BLACK
6
CONTINUOUS
10
100.5878110000000021
20
-106.6607799999999884
11
100.7306289999999933
21
-106.7645429999999891
0
LINE
8
BLACK
6
CONTINUOUS
10
100.7306289999999933
20
-106.7645429999999891
11
100.8554570000000012
21
-106.889370999999997
0
LINE
8
BLACK
6
CONTINUOUS
10
100.8554570000000012
20
-106.889370999999997
11
100.959220000000002
21
-107.0321889999999883
0
LINE
8
BLACK
6
CONTINUOUS
10
100.959220000000002
20
-107.0321889999999883
11
101.039363999999992
21
-107.1894810000000007
0
LINE
8
BLACK
6
CONTINUOUS
10
101.039363999999992
20
-107.1894810000000007
11
101.093915999999993
21
-107.357373999999993
0
LINE
8
BLACK
6
CONTINUOUS
10
101.093915999999993
20
-107.357373999999993
11
101.121532000000002
21
-107.5317340000000002
0
LINE
8
BLACK
6
CONTINUOUS
10
101.121532000000002
20
-107.5317340000000002
11
101.121532000000002
21
-107.7082659999999947
0
LINE
8
BLACK
6
CONTINUOUS
10
101.121532000000002
20
-107.7082659999999947
11
101.093915999999993
21
-107.8826260000000019
0
LINE
8
BLACK
6
CONTINUOUS
10
101.093915999999993
20
-107.8826260000000019
11
101.039363999999992
21
-108.0505189999999942
0
LINE
8
BLACK
6
CONTINUOUS
10
101.039363999999992
20
-108.0505189999999942
11
100.959220000000002
21
-108.2078109999999924
0
LINE
8
BLACK
6
CONTINUOUS
10
100.959220000000002
20
-108.2078109999999924
11
100.8554570000000012
21
-108.3506289999999979
0
LINE
8
BLACK
6
CONTINUOUS
10
100.8554570000000012
20
-108.3506289999999979
11
100.7306289999999933
21
-108.4754569999999916
0
LINE
8
BLACK
6
CONTINUOUS
10
100.7306289999999933
20
-108.4754569999999916
11
100.5878110000000021
21
-108.5792199999999923
0
LINE
8
BLACK
6
CONTINUOUS
10
100.5878110000000021
20
-108.5792199999999923
11
100.4305189999999897
21
-108.6593639999999965
0
LINE
8
BLACK
6
CONTINUOUS
10
100.4305189999999897
20
-108.6593639999999965
11
100.2626259999999974
21
-108.7139159999999976
0
LINE
8
BLACK
6
CONTINUOUS
10
100.2626259999999974
20
-108.7139159999999976
11
100.0882659999999902
21
-108.7415319999999923
0
LINE
8
BLACK
6
CONTINUOUS
10
100.0882659999999902
20
-108.7415319999999923
11
99.9117339999999956
21
-108.7415319999999923
0
LINE
8
BLACK
6
CONTINUOUS
10
99.9117339999999956
20
-108.7415319999999923
11
99.7373739999999884
21
-108.7139159999999976
0
LINE
8
BLACK
6
CONTINUOUS
10
99.7373739999999884
20
-108.7139159999999976
11
99.5694809999999961
21
-108.6593639999999965
0
LINE
8
BLACK
6
CONTINUOUS
10
99.5694809999999961
20
-108.6593639999999965
11
99.4121889999999979
21
-108.5792199999999923
0
LINE
8
BLACK
6
CONTINUOUS
10
99.4121889999999979
20
-108.5792199999999923
11
99.2693709999999925
21
-108.4754569999999916
0
LINE
8
BLACK
6
CONTINUOUS
10
99.2693709999999925
20
-108.4754569999999916
11
99.1445429999999988
21
-108.3506289999999979
0
LINE
8
BLACK
6
CONTINUOUS
10
99.1445429999999988
20
-108.3506289999999979
11
99.040779999999998
21
-108.2078109999999924
0
LINE
8
BLACK
6
CONTINUOUS
10
99.040779999999998
20
-108.2078109999999924
11
98.9606359999999938
21
-108.0505189999999942
0
LINE
8
BLACK
6
CONTINUOUS
10
98.9606359999999938
20
-108.0505189999999942
11
98.9060839999999928
21
-107.8826260000000019
0
LINE
8
BLACK
6
CONTINUOUS
10
98.9060839999999928
20
-107.8826260000000019
11
98.878467999999998
21
-107.7082659999999947
0
LINE
8
BLACK
6
CONTINUOUS
10
98.878467999999998
20
-107.7082659999999947
11
98.878467999999998
21
-107.5317340000000002
0
LINE
8
BLACK
6
CONTINUOUS
10
98.878467999999998
20
-107.5317340000000002
11
98.9060839999999928
21
-107.357373999999993
0
LINE
8
BLACK
6
CONTINUOUS
10
98.9060839999999928
20
-107.357373999999993
11
98.9606359999999938
21
-107.1894810000000007
0
LINE
8
BLACK
6
CONTINUOUS
10
98.9606359999999938
20
-107.1894810000000007
11
99.040779999999998
21
-107.0321889999999883
0
LINE
8
BLACK
6
CONTINUOUS
10
99.040779999999998
20
-107.0321889999999883
11
99.1445429999999988
21
-106.889370999999997
0
LINE
8
BLACK
6
CONTINUOUS
10
99.1445429999999988
20
-106.889370999999997
11
99.2693709999999925
21
-106.7645429999999891
0
LINE
8
BLACK
6
CONTINUOUS
10
99.2693709999999925
20
-106.7645429999999891
11
99.4121889999999979
21
-106.6607799999999884
0
LINE
8
BLACK
6
CONTINUOUS
10
99.4121889999999979
20
-106.6607799999999884
11
99.5694809999999961
21
-106.5806359999999984
0
LINE
8
BLACK
6
CONTINUOUS
10
99.5694809999999961
20
-106.5806359999999984
11
99.7373739999999884
21
-106.5260839999999973
0
LINE
8
BLACK
6
CONTINUOUS
10
99.7373739999999884
20
-106.5260839999999973
11
99.9117339999999956
21
-106.4984679999999884
0
LINE
8
BLACK
6
CONTINUOUS
10
99.9117339999999956
20
-106.4984679999999884
11
100.0882659999999902
21
-106.4984679999999884
0
LINE
8
BLACK
6
CONTINUOUS
10
100.0882659999999902
20
-106.4984679999999884
11
100.2626259999999974
21
-106.5260839999999973
0
LINE
8
BLACK
6
CONTINUOUS
10
107.8826260000000019
20
-106.5260839999999973
11
108.0505189999999942
21
-106.5806359999999984
0
LINE
8
BLACK
6
CONTINUOUS
10
108.0505189999999942
20
-106.5806359999999984
11
108.2078109999999924
21
-106.6607799999999884
0
LINE
8
BLACK
6
CONTINUOUS
10
108.2078109999999924
20
-106.6607799999999884
11
108.3506289999999979
21
-106.7645429999999891
0
LINE
8
BLACK
6
CONTINUOUS
10
108.3506289999999979
20
-106.7645429999999891
11
108.4754569999999916
21
-106.889370999999997
0
LINE
8
BLACK
6
CONTINUOUS
10
108.4754569999999916
20
-106.889370999999997
11
108.5792199999999923
21
-107.0321889999999883
0
LINE
8
BLACK
6
CONTINUOUS
10
108.5792199999999923
20
-107.0321889999999883
11
108.6593639999999965
21
-107.1894810000000007
0
LINE
8
BLACK
6
CONTINUOUS
10
108.6593639999999965
20
-107.1894810000000007
11
108.7139159999999976
21
-107.357373999999993
0
LINE
8
BLACK
6
CONTINUOUS
10
108.7139159999999976
20
-107.357373999999993
11
108.7415319999999923
21
-107.5317340000000002
0
LINE
8
BLACK
6
CONTINUOUS
10
108.7415319999999923
20
-107.5317340000000002
11
108.7415319999999923
21
-107.7082659999999947
0
LINE
8
BLACK
6
CONTINUOUS
10
108.7415319999999923
20
-107.7082659999999947
11
108.7139159999999976
21
-107.8826260000000019
0
LINE
8
BLACK
6
CONTINUOUS
10
108.7139159999999976
20
-107.8826260000000019
11
108.6593639999999965
21
-108.0505189999999942
0
LINE
8
BLACK
6
CONTINUOUS
10
108.6593639999999965
20
-108.0505189999999942
11
108.5792199999999923
21
-108.2078109999999924
0
LINE
8
BLACK
6
CONTINUOUS
10
108.5792199999999923
20
-108.2078109999999924
11
108.4754569999999916
21
-108.3506289999999979
0
LINE
8
BLACK
6
CONTINUOUS
10
108.4754569999999916
20
-108.3506289999999979
11
108.3506289999999979
21
-108.4754569999999916
0
LINE
8
BLACK
6
CONTINUOUS
10
108.3506289999999979
20
-108.4754569999999916
11
108.2078109999999924
21
-108.5792199999999923
0
LINE
8
BLACK
6
CONTINUOUS
10
108.2078109999999924
20
-108.5792199999999923
11
108.0505189999999942
21
-108.6593639999999965
0
LINE
8
BLACK
6
CONTINUOUS
10
108.0505189999999942
20
-108.6593639999999965
11
107.8826260000000019
21
-108.7139159999999976
0
LINE
8
BLACK
6
CONTINUOUS
10
107.8826260000000019
20
-108.7139159999999976
11
107.7082659999999947
21
-108.7415319999999923
0
LINE
8
BLACK
6
CONTINUOUS
10
107.7082659999999947
20
-108.7415319999999923
11
107.5317340000000002
21
-108.7415319999999923
0
LINE
8
BLACK
6
CONTINUOUS
10
107.5317340000000002
20
-108.7415319999999923
11
107.357373999999993
21
-108.7139159999999976
0
LINE
8
BLACK
6
CONTINUOUS
10
107.357373999999993
20
-108.7139159999999976
11
107.1894810000000007
21
-108.6593639999999965
0
LINE
8
BLACK
6
CONTINUOUS
10
107.1894810000000007
20
-108.6593639999999965
11
107.0321889999999883
21
-108.5792199999999923
0
LINE
8
BLACK
6
CONTINUOUS
10
107.0321889999999883
20
-108.5792199999999923
11
106.889370999999997
21
-108.4754569999999916
0
LINE
8
BLACK
6
CONTINUOUS
10
106.889370999999997
20
-108.4754569999999916
11
106.7645429999999891
21
-108.3506289999999979
0
LINE
8
BLACK
6
CONTINUOUS
10
106.7645429999999891
20
-108.3506289999999979
11
106.6607799999999884
21
-108.2078109999999924
0
LINE
8
BLACK
6
CONTINUOUS
10
106.6607799999999884
20
-108.2078109999999924
11
106.5806359999999984
21
-108.0505189999999942
0
LINE
8
BLACK
6
CONTINUOUS
10
106.5806359999999984
20
-108.0505189999999942
11
106.5260839999999973
21
-107.8826260000000019
0
LINE
8
BLACK
6
CONTINUOUS
10
106.5260839999999973
20
-107.8826260000000019
11
106.4984679999999884
21
-107.7082659999999947
0
LINE
8
BLACK
6
CONTINUOUS
10
106.4984679999999884
20
-107.7082659999999947
11
106.4984679999999884
21
-107.5317340000000002
0
LINE
8
BLACK
6
CONTINUOUS
10
106.4984679999999884
20
-107.5317340000000002
11
106.5260839999999973
21
-107.357373999999993
0
LINE
8
BLACK
6
CONTINUOUS
10
106.5260839999999973
20
-107.357373999999993
11
106.5806359999999984
21
-107.1894810000000007
0
LINE
8
BLACK
6
CONTINUOUS
10
106.5806359999999984
20
-107.1894810000000007
11
106.6607799999999884
21
-107.0321889999999883
0
LINE
8
BLACK
6
CONTINUOUS
10
106.6607799999999884
20
-107.0321889999999883
11
106.7645429999999891
21
-106.889370999999997
0
LINE
8
BLACK
6
CONTINUOUS
10
106.7645429999999891
20
-106.889370999999997
11
106.889370999999997
21
-106.7645429999999891
0
LINE
8
BLACK
6
CONTINUOUS
10
106.889370999999997
20
-106.7645429999999891
11
107.0321889999999883
21
-106.6607799999999884
0
LINE
8
BLACK
6
CONTINUOUS
10
107.0321889999999883
20
-106.6607799999999884
11
107.1894810000000007
21
-106.5806359999999984
0
LINE
8
BLACK
6
CONTINUOUS
10
107.1894810000000007
20
-106.5806359999999984
11
107.357373999999993
21
-106.5260839999999973
0
LINE
8
BLACK
6
CONTINUOUS
10
107.357373999999993
20
-106.5260839999999973
11
107.5317340000000002
21
-106.4984679999999884
0
LINE
8
BLACK
6
CONTINUOUS
10
107.5317340000000002
20
-106.4984679999999884
11
107.7082659999999947
21
-106.4984679999999884
0
LINE
8
BLACK
6
CONTINUOUS
10
107.7082659999999947
20
-106.4984679999999884
11
107.8826260000000019
21
-106.5260839999999973
0
LINE
8
BLACK
6
CONTINUOUS
10
100.2626259999999974
20
-103.9860839999999911
11
100.4305189999999897
21
-104.0406359999999921
0
LINE
8
BLACK
6
CONTINUOUS
10
100.4305189999999897
20
-104.0406359999999921
11
100.5878110000000021
21
-104.1207799999999963
0
LINE
8
BLACK
6
CONTINUOUS
10
100.5878110000000021
20
-104.1207799999999963
11
100.7306289999999933
21
-104.2245429999999971
0
LINE
8
BLACK
6
CONTINUOUS
10
100.7306289999999933
20
-104.2245429999999971
11
100.8554570000000012
21
-104.3493709999999908
0
LINE
8
BLACK
6
CONTINUOUS
10
100.8554570000000012
20
-104.3493709999999908
11
100.959220000000002
21
-104.4921889999999962
0
LINE
8
BLACK
6
CONTINUOUS
10
100.959220000000002
20
-104.4921889999999962
11
101.039363999999992
21
-104.6494809999999944
0
LINE
8
BLACK
6
CONTINUOUS
10
101.039363999999992
20
-104.6494809999999944
11
101.093915999999993
21
-104.8173740000000009
0
LINE
8
BLACK
6
CONTINUOUS
10
101.093915999999993
20
-104.8173740000000009
11
101.121532000000002
21
-104.9917339999999939
0
LINE
8
BLACK
6
CONTINUOUS
10
101.121532000000002
20
-104.9917339999999939
11
101.121532000000002
21
-105.1682659999999885
0
LINE
8
BLACK
6
CONTINUOUS
10
101.121532000000002
20
-105.1682659999999885
11
101.093915999999993
21
-105.3426259999999957
0
LINE
8
BLACK
6
CONTINUOUS
10
101.093915999999993
20
-105.3426259999999957
11
101.039363999999992
21
-105.5105190000000022
0
LINE
8
BLACK
6
CONTINUOUS
10
101.039363999999992
20
-105.5105190000000022
11
100.959220000000002
21
-105.6678110000000004
0
LINE
8
BLACK
6
CONTINUOUS
10
100.959220000000002
20
-105.6678110000000004
11
100.8554570000000012
21
-105.8106289999999916
0
LINE
8
BLACK
6
CONTINUOUS
10
100.8554570000000012
20
-105.8106289999999916
11
100.7306289999999933
21
-105.9354569999999995
0
LINE
8
BLACK
6
CONTINUOUS
10
100.7306289999999933
20
-105.9354569999999995
11
100.5878110000000021
21
-106.0392200000000003
0
LINE
8
BLACK
6
CONTINUOUS
10
100.5878110000000021
20
-106.0392200000000003
11
100.4305189999999897
21
-106.1193639999999903
0
LINE
8
BLACK
6
CONTINUOUS
10
100.4305189999999897
20
-106.1193639999999903
11
100.2626259999999974
21
-106.1739159999999913
0
LINE
8
BLACK
6
CONTINUOUS
10
100.2626259999999974
20
-106.1739159999999913
11
100.0882659999999902
21
-106.2015320000000003
0
LINE
8
BLACK
6
CONTINUOUS
10
100.0882659999999902
20
-106.2015320000000003
11
99.9117339999999956
21
-106.2015320000000003
0
LINE
8
BLACK
6
CONTINUOUS
10
99.9117339999999956
20
-106.2015320000000003
11
99.7373739999999884
21
-106.1739159999999913
0
LINE
8
BLACK
6
CONTINUOUS
10
99.7373739999999884
20
-106.1739159999999913
11
99.5694809999999961
21
-106.1193639999999903
0
LINE
8
BLACK
6
CONTINUOUS
10
99.5694809999999961
20
-106.1193639999999903
11
99.4121889999999979
21
-106.0392200000000003
0
LINE
8
BLACK
6
CONTINUOUS
10
99.4121889999999979
20
-106.0392200000000003
11
99.2693709999999925
21
-105.9354569999999995
0
LINE
8
BLACK
6
CONTINUOUS
10
99.2693709999999925
20
-105.9354569999999995
11
99.1445429999999988
21
-105.8106289999999916
0
LINE
8
BLACK
6
CONTINUOUS
10
99.1445429999999988
20
-105.8106289999999916
11
99.040779999999998
21
-105.6678110000000004
0
LINE
8
BLACK
6
CONTINUOUS
10
99.040779999999998
20
-105.6678110000000004
11
98.9606359999999938
21
-105.5105190000000022
0
LINE
8
BLACK
6
CONTINUOUS
10
98.9606359999999938
20
-105.5105190000000022
11
98.9060839999999928
21
-105.3426259999999957
0
LINE
8
BLACK
6
CONTINUOUS
10
98.9060839999999928
20
-105.3426259999999957
11
98.878467999999998
21
-105.1682659999999885
0
LINE
8
BLACK
6
CONTINUOUS
10
98.878467999999998
20
-105.1682659999999885
11
98.878467999999998
21
-104.9917339999999939
0
LINE
8
BLACK
6
CONTINUOUS
10
98.878467999999998
20
-104.9917339999999939
11
98.9060839999999928
21
-104.8173740000000009
0
LINE
8
BLACK
6
CONTINUOUS
10
98.9060839999999928
20
-104.8173740000000009
11
98.9606359999999938
21
-104.6494809999999944
0
LINE
8
BLACK
6
CONTINUOUS
10
98.9606359999999938
20
-104.6494809999999944
11
99.040779999999998
21
-104.4921889999999962
0
LINE
8
BLACK
6
CONTINUOUS
10
99.040779999999998
20
-104.4921889999999962
11
99.1445429999999988
21
-104.3493709999999908
0
LINE
8
BLACK
6
CONTINUOUS
10
99.1445429999999988
20
-104.3493709999999908
11
99.2693709999999925
21
-104.2245429999999971
0
LINE
8
BLACK
6
CONTINUOUS
10
99.2693709999999925
20
-104.2245429999999971
11
99.4121889999999979
21
-104.1207799999999963
0
LINE
8
BLACK
6
CONTINUOUS
10
99.4121889999999979
20
-104.1207799999999963
11
99.5694809999999961
21
-104.0406359999999921
0
LINE
8
BLACK
6
CONTINUOUS
10
99.5694809999999961
20
-104.0406359999999921
11
99.7373739999999884
21
-103.9860839999999911
0
LINE
8
BLACK
6
CONTINUOUS
10
99.7373739999999884
20
-103.9860839999999911
11
99.9117339999999956
21
-103.9584679999999963
0
LINE
8
BLACK
6
CONTINUOUS
10
99.9117339999999956
20
-103.9584679999999963
11
100.0882659999999902
21
-103.9584679999999963
0
LINE
8
BLACK
6
CONTINUOUS
10
100.0882659999999902
20
-103.9584679999999963
11
100.2626259999999974
21
-103.9860839999999911
0
LINE
8
BLACK
6
CONTINUOUS
10
107.8826260000000019
20
-103.9860839999999911
11
108.0505189999999942
21
-104.0406359999999921
0
LINE
8
BLACK
6
CONTINUOUS
10
108.0505189999999942
20
-104.0406359999999921
11
108.2078109999999924
21
-104.1207799999999963
0
LINE
8
BLACK
6
CONTINUOUS
10
108.2078109999999924
20
-104.1207799999999963
11
108.3506289999999979
21
-104.2245429999999971
0
LINE
8
BLACK
6
CONTINUOUS
10
108.3506289999999979
20
-104.2245429999999971
11
108.4754569999999916
21
-104.3493709999999908
0
LINE
8
BLACK
6
CONTINUOUS
10
108.4754569999999916
20
-104.3493709999999908
11
108.5792199999999923
21
-104.4921889999999962
0
LINE
8
BLACK
6
CONTINUOUS
10
108.5792199999999923
20
-104.4921889999999962
11
108.6593639999999965
21
-104.6494809999999944
0
LINE
8
BLACK
6
CONTINUOUS
10
108.6593639999999965
20
-104.6494809999999944
11
108.7139159999999976
21
-104.8173740000000009
0
LINE
8
BLACK
6
CONTINUOUS
10
108.7139159999999976
20
-104.8173740000000009
11
108.7415319999999923
21
-104.9917339999999939
0
LINE
8
BLACK
6
CONTINUOUS
10
108.7415319999999923
20
-104.9917339999999939
11
108.7415319999999923
21
-105.1682659999999885
0
LINE
8
BLACK
6
CONTINUOUS
10
108.7415319999999923
20
-105.1682659999999885
11
108.7139159999999976
21
-105.3426259999999957
0
LINE
8
BLACK
6
CONTINUOUS
10
108.7139159999999976
20
-105.3426259999999957
11
108.6593639999999965
21
-105.5105190000000022
0
LINE
8
BLACK
6
CONTINUOUS
10
108.6593639999999965
20
-105.5105190000000022
11
108.5792199999999923
21
-105.6678110000000004
0
LINE
8
BLACK
6
CONTINUOUS
10
108.5792199999999923
20
-105.6678110000000004
11
108.4754569999999916
21
-105.8106289999999916
0
LINE
8
BLACK
6
CONTINUOUS
10
108.4754569999999916
20
-105.8106289999999916
11
108.3506289999999979
21
-105.9354569999999995
0
LINE
8
BLACK
6
CONTINUOUS
10
108.3506289999999979
20
-105.9354569999999995
11
108.2078109999999924
21
-106.0392200000000003
0
LINE
8
BLACK
6
CONTINUOUS
10
108.2078109999999924
20
-106.0392200000000003
11
108.0505189999999942
21
-106.1193639999999903
0
LINE
8
BLACK
6
CONTINUOUS
10
108.0505189999999942
20
-106.1193639999999903
11
107.8826260000000019
21
-106.1739159999999913
0
LINE
8
BLACK
6
CONTINUOUS
10
107.8826260000000019
20
-106.1739159999999913
11
107.7082659999999947
21
-106.2015320000000003
0
LINE
8
BLACK
6
CONTINUOUS
10
107.7082659999999947
20
-106.2015320000000003
11
107.5317340000000002
21
-106.2015320000000003
0
LINE
8
BLACK
6
CONTINUOUS
10
107.5317340000000002
20
-106.2015320000000003
11
107.357373999999993
21
-106.1739159999999913
0
LINE
8
BLACK
6
CONTINUOUS
10
107.357373999999993
20
-106.1739159999999913
11
107.1894810000000007
21
-106.1193639999999903
0
LINE
8
BLACK
6
CONTINUOUS
10
107.1894810000000007
20
-106.1193639999999903
11
107.0321889999999883
21
-106.0392200000000003
0
LINE
8
BLACK
6
CONTINUOUS
10
107.0321889999999883
20
-106.0392200000000003
11
106.889370999999997
21
-105.9354569999999995
0
LINE
8
BLACK
6
CONTINUOUS
10
106.889370999999997
20
-105.9354569999999995
11
106.7645429999999891
21
-105.8106289999999916
0
LINE
8
BLACK
6
CONTINUOUS
10
106.7645429999999891
20
-105.8106289999999916
11
106.6607799999999884
21
-105.6678110000000004
0
LINE
8
BLACK
6
CONTINUOUS
10
106.6607799999999884
20
-105.6678110000000004
11
106.5806359999999984
21
-105.5105190000000022
0
LINE
8
BLACK
6
CONTINUOUS
10
106.5806359999999984
20
-105.5105190000000022
11
106.5260839999999973
21
-105.3426259999999957
0
LINE
8
BLACK
6
CONTINUOUS
10
106.5260839999999973
20
-105.3426259999999957
11
106.4984679999999884
21
-105.1682659999999885
0
LINE
8
BLACK
6
CONTINUOUS
10
106.4984679999999884
20
-105.1682659999999885
11
106.4984679999999884
21
-104.9917339999999939
0
LINE
8
BLACK
6
CONTINUOUS
10
106.4984679999999884
20
-104.9917339999999939
11
106.5260839999999973
21
-104.8173740000000009
0
LINE
8
BLACK
6
CONTINUOUS
10
106.5260839999999973
20
-104.8173740000000009
11
106.5806359999999984
21
-104.6494809999999944
0
LINE
8
BLACK
6
CONTINUOUS
10
106.5806359999999984
20
-104.6494809999999944
11
106.6607799999999884
21
-104.4921889999999962
0
LINE
8
BLACK
6
CONTINUOUS
10
106.6607799999999884
20
-104.4921889999999962
11
106.7645429999999891
21
-104.3493709999999908
0
LINE
8
BLACK
6
CONTINUOUS
10
106.7645429999999891
20
-104.3493709999999908
11
106.889370999999997
21
-104.2245429999999971
0
LINE
8
BLACK
6
CONTINUOUS
10
106.889370999999997
20
-104.2245429999999971
11
107.0321889999999883
21
-104.1207799999999963
0
LINE
8
BLACK
6
CONTINUOUS
10
107.0321889999999883
20
-104.1207799999999963
11
107.1894810000000007
21
-104.0406359999999921
0
LINE
8
BLACK
6
CONTINUOUS
10
107.1894810000000007
20
-104.0406359999999921
11
107.357373999999993
21
-103.9860839999999911
0
LINE
8
BLACK
6
CONTINUOUS
10
107.357373999999993
20
-103.9860839999999911
11
107.5317340000000002
21
-103.9584679999999963
0
LINE
8
BLACK
6
CONTINUOUS
10
107.5317340000000002
20
-103.9584679999999963
11
107.7082659999999947
21
-103.9584679999999963
0
LINE
8
BLACK
6
CONTINUOUS
10
107.7082659999999947
20
-103.9584679999999963
11
107.8826260000000019
21
-103.9860839999999911
0
LINE
8
BLACK
6
CONTINUOUS
10
102.7867419999999896
20
-104.2666009999999943
11
102.9406869999999969
21
-104.3303669999999954
0
LINE
8
BLACK
6
CONTINUOUS
10
102.9406869999999969
20
-104.3303669999999954
11
103.0792339999999996
21
-104.4229409999999945
0
LINE
8
BLACK
6
CONTINUOUS
10
103.0792339999999996
20
-104.4229409999999945
11
103.1970589999999959
21
-104.5407659999999908
0
LINE
8
BLACK
6
CONTINUOUS
10
103.1970589999999959
20
-104.5407659999999908
11
103.2896329999999949
21
-104.6793129999999934
0
LINE
8
BLACK
6
CONTINUOUS
10
103.2896329999999949
20
-104.6793129999999934
11
103.353398999999996
21
-104.8332580000000007
0
LINE
8
BLACK
6
CONTINUOUS
10
103.353398999999996
20
-104.8332580000000007
11
103.3859069999999889
21
-104.9966849999999994
0
LINE
8
BLACK
6
CONTINUOUS
10
103.3859069999999889
20
-104.9966849999999994
11
103.3859069999999889
21
-105.1633149999999972
0
LINE
8
BLACK
6
CONTINUOUS
10
103.3859069999999889
20
-105.1633149999999972
11
103.353398999999996
21
-105.3267419999999959
0
LINE
8
BLACK
6
CONTINUOUS
10
103.353398999999996
20
-105.3267419999999959
11
103.2896329999999949
21
-105.480686999999989
0
LINE
8
BLACK
6
CONTINUOUS
10
103.2896329999999949
20
-105.480686999999989
11
103.1970589999999959
21
-105.6192339999999916
0
LINE
8
BLACK
6
CONTINUOUS
10
103.1970589999999959
20
-105.6192339999999916
11
103.0792339999999996
21
-105.7370590000000021
0
LINE
8
BLACK
6
CONTINUOUS
10
103.0792339999999996
20
-105.7370590000000021
11
102.9406869999999969
21
-105.8296330000000012
0
LINE
8
BLACK
6
CONTINUOUS
10
102.9406869999999969
20
-105.8296330000000012
11
102.7867419999999896
21
-105.8933990000000023
0
LINE
8
BLACK
6
CONTINUOUS
10
102.7867419999999896
20
-105.8933990000000023
11
102.623314999999991
21
-105.9259069999999952
0
LINE
8
BLACK
6
CONTINUOUS
10
102.623314999999991
20
-105.9259069999999952
11
102.4566849999999931
21
-105.9259069999999952
0
LINE
8
BLACK
6
CONTINUOUS
10
102.4566849999999931
20
-105.9259069999999952
11
102.2932579999999945
21
-105.8933990000000023
0
LINE
8
BLACK
6
CONTINUOUS
10
102.2932579999999945
20
-105.8933990000000023
11
102.1393130000000014
21
-105.8296330000000012
0
LINE
8
BLACK
6
CONTINUOUS
10
102.1393130000000014
20
-105.8296330000000012
11
102.0007659999999987
21
-105.7370590000000021
0
LINE
8
BLACK
6
CONTINUOUS
10
102.0007659999999987
20
-105.7370590000000021
11
101.8829410000000024
21
-105.6192339999999916
0
LINE
8
BLACK
6
CONTINUOUS
10
101.8829410000000024
20
-105.6192339999999916
11
101.7903669999999892
21
-105.480686999999989
0
LINE
8
BLACK
6
CONTINUOUS
10
101.7903669999999892
20
-105.480686999999989
11
101.7266010000000023
21
-105.3267419999999959
0
LINE
8
BLACK
6
CONTINUOUS
10
101.7266010000000023
20
-105.3267419999999959
11
101.6940929999999952
21
-105.1633149999999972
0
LINE
8
BLACK
6
CONTINUOUS
10
101.6940929999999952
20
-105.1633149999999972
11
101.6940929999999952
21
-104.9966849999999994
0
LINE
8
BLACK
6
CONTINUOUS
10
101.6940929999999952
20
-104.9966849999999994
11
101.7266010000000023
21
-104.8332580000000007
0
LINE
8
BLACK
6
CONTINUOUS
10
101.7266010000000023
20
-104.8332580000000007
11
101.7903669999999892
21
-104.6793129999999934
0
LINE
8
BLACK
6
CONTINUOUS
10
101.7903669999999892
20
-104.6793129999999934
11
101.8829410000000024
21
-104.5407659999999908
0
LINE
8
BLACK
6
CONTINUOUS
10
101.8829410000000024
20
-104.5407659999999908
11
102.0007659999999987
21
-104.4229409999999945
0
LINE
8
BLACK
6
CONTINUOUS
10
102.0007659999999987
20
-104.4229409999999945
11
102.1393130000000014
21
-104.3303669999999954
0
LINE
8
BLACK
6
CONTINUOUS
10
102.1393130000000014
20
-104.3303669999999954
11
102.2932579999999945
21
-104.2666009999999943
0
LINE
8
BLACK
6
CONTINUOUS
10
102.2932579999999945
20
-104.2666009999999943
11
102.4566849999999931
21
-104.2340930000000014
0
LINE
8
BLACK
6
CONTINUOUS
10
102.4566849999999931
20
-104.2340930000000014
11
102.623314999999991
21
-104.2340930000000014
0
LINE
8
BLACK
6
CONTINUOUS
10
102.623314999999991
20
-104.2340930000000014
11
102.7867419999999896
21
-104.2666009999999943
0
LINE
8
BLACK
6
CONTINUOUS
10
105.3267419999999959
20
-104.2666009999999943
11
105.480686999999989
21
-104.3303669999999954
0
LINE
8
BLACK
6
CONTINUOUS
10
105.480686999999989
20
-104.3303669999999954
11
105.6192339999999916
21
-104.4229409999999945
0
LINE
8
BLACK
6
CONTINUOUS
10
105.6192339999999916
20
-104.4229409999999945
11
105.7370590000000021
21
-104.5407659999999908
0
LINE
8
BLACK
6
CONTINUOUS
10
105.7370590000000021
20
-104.5407659999999908
11
105.8296330000000012
21
-104.6793129999999934
0
LINE
8
BLACK
6
CONTINUOUS
10
105.8296330000000012
20
-104.6793129999999934
11
105.8933990000000023
21
-104.8332580000000007
0
LINE
8
BLACK
6
CONTINUOUS
10
105.8933990000000023
20
-104.8332580000000007
11
105.9259069999999952
21
-104.9966849999999994
0
LINE
8
BLACK
6
CONTINUOUS
10
105.9259069999999952
20
-104.9966849999999994
11
105.9259069999999952
21
-105.1633149999999972
0
LINE
8
BLACK
6
CONTINUOUS
10
105.9259069999999952
20
-105.1633149999999972
11
105.8933990000000023
21
-105.3267419999999959
0
LINE
8
BLACK
6
CONTINUOUS
10
105.8933990000000023
20
-105.3267419999999959
11
105.8296330000000012
21
-105.480686999999989
0
LINE
8
BLACK
6
CONTINUOUS
10
105.8296330000000012
20
-105.480686999999989
11
105.7370590000000021
21
-105.6192339999999916
0
LINE
8
BLACK
6
CONTINUOUS
10
105.7370590000000021
20
-105.6192339999999916
11
105.6192339999999916
21
-105.7370590000000021
0
LINE
8
BLACK
6
CONTINUOUS
10
105.6192339999999916
20
-105.7370590000000021
11
105.480686999999989
21
-105.8296330000000012
0
LINE
8
BLACK
6
CONTINUOUS
10
105.480686999999989
20
-105.8296330000000012
11
105.3267419999999959
21
-105.8933990000000023
0
LINE
8
BLACK
6
CONTINUOUS
10
105.3267419999999959
20
-105.8933990000000023
11
105.1633149999999972
21
-105.9259069999999952
0
LINE
8
BLACK
6
CONTINUOUS
10
105.1633149999999972
20
-105.9259069999999952
11
104.9966849999999994
21
-105.9259069999999952
0
LINE
8
BLACK
6
CONTINUOUS
10
104.9966849999999994
20
-105.9259069999999952
11
104.8332580000000007
21
-105.8933990000000023
0
LINE
8
BLACK
6
CONTINUOUS
10
104.8332580000000007
20
-105.8933990000000023
11
104.6793129999999934
21
-105.8296330000000012
0
LINE
8
BLACK
6
CONTINUOUS
10
104.6793129999999934
20
-105.8296330000000012
11
104.5407659999999908
21
-105.7370590000000021
0
LINE
8
BLACK
6
CONTINUOUS
10
104.5407659999999908
20
-105.7370590000000021
11
104.4229409999999945
21
-105.6192339999999916
0
LINE
8
BLACK
6
CONTINUOUS
10
104.4229409999999945
20
-105.6192339999999916
11
104.3303669999999954
21
-105.480686999999989
0
LINE
8
BLACK
6
CONTINUOUS
10
104.3303669999999954
20
-105.480686999999989
11
104.2666009999999943
21
-105.3267419999999959
0
LINE
8
BLACK
6
CONTINUOUS
10
104.2666009999999943
20
-105.3267419999999959
11
104.2340930000000014
21
-105.1633149999999972
0
LINE
8
BLACK
6
CONTINUOUS
10
104.2340930000000014
20
-105.1633149999999972
11
104.2340930000000014
21
-104.9966849999999994
0
LINE
8
BLACK
6
CONTINUOUS
10
104.2340930000000014
20
-104.9966849999999994
11
104.2666009999999943
21
-104.8332580000000007
0
LINE
8
BLACK
6
CONTINUOUS
10
104.2666009999999943
20
-104.8332580000000007
11
104.3303669999999954
21
-104.6793129999999934
0
LINE
8
BLACK
6
CONTINUOUS
10
104.3303669999999954
20
-104.6793129999999934
11
104.4229409999999945
21
-104.5407659999999908
0
LINE
8
BLACK
6
CONTINUOUS
10
104.4229409999999945
20
-104.5407659999999908
11
104.5407659999999908
21
-104.4229409999999945
0
LINE
8
BLACK
6
CONTINUOUS
10
104.5407659999999908
20
-104.4229409999999945
11
104.6793129999999934
21
-104.3303669999999954
0
LINE
8
BLACK
6
CONTINUOUS
10
104.6793129999999934
20
-104.3303669999999954
11
104.8332580000000007
21
-104.2666009999999943
0
LINE
8
BLACK
6
CONTINUOUS
10
104.8332580000000007
20
-104.2666009999999943
11
104.9966849999999994
21
-104.2340930000000014
0
LINE
8
BLACK
6
CONTINUOUS
10
104.9966849999999994
20
-104.2340930000000014
11
105.1633149999999972
21
-104.2340930000000014
0
LINE
8
BLACK
6
CONTINUOUS
10
105.1633149999999972
20
-104.2340930000000014
11
105.3267419999999959
21
-104.2666009999999943
0
LINE
8
BLACK
6
CONTINUOUS
10
100.2626259999999974
20
-101.446083999999999
11
100.4305189999999897
21
-101.5006360000000001
0
LINE
8
BLACK
6
CONTINUOUS
10
100.4305189999999897
20
-101.5006360000000001
11
100.5878110000000021
21
-101.5807799999999901
0
LINE
8
BLACK
6
CONTINUOUS
10
100.5878110000000021
20
-101.5807799999999901
11
100.7306289999999933
21
-101.6845429999999908
0
LINE
8
BLACK
6
CONTINUOUS
10
100.7306289999999933
20
-101.6845429999999908
11
100.8554570000000012
21
-101.8093709999999987
0
LINE
8
BLACK
6
CONTINUOUS
10
100.8554570000000012
20
-101.8093709999999987
11
100.959220000000002
21
-101.95218899999999
0
LINE
8
BLACK
6
CONTINUOUS
10
100.959220000000002
20
-101.95218899999999
11
101.039363999999992
21
-102.1094810000000024
0
LINE
8
BLACK
6
CONTINUOUS
10
101.039363999999992
20
-102.1094810000000024
11
101.093915999999993
21
-102.2773739999999947
0
LINE
8
BLACK
6
CONTINUOUS
10
101.093915999999993
20
-102.2773739999999947
11
101.121532000000002
21
-102.4517340000000019
0
LINE
8
BLACK
6
CONTINUOUS
10
101.121532000000002
20
-102.4517340000000019
11
101.121532000000002
21
-102.6282659999999964
0
LINE
8
BLACK
6
CONTINUOUS
10
101.121532000000002
20
-102.6282659999999964
11
101.093915999999993
21
-102.8026259999999894
0
LINE
8
BLACK
6
CONTINUOUS
10
101.093915999999993
20
-102.8026259999999894
11
101.039363999999992
21
-102.9705189999999959
0
LINE
8
BLACK
6
CONTINUOUS
10
101.039363999999992
20
-102.9705189999999959
11
100.959220000000002
21
-103.1278109999999941
0
LINE
8
BLACK
6
CONTINUOUS
10
100.959220000000002
20
-103.1278109999999941
11
100.8554570000000012
21
-103.2706289999999996
0
LINE
8
BLACK
6
CONTINUOUS
10
100.8554570000000012
20
-103.2706289999999996
11
100.7306289999999933
21
-103.3954569999999933
0
LINE
8
BLACK
6
CONTINUOUS
10
100.7306289999999933
20
-103.3954569999999933
11
100.5878110000000021
21
-103.499219999999994
0
LINE
8
BLACK
6
CONTINUOUS
10
100.5878110000000021
20
-103.499219999999994
11
100.4305189999999897
21
-103.5793639999999982
0
LINE
8
BLACK
6
CONTINUOUS
10
100.4305189999999897
20
-103.5793639999999982
11
100.2626259999999974
21
-103.6339159999999993
0
LINE
8
BLACK
6
CONTINUOUS
10
100.2626259999999974
20
-103.6339159999999993
11
100.0882659999999902
21
-103.661531999999994
0
LINE
8
BLACK
6
CONTINUOUS
10
100.0882659999999902
20
-103.661531999999994
11
99.9117339999999956
21
-103.661531999999994
0
LINE
8
BLACK
6
CONTINUOUS
10
99.9117339999999956
20
-103.661531999999994
11
99.7373739999999884
21
-103.6339159999999993
0
LINE
8
BLACK
6
CONTINUOUS
10
99.7373739999999884
20
-103.6339159999999993
11
99.5694809999999961
21
-103.5793639999999982
0
LINE
8
BLACK
6
CONTINUOUS
10
99.5694809999999961
20
-103.5793639999999982
11
99.4121889999999979
21
-103.499219999999994
0
LINE
8
BLACK
6
CONTINUOUS
10
99.4121889999999979
20
-103.499219999999994
11
99.2693709999999925
21
-103.3954569999999933
0
LINE
8
BLACK
6
CONTINUOUS
10
99.2693709999999925
20
-103.3954569999999933
11
99.1445429999999988
21
-103.2706289999999996
0
LINE
8
BLACK
6
CONTINUOUS
10
99.1445429999999988
20
-103.2706289999999996
11
99.040779999999998
21
-103.1278109999999941
0
LINE
8
BLACK
6
CONTINUOUS
10
99.040779999999998
20
-103.1278109999999941
11
98.9606359999999938
21
-102.9705189999999959
0
LINE
8
BLACK
6
CONTINUOUS
10
98.9606359999999938
20
-102.9705189999999959
11
98.9060839999999928
21
-102.8026259999999894
0
LINE
8
BLACK
6
CONTINUOUS
10
98.9060839999999928
20
-102.8026259999999894
11
98.878467999999998
21
-102.6282659999999964
0
LINE
8
BLACK
6
CONTINUOUS
10
98.878467999999998
20
-102.6282659999999964
11
98.878467999999998
21
-102.4517340000000019
0
LINE
8
BLACK
6
CONTINUOUS
10
98.878467999999998
20
-102.4517340000000019
11
98.9060839999999928
21
-102.2773739999999947
0
LINE
8
BLACK
6
CONTINUOUS
10
98.9060839999999928
20
-102.2773739999999947
11
98.9606359999999938
21
-102.1094810000000024
0
LINE
8
BLACK
6
CONTINUOUS
10
98.9606359999999938
20
-102.1094810000000024
11
99.040779999999998
21
-101.95218899999999
0
LINE
8
BLACK
6
CONTINUOUS
10
99.040779999999998
20
-101.95218899999999
11
99.1445429999999988
21
-101.8093709999999987
0
LINE
8
BLACK
6
CONTINUOUS
10
99.1445429999999988
20
-101.8093709999999987
11
99.2693709999999925
21
-101.6845429999999908
0
LINE
8
BLACK
6
CONTINUOUS
10
99.2693709999999925
20
-101.6845429999999908
11
99.4121889999999979
21
-101.5807799999999901
0
LINE
8
BLACK
6
CONTINUOUS
10
99.4121889999999979
20
-101.5807799999999901
11
99.5694809999999961
21
-101.5006360000000001
0
LINE
8
BLACK
6
CONTINUOUS
10
99.5694809999999961
20
-101.5006360000000001
11
99.7373739999999884
21
-101.446083999999999
0
LINE
8
BLACK
6
CONTINUOUS
10
99.7373739999999884
20
-101.446083999999999
11
99.9117339999999956
21
-101.4184679999999901
0
LINE
8
BLACK
6
CONTINUOUS
10
99.9117339999999956
20
-101.4184679999999901
11
100.0882659999999902
21
-101.4184679999999901
0
LINE
8
BLACK
6
CONTINUOUS
10
100.0882659999999902
20
-101.4184679999999901
11
100.2626259999999974
21
-101.446083999999999
0
LINE
8
BLACK
6
CONTINUOUS
10
107.8826260000000019
20
-101.446083999999999
11
108.0505189999999942
21
-101.5006360000000001
0
LINE
8
BLACK
6
CONTINUOUS
10
108.0505189999999942
20
-101.5006360000000001
11
108.2078109999999924
21
-101.5807799999999901
0
LINE
8
BLACK
6
CONTINUOUS
10
108.2078109999999924
20
-101.5807799999999901
11
108.3506289999999979
21
-101.6845429999999908
0
LINE
8
BLACK
6
CONTINUOUS
10
108.3506289999999979
20
-101.6845429999999908
11
108.4754569999999916
21
-101.8093709999999987
0
LINE
8
BLACK
6
CONTINUOUS
10
108.4754569999999916
20
-101.8093709999999987
11
108.5792199999999923
21
-101.95218899999999
0
LINE
8
BLACK
6
CONTINUOUS
10
108.5792199999999923
20
-101.95218899999999
11
108.6593639999999965
21
-102.1094810000000024
0
LINE
8
BLACK
6
CONTINUOUS
10
108.6593639999999965
20
-102.1094810000000024
11
108.7139159999999976
21
-102.2773739999999947
0
LINE
8
BLACK
6
CONTINUOUS
10
108.7139159999999976
20
-102.2773739999999947
11
108.7415319999999923
21
-102.4517340000000019
0
LINE
8
BLACK
6
CONTINUOUS
10
108.7415319999999923
20
-102.4517340000000019
11
108.7415319999999923
21
-102.6282659999999964
0
LINE
8
BLACK
6
CONTINUOUS
10
108.7415319999999923
20
-102.6282659999999964
11
108.7139159999999976
21
-102.8026259999999894
0
LINE
8
BLACK
6
CONTINUOUS
10
108.7139159999999976
20
-102.8026259999999894
11
108.6593639999999965
21
-102.9705189999999959
0
LINE
8
BLACK
6
CONTINUOUS
10
108.6593639999999965
20
-102.9705189999999959
11
108.5792199999999923
21
-103.1278109999999941
0
LINE
8
BLACK
6
CONTINUOUS
10
108.5792199999999923
20
-103.1278109999999941
11
108.4754569999999916
21
-103.2706289999999996
0
LINE
8
BLACK
6
CONTINUOUS
10
108.4754569999999916
20
-103.2706289999999996
11
108.3506289999999979
21
-103.3954569999999933
0
LINE
8
BLACK
6
CONTINUOUS
10
108.3506289999999979
20
-103.3954569999999933
11
108.2078109999999924
21
-103.499219999999994
0
LINE
8
BLACK
6
CONTINUOUS
10
108.2078109999999924
20
-103.499219999999994
11
108.0505189999999942
21
-103.5793639999999982
0
LINE
8
BLACK
6
CONTINUOUS
10
108.0505189999999942
20
-103.5793639999999982
11
107.8826260000000019
21
-103.6339159999999993
0
LINE
8
BLACK
6
CONTINUOUS
10
107.8826260000000019
20
-103.6339159999999993
11
107.7082659999999947
21
-103.661531999999994
0
LINE
8
BLACK
6
CONTINUOUS
10
107.7082659999999947
20
-103.661531999999994
11
107.5317340000000002
21
-103.661531999999994
0
LINE
8
BLACK
6
CONTINUOUS
10
107.5317340000000002
20
-103.661531999999994
11
107.357373999999993
21
-103.6339159999999993
0
LINE
8
BLACK
6
CONTINUOUS
10
107.357373999999993
20
-103.6339159999999993
11
107.1894810000000007
21
-103.5793639999999982
0
LINE
8
BLACK
6
CONTINUOUS
10
107.1894810000000007
20
-103.5793639999999982
11
107.0321889999999883
21
-103.499219999999994
0
LINE
8
BLACK
6
CONTINUOUS
10
107.0321889999999883
20
-103.499219999999994
11
106.889370999999997
21
-103.3954569999999933
0
LINE
8
BLACK
6
CONTINUOUS
10
106.889370999999997
20
-103.3954569999999933
11
106.7645429999999891
21
-103.2706289999999996
0
LINE
8
BLACK
6
CONTINUOUS
10
106.7645429999999891
20
-103.2706289999999996
11
106.6607799999999884
21
-103.1278109999999941
0
LINE
8
BLACK
6
CONTINUOUS
10
106.6607799999999884
20
-103.1278109999999941
11
106.5806359999999984
21
-102.9705189999999959
0
LINE
8
BLACK
6
CONTINUOUS
10
106.5806359999999984
20
-102.9705189999999959
11
106.5260839999999973
21
-102.8026259999999894
0
LINE
8
BLACK
6
CONTINUOUS
10
106.5260839999999973
20
-102.8026259999999894
11
106.4984679999999884
21
-102.6282659999999964
0
LINE
8
BLACK
6
CONTINUOUS
10
106.4984679999999884
20
-102.6282659999999964
11
106.4984679999999884
21
-102.4517340000000019
0
LINE
8
BLACK
6
CONTINUOUS
10
106.4984679999999884
20
-102.4517340000000019
11
106.5260839999999973
21
-102.2773739999999947
0
LINE
8
BLACK
6
CONTINUOUS
10
106.5260839999999973
20
-102.2773739999999947
11
106.5806359999999984
21
-102.1094810000000024
0
LINE
8
BLACK
6
CONTINUOUS
10
106.5806359999999984
20
-102.1094810000000024
11
106.6607799999999884
21
-101.95218899999999
0
LINE
8
BLACK
6
CONTINUOUS
10
106.6607799999999884
20
-101.95218899999999
11
106.7645429999999891
21
-101.8093709999999987
0
LINE
8
BLACK
6
CONTINUOUS
10
106.7645429999999891
20
-101.8093709999999987
11
106.889370999999997
21
-101.6845429999999908
0
LINE
8
BLACK
6
CONTINUOUS
10
106.889370999999997
20
-101.6845429999999908
11
107.0321889999999883
21
-101.5807799999999901
0
LINE
8
BLACK
6
CONTINUOUS
10
107.0321889999999883
20
-101.5807799999999901
11
107.1894810000000007
21
-101.5006360000000001
0
LINE
8
BLACK
6
CONTINUOUS
10
107.1894810000000007
20
-101.5006360000000001
11
107.357373999999993
21
-101.446083999999999
0
LINE
8
BLACK
6
CONTINUOUS
10
107.357373999999993
20
-101.446083999999999
11
107.5317340000000002
21
-101.4184679999999901
0
LINE
8
BLACK
6
CONTINUOUS
10
107.5317340000000002
20
-101.4184679999999901
11
107.7082659999999947
21
-101.4184679999999901
0
LINE
8
BLACK
6
CONTINUOUS
10
107.7082659999999947
20
-101.4184679999999901
11
107.8826260000000019
21
-101.446083999999999
0
LINE
8
BLACK
6
CONTINUOUS
10
102.7867419999999896
20
-101.7266010000000023
11
102.9406869999999969
21
-101.7903669999999892
0
LINE
8
BLACK
6
CONTINUOUS
10
102.9406869999999969
20
-101.7903669999999892
11
103.0792339999999996
21
-101.8829410000000024
0
LINE
8
BLACK
6
CONTINUOUS
10
103.0792339999999996
20
-101.8829410000000024
11
103.1970589999999959
21
-102.0007659999999987
0
LINE
8
BLACK
6
CONTINUOUS
10
103.1970589999999959
20
-102.0007659999999987
11
103.2896329999999949
21
-102.1393130000000014
0
LINE
8
BLACK
6
CONTINUOUS
10
103.2896329999999949
20
-102.1393130000000014
11
103.353398999999996
21
-102.2932579999999945
0
LINE
8
BLACK
6
CONTINUOUS
10
103.353398999999996
20
-102.2932579999999945
11
103.3859069999999889
21
-102.4566849999999931
0
LINE
8
BLACK
6
CONTINUOUS
10
103.3859069999999889
20
-102.4566849999999931
11
103.3859069999999889
21
-102.623314999999991
0
LINE
8
BLACK
6
CONTINUOUS
10
103.3859069999999889
20
-102.623314999999991
11
103.353398999999996
21
-102.7867419999999896
0
LINE
8
BLACK
6
CONTINUOUS
10
103.353398999999996
20
-102.7867419999999896
11
103.2896329999999949
21
-102.9406869999999969
0
LINE
8
BLACK
6
CONTINUOUS
10
103.2896329999999949
20
-102.9406869999999969
11
103.1970589999999959
21
-103.0792339999999996
0
LINE
8
BLACK
6
CONTINUOUS
10
103.1970589999999959
20
-103.0792339999999996
11
103.0792339999999996
21
-103.1970589999999959
0
LINE
8
BLACK
6
CONTINUOUS
10
103.0792339999999996
20
-103.1970589999999959
11
102.9406869999999969
21
-103.2896329999999949
0
LINE
8
BLACK
6
CONTINUOUS
10
102.9406869999999969
20
-103.2896329999999949
11
102.7867419999999896
21
-103.353398999999996
0
LINE
8
BLACK
6
CONTINUOUS
10
102.7867419999999896
20
-103.353398999999996
11
102.623314999999991
21
-103.3859069999999889
0
LINE
8
BLACK
6
CONTINUOUS
10
102.623314999999991
20
-103.3859069999999889
11
102.4566849999999931
21
-103.3859069999999889
0
LINE
8
BLACK
6
CONTINUOUS
10
102.4566849999999931
20
-103.3859069999999889
11
102.2932579999999945
21
-103.353398999999996
0
LINE
8
BLACK
6
CONTINUOUS
10
102.2932579999999945
20
-103.353398999999996
11
102.1393130000000014
21
-103.2896329999999949
0
LINE
8
BLACK
6
CONTINUOUS
10
102.1393130000000014
20
-103.2896329999999949
11
102.0007659999999987
21
-103.1970589999999959
0
LINE
8
BLACK
6
CONTINUOUS
10
102.0007659999999987
20
-103.1970589999999959
11
101.8829410000000024
21
-103.0792339999999996
0
LINE
8
BLACK
6
CONTINUOUS
10
101.8829410000000024
20
-103.0792339999999996
11
101.7903669999999892
21
-102.9406869999999969
0
LINE
8
BLACK
6
CONTINUOUS
10
101.7903669999999892
20
-102.9406869999999969
11
101.7266010000000023
21
-102.7867419999999896
0
LINE
8
BLACK
6
CONTINUOUS
10
101.7266010000000023
20
-102.7867419999999896
11
101.6940929999999952
21
-102.623314999999991
0
LINE
8
BLACK
6
CONTINUOUS
10
101.6940929999999952
20
-102.623314999999991
11
101.6940929999999952
21
-102.4566849999999931
0
LINE
8
BLACK
6
CONTINUOUS
10
101.6940929999999952
20
-102.4566849999999931
11
101.7266010000000023
21
-102.2932579999999945
0
LINE
8
BLACK
6
CONTINUOUS
10
101.7266010000000023
20
-102.2932579999999945
11
101.7903669999999892
21
-102.1393130000000014
0
LINE
8
BLACK
6
CONTINUOUS
10
101.7903669999999892
20
-102.1393130000000014
11
101.8829410000000024
21
-102.0007659999999987
0
LINE
8
BLACK
6
CONTINUOUS
10
101.8829410000000024
20
-102.0007659999999987
11
102.0007659999999987
21
-101.8829410000000024
0
LINE
8
BLACK
6
CONTINUOUS
10
102.0007659999999987
20
-101.8829410000000024
11
102.1393130000000014
21
-101.7903669999999892
0
LINE
8
BLACK
6
CONTINUOUS
10
102.1393130000000014
20
-101.7903669999999892
11
102.2932579999999945
21
-101.7266010000000023
0
LINE
8
BLACK
6
CONTINUOUS
10
102.2932579999999945
20
-101.7266010000000023
11
102.4566849999999931
21
-101.6940929999999952
0
LINE
8
BLACK
6
CONTINUOUS
10
102.4566849999999931
20
-101.6940929999999952
11
102.623314999999991
21
-101.6940929999999952
0
LINE
8
BLACK
6
CONTINUOUS
10
102.623314999999991
20
-101.6940929999999952
11
102.7867419999999896
21
-101.7266010000000023
0
LINE
8
BLACK
6
CONTINUOUS
10
105.3267419999999959
20
-101.7266010000000023
11
105.480686999999989
21
-101.7903669999999892
0
LINE
8
BLACK
6
CONTINUOUS
10
105.480686999999989
20
-101.7903669999999892
11
105.6192339999999916
21
-101.8829410000000024
0
LINE
8
BLACK
6
CONTINUOUS
10
105.6192339999999916
20
-101.8829410000000024
11
105.7370590000000021
21
-102.0007659999999987
0
LINE
8
BLACK
6
CONTINUOUS
10
105.7370590000000021
20
-102.0007659999999987
11
105.8296330000000012
21
-102.1393130000000014
0
LINE
8
BLACK
6
CONTINUOUS
10
105.8296330000000012
20
-102.1393130000000014
11
105.8933990000000023
21
-102.2932579999999945
0
LINE
8
BLACK
6
CONTINUOUS
10
105.8933990000000023
20
-102.2932579999999945
11
105.9259069999999952
21
-102.4566849999999931
0
LINE
8
BLACK
6
CONTINUOUS
10
105.9259069999999952
20
-102.4566849999999931
11
105.9259069999999952
21
-102.623314999999991
0
LINE
8
BLACK
6
CONTINUOUS
10
105.9259069999999952
20
-102.623314999999991
11
105.8933990000000023
21
-102.7867419999999896
0
LINE
8
BLACK
6
CONTINUOUS
10
105.8933990000000023
20
-102.7867419999999896
11
105.8296330000000012
21
-102.9406869999999969
0
LINE
8
BLACK
6
CONTINUOUS
10
105.8296330000000012
20
-102.9406869999999969
11
105.7370590000000021
21
-103.0792339999999996
0
LINE
8
BLACK
6
CONTINUOUS
10
105.7370590000000021
20
-103.0792339999999996
11
105.6192339999999916
21
-103.1970589999999959
0
LINE
8
BLACK
6
CONTINUOUS
10
105.6192339999999916
20
-103.1970589999999959
11
105.480686999999989
21
-103.2896329999999949
0
LINE
8
BLACK
6
CONTINUOUS
10
105.480686999999989
20
-103.2896329999999949
11
105.3267419999999959
21
-103.353398999999996
0
LINE
8
BLACK
6
CONTINUOUS
10
105.3267419999999959
20
-103.353398999999996
11
105.1633149999999972
21
-103.3859069999999889
0
LINE
8
BLACK
6
CONTINUOUS
10
105.1633149999999972
20
-103.3859069999999889
11
104.9966849999999994
21
-103.3859069999999889
0
LINE
8
BLACK
6
CONTINUOUS
10
104.9966849999999994
20
-103.3859069999999889
11
104.8332580000000007
21
-103.353398999999996
0
LINE
8
BLACK
6
CONTINUOUS
10
104.8332580000000007
20
-103.353398999999996
11
104.6793129999999934
21
-103.2896329999999949
0
LINE
8
BLACK
6
CONTINUOUS
10
104.6793129999999934
20
-103.2896329999999949
11
104.5407659999999908
21
-103.1970589999999959
0
LINE
8
BLACK
6
CONTINUOUS
10
104.5407659999999908
20
-103.1970589999999959
11
104.4229409999999945
21
-103.0792339999999996
0
LINE
8
BLACK
6
CONTINUOUS
10
104.4229409999999945
20
-103.0792339999999996
11
104.3303669999999954
21
-102.9406869999999969
0
LINE
8
BLACK
6
CONTINUOUS
10
104.3303669999999954
20
-102.9406869999999969
11
104.2666009999999943
21
-102.7867419999999896
0
LINE
8
BLACK
6
CONTINUOUS
10
104.2666009999999943
20
-102.7867419999999896
11
104.2340930000000014
21
-102.623314999999991
0
LINE
8
BLACK
6
CONTINUOUS
10
104.2340930000000014
20
-102.623314999999991
11
104.2340930000000014
21
-102.4566849999999931
0
LINE
8
BLACK
6
CONTINUOUS
10
104.2340930000000014
20
-102.4566849999999931
11
104.2666009999999943
21
-102.2932579999999945
0
LINE
8
BLACK
6
CONTINUOUS
10
104.2666009999999943
20
-102.2932579999999945
11
104.3303669999999954
21
-102.1393130000000014
0
LINE
8
BLACK
6
CONTINUOUS
10
104.3303669999999954
20
-102.1393130000000014
11
104.4229409999999945
21
-102.0007659999999987
0
LINE
8
BLACK
6
CONTINUOUS
10
104.4229409999999945
20
-102.0007659999999987
11
104.5407659999999908
21
-101.8829410000000024
0
LINE
8
BLACK
6
CONTINUOUS
10
104.5407659999999908
20
-101.8829410000000024
11
104.6793129999999934
21
-101.7903669999999892
0
LINE
8
BLACK
6
CONTINUOUS
10
104.6793129999999934
20
-101.7903669999999892
11
104.8332580000000007
21
-101.7266010000000023
0
LINE
8
BLACK
6
CONTINUOUS
10
104.8332580000000007
20
-101.7266010000000023
11
104.9966849999999994
21
-101.6940929999999952
0
LINE
8
BLACK
6
CONTINUOUS
10
104.9966849999999994
20
-101.6940929999999952
11
105.1633149999999972
21
-101.6940929999999952
0
LINE
8
BLACK
6
CONTINUOUS
10
105.1633149999999972
20
-101.6940929999999952
11
105.3267419999999959
21
-101.7266010000000023
0
LINE
8
BLACK
6
CONTINUOUS
10
100.2626259999999974
20
-98.9060839999999928
11
100.4305189999999897
21
-98.9606359999999938
0
LINE
8
BLACK
6
CONTINUOUS
10
100.4305189999999897
20
-98.9606359999999938
11
100.5878110000000021
21
-99.040779999999998
0
LINE
8
BLACK
6
CONTINUOUS
10
100.5878110000000021
20
-99.040779999999998
11
100.7306289999999933
21
-99.1445429999999988
0
LINE
8
BLACK
6
CONTINUOUS
10
100.7306289999999933
20
-99.1445429999999988
11
100.8554570000000012
21
-99.2693709999999925
0
LINE
8
BLACK
6
CONTINUOUS
10
100.8554570000000012
20
-99.2693709999999925
11
100.959220000000002
21
-99.4121889999999979
0
LINE
8
BLACK
6
CONTINUOUS
10
100.959220000000002
20
-99.4121889999999979
11
101.039363999999992
21
-99.5694809999999961
0
LINE
8
BLACK
6
CONTINUOUS
10
101.039363999999992
20
-99.5694809999999961
11
101.093915999999993
21
-99.7373739999999884
0
LINE
8
BLACK
6
CONTINUOUS
10
101.093915999999993
20
-99.7373739999999884
11
101.121532000000002
21
-99.9117339999999956
0
LINE
8
BLACK
6
CONTINUOUS
10
101.121532000000002
20
-99.9117339999999956
11
101.121532000000002
21
-100.0882659999999902
0
LINE
8
BLACK
6
CONTINUOUS
10
101.121532000000002
20
-100.0882659999999902
11
101.093915999999993
21
-100.2626259999999974
0
LINE
8
BLACK
6
CONTINUOUS
10
101.093915999999993
20
-100.2626259999999974
11
101.039363999999992
21
-100.4305189999999897
0
LINE
8
BLACK
6
CONTINUOUS
10
101.039363999999992
20
-100.4305189999999897
11
100.959220000000002
21
-100.5878110000000021
0
LINE
8
BLACK
6
CONTINUOUS
10
100.959220000000002
20
-100.5878110000000021
11
100.8554570000000012
21
-100.7306289999999933
0
LINE
8
BLACK
6
CONTINUOUS
10
100.8554570000000012
20
-100.7306289999999933
11
100.7306289999999933
21
-100.8554570000000012
0
LINE
8
BLACK
6
CONTINUOUS
10
100.7306289999999933
20
-100.8554570000000012
11
100.5878110000000021
21
-100.959220000000002
0
LINE
8
BLACK
6
CONTINUOUS
10
100.5878110000000021
20
-100.959220000000002
11
100.4305189999999897
21
-101.039363999999992
0
LINE
8
BLACK
6
CONTINUOUS
10
100.4305189999999897
20
-101.039363999999992
11
100.2626259999999974
21
-101.093915999999993
0
LINE
8
BLACK
6
CONTINUOUS
10
100.2626259999999974
20
-101.093915999999993
11
100.0882659999999902
21
-101.121532000000002
0
LINE
8
BLACK
6
CONTINUOUS
10
100.0882659999999902
20
-101.121532000000002
11
99.9117339999999956
21
-101.121532000000002
0
LINE
8
BLACK
6
CONTINUOUS
10
99.9117339999999956
20
-101.121532000000002
11
99.7373739999999884
21
-101.093915999999993
0
LINE
8
BLACK
6
CONTINUOUS
10
99.7373739999999884
20
-101.093915999999993
11
99.5694809999999961
21
-101.039363999999992
0
LINE
8
BLACK
6
CONTINUOUS
10
99.5694809999999961
20
-101.039363999999992
11
99.4121889999999979
21
-100.959220000000002
0
LINE
8
BLACK
6
CONTINUOUS
10
99.4121889999999979
20
-100.959220000000002
11
99.2693709999999925
21
-100.8554570000000012
0
LINE
8
BLACK
6
CONTINUOUS
10
99.2693709999999925
20
-100.8554570000000012
11
99.1445429999999988
21
-100.7306289999999933
0
LINE
8
BLACK
6
CONTINUOUS
10
99.1445429999999988
20
-100.7306289999999933
11
99.040779999999998
21
-100.5878110000000021
0
LINE
8
BLACK
6
CONTINUOUS
10
99.040779999999998
20
-100.5878110000000021
11
98.9606359999999938
21
-100.4305189999999897
0
LINE
8
BLACK
6
CONTINUOUS
10
98.9606359999999938
20
-100.4305189999999897
11
98.9060839999999928
21
-100.2626259999999974
0
LINE
8
BLACK
6
CONTINUOUS
10
98.9060839999999928
20
-100.2626259999999974
11
98.878467999999998
21
-100.0882659999999902
0
LINE
8
BLACK
6
CONTINUOUS
10
98.878467999999998
20
-100.0882659999999902
11
98.878467999999998
21
-99.9117339999999956
0
LINE
8
BLACK
6
CONTINUOUS
10
98.878467999999998
20
-99.9117339999999956
11
98.9060839999999928
21
-99.7373739999999884
0
LINE
8
BLACK
6
CONTINUOUS
10
98.9060839999999928
20
-99.7373739999999884
11
98.9606359999999938
21
-99.5694809999999961
0
LINE
8
BLACK
6
CONTINUOUS
10
98.9606359999999938
20
-99.5694809999999961
11
99.040779999999998
21
-99.4121889999999979
0
LINE
8
BLACK
6
CONTINUOUS
10
99.040779999999998
20
-99.4121889999999979
11
99.1445429999999988
21
-99.2693709999999925
0
LINE
8
BLACK
6
CONTINUOUS
10
99.1445429999999988
20
-99.2693709999999925
11
99.2693709999999925
21
-99.1445429999999988
0
LINE
8
BLACK
6
CONTINUOUS
10
99.2693709999999925
20
-99.1445429999999988
11
99.4121889999999979
21
-99.040779999999998
0
LINE
8
BLACK
6
CONTINUOUS
10
99.4121889999999979
20
-99.040779999999998
11
99.5694809999999961
21
-98.9606359999999938
0
LINE
8
BLACK
6
CONTINUOUS
10
99.5694809999999961
20
-98.9606359999999938
11
99.7373739999999884
21
-98.9060839999999928
0
LINE
8
BLACK
6
CONTINUOUS
10
99.7373739999999884
20
-98.9060839999999928
11
99.9117339999999956
21
-98.878467999999998
0
LINE
8
BLACK
6
CONTINUOUS
10
99.9117339999999956
20
-98.878467999999998
11
100.0882659999999902
21
-98.878467999999998
0
LINE
8
BLACK
6
CONTINUOUS
10
100.0882659999999902
20
-98.878467999999998
11
100.2626259999999974
21
-98.9060839999999928
0
LINE
8
BLACK
6
CONTINUOUS
10
107.8826260000000019
20
-98.9060839999999928
11
108.0505189999999942
21
-98.9606359999999938
0
LINE
8
BLACK
6
CONTINUOUS
10
108.0505189999999942
20
-98.9606359999999938
11
108.2078109999999924
21
-99.040779999999998
0
LINE
8
BLACK
6
CONTINUOUS
10
108.2078109999999924
20
-99.040779999999998
11
108.3506289999999979
21
-99.1445429999999988
0
LINE
8
BLACK
6
CONTINUOUS
10
108.3506289999999979
20
-99.1445429999999988
11
108.4754569999999916
21
-99.2693709999999925
0
LINE
8
BLACK
6
CONTINUOUS
10
108.4754569999999916
20
-99.2693709999999925
11
108.5792199999999923
21
-99.4121889999999979
0
LINE
8
BLACK
6
CONTINUOUS
10
108.5792199999999923
20
-99.4121889999999979
11
108.6593639999999965
21
-99.5694809999999961
0
LINE
8
BLACK
6
CONTINUOUS
10
108.6593639999999965
20
-99.5694809999999961
11
108.7139159999999976
21
-99.7373739999999884
0
LINE
8
BLACK
6
CONTINUOUS
10
108.7139159999999976
20
-99.7373739999999884
11
108.7415319999999923
21
-99.9117339999999956
0
LINE
8
BLACK
6
CONTINUOUS
10
108.7415319999999923
20
-99.9117339999999956
11
108.7415319999999923
21
-100.0882659999999902
0
LINE
8
BLACK
6
CONTINUOUS
10
108.7415319999999923
20
-100.0882659999999902
11
108.7139159999999976
21
-100.2626259999999974
0
LINE
8
BLACK
6
CONTINUOUS
10
108.7139159999999976
20
-100.2626259999999974
11
108.6593639999999965
21
-100.4305189999999897
0
LINE
8
BLACK
6
CONTINUOUS
10
108.6593639999999965
20
-100.4305189999999897
11
108.5792199999999923
21
-100.5878110000000021
0
LINE
8
BLACK
6
CONTINUOUS
10
108.5792199999999923
20
-100.5878110000000021
11
108.4754569999999916
21
-100.7306289999999933
0
LINE
8
BLACK
6
CONTINUOUS
10
108.4754569999999916
20
-100.7306289999999933
11
108.3506289999999979
21
-100.8554570000000012
0
LINE
8
BLACK
6
CONTINUOUS
10
108.3506289999999979
20
-100.8554570000000012
11
108.2078109999999924
21
-100.959220000000002
0
LINE
8
BLACK
6
CONTINUOUS
10
108.2078109999999924
20
-100.959220000000002
11
108.0505189999999942
21
-101.039363999999992
0
LINE
8
BLACK
6
CONTINUOUS
10
108.0505189999999942
20
-101.039363999999992
11
107.8826260000000019
21
-101.093915999999993
0
LINE
8
BLACK
6
CONTINUOUS
10
107.8826260000000019
20
-101.093915999999993
11
107.7082659999999947
21
-101.121532000000002
0
LINE
8
BLACK
6
CONTINUOUS
10
107.7082659999999947
20
-101.121532000000002
11
107.5317340000000002
21
-101.121532000000002
0
LINE
8
BLACK
6
CONTINUOUS
10
107.5317340000000002
20
-101.121532000000002
11
107.357373999999993
21
-101.093915999999993
0
LINE
8
BLACK
6
CONTINUOUS
10
107.357373999999993
20
-101.093915999999993
11
107.1894810000000007
21
-101.039363999999992
0
LINE
8
BLACK
6
CONTINUOUS
10
107.1894810000000007
20
-101.039363999999992
11
107.0321889999999883
21
-100.959220000000002
0
LINE
8
BLACK
6
CONTINUOUS
10
107.0321889999999883
20
-100.959220000000002
11
106.889370999999997
21
-100.8554570000000012
0
LINE
8
BLACK
6
CONTINUOUS
10
106.889370999999997
20
-100.8554570000000012
11
106.7645429999999891
21
-100.7306289999999933
0
LINE
8
BLACK
6
CONTINUOUS
10
106.7645429999999891
20
-100.7306289999999933
11
106.6607799999999884
21
-100.5878110000000021
0
LINE
8
BLACK
6
CONTINUOUS
10
106.6607799999999884
20
-100.5878110000000021
11
106.5806359999999984
21
-100.4305189999999897
0
LINE
8
BLACK
6
CONTINUOUS
10
106.5806359999999984
20
-100.4305189999999897
11
106.5260839999999973
21
-100.2626259999999974
0
LINE
8
BLACK
6
CONTINUOUS
10
106.5260839999999973
20
-100.2626259999999974
11
106.4984679999999884
21
-100.0882659999999902
0
LINE
8
BLACK
6
CONTINUOUS
10
106.4984679999999884
20
-100.0882659999999902
11
106.4984679999999884
21
-99.9117339999999956
0
LINE
8
BLACK
6
CONTINUOUS
10
106.4984679999999884
20
-99.9117339999999956
11
106.5260839999999973
21
-99.7373739999999884
0
LINE
8
BLACK
6
CONTINUOUS
10
106.5260839999999973
20
-99.7373739999999884
11
106.5806359999999984
21
-99.5694809999999961
0
LINE
8
BLACK
6
CONTINUOUS
10
106.5806359999999984
20
-99.5694809999999961
11
106.6607799999999884
21
-99.4121889999999979
0
LINE
8
BLACK
6
CONTINUOUS
10
106.6607799999999884
20
-99.4121889999999979
11
106.7645429999999891
21
-99.2693709999999925
0
LINE
8
BLACK
6
CONTINUOUS
10
106.7645429999999891
20
-99.2693709999999925
11
106.889370999999997
21
-99.1445429999999988
0
LINE
8
BLACK
6
CONTINUOUS
10
106.889370999999997
20
-99.1445429999999988
11
107.0321889999999883
21
-99.040779999999998
0
LINE
8
BLACK
6
CONTINUOUS
10
107.0321889999999883
20
-99.040779999999998
11
107.1894810000000007
21
-98.9606359999999938
0
LINE
8
BLACK
6
CONTINUOUS
10
107.1894810000000007
20
-98.9606359999999938
11
107.357373999999993
21
-98.9060839999999928
0
LINE
8
BLACK
6
CONTINUOUS
10
107.357373999999993
20
-98.9060839999999928
11
107.5317340000000002
21
-98.878467999999998
0
LINE
8
BLACK
6
CONTINUOUS
10
107.5317340000000002
20
-98.878467999999998
11
107.7082659999999947
21
-98.878467999999998
0
LINE
8
BLACK
6
CONTINUOUS
10
107.7082659999999947
20
-98.878467999999998
11
107.8826260000000019
21
-98.9060839999999928
0
LINE
8
BLACK
6
CONTINUOUS
10
102.8026259999999894
20
-97.0060840000000013
11
102.9705189999999959
21
-97.0606360000000024
0
LINE
8
BLACK
6
CONTINUOUS
10
102.9705189999999959
20
-97.0606360000000024
11
103.1278109999999941
21
-97.1407799999999924
0
LINE
8
BLACK
6
CONTINUOUS
10
103.1278109999999941
20
-97.1407799999999924
11
103.2706289999999996
21
-97.2445429999999931
0
LINE
8
BLACK
6
CONTINUOUS
10
103.2706289999999996
20
-97.2445429999999931
11
103.3954569999999933
21
-97.369371000000001
0
LINE
8
BLACK
6
CONTINUOUS
10
103.3954569999999933
20
-97.369371000000001
11
103.499219999999994
21
-97.5121889999999922
0
LINE
8
BLACK
6
CONTINUOUS
10
103.499219999999994
20
-97.5121889999999922
11
103.5793639999999982
21
-97.6694809999999904
0
LINE
8
BLACK
6
CONTINUOUS
10
103.5793639999999982
20
-97.6694809999999904
11
103.6339159999999993
21
-97.837373999999997
0
LINE
8
BLACK
6
CONTINUOUS
10
103.6339159999999993
20
-97.837373999999997
11
103.661531999999994
21
-98.0117339999999899
0
LINE
8
BLACK
6
CONTINUOUS
10
103.661531999999994
20
-98.0117339999999899
11
103.661531999999994
21
-98.1882659999999987
0
LINE
8
BLACK
6
CONTINUOUS
10
103.661531999999994
20
-98.1882659999999987
11
103.6339159999999993
21
-98.3626259999999917
0
LINE
8
BLACK
6
CONTINUOUS
10
103.6339159999999993
20
-98.3626259999999917
11
103.5793639999999982
21
-98.5305189999999982
0
LINE
8
BLACK
6
CONTINUOUS
10
103.5793639999999982
20
-98.5305189999999982
11
103.499219999999994
21
-98.6878109999999964
0
LINE
8
BLACK
6
CONTINUOUS
10
103.499219999999994
20
-98.6878109999999964
11
103.3954569999999933
21
-98.8306290000000018
0
LINE
8
BLACK
6
CONTINUOUS
10
103.3954569999999933
20
-98.8306290000000018
11
103.2706289999999996
21
-98.9554569999999956
0
LINE
8
BLACK
6
CONTINUOUS
10
103.2706289999999996
20
-98.9554569999999956
11
103.1278109999999941
21
-99.0592199999999963
0
LINE
8
BLACK
6
CONTINUOUS
10
103.1278109999999941
20
-99.0592199999999963
11
102.9705189999999959
21
-99.1393640000000005
0
LINE
8
BLACK
6
CONTINUOUS
10
102.9705189999999959
20
-99.1393640000000005
11
102.937784999999991
21
-99.1499999999999915
0
LINE
8
BLACK
6
CONTINUOUS
10
102.937784999999991
20
-99.1499999999999915
11
103.3900000000000006
21
-99.1499999999999915
0
LINE
8
BLACK
6
CONTINUOUS
10
103.3900000000000006
20
-99.1499999999999915
11
103.3900000000000006
21
-100.8499999999999943
0
LINE
8
BLACK
6
CONTINUOUS
10
103.3900000000000006
20
-100.8499999999999943
11
101.6899999999999977
21
-100.8499999999999943
0
LINE
8
BLACK
6
CONTINUOUS
10
101.6899999999999977
20
-100.8499999999999943
11
101.6899999999999977
21
-99.1499999999999915
0
LINE
8
BLACK
6
CONTINUOUS
10
101.6899999999999977
20
-99.1499999999999915
11
102.1422149999999931
21
-99.1499999999999915
0
LINE
8
BLACK
6
CONTINUOUS
10
102.1422149999999931
20
-99.1499999999999915
11
102.1094810000000024
21
-99.1393640000000005
0
LINE
8
BLACK
6
CONTINUOUS
10
102.1094810000000024
20
-99.1393640000000005
11
101.95218899999999
21
-99.0592199999999963
0
LINE
8
BLACK
6
CONTINUOUS
10
101.95218899999999
20
-99.0592199999999963
11
101.8093709999999987
21
-98.9554569999999956
0
LINE
8
BLACK
6
CONTINUOUS
10
101.8093709999999987
20
-98.9554569999999956
11
101.6845429999999908
21
-98.8306290000000018
0
LINE
8
BLACK
6
CONTINUOUS
10
101.6845429999999908
20
-98.8306290000000018
11
101.5807799999999901
21
-98.6878109999999964
0
LINE
8
BLACK
6
CONTINUOUS
10
101.5807799999999901
20
-98.6878109999999964
11
101.5006360000000001
21
-98.5305189999999982
0
LINE
8
BLACK
6
CONTINUOUS
10
101.5006360000000001
20
-98.5305189999999982
11
101.446083999999999
21
-98.3626259999999917
0
LINE
8
BLACK
6
CONTINUOUS
10
101.446083999999999
20
-98.3626259999999917
11
101.4184679999999901
21
-98.1882659999999987
0
LINE
8
BLACK
6
CONTINUOUS
10
101.4184679999999901
20
-98.1882659999999987
11
101.4184679999999901
21
-98.0117339999999899
0
LINE
8
BLACK
6
CONTINUOUS
10
101.4184679999999901
20
-98.0117339999999899
11
101.446083999999999
21
-97.837373999999997
0
LINE
8
BLACK
6
CONTINUOUS
10
101.446083999999999
20
-97.837373999999997
11
101.5006360000000001
21
-97.6694809999999904
0
LINE
8
BLACK
6
CONTINUOUS
10
101.5006360000000001
20
-97.6694809999999904
11
101.5807799999999901
21
-97.5121889999999922
0
LINE
8
BLACK
6
CONTINUOUS
10
101.5807799999999901
20
-97.5121889999999922
11
101.6845429999999908
21
-97.369371000000001
0
LINE
8
BLACK
6
CONTINUOUS
10
101.6845429999999908
20
-97.369371000000001
11
101.8093709999999987
21
-97.2445429999999931
0
LINE
8
BLACK
6
CONTINUOUS
10
101.8093709999999987
20
-97.2445429999999931
11
101.95218899999999
21
-97.1407799999999924
0
LINE
8
BLACK
6
CONTINUOUS
10
101.95218899999999
20
-97.1407799999999924
11
102.1094810000000024
21
-97.0606360000000024
0
LINE
8
BLACK
6
CONTINUOUS
10
102.1094810000000024
20
-97.0606360000000024
11
102.2773739999999947
21
-97.0060840000000013
0
LINE
8
BLACK
6
CONTINUOUS
10
102.2773739999999947
20
-97.0060840000000013
11
102.4517340000000019
21
-96.9784679999999923
0
LINE
8
BLACK
6
CONTINUOUS
10
102.4517340000000019
20
-96.9784679999999923
11
102.6282659999999964
21
-96.9784679999999923
0
LINE
8
BLACK
6
CONTINUOUS
10
102.6282659999999964
20
-96.9784679999999923
11
102.8026259999999894
21
-97.0060840000000013
0
LINE
8
BLACK
6
CONTINUOUS
10
105.3426259999999957
20
-97.0060840000000013
11
105.5105190000000022
21
-97.0606360000000024
0
LINE
8
BLACK
6
CONTINUOUS
10
105.5105190000000022
20
-97.0606360000000024
11
105.6678110000000004
21
-97.1407799999999924
0
LINE
8
BLACK
6
CONTINUOUS
10
105.6678110000000004
20
-97.1407799999999924
11
105.8106289999999916
21
-97.2445429999999931
0
LINE
8
BLACK
6
CONTINUOUS
10
105.8106289999999916
20
-97.2445429999999931
11
105.9354569999999995
21
-97.369371000000001
0
LINE
8
BLACK
6
CONTINUOUS
10
105.9354569999999995
20
-97.369371000000001
11
106.0392200000000003
21
-97.5121889999999922
0
LINE
8
BLACK
6
CONTINUOUS
10
106.0392200000000003
20
-97.5121889999999922
11
106.1193639999999903
21
-97.6694809999999904
0
LINE
8
BLACK
6
CONTINUOUS
10
106.1193639999999903
20
-97.6694809999999904
11
106.1739159999999913
21
-97.837373999999997
0
LINE
8
BLACK
6
CONTINUOUS
10
106.1739159999999913
20
-97.837373999999997
11
106.2015320000000003
21
-98.0117339999999899
0
LINE
8
BLACK
6
CONTINUOUS
10
106.2015320000000003
20
-98.0117339999999899
11
106.2015320000000003
21
-98.1882659999999987
0
LINE
8
BLACK
6
CONTINUOUS
10
106.2015320000000003
20
-98.1882659999999987
11
106.1739159999999913
21
-98.3626259999999917
0
LINE
8
BLACK
6
CONTINUOUS
10
106.1739159999999913
20
-98.3626259999999917
11
106.1193639999999903
21
-98.5305189999999982
0
LINE
8
BLACK
6
CONTINUOUS
10
106.1193639999999903
20
-98.5305189999999982
11
106.0392200000000003
21
-98.6878109999999964
0
LINE
8
BLACK
6
CONTINUOUS
10
106.0392200000000003
20
-98.6878109999999964
11
105.9354569999999995
21
-98.8306290000000018
0
LINE
8
BLACK
6
CONTINUOUS
10
105.9354569999999995
20
-98.8306290000000018
11
105.8106289999999916
21
-98.9554569999999956
0
LINE
8
BLACK
6
CONTINUOUS
10
105.8106289999999916
20
-98.9554569999999956
11
105.6678110000000004
21
-99.0592199999999963
0
LINE
8
BLACK
6
CONTINUOUS
10
105.6678110000000004
20
-99.0592199999999963
11
105.5105190000000022
21
-99.1393640000000005
0
LINE
8
BLACK
6
CONTINUOUS
10
105.5105190000000022
20
-99.1393640000000005
11
105.4777849999999972
21
-99.1499999999999915
0
LINE
8
BLACK
6
CONTINUOUS
10
105.4777849999999972
20
-99.1499999999999915
11
105.9299999999999926
21
-99.1499999999999915
0
LINE
8
BLACK
6
CONTINUOUS
10
105.9299999999999926
20
-99.1499999999999915
11
105.9299999999999926
21
-100.8499999999999943
0
LINE
8
BLACK
6
CONTINUOUS
10
105.9299999999999926
20
-100.8499999999999943
11
104.2299999999999898
21
-100.8499999999999943
0
LINE
8
BLACK
6
CONTINUOUS
10
104.2299999999999898
20
-100.8499999999999943
11
104.2299999999999898
21
-99.1499999999999915
0
LINE
8
BLACK
6
CONTINUOUS
10
104.2299999999999898
20
-99.1499999999999915
11
104.6822149999999993
21
-99.1499999999999915
0
LINE
8
BLACK
6
CONTINUOUS
10
104.6822149999999993
20
-99.1499999999999915
11
104.6494809999999944
21
-99.1393640000000005
0
LINE
8
BLACK
6
CONTINUOUS
10
104.6494809999999944
20
-99.1393640000000005
11
104.4921889999999962
21
-99.0592199999999963
0
LINE
8
BLACK
6
CONTINUOUS
10
104.4921889999999962
20
-99.0592199999999963
11
104.3493709999999908
21
-98.9554569999999956
0
LINE
8
BLACK
6
CONTINUOUS
10
104.3493709999999908
20
-98.9554569999999956
11
104.2245429999999971
21
-98.8306290000000018
0
LINE
8
BLACK
6
CONTINUOUS
10
104.2245429999999971
20
-98.8306290000000018
11
104.1207799999999963
21
-98.6878109999999964
0
LINE
8
BLACK
6
CONTINUOUS
10
104.1207799999999963
20
-98.6878109999999964
11
104.0406359999999921
21
-98.5305189999999982
0
LINE
8
BLACK
6
CONTINUOUS
10
104.0406359999999921
20
-98.5305189999999982
11
103.9860839999999911
21
-98.3626259999999917
0
LINE
8
BLACK
6
CONTINUOUS
10
103.9860839999999911
20
-98.3626259999999917
11
103.9584679999999963
21
-98.1882659999999987
0
LINE
8
BLACK
6
CONTINUOUS
10
103.9584679999999963
20
-98.1882659999999987
11
103.9584679999999963
21
-98.0117339999999899
0
LINE
8
BLACK
6
CONTINUOUS
10
103.9584679999999963
20
-98.0117339999999899
11
103.9860839999999911
21
-97.837373999999997
0
LINE
8
BLACK
6
CONTINUOUS
10
103.9860839999999911
20
-97.837373999999997
11
104.0406359999999921
21
-97.6694809999999904
0
LINE
8
BLACK
6
CONTINUOUS
10
104.0406359999999921
20
-97.6694809999999904
11
104.1207799999999963
21
-97.5121889999999922
0
LINE
8
BLACK
6
CONTINUOUS
10
104.1207799999999963
20
-97.5121889999999922
11
104.2245429999999971
21
-97.369371000000001
0
LINE
8
BLACK
6
CONTINUOUS
10
104.2245429999999971
20
-97.369371000000001
11
104.3493709999999908
21
-97.2445429999999931
0
LINE
8
BLACK
6
CONTINUOUS
10
104.3493709999999908
20
-97.2445429999999931
11
104.4921889999999962
21
-97.1407799999999924
0
LINE
8
BLACK
6
CONTINUOUS
10
104.4921889999999962
20
-97.1407799999999924
11
104.6494809999999944
21
-97.0606360000000024
0
LINE
8
BLACK
6
CONTINUOUS
10
104.6494809999999944
20
-97.0606360000000024
11
104.8173740000000009
21
-97.0060840000000013
0
LINE
8
BLACK
6
CONTINUOUS
10
104.8173740000000009
20
-97.0060840000000013
11
104.9917339999999939
21
-96.9784679999999923
0
LINE
8
BLACK
6
CONTINUOUS
10
104.9917339999999939
20
-96.9784679999999923
11
105.1682659999999885
21
-96.9784679999999923
0
LINE
8
BLACK
6
CONTINUOUS
10
105.1682659999999885
20
-96.9784679999999923
11
105.3426259999999957
21
-97.0060840000000013
0
LINE
8
BLACK
6
CONTINUOUS
10
109.4595669999999927
20
-96.5269029999999901
11
109.4730969999999957
21
-96.5404329999999931
0
LINE
8
BLACK
6
CONTINUOUS
10
109.4730969999999957
20
-96.5404329999999931
11
109.4749999999999943
21
-96.5499999999999972
0
LINE
8
BLACK
6
CONTINUOUS
10
109.4749999999999943
20
-96.5499999999999972
11
109.4749999999999943
21
-110.9749999999999943
0
LINE
8
BLACK
6
CONTINUOUS
10
109.4749999999999943
20
-110.9749999999999943
11
109.4730969999999957
21
-110.9845669999999984
0
LINE
8
BLACK
6
CONTINUOUS
10
109.4730969999999957
20
-110.9845669999999984
11
109.4595669999999927
21
-110.9980970000000013
0
LINE
8
BLACK
6
CONTINUOUS
10
109.4595669999999927
20
-110.9980970000000013
11
109.4499999999999886
21
-111.
0
LINE
8
BLACK
6
CONTINUOUS
10
109.4499999999999886
20
-111.
11
98.1999999999999886
21
-111.
0
LINE
8
BLACK
6
CONTINUOUS
10
98.1999999999999886
20
-111.
11
98.1904329999999987
21
-110.9980970000000013
0
LINE
8
BLACK
6
CONTINUOUS
10
98.1904329999999987
20
-110.9980970000000013
11
98.1769029999999958
21
-110.9845669999999984
0
LINE
8
BLACK
6
CONTINUOUS
10
98.1769029999999958
20
-110.9845669999999984
11
98.1749999999999972
21
-110.9749999999999943
0
LINE
8
BLACK
6
CONTINUOUS
10
98.1749999999999972
20
-110.9749999999999943
11
98.1749999999999972
21
-96.5499999999999972
0
LINE
8
BLACK
6
CONTINUOUS
10
98.1749999999999972
20
-96.5499999999999972
11
98.1769029999999958
21
-96.5404329999999931
0
LINE
8
BLACK
6
CONTINUOUS
10
98.1769029999999958
20
-96.5404329999999931
11
98.1904329999999987
21
-96.5269029999999901
0
LINE
8
BLACK
6
CONTINUOUS
10
98.1904329999999987
20
-96.5269029999999901
11
98.1999999999999886
21
-96.5249999999999915
0
LINE
8
BLACK
6
CONTINUOUS
10
98.1999999999999886
20
-96.5249999999999915
11
109.4499999999999886
21
-96.5249999999999915
0
LINE
8
BLACK
6
CONTINUOUS
10
109.4499999999999886
20
-96.5249999999999915
11
109.4595669999999927
21
-96.5269029999999901
0
LINE
8
BLACK
6
CONTINUOUS
10
98.2249999999999943
20
-96.5749999999999886
11
98.2249999999999943
21
-110.9499999999999886
0
LINE
8
BLACK
6
CONTINUOUS
10
98.2249999999999943
20
-110.9499999999999886
11
109.4249999999999972
21
-110.9499999999999886
0
LINE
8
BLACK
6
CONTINUOUS
10
109.4249999999999972
20
-110.9499999999999886
11
109.4249999999999972
21
-96.5749999999999886
0
LINE
8
BLACK
6
CONTINUOUS
10
109.4249999999999972
20
-96.5749999999999886
11
98.2249999999999943
21
-96.5749999999999886
  0
ENDSEC
  0
EOF
