  0
SECTION
  2
HEADER
  9
$ANGBASE
  50
0.0
  9
$ANGDIR
  70
1
  9
$MEASUREMENT
  70
1
  0
ENDSEC
  0
SECTION
  2
TABLES
  0
TABLE
  2
LTYPE
  70
4
  0
LTYPE
  5
40F
  2
CONTINUOUS
  70
0
  3
Solid line
  72
65
  73
0
  40
0.0
  0
LTYPE
  5
410
  2
DASHDOT
 70
0
  3
Dash Dot ____ _ ____ _
 72
65
 73
4
 40
2.0
 49
1.25
 49
-0.25
 49
0.25
 49
-0.25
  0
LTYPE
  5
411
  2
DASHED
 70
0
  3
Dashed __ __ __ __ __
 72
65
 73
2
 40
0.75
 49
0.5
 49
-0.25
  0
LTYPE
  5
43B
  2
DOTTED
 70
0
  3
Dotted .  .  .  .
 72
65
 73
2
 40
0.2
 49
0.0
 49
-0.2
  0
ENDTAB
  0
TABLE
  2
STYLE
  70
4
  0
STYLE
  2
KICAD
  70
0
  40
0
  41
1
  42
1
  50
0
  71
0
  3
isocp.shx
  0
STYLE
  2
KICADB
  70
0
  40
0
  41
1
  42
1
  50
0
  71
0
  3
isocp.shx
  0
STYLE
  2
KICADI
  70
0
  40
0
  41
1
  42
1
  50
15
  71
0
  3
isocp.shx
  0
STYLE
  2
KICADBI
  70
0
  40
0
  41
1
  42
1
  50
15
  71
0
  3
isocp.shx
  0
ENDTAB
  0
TABLE
  2
LAYER
  70
1
  0
LAYER
  2
BLACK
  70
0
  62
7
  6
CONTINUOUS
  0
ENDTAB
  0
ENDSEC
  0
SECTION
  2
ENTITIES
0
LINE
8
BLACK
6
CONTINUOUS
10
109.4595669999999927
20
-96.5269029999999901
11
109.4730969999999957
21
-96.5404329999999931
0
LINE
8
BLACK
6
CONTINUOUS
10
109.4730969999999957
20
-96.5404329999999931
11
109.4749999999999943
21
-96.5499999999999972
0
LINE
8
BLACK
6
CONTINUOUS
10
109.4749999999999943
20
-96.5499999999999972
11
109.4749999999999943
21
-110.9749999999999943
0
LINE
8
BLACK
6
CONTINUOUS
10
109.4749999999999943
20
-110.9749999999999943
11
109.4730969999999957
21
-110.9845669999999984
0
LINE
8
BLACK
6
CONTINUOUS
10
109.4730969999999957
20
-110.9845669999999984
11
109.4595669999999927
21
-110.9980970000000013
0
LINE
8
BLACK
6
CONTINUOUS
10
109.4595669999999927
20
-110.9980970000000013
11
109.4499999999999886
21
-111.
0
LINE
8
BLACK
6
CONTINUOUS
10
109.4499999999999886
20
-111.
11
98.1999999999999886
21
-111.
0
LINE
8
BLACK
6
CONTINUOUS
10
98.1999999999999886
20
-111.
11
98.1904329999999987
21
-110.9980970000000013
0
LINE
8
BLACK
6
CONTINUOUS
10
98.1904329999999987
20
-110.9980970000000013
11
98.1769029999999958
21
-110.9845669999999984
0
LINE
8
BLACK
6
CONTINUOUS
10
98.1769029999999958
20
-110.9845669999999984
11
98.1749999999999972
21
-110.9749999999999943
0
LINE
8
BLACK
6
CONTINUOUS
10
98.1749999999999972
20
-110.9749999999999943
11
98.1749999999999972
21
-96.5499999999999972
0
LINE
8
BLACK
6
CONTINUOUS
10
98.1749999999999972
20
-96.5499999999999972
11
98.1769029999999958
21
-96.5404329999999931
0
LINE
8
BLACK
6
CONTINUOUS
10
98.1769029999999958
20
-96.5404329999999931
11
98.1904329999999987
21
-96.5269029999999901
0
LINE
8
BLACK
6
CONTINUOUS
10
98.1904329999999987
20
-96.5269029999999901
11
98.1999999999999886
21
-96.5249999999999915
0
LINE
8
BLACK
6
CONTINUOUS
10
98.1999999999999886
20
-96.5249999999999915
11
109.4499999999999886
21
-96.5249999999999915
0
LINE
8
BLACK
6
CONTINUOUS
10
109.4499999999999886
20
-96.5249999999999915
11
109.4595669999999927
21
-96.5269029999999901
0
LINE
8
BLACK
6
CONTINUOUS
10
98.2249999999999943
20
-96.5749999999999886
11
98.2249999999999943
21
-110.9499999999999886
0
LINE
8
BLACK
6
CONTINUOUS
10
98.2249999999999943
20
-110.9499999999999886
11
109.4249999999999972
21
-110.9499999999999886
0
LINE
8
BLACK
6
CONTINUOUS
10
109.4249999999999972
20
-110.9499999999999886
11
109.4249999999999972
21
-96.5749999999999886
0
LINE
8
BLACK
6
CONTINUOUS
10
109.4249999999999972
20
-96.5749999999999886
11
98.2249999999999943
21
-96.5749999999999886
  0
ENDSEC
  0
EOF
