  0
SECTION
  2
HEADER
  9
$ANGBASE
  50
0.0
  9
$ANGDIR
  70
1
  9
$MEASUREMENT
  70
1
  0
ENDSEC
  0
SECTION
  2
TABLES
  0
TABLE
  2
LTYPE
  70
4
  0
LTYPE
  5
40F
  2
CONTINUOUS
  70
0
  3
Solid line
  72
65
  73
0
  40
0.0
  0
LTYPE
  5
410
  2
DASHDOT
 70
0
  3
Dash Dot ____ _ ____ _
 72
65
 73
4
 40
2.0
 49
1.25
 49
-0.25
 49
0.25
 49
-0.25
  0
LTYPE
  5
411
  2
DASHED
 70
0
  3
Dashed __ __ __ __ __
 72
65
 73
2
 40
0.75
 49
0.5
 49
-0.25
  0
LTYPE
  5
43B
  2
DOTTED
 70
0
  3
Dotted .  .  .  .
 72
65
 73
2
 40
0.2
 49
0.0
 49
-0.2
  0
ENDTAB
  0
TABLE
  2
STYLE
  70
4
  0
STYLE
  2
KICAD
  70
0
  40
0
  41
1
  42
1
  50
0
  71
0
  3
isocp.shx
  0
STYLE
  2
KICADB
  70
0
  40
0
  41
1
  42
1
  50
0
  71
0
  3
isocp.shx
  0
STYLE
  2
KICADI
  70
0
  40
0
  41
1
  42
1
  50
15
  71
0
  3
isocp.shx
  0
STYLE
  2
KICADBI
  70
0
  40
0
  41
1
  42
1
  50
15
  71
0
  3
isocp.shx
  0
ENDTAB
  0
TABLE
  2
LAYER
  70
1
  0
LAYER
  2
BLACK
  70
0
  62
7
  6
CONTINUOUS
  0
ENDTAB
  0
ENDSEC
  0
SECTION
  2
ENTITIES
0
LINE
8
BLACK
6
CONTINUOUS
10
135.6956710000000044
20
-67.9690300000000036
11
135.7767769999999814
21
-68.0232230000000015
0
LINE
8
BLACK
6
CONTINUOUS
10
135.7767769999999814
20
-68.0232230000000015
11
135.8309700000000078
21
-68.1043289999999928
0
LINE
8
BLACK
6
CONTINUOUS
10
135.8309700000000078
20
-68.1043289999999928
11
135.8499999999999943
21
-68.2000000000000028
0
LINE
8
BLACK
6
CONTINUOUS
10
135.8499999999999943
20
-68.2000000000000028
11
135.8499999999999943
21
-69.3999999999999915
0
LINE
8
BLACK
6
CONTINUOUS
10
135.8499999999999943
20
-69.3999999999999915
11
135.8309700000000078
21
-69.4956710000000015
0
LINE
8
BLACK
6
CONTINUOUS
10
135.8309700000000078
20
-69.4956710000000015
11
135.7767769999999814
21
-69.5767769999999928
0
LINE
8
BLACK
6
CONTINUOUS
10
135.7767769999999814
20
-69.5767769999999928
11
135.6956710000000044
21
-69.6309699999999907
0
LINE
8
BLACK
6
CONTINUOUS
10
135.6956710000000044
20
-69.6309699999999907
11
135.5999999999999943
21
-69.6499999999999915
0
LINE
8
BLACK
6
CONTINUOUS
10
135.5999999999999943
20
-69.6499999999999915
11
134.5742639999999994
21
-69.6499999999999915
0
LINE
8
BLACK
6
CONTINUOUS
10
134.5742639999999994
20
-69.6499999999999915
11
134.0999999999999943
21
-70.1242639999999966
0
LINE
8
BLACK
6
CONTINUOUS
10
134.0999999999999943
20
-70.1242639999999966
11
134.0999999999999943
21
-70.75
0
LINE
8
BLACK
6
CONTINUOUS
10
134.0999999999999943
20
-70.75
11
134.4000000000000057
21
-70.75
0
LINE
8
BLACK
6
CONTINUOUS
10
134.4000000000000057
20
-70.75
11
134.4956709999999873
21
-70.7690300000000008
0
LINE
8
BLACK
6
CONTINUOUS
10
134.4956709999999873
20
-70.7690300000000008
11
134.5767769999999928
21
-70.8232229999999987
0
LINE
8
BLACK
6
CONTINUOUS
10
134.5767769999999928
20
-70.8232229999999987
11
134.6309699999999907
21
-70.9043289999999899
0
LINE
8
BLACK
6
CONTINUOUS
10
134.6309699999999907
20
-70.9043289999999899
11
134.6500000000000057
21
-71.
0
LINE
8
BLACK
6
CONTINUOUS
10
134.6500000000000057
20
-71.
11
134.6500000000000057
21
-72.2000000000000028
0
LINE
8
BLACK
6
CONTINUOUS
10
134.6500000000000057
20
-72.2000000000000028
11
134.6309699999999907
21
-72.2956709999999987
0
LINE
8
BLACK
6
CONTINUOUS
10
134.6309699999999907
20
-72.2956709999999987
11
134.5767769999999928
21
-72.3767769999999899
0
LINE
8
BLACK
6
CONTINUOUS
10
134.5767769999999928
20
-72.3767769999999899
11
134.4956709999999873
21
-72.4309700000000021
0
LINE
8
BLACK
6
CONTINUOUS
10
134.4956709999999873
20
-72.4309700000000021
11
134.4000000000000057
21
-72.4500000000000028
0
LINE
8
BLACK
6
CONTINUOUS
10
134.4000000000000057
20
-72.4500000000000028
11
133.9849999999999852
21
-72.4500000000000028
0
LINE
8
BLACK
6
CONTINUOUS
10
133.9849999999999852
20
-72.4500000000000028
11
133.9849999999999852
21
-73.4240309999999994
0
LINE
8
BLACK
6
CONTINUOUS
10
133.9849999999999852
20
-73.4240309999999994
11
134.0122279999999932
21
-73.4294479999999936
0
LINE
8
BLACK
6
CONTINUOUS
10
134.0122279999999932
20
-73.4294479999999936
11
134.1571169999999995
21
-73.4894630000000006
0
LINE
8
BLACK
6
CONTINUOUS
10
134.1571169999999995
20
-73.4894630000000006
11
134.2875149999999849
21
-73.5765919999999909
0
LINE
8
BLACK
6
CONTINUOUS
10
134.2875149999999849
20
-73.5765919999999909
11
134.3984079999999892
21
-73.6874849999999952
0
LINE
8
BLACK
6
CONTINUOUS
10
134.3984079999999892
20
-73.6874849999999952
11
134.4855369999999937
21
-73.8178829999999948
0
LINE
8
BLACK
6
CONTINUOUS
10
134.4855369999999937
20
-73.8178829999999948
11
134.5455519999999865
21
-73.9627720000000011
0
LINE
8
BLACK
6
CONTINUOUS
10
134.5455519999999865
20
-73.9627720000000011
11
134.5761479999999892
21
-74.1165859999999981
0
LINE
8
BLACK
6
CONTINUOUS
10
134.5761479999999892
20
-74.1165859999999981
11
134.5761479999999892
21
-74.2734140000000025
0
LINE
8
BLACK
6
CONTINUOUS
10
134.5761479999999892
20
-74.2734140000000025
11
134.5455519999999865
21
-74.4272279999999995
0
LINE
8
BLACK
6
CONTINUOUS
10
134.5455519999999865
20
-74.4272279999999995
11
134.4855369999999937
21
-74.5721169999999915
0
LINE
8
BLACK
6
CONTINUOUS
10
134.4855369999999937
20
-74.5721169999999915
11
134.3984079999999892
21
-74.7025149999999911
0
LINE
8
BLACK
6
CONTINUOUS
10
134.3984079999999892
20
-74.7025149999999911
11
134.2875149999999849
21
-74.8134079999999955
0
LINE
8
BLACK
6
CONTINUOUS
10
134.2875149999999849
20
-74.8134079999999955
11
134.1571169999999995
21
-74.9005369999999999
0
LINE
8
BLACK
6
CONTINUOUS
10
134.1571169999999995
20
-74.9005369999999999
11
134.0122279999999932
21
-74.9605519999999927
0
LINE
8
BLACK
6
CONTINUOUS
10
134.0122279999999932
20
-74.9605519999999927
11
133.858413999999982
21
-74.9911479999999955
0
LINE
8
BLACK
6
CONTINUOUS
10
133.858413999999982
20
-74.9911479999999955
11
133.7015859999999918
21
-74.9911479999999955
0
LINE
8
BLACK
6
CONTINUOUS
10
133.7015859999999918
20
-74.9911479999999955
11
133.5477719999999806
21
-74.9605519999999927
0
LINE
8
BLACK
6
CONTINUOUS
10
133.5477719999999806
20
-74.9605519999999927
11
133.4028830000000028
21
-74.9005369999999999
0
LINE
8
BLACK
6
CONTINUOUS
10
133.4028830000000028
20
-74.9005369999999999
11
133.3543669999999963
21
-74.8681199999999905
0
LINE
8
BLACK
6
CONTINUOUS
10
133.3543669999999963
20
-74.8681199999999905
11
132.7539999999999907
21
-75.4684879999999936
0
LINE
8
BLACK
6
CONTINUOUS
10
132.7539999999999907
20
-75.4684879999999936
11
132.7539999999999907
21
-83.1418680000000023
0
LINE
8
BLACK
6
CONTINUOUS
10
132.7539999999999907
20
-83.1418680000000023
11
133.1684139999999843
21
-83.5562819999999959
0
LINE
8
BLACK
6
CONTINUOUS
10
133.1684139999999843
20
-83.5562819999999959
11
133.1999999999999886
21
-83.5499999999999972
0
LINE
8
BLACK
6
CONTINUOUS
10
133.1999999999999886
20
-83.5499999999999972
11
134.4000000000000057
21
-83.5499999999999972
0
LINE
8
BLACK
6
CONTINUOUS
10
134.4000000000000057
20
-83.5499999999999972
11
134.4956709999999873
21
-83.5690299999999979
0
LINE
8
BLACK
6
CONTINUOUS
10
134.4956709999999873
20
-83.5690299999999979
11
134.5767769999999928
21
-83.6232229999999959
0
LINE
8
BLACK
6
CONTINUOUS
10
134.5767769999999928
20
-83.6232229999999959
11
134.6309699999999907
21
-83.7043290000000013
0
LINE
8
BLACK
6
CONTINUOUS
10
134.6309699999999907
20
-83.7043290000000013
11
134.6500000000000057
21
-83.7999999999999972
0
LINE
8
BLACK
6
CONTINUOUS
10
134.6500000000000057
20
-83.7999999999999972
11
134.6500000000000057
21
-85.
0
LINE
8
BLACK
6
CONTINUOUS
10
134.6500000000000057
20
-85.
11
134.6309699999999907
21
-85.0956709999999958
0
LINE
8
BLACK
6
CONTINUOUS
10
134.6309699999999907
20
-85.0956709999999958
11
134.5767769999999928
21
-85.1767770000000013
0
LINE
8
BLACK
6
CONTINUOUS
10
134.5767769999999928
20
-85.1767770000000013
11
134.4956709999999873
21
-85.2309699999999992
0
LINE
8
BLACK
6
CONTINUOUS
10
134.4956709999999873
20
-85.2309699999999992
11
134.4000000000000057
21
-85.25
0
LINE
8
BLACK
6
CONTINUOUS
10
134.4000000000000057
20
-85.25
11
133.1999999999999886
21
-85.25
0
LINE
8
BLACK
6
CONTINUOUS
10
133.1999999999999886
20
-85.25
11
133.104329000000007
21
-85.2309699999999992
0
LINE
8
BLACK
6
CONTINUOUS
10
133.104329000000007
20
-85.2309699999999992
11
133.0232230000000015
21
-85.1767770000000013
0
LINE
8
BLACK
6
CONTINUOUS
10
133.0232230000000015
20
-85.1767770000000013
11
132.9690300000000036
21
-85.0956709999999958
0
LINE
8
BLACK
6
CONTINUOUS
10
132.9690300000000036
20
-85.0956709999999958
11
132.9499999999999886
21
-85.
0
LINE
8
BLACK
6
CONTINUOUS
10
132.9499999999999886
20
-85.
11
132.9499999999999886
21
-83.7999999999999972
0
LINE
8
BLACK
6
CONTINUOUS
10
132.9499999999999886
20
-83.7999999999999972
11
132.9562819999999874
21
-83.7684139999999928
0
LINE
8
BLACK
6
CONTINUOUS
10
132.9562819999999874
20
-83.7684139999999928
11
132.4979339999999866
21
-83.310065999999992
0
LINE
8
BLACK
6
CONTINUOUS
10
132.4979339999999866
20
-83.310065999999992
11
132.4792789999999911
21
-83.2873349999999988
0
LINE
8
BLACK
6
CONTINUOUS
10
132.4792789999999911
20
-83.2873349999999988
11
132.4568820000000073
21
-83.2332629999999938
0
LINE
8
BLACK
6
CONTINUOUS
10
132.4568820000000073
20
-83.2332629999999938
11
132.4540000000000077
21
-83.2039999999999935
0
LINE
8
BLACK
6
CONTINUOUS
10
132.4540000000000077
20
-83.2039999999999935
11
132.4540000000000077
21
-75.4573769999999939
0
LINE
8
BLACK
6
CONTINUOUS
10
132.4540000000000077
20
-75.4573769999999939
11
132.432362999999981
21
-75.4051410000000004
0
LINE
8
BLACK
6
CONTINUOUS
10
132.432362999999981
20
-75.4051410000000004
11
132.432362999999981
21
-75.3368589999999898
0
LINE
8
BLACK
6
CONTINUOUS
10
132.432362999999981
20
-75.3368589999999898
11
132.4584930000000043
21
-75.273775999999998
0
LINE
8
BLACK
6
CONTINUOUS
10
132.4584930000000043
20
-75.273775999999998
11
132.4802559999999971
21
-75.247255999999993
0
LINE
8
BLACK
6
CONTINUOUS
10
132.4802559999999971
20
-75.247255999999993
11
133.1068789999999922
21
-74.6206320000000005
0
LINE
8
BLACK
6
CONTINUOUS
10
133.1068789999999922
20
-74.6206320000000005
11
133.0744629999999802
21
-74.5721169999999915
0
LINE
8
BLACK
6
CONTINUOUS
10
133.0744629999999802
20
-74.5721169999999915
11
133.0144479999999874
21
-74.4272279999999995
0
LINE
8
BLACK
6
CONTINUOUS
10
133.0144479999999874
20
-74.4272279999999995
11
132.9838519999999846
21
-74.2734140000000025
0
LINE
8
BLACK
6
CONTINUOUS
10
132.9838519999999846
20
-74.2734140000000025
11
132.9838519999999846
21
-74.1165859999999981
0
LINE
8
BLACK
6
CONTINUOUS
10
132.9838519999999846
20
-74.1165859999999981
11
133.0144479999999874
21
-73.9627720000000011
0
LINE
8
BLACK
6
CONTINUOUS
10
133.0144479999999874
20
-73.9627720000000011
11
133.0744629999999802
21
-73.8178829999999948
0
LINE
8
BLACK
6
CONTINUOUS
10
133.0744629999999802
20
-73.8178829999999948
11
133.1615919999999846
21
-73.6874849999999952
0
LINE
8
BLACK
6
CONTINUOUS
10
133.1615919999999846
20
-73.6874849999999952
11
133.272484999999989
21
-73.5765919999999909
0
LINE
8
BLACK
6
CONTINUOUS
10
133.272484999999989
20
-73.5765919999999909
11
133.3849999999999909
21
-73.501412000000002
0
LINE
8
BLACK
6
CONTINUOUS
10
133.3849999999999909
20
-73.501412000000002
11
133.3849999999999909
21
-72.4500000000000028
0
LINE
8
BLACK
6
CONTINUOUS
10
133.3849999999999909
20
-72.4500000000000028
11
133.1999999999999886
21
-72.4500000000000028
0
LINE
8
BLACK
6
CONTINUOUS
10
133.1999999999999886
20
-72.4500000000000028
11
133.104329000000007
21
-72.4309700000000021
0
LINE
8
BLACK
6
CONTINUOUS
10
133.104329000000007
20
-72.4309700000000021
11
133.0232230000000015
21
-72.3767769999999899
0
LINE
8
BLACK
6
CONTINUOUS
10
133.0232230000000015
20
-72.3767769999999899
11
132.9690300000000036
21
-72.2956709999999987
0
LINE
8
BLACK
6
CONTINUOUS
10
132.9690300000000036
20
-72.2956709999999987
11
132.9499999999999886
21
-72.2000000000000028
0
LINE
8
BLACK
6
CONTINUOUS
10
132.9499999999999886
20
-72.2000000000000028
11
132.9499999999999886
21
-71.
0
LINE
8
BLACK
6
CONTINUOUS
10
132.9499999999999886
20
-71.
11
132.9690300000000036
21
-70.9043289999999899
0
LINE
8
BLACK
6
CONTINUOUS
10
132.9690300000000036
20
-70.9043289999999899
11
133.0232230000000015
21
-70.8232229999999987
0
LINE
8
BLACK
6
CONTINUOUS
10
133.0232230000000015
20
-70.8232229999999987
11
133.104329000000007
21
-70.7690300000000008
0
LINE
8
BLACK
6
CONTINUOUS
10
133.104329000000007
20
-70.7690300000000008
11
133.1999999999999886
21
-70.75
0
LINE
8
BLACK
6
CONTINUOUS
10
133.1999999999999886
20
-70.75
11
133.5
21
-70.75
0
LINE
8
BLACK
6
CONTINUOUS
10
133.5
20
-70.75
11
133.5
21
-70.
0
LINE
8
BLACK
6
CONTINUOUS
10
133.5
20
-70.
11
133.5025669999999991
21
-69.9608419999999995
0
LINE
8
BLACK
6
CONTINUOUS
10
133.5025669999999991
20
-69.9608419999999995
11
133.5228359999999839
21
-69.885194999999996
0
LINE
8
BLACK
6
CONTINUOUS
10
133.5228359999999839
20
-69.885194999999996
11
133.5619939999999986
21
-69.8173719999999918
0
LINE
8
BLACK
6
CONTINUOUS
10
133.5619939999999986
20
-69.8173719999999918
11
133.5878679999999861
21
-69.7878680000000031
0
LINE
8
BLACK
6
CONTINUOUS
10
133.5878679999999861
20
-69.7878680000000031
11
134.1500000000000057
21
-69.2257359999999977
0
LINE
8
BLACK
6
CONTINUOUS
10
134.1500000000000057
20
-69.2257359999999977
11
134.1500000000000057
21
-68.2000000000000028
0
LINE
8
BLACK
6
CONTINUOUS
10
134.1500000000000057
20
-68.2000000000000028
11
134.1690299999999922
21
-68.1043289999999928
0
LINE
8
BLACK
6
CONTINUOUS
10
134.1690299999999922
20
-68.1043289999999928
11
134.2232229999999902
21
-68.0232230000000015
0
LINE
8
BLACK
6
CONTINUOUS
10
134.2232229999999902
20
-68.0232230000000015
11
134.3043289999999956
21
-67.9690300000000036
0
LINE
8
BLACK
6
CONTINUOUS
10
134.3043289999999956
20
-67.9690300000000036
11
134.4000000000000057
21
-67.9500000000000028
0
LINE
8
BLACK
6
CONTINUOUS
10
134.4000000000000057
20
-67.9500000000000028
11
135.5999999999999943
21
-67.9500000000000028
0
LINE
8
BLACK
6
CONTINUOUS
10
135.5999999999999943
20
-67.9500000000000028
11
135.6956710000000044
21
-67.9690300000000036
0
LINE
8
BLACK
6
CONTINUOUS
10
134.0122279999999932
20
-81.0494479999999982
11
134.1571169999999995
21
-81.109462999999991
0
LINE
8
BLACK
6
CONTINUOUS
10
134.1571169999999995
20
-81.109462999999991
11
134.2875149999999849
21
-81.1965919999999954
0
LINE
8
BLACK
6
CONTINUOUS
10
134.2875149999999849
20
-81.1965919999999954
11
134.3984079999999892
21
-81.3074849999999998
0
LINE
8
BLACK
6
CONTINUOUS
10
134.3984079999999892
20
-81.3074849999999998
11
134.4855369999999937
21
-81.4378829999999994
0
LINE
8
BLACK
6
CONTINUOUS
10
134.4855369999999937
20
-81.4378829999999994
11
134.5455519999999865
21
-81.5827719999999914
0
LINE
8
BLACK
6
CONTINUOUS
10
134.5455519999999865
20
-81.5827719999999914
11
134.5761479999999892
21
-81.7365860000000026
0
LINE
8
BLACK
6
CONTINUOUS
10
134.5761479999999892
20
-81.7365860000000026
11
134.5761479999999892
21
-81.7518839999999898
0
LINE
8
BLACK
6
CONTINUOUS
10
134.5761479999999892
20
-81.7518839999999898
11
136.3742639999999824
21
-83.5499999999999972
0
LINE
8
BLACK
6
CONTINUOUS
10
136.3742639999999824
20
-83.5499999999999972
11
137.1999999999999886
21
-83.5499999999999972
0
LINE
8
BLACK
6
CONTINUOUS
10
137.1999999999999886
20
-83.5499999999999972
11
137.2956709999999987
21
-83.5690299999999979
0
LINE
8
BLACK
6
CONTINUOUS
10
137.2956709999999987
20
-83.5690299999999979
11
137.3767770000000041
21
-83.6232229999999959
0
LINE
8
BLACK
6
CONTINUOUS
10
137.3767770000000041
20
-83.6232229999999959
11
137.4309700000000021
21
-83.7043290000000013
0
LINE
8
BLACK
6
CONTINUOUS
10
137.4309700000000021
20
-83.7043290000000013
11
137.4499999999999886
21
-83.7999999999999972
0
LINE
8
BLACK
6
CONTINUOUS
10
137.4499999999999886
20
-83.7999999999999972
11
137.4499999999999886
21
-85.
0
LINE
8
BLACK
6
CONTINUOUS
10
137.4499999999999886
20
-85.
11
137.4309700000000021
21
-85.0956709999999958
0
LINE
8
BLACK
6
CONTINUOUS
10
137.4309700000000021
20
-85.0956709999999958
11
137.3767770000000041
21
-85.1767770000000013
0
LINE
8
BLACK
6
CONTINUOUS
10
137.3767770000000041
20
-85.1767770000000013
11
137.2956709999999987
21
-85.2309699999999992
0
LINE
8
BLACK
6
CONTINUOUS
10
137.2956709999999987
20
-85.2309699999999992
11
137.1999999999999886
21
-85.25
0
LINE
8
BLACK
6
CONTINUOUS
10
137.1999999999999886
20
-85.25
11
136.
21
-85.25
0
LINE
8
BLACK
6
CONTINUOUS
10
136.
20
-85.25
11
135.9043289999999899
21
-85.2309699999999992
0
LINE
8
BLACK
6
CONTINUOUS
10
135.9043289999999899
20
-85.2309699999999992
11
135.8232229999999845
21
-85.1767770000000013
0
LINE
8
BLACK
6
CONTINUOUS
10
135.8232229999999845
20
-85.1767770000000013
11
135.7690299999999866
21
-85.0956709999999958
0
LINE
8
BLACK
6
CONTINUOUS
10
135.7690299999999866
20
-85.0956709999999958
11
135.75
21
-85.
0
LINE
8
BLACK
6
CONTINUOUS
10
135.75
20
-85.
11
135.75
21
-83.7999999999999972
0
LINE
8
BLACK
6
CONTINUOUS
10
135.75
20
-83.7999999999999972
11
135.7542689999999936
21
-83.7785329999999959
0
LINE
8
BLACK
6
CONTINUOUS
10
135.7542689999999936
20
-83.7785329999999959
11
134.3483290000000068
21
-82.3725929999999948
0
LINE
8
BLACK
6
CONTINUOUS
10
134.3483290000000068
20
-82.3725929999999948
11
134.2875149999999849
21
-82.433408
0
LINE
8
BLACK
6
CONTINUOUS
10
134.2875149999999849
20
-82.433408
11
134.1571169999999995
21
-82.5205369999999903
0
LINE
8
BLACK
6
CONTINUOUS
10
134.1571169999999995
20
-82.5205369999999903
11
134.0122279999999932
21
-82.5805519999999973
0
LINE
8
BLACK
6
CONTINUOUS
10
134.0122279999999932
20
-82.5805519999999973
11
133.858413999999982
21
-82.611148
0
LINE
8
BLACK
6
CONTINUOUS
10
133.858413999999982
20
-82.611148
11
133.7015859999999918
21
-82.611148
0
LINE
8
BLACK
6
CONTINUOUS
10
133.7015859999999918
20
-82.611148
11
133.5477719999999806
21
-82.5805519999999973
0
LINE
8
BLACK
6
CONTINUOUS
10
133.5477719999999806
20
-82.5805519999999973
11
133.4028830000000028
21
-82.5205369999999903
0
LINE
8
BLACK
6
CONTINUOUS
10
133.4028830000000028
20
-82.5205369999999903
11
133.272484999999989
21
-82.433408
0
LINE
8
BLACK
6
CONTINUOUS
10
133.272484999999989
20
-82.433408
11
133.1615919999999846
21
-82.3225149999999957
0
LINE
8
BLACK
6
CONTINUOUS
10
133.1615919999999846
20
-82.3225149999999957
11
133.0744629999999802
21
-82.1921169999999961
0
LINE
8
BLACK
6
CONTINUOUS
10
133.0744629999999802
20
-82.1921169999999961
11
133.0144479999999874
21
-82.0472279999999898
0
LINE
8
BLACK
6
CONTINUOUS
10
133.0144479999999874
20
-82.0472279999999898
11
132.9838519999999846
21
-81.8934139999999928
0
LINE
8
BLACK
6
CONTINUOUS
10
132.9838519999999846
20
-81.8934139999999928
11
132.9838519999999846
21
-81.7365860000000026
0
LINE
8
BLACK
6
CONTINUOUS
10
132.9838519999999846
20
-81.7365860000000026
11
133.0144479999999874
21
-81.5827719999999914
0
LINE
8
BLACK
6
CONTINUOUS
10
133.0144479999999874
20
-81.5827719999999914
11
133.0744629999999802
21
-81.4378829999999994
0
LINE
8
BLACK
6
CONTINUOUS
10
133.0744629999999802
20
-81.4378829999999994
11
133.1615919999999846
21
-81.3074849999999998
0
LINE
8
BLACK
6
CONTINUOUS
10
133.1615919999999846
20
-81.3074849999999998
11
133.272484999999989
21
-81.1965919999999954
0
LINE
8
BLACK
6
CONTINUOUS
10
133.272484999999989
20
-81.1965919999999954
11
133.4028830000000028
21
-81.109462999999991
0
LINE
8
BLACK
6
CONTINUOUS
10
133.4028830000000028
20
-81.109462999999991
11
133.5477719999999806
21
-81.0494479999999982
0
LINE
8
BLACK
6
CONTINUOUS
10
133.5477719999999806
20
-81.0494479999999982
11
133.7015859999999918
21
-81.0188519999999954
0
LINE
8
BLACK
6
CONTINUOUS
10
133.7015859999999918
20
-81.0188519999999954
11
133.858413999999982
21
-81.0188519999999954
0
LINE
8
BLACK
6
CONTINUOUS
10
133.858413999999982
20
-81.0188519999999954
11
134.0122279999999932
21
-81.0494479999999982
0
LINE
8
BLACK
6
CONTINUOUS
10
136.5522279999999853
20
-81.0494479999999982
11
136.6971169999999915
21
-81.109462999999991
0
LINE
8
BLACK
6
CONTINUOUS
10
136.6971169999999915
20
-81.109462999999991
11
136.8275150000000053
21
-81.1965919999999954
0
LINE
8
BLACK
6
CONTINUOUS
10
136.8275150000000053
20
-81.1965919999999954
11
136.9384079999999813
21
-81.3074849999999998
0
LINE
8
BLACK
6
CONTINUOUS
10
136.9384079999999813
20
-81.3074849999999998
11
137.0255369999999857
21
-81.4378829999999994
0
LINE
8
BLACK
6
CONTINUOUS
10
137.0255369999999857
20
-81.4378829999999994
11
137.085552000000007
21
-81.5827719999999914
0
LINE
8
BLACK
6
CONTINUOUS
10
137.085552000000007
20
-81.5827719999999914
11
137.1050479999999823
21
-81.6807840000000027
0
LINE
8
BLACK
6
CONTINUOUS
10
137.1050479999999823
20
-81.6807840000000027
11
138.9742640000000051
21
-83.5499999999999972
0
LINE
8
BLACK
6
CONTINUOUS
10
138.9742640000000051
20
-83.5499999999999972
11
140.
21
-83.5499999999999972
0
LINE
8
BLACK
6
CONTINUOUS
10
140.
20
-83.5499999999999972
11
140.0956709999999816
21
-83.5690299999999979
0
LINE
8
BLACK
6
CONTINUOUS
10
140.0956709999999816
20
-83.5690299999999979
11
140.1767769999999871
21
-83.6232229999999959
0
LINE
8
BLACK
6
CONTINUOUS
10
140.1767769999999871
20
-83.6232229999999959
11
140.230969999999985
21
-83.7043290000000013
0
LINE
8
BLACK
6
CONTINUOUS
10
140.230969999999985
20
-83.7043290000000013
11
140.25
21
-83.7999999999999972
0
LINE
8
BLACK
6
CONTINUOUS
10
140.25
20
-83.7999999999999972
11
140.25
21
-85.
0
LINE
8
BLACK
6
CONTINUOUS
10
140.25
20
-85.
11
140.230969999999985
21
-85.0956709999999958
0
LINE
8
BLACK
6
CONTINUOUS
10
140.230969999999985
20
-85.0956709999999958
11
140.1767769999999871
21
-85.1767770000000013
0
LINE
8
BLACK
6
CONTINUOUS
10
140.1767769999999871
20
-85.1767770000000013
11
140.0956709999999816
21
-85.2309699999999992
0
LINE
8
BLACK
6
CONTINUOUS
10
140.0956709999999816
20
-85.2309699999999992
11
140.
21
-85.25
0
LINE
8
BLACK
6
CONTINUOUS
10
140.
20
-85.25
11
138.7999999999999829
21
-85.25
0
LINE
8
BLACK
6
CONTINUOUS
10
138.7999999999999829
20
-85.25
11
138.7043290000000013
21
-85.2309699999999992
0
LINE
8
BLACK
6
CONTINUOUS
10
138.7043290000000013
20
-85.2309699999999992
11
138.6232229999999959
21
-85.1767770000000013
0
LINE
8
BLACK
6
CONTINUOUS
10
138.6232229999999959
20
-85.1767770000000013
11
138.5690299999999979
21
-85.0956709999999958
0
LINE
8
BLACK
6
CONTINUOUS
10
138.5690299999999979
20
-85.0956709999999958
11
138.5499999999999829
21
-85.
0
LINE
8
BLACK
6
CONTINUOUS
10
138.5499999999999829
20
-85.
11
138.5499999999999829
21
-83.9742639999999909
0
LINE
8
BLACK
6
CONTINUOUS
10
138.5499999999999829
20
-83.9742639999999909
11
136.918329
21
-82.3425929999999937
0
LINE
8
BLACK
6
CONTINUOUS
10
136.918329
20
-82.3425929999999937
11
136.8275150000000053
21
-82.433408
0
LINE
8
BLACK
6
CONTINUOUS
10
136.8275150000000053
20
-82.433408
11
136.6971169999999915
21
-82.5205369999999903
0
LINE
8
BLACK
6
CONTINUOUS
10
136.6971169999999915
20
-82.5205369999999903
11
136.5522279999999853
21
-82.5805519999999973
0
LINE
8
BLACK
6
CONTINUOUS
10
136.5522279999999853
20
-82.5805519999999973
11
136.3984140000000025
21
-82.611148
0
LINE
8
BLACK
6
CONTINUOUS
10
136.3984140000000025
20
-82.611148
11
136.2415859999999839
21
-82.611148
0
LINE
8
BLACK
6
CONTINUOUS
10
136.2415859999999839
20
-82.611148
11
136.0877720000000011
21
-82.5805519999999973
0
LINE
8
BLACK
6
CONTINUOUS
10
136.0877720000000011
20
-82.5805519999999973
11
135.9428829999999948
21
-82.5205369999999903
0
LINE
8
BLACK
6
CONTINUOUS
10
135.9428829999999948
20
-82.5205369999999903
11
135.812484999999981
21
-82.433408
0
LINE
8
BLACK
6
CONTINUOUS
10
135.812484999999981
20
-82.433408
11
135.7015920000000051
21
-82.3225149999999957
0
LINE
8
BLACK
6
CONTINUOUS
10
135.7015920000000051
20
-82.3225149999999957
11
135.6144630000000006
21
-82.1921169999999961
0
LINE
8
BLACK
6
CONTINUOUS
10
135.6144630000000006
20
-82.1921169999999961
11
135.5544480000000078
21
-82.0472279999999898
0
LINE
8
BLACK
6
CONTINUOUS
10
135.5544480000000078
20
-82.0472279999999898
11
135.5238520000000051
21
-81.8934139999999928
0
LINE
8
BLACK
6
CONTINUOUS
10
135.5238520000000051
20
-81.8934139999999928
11
135.5238520000000051
21
-81.7365860000000026
0
LINE
8
BLACK
6
CONTINUOUS
10
135.5238520000000051
20
-81.7365860000000026
11
135.5544480000000078
21
-81.5827719999999914
0
LINE
8
BLACK
6
CONTINUOUS
10
135.5544480000000078
20
-81.5827719999999914
11
135.6144630000000006
21
-81.4378829999999994
0
LINE
8
BLACK
6
CONTINUOUS
10
135.6144630000000006
20
-81.4378829999999994
11
135.7015920000000051
21
-81.3074849999999998
0
LINE
8
BLACK
6
CONTINUOUS
10
135.7015920000000051
20
-81.3074849999999998
11
135.812484999999981
21
-81.1965919999999954
0
LINE
8
BLACK
6
CONTINUOUS
10
135.812484999999981
20
-81.1965919999999954
11
135.9428829999999948
21
-81.109462999999991
0
LINE
8
BLACK
6
CONTINUOUS
10
135.9428829999999948
20
-81.109462999999991
11
136.0877720000000011
21
-81.0494479999999982
0
LINE
8
BLACK
6
CONTINUOUS
10
136.0877720000000011
20
-81.0494479999999982
11
136.2415859999999839
21
-81.0188519999999954
0
LINE
8
BLACK
6
CONTINUOUS
10
136.2415859999999839
20
-81.0188519999999954
11
136.3984140000000025
21
-81.0188519999999954
0
LINE
8
BLACK
6
CONTINUOUS
10
136.3984140000000025
20
-81.0188519999999954
11
136.5522279999999853
21
-81.0494479999999982
0
LINE
8
BLACK
6
CONTINUOUS
10
141.2956709999999987
20
-67.9690300000000036
11
141.3767770000000041
21
-68.0232230000000015
0
LINE
8
BLACK
6
CONTINUOUS
10
141.3767770000000041
20
-68.0232230000000015
11
141.4309700000000021
21
-68.1043289999999928
0
LINE
8
BLACK
6
CONTINUOUS
10
141.4309700000000021
20
-68.1043289999999928
11
141.4499999999999886
21
-68.2000000000000028
0
LINE
8
BLACK
6
CONTINUOUS
10
141.4499999999999886
20
-68.2000000000000028
11
141.4499999999999886
21
-69.3999999999999915
0
LINE
8
BLACK
6
CONTINUOUS
10
141.4499999999999886
20
-69.3999999999999915
11
141.4309700000000021
21
-69.4956710000000015
0
LINE
8
BLACK
6
CONTINUOUS
10
141.4309700000000021
20
-69.4956710000000015
11
141.3767770000000041
21
-69.5767769999999928
0
LINE
8
BLACK
6
CONTINUOUS
10
141.3767770000000041
20
-69.5767769999999928
11
141.2956709999999987
21
-69.6309699999999907
0
LINE
8
BLACK
6
CONTINUOUS
10
141.2956709999999987
20
-69.6309699999999907
11
141.1999999999999886
21
-69.6499999999999915
0
LINE
8
BLACK
6
CONTINUOUS
10
141.1999999999999886
20
-69.6499999999999915
11
140.9000000000000057
21
-69.6499999999999915
0
LINE
8
BLACK
6
CONTINUOUS
10
140.9000000000000057
20
-69.6499999999999915
11
140.9000000000000057
21
-70.075735999999992
0
LINE
8
BLACK
6
CONTINUOUS
10
140.9000000000000057
20
-70.075735999999992
11
141.5742639999999994
21
-70.75
0
LINE
8
BLACK
6
CONTINUOUS
10
141.5742639999999994
20
-70.75
11
142.5999999999999943
21
-70.75
0
LINE
8
BLACK
6
CONTINUOUS
10
142.5999999999999943
20
-70.75
11
142.6956710000000044
21
-70.7690300000000008
0
LINE
8
BLACK
6
CONTINUOUS
10
142.6956710000000044
20
-70.7690300000000008
11
142.7767769999999814
21
-70.8232229999999987
0
LINE
8
BLACK
6
CONTINUOUS
10
142.7767769999999814
20
-70.8232229999999987
11
142.8309699999999793
21
-70.9043289999999899
0
LINE
8
BLACK
6
CONTINUOUS
10
142.8309699999999793
20
-70.9043289999999899
11
142.8499999999999943
21
-71.
0
LINE
8
BLACK
6
CONTINUOUS
10
142.8499999999999943
20
-71.
11
142.8499999999999943
21
-72.2000000000000028
0
LINE
8
BLACK
6
CONTINUOUS
10
142.8499999999999943
20
-72.2000000000000028
11
142.8309699999999793
21
-72.2956709999999987
0
LINE
8
BLACK
6
CONTINUOUS
10
142.8309699999999793
20
-72.2956709999999987
11
142.7767769999999814
21
-72.3767769999999899
0
LINE
8
BLACK
6
CONTINUOUS
10
142.7767769999999814
20
-72.3767769999999899
11
142.6956710000000044
21
-72.4309700000000021
0
LINE
8
BLACK
6
CONTINUOUS
10
142.6956710000000044
20
-72.4309700000000021
11
142.5999999999999943
21
-72.4500000000000028
0
LINE
8
BLACK
6
CONTINUOUS
10
142.5999999999999943
20
-72.4500000000000028
11
141.4002619999999979
21
-72.4500000000000028
0
LINE
8
BLACK
6
CONTINUOUS
10
141.4002619999999979
20
-72.4500000000000028
11
140.3990000000000009
21
-73.4512619999999998
0
LINE
8
BLACK
6
CONTINUOUS
10
140.3990000000000009
20
-73.4512619999999998
11
140.3990000000000009
21
-80.566512000000003
0
LINE
8
BLACK
6
CONTINUOUS
10
140.3990000000000009
20
-80.566512000000003
11
140.9743670000000009
21
-81.141879000000003
0
LINE
8
BLACK
6
CONTINUOUS
10
140.9743670000000009
20
-81.141879000000003
11
141.0228830000000073
21
-81.109462999999991
0
LINE
8
BLACK
6
CONTINUOUS
10
141.0228830000000073
20
-81.109462999999991
11
141.1677719999999852
21
-81.0494479999999982
0
LINE
8
BLACK
6
CONTINUOUS
10
141.1677719999999852
20
-81.0494479999999982
11
141.3215859999999964
21
-81.0188519999999954
0
LINE
8
BLACK
6
CONTINUOUS
10
141.3215859999999964
20
-81.0188519999999954
11
141.4784139999999866
21
-81.0188519999999954
0
LINE
8
BLACK
6
CONTINUOUS
10
141.4784139999999866
20
-81.0188519999999954
11
141.6322279999999978
21
-81.0494479999999982
0
LINE
8
BLACK
6
CONTINUOUS
10
141.6322279999999978
20
-81.0494479999999982
11
141.7771170000000041
21
-81.109462999999991
0
LINE
8
BLACK
6
CONTINUOUS
10
141.7771170000000041
20
-81.109462999999991
11
141.9075149999999894
21
-81.1965919999999954
0
LINE
8
BLACK
6
CONTINUOUS
10
141.9075149999999894
20
-81.1965919999999954
11
142.0184079999999938
21
-81.3074849999999998
0
LINE
8
BLACK
6
CONTINUOUS
10
142.0184079999999938
20
-81.3074849999999998
11
142.1055369999999982
21
-81.4378829999999994
0
LINE
8
BLACK
6
CONTINUOUS
10
142.1055369999999982
20
-81.4378829999999994
11
142.165551999999991
21
-81.5827719999999914
0
LINE
8
BLACK
6
CONTINUOUS
10
142.165551999999991
20
-81.5827719999999914
11
142.1961479999999938
21
-81.7365860000000026
0
LINE
8
BLACK
6
CONTINUOUS
10
142.1961479999999938
20
-81.7365860000000026
11
142.1961479999999938
21
-81.8934139999999928
0
LINE
8
BLACK
6
CONTINUOUS
10
142.1961479999999938
20
-81.8934139999999928
11
142.165551999999991
21
-82.0472279999999898
0
LINE
8
BLACK
6
CONTINUOUS
10
142.165551999999991
20
-82.0472279999999898
11
142.133609000000007
21
-82.124344999999991
0
LINE
8
BLACK
6
CONTINUOUS
10
142.133609000000007
20
-82.124344999999991
11
142.412130999999988
21
-82.4028670000000005
0
LINE
8
BLACK
6
CONTINUOUS
10
142.412130999999988
20
-82.4028670000000005
11
142.4379959999999983
21
-82.4323619999999977
0
LINE
8
BLACK
6
CONTINUOUS
10
142.4379959999999983
20
-82.4323619999999977
11
142.438005000000004
21
-82.4323709999999892
0
LINE
8
BLACK
6
CONTINUOUS
10
142.438005000000004
20
-82.4323709999999892
11
142.4771629999999902
21
-82.5001939999999934
0
LINE
8
BLACK
6
CONTINUOUS
10
142.4771629999999902
20
-82.5001939999999934
11
142.4974320000000034
21
-82.5758409999999969
0
LINE
8
BLACK
6
CONTINUOUS
10
142.4974320000000034
20
-82.5758409999999969
11
142.4999990000000025
21
-82.6149989999999974
0
LINE
8
BLACK
6
CONTINUOUS
10
142.4999990000000025
20
-82.6149989999999974
11
142.5
21
-83.5499999999999972
0
LINE
8
BLACK
6
CONTINUOUS
10
142.5
20
-83.5499999999999972
11
142.7999999999999829
21
-83.5499999999999972
0
LINE
8
BLACK
6
CONTINUOUS
10
142.7999999999999829
20
-83.5499999999999972
11
142.895670999999993
21
-83.5690299999999979
0
LINE
8
BLACK
6
CONTINUOUS
10
142.895670999999993
20
-83.5690299999999979
11
142.9767769999999985
21
-83.6232229999999959
0
LINE
8
BLACK
6
CONTINUOUS
10
142.9767769999999985
20
-83.6232229999999959
11
143.0309699999999964
21
-83.7043290000000013
0
LINE
8
BLACK
6
CONTINUOUS
10
143.0309699999999964
20
-83.7043290000000013
11
143.0499999999999829
21
-83.7999999999999972
0
LINE
8
BLACK
6
CONTINUOUS
10
143.0499999999999829
20
-83.7999999999999972
11
143.0499999999999829
21
-85.
0
LINE
8
BLACK
6
CONTINUOUS
10
143.0499999999999829
20
-85.
11
143.0309699999999964
21
-85.0956709999999958
0
LINE
8
BLACK
6
CONTINUOUS
10
143.0309699999999964
20
-85.0956709999999958
11
142.9767769999999985
21
-85.1767770000000013
0
LINE
8
BLACK
6
CONTINUOUS
10
142.9767769999999985
20
-85.1767770000000013
11
142.895670999999993
21
-85.2309699999999992
0
LINE
8
BLACK
6
CONTINUOUS
10
142.895670999999993
20
-85.2309699999999992
11
142.7999999999999829
21
-85.25
0
LINE
8
BLACK
6
CONTINUOUS
10
142.7999999999999829
20
-85.25
11
141.5999999999999943
21
-85.25
0
LINE
8
BLACK
6
CONTINUOUS
10
141.5999999999999943
20
-85.25
11
141.5043289999999843
21
-85.2309699999999992
0
LINE
8
BLACK
6
CONTINUOUS
10
141.5043289999999843
20
-85.2309699999999992
11
141.4232230000000072
21
-85.1767770000000013
0
LINE
8
BLACK
6
CONTINUOUS
10
141.4232230000000072
20
-85.1767770000000013
11
141.3690299999999809
21
-85.0956709999999958
0
LINE
8
BLACK
6
CONTINUOUS
10
141.3690299999999809
20
-85.0956709999999958
11
141.3499999999999943
21
-85.
0
LINE
8
BLACK
6
CONTINUOUS
10
141.3499999999999943
20
-85.
11
141.3499999999999943
21
-83.7999999999999972
0
LINE
8
BLACK
6
CONTINUOUS
10
141.3499999999999943
20
-83.7999999999999972
11
141.3690299999999809
21
-83.7043290000000013
0
LINE
8
BLACK
6
CONTINUOUS
10
141.3690299999999809
20
-83.7043290000000013
11
141.4232230000000072
21
-83.6232229999999959
0
LINE
8
BLACK
6
CONTINUOUS
10
141.4232230000000072
20
-83.6232229999999959
11
141.5043289999999843
21
-83.5690299999999979
0
LINE
8
BLACK
6
CONTINUOUS
10
141.5043289999999843
20
-83.5690299999999979
11
141.5999999999999943
21
-83.5499999999999972
0
LINE
8
BLACK
6
CONTINUOUS
10
141.5999999999999943
20
-83.5499999999999972
11
141.9000000000000057
21
-83.5499999999999972
0
LINE
8
BLACK
6
CONTINUOUS
10
141.9000000000000057
20
-83.5499999999999972
11
141.8999989999999798
21
-82.739262999999994
0
LINE
8
BLACK
6
CONTINUOUS
10
141.8999989999999798
20
-82.739262999999994
11
141.7093449999999848
21
-82.548608999999999
0
LINE
8
BLACK
6
CONTINUOUS
10
141.7093449999999848
20
-82.548608999999999
11
141.6322279999999978
21
-82.5805519999999973
0
LINE
8
BLACK
6
CONTINUOUS
10
141.6322279999999978
20
-82.5805519999999973
11
141.4784139999999866
21
-82.611148
0
LINE
8
BLACK
6
CONTINUOUS
10
141.4784139999999866
20
-82.611148
11
141.3215859999999964
21
-82.611148
0
LINE
8
BLACK
6
CONTINUOUS
10
141.3215859999999964
20
-82.611148
11
141.1677719999999852
21
-82.5805519999999973
0
LINE
8
BLACK
6
CONTINUOUS
10
141.1677719999999852
20
-82.5805519999999973
11
141.0228830000000073
21
-82.5205369999999903
0
LINE
8
BLACK
6
CONTINUOUS
10
141.0228830000000073
20
-82.5205369999999903
11
140.8924849999999935
21
-82.433408
0
LINE
8
BLACK
6
CONTINUOUS
10
140.8924849999999935
20
-82.433408
11
140.7815919999999892
21
-82.3225149999999957
0
LINE
8
BLACK
6
CONTINUOUS
10
140.7815919999999892
20
-82.3225149999999957
11
140.6944629999999847
21
-82.1921169999999961
0
LINE
8
BLACK
6
CONTINUOUS
10
140.6944629999999847
20
-82.1921169999999961
11
140.6344479999999919
21
-82.0472279999999898
0
LINE
8
BLACK
6
CONTINUOUS
10
140.6344479999999919
20
-82.0472279999999898
11
140.6038519999999892
21
-81.8934139999999928
0
LINE
8
BLACK
6
CONTINUOUS
10
140.6038519999999892
20
-81.8934139999999928
11
140.6038519999999892
21
-81.7365860000000026
0
LINE
8
BLACK
6
CONTINUOUS
10
140.6038519999999892
20
-81.7365860000000026
11
140.6344479999999919
21
-81.5827719999999914
0
LINE
8
BLACK
6
CONTINUOUS
10
140.6344479999999919
20
-81.5827719999999914
11
140.6944629999999847
21
-81.4378829999999994
0
LINE
8
BLACK
6
CONTINUOUS
10
140.6944629999999847
20
-81.4378829999999994
11
140.7268789999999967
21
-81.3893669999999929
0
LINE
8
BLACK
6
CONTINUOUS
10
140.7268789999999967
20
-81.3893669999999929
11
140.1002560000000017
21
-80.7627439999999979
0
LINE
8
BLACK
6
CONTINUOUS
10
140.1002560000000017
20
-80.7627439999999979
11
140.0784969999999987
21
-80.7362289999999945
0
LINE
8
BLACK
6
CONTINUOUS
10
140.0784969999999987
20
-80.7362289999999945
11
140.0784929999999804
21
-80.7362249999999904
0
LINE
8
BLACK
6
CONTINUOUS
10
140.0784929999999804
20
-80.7362249999999904
11
140.0523629999999855
21
-80.6731410000000011
0
LINE
8
BLACK
6
CONTINUOUS
10
140.0523629999999855
20
-80.6731410000000011
11
140.0490000000000066
21
-80.6389999999999958
0
LINE
8
BLACK
6
CONTINUOUS
10
140.0490000000000066
20
-80.6389999999999958
11
140.0490000000000066
21
-73.5751039999999961
0
LINE
8
BLACK
6
CONTINUOUS
10
140.0490000000000066
20
-73.5751039999999961
11
140.0208069999999907
21
-73.5675499999999971
0
LINE
8
BLACK
6
CONTINUOUS
10
140.0208069999999907
20
-73.5675499999999971
11
139.9529839999999865
21
-73.5283919999999966
0
LINE
8
BLACK
6
CONTINUOUS
10
139.9529839999999865
20
-73.5283919999999966
11
139.8976059999999961
21
-73.4730139999999921
0
LINE
8
BLACK
6
CONTINUOUS
10
139.8976059999999961
20
-73.4730139999999921
11
139.8584479999999814
21
-73.4051910000000021
0
LINE
8
BLACK
6
CONTINUOUS
10
139.8584479999999814
20
-73.4051910000000021
11
139.8381789999999967
21
-73.3295439999999985
0
LINE
8
BLACK
6
CONTINUOUS
10
139.8381789999999967
20
-73.3295439999999985
11
139.8381789999999967
21
-73.2512279999999976
0
LINE
8
BLACK
6
CONTINUOUS
10
139.8381789999999967
20
-73.2512279999999976
11
139.8584479999999814
21
-73.175580999999994
0
LINE
8
BLACK
6
CONTINUOUS
10
139.8584479999999814
20
-73.175580999999994
11
139.8976059999999961
21
-73.1077579999999898
0
LINE
8
BLACK
6
CONTINUOUS
10
139.8976059999999961
20
-73.1077579999999898
11
139.9234799999999836
21
-73.0782540000000012
0
LINE
8
BLACK
6
CONTINUOUS
10
139.9234799999999836
20
-73.0782540000000012
11
141.1500000000000057
21
-71.8517339999999933
0
LINE
8
BLACK
6
CONTINUOUS
10
141.1500000000000057
20
-71.8517339999999933
11
141.1500000000000057
21
-71.1742639999999938
0
LINE
8
BLACK
6
CONTINUOUS
10
141.1500000000000057
20
-71.1742639999999938
11
140.3878679999999974
21
-70.4121319999999997
0
LINE
8
BLACK
6
CONTINUOUS
10
140.3878679999999974
20
-70.4121319999999997
11
140.3619939999999815
21
-70.3826279999999969
0
LINE
8
BLACK
6
CONTINUOUS
10
140.3619939999999815
20
-70.3826279999999969
11
140.3228359999999952
21
-70.3148049999999927
0
LINE
8
BLACK
6
CONTINUOUS
10
140.3228359999999952
20
-70.3148049999999927
11
140.302566999999982
21
-70.2391580000000033
0
LINE
8
BLACK
6
CONTINUOUS
10
140.302566999999982
20
-70.2391580000000033
11
140.2999999999999829
21
-70.2000000000000028
0
LINE
8
BLACK
6
CONTINUOUS
10
140.2999999999999829
20
-70.2000000000000028
11
140.2999999999999829
21
-69.6499999999999915
0
LINE
8
BLACK
6
CONTINUOUS
10
140.2999999999999829
20
-69.6499999999999915
11
140.
21
-69.6499999999999915
0
LINE
8
BLACK
6
CONTINUOUS
10
140.
20
-69.6499999999999915
11
139.9043289999999899
21
-69.6309699999999907
0
LINE
8
BLACK
6
CONTINUOUS
10
139.9043289999999899
20
-69.6309699999999907
11
139.8232229999999845
21
-69.5767769999999928
0
LINE
8
BLACK
6
CONTINUOUS
10
139.8232229999999845
20
-69.5767769999999928
11
139.7690299999999866
21
-69.4956710000000015
0
LINE
8
BLACK
6
CONTINUOUS
10
139.7690299999999866
20
-69.4956710000000015
11
139.75
21
-69.3999999999999915
0
LINE
8
BLACK
6
CONTINUOUS
10
139.75
20
-69.3999999999999915
11
139.75
21
-68.2000000000000028
0
LINE
8
BLACK
6
CONTINUOUS
10
139.75
20
-68.2000000000000028
11
139.7690299999999866
21
-68.1043289999999928
0
LINE
8
BLACK
6
CONTINUOUS
10
139.7690299999999866
20
-68.1043289999999928
11
139.8232229999999845
21
-68.0232230000000015
0
LINE
8
BLACK
6
CONTINUOUS
10
139.8232229999999845
20
-68.0232230000000015
11
139.9043289999999899
21
-67.9690300000000036
0
LINE
8
BLACK
6
CONTINUOUS
10
139.9043289999999899
20
-67.9690300000000036
11
140.
21
-67.9500000000000028
0
LINE
8
BLACK
6
CONTINUOUS
10
140.
20
-67.9500000000000028
11
141.1999999999999886
21
-67.9500000000000028
0
LINE
8
BLACK
6
CONTINUOUS
10
141.1999999999999886
20
-67.9500000000000028
11
141.2956709999999987
21
-67.9690300000000036
0
LINE
8
BLACK
6
CONTINUOUS
10
139.0922280000000057
20
-81.0494479999999982
11
139.2371169999999836
21
-81.109462999999991
0
LINE
8
BLACK
6
CONTINUOUS
10
139.2371169999999836
20
-81.109462999999991
11
139.3675149999999974
21
-81.1965919999999954
0
LINE
8
BLACK
6
CONTINUOUS
10
139.3675149999999974
20
-81.1965919999999954
11
139.4784080000000017
21
-81.3074849999999998
0
LINE
8
BLACK
6
CONTINUOUS
10
139.4784080000000017
20
-81.3074849999999998
11
139.5655370000000062
21
-81.4378829999999994
0
LINE
8
BLACK
6
CONTINUOUS
10
139.5655370000000062
20
-81.4378829999999994
11
139.625551999999999
21
-81.5827719999999914
0
LINE
8
BLACK
6
CONTINUOUS
10
139.625551999999999
20
-81.5827719999999914
11
139.6561480000000017
21
-81.7365860000000026
0
LINE
8
BLACK
6
CONTINUOUS
10
139.6561480000000017
20
-81.7365860000000026
11
139.6561480000000017
21
-81.8934139999999928
0
LINE
8
BLACK
6
CONTINUOUS
10
139.6561480000000017
20
-81.8934139999999928
11
139.625551999999999
21
-82.0472279999999898
0
LINE
8
BLACK
6
CONTINUOUS
10
139.625551999999999
20
-82.0472279999999898
11
139.5655370000000062
21
-82.1921169999999961
0
LINE
8
BLACK
6
CONTINUOUS
10
139.5655370000000062
20
-82.1921169999999961
11
139.4784080000000017
21
-82.3225149999999957
0
LINE
8
BLACK
6
CONTINUOUS
10
139.4784080000000017
20
-82.3225149999999957
11
139.3675149999999974
21
-82.433408
0
LINE
8
BLACK
6
CONTINUOUS
10
139.3675149999999974
20
-82.433408
11
139.2371169999999836
21
-82.5205369999999903
0
LINE
8
BLACK
6
CONTINUOUS
10
139.2371169999999836
20
-82.5205369999999903
11
139.0922280000000057
21
-82.5805519999999973
0
LINE
8
BLACK
6
CONTINUOUS
10
139.0922280000000057
20
-82.5805519999999973
11
138.9384139999999945
21
-82.611148
0
LINE
8
BLACK
6
CONTINUOUS
10
138.9384139999999945
20
-82.611148
11
138.7815860000000043
21
-82.611148
0
LINE
8
BLACK
6
CONTINUOUS
10
138.7815860000000043
20
-82.611148
11
138.6277719999999931
21
-82.5805519999999973
0
LINE
8
BLACK
6
CONTINUOUS
10
138.6277719999999931
20
-82.5805519999999973
11
138.4828829999999869
21
-82.5205369999999903
0
LINE
8
BLACK
6
CONTINUOUS
10
138.4828829999999869
20
-82.5205369999999903
11
138.3524850000000015
21
-82.433408
0
LINE
8
BLACK
6
CONTINUOUS
10
138.3524850000000015
20
-82.433408
11
138.2415919999999971
21
-82.3225149999999957
0
LINE
8
BLACK
6
CONTINUOUS
10
138.2415919999999971
20
-82.3225149999999957
11
138.1544629999999927
21
-82.1921169999999961
0
LINE
8
BLACK
6
CONTINUOUS
10
138.1544629999999927
20
-82.1921169999999961
11
138.0944479999999999
21
-82.0472279999999898
0
LINE
8
BLACK
6
CONTINUOUS
10
138.0944479999999999
20
-82.0472279999999898
11
138.0638519999999971
21
-81.8934139999999928
0
LINE
8
BLACK
6
CONTINUOUS
10
138.0638519999999971
20
-81.8934139999999928
11
138.0638519999999971
21
-81.7365860000000026
0
LINE
8
BLACK
6
CONTINUOUS
10
138.0638519999999971
20
-81.7365860000000026
11
138.0944479999999999
21
-81.5827719999999914
0
LINE
8
BLACK
6
CONTINUOUS
10
138.0944479999999999
20
-81.5827719999999914
11
138.1544629999999927
21
-81.4378829999999994
0
LINE
8
BLACK
6
CONTINUOUS
10
138.1544629999999927
20
-81.4378829999999994
11
138.2415919999999971
21
-81.3074849999999998
0
LINE
8
BLACK
6
CONTINUOUS
10
138.2415919999999971
20
-81.3074849999999998
11
138.3524850000000015
21
-81.1965919999999954
0
LINE
8
BLACK
6
CONTINUOUS
10
138.3524850000000015
20
-81.1965919999999954
11
138.4828829999999869
21
-81.109462999999991
0
LINE
8
BLACK
6
CONTINUOUS
10
138.4828829999999869
20
-81.109462999999991
11
138.6277719999999931
21
-81.0494479999999982
0
LINE
8
BLACK
6
CONTINUOUS
10
138.6277719999999931
20
-81.0494479999999982
11
138.7815860000000043
21
-81.0188519999999954
0
LINE
8
BLACK
6
CONTINUOUS
10
138.7815860000000043
20
-81.0188519999999954
11
138.9384139999999945
21
-81.0188519999999954
0
LINE
8
BLACK
6
CONTINUOUS
10
138.9384139999999945
20
-81.0188519999999954
11
139.0922280000000057
21
-81.0494479999999982
0
LINE
8
BLACK
6
CONTINUOUS
10
142.0456709999999987
20
-73.4140299999999968
11
142.1267770000000041
21
-73.4682229999999947
0
LINE
8
BLACK
6
CONTINUOUS
10
142.1267770000000041
20
-73.4682229999999947
11
142.1809700000000021
21
-73.5493290000000002
0
LINE
8
BLACK
6
CONTINUOUS
10
142.1809700000000021
20
-73.5493290000000002
11
142.1999999999999886
21
-73.644999999999996
0
LINE
8
BLACK
6
CONTINUOUS
10
142.1999999999999886
20
-73.644999999999996
11
142.1999999999999886
21
-74.7449999999999903
0
LINE
8
BLACK
6
CONTINUOUS
10
142.1999999999999886
20
-74.7449999999999903
11
142.1809700000000021
21
-74.8406710000000004
0
LINE
8
BLACK
6
CONTINUOUS
10
142.1809700000000021
20
-74.8406710000000004
11
142.1267770000000041
21
-74.9217769999999916
0
LINE
8
BLACK
6
CONTINUOUS
10
142.1267770000000041
20
-74.9217769999999916
11
142.0456709999999987
21
-74.9759699999999896
0
LINE
8
BLACK
6
CONTINUOUS
10
142.0456709999999987
20
-74.9759699999999896
11
141.9499999999999886
21
-74.9949999999999903
0
LINE
8
BLACK
6
CONTINUOUS
10
141.9499999999999886
20
-74.9949999999999903
11
140.8499999999999943
21
-74.9949999999999903
0
LINE
8
BLACK
6
CONTINUOUS
10
140.8499999999999943
20
-74.9949999999999903
11
140.7543289999999843
21
-74.9759699999999896
0
LINE
8
BLACK
6
CONTINUOUS
10
140.7543289999999843
20
-74.9759699999999896
11
140.6732230000000072
21
-74.9217769999999916
0
LINE
8
BLACK
6
CONTINUOUS
10
140.6732230000000072
20
-74.9217769999999916
11
140.6190299999999809
21
-74.8406710000000004
0
LINE
8
BLACK
6
CONTINUOUS
10
140.6190299999999809
20
-74.8406710000000004
11
140.5999999999999943
21
-74.7449999999999903
0
LINE
8
BLACK
6
CONTINUOUS
10
140.5999999999999943
20
-74.7449999999999903
11
140.5999999999999943
21
-73.644999999999996
0
LINE
8
BLACK
6
CONTINUOUS
10
140.5999999999999943
20
-73.644999999999996
11
140.6190299999999809
21
-73.5493290000000002
0
LINE
8
BLACK
6
CONTINUOUS
10
140.6190299999999809
20
-73.5493290000000002
11
140.6732230000000072
21
-73.4682229999999947
0
LINE
8
BLACK
6
CONTINUOUS
10
140.6732230000000072
20
-73.4682229999999947
11
140.7543289999999843
21
-73.4140299999999968
0
LINE
8
BLACK
6
CONTINUOUS
10
140.7543289999999843
20
-73.4140299999999968
11
140.8499999999999943
21
-73.394999999999996
0
LINE
8
BLACK
6
CONTINUOUS
10
140.8499999999999943
20
-73.394999999999996
11
141.9499999999999886
21
-73.394999999999996
0
LINE
8
BLACK
6
CONTINUOUS
10
141.9499999999999886
20
-73.394999999999996
11
142.0456709999999987
21
-73.4140299999999968
0
LINE
8
BLACK
6
CONTINUOUS
10
137.0956709999999816
20
-70.7690300000000008
11
137.1767769999999871
21
-70.8232229999999987
0
LINE
8
BLACK
6
CONTINUOUS
10
137.1767769999999871
20
-70.8232229999999987
11
137.230969999999985
21
-70.9043289999999899
0
LINE
8
BLACK
6
CONTINUOUS
10
137.230969999999985
20
-70.9043289999999899
11
137.25
21
-71.
0
LINE
8
BLACK
6
CONTINUOUS
10
137.25
20
-71.
11
137.25
21
-72.2000000000000028
0
LINE
8
BLACK
6
CONTINUOUS
10
137.25
20
-72.2000000000000028
11
137.230969999999985
21
-72.2956709999999987
0
LINE
8
BLACK
6
CONTINUOUS
10
137.230969999999985
20
-72.2956709999999987
11
137.1767769999999871
21
-72.3767769999999899
0
LINE
8
BLACK
6
CONTINUOUS
10
137.1767769999999871
20
-72.3767769999999899
11
137.0956709999999816
21
-72.4309700000000021
0
LINE
8
BLACK
6
CONTINUOUS
10
137.0956709999999816
20
-72.4309700000000021
11
137.
21
-72.4500000000000028
0
LINE
8
BLACK
6
CONTINUOUS
10
137.
20
-72.4500000000000028
11
136.9000000000000057
21
-72.4500000000000028
0
LINE
8
BLACK
6
CONTINUOUS
10
136.9000000000000057
20
-72.4500000000000028
11
136.9000000000000057
21
-73.6490769999999912
0
LINE
8
BLACK
6
CONTINUOUS
10
136.9000000000000057
20
-73.6490769999999912
11
136.9384079999999813
21
-73.6874849999999952
0
LINE
8
BLACK
6
CONTINUOUS
10
136.9384079999999813
20
-73.6874849999999952
11
137.0255369999999857
21
-73.8178829999999948
0
LINE
8
BLACK
6
CONTINUOUS
10
137.0255369999999857
20
-73.8178829999999948
11
137.085552000000007
21
-73.9627720000000011
0
LINE
8
BLACK
6
CONTINUOUS
10
137.085552000000007
20
-73.9627720000000011
11
137.1161479999999813
21
-74.1165859999999981
0
LINE
8
BLACK
6
CONTINUOUS
10
137.1161479999999813
20
-74.1165859999999981
11
137.1161479999999813
21
-74.2734140000000025
0
LINE
8
BLACK
6
CONTINUOUS
10
137.1161479999999813
20
-74.2734140000000025
11
137.085552000000007
21
-74.4272279999999995
0
LINE
8
BLACK
6
CONTINUOUS
10
137.085552000000007
20
-74.4272279999999995
11
137.0255369999999857
21
-74.5721169999999915
0
LINE
8
BLACK
6
CONTINUOUS
10
137.0255369999999857
20
-74.5721169999999915
11
136.9384079999999813
21
-74.7025149999999911
0
LINE
8
BLACK
6
CONTINUOUS
10
136.9384079999999813
20
-74.7025149999999911
11
136.8275150000000053
21
-74.8134079999999955
0
LINE
8
BLACK
6
CONTINUOUS
10
136.8275150000000053
20
-74.8134079999999955
11
136.6971169999999915
21
-74.9005369999999999
0
LINE
8
BLACK
6
CONTINUOUS
10
136.6971169999999915
20
-74.9005369999999999
11
136.5522279999999853
21
-74.9605519999999927
0
LINE
8
BLACK
6
CONTINUOUS
10
136.5522279999999853
20
-74.9605519999999927
11
136.3984140000000025
21
-74.9911479999999955
0
LINE
8
BLACK
6
CONTINUOUS
10
136.3984140000000025
20
-74.9911479999999955
11
136.2415859999999839
21
-74.9911479999999955
0
LINE
8
BLACK
6
CONTINUOUS
10
136.2415859999999839
20
-74.9911479999999955
11
136.0877720000000011
21
-74.9605519999999927
0
LINE
8
BLACK
6
CONTINUOUS
10
136.0877720000000011
20
-74.9605519999999927
11
135.9428829999999948
21
-74.9005369999999999
0
LINE
8
BLACK
6
CONTINUOUS
10
135.9428829999999948
20
-74.9005369999999999
11
135.812484999999981
21
-74.8134079999999955
0
LINE
8
BLACK
6
CONTINUOUS
10
135.812484999999981
20
-74.8134079999999955
11
135.7015920000000051
21
-74.7025149999999911
0
LINE
8
BLACK
6
CONTINUOUS
10
135.7015920000000051
20
-74.7025149999999911
11
135.6144630000000006
21
-74.5721169999999915
0
LINE
8
BLACK
6
CONTINUOUS
10
135.6144630000000006
20
-74.5721169999999915
11
135.5544480000000078
21
-74.4272279999999995
0
LINE
8
BLACK
6
CONTINUOUS
10
135.5544480000000078
20
-74.4272279999999995
11
135.5238520000000051
21
-74.2734140000000025
0
LINE
8
BLACK
6
CONTINUOUS
10
135.5238520000000051
20
-74.2734140000000025
11
135.5238520000000051
21
-74.1165859999999981
0
LINE
8
BLACK
6
CONTINUOUS
10
135.5238520000000051
20
-74.1165859999999981
11
135.5544480000000078
21
-73.9627720000000011
0
LINE
8
BLACK
6
CONTINUOUS
10
135.5544480000000078
20
-73.9627720000000011
11
135.6144630000000006
21
-73.8178829999999948
0
LINE
8
BLACK
6
CONTINUOUS
10
135.6144630000000006
20
-73.8178829999999948
11
135.7015920000000051
21
-73.6874849999999952
0
LINE
8
BLACK
6
CONTINUOUS
10
135.7015920000000051
20
-73.6874849999999952
11
135.812484999999981
21
-73.5765919999999909
0
LINE
8
BLACK
6
CONTINUOUS
10
135.812484999999981
20
-73.5765919999999909
11
135.9428829999999948
21
-73.4894630000000006
0
LINE
8
BLACK
6
CONTINUOUS
10
135.9428829999999948
20
-73.4894630000000006
11
136.0877720000000011
21
-73.4294479999999936
0
LINE
8
BLACK
6
CONTINUOUS
10
136.0877720000000011
20
-73.4294479999999936
11
136.2415859999999839
21
-73.3988519999999909
0
LINE
8
BLACK
6
CONTINUOUS
10
136.2415859999999839
20
-73.3988519999999909
11
136.2999999999999829
21
-73.3988519999999909
0
LINE
8
BLACK
6
CONTINUOUS
10
136.2999999999999829
20
-73.3988519999999909
11
136.2999999999999829
21
-72.4500000000000028
0
LINE
8
BLACK
6
CONTINUOUS
10
136.2999999999999829
20
-72.4500000000000028
11
135.7999999999999829
21
-72.4500000000000028
0
LINE
8
BLACK
6
CONTINUOUS
10
135.7999999999999829
20
-72.4500000000000028
11
135.7043290000000013
21
-72.4309700000000021
0
LINE
8
BLACK
6
CONTINUOUS
10
135.7043290000000013
20
-72.4309700000000021
11
135.6232229999999959
21
-72.3767769999999899
0
LINE
8
BLACK
6
CONTINUOUS
10
135.6232229999999959
20
-72.3767769999999899
11
135.5690299999999979
21
-72.2956709999999987
0
LINE
8
BLACK
6
CONTINUOUS
10
135.5690299999999979
20
-72.2956709999999987
11
135.5499999999999829
21
-72.2000000000000028
0
LINE
8
BLACK
6
CONTINUOUS
10
135.5499999999999829
20
-72.2000000000000028
11
135.5499999999999829
21
-71.
0
LINE
8
BLACK
6
CONTINUOUS
10
135.5499999999999829
20
-71.
11
135.5690299999999979
21
-70.9043289999999899
0
LINE
8
BLACK
6
CONTINUOUS
10
135.5690299999999979
20
-70.9043289999999899
11
135.6232229999999959
21
-70.8232229999999987
0
LINE
8
BLACK
6
CONTINUOUS
10
135.6232229999999959
20
-70.8232229999999987
11
135.7043290000000013
21
-70.7690300000000008
0
LINE
8
BLACK
6
CONTINUOUS
10
135.7043290000000013
20
-70.7690300000000008
11
135.7999999999999829
21
-70.75
0
LINE
8
BLACK
6
CONTINUOUS
10
135.7999999999999829
20
-70.75
11
137.
21
-70.75
0
LINE
8
BLACK
6
CONTINUOUS
10
137.
20
-70.75
11
137.0956709999999816
21
-70.7690300000000008
0
LINE
8
BLACK
6
CONTINUOUS
10
139.895670999999993
20
-70.7690300000000008
11
139.9767769999999985
21
-70.8232229999999987
0
LINE
8
BLACK
6
CONTINUOUS
10
139.9767769999999985
20
-70.8232229999999987
11
140.0309699999999964
21
-70.9043289999999899
0
LINE
8
BLACK
6
CONTINUOUS
10
140.0309699999999964
20
-70.9043289999999899
11
140.0499999999999829
21
-71.
0
LINE
8
BLACK
6
CONTINUOUS
10
140.0499999999999829
20
-71.
11
140.0499999999999829
21
-72.2000000000000028
0
LINE
8
BLACK
6
CONTINUOUS
10
140.0499999999999829
20
-72.2000000000000028
11
140.0309699999999964
21
-72.2956709999999987
0
LINE
8
BLACK
6
CONTINUOUS
10
140.0309699999999964
20
-72.2956709999999987
11
139.9767769999999985
21
-72.3767769999999899
0
LINE
8
BLACK
6
CONTINUOUS
10
139.9767769999999985
20
-72.3767769999999899
11
139.895670999999993
21
-72.4309700000000021
0
LINE
8
BLACK
6
CONTINUOUS
10
139.895670999999993
20
-72.4309700000000021
11
139.7999999999999829
21
-72.4500000000000028
0
LINE
8
BLACK
6
CONTINUOUS
10
139.7999999999999829
20
-72.4500000000000028
11
139.143810000000002
21
-72.4500000000000028
0
LINE
8
BLACK
6
CONTINUOUS
10
139.143810000000002
20
-72.4500000000000028
11
139.1574329999999975
21
-72.5008419999999916
0
LINE
8
BLACK
6
CONTINUOUS
10
139.1574329999999975
20
-72.5008419999999916
11
139.1599999999999966
21
-72.539999999999992
0
LINE
8
BLACK
6
CONTINUOUS
10
139.1599999999999966
20
-72.539999999999992
11
139.1599999999999966
21
-73.4575200000000024
0
LINE
8
BLACK
6
CONTINUOUS
10
139.1599999999999966
20
-73.4575200000000024
11
139.2371169999999836
21
-73.4894630000000006
0
LINE
8
BLACK
6
CONTINUOUS
10
139.2371169999999836
20
-73.4894630000000006
11
139.3675149999999974
21
-73.5765919999999909
0
LINE
8
BLACK
6
CONTINUOUS
10
139.3675149999999974
20
-73.5765919999999909
11
139.4784080000000017
21
-73.6874849999999952
0
LINE
8
BLACK
6
CONTINUOUS
10
139.4784080000000017
20
-73.6874849999999952
11
139.5655370000000062
21
-73.8178829999999948
0
LINE
8
BLACK
6
CONTINUOUS
10
139.5655370000000062
20
-73.8178829999999948
11
139.625551999999999
21
-73.9627720000000011
0
LINE
8
BLACK
6
CONTINUOUS
10
139.625551999999999
20
-73.9627720000000011
11
139.6561480000000017
21
-74.1165859999999981
0
LINE
8
BLACK
6
CONTINUOUS
10
139.6561480000000017
20
-74.1165859999999981
11
139.6561480000000017
21
-74.2734140000000025
0
LINE
8
BLACK
6
CONTINUOUS
10
139.6561480000000017
20
-74.2734140000000025
11
139.625551999999999
21
-74.4272279999999995
0
LINE
8
BLACK
6
CONTINUOUS
10
139.625551999999999
20
-74.4272279999999995
11
139.5655370000000062
21
-74.5721169999999915
0
LINE
8
BLACK
6
CONTINUOUS
10
139.5655370000000062
20
-74.5721169999999915
11
139.4784080000000017
21
-74.7025149999999911
0
LINE
8
BLACK
6
CONTINUOUS
10
139.4784080000000017
20
-74.7025149999999911
11
139.3675149999999974
21
-74.8134079999999955
0
LINE
8
BLACK
6
CONTINUOUS
10
139.3675149999999974
20
-74.8134079999999955
11
139.2371169999999836
21
-74.9005369999999999
0
LINE
8
BLACK
6
CONTINUOUS
10
139.2371169999999836
20
-74.9005369999999999
11
139.0922280000000057
21
-74.9605519999999927
0
LINE
8
BLACK
6
CONTINUOUS
10
139.0922280000000057
20
-74.9605519999999927
11
138.9384139999999945
21
-74.9911479999999955
0
LINE
8
BLACK
6
CONTINUOUS
10
138.9384139999999945
20
-74.9911479999999955
11
138.7815860000000043
21
-74.9911479999999955
0
LINE
8
BLACK
6
CONTINUOUS
10
138.7815860000000043
20
-74.9911479999999955
11
138.6277719999999931
21
-74.9605519999999927
0
LINE
8
BLACK
6
CONTINUOUS
10
138.6277719999999931
20
-74.9605519999999927
11
138.4828829999999869
21
-74.9005369999999999
0
LINE
8
BLACK
6
CONTINUOUS
10
138.4828829999999869
20
-74.9005369999999999
11
138.3524850000000015
21
-74.8134079999999955
0
LINE
8
BLACK
6
CONTINUOUS
10
138.3524850000000015
20
-74.8134079999999955
11
138.2415919999999971
21
-74.7025149999999911
0
LINE
8
BLACK
6
CONTINUOUS
10
138.2415919999999971
20
-74.7025149999999911
11
138.1544629999999927
21
-74.5721169999999915
0
LINE
8
BLACK
6
CONTINUOUS
10
138.1544629999999927
20
-74.5721169999999915
11
138.0944479999999999
21
-74.4272279999999995
0
LINE
8
BLACK
6
CONTINUOUS
10
138.0944479999999999
20
-74.4272279999999995
11
138.0638519999999971
21
-74.2734140000000025
0
LINE
8
BLACK
6
CONTINUOUS
10
138.0638519999999971
20
-74.2734140000000025
11
138.0638519999999971
21
-74.1165859999999981
0
LINE
8
BLACK
6
CONTINUOUS
10
138.0638519999999971
20
-74.1165859999999981
11
138.0944479999999999
21
-73.9627720000000011
0
LINE
8
BLACK
6
CONTINUOUS
10
138.0944479999999999
20
-73.9627720000000011
11
138.1544629999999927
21
-73.8178829999999948
0
LINE
8
BLACK
6
CONTINUOUS
10
138.1544629999999927
20
-73.8178829999999948
11
138.2415919999999971
21
-73.6874849999999952
0
LINE
8
BLACK
6
CONTINUOUS
10
138.2415919999999971
20
-73.6874849999999952
11
138.3524850000000015
21
-73.5765919999999909
0
LINE
8
BLACK
6
CONTINUOUS
10
138.3524850000000015
20
-73.5765919999999909
11
138.4828829999999869
21
-73.4894630000000006
0
LINE
8
BLACK
6
CONTINUOUS
10
138.4828829999999869
20
-73.4894630000000006
11
138.5600000000000023
21
-73.4575200000000024
0
LINE
8
BLACK
6
CONTINUOUS
10
138.5600000000000023
20
-73.4575200000000024
11
138.5600000000000023
21
-72.539999999999992
0
LINE
8
BLACK
6
CONTINUOUS
10
138.5600000000000023
20
-72.539999999999992
11
138.5625670000000014
21
-72.5008419999999916
0
LINE
8
BLACK
6
CONTINUOUS
10
138.5625670000000014
20
-72.5008419999999916
11
138.5773939999999982
21
-72.4455030000000022
0
LINE
8
BLACK
6
CONTINUOUS
10
138.5773939999999982
20
-72.4455030000000022
11
138.5043289999999843
21
-72.4309700000000021
0
LINE
8
BLACK
6
CONTINUOUS
10
138.5043289999999843
20
-72.4309700000000021
11
138.4232230000000072
21
-72.3767769999999899
0
LINE
8
BLACK
6
CONTINUOUS
10
138.4232230000000072
20
-72.3767769999999899
11
138.3690299999999809
21
-72.2956709999999987
0
LINE
8
BLACK
6
CONTINUOUS
10
138.3690299999999809
20
-72.2956709999999987
11
138.3499999999999943
21
-72.2000000000000028
0
LINE
8
BLACK
6
CONTINUOUS
10
138.3499999999999943
20
-72.2000000000000028
11
138.3499999999999943
21
-71.
0
LINE
8
BLACK
6
CONTINUOUS
10
138.3499999999999943
20
-71.
11
138.3690299999999809
21
-70.9043289999999899
0
LINE
8
BLACK
6
CONTINUOUS
10
138.3690299999999809
20
-70.9043289999999899
11
138.4232230000000072
21
-70.8232229999999987
0
LINE
8
BLACK
6
CONTINUOUS
10
138.4232230000000072
20
-70.8232229999999987
11
138.5043289999999843
21
-70.7690300000000008
0
LINE
8
BLACK
6
CONTINUOUS
10
138.5043289999999843
20
-70.7690300000000008
11
138.5999999999999943
21
-70.75
0
LINE
8
BLACK
6
CONTINUOUS
10
138.5999999999999943
20
-70.75
11
139.7999999999999829
21
-70.75
0
LINE
8
BLACK
6
CONTINUOUS
10
139.7999999999999829
20
-70.75
11
139.895670999999993
21
-70.7690300000000008
0
CIRCLE
8
BLACK
10
136.4000000000000057
20
-66.5999999999999943
40
1.
0
CIRCLE
8
BLACK
10
136.4000000000000057
20
-71.5999999999999943
40
0.35
0
CIRCLE
8
BLACK
10
135.
20
-63.7999999999999972
40
1.
0
CIRCLE
8
BLACK
10
135.
20
-68.7999999999999972
40
0.35
0
CIRCLE
8
BLACK
10
141.4000000000000057
20
-74.1949999999999932
40
0.4
0
CIRCLE
8
BLACK
10
138.8599999999999852
20
-74.1949999999999932
40
0.4
0
CIRCLE
8
BLACK
10
136.3199999999999932
20
-74.1949999999999932
40
0.4
0
CIRCLE
8
BLACK
10
133.7800000000000011
20
-74.1949999999999932
40
0.4
0
CIRCLE
8
BLACK
10
133.7800000000000011
20
-81.8149999999999977
40
0.4
0
CIRCLE
8
BLACK
10
136.3199999999999932
20
-81.8149999999999977
40
0.4
0
CIRCLE
8
BLACK
10
138.8599999999999852
20
-81.8149999999999977
40
0.4
0
CIRCLE
8
BLACK
10
141.4000000000000057
20
-81.8149999999999977
40
0.4
0
CIRCLE
8
BLACK
10
139.1999999999999886
20
-66.5999999999999943
40
1.
0
CIRCLE
8
BLACK
10
139.1999999999999886
20
-71.5999999999999943
40
0.35
0
CIRCLE
8
BLACK
10
133.7999999999999829
20
-66.5999999999999943
40
1.
0
CIRCLE
8
BLACK
10
133.7999999999999829
20
-71.5999999999999943
40
0.35
0
CIRCLE
8
BLACK
10
142.1999999999999886
20
-89.3999999999999915
40
1.
0
CIRCLE
8
BLACK
10
142.1999999999999886
20
-84.3999999999999915
40
0.35
0
CIRCLE
8
BLACK
10
140.5999999999999943
20
-63.7999999999999972
40
1.
0
CIRCLE
8
BLACK
10
140.5999999999999943
20
-68.7999999999999972
40
0.35
0
CIRCLE
8
BLACK
10
136.5999999999999943
20
-89.3999999999999915
40
1.
0
CIRCLE
8
BLACK
10
136.5999999999999943
20
-84.3999999999999915
40
0.35
0
CIRCLE
8
BLACK
10
142.
20
-66.5999999999999943
40
1.
0
CIRCLE
8
BLACK
10
142.
20
-71.5999999999999943
40
0.35
0
CIRCLE
8
BLACK
10
139.4000000000000057
20
-89.3999999999999915
40
1.
0
CIRCLE
8
BLACK
10
139.4000000000000057
20
-84.3999999999999915
40
0.35
0
CIRCLE
8
BLACK
10
133.7999999999999829
20
-89.3999999999999915
40
1.
0
CIRCLE
8
BLACK
10
133.7999999999999829
20
-84.3999999999999915
40
0.35
0
LINE
8
BLACK
6
CONTINUOUS
10
144.0102949999999851
20
-61.7769029999999972
11
144.023824999999988
21
-61.7904330000000002
0
LINE
8
BLACK
6
CONTINUOUS
10
144.023824999999988
20
-61.7904330000000002
11
144.0257279999999867
21
-61.7999999999999972
0
LINE
8
BLACK
6
CONTINUOUS
10
144.0257279999999867
20
-61.7999999999999972
11
144.0257279999999867
21
-91.
0
LINE
8
BLACK
6
CONTINUOUS
10
144.0257279999999867
20
-91.
11
144.023824999999988
21
-91.0095669999999899
0
LINE
8
BLACK
6
CONTINUOUS
10
144.023824999999988
20
-91.0095669999999899
11
144.0102949999999851
21
-91.0230969999999928
0
LINE
8
BLACK
6
CONTINUOUS
10
144.0102949999999851
20
-91.0230969999999928
11
144.000727999999981
21
-91.0249999999999915
0
LINE
8
BLACK
6
CONTINUOUS
10
144.000727999999981
20
-91.0249999999999915
11
131.9067359999999951
21
-91.0249999999999915
0
LINE
8
BLACK
6
CONTINUOUS
10
131.9067359999999951
20
-91.0249999999999915
11
131.897168999999991
21
-91.0230969999999928
0
LINE
8
BLACK
6
CONTINUOUS
10
131.897168999999991
20
-91.0230969999999928
11
131.8836389999999881
21
-91.0095669999999899
0
LINE
8
BLACK
6
CONTINUOUS
10
131.8836389999999881
20
-91.0095669999999899
11
131.8817359999999894
21
-91.
0
LINE
8
BLACK
6
CONTINUOUS
10
131.8817359999999894
20
-91.
11
131.8817359999999894
21
-61.7999999999999972
0
LINE
8
BLACK
6
CONTINUOUS
10
131.8817359999999894
20
-61.7999999999999972
11
131.8836389999999881
21
-61.7904330000000002
0
LINE
8
BLACK
6
CONTINUOUS
10
131.8836389999999881
20
-61.7904330000000002
11
131.897168999999991
21
-61.7769029999999972
0
LINE
8
BLACK
6
CONTINUOUS
10
131.897168999999991
20
-61.7769029999999972
11
131.9067359999999951
21
-61.7749999999999986
0
LINE
8
BLACK
6
CONTINUOUS
10
131.9067359999999951
20
-61.7749999999999986
11
144.000727999999981
21
-61.7749999999999986
0
LINE
8
BLACK
6
CONTINUOUS
10
144.000727999999981
20
-61.7749999999999986
11
144.0102949999999851
21
-61.7769029999999972
0
LINE
8
BLACK
6
CONTINUOUS
10
131.9317360000000008
20
-61.8249999999999957
11
131.9317360000000008
21
-90.9749999999999943
0
LINE
8
BLACK
6
CONTINUOUS
10
131.9317360000000008
20
-90.9749999999999943
11
143.9757280000000037
21
-90.9749999999999943
0
LINE
8
BLACK
6
CONTINUOUS
10
143.9757280000000037
20
-90.9749999999999943
11
143.9757280000000037
21
-61.8249999999999957
0
LINE
8
BLACK
6
CONTINUOUS
10
143.9757280000000037
20
-61.8249999999999957
11
131.9317360000000008
21
-61.8249999999999957
0
CIRCLE
8
BLACK
10
136.4000000000000057
20
-66.5999999999999943
40
1.
0
CIRCLE
8
BLACK
10
136.4000000000000057
20
-71.5999999999999943
40
0.35
0
CIRCLE
8
BLACK
10
135.
20
-63.7999999999999972
40
1.
0
CIRCLE
8
BLACK
10
135.
20
-68.7999999999999972
40
0.35
0
CIRCLE
8
BLACK
10
141.4000000000000057
20
-74.1949999999999932
40
0.4
0
CIRCLE
8
BLACK
10
138.8599999999999852
20
-74.1949999999999932
40
0.4
0
CIRCLE
8
BLACK
10
136.3199999999999932
20
-74.1949999999999932
40
0.4
0
CIRCLE
8
BLACK
10
133.7800000000000011
20
-74.1949999999999932
40
0.4
0
CIRCLE
8
BLACK
10
133.7800000000000011
20
-81.8149999999999977
40
0.4
0
CIRCLE
8
BLACK
10
136.3199999999999932
20
-81.8149999999999977
40
0.4
0
CIRCLE
8
BLACK
10
138.8599999999999852
20
-81.8149999999999977
40
0.4
0
CIRCLE
8
BLACK
10
141.4000000000000057
20
-81.8149999999999977
40
0.4
0
CIRCLE
8
BLACK
10
139.1999999999999886
20
-66.5999999999999943
40
1.
0
CIRCLE
8
BLACK
10
139.1999999999999886
20
-71.5999999999999943
40
0.35
0
CIRCLE
8
BLACK
10
133.7999999999999829
20
-66.5999999999999943
40
1.
0
CIRCLE
8
BLACK
10
133.7999999999999829
20
-71.5999999999999943
40
0.35
0
CIRCLE
8
BLACK
10
142.1999999999999886
20
-89.3999999999999915
40
1.
0
CIRCLE
8
BLACK
10
142.1999999999999886
20
-84.3999999999999915
40
0.35
0
CIRCLE
8
BLACK
10
140.5999999999999943
20
-63.7999999999999972
40
1.
0
CIRCLE
8
BLACK
10
140.5999999999999943
20
-68.7999999999999972
40
0.35
0
CIRCLE
8
BLACK
10
136.5999999999999943
20
-89.3999999999999915
40
1.
0
CIRCLE
8
BLACK
10
136.5999999999999943
20
-84.3999999999999915
40
0.35
0
CIRCLE
8
BLACK
10
142.
20
-66.5999999999999943
40
1.
0
CIRCLE
8
BLACK
10
142.
20
-71.5999999999999943
40
0.35
0
CIRCLE
8
BLACK
10
139.4000000000000057
20
-89.3999999999999915
40
1.
0
CIRCLE
8
BLACK
10
139.4000000000000057
20
-84.3999999999999915
40
0.35
0
CIRCLE
8
BLACK
10
133.7999999999999829
20
-89.3999999999999915
40
1.
0
CIRCLE
8
BLACK
10
133.7999999999999829
20
-84.3999999999999915
40
0.35
0
CIRCLE
8
WHITE
10
136.4000000000000057
20
-66.5999999999999943
40
0.999999
0
CIRCLE
8
WHITE
10
136.4000000000000057
20
-71.5999999999999943
40
0.35
0
CIRCLE
8
WHITE
10
135.
20
-63.7999999999999972
40
0.999999
0
CIRCLE
8
WHITE
10
135.
20
-68.7999999999999972
40
0.35
0
CIRCLE
8
WHITE
10
141.4000000000000057
20
-74.1949999999999932
40
0.4
0
CIRCLE
8
WHITE
10
138.8599999999999852
20
-74.1949999999999932
40
0.4
0
CIRCLE
8
WHITE
10
136.3199999999999932
20
-74.1949999999999932
40
0.4
0
CIRCLE
8
WHITE
10
133.7800000000000011
20
-74.1949999999999932
40
0.4
0
CIRCLE
8
WHITE
10
133.7800000000000011
20
-81.8149999999999977
40
0.4
0
CIRCLE
8
WHITE
10
136.3199999999999932
20
-81.8149999999999977
40
0.4
0
CIRCLE
8
WHITE
10
138.8599999999999852
20
-81.8149999999999977
40
0.4
0
CIRCLE
8
WHITE
10
141.4000000000000057
20
-81.8149999999999977
40
0.4
0
CIRCLE
8
WHITE
10
139.1999999999999886
20
-66.5999999999999943
40
0.999999
0
CIRCLE
8
WHITE
10
139.1999999999999886
20
-71.5999999999999943
40
0.35
0
CIRCLE
8
WHITE
10
133.7999999999999829
20
-66.5999999999999943
40
0.999999
0
CIRCLE
8
WHITE
10
133.7999999999999829
20
-71.5999999999999943
40
0.35
0
CIRCLE
8
WHITE
10
142.1999999999999886
20
-89.3999999999999915
40
0.999999
0
CIRCLE
8
WHITE
10
142.1999999999999886
20
-84.3999999999999915
40
0.35
0
CIRCLE
8
WHITE
10
140.5999999999999943
20
-63.7999999999999972
40
0.999999
0
CIRCLE
8
WHITE
10
140.5999999999999943
20
-68.7999999999999972
40
0.35
0
CIRCLE
8
WHITE
10
136.5999999999999943
20
-89.3999999999999915
40
0.999999
0
CIRCLE
8
WHITE
10
136.5999999999999943
20
-84.3999999999999915
40
0.35
0
CIRCLE
8
WHITE
10
142.
20
-66.5999999999999943
40
0.999999
0
CIRCLE
8
WHITE
10
142.
20
-71.5999999999999943
40
0.35
0
CIRCLE
8
WHITE
10
139.4000000000000057
20
-89.3999999999999915
40
0.999999
0
CIRCLE
8
WHITE
10
139.4000000000000057
20
-84.3999999999999915
40
0.35
0
CIRCLE
8
WHITE
10
133.7999999999999829
20
-89.3999999999999915
40
0.999999
0
CIRCLE
8
WHITE
10
133.7999999999999829
20
-84.3999999999999915
40
0.35
  0
ENDSEC
  0
EOF
