  0
SECTION
  2
HEADER
  9
$ANGBASE
  50
0.0
  9
$ANGDIR
  70
1
  9
$MEASUREMENT
  70
1
  0
ENDSEC
  0
SECTION
  2
TABLES
  0
TABLE
  2
LTYPE
  70
4
  0
LTYPE
  5
40F
  2
CONTINUOUS
  70
0
  3
Solid line
  72
65
  73
0
  40
0.0
  0
LTYPE
  5
410
  2
DASHDOT
 70
0
  3
Dash Dot ____ _ ____ _
 72
65
 73
4
 40
2.0
 49
1.25
 49
-0.25
 49
0.25
 49
-0.25
  0
LTYPE
  5
411
  2
DASHED
 70
0
  3
Dashed __ __ __ __ __
 72
65
 73
2
 40
0.75
 49
0.5
 49
-0.25
  0
LTYPE
  5
43B
  2
DOTTED
 70
0
  3
Dotted .  .  .  .
 72
65
 73
2
 40
0.2
 49
0.0
 49
-0.2
  0
ENDTAB
  0
TABLE
  2
STYLE
  70
4
  0
STYLE
  2
KICAD
  70
0
  40
0
  41
1
  42
1
  50
0
  71
0
  3
isocp.shx
  0
STYLE
  2
KICADB
  70
0
  40
0
  41
1
  42
1
  50
0
  71
0
  3
isocp.shx
  0
STYLE
  2
KICADI
  70
0
  40
0
  41
1
  42
1
  50
15
  71
0
  3
isocp.shx
  0
STYLE
  2
KICADBI
  70
0
  40
0
  41
1
  42
1
  50
15
  71
0
  3
isocp.shx
  0
ENDTAB
  0
TABLE
  2
LAYER
  70
1
  0
LAYER
  2
BLACK
  70
0
  62
7
  6
CONTINUOUS
  0
ENDTAB
  0
ENDSEC
  0
SECTION
  2
ENTITIES
0
LINE
8
BLACK
6
CONTINUOUS
10
144.0102949999999851
20
-61.7769029999999972
11
144.023824999999988
21
-61.7904330000000002
0
LINE
8
BLACK
6
CONTINUOUS
10
144.023824999999988
20
-61.7904330000000002
11
144.0257279999999867
21
-61.7999999999999972
0
LINE
8
BLACK
6
CONTINUOUS
10
144.0257279999999867
20
-61.7999999999999972
11
144.0257279999999867
21
-91.
0
LINE
8
BLACK
6
CONTINUOUS
10
144.0257279999999867
20
-91.
11
144.023824999999988
21
-91.0095669999999899
0
LINE
8
BLACK
6
CONTINUOUS
10
144.023824999999988
20
-91.0095669999999899
11
144.0102949999999851
21
-91.0230969999999928
0
LINE
8
BLACK
6
CONTINUOUS
10
144.0102949999999851
20
-91.0230969999999928
11
144.000727999999981
21
-91.0249999999999915
0
LINE
8
BLACK
6
CONTINUOUS
10
144.000727999999981
20
-91.0249999999999915
11
131.9067359999999951
21
-91.0249999999999915
0
LINE
8
BLACK
6
CONTINUOUS
10
131.9067359999999951
20
-91.0249999999999915
11
131.897168999999991
21
-91.0230969999999928
0
LINE
8
BLACK
6
CONTINUOUS
10
131.897168999999991
20
-91.0230969999999928
11
131.8836389999999881
21
-91.0095669999999899
0
LINE
8
BLACK
6
CONTINUOUS
10
131.8836389999999881
20
-91.0095669999999899
11
131.8817359999999894
21
-91.
0
LINE
8
BLACK
6
CONTINUOUS
10
131.8817359999999894
20
-91.
11
131.8817359999999894
21
-61.7999999999999972
0
LINE
8
BLACK
6
CONTINUOUS
10
131.8817359999999894
20
-61.7999999999999972
11
131.8836389999999881
21
-61.7904330000000002
0
LINE
8
BLACK
6
CONTINUOUS
10
131.8836389999999881
20
-61.7904330000000002
11
131.897168999999991
21
-61.7769029999999972
0
LINE
8
BLACK
6
CONTINUOUS
10
131.897168999999991
20
-61.7769029999999972
11
131.9067359999999951
21
-61.7749999999999986
0
LINE
8
BLACK
6
CONTINUOUS
10
131.9067359999999951
20
-61.7749999999999986
11
144.000727999999981
21
-61.7749999999999986
0
LINE
8
BLACK
6
CONTINUOUS
10
144.000727999999981
20
-61.7749999999999986
11
144.0102949999999851
21
-61.7769029999999972
0
LINE
8
BLACK
6
CONTINUOUS
10
131.9317360000000008
20
-61.8249999999999957
11
131.9317360000000008
21
-90.9749999999999943
0
LINE
8
BLACK
6
CONTINUOUS
10
131.9317360000000008
20
-90.9749999999999943
11
143.9757280000000037
21
-90.9749999999999943
0
LINE
8
BLACK
6
CONTINUOUS
10
143.9757280000000037
20
-90.9749999999999943
11
143.9757280000000037
21
-61.8249999999999957
0
LINE
8
BLACK
6
CONTINUOUS
10
143.9757280000000037
20
-61.8249999999999957
11
131.9317360000000008
21
-61.8249999999999957
0
CIRCLE
8
BLACK
10
136.4000000000000057
20
-66.5999999999999943
40
1.
0
CIRCLE
8
BLACK
10
136.4000000000000057
20
-71.5999999999999943
40
0.35
0
CIRCLE
8
BLACK
10
135.
20
-63.7999999999999972
40
1.
0
CIRCLE
8
BLACK
10
135.
20
-68.7999999999999972
40
0.35
0
CIRCLE
8
BLACK
10
141.4000000000000057
20
-74.1949999999999932
40
0.4
0
CIRCLE
8
BLACK
10
138.8599999999999852
20
-74.1949999999999932
40
0.4
0
CIRCLE
8
BLACK
10
136.3199999999999932
20
-74.1949999999999932
40
0.4
0
CIRCLE
8
BLACK
10
133.7800000000000011
20
-74.1949999999999932
40
0.4
0
CIRCLE
8
BLACK
10
133.7800000000000011
20
-81.8149999999999977
40
0.4
0
CIRCLE
8
BLACK
10
136.3199999999999932
20
-81.8149999999999977
40
0.4
0
CIRCLE
8
BLACK
10
138.8599999999999852
20
-81.8149999999999977
40
0.4
0
CIRCLE
8
BLACK
10
141.4000000000000057
20
-81.8149999999999977
40
0.4
0
CIRCLE
8
BLACK
10
139.1999999999999886
20
-66.5999999999999943
40
1.
0
CIRCLE
8
BLACK
10
139.1999999999999886
20
-71.5999999999999943
40
0.35
0
CIRCLE
8
BLACK
10
133.7999999999999829
20
-66.5999999999999943
40
1.
0
CIRCLE
8
BLACK
10
133.7999999999999829
20
-71.5999999999999943
40
0.35
0
CIRCLE
8
BLACK
10
142.1999999999999886
20
-89.3999999999999915
40
1.
0
CIRCLE
8
BLACK
10
142.1999999999999886
20
-84.3999999999999915
40
0.35
0
CIRCLE
8
BLACK
10
140.5999999999999943
20
-63.7999999999999972
40
1.
0
CIRCLE
8
BLACK
10
140.5999999999999943
20
-68.7999999999999972
40
0.35
0
CIRCLE
8
BLACK
10
136.5999999999999943
20
-89.3999999999999915
40
1.
0
CIRCLE
8
BLACK
10
136.5999999999999943
20
-84.3999999999999915
40
0.35
0
CIRCLE
8
BLACK
10
142.
20
-66.5999999999999943
40
1.
0
CIRCLE
8
BLACK
10
142.
20
-71.5999999999999943
40
0.35
0
CIRCLE
8
BLACK
10
139.4000000000000057
20
-89.3999999999999915
40
1.
0
CIRCLE
8
BLACK
10
139.4000000000000057
20
-84.3999999999999915
40
0.35
0
CIRCLE
8
BLACK
10
133.7999999999999829
20
-89.3999999999999915
40
1.
0
CIRCLE
8
BLACK
10
133.7999999999999829
20
-84.3999999999999915
40
0.35
0
CIRCLE
8
WHITE
10
136.4000000000000057
20
-66.5999999999999943
40
0.999999
0
CIRCLE
8
WHITE
10
136.4000000000000057
20
-71.5999999999999943
40
0.35
0
CIRCLE
8
WHITE
10
135.
20
-63.7999999999999972
40
0.999999
0
CIRCLE
8
WHITE
10
135.
20
-68.7999999999999972
40
0.35
0
CIRCLE
8
WHITE
10
141.4000000000000057
20
-74.1949999999999932
40
0.4
0
CIRCLE
8
WHITE
10
138.8599999999999852
20
-74.1949999999999932
40
0.4
0
CIRCLE
8
WHITE
10
136.3199999999999932
20
-74.1949999999999932
40
0.4
0
CIRCLE
8
WHITE
10
133.7800000000000011
20
-74.1949999999999932
40
0.4
0
CIRCLE
8
WHITE
10
133.7800000000000011
20
-81.8149999999999977
40
0.4
0
CIRCLE
8
WHITE
10
136.3199999999999932
20
-81.8149999999999977
40
0.4
0
CIRCLE
8
WHITE
10
138.8599999999999852
20
-81.8149999999999977
40
0.4
0
CIRCLE
8
WHITE
10
141.4000000000000057
20
-81.8149999999999977
40
0.4
0
CIRCLE
8
WHITE
10
139.1999999999999886
20
-66.5999999999999943
40
0.999999
0
CIRCLE
8
WHITE
10
139.1999999999999886
20
-71.5999999999999943
40
0.35
0
CIRCLE
8
WHITE
10
133.7999999999999829
20
-66.5999999999999943
40
0.999999
0
CIRCLE
8
WHITE
10
133.7999999999999829
20
-71.5999999999999943
40
0.35
0
CIRCLE
8
WHITE
10
142.1999999999999886
20
-89.3999999999999915
40
0.999999
0
CIRCLE
8
WHITE
10
142.1999999999999886
20
-84.3999999999999915
40
0.35
0
CIRCLE
8
WHITE
10
140.5999999999999943
20
-63.7999999999999972
40
0.999999
0
CIRCLE
8
WHITE
10
140.5999999999999943
20
-68.7999999999999972
40
0.35
0
CIRCLE
8
WHITE
10
136.5999999999999943
20
-89.3999999999999915
40
0.999999
0
CIRCLE
8
WHITE
10
136.5999999999999943
20
-84.3999999999999915
40
0.35
0
CIRCLE
8
WHITE
10
142.
20
-66.5999999999999943
40
0.999999
0
CIRCLE
8
WHITE
10
142.
20
-71.5999999999999943
40
0.35
0
CIRCLE
8
WHITE
10
139.4000000000000057
20
-89.3999999999999915
40
0.999999
0
CIRCLE
8
WHITE
10
139.4000000000000057
20
-84.3999999999999915
40
0.35
0
CIRCLE
8
WHITE
10
133.7999999999999829
20
-89.3999999999999915
40
0.999999
0
CIRCLE
8
WHITE
10
133.7999999999999829
20
-84.3999999999999915
40
0.35
  0
ENDSEC
  0
EOF
