  0
SECTION
  2
HEADER
  9
$ANGBASE
  50
0.0
  9
$ANGDIR
  70
1
  9
$MEASUREMENT
  70
1
  0
ENDSEC
  0
SECTION
  2
TABLES
  0
TABLE
  2
LTYPE
  70
4
  0
LTYPE
  5
40F
  2
CONTINUOUS
  70
0
  3
Solid line
  72
65
  73
0
  40
0.0
  0
LTYPE
  5
410
  2
DASHDOT
 70
0
  3
Dash Dot ____ _ ____ _
 72
65
 73
4
 40
2.0
 49
1.25
 49
-0.25
 49
0.25
 49
-0.25
  0
LTYPE
  5
411
  2
DASHED
 70
0
  3
Dashed __ __ __ __ __
 72
65
 73
2
 40
0.75
 49
0.5
 49
-0.25
  0
LTYPE
  5
43B
  2
DOTTED
 70
0
  3
Dotted .  .  .  .
 72
65
 73
2
 40
0.2
 49
0.0
 49
-0.2
  0
ENDTAB
  0
TABLE
  2
STYLE
  70
4
  0
STYLE
  2
KICAD
  70
0
  40
0
  41
1
  42
1
  50
0
  71
0
  3
isocp.shx
  0
STYLE
  2
KICADB
  70
0
  40
0
  41
1
  42
1
  50
0
  71
0
  3
isocp.shx
  0
STYLE
  2
KICADI
  70
0
  40
0
  41
1
  42
1
  50
15
  71
0
  3
isocp.shx
  0
STYLE
  2
KICADBI
  70
0
  40
0
  41
1
  42
1
  50
15
  71
0
  3
isocp.shx
  0
ENDTAB
  0
TABLE
  2
LAYER
  70
1
  0
LAYER
  2
BLACK
  70
0
  62
7
  6
CONTINUOUS
  0
ENDTAB
  0
ENDSEC
  0
SECTION
  2
ENTITIES
0
LINE
8
BLACK
6
CONTINUOUS
10
158.5095670000000041
20
-95.3769029999999987
11
158.523097000000007
21
-95.3904330000000016
0
LINE
8
BLACK
6
CONTINUOUS
10
158.523097000000007
20
-95.3904330000000016
11
158.5250000000000057
21
-95.3999999999999915
0
LINE
8
BLACK
6
CONTINUOUS
10
158.5250000000000057
20
-95.3999999999999915
11
158.5250000000000057
21
-120.3999999999999915
0
LINE
8
BLACK
6
CONTINUOUS
10
158.5250000000000057
20
-120.3999999999999915
11
158.523097000000007
21
-120.4095669999999956
0
LINE
8
BLACK
6
CONTINUOUS
10
158.523097000000007
20
-120.4095669999999956
11
158.5095670000000041
21
-120.4230969999999985
0
LINE
8
BLACK
6
CONTINUOUS
10
158.5095670000000041
20
-120.4230969999999985
11
158.5
21
-120.4249999999999972
0
LINE
8
BLACK
6
CONTINUOUS
10
158.5
20
-120.4249999999999972
11
146.7999999999999829
21
-120.4249999999999972
0
LINE
8
BLACK
6
CONTINUOUS
10
146.7999999999999829
20
-120.4249999999999972
11
146.7904330000000073
21
-120.4230969999999985
0
LINE
8
BLACK
6
CONTINUOUS
10
146.7904330000000073
20
-120.4230969999999985
11
146.7769030000000043
21
-120.4095669999999956
0
LINE
8
BLACK
6
CONTINUOUS
10
146.7769030000000043
20
-120.4095669999999956
11
146.7750000000000057
21
-120.3999999999999915
0
LINE
8
BLACK
6
CONTINUOUS
10
146.7750000000000057
20
-120.3999999999999915
11
146.7750000000000057
21
-95.3999999999999915
0
LINE
8
BLACK
6
CONTINUOUS
10
146.7750000000000057
20
-95.3999999999999915
11
146.7769030000000043
21
-95.3904330000000016
0
LINE
8
BLACK
6
CONTINUOUS
10
146.7769030000000043
20
-95.3904330000000016
11
146.7904330000000073
21
-95.3769029999999987
0
LINE
8
BLACK
6
CONTINUOUS
10
146.7904330000000073
20
-95.3769029999999987
11
146.7999999999999829
21
-95.375
0
LINE
8
BLACK
6
CONTINUOUS
10
146.7999999999999829
20
-95.375
11
158.5
21
-95.375
0
LINE
8
BLACK
6
CONTINUOUS
10
158.5
20
-95.375
11
158.5095670000000041
21
-95.3769029999999987
0
LINE
8
BLACK
6
CONTINUOUS
10
146.8249999999999886
20
-95.4249999999999972
11
146.8249999999999886
21
-120.375
0
LINE
8
BLACK
6
CONTINUOUS
10
146.8249999999999886
20
-120.375
11
158.4749999999999943
21
-120.375
0
LINE
8
BLACK
6
CONTINUOUS
10
158.4749999999999943
20
-120.375
11
158.4749999999999943
21
-95.4249999999999972
0
LINE
8
BLACK
6
CONTINUOUS
10
158.4749999999999943
20
-95.4249999999999972
11
146.8249999999999886
21
-95.4249999999999972
0
CIRCLE
8
BLACK
10
148.0999999999999943
20
-100.
40
0.35
0
CIRCLE
8
BLACK
10
157.
20
-100.
40
0.35
0
CIRCLE
8
BLACK
10
148.0999999999999943
20
-97.5
40
0.35
0
CIRCLE
8
BLACK
10
154.539999999999992
20
-113.3999999999999915
40
0.375
0
CIRCLE
8
BLACK
10
152.539999999999992
20
-113.3999999999999915
40
0.375
0
CIRCLE
8
BLACK
10
150.539999999999992
20
-113.3999999999999915
40
0.375
0
CIRCLE
8
BLACK
10
156.3100000000000023
20
-102.894999999999996
40
0.4
0
CIRCLE
8
BLACK
10
153.7699999999999818
20
-102.894999999999996
40
0.4
0
CIRCLE
8
BLACK
10
151.2299999999999898
20
-102.894999999999996
40
0.4
0
CIRCLE
8
BLACK
10
148.6899999999999977
20
-102.894999999999996
40
0.4
0
CIRCLE
8
BLACK
10
148.6899999999999977
20
-110.5150000000000006
40
0.4
0
CIRCLE
8
BLACK
10
151.2299999999999898
20
-110.5150000000000006
40
0.4
0
CIRCLE
8
BLACK
10
153.7699999999999818
20
-110.5150000000000006
40
0.4
0
CIRCLE
8
BLACK
10
156.3100000000000023
20
-110.5150000000000006
40
0.4
0
CIRCLE
8
BLACK
10
150.
20
-100.
40
0.5
0
CIRCLE
8
BLACK
10
150.
20
-97.4599999999999937
40
0.5
0
CIRCLE
8
BLACK
10
152.539999999999992
20
-100.
40
0.5
0
CIRCLE
8
BLACK
10
152.539999999999992
20
-97.4599999999999937
40
0.5
0
CIRCLE
8
BLACK
10
155.0799999999999841
20
-100.
40
0.5
0
CIRCLE
8
BLACK
10
155.0799999999999841
20
-97.4599999999999937
40
0.5
0
CIRCLE
8
WHITE
10
148.0999999999999943
20
-100.
40
0.35
0
CIRCLE
8
WHITE
10
157.
20
-100.
40
0.35
0
CIRCLE
8
WHITE
10
148.0999999999999943
20
-97.5
40
0.35
0
CIRCLE
8
WHITE
10
154.539999999999992
20
-113.3999999999999915
40
0.375
0
CIRCLE
8
WHITE
10
152.539999999999992
20
-113.3999999999999915
40
0.375
0
CIRCLE
8
WHITE
10
150.539999999999992
20
-113.3999999999999915
40
0.375
0
CIRCLE
8
WHITE
10
156.3100000000000023
20
-102.894999999999996
40
0.4
0
CIRCLE
8
WHITE
10
153.7699999999999818
20
-102.894999999999996
40
0.4
0
CIRCLE
8
WHITE
10
151.2299999999999898
20
-102.894999999999996
40
0.4
0
CIRCLE
8
WHITE
10
148.6899999999999977
20
-102.894999999999996
40
0.4
0
CIRCLE
8
WHITE
10
148.6899999999999977
20
-110.5150000000000006
40
0.4
0
CIRCLE
8
WHITE
10
151.2299999999999898
20
-110.5150000000000006
40
0.4
0
CIRCLE
8
WHITE
10
153.7699999999999818
20
-110.5150000000000006
40
0.4
0
CIRCLE
8
WHITE
10
156.3100000000000023
20
-110.5150000000000006
40
0.4
0
CIRCLE
8
WHITE
10
150.
20
-100.
40
0.5
0
CIRCLE
8
WHITE
10
150.
20
-97.4599999999999937
40
0.5
0
CIRCLE
8
WHITE
10
152.539999999999992
20
-100.
40
0.5
0
CIRCLE
8
WHITE
10
152.539999999999992
20
-97.4599999999999937
40
0.5
0
CIRCLE
8
WHITE
10
155.0799999999999841
20
-100.
40
0.5
0
CIRCLE
8
WHITE
10
155.0799999999999841
20
-97.4599999999999937
40
0.5
  0
ENDSEC
  0
EOF
