  0
SECTION
  2
HEADER
  9
$ANGBASE
  50
0.0
  9
$ANGDIR
  70
1
  9
$MEASUREMENT
  70
1
  0
ENDSEC
  0
SECTION
  2
TABLES
  0
TABLE
  2
LTYPE
  70
4
  0
LTYPE
  5
40F
  2
CONTINUOUS
  70
0
  3
Solid line
  72
65
  73
0
  40
0.0
  0
LTYPE
  5
410
  2
DASHDOT
 70
0
  3
Dash Dot ____ _ ____ _
 72
65
 73
4
 40
2.0
 49
1.25
 49
-0.25
 49
0.25
 49
-0.25
  0
LTYPE
  5
411
  2
DASHED
 70
0
  3
Dashed __ __ __ __ __
 72
65
 73
2
 40
0.75
 49
0.5
 49
-0.25
  0
LTYPE
  5
43B
  2
DOTTED
 70
0
  3
Dotted .  .  .  .
 72
65
 73
2
 40
0.2
 49
0.0
 49
-0.2
  0
ENDTAB
  0
TABLE
  2
STYLE
  70
4
  0
STYLE
  2
KICAD
  70
0
  40
0
  41
1
  42
1
  50
0
  71
0
  3
isocp.shx
  0
STYLE
  2
KICADB
  70
0
  40
0
  41
1
  42
1
  50
0
  71
0
  3
isocp.shx
  0
STYLE
  2
KICADI
  70
0
  40
0
  41
1
  42
1
  50
15
  71
0
  3
isocp.shx
  0
STYLE
  2
KICADBI
  70
0
  40
0
  41
1
  42
1
  50
15
  71
0
  3
isocp.shx
  0
ENDTAB
  0
TABLE
  2
LAYER
  70
1
  0
LAYER
  2
BLACK
  70
0
  62
7
  6
CONTINUOUS
  0
ENDTAB
  0
ENDSEC
  0
SECTION
  2
ENTITIES
0
LINE
8
BLACK
6
CONTINUOUS
10
150.9856709999999964
20
-112.5440299999999922
11
151.0667770000000019
21
-112.5982229999999902
0
LINE
8
BLACK
6
CONTINUOUS
10
151.0667770000000019
20
-112.5982229999999902
11
151.1209699999999998
21
-112.6793289999999956
0
LINE
8
BLACK
6
CONTINUOUS
10
151.1209699999999998
20
-112.6793289999999956
11
151.1399999999999864
21
-112.7749999999999915
0
LINE
8
BLACK
6
CONTINUOUS
10
151.1399999999999864
20
-112.7749999999999915
11
151.1399999999999864
21
-114.0249999999999915
0
LINE
8
BLACK
6
CONTINUOUS
10
151.1399999999999864
20
-114.0249999999999915
11
151.1209699999999998
21
-114.1206710000000015
0
LINE
8
BLACK
6
CONTINUOUS
10
151.1209699999999998
20
-114.1206710000000015
11
151.0667770000000019
21
-114.2017769999999928
0
LINE
8
BLACK
6
CONTINUOUS
10
151.0667770000000019
20
-114.2017769999999928
11
150.9856709999999964
21
-114.2559699999999907
0
LINE
8
BLACK
6
CONTINUOUS
10
150.9856709999999964
20
-114.2559699999999907
11
150.8899999999999864
21
-114.2749999999999915
0
LINE
8
BLACK
6
CONTINUOUS
10
150.8899999999999864
20
-114.2749999999999915
11
150.1899999999999977
21
-114.2749999999999915
0
LINE
8
BLACK
6
CONTINUOUS
10
150.1899999999999977
20
-114.2749999999999915
11
150.0943289999999877
21
-114.2559699999999907
0
LINE
8
BLACK
6
CONTINUOUS
10
150.0943289999999877
20
-114.2559699999999907
11
150.0132229999999822
21
-114.2017769999999928
0
LINE
8
BLACK
6
CONTINUOUS
10
150.0132229999999822
20
-114.2017769999999928
11
149.9590299999999843
21
-114.1206710000000015
0
LINE
8
BLACK
6
CONTINUOUS
10
149.9590299999999843
20
-114.1206710000000015
11
149.9399999999999977
21
-114.0249999999999915
0
LINE
8
BLACK
6
CONTINUOUS
10
149.9399999999999977
20
-114.0249999999999915
11
149.9399999999999977
21
-112.7749999999999915
0
LINE
8
BLACK
6
CONTINUOUS
10
149.9399999999999977
20
-112.7749999999999915
11
149.9590299999999843
21
-112.6793289999999956
0
LINE
8
BLACK
6
CONTINUOUS
10
149.9590299999999843
20
-112.6793289999999956
11
150.0132229999999822
21
-112.5982229999999902
0
LINE
8
BLACK
6
CONTINUOUS
10
150.0132229999999822
20
-112.5982229999999902
11
150.0943289999999877
21
-112.5440299999999922
0
LINE
8
BLACK
6
CONTINUOUS
10
150.0943289999999877
20
-112.5440299999999922
11
150.1899999999999977
21
-112.5249999999999915
0
LINE
8
BLACK
6
CONTINUOUS
10
150.1899999999999977
20
-112.5249999999999915
11
150.8899999999999864
21
-112.5249999999999915
0
LINE
8
BLACK
6
CONTINUOUS
10
150.8899999999999864
20
-112.5249999999999915
11
150.9856709999999964
21
-112.5440299999999922
0
LINE
8
BLACK
6
CONTINUOUS
10
152.7696100000000001
20
-112.5706720000000018
11
152.905257000000006
21
-112.6489879999999886
0
LINE
8
BLACK
6
CONTINUOUS
10
152.905257000000006
20
-112.6489879999999886
11
153.0160119999999893
21
-112.7597430000000003
0
LINE
8
BLACK
6
CONTINUOUS
10
153.0160119999999893
20
-112.7597430000000003
11
153.0943279999999902
21
-112.8953899999999919
0
LINE
8
BLACK
6
CONTINUOUS
10
153.0943279999999902
20
-112.8953899999999919
11
153.1348669999999856
21
-113.0466839999999991
0
LINE
8
BLACK
6
CONTINUOUS
10
153.1348669999999856
20
-113.0466839999999991
11
153.1399999999999864
21
-113.125
0
LINE
8
BLACK
6
CONTINUOUS
10
153.1399999999999864
20
-113.125
11
153.1399999999999864
21
-113.6749999999999972
0
LINE
8
BLACK
6
CONTINUOUS
10
153.1399999999999864
20
-113.6749999999999972
11
153.1348669999999856
21
-113.7533159999999981
0
LINE
8
BLACK
6
CONTINUOUS
10
153.1348669999999856
20
-113.7533159999999981
11
153.0943279999999902
21
-113.904609999999991
0
LINE
8
BLACK
6
CONTINUOUS
10
153.0943279999999902
20
-113.904609999999991
11
153.0160119999999893
21
-114.0402569999999969
0
LINE
8
BLACK
6
CONTINUOUS
10
153.0160119999999893
20
-114.0402569999999969
11
152.905257000000006
21
-114.1510119999999944
0
LINE
8
BLACK
6
CONTINUOUS
10
152.905257000000006
20
-114.1510119999999944
11
152.7696100000000001
21
-114.2293279999999953
0
LINE
8
BLACK
6
CONTINUOUS
10
152.7696100000000001
20
-114.2293279999999953
11
152.618315999999993
21
-114.2698669999999908
0
LINE
8
BLACK
6
CONTINUOUS
10
152.618315999999993
20
-114.2698669999999908
11
152.4616839999999911
21
-114.2698669999999908
0
LINE
8
BLACK
6
CONTINUOUS
10
152.4616839999999911
20
-114.2698669999999908
11
152.310389999999984
21
-114.2293279999999953
0
LINE
8
BLACK
6
CONTINUOUS
10
152.310389999999984
20
-114.2293279999999953
11
152.1747430000000065
21
-114.1510119999999944
0
LINE
8
BLACK
6
CONTINUOUS
10
152.1747430000000065
20
-114.1510119999999944
11
152.0639879999999948
21
-114.0402569999999969
0
LINE
8
BLACK
6
CONTINUOUS
10
152.0639879999999948
20
-114.0402569999999969
11
151.9856719999999939
21
-113.904609999999991
0
LINE
8
BLACK
6
CONTINUOUS
10
151.9856719999999939
20
-113.904609999999991
11
151.9451329999999984
21
-113.7533159999999981
0
LINE
8
BLACK
6
CONTINUOUS
10
151.9451329999999984
20
-113.7533159999999981
11
151.9399999999999977
21
-113.6749999999999972
0
LINE
8
BLACK
6
CONTINUOUS
10
151.9399999999999977
20
-113.6749999999999972
11
151.9399999999999977
21
-113.125
0
LINE
8
BLACK
6
CONTINUOUS
10
151.9399999999999977
20
-113.125
11
151.9451329999999984
21
-113.0466839999999991
0
LINE
8
BLACK
6
CONTINUOUS
10
151.9451329999999984
20
-113.0466839999999991
11
151.9856719999999939
21
-112.8953899999999919
0
LINE
8
BLACK
6
CONTINUOUS
10
151.9856719999999939
20
-112.8953899999999919
11
152.0639879999999948
21
-112.7597430000000003
0
LINE
8
BLACK
6
CONTINUOUS
10
152.0639879999999948
20
-112.7597430000000003
11
152.1747430000000065
21
-112.6489879999999886
0
LINE
8
BLACK
6
CONTINUOUS
10
152.1747430000000065
20
-112.6489879999999886
11
152.310389999999984
21
-112.5706720000000018
0
LINE
8
BLACK
6
CONTINUOUS
10
152.310389999999984
20
-112.5706720000000018
11
152.4616839999999911
21
-112.5301329999999922
0
LINE
8
BLACK
6
CONTINUOUS
10
152.4616839999999911
20
-112.5301329999999922
11
152.618315999999993
21
-112.5301329999999922
0
LINE
8
BLACK
6
CONTINUOUS
10
152.618315999999993
20
-112.5301329999999922
11
152.7696100000000001
21
-112.5706720000000018
0
LINE
8
BLACK
6
CONTINUOUS
10
154.7696100000000001
20
-112.5706720000000018
11
154.905257000000006
21
-112.6489879999999886
0
LINE
8
BLACK
6
CONTINUOUS
10
154.905257000000006
20
-112.6489879999999886
11
155.0160119999999893
21
-112.7597430000000003
0
LINE
8
BLACK
6
CONTINUOUS
10
155.0160119999999893
20
-112.7597430000000003
11
155.0943279999999902
21
-112.8953899999999919
0
LINE
8
BLACK
6
CONTINUOUS
10
155.0943279999999902
20
-112.8953899999999919
11
155.1348669999999856
21
-113.0466839999999991
0
LINE
8
BLACK
6
CONTINUOUS
10
155.1348669999999856
20
-113.0466839999999991
11
155.1399999999999864
21
-113.125
0
LINE
8
BLACK
6
CONTINUOUS
10
155.1399999999999864
20
-113.125
11
155.1399999999999864
21
-113.6749999999999972
0
LINE
8
BLACK
6
CONTINUOUS
10
155.1399999999999864
20
-113.6749999999999972
11
155.1348669999999856
21
-113.7533159999999981
0
LINE
8
BLACK
6
CONTINUOUS
10
155.1348669999999856
20
-113.7533159999999981
11
155.0943279999999902
21
-113.904609999999991
0
LINE
8
BLACK
6
CONTINUOUS
10
155.0943279999999902
20
-113.904609999999991
11
155.0160119999999893
21
-114.0402569999999969
0
LINE
8
BLACK
6
CONTINUOUS
10
155.0160119999999893
20
-114.0402569999999969
11
154.905257000000006
21
-114.1510119999999944
0
LINE
8
BLACK
6
CONTINUOUS
10
154.905257000000006
20
-114.1510119999999944
11
154.7696100000000001
21
-114.2293279999999953
0
LINE
8
BLACK
6
CONTINUOUS
10
154.7696100000000001
20
-114.2293279999999953
11
154.618315999999993
21
-114.2698669999999908
0
LINE
8
BLACK
6
CONTINUOUS
10
154.618315999999993
20
-114.2698669999999908
11
154.4616839999999911
21
-114.2698669999999908
0
LINE
8
BLACK
6
CONTINUOUS
10
154.4616839999999911
20
-114.2698669999999908
11
154.310389999999984
21
-114.2293279999999953
0
LINE
8
BLACK
6
CONTINUOUS
10
154.310389999999984
20
-114.2293279999999953
11
154.1747430000000065
21
-114.1510119999999944
0
LINE
8
BLACK
6
CONTINUOUS
10
154.1747430000000065
20
-114.1510119999999944
11
154.0639879999999948
21
-114.0402569999999969
0
LINE
8
BLACK
6
CONTINUOUS
10
154.0639879999999948
20
-114.0402569999999969
11
153.9856719999999939
21
-113.904609999999991
0
LINE
8
BLACK
6
CONTINUOUS
10
153.9856719999999939
20
-113.904609999999991
11
153.9451329999999984
21
-113.7533159999999981
0
LINE
8
BLACK
6
CONTINUOUS
10
153.9451329999999984
20
-113.7533159999999981
11
153.9399999999999977
21
-113.6749999999999972
0
LINE
8
BLACK
6
CONTINUOUS
10
153.9399999999999977
20
-113.6749999999999972
11
153.9399999999999977
21
-113.125
0
LINE
8
BLACK
6
CONTINUOUS
10
153.9399999999999977
20
-113.125
11
153.9451329999999984
21
-113.0466839999999991
0
LINE
8
BLACK
6
CONTINUOUS
10
153.9451329999999984
20
-113.0466839999999991
11
153.9856719999999939
21
-112.8953899999999919
0
LINE
8
BLACK
6
CONTINUOUS
10
153.9856719999999939
20
-112.8953899999999919
11
154.0639879999999948
21
-112.7597430000000003
0
LINE
8
BLACK
6
CONTINUOUS
10
154.0639879999999948
20
-112.7597430000000003
11
154.1747430000000065
21
-112.6489879999999886
0
LINE
8
BLACK
6
CONTINUOUS
10
154.1747430000000065
20
-112.6489879999999886
11
154.310389999999984
21
-112.5706720000000018
0
LINE
8
BLACK
6
CONTINUOUS
10
154.310389999999984
20
-112.5706720000000018
11
154.4616839999999911
21
-112.5301329999999922
0
LINE
8
BLACK
6
CONTINUOUS
10
154.4616839999999911
20
-112.5301329999999922
11
154.618315999999993
21
-112.5301329999999922
0
LINE
8
BLACK
6
CONTINUOUS
10
154.618315999999993
20
-112.5301329999999922
11
154.7696100000000001
21
-112.5706720000000018
0
LINE
8
BLACK
6
CONTINUOUS
10
148.9222279999999898
20
-109.749448000000001
11
149.0671169999999961
21
-109.8094629999999938
0
LINE
8
BLACK
6
CONTINUOUS
10
149.0671169999999961
20
-109.8094629999999938
11
149.1975149999999815
21
-109.8965919999999983
0
LINE
8
BLACK
6
CONTINUOUS
10
149.1975149999999815
20
-109.8965919999999983
11
149.3084079999999858
21
-110.0074849999999884
0
LINE
8
BLACK
6
CONTINUOUS
10
149.3084079999999858
20
-110.0074849999999884
11
149.3955369999999903
21
-110.137882999999988
0
LINE
8
BLACK
6
CONTINUOUS
10
149.3955369999999903
20
-110.137882999999988
11
149.4555519999999831
21
-110.2827719999999943
0
LINE
8
BLACK
6
CONTINUOUS
10
149.4555519999999831
20
-110.2827719999999943
11
149.4861479999999858
21
-110.4365859999999913
0
LINE
8
BLACK
6
CONTINUOUS
10
149.4861479999999858
20
-110.4365859999999913
11
149.4861479999999858
21
-110.5934139999999957
0
LINE
8
BLACK
6
CONTINUOUS
10
149.4861479999999858
20
-110.5934139999999957
11
149.4555519999999831
21
-110.7472279999999927
0
LINE
8
BLACK
6
CONTINUOUS
10
149.4555519999999831
20
-110.7472279999999927
11
149.3955369999999903
21
-110.8921169999999989
0
LINE
8
BLACK
6
CONTINUOUS
10
149.3955369999999903
20
-110.8921169999999989
11
149.3084079999999858
21
-111.0225149999999985
0
LINE
8
BLACK
6
CONTINUOUS
10
149.3084079999999858
20
-111.0225149999999985
11
149.1975149999999815
21
-111.1334079999999886
0
LINE
8
BLACK
6
CONTINUOUS
10
149.1975149999999815
20
-111.1334079999999886
11
149.0671169999999961
21
-111.2205369999999931
0
LINE
8
BLACK
6
CONTINUOUS
10
149.0671169999999961
20
-111.2205369999999931
11
148.9222279999999898
21
-111.2805520000000001
0
LINE
8
BLACK
6
CONTINUOUS
10
148.9222279999999898
20
-111.2805520000000001
11
148.768414000000007
21
-111.3111479999999887
0
LINE
8
BLACK
6
CONTINUOUS
10
148.768414000000007
20
-111.3111479999999887
11
148.6115859999999884
21
-111.3111479999999887
0
LINE
8
BLACK
6
CONTINUOUS
10
148.6115859999999884
20
-111.3111479999999887
11
148.4577720000000056
21
-111.2805520000000001
0
LINE
8
BLACK
6
CONTINUOUS
10
148.4577720000000056
20
-111.2805520000000001
11
148.3128829999999994
21
-111.2205369999999931
0
LINE
8
BLACK
6
CONTINUOUS
10
148.3128829999999994
20
-111.2205369999999931
11
148.1824849999999856
21
-111.1334079999999886
0
LINE
8
BLACK
6
CONTINUOUS
10
148.1824849999999856
20
-111.1334079999999886
11
148.0715919999999812
21
-111.0225149999999985
0
LINE
8
BLACK
6
CONTINUOUS
10
148.0715919999999812
20
-111.0225149999999985
11
147.9844630000000052
21
-110.8921169999999989
0
LINE
8
BLACK
6
CONTINUOUS
10
147.9844630000000052
20
-110.8921169999999989
11
147.9244479999999839
21
-110.7472279999999927
0
LINE
8
BLACK
6
CONTINUOUS
10
147.9244479999999839
20
-110.7472279999999927
11
147.8938519999999812
21
-110.5934139999999957
0
LINE
8
BLACK
6
CONTINUOUS
10
147.8938519999999812
20
-110.5934139999999957
11
147.8938519999999812
21
-110.4365859999999913
0
LINE
8
BLACK
6
CONTINUOUS
10
147.8938519999999812
20
-110.4365859999999913
11
147.9244479999999839
21
-110.2827719999999943
0
LINE
8
BLACK
6
CONTINUOUS
10
147.9244479999999839
20
-110.2827719999999943
11
147.9844630000000052
21
-110.137882999999988
0
LINE
8
BLACK
6
CONTINUOUS
10
147.9844630000000052
20
-110.137882999999988
11
148.0715919999999812
21
-110.0074849999999884
0
LINE
8
BLACK
6
CONTINUOUS
10
148.0715919999999812
20
-110.0074849999999884
11
148.1824849999999856
21
-109.8965919999999983
0
LINE
8
BLACK
6
CONTINUOUS
10
148.1824849999999856
20
-109.8965919999999983
11
148.3128829999999994
21
-109.8094629999999938
0
LINE
8
BLACK
6
CONTINUOUS
10
148.3128829999999994
20
-109.8094629999999938
11
148.4577720000000056
21
-109.749448000000001
0
LINE
8
BLACK
6
CONTINUOUS
10
148.4577720000000056
20
-109.749448000000001
11
148.6115859999999884
21
-109.7188519999999983
0
LINE
8
BLACK
6
CONTINUOUS
10
148.6115859999999884
20
-109.7188519999999983
11
148.768414000000007
21
-109.7188519999999983
0
LINE
8
BLACK
6
CONTINUOUS
10
148.768414000000007
20
-109.7188519999999983
11
148.9222279999999898
21
-109.749448000000001
0
LINE
8
BLACK
6
CONTINUOUS
10
151.4622279999999819
20
-109.749448000000001
11
151.6071169999999881
21
-109.8094629999999938
0
LINE
8
BLACK
6
CONTINUOUS
10
151.6071169999999881
20
-109.8094629999999938
11
151.7375150000000019
21
-109.8965919999999983
0
LINE
8
BLACK
6
CONTINUOUS
10
151.7375150000000019
20
-109.8965919999999983
11
151.8484080000000063
21
-110.0074849999999884
0
LINE
8
BLACK
6
CONTINUOUS
10
151.8484080000000063
20
-110.0074849999999884
11
151.9355369999999823
21
-110.137882999999988
0
LINE
8
BLACK
6
CONTINUOUS
10
151.9355369999999823
20
-110.137882999999988
11
151.9955520000000035
21
-110.2827719999999943
0
LINE
8
BLACK
6
CONTINUOUS
10
151.9955520000000035
20
-110.2827719999999943
11
152.0261480000000063
21
-110.4365859999999913
0
LINE
8
BLACK
6
CONTINUOUS
10
152.0261480000000063
20
-110.4365859999999913
11
152.0261480000000063
21
-110.5934139999999957
0
LINE
8
BLACK
6
CONTINUOUS
10
152.0261480000000063
20
-110.5934139999999957
11
151.9955520000000035
21
-110.7472279999999927
0
LINE
8
BLACK
6
CONTINUOUS
10
151.9955520000000035
20
-110.7472279999999927
11
151.9355369999999823
21
-110.8921169999999989
0
LINE
8
BLACK
6
CONTINUOUS
10
151.9355369999999823
20
-110.8921169999999989
11
151.8484080000000063
21
-111.0225149999999985
0
LINE
8
BLACK
6
CONTINUOUS
10
151.8484080000000063
20
-111.0225149999999985
11
151.7375150000000019
21
-111.1334079999999886
0
LINE
8
BLACK
6
CONTINUOUS
10
151.7375150000000019
20
-111.1334079999999886
11
151.6071169999999881
21
-111.2205369999999931
0
LINE
8
BLACK
6
CONTINUOUS
10
151.6071169999999881
20
-111.2205369999999931
11
151.4622279999999819
21
-111.2805520000000001
0
LINE
8
BLACK
6
CONTINUOUS
10
151.4622279999999819
20
-111.2805520000000001
11
151.3084139999999991
21
-111.3111479999999887
0
LINE
8
BLACK
6
CONTINUOUS
10
151.3084139999999991
20
-111.3111479999999887
11
151.1515859999999805
21
-111.3111479999999887
0
LINE
8
BLACK
6
CONTINUOUS
10
151.1515859999999805
20
-111.3111479999999887
11
150.9977719999999977
21
-111.2805520000000001
0
LINE
8
BLACK
6
CONTINUOUS
10
150.9977719999999977
20
-111.2805520000000001
11
150.8528829999999914
21
-111.2205369999999931
0
LINE
8
BLACK
6
CONTINUOUS
10
150.8528829999999914
20
-111.2205369999999931
11
150.722485000000006
21
-111.1334079999999886
0
LINE
8
BLACK
6
CONTINUOUS
10
150.722485000000006
20
-111.1334079999999886
11
150.6115920000000017
21
-111.0225149999999985
0
LINE
8
BLACK
6
CONTINUOUS
10
150.6115920000000017
20
-111.0225149999999985
11
150.5244629999999972
21
-110.8921169999999989
0
LINE
8
BLACK
6
CONTINUOUS
10
150.5244629999999972
20
-110.8921169999999989
11
150.4644480000000044
21
-110.7472279999999927
0
LINE
8
BLACK
6
CONTINUOUS
10
150.4644480000000044
20
-110.7472279999999927
11
150.4338520000000017
21
-110.5934139999999957
0
LINE
8
BLACK
6
CONTINUOUS
10
150.4338520000000017
20
-110.5934139999999957
11
150.4338520000000017
21
-110.4365859999999913
0
LINE
8
BLACK
6
CONTINUOUS
10
150.4338520000000017
20
-110.4365859999999913
11
150.4644480000000044
21
-110.2827719999999943
0
LINE
8
BLACK
6
CONTINUOUS
10
150.4644480000000044
20
-110.2827719999999943
11
150.5244629999999972
21
-110.137882999999988
0
LINE
8
BLACK
6
CONTINUOUS
10
150.5244629999999972
20
-110.137882999999988
11
150.6115920000000017
21
-110.0074849999999884
0
LINE
8
BLACK
6
CONTINUOUS
10
150.6115920000000017
20
-110.0074849999999884
11
150.722485000000006
21
-109.8965919999999983
0
LINE
8
BLACK
6
CONTINUOUS
10
150.722485000000006
20
-109.8965919999999983
11
150.8528829999999914
21
-109.8094629999999938
0
LINE
8
BLACK
6
CONTINUOUS
10
150.8528829999999914
20
-109.8094629999999938
11
150.9977719999999977
21
-109.749448000000001
0
LINE
8
BLACK
6
CONTINUOUS
10
150.9977719999999977
20
-109.749448000000001
11
151.1515859999999805
21
-109.7188519999999983
0
LINE
8
BLACK
6
CONTINUOUS
10
151.1515859999999805
20
-109.7188519999999983
11
151.3084139999999991
21
-109.7188519999999983
0
LINE
8
BLACK
6
CONTINUOUS
10
151.3084139999999991
20
-109.7188519999999983
11
151.4622279999999819
21
-109.749448000000001
0
LINE
8
BLACK
6
CONTINUOUS
10
154.0022280000000023
20
-109.749448000000001
11
154.1471169999999802
21
-109.8094629999999938
0
LINE
8
BLACK
6
CONTINUOUS
10
154.1471169999999802
20
-109.8094629999999938
11
154.277514999999994
21
-109.8965919999999983
0
LINE
8
BLACK
6
CONTINUOUS
10
154.277514999999994
20
-109.8965919999999983
11
154.3884079999999983
21
-110.0074849999999884
0
LINE
8
BLACK
6
CONTINUOUS
10
154.3884079999999983
20
-110.0074849999999884
11
154.4755370000000028
21
-110.137882999999988
0
LINE
8
BLACK
6
CONTINUOUS
10
154.4755370000000028
20
-110.137882999999988
11
154.5355519999999956
21
-110.2827719999999943
0
LINE
8
BLACK
6
CONTINUOUS
10
154.5355519999999956
20
-110.2827719999999943
11
154.5661479999999983
21
-110.4365859999999913
0
LINE
8
BLACK
6
CONTINUOUS
10
154.5661479999999983
20
-110.4365859999999913
11
154.5661479999999983
21
-110.5934139999999957
0
LINE
8
BLACK
6
CONTINUOUS
10
154.5661479999999983
20
-110.5934139999999957
11
154.5355519999999956
21
-110.7472279999999927
0
LINE
8
BLACK
6
CONTINUOUS
10
154.5355519999999956
20
-110.7472279999999927
11
154.4755370000000028
21
-110.8921169999999989
0
LINE
8
BLACK
6
CONTINUOUS
10
154.4755370000000028
20
-110.8921169999999989
11
154.3884079999999983
21
-111.0225149999999985
0
LINE
8
BLACK
6
CONTINUOUS
10
154.3884079999999983
20
-111.0225149999999985
11
154.277514999999994
21
-111.1334079999999886
0
LINE
8
BLACK
6
CONTINUOUS
10
154.277514999999994
20
-111.1334079999999886
11
154.1471169999999802
21
-111.2205369999999931
0
LINE
8
BLACK
6
CONTINUOUS
10
154.1471169999999802
20
-111.2205369999999931
11
154.0022280000000023
21
-111.2805520000000001
0
LINE
8
BLACK
6
CONTINUOUS
10
154.0022280000000023
20
-111.2805520000000001
11
153.8484139999999911
21
-111.3111479999999887
0
LINE
8
BLACK
6
CONTINUOUS
10
153.8484139999999911
20
-111.3111479999999887
11
153.6915860000000009
21
-111.3111479999999887
0
LINE
8
BLACK
6
CONTINUOUS
10
153.6915860000000009
20
-111.3111479999999887
11
153.5377719999999897
21
-111.2805520000000001
0
LINE
8
BLACK
6
CONTINUOUS
10
153.5377719999999897
20
-111.2805520000000001
11
153.3928829999999834
21
-111.2205369999999931
0
LINE
8
BLACK
6
CONTINUOUS
10
153.3928829999999834
20
-111.2205369999999931
11
153.2624849999999981
21
-111.1334079999999886
0
LINE
8
BLACK
6
CONTINUOUS
10
153.2624849999999981
20
-111.1334079999999886
11
153.1515919999999937
21
-111.0225149999999985
0
LINE
8
BLACK
6
CONTINUOUS
10
153.1515919999999937
20
-111.0225149999999985
11
153.0644629999999893
21
-110.8921169999999989
0
LINE
8
BLACK
6
CONTINUOUS
10
153.0644629999999893
20
-110.8921169999999989
11
153.0044479999999965
21
-110.7472279999999927
0
LINE
8
BLACK
6
CONTINUOUS
10
153.0044479999999965
20
-110.7472279999999927
11
152.9738519999999937
21
-110.5934139999999957
0
LINE
8
BLACK
6
CONTINUOUS
10
152.9738519999999937
20
-110.5934139999999957
11
152.9738519999999937
21
-110.4365859999999913
0
LINE
8
BLACK
6
CONTINUOUS
10
152.9738519999999937
20
-110.4365859999999913
11
153.0044479999999965
21
-110.2827719999999943
0
LINE
8
BLACK
6
CONTINUOUS
10
153.0044479999999965
20
-110.2827719999999943
11
153.0644629999999893
21
-110.137882999999988
0
LINE
8
BLACK
6
CONTINUOUS
10
153.0644629999999893
20
-110.137882999999988
11
153.1515919999999937
21
-110.0074849999999884
0
LINE
8
BLACK
6
CONTINUOUS
10
153.1515919999999937
20
-110.0074849999999884
11
153.2624849999999981
21
-109.8965919999999983
0
LINE
8
BLACK
6
CONTINUOUS
10
153.2624849999999981
20
-109.8965919999999983
11
153.3928829999999834
21
-109.8094629999999938
0
LINE
8
BLACK
6
CONTINUOUS
10
153.3928829999999834
20
-109.8094629999999938
11
153.5377719999999897
21
-109.749448000000001
0
LINE
8
BLACK
6
CONTINUOUS
10
153.5377719999999897
20
-109.749448000000001
11
153.6915860000000009
21
-109.7188519999999983
0
LINE
8
BLACK
6
CONTINUOUS
10
153.6915860000000009
20
-109.7188519999999983
11
153.8484139999999911
21
-109.7188519999999983
0
LINE
8
BLACK
6
CONTINUOUS
10
153.8484139999999911
20
-109.7188519999999983
11
154.0022280000000023
21
-109.749448000000001
0
LINE
8
BLACK
6
CONTINUOUS
10
156.5422279999999944
20
-109.749448000000001
11
156.6871170000000006
21
-109.8094629999999938
0
LINE
8
BLACK
6
CONTINUOUS
10
156.6871170000000006
20
-109.8094629999999938
11
156.817514999999986
21
-109.8965919999999983
0
LINE
8
BLACK
6
CONTINUOUS
10
156.817514999999986
20
-109.8965919999999983
11
156.9284079999999904
21
-110.0074849999999884
0
LINE
8
BLACK
6
CONTINUOUS
10
156.9284079999999904
20
-110.0074849999999884
11
157.0155369999999948
21
-110.137882999999988
0
LINE
8
BLACK
6
CONTINUOUS
10
157.0155369999999948
20
-110.137882999999988
11
157.0755519999999876
21
-110.2827719999999943
0
LINE
8
BLACK
6
CONTINUOUS
10
157.0755519999999876
20
-110.2827719999999943
11
157.1061479999999904
21
-110.4365859999999913
0
LINE
8
BLACK
6
CONTINUOUS
10
157.1061479999999904
20
-110.4365859999999913
11
157.1061479999999904
21
-110.5934139999999957
0
LINE
8
BLACK
6
CONTINUOUS
10
157.1061479999999904
20
-110.5934139999999957
11
157.0755519999999876
21
-110.7472279999999927
0
LINE
8
BLACK
6
CONTINUOUS
10
157.0755519999999876
20
-110.7472279999999927
11
157.0155369999999948
21
-110.8921169999999989
0
LINE
8
BLACK
6
CONTINUOUS
10
157.0155369999999948
20
-110.8921169999999989
11
156.9284079999999904
21
-111.0225149999999985
0
LINE
8
BLACK
6
CONTINUOUS
10
156.9284079999999904
20
-111.0225149999999985
11
156.817514999999986
21
-111.1334079999999886
0
LINE
8
BLACK
6
CONTINUOUS
10
156.817514999999986
20
-111.1334079999999886
11
156.6871170000000006
21
-111.2205369999999931
0
LINE
8
BLACK
6
CONTINUOUS
10
156.6871170000000006
20
-111.2205369999999931
11
156.5422279999999944
21
-111.2805520000000001
0
LINE
8
BLACK
6
CONTINUOUS
10
156.5422279999999944
20
-111.2805520000000001
11
156.3884139999999832
21
-111.3111479999999887
0
LINE
8
BLACK
6
CONTINUOUS
10
156.3884139999999832
20
-111.3111479999999887
11
156.231585999999993
21
-111.3111479999999887
0
LINE
8
BLACK
6
CONTINUOUS
10
156.231585999999993
20
-111.3111479999999887
11
156.0777719999999817
21
-111.2805520000000001
0
LINE
8
BLACK
6
CONTINUOUS
10
156.0777719999999817
20
-111.2805520000000001
11
155.9328830000000039
21
-111.2205369999999931
0
LINE
8
BLACK
6
CONTINUOUS
10
155.9328830000000039
20
-111.2205369999999931
11
155.8024849999999901
21
-111.1334079999999886
0
LINE
8
BLACK
6
CONTINUOUS
10
155.8024849999999901
20
-111.1334079999999886
11
155.6915919999999858
21
-111.0225149999999985
0
LINE
8
BLACK
6
CONTINUOUS
10
155.6915919999999858
20
-111.0225149999999985
11
155.6044629999999813
21
-110.8921169999999989
0
LINE
8
BLACK
6
CONTINUOUS
10
155.6044629999999813
20
-110.8921169999999989
11
155.5444479999999885
21
-110.7472279999999927
0
LINE
8
BLACK
6
CONTINUOUS
10
155.5444479999999885
20
-110.7472279999999927
11
155.5138519999999858
21
-110.5934139999999957
0
LINE
8
BLACK
6
CONTINUOUS
10
155.5138519999999858
20
-110.5934139999999957
11
155.5138519999999858
21
-110.4365859999999913
0
LINE
8
BLACK
6
CONTINUOUS
10
155.5138519999999858
20
-110.4365859999999913
11
155.5444479999999885
21
-110.2827719999999943
0
LINE
8
BLACK
6
CONTINUOUS
10
155.5444479999999885
20
-110.2827719999999943
11
155.6044629999999813
21
-110.137882999999988
0
LINE
8
BLACK
6
CONTINUOUS
10
155.6044629999999813
20
-110.137882999999988
11
155.6915919999999858
21
-110.0074849999999884
0
LINE
8
BLACK
6
CONTINUOUS
10
155.6915919999999858
20
-110.0074849999999884
11
155.8024849999999901
21
-109.8965919999999983
0
LINE
8
BLACK
6
CONTINUOUS
10
155.8024849999999901
20
-109.8965919999999983
11
155.9328830000000039
21
-109.8094629999999938
0
LINE
8
BLACK
6
CONTINUOUS
10
155.9328830000000039
20
-109.8094629999999938
11
156.0777719999999817
21
-109.749448000000001
0
LINE
8
BLACK
6
CONTINUOUS
10
156.0777719999999817
20
-109.749448000000001
11
156.231585999999993
21
-109.7188519999999983
0
LINE
8
BLACK
6
CONTINUOUS
10
156.231585999999993
20
-109.7188519999999983
11
156.3884139999999832
21
-109.7188519999999983
0
LINE
8
BLACK
6
CONTINUOUS
10
156.3884139999999832
20
-109.7188519999999983
11
156.5422279999999944
21
-109.749448000000001
0
LINE
8
BLACK
6
CONTINUOUS
10
156.9556709999999953
20
-102.1140299999999996
11
157.0367770000000007
21
-102.1682229999999976
0
LINE
8
BLACK
6
CONTINUOUS
10
157.0367770000000007
20
-102.1682229999999976
11
157.0909699999999987
21
-102.2493289999999888
0
LINE
8
BLACK
6
CONTINUOUS
10
157.0909699999999987
20
-102.2493289999999888
11
157.1099999999999852
21
-102.3449999999999989
0
LINE
8
BLACK
6
CONTINUOUS
10
157.1099999999999852
20
-102.3449999999999989
11
157.1099999999999852
21
-103.4449999999999932
0
LINE
8
BLACK
6
CONTINUOUS
10
157.1099999999999852
20
-103.4449999999999932
11
157.0909699999999987
21
-103.540670999999989
0
LINE
8
BLACK
6
CONTINUOUS
10
157.0909699999999987
20
-103.540670999999989
11
157.0367770000000007
21
-103.6217769999999945
0
LINE
8
BLACK
6
CONTINUOUS
10
157.0367770000000007
20
-103.6217769999999945
11
156.9556709999999953
21
-103.6759699999999924
0
LINE
8
BLACK
6
CONTINUOUS
10
156.9556709999999953
20
-103.6759699999999924
11
156.8599999999999852
21
-103.6949999999999932
0
LINE
8
BLACK
6
CONTINUOUS
10
156.8599999999999852
20
-103.6949999999999932
11
155.7599999999999909
21
-103.6949999999999932
0
LINE
8
BLACK
6
CONTINUOUS
10
155.7599999999999909
20
-103.6949999999999932
11
155.6643289999999809
21
-103.6759699999999924
0
LINE
8
BLACK
6
CONTINUOUS
10
155.6643289999999809
20
-103.6759699999999924
11
155.5832230000000038
21
-103.6217769999999945
0
LINE
8
BLACK
6
CONTINUOUS
10
155.5832230000000038
20
-103.6217769999999945
11
155.5290300000000059
21
-103.540670999999989
0
LINE
8
BLACK
6
CONTINUOUS
10
155.5290300000000059
20
-103.540670999999989
11
155.5099999999999909
21
-103.4449999999999932
0
LINE
8
BLACK
6
CONTINUOUS
10
155.5099999999999909
20
-103.4449999999999932
11
155.5099999999999909
21
-102.3449999999999989
0
LINE
8
BLACK
6
CONTINUOUS
10
155.5099999999999909
20
-102.3449999999999989
11
155.5290300000000059
21
-102.2493289999999888
0
LINE
8
BLACK
6
CONTINUOUS
10
155.5290300000000059
20
-102.2493289999999888
11
155.5832230000000038
21
-102.1682229999999976
0
LINE
8
BLACK
6
CONTINUOUS
10
155.5832230000000038
20
-102.1682229999999976
11
155.6643289999999809
21
-102.1140299999999996
0
LINE
8
BLACK
6
CONTINUOUS
10
155.6643289999999809
20
-102.1140299999999996
11
155.7599999999999909
21
-102.0949999999999989
0
LINE
8
BLACK
6
CONTINUOUS
10
155.7599999999999909
20
-102.0949999999999989
11
156.8599999999999852
21
-102.0949999999999989
0
LINE
8
BLACK
6
CONTINUOUS
10
156.8599999999999852
20
-102.0949999999999989
11
156.9556709999999953
21
-102.1140299999999996
0
LINE
8
BLACK
6
CONTINUOUS
10
148.9222279999999898
20
-102.1294479999999965
11
149.0671169999999961
21
-102.1894629999999893
0
LINE
8
BLACK
6
CONTINUOUS
10
149.0671169999999961
20
-102.1894629999999893
11
149.1975149999999815
21
-102.2765919999999937
0
LINE
8
BLACK
6
CONTINUOUS
10
149.1975149999999815
20
-102.2765919999999937
11
149.3084079999999858
21
-102.3874849999999981
0
LINE
8
BLACK
6
CONTINUOUS
10
149.3084079999999858
20
-102.3874849999999981
11
149.3955369999999903
21
-102.5178829999999977
0
LINE
8
BLACK
6
CONTINUOUS
10
149.3955369999999903
20
-102.5178829999999977
11
149.4555519999999831
21
-102.6627719999999897
0
LINE
8
BLACK
6
CONTINUOUS
10
149.4555519999999831
20
-102.6627719999999897
11
149.4861479999999858
21
-102.8165860000000009
0
LINE
8
BLACK
6
CONTINUOUS
10
149.4861479999999858
20
-102.8165860000000009
11
149.4861479999999858
21
-102.9734139999999911
0
LINE
8
BLACK
6
CONTINUOUS
10
149.4861479999999858
20
-102.9734139999999911
11
149.4555519999999831
21
-103.1272280000000023
0
LINE
8
BLACK
6
CONTINUOUS
10
149.4555519999999831
20
-103.1272280000000023
11
149.3955369999999903
21
-103.2721169999999944
0
LINE
8
BLACK
6
CONTINUOUS
10
149.3955369999999903
20
-103.2721169999999944
11
149.3084079999999858
21
-103.402514999999994
0
LINE
8
BLACK
6
CONTINUOUS
10
149.3084079999999858
20
-103.402514999999994
11
149.1975149999999815
21
-103.5134079999999983
0
LINE
8
BLACK
6
CONTINUOUS
10
149.1975149999999815
20
-103.5134079999999983
11
149.0671169999999961
21
-103.6005369999999886
0
LINE
8
BLACK
6
CONTINUOUS
10
149.0671169999999961
20
-103.6005369999999886
11
148.9222279999999898
21
-103.6605519999999956
0
LINE
8
BLACK
6
CONTINUOUS
10
148.9222279999999898
20
-103.6605519999999956
11
148.768414000000007
21
-103.6911479999999983
0
LINE
8
BLACK
6
CONTINUOUS
10
148.768414000000007
20
-103.6911479999999983
11
148.6115859999999884
21
-103.6911479999999983
0
LINE
8
BLACK
6
CONTINUOUS
10
148.6115859999999884
20
-103.6911479999999983
11
148.4577720000000056
21
-103.6605519999999956
0
LINE
8
BLACK
6
CONTINUOUS
10
148.4577720000000056
20
-103.6605519999999956
11
148.3128829999999994
21
-103.6005369999999886
0
LINE
8
BLACK
6
CONTINUOUS
10
148.3128829999999994
20
-103.6005369999999886
11
148.1824849999999856
21
-103.5134079999999983
0
LINE
8
BLACK
6
CONTINUOUS
10
148.1824849999999856
20
-103.5134079999999983
11
148.0715919999999812
21
-103.402514999999994
0
LINE
8
BLACK
6
CONTINUOUS
10
148.0715919999999812
20
-103.402514999999994
11
147.9844630000000052
21
-103.2721169999999944
0
LINE
8
BLACK
6
CONTINUOUS
10
147.9844630000000052
20
-103.2721169999999944
11
147.9244479999999839
21
-103.1272280000000023
0
LINE
8
BLACK
6
CONTINUOUS
10
147.9244479999999839
20
-103.1272280000000023
11
147.8938519999999812
21
-102.9734139999999911
0
LINE
8
BLACK
6
CONTINUOUS
10
147.8938519999999812
20
-102.9734139999999911
11
147.8938519999999812
21
-102.8165860000000009
0
LINE
8
BLACK
6
CONTINUOUS
10
147.8938519999999812
20
-102.8165860000000009
11
147.9244479999999839
21
-102.6627719999999897
0
LINE
8
BLACK
6
CONTINUOUS
10
147.9244479999999839
20
-102.6627719999999897
11
147.9844630000000052
21
-102.5178829999999977
0
LINE
8
BLACK
6
CONTINUOUS
10
147.9844630000000052
20
-102.5178829999999977
11
148.0715919999999812
21
-102.3874849999999981
0
LINE
8
BLACK
6
CONTINUOUS
10
148.0715919999999812
20
-102.3874849999999981
11
148.1824849999999856
21
-102.2765919999999937
0
LINE
8
BLACK
6
CONTINUOUS
10
148.1824849999999856
20
-102.2765919999999937
11
148.3128829999999994
21
-102.1894629999999893
0
LINE
8
BLACK
6
CONTINUOUS
10
148.3128829999999994
20
-102.1894629999999893
11
148.4577720000000056
21
-102.1294479999999965
0
LINE
8
BLACK
6
CONTINUOUS
10
148.4577720000000056
20
-102.1294479999999965
11
148.6115859999999884
21
-102.0988519999999937
0
LINE
8
BLACK
6
CONTINUOUS
10
148.6115859999999884
20
-102.0988519999999937
11
148.768414000000007
21
-102.0988519999999937
0
LINE
8
BLACK
6
CONTINUOUS
10
148.768414000000007
20
-102.0988519999999937
11
148.9222279999999898
21
-102.1294479999999965
0
LINE
8
BLACK
6
CONTINUOUS
10
151.4622279999999819
20
-102.1294479999999965
11
151.6071169999999881
21
-102.1894629999999893
0
LINE
8
BLACK
6
CONTINUOUS
10
151.6071169999999881
20
-102.1894629999999893
11
151.7375150000000019
21
-102.2765919999999937
0
LINE
8
BLACK
6
CONTINUOUS
10
151.7375150000000019
20
-102.2765919999999937
11
151.8484080000000063
21
-102.3874849999999981
0
LINE
8
BLACK
6
CONTINUOUS
10
151.8484080000000063
20
-102.3874849999999981
11
151.9355369999999823
21
-102.5178829999999977
0
LINE
8
BLACK
6
CONTINUOUS
10
151.9355369999999823
20
-102.5178829999999977
11
151.9955520000000035
21
-102.6627719999999897
0
LINE
8
BLACK
6
CONTINUOUS
10
151.9955520000000035
20
-102.6627719999999897
11
152.0261480000000063
21
-102.8165860000000009
0
LINE
8
BLACK
6
CONTINUOUS
10
152.0261480000000063
20
-102.8165860000000009
11
152.0261480000000063
21
-102.9734139999999911
0
LINE
8
BLACK
6
CONTINUOUS
10
152.0261480000000063
20
-102.9734139999999911
11
151.9955520000000035
21
-103.1272280000000023
0
LINE
8
BLACK
6
CONTINUOUS
10
151.9955520000000035
20
-103.1272280000000023
11
151.9355369999999823
21
-103.2721169999999944
0
LINE
8
BLACK
6
CONTINUOUS
10
151.9355369999999823
20
-103.2721169999999944
11
151.8484080000000063
21
-103.402514999999994
0
LINE
8
BLACK
6
CONTINUOUS
10
151.8484080000000063
20
-103.402514999999994
11
151.7375150000000019
21
-103.5134079999999983
0
LINE
8
BLACK
6
CONTINUOUS
10
151.7375150000000019
20
-103.5134079999999983
11
151.6071169999999881
21
-103.6005369999999886
0
LINE
8
BLACK
6
CONTINUOUS
10
151.6071169999999881
20
-103.6005369999999886
11
151.4622279999999819
21
-103.6605519999999956
0
LINE
8
BLACK
6
CONTINUOUS
10
151.4622279999999819
20
-103.6605519999999956
11
151.3084139999999991
21
-103.6911479999999983
0
LINE
8
BLACK
6
CONTINUOUS
10
151.3084139999999991
20
-103.6911479999999983
11
151.1515859999999805
21
-103.6911479999999983
0
LINE
8
BLACK
6
CONTINUOUS
10
151.1515859999999805
20
-103.6911479999999983
11
150.9977719999999977
21
-103.6605519999999956
0
LINE
8
BLACK
6
CONTINUOUS
10
150.9977719999999977
20
-103.6605519999999956
11
150.8528829999999914
21
-103.6005369999999886
0
LINE
8
BLACK
6
CONTINUOUS
10
150.8528829999999914
20
-103.6005369999999886
11
150.722485000000006
21
-103.5134079999999983
0
LINE
8
BLACK
6
CONTINUOUS
10
150.722485000000006
20
-103.5134079999999983
11
150.6115920000000017
21
-103.402514999999994
0
LINE
8
BLACK
6
CONTINUOUS
10
150.6115920000000017
20
-103.402514999999994
11
150.5244629999999972
21
-103.2721169999999944
0
LINE
8
BLACK
6
CONTINUOUS
10
150.5244629999999972
20
-103.2721169999999944
11
150.4644480000000044
21
-103.1272280000000023
0
LINE
8
BLACK
6
CONTINUOUS
10
150.4644480000000044
20
-103.1272280000000023
11
150.4338520000000017
21
-102.9734139999999911
0
LINE
8
BLACK
6
CONTINUOUS
10
150.4338520000000017
20
-102.9734139999999911
11
150.4338520000000017
21
-102.8165860000000009
0
LINE
8
BLACK
6
CONTINUOUS
10
150.4338520000000017
20
-102.8165860000000009
11
150.4644480000000044
21
-102.6627719999999897
0
LINE
8
BLACK
6
CONTINUOUS
10
150.4644480000000044
20
-102.6627719999999897
11
150.5244629999999972
21
-102.5178829999999977
0
LINE
8
BLACK
6
CONTINUOUS
10
150.5244629999999972
20
-102.5178829999999977
11
150.6115920000000017
21
-102.3874849999999981
0
LINE
8
BLACK
6
CONTINUOUS
10
150.6115920000000017
20
-102.3874849999999981
11
150.722485000000006
21
-102.2765919999999937
0
LINE
8
BLACK
6
CONTINUOUS
10
150.722485000000006
20
-102.2765919999999937
11
150.8528829999999914
21
-102.1894629999999893
0
LINE
8
BLACK
6
CONTINUOUS
10
150.8528829999999914
20
-102.1894629999999893
11
150.9977719999999977
21
-102.1294479999999965
0
LINE
8
BLACK
6
CONTINUOUS
10
150.9977719999999977
20
-102.1294479999999965
11
151.1515859999999805
21
-102.0988519999999937
0
LINE
8
BLACK
6
CONTINUOUS
10
151.1515859999999805
20
-102.0988519999999937
11
151.3084139999999991
21
-102.0988519999999937
0
LINE
8
BLACK
6
CONTINUOUS
10
151.3084139999999991
20
-102.0988519999999937
11
151.4622279999999819
21
-102.1294479999999965
0
LINE
8
BLACK
6
CONTINUOUS
10
154.0022280000000023
20
-102.1294479999999965
11
154.1471169999999802
21
-102.1894629999999893
0
LINE
8
BLACK
6
CONTINUOUS
10
154.1471169999999802
20
-102.1894629999999893
11
154.277514999999994
21
-102.2765919999999937
0
LINE
8
BLACK
6
CONTINUOUS
10
154.277514999999994
20
-102.2765919999999937
11
154.3884079999999983
21
-102.3874849999999981
0
LINE
8
BLACK
6
CONTINUOUS
10
154.3884079999999983
20
-102.3874849999999981
11
154.4755370000000028
21
-102.5178829999999977
0
LINE
8
BLACK
6
CONTINUOUS
10
154.4755370000000028
20
-102.5178829999999977
11
154.5355519999999956
21
-102.6627719999999897
0
LINE
8
BLACK
6
CONTINUOUS
10
154.5355519999999956
20
-102.6627719999999897
11
154.5661479999999983
21
-102.8165860000000009
0
LINE
8
BLACK
6
CONTINUOUS
10
154.5661479999999983
20
-102.8165860000000009
11
154.5661479999999983
21
-102.9734139999999911
0
LINE
8
BLACK
6
CONTINUOUS
10
154.5661479999999983
20
-102.9734139999999911
11
154.5355519999999956
21
-103.1272280000000023
0
LINE
8
BLACK
6
CONTINUOUS
10
154.5355519999999956
20
-103.1272280000000023
11
154.4755370000000028
21
-103.2721169999999944
0
LINE
8
BLACK
6
CONTINUOUS
10
154.4755370000000028
20
-103.2721169999999944
11
154.3884079999999983
21
-103.402514999999994
0
LINE
8
BLACK
6
CONTINUOUS
10
154.3884079999999983
20
-103.402514999999994
11
154.277514999999994
21
-103.5134079999999983
0
LINE
8
BLACK
6
CONTINUOUS
10
154.277514999999994
20
-103.5134079999999983
11
154.1471169999999802
21
-103.6005369999999886
0
LINE
8
BLACK
6
CONTINUOUS
10
154.1471169999999802
20
-103.6005369999999886
11
154.0022280000000023
21
-103.6605519999999956
0
LINE
8
BLACK
6
CONTINUOUS
10
154.0022280000000023
20
-103.6605519999999956
11
153.8484139999999911
21
-103.6911479999999983
0
LINE
8
BLACK
6
CONTINUOUS
10
153.8484139999999911
20
-103.6911479999999983
11
153.6915860000000009
21
-103.6911479999999983
0
LINE
8
BLACK
6
CONTINUOUS
10
153.6915860000000009
20
-103.6911479999999983
11
153.5377719999999897
21
-103.6605519999999956
0
LINE
8
BLACK
6
CONTINUOUS
10
153.5377719999999897
20
-103.6605519999999956
11
153.3928829999999834
21
-103.6005369999999886
0
LINE
8
BLACK
6
CONTINUOUS
10
153.3928829999999834
20
-103.6005369999999886
11
153.2624849999999981
21
-103.5134079999999983
0
LINE
8
BLACK
6
CONTINUOUS
10
153.2624849999999981
20
-103.5134079999999983
11
153.1515919999999937
21
-103.402514999999994
0
LINE
8
BLACK
6
CONTINUOUS
10
153.1515919999999937
20
-103.402514999999994
11
153.0644629999999893
21
-103.2721169999999944
0
LINE
8
BLACK
6
CONTINUOUS
10
153.0644629999999893
20
-103.2721169999999944
11
153.0044479999999965
21
-103.1272280000000023
0
LINE
8
BLACK
6
CONTINUOUS
10
153.0044479999999965
20
-103.1272280000000023
11
152.9738519999999937
21
-102.9734139999999911
0
LINE
8
BLACK
6
CONTINUOUS
10
152.9738519999999937
20
-102.9734139999999911
11
152.9738519999999937
21
-102.8165860000000009
0
LINE
8
BLACK
6
CONTINUOUS
10
152.9738519999999937
20
-102.8165860000000009
11
153.0044479999999965
21
-102.6627719999999897
0
LINE
8
BLACK
6
CONTINUOUS
10
153.0044479999999965
20
-102.6627719999999897
11
153.0644629999999893
21
-102.5178829999999977
0
LINE
8
BLACK
6
CONTINUOUS
10
153.0644629999999893
20
-102.5178829999999977
11
153.1515919999999937
21
-102.3874849999999981
0
LINE
8
BLACK
6
CONTINUOUS
10
153.1515919999999937
20
-102.3874849999999981
11
153.2624849999999981
21
-102.2765919999999937
0
LINE
8
BLACK
6
CONTINUOUS
10
153.2624849999999981
20
-102.2765919999999937
11
153.3928829999999834
21
-102.1894629999999893
0
LINE
8
BLACK
6
CONTINUOUS
10
153.3928829999999834
20
-102.1894629999999893
11
153.5377719999999897
21
-102.1294479999999965
0
LINE
8
BLACK
6
CONTINUOUS
10
153.5377719999999897
20
-102.1294479999999965
11
153.6915860000000009
21
-102.0988519999999937
0
LINE
8
BLACK
6
CONTINUOUS
10
153.6915860000000009
20
-102.0988519999999937
11
153.8484139999999911
21
-102.0988519999999937
0
LINE
8
BLACK
6
CONTINUOUS
10
153.8484139999999911
20
-102.0988519999999937
11
154.0022280000000023
21
-102.1294479999999965
0
LINE
8
BLACK
6
CONTINUOUS
10
148.7956709999999987
20
-99.1690299999999922
11
148.8767770000000041
21
-99.2232229999999902
0
LINE
8
BLACK
6
CONTINUOUS
10
148.8767770000000041
20
-99.2232229999999902
11
148.9309700000000021
21
-99.3043289999999956
0
LINE
8
BLACK
6
CONTINUOUS
10
148.9309700000000021
20
-99.3043289999999956
11
148.9499999999999886
21
-99.3999999999999915
0
LINE
8
BLACK
6
CONTINUOUS
10
148.9499999999999886
20
-99.3999999999999915
11
148.9499999999999886
21
-100.5999999999999943
0
LINE
8
BLACK
6
CONTINUOUS
10
148.9499999999999886
20
-100.5999999999999943
11
148.9309700000000021
21
-100.6956709999999902
0
LINE
8
BLACK
6
CONTINUOUS
10
148.9309700000000021
20
-100.6956709999999902
11
148.8767770000000041
21
-100.7767769999999956
0
LINE
8
BLACK
6
CONTINUOUS
10
148.8767770000000041
20
-100.7767769999999956
11
148.7956709999999987
21
-100.8309699999999935
0
LINE
8
BLACK
6
CONTINUOUS
10
148.7956709999999987
20
-100.8309699999999935
11
148.6999999999999886
21
-100.8499999999999943
0
LINE
8
BLACK
6
CONTINUOUS
10
148.6999999999999886
20
-100.8499999999999943
11
147.5
21
-100.8499999999999943
0
LINE
8
BLACK
6
CONTINUOUS
10
147.5
20
-100.8499999999999943
11
147.4043289999999899
21
-100.8309699999999935
0
LINE
8
BLACK
6
CONTINUOUS
10
147.4043289999999899
20
-100.8309699999999935
11
147.3232229999999845
21
-100.7767769999999956
0
LINE
8
BLACK
6
CONTINUOUS
10
147.3232229999999845
20
-100.7767769999999956
11
147.2690299999999866
21
-100.6956709999999902
0
LINE
8
BLACK
6
CONTINUOUS
10
147.2690299999999866
20
-100.6956709999999902
11
147.25
21
-100.5999999999999943
0
LINE
8
BLACK
6
CONTINUOUS
10
147.25
20
-100.5999999999999943
11
147.25
21
-99.3999999999999915
0
LINE
8
BLACK
6
CONTINUOUS
10
147.25
20
-99.3999999999999915
11
147.2690299999999866
21
-99.3043289999999956
0
LINE
8
BLACK
6
CONTINUOUS
10
147.2690299999999866
20
-99.3043289999999956
11
147.3232229999999845
21
-99.2232229999999902
0
LINE
8
BLACK
6
CONTINUOUS
10
147.3232229999999845
20
-99.2232229999999902
11
147.4043289999999899
21
-99.1690299999999922
0
LINE
8
BLACK
6
CONTINUOUS
10
147.4043289999999899
20
-99.1690299999999922
11
147.5
21
-99.1499999999999915
0
LINE
8
BLACK
6
CONTINUOUS
10
147.5
20
-99.1499999999999915
11
148.6999999999999886
21
-99.1499999999999915
0
LINE
8
BLACK
6
CONTINUOUS
10
148.6999999999999886
20
-99.1499999999999915
11
148.7956709999999987
21
-99.1690299999999922
0
LINE
8
BLACK
6
CONTINUOUS
10
150.8499999999999943
20
-100.8499999999999943
11
149.1500000000000057
21
-100.8499999999999943
0
LINE
8
BLACK
6
CONTINUOUS
10
149.1500000000000057
20
-100.8499999999999943
11
149.1500000000000057
21
-99.1499999999999915
0
LINE
8
BLACK
6
CONTINUOUS
10
149.1500000000000057
20
-99.1499999999999915
11
150.8499999999999943
21
-99.1499999999999915
0
LINE
8
BLACK
6
CONTINUOUS
10
150.8499999999999943
20
-99.1499999999999915
11
150.8499999999999943
21
-100.8499999999999943
0
LINE
8
BLACK
6
CONTINUOUS
10
157.6956710000000044
20
-99.1690299999999922
11
157.7767769999999814
21
-99.2232229999999902
0
LINE
8
BLACK
6
CONTINUOUS
10
157.7767769999999814
20
-99.2232229999999902
11
157.8309699999999793
21
-99.3043289999999956
0
LINE
8
BLACK
6
CONTINUOUS
10
157.8309699999999793
20
-99.3043289999999956
11
157.8499999999999943
21
-99.3999999999999915
0
LINE
8
BLACK
6
CONTINUOUS
10
157.8499999999999943
20
-99.3999999999999915
11
157.8499999999999943
21
-100.5999999999999943
0
LINE
8
BLACK
6
CONTINUOUS
10
157.8499999999999943
20
-100.5999999999999943
11
157.8309699999999793
21
-100.6956709999999902
0
LINE
8
BLACK
6
CONTINUOUS
10
157.8309699999999793
20
-100.6956709999999902
11
157.7767769999999814
21
-100.7767769999999956
0
LINE
8
BLACK
6
CONTINUOUS
10
157.7767769999999814
20
-100.7767769999999956
11
157.6956710000000044
21
-100.8309699999999935
0
LINE
8
BLACK
6
CONTINUOUS
10
157.6956710000000044
20
-100.8309699999999935
11
157.5999999999999943
21
-100.8499999999999943
0
LINE
8
BLACK
6
CONTINUOUS
10
157.5999999999999943
20
-100.8499999999999943
11
156.4000000000000057
21
-100.8499999999999943
0
LINE
8
BLACK
6
CONTINUOUS
10
156.4000000000000057
20
-100.8499999999999943
11
156.3043289999999956
21
-100.8309699999999935
0
LINE
8
BLACK
6
CONTINUOUS
10
156.3043289999999956
20
-100.8309699999999935
11
156.2232229999999902
21
-100.7767769999999956
0
LINE
8
BLACK
6
CONTINUOUS
10
156.2232229999999902
20
-100.7767769999999956
11
156.1690299999999922
21
-100.6956709999999902
0
LINE
8
BLACK
6
CONTINUOUS
10
156.1690299999999922
20
-100.6956709999999902
11
156.1500000000000057
21
-100.5999999999999943
0
LINE
8
BLACK
6
CONTINUOUS
10
156.1500000000000057
20
-100.5999999999999943
11
156.1500000000000057
21
-99.3999999999999915
0
LINE
8
BLACK
6
CONTINUOUS
10
156.1500000000000057
20
-99.3999999999999915
11
156.1690299999999922
21
-99.3043289999999956
0
LINE
8
BLACK
6
CONTINUOUS
10
156.1690299999999922
20
-99.3043289999999956
11
156.2232229999999902
21
-99.2232229999999902
0
LINE
8
BLACK
6
CONTINUOUS
10
156.2232229999999902
20
-99.2232229999999902
11
156.3043289999999956
21
-99.1690299999999922
0
LINE
8
BLACK
6
CONTINUOUS
10
156.3043289999999956
20
-99.1690299999999922
11
156.4000000000000057
21
-99.1499999999999915
0
LINE
8
BLACK
6
CONTINUOUS
10
156.4000000000000057
20
-99.1499999999999915
11
157.5999999999999943
21
-99.1499999999999915
0
LINE
8
BLACK
6
CONTINUOUS
10
157.5999999999999943
20
-99.1499999999999915
11
157.6956710000000044
21
-99.1690299999999922
0
LINE
8
BLACK
6
CONTINUOUS
10
152.7867420000000038
20
-99.186600999999996
11
152.9406869999999969
21
-99.2503669999999971
0
LINE
8
BLACK
6
CONTINUOUS
10
152.9406869999999969
20
-99.2503669999999971
11
153.0792339999999854
21
-99.3429409999999962
0
LINE
8
BLACK
6
CONTINUOUS
10
153.0792339999999854
20
-99.3429409999999962
11
153.1970589999999959
21
-99.4607659999999925
0
LINE
8
BLACK
6
CONTINUOUS
10
153.1970589999999959
20
-99.4607659999999925
11
153.2896329999999807
21
-99.5993129999999951
0
LINE
8
BLACK
6
CONTINUOUS
10
153.2896329999999807
20
-99.5993129999999951
11
153.353398999999996
21
-99.7532580000000024
0
LINE
8
BLACK
6
CONTINUOUS
10
153.353398999999996
20
-99.7532580000000024
11
153.3859070000000031
21
-99.9166850000000011
0
LINE
8
BLACK
6
CONTINUOUS
10
153.3859070000000031
20
-99.9166850000000011
11
153.3859070000000031
21
-100.0833149999999989
0
LINE
8
BLACK
6
CONTINUOUS
10
153.3859070000000031
20
-100.0833149999999989
11
153.353398999999996
21
-100.2467419999999976
0
LINE
8
BLACK
6
CONTINUOUS
10
153.353398999999996
20
-100.2467419999999976
11
153.2896329999999807
21
-100.4006869999999907
0
LINE
8
BLACK
6
CONTINUOUS
10
153.2896329999999807
20
-100.4006869999999907
11
153.1970589999999959
21
-100.5392339999999933
0
LINE
8
BLACK
6
CONTINUOUS
10
153.1970589999999959
20
-100.5392339999999933
11
153.0792339999999854
21
-100.6570589999999896
0
LINE
8
BLACK
6
CONTINUOUS
10
153.0792339999999854
20
-100.6570589999999896
11
152.9406869999999969
21
-100.7496329999999887
0
LINE
8
BLACK
6
CONTINUOUS
10
152.9406869999999969
20
-100.7496329999999887
11
152.7867420000000038
21
-100.8133989999999898
0
LINE
8
BLACK
6
CONTINUOUS
10
152.7867420000000038
20
-100.8133989999999898
11
152.623314999999991
21
-100.8459069999999969
0
LINE
8
BLACK
6
CONTINUOUS
10
152.623314999999991
20
-100.8459069999999969
11
152.4566849999999931
21
-100.8459069999999969
0
LINE
8
BLACK
6
CONTINUOUS
10
152.4566849999999931
20
-100.8459069999999969
11
152.2932579999999803
21
-100.8133989999999898
0
LINE
8
BLACK
6
CONTINUOUS
10
152.2932579999999803
20
-100.8133989999999898
11
152.1393129999999871
21
-100.7496329999999887
0
LINE
8
BLACK
6
CONTINUOUS
10
152.1393129999999871
20
-100.7496329999999887
11
152.0007659999999987
21
-100.6570589999999896
0
LINE
8
BLACK
6
CONTINUOUS
10
152.0007659999999987
20
-100.6570589999999896
11
151.8829409999999882
21
-100.5392339999999933
0
LINE
8
BLACK
6
CONTINUOUS
10
151.8829409999999882
20
-100.5392339999999933
11
151.7903670000000034
21
-100.4006869999999907
0
LINE
8
BLACK
6
CONTINUOUS
10
151.7903670000000034
20
-100.4006869999999907
11
151.7266009999999881
21
-100.2467419999999976
0
LINE
8
BLACK
6
CONTINUOUS
10
151.7266009999999881
20
-100.2467419999999976
11
151.694092999999981
21
-100.0833149999999989
0
LINE
8
BLACK
6
CONTINUOUS
10
151.694092999999981
20
-100.0833149999999989
11
151.694092999999981
21
-99.9166850000000011
0
LINE
8
BLACK
6
CONTINUOUS
10
151.694092999999981
20
-99.9166850000000011
11
151.7266009999999881
21
-99.7532580000000024
0
LINE
8
BLACK
6
CONTINUOUS
10
151.7266009999999881
20
-99.7532580000000024
11
151.7903670000000034
21
-99.5993129999999951
0
LINE
8
BLACK
6
CONTINUOUS
10
151.7903670000000034
20
-99.5993129999999951
11
151.8829409999999882
21
-99.4607659999999925
0
LINE
8
BLACK
6
CONTINUOUS
10
151.8829409999999882
20
-99.4607659999999925
11
152.0007659999999987
21
-99.3429409999999962
0
LINE
8
BLACK
6
CONTINUOUS
10
152.0007659999999987
20
-99.3429409999999962
11
152.1393129999999871
21
-99.2503669999999971
0
LINE
8
BLACK
6
CONTINUOUS
10
152.1393129999999871
20
-99.2503669999999971
11
152.2932579999999803
21
-99.186600999999996
0
LINE
8
BLACK
6
CONTINUOUS
10
152.2932579999999803
20
-99.186600999999996
11
152.4566849999999931
21
-99.1540929999999889
0
LINE
8
BLACK
6
CONTINUOUS
10
152.4566849999999931
20
-99.1540929999999889
11
152.623314999999991
21
-99.1540929999999889
0
LINE
8
BLACK
6
CONTINUOUS
10
152.623314999999991
20
-99.1540929999999889
11
152.7867420000000038
21
-99.186600999999996
0
LINE
8
BLACK
6
CONTINUOUS
10
155.3267419999999959
20
-99.186600999999996
11
155.480686999999989
21
-99.2503669999999971
0
LINE
8
BLACK
6
CONTINUOUS
10
155.480686999999989
20
-99.2503669999999971
11
155.6192340000000058
21
-99.3429409999999962
0
LINE
8
BLACK
6
CONTINUOUS
10
155.6192340000000058
20
-99.3429409999999962
11
155.7370589999999879
21
-99.4607659999999925
0
LINE
8
BLACK
6
CONTINUOUS
10
155.7370589999999879
20
-99.4607659999999925
11
155.8296330000000012
21
-99.5993129999999951
0
LINE
8
BLACK
6
CONTINUOUS
10
155.8296330000000012
20
-99.5993129999999951
11
155.8933989999999881
21
-99.7532580000000024
0
LINE
8
BLACK
6
CONTINUOUS
10
155.8933989999999881
20
-99.7532580000000024
11
155.9259069999999952
21
-99.9166850000000011
0
LINE
8
BLACK
6
CONTINUOUS
10
155.9259069999999952
20
-99.9166850000000011
11
155.9259069999999952
21
-100.0833149999999989
0
LINE
8
BLACK
6
CONTINUOUS
10
155.9259069999999952
20
-100.0833149999999989
11
155.8933989999999881
21
-100.2467419999999976
0
LINE
8
BLACK
6
CONTINUOUS
10
155.8933989999999881
20
-100.2467419999999976
11
155.8296330000000012
21
-100.4006869999999907
0
LINE
8
BLACK
6
CONTINUOUS
10
155.8296330000000012
20
-100.4006869999999907
11
155.7370589999999879
21
-100.5392339999999933
0
LINE
8
BLACK
6
CONTINUOUS
10
155.7370589999999879
20
-100.5392339999999933
11
155.6192340000000058
21
-100.6570589999999896
0
LINE
8
BLACK
6
CONTINUOUS
10
155.6192340000000058
20
-100.6570589999999896
11
155.480686999999989
21
-100.7496329999999887
0
LINE
8
BLACK
6
CONTINUOUS
10
155.480686999999989
20
-100.7496329999999887
11
155.3267419999999959
21
-100.8133989999999898
0
LINE
8
BLACK
6
CONTINUOUS
10
155.3267419999999959
20
-100.8133989999999898
11
155.163314999999983
21
-100.8459069999999969
0
LINE
8
BLACK
6
CONTINUOUS
10
155.163314999999983
20
-100.8459069999999969
11
154.9966849999999852
21
-100.8459069999999969
0
LINE
8
BLACK
6
CONTINUOUS
10
154.9966849999999852
20
-100.8459069999999969
11
154.8332580000000007
21
-100.8133989999999898
0
LINE
8
BLACK
6
CONTINUOUS
10
154.8332580000000007
20
-100.8133989999999898
11
154.6793129999999792
21
-100.7496329999999887
0
LINE
8
BLACK
6
CONTINUOUS
10
154.6793129999999792
20
-100.7496329999999887
11
154.5407659999999908
21
-100.6570589999999896
0
LINE
8
BLACK
6
CONTINUOUS
10
154.5407659999999908
20
-100.6570589999999896
11
154.4229409999999802
21
-100.5392339999999933
0
LINE
8
BLACK
6
CONTINUOUS
10
154.4229409999999802
20
-100.5392339999999933
11
154.3303669999999954
21
-100.4006869999999907
0
LINE
8
BLACK
6
CONTINUOUS
10
154.3303669999999954
20
-100.4006869999999907
11
154.2666009999999801
21
-100.2467419999999976
0
LINE
8
BLACK
6
CONTINUOUS
10
154.2666009999999801
20
-100.2467419999999976
11
154.2340930000000014
21
-100.0833149999999989
0
LINE
8
BLACK
6
CONTINUOUS
10
154.2340930000000014
20
-100.0833149999999989
11
154.2340930000000014
21
-99.9166850000000011
0
LINE
8
BLACK
6
CONTINUOUS
10
154.2340930000000014
20
-99.9166850000000011
11
154.2666009999999801
21
-99.7532580000000024
0
LINE
8
BLACK
6
CONTINUOUS
10
154.2666009999999801
20
-99.7532580000000024
11
154.3303669999999954
21
-99.5993129999999951
0
LINE
8
BLACK
6
CONTINUOUS
10
154.3303669999999954
20
-99.5993129999999951
11
154.4229409999999802
21
-99.4607659999999925
0
LINE
8
BLACK
6
CONTINUOUS
10
154.4229409999999802
20
-99.4607659999999925
11
154.5407659999999908
21
-99.3429409999999962
0
LINE
8
BLACK
6
CONTINUOUS
10
154.5407659999999908
20
-99.3429409999999962
11
154.6793129999999792
21
-99.2503669999999971
0
LINE
8
BLACK
6
CONTINUOUS
10
154.6793129999999792
20
-99.2503669999999971
11
154.8332580000000007
21
-99.186600999999996
0
LINE
8
BLACK
6
CONTINUOUS
10
154.8332580000000007
20
-99.186600999999996
11
154.9966849999999852
21
-99.1540929999999889
0
LINE
8
BLACK
6
CONTINUOUS
10
154.9966849999999852
20
-99.1540929999999889
11
155.163314999999983
21
-99.1540929999999889
0
LINE
8
BLACK
6
CONTINUOUS
10
155.163314999999983
20
-99.1540929999999889
11
155.3267419999999959
21
-99.186600999999996
0
LINE
8
BLACK
6
CONTINUOUS
10
148.7956709999999987
20
-96.6690299999999922
11
148.8767770000000041
21
-96.7232229999999902
0
LINE
8
BLACK
6
CONTINUOUS
10
148.8767770000000041
20
-96.7232229999999902
11
148.9309700000000021
21
-96.8043289999999956
0
LINE
8
BLACK
6
CONTINUOUS
10
148.9309700000000021
20
-96.8043289999999956
11
148.9499999999999886
21
-96.8999999999999915
0
LINE
8
BLACK
6
CONTINUOUS
10
148.9499999999999886
20
-96.8999999999999915
11
148.9499999999999886
21
-98.0999999999999943
0
LINE
8
BLACK
6
CONTINUOUS
10
148.9499999999999886
20
-98.0999999999999943
11
148.9309700000000021
21
-98.1956709999999902
0
LINE
8
BLACK
6
CONTINUOUS
10
148.9309700000000021
20
-98.1956709999999902
11
148.8767770000000041
21
-98.2767769999999956
0
LINE
8
BLACK
6
CONTINUOUS
10
148.8767770000000041
20
-98.2767769999999956
11
148.7956709999999987
21
-98.3309699999999935
0
LINE
8
BLACK
6
CONTINUOUS
10
148.7956709999999987
20
-98.3309699999999935
11
148.6999999999999886
21
-98.3499999999999943
0
LINE
8
BLACK
6
CONTINUOUS
10
148.6999999999999886
20
-98.3499999999999943
11
147.5
21
-98.3499999999999943
0
LINE
8
BLACK
6
CONTINUOUS
10
147.5
20
-98.3499999999999943
11
147.4043289999999899
21
-98.3309699999999935
0
LINE
8
BLACK
6
CONTINUOUS
10
147.4043289999999899
20
-98.3309699999999935
11
147.3232229999999845
21
-98.2767769999999956
0
LINE
8
BLACK
6
CONTINUOUS
10
147.3232229999999845
20
-98.2767769999999956
11
147.2690299999999866
21
-98.1956709999999902
0
LINE
8
BLACK
6
CONTINUOUS
10
147.2690299999999866
20
-98.1956709999999902
11
147.25
21
-98.0999999999999943
0
LINE
8
BLACK
6
CONTINUOUS
10
147.25
20
-98.0999999999999943
11
147.25
21
-96.8999999999999915
0
LINE
8
BLACK
6
CONTINUOUS
10
147.25
20
-96.8999999999999915
11
147.2690299999999866
21
-96.8043289999999956
0
LINE
8
BLACK
6
CONTINUOUS
10
147.2690299999999866
20
-96.8043289999999956
11
147.3232229999999845
21
-96.7232229999999902
0
LINE
8
BLACK
6
CONTINUOUS
10
147.3232229999999845
20
-96.7232229999999902
11
147.4043289999999899
21
-96.6690299999999922
0
LINE
8
BLACK
6
CONTINUOUS
10
147.4043289999999899
20
-96.6690299999999922
11
147.5
21
-96.6499999999999915
0
LINE
8
BLACK
6
CONTINUOUS
10
147.5
20
-96.6499999999999915
11
148.6999999999999886
21
-96.6499999999999915
0
LINE
8
BLACK
6
CONTINUOUS
10
148.6999999999999886
20
-96.6499999999999915
11
148.7956709999999987
21
-96.6690299999999922
0
LINE
8
BLACK
6
CONTINUOUS
10
150.2467419999999834
20
-96.6466009999999898
11
150.4006870000000049
21
-96.7103669999999909
0
LINE
8
BLACK
6
CONTINUOUS
10
150.4006870000000049
20
-96.7103669999999909
11
150.5392339999999933
21
-96.8029409999999899
0
LINE
8
BLACK
6
CONTINUOUS
10
150.5392339999999933
20
-96.8029409999999899
11
150.6570590000000038
21
-96.9207660000000004
0
LINE
8
BLACK
6
CONTINUOUS
10
150.6570590000000038
20
-96.9207660000000004
11
150.7496329999999887
21
-97.0593129999999888
0
LINE
8
BLACK
6
CONTINUOUS
10
150.7496329999999887
20
-97.0593129999999888
11
150.813399000000004
21
-97.2132579999999962
0
LINE
8
BLACK
6
CONTINUOUS
10
150.813399000000004
20
-97.2132579999999962
11
150.8459069999999826
21
-97.3766849999999948
0
LINE
8
BLACK
6
CONTINUOUS
10
150.8459069999999826
20
-97.3766849999999948
11
150.8459069999999826
21
-97.5433149999999927
0
LINE
8
BLACK
6
CONTINUOUS
10
150.8459069999999826
20
-97.5433149999999927
11
150.813399000000004
21
-97.7067419999999913
0
LINE
8
BLACK
6
CONTINUOUS
10
150.813399000000004
20
-97.7067419999999913
11
150.7496329999999887
21
-97.8606869999999986
0
LINE
8
BLACK
6
CONTINUOUS
10
150.7496329999999887
20
-97.8606869999999986
11
150.6570590000000038
21
-97.9992340000000013
0
LINE
8
BLACK
6
CONTINUOUS
10
150.6570590000000038
20
-97.9992340000000013
11
150.5392339999999933
21
-98.1170589999999976
0
LINE
8
BLACK
6
CONTINUOUS
10
150.5392339999999933
20
-98.1170589999999976
11
150.4006870000000049
21
-98.2096329999999966
0
LINE
8
BLACK
6
CONTINUOUS
10
150.4006870000000049
20
-98.2096329999999966
11
150.2467419999999834
21
-98.2733989999999977
0
LINE
8
BLACK
6
CONTINUOUS
10
150.2467419999999834
20
-98.2733989999999977
11
150.0833149999999989
21
-98.3059069999999906
0
LINE
8
BLACK
6
CONTINUOUS
10
150.0833149999999989
20
-98.3059069999999906
11
149.9166850000000011
21
-98.3059069999999906
0
LINE
8
BLACK
6
CONTINUOUS
10
149.9166850000000011
20
-98.3059069999999906
11
149.7532579999999882
21
-98.2733989999999977
0
LINE
8
BLACK
6
CONTINUOUS
10
149.7532579999999882
20
-98.2733989999999977
11
149.5993129999999951
21
-98.2096329999999966
0
LINE
8
BLACK
6
CONTINUOUS
10
149.5993129999999951
20
-98.2096329999999966
11
149.4607660000000067
21
-98.1170589999999976
0
LINE
8
BLACK
6
CONTINUOUS
10
149.4607660000000067
20
-98.1170589999999976
11
149.3429409999999962
21
-97.9992340000000013
0
LINE
8
BLACK
6
CONTINUOUS
10
149.3429409999999962
20
-97.9992340000000013
11
149.2503669999999829
21
-97.8606869999999986
0
LINE
8
BLACK
6
CONTINUOUS
10
149.2503669999999829
20
-97.8606869999999986
11
149.186600999999996
21
-97.7067419999999913
0
LINE
8
BLACK
6
CONTINUOUS
10
149.186600999999996
20
-97.7067419999999913
11
149.1540929999999889
21
-97.5433149999999927
0
LINE
8
BLACK
6
CONTINUOUS
10
149.1540929999999889
20
-97.5433149999999927
11
149.1540929999999889
21
-97.3766849999999948
0
LINE
8
BLACK
6
CONTINUOUS
10
149.1540929999999889
20
-97.3766849999999948
11
149.186600999999996
21
-97.2132579999999962
0
LINE
8
BLACK
6
CONTINUOUS
10
149.186600999999996
20
-97.2132579999999962
11
149.2503669999999829
21
-97.0593129999999888
0
LINE
8
BLACK
6
CONTINUOUS
10
149.2503669999999829
20
-97.0593129999999888
11
149.3429409999999962
21
-96.9207660000000004
0
LINE
8
BLACK
6
CONTINUOUS
10
149.3429409999999962
20
-96.9207660000000004
11
149.4607660000000067
21
-96.8029409999999899
0
LINE
8
BLACK
6
CONTINUOUS
10
149.4607660000000067
20
-96.8029409999999899
11
149.5993129999999951
21
-96.7103669999999909
0
LINE
8
BLACK
6
CONTINUOUS
10
149.5993129999999951
20
-96.7103669999999909
11
149.7532579999999882
21
-96.6466009999999898
0
LINE
8
BLACK
6
CONTINUOUS
10
149.7532579999999882
20
-96.6466009999999898
11
149.9166850000000011
21
-96.6140929999999969
0
LINE
8
BLACK
6
CONTINUOUS
10
149.9166850000000011
20
-96.6140929999999969
11
150.0833149999999989
21
-96.6140929999999969
0
LINE
8
BLACK
6
CONTINUOUS
10
150.0833149999999989
20
-96.6140929999999969
11
150.2467419999999834
21
-96.6466009999999898
0
LINE
8
BLACK
6
CONTINUOUS
10
152.7867420000000038
20
-96.6466009999999898
11
152.9406869999999969
21
-96.7103669999999909
0
LINE
8
BLACK
6
CONTINUOUS
10
152.9406869999999969
20
-96.7103669999999909
11
153.0792339999999854
21
-96.8029409999999899
0
LINE
8
BLACK
6
CONTINUOUS
10
153.0792339999999854
20
-96.8029409999999899
11
153.1970589999999959
21
-96.9207660000000004
0
LINE
8
BLACK
6
CONTINUOUS
10
153.1970589999999959
20
-96.9207660000000004
11
153.2896329999999807
21
-97.0593129999999888
0
LINE
8
BLACK
6
CONTINUOUS
10
153.2896329999999807
20
-97.0593129999999888
11
153.353398999999996
21
-97.2132579999999962
0
LINE
8
BLACK
6
CONTINUOUS
10
153.353398999999996
20
-97.2132579999999962
11
153.3859070000000031
21
-97.3766849999999948
0
LINE
8
BLACK
6
CONTINUOUS
10
153.3859070000000031
20
-97.3766849999999948
11
153.3859070000000031
21
-97.5433149999999927
0
LINE
8
BLACK
6
CONTINUOUS
10
153.3859070000000031
20
-97.5433149999999927
11
153.353398999999996
21
-97.7067419999999913
0
LINE
8
BLACK
6
CONTINUOUS
10
153.353398999999996
20
-97.7067419999999913
11
153.2896329999999807
21
-97.8606869999999986
0
LINE
8
BLACK
6
CONTINUOUS
10
153.2896329999999807
20
-97.8606869999999986
11
153.1970589999999959
21
-97.9992340000000013
0
LINE
8
BLACK
6
CONTINUOUS
10
153.1970589999999959
20
-97.9992340000000013
11
153.0792339999999854
21
-98.1170589999999976
0
LINE
8
BLACK
6
CONTINUOUS
10
153.0792339999999854
20
-98.1170589999999976
11
152.9406869999999969
21
-98.2096329999999966
0
LINE
8
BLACK
6
CONTINUOUS
10
152.9406869999999969
20
-98.2096329999999966
11
152.7867420000000038
21
-98.2733989999999977
0
LINE
8
BLACK
6
CONTINUOUS
10
152.7867420000000038
20
-98.2733989999999977
11
152.623314999999991
21
-98.3059069999999906
0
LINE
8
BLACK
6
CONTINUOUS
10
152.623314999999991
20
-98.3059069999999906
11
152.4566849999999931
21
-98.3059069999999906
0
LINE
8
BLACK
6
CONTINUOUS
10
152.4566849999999931
20
-98.3059069999999906
11
152.2932579999999803
21
-98.2733989999999977
0
LINE
8
BLACK
6
CONTINUOUS
10
152.2932579999999803
20
-98.2733989999999977
11
152.1393129999999871
21
-98.2096329999999966
0
LINE
8
BLACK
6
CONTINUOUS
10
152.1393129999999871
20
-98.2096329999999966
11
152.0007659999999987
21
-98.1170589999999976
0
LINE
8
BLACK
6
CONTINUOUS
10
152.0007659999999987
20
-98.1170589999999976
11
151.8829409999999882
21
-97.9992340000000013
0
LINE
8
BLACK
6
CONTINUOUS
10
151.8829409999999882
20
-97.9992340000000013
11
151.7903670000000034
21
-97.8606869999999986
0
LINE
8
BLACK
6
CONTINUOUS
10
151.7903670000000034
20
-97.8606869999999986
11
151.7266009999999881
21
-97.7067419999999913
0
LINE
8
BLACK
6
CONTINUOUS
10
151.7266009999999881
20
-97.7067419999999913
11
151.694092999999981
21
-97.5433149999999927
0
LINE
8
BLACK
6
CONTINUOUS
10
151.694092999999981
20
-97.5433149999999927
11
151.694092999999981
21
-97.3766849999999948
0
LINE
8
BLACK
6
CONTINUOUS
10
151.694092999999981
20
-97.3766849999999948
11
151.7266009999999881
21
-97.2132579999999962
0
LINE
8
BLACK
6
CONTINUOUS
10
151.7266009999999881
20
-97.2132579999999962
11
151.7903670000000034
21
-97.0593129999999888
0
LINE
8
BLACK
6
CONTINUOUS
10
151.7903670000000034
20
-97.0593129999999888
11
151.8829409999999882
21
-96.9207660000000004
0
LINE
8
BLACK
6
CONTINUOUS
10
151.8829409999999882
20
-96.9207660000000004
11
152.0007659999999987
21
-96.8029409999999899
0
LINE
8
BLACK
6
CONTINUOUS
10
152.0007659999999987
20
-96.8029409999999899
11
152.1393129999999871
21
-96.7103669999999909
0
LINE
8
BLACK
6
CONTINUOUS
10
152.1393129999999871
20
-96.7103669999999909
11
152.2932579999999803
21
-96.6466009999999898
0
LINE
8
BLACK
6
CONTINUOUS
10
152.2932579999999803
20
-96.6466009999999898
11
152.4566849999999931
21
-96.6140929999999969
0
LINE
8
BLACK
6
CONTINUOUS
10
152.4566849999999931
20
-96.6140929999999969
11
152.623314999999991
21
-96.6140929999999969
0
LINE
8
BLACK
6
CONTINUOUS
10
152.623314999999991
20
-96.6140929999999969
11
152.7867420000000038
21
-96.6466009999999898
0
LINE
8
BLACK
6
CONTINUOUS
10
155.3267419999999959
20
-96.6466009999999898
11
155.480686999999989
21
-96.7103669999999909
0
LINE
8
BLACK
6
CONTINUOUS
10
155.480686999999989
20
-96.7103669999999909
11
155.6192340000000058
21
-96.8029409999999899
0
LINE
8
BLACK
6
CONTINUOUS
10
155.6192340000000058
20
-96.8029409999999899
11
155.7370589999999879
21
-96.9207660000000004
0
LINE
8
BLACK
6
CONTINUOUS
10
155.7370589999999879
20
-96.9207660000000004
11
155.8296330000000012
21
-97.0593129999999888
0
LINE
8
BLACK
6
CONTINUOUS
10
155.8296330000000012
20
-97.0593129999999888
11
155.8933989999999881
21
-97.2132579999999962
0
LINE
8
BLACK
6
CONTINUOUS
10
155.8933989999999881
20
-97.2132579999999962
11
155.9259069999999952
21
-97.3766849999999948
0
LINE
8
BLACK
6
CONTINUOUS
10
155.9259069999999952
20
-97.3766849999999948
11
155.9259069999999952
21
-97.5433149999999927
0
LINE
8
BLACK
6
CONTINUOUS
10
155.9259069999999952
20
-97.5433149999999927
11
155.8933989999999881
21
-97.7067419999999913
0
LINE
8
BLACK
6
CONTINUOUS
10
155.8933989999999881
20
-97.7067419999999913
11
155.8296330000000012
21
-97.8606869999999986
0
LINE
8
BLACK
6
CONTINUOUS
10
155.8296330000000012
20
-97.8606869999999986
11
155.7370589999999879
21
-97.9992340000000013
0
LINE
8
BLACK
6
CONTINUOUS
10
155.7370589999999879
20
-97.9992340000000013
11
155.6192340000000058
21
-98.1170589999999976
0
LINE
8
BLACK
6
CONTINUOUS
10
155.6192340000000058
20
-98.1170589999999976
11
155.480686999999989
21
-98.2096329999999966
0
LINE
8
BLACK
6
CONTINUOUS
10
155.480686999999989
20
-98.2096329999999966
11
155.3267419999999959
21
-98.2733989999999977
0
LINE
8
BLACK
6
CONTINUOUS
10
155.3267419999999959
20
-98.2733989999999977
11
155.163314999999983
21
-98.3059069999999906
0
LINE
8
BLACK
6
CONTINUOUS
10
155.163314999999983
20
-98.3059069999999906
11
154.9966849999999852
21
-98.3059069999999906
0
LINE
8
BLACK
6
CONTINUOUS
10
154.9966849999999852
20
-98.3059069999999906
11
154.8332580000000007
21
-98.2733989999999977
0
LINE
8
BLACK
6
CONTINUOUS
10
154.8332580000000007
20
-98.2733989999999977
11
154.6793129999999792
21
-98.2096329999999966
0
LINE
8
BLACK
6
CONTINUOUS
10
154.6793129999999792
20
-98.2096329999999966
11
154.5407659999999908
21
-98.1170589999999976
0
LINE
8
BLACK
6
CONTINUOUS
10
154.5407659999999908
20
-98.1170589999999976
11
154.4229409999999802
21
-97.9992340000000013
0
LINE
8
BLACK
6
CONTINUOUS
10
154.4229409999999802
20
-97.9992340000000013
11
154.3303669999999954
21
-97.8606869999999986
0
LINE
8
BLACK
6
CONTINUOUS
10
154.3303669999999954
20
-97.8606869999999986
11
154.2666009999999801
21
-97.7067419999999913
0
LINE
8
BLACK
6
CONTINUOUS
10
154.2666009999999801
20
-97.7067419999999913
11
154.2340930000000014
21
-97.5433149999999927
0
LINE
8
BLACK
6
CONTINUOUS
10
154.2340930000000014
20
-97.5433149999999927
11
154.2340930000000014
21
-97.3766849999999948
0
LINE
8
BLACK
6
CONTINUOUS
10
154.2340930000000014
20
-97.3766849999999948
11
154.2666009999999801
21
-97.2132579999999962
0
LINE
8
BLACK
6
CONTINUOUS
10
154.2666009999999801
20
-97.2132579999999962
11
154.3303669999999954
21
-97.0593129999999888
0
LINE
8
BLACK
6
CONTINUOUS
10
154.3303669999999954
20
-97.0593129999999888
11
154.4229409999999802
21
-96.9207660000000004
0
LINE
8
BLACK
6
CONTINUOUS
10
154.4229409999999802
20
-96.9207660000000004
11
154.5407659999999908
21
-96.8029409999999899
0
LINE
8
BLACK
6
CONTINUOUS
10
154.5407659999999908
20
-96.8029409999999899
11
154.6793129999999792
21
-96.7103669999999909
0
LINE
8
BLACK
6
CONTINUOUS
10
154.6793129999999792
20
-96.7103669999999909
11
154.8332580000000007
21
-96.6466009999999898
0
LINE
8
BLACK
6
CONTINUOUS
10
154.8332580000000007
20
-96.6466009999999898
11
154.9966849999999852
21
-96.6140929999999969
0
LINE
8
BLACK
6
CONTINUOUS
10
154.9966849999999852
20
-96.6140929999999969
11
155.163314999999983
21
-96.6140929999999969
0
LINE
8
BLACK
6
CONTINUOUS
10
155.163314999999983
20
-96.6140929999999969
11
155.3267419999999959
21
-96.6466009999999898
0
LINE
8
BLACK
6
CONTINUOUS
10
158.5095670000000041
20
-95.3769029999999987
11
158.523097000000007
21
-95.3904330000000016
0
LINE
8
BLACK
6
CONTINUOUS
10
158.523097000000007
20
-95.3904330000000016
11
158.5250000000000057
21
-95.3999999999999915
0
LINE
8
BLACK
6
CONTINUOUS
10
158.5250000000000057
20
-95.3999999999999915
11
158.5250000000000057
21
-120.3999999999999915
0
LINE
8
BLACK
6
CONTINUOUS
10
158.5250000000000057
20
-120.3999999999999915
11
158.523097000000007
21
-120.4095669999999956
0
LINE
8
BLACK
6
CONTINUOUS
10
158.523097000000007
20
-120.4095669999999956
11
158.5095670000000041
21
-120.4230969999999985
0
LINE
8
BLACK
6
CONTINUOUS
10
158.5095670000000041
20
-120.4230969999999985
11
158.5
21
-120.4249999999999972
0
LINE
8
BLACK
6
CONTINUOUS
10
158.5
20
-120.4249999999999972
11
146.7999999999999829
21
-120.4249999999999972
0
LINE
8
BLACK
6
CONTINUOUS
10
146.7999999999999829
20
-120.4249999999999972
11
146.7904330000000073
21
-120.4230969999999985
0
LINE
8
BLACK
6
CONTINUOUS
10
146.7904330000000073
20
-120.4230969999999985
11
146.7769030000000043
21
-120.4095669999999956
0
LINE
8
BLACK
6
CONTINUOUS
10
146.7769030000000043
20
-120.4095669999999956
11
146.7750000000000057
21
-120.3999999999999915
0
LINE
8
BLACK
6
CONTINUOUS
10
146.7750000000000057
20
-120.3999999999999915
11
146.7750000000000057
21
-95.3999999999999915
0
LINE
8
BLACK
6
CONTINUOUS
10
146.7750000000000057
20
-95.3999999999999915
11
146.7769030000000043
21
-95.3904330000000016
0
LINE
8
BLACK
6
CONTINUOUS
10
146.7769030000000043
20
-95.3904330000000016
11
146.7904330000000073
21
-95.3769029999999987
0
LINE
8
BLACK
6
CONTINUOUS
10
146.7904330000000073
20
-95.3769029999999987
11
146.7999999999999829
21
-95.375
0
LINE
8
BLACK
6
CONTINUOUS
10
146.7999999999999829
20
-95.375
11
158.5
21
-95.375
0
LINE
8
BLACK
6
CONTINUOUS
10
158.5
20
-95.375
11
158.5095670000000041
21
-95.3769029999999987
0
LINE
8
BLACK
6
CONTINUOUS
10
146.8249999999999886
20
-95.4249999999999972
11
146.8249999999999886
21
-120.375
0
LINE
8
BLACK
6
CONTINUOUS
10
146.8249999999999886
20
-120.375
11
158.4749999999999943
21
-120.375
0
LINE
8
BLACK
6
CONTINUOUS
10
158.4749999999999943
20
-120.375
11
158.4749999999999943
21
-95.4249999999999972
0
LINE
8
BLACK
6
CONTINUOUS
10
158.4749999999999943
20
-95.4249999999999972
11
146.8249999999999886
21
-95.4249999999999972
0
CIRCLE
8
BLACK
10
148.0999999999999943
20
-100.
40
0.35
0
CIRCLE
8
BLACK
10
157.
20
-100.
40
0.35
0
CIRCLE
8
BLACK
10
148.0999999999999943
20
-97.5
40
0.35
0
CIRCLE
8
BLACK
10
154.539999999999992
20
-113.3999999999999915
40
0.375
0
CIRCLE
8
BLACK
10
152.539999999999992
20
-113.3999999999999915
40
0.375
0
CIRCLE
8
BLACK
10
150.539999999999992
20
-113.3999999999999915
40
0.375
0
CIRCLE
8
BLACK
10
156.3100000000000023
20
-102.894999999999996
40
0.4
0
CIRCLE
8
BLACK
10
153.7699999999999818
20
-102.894999999999996
40
0.4
0
CIRCLE
8
BLACK
10
151.2299999999999898
20
-102.894999999999996
40
0.4
0
CIRCLE
8
BLACK
10
148.6899999999999977
20
-102.894999999999996
40
0.4
0
CIRCLE
8
BLACK
10
148.6899999999999977
20
-110.5150000000000006
40
0.4
0
CIRCLE
8
BLACK
10
151.2299999999999898
20
-110.5150000000000006
40
0.4
0
CIRCLE
8
BLACK
10
153.7699999999999818
20
-110.5150000000000006
40
0.4
0
CIRCLE
8
BLACK
10
156.3100000000000023
20
-110.5150000000000006
40
0.4
0
CIRCLE
8
BLACK
10
150.
20
-100.
40
0.5
0
CIRCLE
8
BLACK
10
150.
20
-97.4599999999999937
40
0.5
0
CIRCLE
8
BLACK
10
152.539999999999992
20
-100.
40
0.5
0
CIRCLE
8
BLACK
10
152.539999999999992
20
-97.4599999999999937
40
0.5
0
CIRCLE
8
BLACK
10
155.0799999999999841
20
-100.
40
0.5
0
CIRCLE
8
BLACK
10
155.0799999999999841
20
-97.4599999999999937
40
0.5
0
CIRCLE
8
WHITE
10
148.0999999999999943
20
-100.
40
0.35
0
CIRCLE
8
WHITE
10
157.
20
-100.
40
0.35
0
CIRCLE
8
WHITE
10
148.0999999999999943
20
-97.5
40
0.35
0
CIRCLE
8
WHITE
10
154.539999999999992
20
-113.3999999999999915
40
0.375
0
CIRCLE
8
WHITE
10
152.539999999999992
20
-113.3999999999999915
40
0.375
0
CIRCLE
8
WHITE
10
150.539999999999992
20
-113.3999999999999915
40
0.375
0
CIRCLE
8
WHITE
10
156.3100000000000023
20
-102.894999999999996
40
0.4
0
CIRCLE
8
WHITE
10
153.7699999999999818
20
-102.894999999999996
40
0.4
0
CIRCLE
8
WHITE
10
151.2299999999999898
20
-102.894999999999996
40
0.4
0
CIRCLE
8
WHITE
10
148.6899999999999977
20
-102.894999999999996
40
0.4
0
CIRCLE
8
WHITE
10
148.6899999999999977
20
-110.5150000000000006
40
0.4
0
CIRCLE
8
WHITE
10
151.2299999999999898
20
-110.5150000000000006
40
0.4
0
CIRCLE
8
WHITE
10
153.7699999999999818
20
-110.5150000000000006
40
0.4
0
CIRCLE
8
WHITE
10
156.3100000000000023
20
-110.5150000000000006
40
0.4
0
CIRCLE
8
WHITE
10
150.
20
-100.
40
0.5
0
CIRCLE
8
WHITE
10
150.
20
-97.4599999999999937
40
0.5
0
CIRCLE
8
WHITE
10
152.539999999999992
20
-100.
40
0.5
0
CIRCLE
8
WHITE
10
152.539999999999992
20
-97.4599999999999937
40
0.5
0
CIRCLE
8
WHITE
10
155.0799999999999841
20
-100.
40
0.5
0
CIRCLE
8
WHITE
10
155.0799999999999841
20
-97.4599999999999937
40
0.5
  0
ENDSEC
  0
EOF
