  0
SECTION
  2
HEADER
  9
$ANGBASE
  50
0.0
  9
$ANGDIR
  70
1
  9
$MEASUREMENT
  70
1
  0
ENDSEC
  0
SECTION
  2
TABLES
  0
TABLE
  2
LTYPE
  70
4
  0
LTYPE
  5
40F
  2
CONTINUOUS
  70
0
  3
Solid line
  72
65
  73
0
  40
0.0
  0
LTYPE
  5
410
  2
DASHDOT
 70
0
  3
Dash Dot ____ _ ____ _
 72
65
 73
4
 40
2.0
 49
1.25
 49
-0.25
 49
0.25
 49
-0.25
  0
LTYPE
  5
411
  2
DASHED
 70
0
  3
Dashed __ __ __ __ __
 72
65
 73
2
 40
0.75
 49
0.5
 49
-0.25
  0
LTYPE
  5
43B
  2
DOTTED
 70
0
  3
Dotted .  .  .  .
 72
65
 73
2
 40
0.2
 49
0.0
 49
-0.2
  0
ENDTAB
  0
TABLE
  2
STYLE
  70
4
  0
STYLE
  2
KICAD
  70
0
  40
0
  41
1
  42
1
  50
0
  71
0
  3
isocp.shx
  0
STYLE
  2
KICADB
  70
0
  40
0
  41
1
  42
1
  50
0
  71
0
  3
isocp.shx
  0
STYLE
  2
KICADI
  70
0
  40
0
  41
1
  42
1
  50
15
  71
0
  3
isocp.shx
  0
STYLE
  2
KICADBI
  70
0
  40
0
  41
1
  42
1
  50
15
  71
0
  3
isocp.shx
  0
ENDTAB
  0
TABLE
  2
LAYER
  70
1
  0
LAYER
  2
BLACK
  70
0
  62
7
  6
CONTINUOUS
  0
ENDTAB
  0
ENDSEC
  0
SECTION
  2
ENTITIES
0
LINE
8
BLACK
6
CONTINUOUS
10
172.1095669999999984
20
-108.7769029999999901
11
172.1230970000000013
21
-108.7904329999999931
0
LINE
8
BLACK
6
CONTINUOUS
10
172.1230970000000013
20
-108.7904329999999931
11
172.125
21
-108.7999999999999972
0
LINE
8
BLACK
6
CONTINUOUS
10
172.125
20
-108.7999999999999972
11
172.125
21
-133.2999999999999829
0
LINE
8
BLACK
6
CONTINUOUS
10
172.125
20
-133.2999999999999829
11
172.1230970000000013
21
-133.309566999999987
0
LINE
8
BLACK
6
CONTINUOUS
10
172.1230970000000013
20
-133.309566999999987
11
172.1095669999999984
21
-133.32309699999999
0
LINE
8
BLACK
6
CONTINUOUS
10
172.1095669999999984
20
-133.32309699999999
11
172.0999999999999943
21
-133.3249999999999886
0
LINE
8
BLACK
6
CONTINUOUS
10
172.0999999999999943
20
-133.3249999999999886
11
160.1999999999999886
21
-133.3249999999999886
0
LINE
8
BLACK
6
CONTINUOUS
10
160.1999999999999886
20
-133.3249999999999886
11
160.1904329999999845
21
-133.32309699999999
0
LINE
8
BLACK
6
CONTINUOUS
10
160.1904329999999845
20
-133.32309699999999
11
160.1769029999999816
21
-133.309566999999987
0
LINE
8
BLACK
6
CONTINUOUS
10
160.1769029999999816
20
-133.309566999999987
11
160.1749999999999829
21
-133.2999999999999829
0
LINE
8
BLACK
6
CONTINUOUS
10
160.1749999999999829
20
-133.2999999999999829
11
160.1749999999999829
21
-108.7999999999999972
0
LINE
8
BLACK
6
CONTINUOUS
10
160.1749999999999829
20
-108.7999999999999972
11
160.1769029999999816
21
-108.7904329999999931
0
LINE
8
BLACK
6
CONTINUOUS
10
160.1769029999999816
20
-108.7904329999999931
11
160.1904329999999845
21
-108.7769029999999901
0
LINE
8
BLACK
6
CONTINUOUS
10
160.1904329999999845
20
-108.7769029999999901
11
160.1999999999999886
21
-108.7749999999999915
0
LINE
8
BLACK
6
CONTINUOUS
10
160.1999999999999886
20
-108.7749999999999915
11
172.0999999999999943
21
-108.7749999999999915
0
LINE
8
BLACK
6
CONTINUOUS
10
172.0999999999999943
20
-108.7749999999999915
11
172.1095669999999984
21
-108.7769029999999901
0
LINE
8
BLACK
6
CONTINUOUS
10
160.2249999999999943
20
-108.8249999999999886
11
160.2249999999999943
21
-133.2750000000000057
0
LINE
8
BLACK
6
CONTINUOUS
10
160.2249999999999943
20
-133.2750000000000057
11
172.0749999999999886
21
-133.2750000000000057
0
LINE
8
BLACK
6
CONTINUOUS
10
172.0749999999999886
20
-133.2750000000000057
11
172.0749999999999886
21
-108.8249999999999886
0
LINE
8
BLACK
6
CONTINUOUS
10
172.0749999999999886
20
-108.8249999999999886
11
160.2249999999999943
21
-108.8249999999999886
0
CIRCLE
8
BLACK
10
170.5999999999999943
20
-131.4000000000000057
40
0.35
0
CIRCLE
8
BLACK
10
168.1999999999999886
20
-115.5
40
0.375
0
CIRCLE
8
BLACK
10
166.1999999999999886
20
-115.5
40
0.375
0
CIRCLE
8
BLACK
10
164.1999999999999886
20
-115.5
40
0.375
0
CIRCLE
8
BLACK
10
161.5999999999999943
20
-131.4000000000000057
40
0.35
0
CIRCLE
8
BLACK
10
170.5999999999999943
20
-128.9000000000000057
40
0.35
0
CIRCLE
8
BLACK
10
163.5999999999999943
20
-128.9000000000000057
40
0.5
0
CIRCLE
8
BLACK
10
163.5999999999999943
20
-131.4399999999999977
40
0.5
0
CIRCLE
8
BLACK
10
166.1399999999999864
20
-128.9000000000000057
40
0.5
0
CIRCLE
8
BLACK
10
166.1399999999999864
20
-131.4399999999999977
40
0.5
0
CIRCLE
8
BLACK
10
168.6799999999999784
20
-128.9000000000000057
40
0.5
0
CIRCLE
8
BLACK
10
168.6799999999999784
20
-131.4399999999999977
40
0.5
0
CIRCLE
8
BLACK
10
169.9000000000000057
20
-126.
40
0.4
0
CIRCLE
8
BLACK
10
167.3599999999999852
20
-126.
40
0.4
0
CIRCLE
8
BLACK
10
164.8199999999999932
20
-126.
40
0.4
0
CIRCLE
8
BLACK
10
162.2800000000000011
20
-126.
40
0.4
0
CIRCLE
8
BLACK
10
162.2800000000000011
20
-118.3799999999999955
40
0.4
0
CIRCLE
8
BLACK
10
164.8199999999999932
20
-118.3799999999999955
40
0.4
0
CIRCLE
8
BLACK
10
167.3599999999999852
20
-118.3799999999999955
40
0.4
0
CIRCLE
8
BLACK
10
169.9000000000000057
20
-118.3799999999999955
40
0.4
0
CIRCLE
8
BLACK
10
161.5999999999999943
20
-128.9000000000000057
40
0.35
0
CIRCLE
8
WHITE
10
170.5999999999999943
20
-131.4000000000000057
40
0.35
0
CIRCLE
8
WHITE
10
168.1999999999999886
20
-115.5
40
0.375
0
CIRCLE
8
WHITE
10
166.1999999999999886
20
-115.5
40
0.375
0
CIRCLE
8
WHITE
10
164.1999999999999886
20
-115.5
40
0.375
0
CIRCLE
8
WHITE
10
161.5999999999999943
20
-131.4000000000000057
40
0.35
0
CIRCLE
8
WHITE
10
170.5999999999999943
20
-128.9000000000000057
40
0.35
0
CIRCLE
8
WHITE
10
163.5999999999999943
20
-128.9000000000000057
40
0.5
0
CIRCLE
8
WHITE
10
163.5999999999999943
20
-131.4399999999999977
40
0.5
0
CIRCLE
8
WHITE
10
166.1399999999999864
20
-128.9000000000000057
40
0.5
0
CIRCLE
8
WHITE
10
166.1399999999999864
20
-131.4399999999999977
40
0.5
0
CIRCLE
8
WHITE
10
168.6799999999999784
20
-128.9000000000000057
40
0.5
0
CIRCLE
8
WHITE
10
168.6799999999999784
20
-131.4399999999999977
40
0.5
0
CIRCLE
8
WHITE
10
169.9000000000000057
20
-126.
40
0.4
0
CIRCLE
8
WHITE
10
167.3599999999999852
20
-126.
40
0.4
0
CIRCLE
8
WHITE
10
164.8199999999999932
20
-126.
40
0.4
0
CIRCLE
8
WHITE
10
162.2800000000000011
20
-126.
40
0.4
0
CIRCLE
8
WHITE
10
162.2800000000000011
20
-118.3799999999999955
40
0.4
0
CIRCLE
8
WHITE
10
164.8199999999999932
20
-118.3799999999999955
40
0.4
0
CIRCLE
8
WHITE
10
167.3599999999999852
20
-118.3799999999999955
40
0.4
0
CIRCLE
8
WHITE
10
169.9000000000000057
20
-118.3799999999999955
40
0.4
0
CIRCLE
8
WHITE
10
161.5999999999999943
20
-128.9000000000000057
40
0.35
  0
ENDSEC
  0
EOF
