  0
SECTION
  2
HEADER
  9
$ANGBASE
  50
0.0
  9
$ANGDIR
  70
1
  9
$MEASUREMENT
  70
1
  0
ENDSEC
  0
SECTION
  2
TABLES
  0
TABLE
  2
LTYPE
  70
4
  0
LTYPE
  5
40F
  2
CONTINUOUS
  70
0
  3
Solid line
  72
65
  73
0
  40
0.0
  0
LTYPE
  5
410
  2
DASHDOT
 70
0
  3
Dash Dot ____ _ ____ _
 72
65
 73
4
 40
2.0
 49
1.25
 49
-0.25
 49
0.25
 49
-0.25
  0
LTYPE
  5
411
  2
DASHED
 70
0
  3
Dashed __ __ __ __ __
 72
65
 73
2
 40
0.75
 49
0.5
 49
-0.25
  0
LTYPE
  5
43B
  2
DOTTED
 70
0
  3
Dotted .  .  .  .
 72
65
 73
2
 40
0.2
 49
0.0
 49
-0.2
  0
ENDTAB
  0
TABLE
  2
STYLE
  70
4
  0
STYLE
  2
KICAD
  70
0
  40
0
  41
1
  42
1
  50
0
  71
0
  3
isocp.shx
  0
STYLE
  2
KICADB
  70
0
  40
0
  41
1
  42
1
  50
0
  71
0
  3
isocp.shx
  0
STYLE
  2
KICADI
  70
0
  40
0
  41
1
  42
1
  50
15
  71
0
  3
isocp.shx
  0
STYLE
  2
KICADBI
  70
0
  40
0
  41
1
  42
1
  50
15
  71
0
  3
isocp.shx
  0
ENDTAB
  0
TABLE
  2
LAYER
  70
1
  0
LAYER
  2
BLACK
  70
0
  62
7
  6
CONTINUOUS
  0
ENDTAB
  0
ENDSEC
  0
SECTION
  2
ENTITIES
0
LINE
8
BLACK
6
CONTINUOUS
10
163.8467420000000061
20
-130.6266009999999937
11
164.0006869999999992
21
-130.6903669999999806
0
LINE
8
BLACK
6
CONTINUOUS
10
164.0006869999999992
20
-130.6903669999999806
11
164.1392339999999876
21
-130.7829409999999939
0
LINE
8
BLACK
6
CONTINUOUS
10
164.1392339999999876
20
-130.7829409999999939
11
164.2570589999999982
21
-130.9007660000000044
0
LINE
8
BLACK
6
CONTINUOUS
10
164.2570589999999982
20
-130.9007660000000044
11
164.349632999999983
21
-131.0393129999999928
0
LINE
8
BLACK
6
CONTINUOUS
10
164.349632999999983
20
-131.0393129999999928
11
164.4133989999999983
21
-131.1932579999999859
0
LINE
8
BLACK
6
CONTINUOUS
10
164.4133989999999983
20
-131.1932579999999859
11
164.4459070000000054
21
-131.3566849999999988
0
LINE
8
BLACK
6
CONTINUOUS
10
164.4459070000000054
20
-131.3566849999999988
11
164.4459070000000054
21
-131.5233149999999966
0
LINE
8
BLACK
6
CONTINUOUS
10
164.4459070000000054
20
-131.5233149999999966
11
164.4133989999999983
21
-131.6867419999999811
0
LINE
8
BLACK
6
CONTINUOUS
10
164.4133989999999983
20
-131.6867419999999811
11
164.349632999999983
21
-131.8406870000000026
0
LINE
8
BLACK
6
CONTINUOUS
10
164.349632999999983
20
-131.8406870000000026
11
164.2570589999999982
21
-131.9792339999999911
0
LINE
8
BLACK
6
CONTINUOUS
10
164.2570589999999982
20
-131.9792339999999911
11
164.1392339999999876
21
-132.0970590000000016
0
LINE
8
BLACK
6
CONTINUOUS
10
164.1392339999999876
20
-132.0970590000000016
11
164.0006869999999992
21
-132.1896329999999864
0
LINE
8
BLACK
6
CONTINUOUS
10
164.0006869999999992
20
-132.1896329999999864
11
163.8467420000000061
21
-132.2533990000000017
0
LINE
8
BLACK
6
CONTINUOUS
10
163.8467420000000061
20
-132.2533990000000017
11
163.6833149999999932
21
-132.2859069999999804
0
LINE
8
BLACK
6
CONTINUOUS
10
163.6833149999999932
20
-132.2859069999999804
11
163.5166849999999954
21
-132.2859069999999804
0
LINE
8
BLACK
6
CONTINUOUS
10
163.5166849999999954
20
-132.2859069999999804
11
163.3532579999999825
21
-132.2533990000000017
0
LINE
8
BLACK
6
CONTINUOUS
10
163.3532579999999825
20
-132.2533990000000017
11
163.1993129999999894
21
-132.1896329999999864
0
LINE
8
BLACK
6
CONTINUOUS
10
163.1993129999999894
20
-132.1896329999999864
11
163.060766000000001
21
-132.0970590000000016
0
LINE
8
BLACK
6
CONTINUOUS
10
163.060766000000001
20
-132.0970590000000016
11
162.9429409999999905
21
-131.9792339999999911
0
LINE
8
BLACK
6
CONTINUOUS
10
162.9429409999999905
20
-131.9792339999999911
11
162.8503670000000056
21
-131.8406870000000026
0
LINE
8
BLACK
6
CONTINUOUS
10
162.8503670000000056
20
-131.8406870000000026
11
162.7866009999999903
21
-131.6867419999999811
0
LINE
8
BLACK
6
CONTINUOUS
10
162.7866009999999903
20
-131.6867419999999811
11
162.7540929999999832
21
-131.5233149999999966
0
LINE
8
BLACK
6
CONTINUOUS
10
162.7540929999999832
20
-131.5233149999999966
11
162.7540929999999832
21
-131.3566849999999988
0
LINE
8
BLACK
6
CONTINUOUS
10
162.7540929999999832
20
-131.3566849999999988
11
162.7866009999999903
21
-131.1932579999999859
0
LINE
8
BLACK
6
CONTINUOUS
10
162.7866009999999903
20
-131.1932579999999859
11
162.8503670000000056
21
-131.0393129999999928
0
LINE
8
BLACK
6
CONTINUOUS
10
162.8503670000000056
20
-131.0393129999999928
11
162.9429409999999905
21
-130.9007660000000044
0
LINE
8
BLACK
6
CONTINUOUS
10
162.9429409999999905
20
-130.9007660000000044
11
163.060766000000001
21
-130.7829409999999939
0
LINE
8
BLACK
6
CONTINUOUS
10
163.060766000000001
20
-130.7829409999999939
11
163.1993129999999894
21
-130.6903669999999806
0
LINE
8
BLACK
6
CONTINUOUS
10
163.1993129999999894
20
-130.6903669999999806
11
163.3532579999999825
21
-130.6266009999999937
0
LINE
8
BLACK
6
CONTINUOUS
10
163.3532579999999825
20
-130.6266009999999937
11
163.5166849999999954
21
-130.5940929999999867
0
LINE
8
BLACK
6
CONTINUOUS
10
163.5166849999999954
20
-130.5940929999999867
11
163.6833149999999932
21
-130.5940929999999867
0
LINE
8
BLACK
6
CONTINUOUS
10
163.6833149999999932
20
-130.5940929999999867
11
163.8467420000000061
21
-130.6266009999999937
0
LINE
8
BLACK
6
CONTINUOUS
10
166.3867419999999981
20
-130.6266009999999937
11
166.5406869999999913
21
-130.6903669999999806
0
LINE
8
BLACK
6
CONTINUOUS
10
166.5406869999999913
20
-130.6903669999999806
11
166.6792339999999797
21
-130.7829409999999939
0
LINE
8
BLACK
6
CONTINUOUS
10
166.6792339999999797
20
-130.7829409999999939
11
166.7970589999999902
21
-130.9007660000000044
0
LINE
8
BLACK
6
CONTINUOUS
10
166.7970589999999902
20
-130.9007660000000044
11
166.8896330000000034
21
-131.0393129999999928
0
LINE
8
BLACK
6
CONTINUOUS
10
166.8896330000000034
20
-131.0393129999999928
11
166.9533989999999903
21
-131.1932579999999859
0
LINE
8
BLACK
6
CONTINUOUS
10
166.9533989999999903
20
-131.1932579999999859
11
166.9859069999999974
21
-131.3566849999999988
0
LINE
8
BLACK
6
CONTINUOUS
10
166.9859069999999974
20
-131.3566849999999988
11
166.9859069999999974
21
-131.5233149999999966
0
LINE
8
BLACK
6
CONTINUOUS
10
166.9859069999999974
20
-131.5233149999999966
11
166.9533989999999903
21
-131.6867419999999811
0
LINE
8
BLACK
6
CONTINUOUS
10
166.9533989999999903
20
-131.6867419999999811
11
166.8896330000000034
21
-131.8406870000000026
0
LINE
8
BLACK
6
CONTINUOUS
10
166.8896330000000034
20
-131.8406870000000026
11
166.7970589999999902
21
-131.9792339999999911
0
LINE
8
BLACK
6
CONTINUOUS
10
166.7970589999999902
20
-131.9792339999999911
11
166.6792339999999797
21
-132.0970590000000016
0
LINE
8
BLACK
6
CONTINUOUS
10
166.6792339999999797
20
-132.0970590000000016
11
166.5406869999999913
21
-132.1896329999999864
0
LINE
8
BLACK
6
CONTINUOUS
10
166.5406869999999913
20
-132.1896329999999864
11
166.3867419999999981
21
-132.2533990000000017
0
LINE
8
BLACK
6
CONTINUOUS
10
166.3867419999999981
20
-132.2533990000000017
11
166.2233149999999853
21
-132.2859069999999804
0
LINE
8
BLACK
6
CONTINUOUS
10
166.2233149999999853
20
-132.2859069999999804
11
166.0566849999999874
21
-132.2859069999999804
0
LINE
8
BLACK
6
CONTINUOUS
10
166.0566849999999874
20
-132.2859069999999804
11
165.893258000000003
21
-132.2533990000000017
0
LINE
8
BLACK
6
CONTINUOUS
10
165.893258000000003
20
-132.2533990000000017
11
165.7393129999999815
21
-132.1896329999999864
0
LINE
8
BLACK
6
CONTINUOUS
10
165.7393129999999815
20
-132.1896329999999864
11
165.600765999999993
21
-132.0970590000000016
0
LINE
8
BLACK
6
CONTINUOUS
10
165.600765999999993
20
-132.0970590000000016
11
165.4829409999999825
21
-131.9792339999999911
0
LINE
8
BLACK
6
CONTINUOUS
10
165.4829409999999825
20
-131.9792339999999911
11
165.3903669999999977
21
-131.8406870000000026
0
LINE
8
BLACK
6
CONTINUOUS
10
165.3903669999999977
20
-131.8406870000000026
11
165.3266009999999824
21
-131.6867419999999811
0
LINE
8
BLACK
6
CONTINUOUS
10
165.3266009999999824
20
-131.6867419999999811
11
165.2940930000000037
21
-131.5233149999999966
0
LINE
8
BLACK
6
CONTINUOUS
10
165.2940930000000037
20
-131.5233149999999966
11
165.2940930000000037
21
-131.3566849999999988
0
LINE
8
BLACK
6
CONTINUOUS
10
165.2940930000000037
20
-131.3566849999999988
11
165.3266009999999824
21
-131.1932579999999859
0
LINE
8
BLACK
6
CONTINUOUS
10
165.3266009999999824
20
-131.1932579999999859
11
165.3903669999999977
21
-131.0393129999999928
0
LINE
8
BLACK
6
CONTINUOUS
10
165.3903669999999977
20
-131.0393129999999928
11
165.4829409999999825
21
-130.9007660000000044
0
LINE
8
BLACK
6
CONTINUOUS
10
165.4829409999999825
20
-130.9007660000000044
11
165.600765999999993
21
-130.7829409999999939
0
LINE
8
BLACK
6
CONTINUOUS
10
165.600765999999993
20
-130.7829409999999939
11
165.7393129999999815
21
-130.6903669999999806
0
LINE
8
BLACK
6
CONTINUOUS
10
165.7393129999999815
20
-130.6903669999999806
11
165.893258000000003
21
-130.6266009999999937
0
LINE
8
BLACK
6
CONTINUOUS
10
165.893258000000003
20
-130.6266009999999937
11
166.0566849999999874
21
-130.5940929999999867
0
LINE
8
BLACK
6
CONTINUOUS
10
166.0566849999999874
20
-130.5940929999999867
11
166.2233149999999853
21
-130.5940929999999867
0
LINE
8
BLACK
6
CONTINUOUS
10
166.2233149999999853
20
-130.5940929999999867
11
166.3867419999999981
21
-130.6266009999999937
0
LINE
8
BLACK
6
CONTINUOUS
10
168.9267419999999902
20
-130.6266009999999937
11
169.0806869999999833
21
-130.6903669999999806
0
LINE
8
BLACK
6
CONTINUOUS
10
169.0806869999999833
20
-130.6903669999999806
11
169.2192340000000002
21
-130.7829409999999939
0
LINE
8
BLACK
6
CONTINUOUS
10
169.2192340000000002
20
-130.7829409999999939
11
169.3370589999999822
21
-130.9007660000000044
0
LINE
8
BLACK
6
CONTINUOUS
10
169.3370589999999822
20
-130.9007660000000044
11
169.4296329999999955
21
-131.0393129999999928
0
LINE
8
BLACK
6
CONTINUOUS
10
169.4296329999999955
20
-131.0393129999999928
11
169.4933989999999824
21
-131.1932579999999859
0
LINE
8
BLACK
6
CONTINUOUS
10
169.4933989999999824
20
-131.1932579999999859
11
169.5259069999999895
21
-131.3566849999999988
0
LINE
8
BLACK
6
CONTINUOUS
10
169.5259069999999895
20
-131.3566849999999988
11
169.5259069999999895
21
-131.5233149999999966
0
LINE
8
BLACK
6
CONTINUOUS
10
169.5259069999999895
20
-131.5233149999999966
11
169.4933989999999824
21
-131.6867419999999811
0
LINE
8
BLACK
6
CONTINUOUS
10
169.4933989999999824
20
-131.6867419999999811
11
169.4296329999999955
21
-131.8406870000000026
0
LINE
8
BLACK
6
CONTINUOUS
10
169.4296329999999955
20
-131.8406870000000026
11
169.3370589999999822
21
-131.9792339999999911
0
LINE
8
BLACK
6
CONTINUOUS
10
169.3370589999999822
20
-131.9792339999999911
11
169.2192340000000002
21
-132.0970590000000016
0
LINE
8
BLACK
6
CONTINUOUS
10
169.2192340000000002
20
-132.0970590000000016
11
169.0806869999999833
21
-132.1896329999999864
0
LINE
8
BLACK
6
CONTINUOUS
10
169.0806869999999833
20
-132.1896329999999864
11
168.9267419999999902
21
-132.2533990000000017
0
LINE
8
BLACK
6
CONTINUOUS
10
168.9267419999999902
20
-132.2533990000000017
11
168.7633150000000057
21
-132.2859069999999804
0
LINE
8
BLACK
6
CONTINUOUS
10
168.7633150000000057
20
-132.2859069999999804
11
168.5966849999999795
21
-132.2859069999999804
0
LINE
8
BLACK
6
CONTINUOUS
10
168.5966849999999795
20
-132.2859069999999804
11
168.433257999999995
21
-132.2533990000000017
0
LINE
8
BLACK
6
CONTINUOUS
10
168.433257999999995
20
-132.2533990000000017
11
168.2793130000000019
21
-132.1896329999999864
0
LINE
8
BLACK
6
CONTINUOUS
10
168.2793130000000019
20
-132.1896329999999864
11
168.1407659999999851
21
-132.0970590000000016
0
LINE
8
BLACK
6
CONTINUOUS
10
168.1407659999999851
20
-132.0970590000000016
11
168.022941000000003
21
-131.9792339999999911
0
LINE
8
BLACK
6
CONTINUOUS
10
168.022941000000003
20
-131.9792339999999911
11
167.9303669999999897
21
-131.8406870000000026
0
LINE
8
BLACK
6
CONTINUOUS
10
167.9303669999999897
20
-131.8406870000000026
11
167.8666010000000028
21
-131.6867419999999811
0
LINE
8
BLACK
6
CONTINUOUS
10
167.8666010000000028
20
-131.6867419999999811
11
167.8340929999999958
21
-131.5233149999999966
0
LINE
8
BLACK
6
CONTINUOUS
10
167.8340929999999958
20
-131.5233149999999966
11
167.8340929999999958
21
-131.3566849999999988
0
LINE
8
BLACK
6
CONTINUOUS
10
167.8340929999999958
20
-131.3566849999999988
11
167.8666010000000028
21
-131.1932579999999859
0
LINE
8
BLACK
6
CONTINUOUS
10
167.8666010000000028
20
-131.1932579999999859
11
167.9303669999999897
21
-131.0393129999999928
0
LINE
8
BLACK
6
CONTINUOUS
10
167.9303669999999897
20
-131.0393129999999928
11
168.022941000000003
21
-130.9007660000000044
0
LINE
8
BLACK
6
CONTINUOUS
10
168.022941000000003
20
-130.9007660000000044
11
168.1407659999999851
21
-130.7829409999999939
0
LINE
8
BLACK
6
CONTINUOUS
10
168.1407659999999851
20
-130.7829409999999939
11
168.2793130000000019
21
-130.6903669999999806
0
LINE
8
BLACK
6
CONTINUOUS
10
168.2793130000000019
20
-130.6903669999999806
11
168.433257999999995
21
-130.6266009999999937
0
LINE
8
BLACK
6
CONTINUOUS
10
168.433257999999995
20
-130.6266009999999937
11
168.5966849999999795
21
-130.5940929999999867
0
LINE
8
BLACK
6
CONTINUOUS
10
168.5966849999999795
20
-130.5940929999999867
11
168.7633150000000057
21
-130.5940929999999867
0
LINE
8
BLACK
6
CONTINUOUS
10
168.7633150000000057
20
-130.5940929999999867
11
168.9267419999999902
21
-130.6266009999999937
0
LINE
8
BLACK
6
CONTINUOUS
10
162.2956709999999987
20
-130.5690299999999979
11
162.3767770000000041
21
-130.6232229999999959
0
LINE
8
BLACK
6
CONTINUOUS
10
162.3767770000000041
20
-130.6232229999999959
11
162.4309700000000021
21
-130.7043290000000013
0
LINE
8
BLACK
6
CONTINUOUS
10
162.4309700000000021
20
-130.7043290000000013
11
162.4499999999999886
21
-130.7999999999999829
0
LINE
8
BLACK
6
CONTINUOUS
10
162.4499999999999886
20
-130.7999999999999829
11
162.4499999999999886
21
-132.
0
LINE
8
BLACK
6
CONTINUOUS
10
162.4499999999999886
20
-132.
11
162.4309700000000021
21
-132.0956709999999816
0
LINE
8
BLACK
6
CONTINUOUS
10
162.4309700000000021
20
-132.0956709999999816
11
162.3767770000000041
21
-132.1767769999999871
0
LINE
8
BLACK
6
CONTINUOUS
10
162.3767770000000041
20
-132.1767769999999871
11
162.2956709999999987
21
-132.230969999999985
0
LINE
8
BLACK
6
CONTINUOUS
10
162.2956709999999987
20
-132.230969999999985
11
162.1999999999999886
21
-132.25
0
LINE
8
BLACK
6
CONTINUOUS
10
162.1999999999999886
20
-132.25
11
161.
21
-132.25
0
LINE
8
BLACK
6
CONTINUOUS
10
161.
20
-132.25
11
160.9043289999999899
21
-132.230969999999985
0
LINE
8
BLACK
6
CONTINUOUS
10
160.9043289999999899
20
-132.230969999999985
11
160.8232229999999845
21
-132.1767769999999871
0
LINE
8
BLACK
6
CONTINUOUS
10
160.8232229999999845
20
-132.1767769999999871
11
160.7690299999999866
21
-132.0956709999999816
0
LINE
8
BLACK
6
CONTINUOUS
10
160.7690299999999866
20
-132.0956709999999816
11
160.75
21
-132.
0
LINE
8
BLACK
6
CONTINUOUS
10
160.75
20
-132.
11
160.75
21
-130.7999999999999829
0
LINE
8
BLACK
6
CONTINUOUS
10
160.75
20
-130.7999999999999829
11
160.7690299999999866
21
-130.7043290000000013
0
LINE
8
BLACK
6
CONTINUOUS
10
160.7690299999999866
20
-130.7043290000000013
11
160.8232229999999845
21
-130.6232229999999959
0
LINE
8
BLACK
6
CONTINUOUS
10
160.8232229999999845
20
-130.6232229999999959
11
160.9043289999999899
21
-130.5690299999999979
0
LINE
8
BLACK
6
CONTINUOUS
10
160.9043289999999899
20
-130.5690299999999979
11
161.
21
-130.5499999999999829
0
LINE
8
BLACK
6
CONTINUOUS
10
161.
20
-130.5499999999999829
11
162.1999999999999886
21
-130.5499999999999829
0
LINE
8
BLACK
6
CONTINUOUS
10
162.1999999999999886
20
-130.5499999999999829
11
162.2956709999999987
21
-130.5690299999999979
0
LINE
8
BLACK
6
CONTINUOUS
10
171.2956709999999987
20
-130.5690299999999979
11
171.3767770000000041
21
-130.6232229999999959
0
LINE
8
BLACK
6
CONTINUOUS
10
171.3767770000000041
20
-130.6232229999999959
11
171.4309700000000021
21
-130.7043290000000013
0
LINE
8
BLACK
6
CONTINUOUS
10
171.4309700000000021
20
-130.7043290000000013
11
171.4499999999999886
21
-130.7999999999999829
0
LINE
8
BLACK
6
CONTINUOUS
10
171.4499999999999886
20
-130.7999999999999829
11
171.4499999999999886
21
-132.
0
LINE
8
BLACK
6
CONTINUOUS
10
171.4499999999999886
20
-132.
11
171.4309700000000021
21
-132.0956709999999816
0
LINE
8
BLACK
6
CONTINUOUS
10
171.4309700000000021
20
-132.0956709999999816
11
171.3767770000000041
21
-132.1767769999999871
0
LINE
8
BLACK
6
CONTINUOUS
10
171.3767770000000041
20
-132.1767769999999871
11
171.2956709999999987
21
-132.230969999999985
0
LINE
8
BLACK
6
CONTINUOUS
10
171.2956709999999987
20
-132.230969999999985
11
171.1999999999999886
21
-132.25
0
LINE
8
BLACK
6
CONTINUOUS
10
171.1999999999999886
20
-132.25
11
170.
21
-132.25
0
LINE
8
BLACK
6
CONTINUOUS
10
170.
20
-132.25
11
169.9043289999999899
21
-132.230969999999985
0
LINE
8
BLACK
6
CONTINUOUS
10
169.9043289999999899
20
-132.230969999999985
11
169.8232229999999845
21
-132.1767769999999871
0
LINE
8
BLACK
6
CONTINUOUS
10
169.8232229999999845
20
-132.1767769999999871
11
169.7690299999999866
21
-132.0956709999999816
0
LINE
8
BLACK
6
CONTINUOUS
10
169.7690299999999866
20
-132.0956709999999816
11
169.75
21
-132.
0
LINE
8
BLACK
6
CONTINUOUS
10
169.75
20
-132.
11
169.75
21
-130.7999999999999829
0
LINE
8
BLACK
6
CONTINUOUS
10
169.75
20
-130.7999999999999829
11
169.7690299999999866
21
-130.7043290000000013
0
LINE
8
BLACK
6
CONTINUOUS
10
169.7690299999999866
20
-130.7043290000000013
11
169.8232229999999845
21
-130.6232229999999959
0
LINE
8
BLACK
6
CONTINUOUS
10
169.8232229999999845
20
-130.6232229999999959
11
169.9043289999999899
21
-130.5690299999999979
0
LINE
8
BLACK
6
CONTINUOUS
10
169.9043289999999899
20
-130.5690299999999979
11
170.
21
-130.5499999999999829
0
LINE
8
BLACK
6
CONTINUOUS
10
170.
20
-130.5499999999999829
11
171.1999999999999886
21
-130.5499999999999829
0
LINE
8
BLACK
6
CONTINUOUS
10
171.1999999999999886
20
-130.5499999999999829
11
171.2956709999999987
21
-130.5690299999999979
0
LINE
8
BLACK
6
CONTINUOUS
10
162.2956709999999987
20
-128.0690299999999979
11
162.3767770000000041
21
-128.1232229999999959
0
LINE
8
BLACK
6
CONTINUOUS
10
162.3767770000000041
20
-128.1232229999999959
11
162.4309700000000021
21
-128.2043290000000013
0
LINE
8
BLACK
6
CONTINUOUS
10
162.4309700000000021
20
-128.2043290000000013
11
162.4499999999999886
21
-128.2999999999999829
0
LINE
8
BLACK
6
CONTINUOUS
10
162.4499999999999886
20
-128.2999999999999829
11
162.4499999999999886
21
-129.5
0
LINE
8
BLACK
6
CONTINUOUS
10
162.4499999999999886
20
-129.5
11
162.4309700000000021
21
-129.5956709999999816
0
LINE
8
BLACK
6
CONTINUOUS
10
162.4309700000000021
20
-129.5956709999999816
11
162.3767770000000041
21
-129.6767769999999871
0
LINE
8
BLACK
6
CONTINUOUS
10
162.3767770000000041
20
-129.6767769999999871
11
162.2956709999999987
21
-129.730969999999985
0
LINE
8
BLACK
6
CONTINUOUS
10
162.2956709999999987
20
-129.730969999999985
11
162.1999999999999886
21
-129.75
0
LINE
8
BLACK
6
CONTINUOUS
10
162.1999999999999886
20
-129.75
11
161.
21
-129.75
0
LINE
8
BLACK
6
CONTINUOUS
10
161.
20
-129.75
11
160.9043289999999899
21
-129.730969999999985
0
LINE
8
BLACK
6
CONTINUOUS
10
160.9043289999999899
20
-129.730969999999985
11
160.8232229999999845
21
-129.6767769999999871
0
LINE
8
BLACK
6
CONTINUOUS
10
160.8232229999999845
20
-129.6767769999999871
11
160.7690299999999866
21
-129.5956709999999816
0
LINE
8
BLACK
6
CONTINUOUS
10
160.7690299999999866
20
-129.5956709999999816
11
160.75
21
-129.5
0
LINE
8
BLACK
6
CONTINUOUS
10
160.75
20
-129.5
11
160.75
21
-128.2999999999999829
0
LINE
8
BLACK
6
CONTINUOUS
10
160.75
20
-128.2999999999999829
11
160.7690299999999866
21
-128.2043290000000013
0
LINE
8
BLACK
6
CONTINUOUS
10
160.7690299999999866
20
-128.2043290000000013
11
160.8232229999999845
21
-128.1232229999999959
0
LINE
8
BLACK
6
CONTINUOUS
10
160.8232229999999845
20
-128.1232229999999959
11
160.9043289999999899
21
-128.0690299999999979
0
LINE
8
BLACK
6
CONTINUOUS
10
160.9043289999999899
20
-128.0690299999999979
11
161.
21
-128.0499999999999829
0
LINE
8
BLACK
6
CONTINUOUS
10
161.
20
-128.0499999999999829
11
162.1999999999999886
21
-128.0499999999999829
0
LINE
8
BLACK
6
CONTINUOUS
10
162.1999999999999886
20
-128.0499999999999829
11
162.2956709999999987
21
-128.0690299999999979
0
LINE
8
BLACK
6
CONTINUOUS
10
164.4499999999999886
20
-129.75
11
162.75
21
-129.75
0
LINE
8
BLACK
6
CONTINUOUS
10
162.75
20
-129.75
11
162.75
21
-128.0499999999999829
0
LINE
8
BLACK
6
CONTINUOUS
10
162.75
20
-128.0499999999999829
11
164.4499999999999886
21
-128.0499999999999829
0
LINE
8
BLACK
6
CONTINUOUS
10
164.4499999999999886
20
-128.0499999999999829
11
164.4499999999999886
21
-129.75
0
LINE
8
BLACK
6
CONTINUOUS
10
171.2956709999999987
20
-128.0690299999999979
11
171.3767770000000041
21
-128.1232229999999959
0
LINE
8
BLACK
6
CONTINUOUS
10
171.3767770000000041
20
-128.1232229999999959
11
171.4309700000000021
21
-128.2043290000000013
0
LINE
8
BLACK
6
CONTINUOUS
10
171.4309700000000021
20
-128.2043290000000013
11
171.4499999999999886
21
-128.2999999999999829
0
LINE
8
BLACK
6
CONTINUOUS
10
171.4499999999999886
20
-128.2999999999999829
11
171.4499999999999886
21
-129.5
0
LINE
8
BLACK
6
CONTINUOUS
10
171.4499999999999886
20
-129.5
11
171.4309700000000021
21
-129.5956709999999816
0
LINE
8
BLACK
6
CONTINUOUS
10
171.4309700000000021
20
-129.5956709999999816
11
171.3767770000000041
21
-129.6767769999999871
0
LINE
8
BLACK
6
CONTINUOUS
10
171.3767770000000041
20
-129.6767769999999871
11
171.2956709999999987
21
-129.730969999999985
0
LINE
8
BLACK
6
CONTINUOUS
10
171.2956709999999987
20
-129.730969999999985
11
171.1999999999999886
21
-129.75
0
LINE
8
BLACK
6
CONTINUOUS
10
171.1999999999999886
20
-129.75
11
170.
21
-129.75
0
LINE
8
BLACK
6
CONTINUOUS
10
170.
20
-129.75
11
169.9043289999999899
21
-129.730969999999985
0
LINE
8
BLACK
6
CONTINUOUS
10
169.9043289999999899
20
-129.730969999999985
11
169.8232229999999845
21
-129.6767769999999871
0
LINE
8
BLACK
6
CONTINUOUS
10
169.8232229999999845
20
-129.6767769999999871
11
169.7690299999999866
21
-129.5956709999999816
0
LINE
8
BLACK
6
CONTINUOUS
10
169.7690299999999866
20
-129.5956709999999816
11
169.75
21
-129.5
0
LINE
8
BLACK
6
CONTINUOUS
10
169.75
20
-129.5
11
169.75
21
-128.2999999999999829
0
LINE
8
BLACK
6
CONTINUOUS
10
169.75
20
-128.2999999999999829
11
169.7690299999999866
21
-128.2043290000000013
0
LINE
8
BLACK
6
CONTINUOUS
10
169.7690299999999866
20
-128.2043290000000013
11
169.8232229999999845
21
-128.1232229999999959
0
LINE
8
BLACK
6
CONTINUOUS
10
169.8232229999999845
20
-128.1232229999999959
11
169.9043289999999899
21
-128.0690299999999979
0
LINE
8
BLACK
6
CONTINUOUS
10
169.9043289999999899
20
-128.0690299999999979
11
170.
21
-128.0499999999999829
0
LINE
8
BLACK
6
CONTINUOUS
10
170.
20
-128.0499999999999829
11
171.1999999999999886
21
-128.0499999999999829
0
LINE
8
BLACK
6
CONTINUOUS
10
171.1999999999999886
20
-128.0499999999999829
11
171.2956709999999987
21
-128.0690299999999979
0
LINE
8
BLACK
6
CONTINUOUS
10
166.3867419999999981
20
-128.0866010000000017
11
166.5406869999999913
21
-128.1503669999999886
0
LINE
8
BLACK
6
CONTINUOUS
10
166.5406869999999913
20
-128.1503669999999886
11
166.6792339999999797
21
-128.2429410000000018
0
LINE
8
BLACK
6
CONTINUOUS
10
166.6792339999999797
20
-128.2429410000000018
11
166.7970589999999902
21
-128.3607659999999839
0
LINE
8
BLACK
6
CONTINUOUS
10
166.7970589999999902
20
-128.3607659999999839
11
166.8896330000000034
21
-128.4993130000000008
0
LINE
8
BLACK
6
CONTINUOUS
10
166.8896330000000034
20
-128.4993130000000008
11
166.9533989999999903
21
-128.6532579999999939
0
LINE
8
BLACK
6
CONTINUOUS
10
166.9533989999999903
20
-128.6532579999999939
11
166.9859069999999974
21
-128.8166850000000068
0
LINE
8
BLACK
6
CONTINUOUS
10
166.9859069999999974
20
-128.8166850000000068
11
166.9859069999999974
21
-128.9833150000000046
0
LINE
8
BLACK
6
CONTINUOUS
10
166.9859069999999974
20
-128.9833150000000046
11
166.9533989999999903
21
-129.146741999999989
0
LINE
8
BLACK
6
CONTINUOUS
10
166.9533989999999903
20
-129.146741999999989
11
166.8896330000000034
21
-129.3006869999999822
0
LINE
8
BLACK
6
CONTINUOUS
10
166.8896330000000034
20
-129.3006869999999822
11
166.7970589999999902
21
-129.439233999999999
0
LINE
8
BLACK
6
CONTINUOUS
10
166.7970589999999902
20
-129.439233999999999
11
166.6792339999999797
21
-129.5570589999999811
0
LINE
8
BLACK
6
CONTINUOUS
10
166.6792339999999797
20
-129.5570589999999811
11
166.5406869999999913
21
-129.6496329999999944
0
LINE
8
BLACK
6
CONTINUOUS
10
166.5406869999999913
20
-129.6496329999999944
11
166.3867419999999981
21
-129.7133989999999812
0
LINE
8
BLACK
6
CONTINUOUS
10
166.3867419999999981
20
-129.7133989999999812
11
166.2233149999999853
21
-129.7459069999999883
0
LINE
8
BLACK
6
CONTINUOUS
10
166.2233149999999853
20
-129.7459069999999883
11
166.0566849999999874
21
-129.7459069999999883
0
LINE
8
BLACK
6
CONTINUOUS
10
166.0566849999999874
20
-129.7459069999999883
11
165.893258000000003
21
-129.7133989999999812
0
LINE
8
BLACK
6
CONTINUOUS
10
165.893258000000003
20
-129.7133989999999812
11
165.7393129999999815
21
-129.6496329999999944
0
LINE
8
BLACK
6
CONTINUOUS
10
165.7393129999999815
20
-129.6496329999999944
11
165.600765999999993
21
-129.5570589999999811
0
LINE
8
BLACK
6
CONTINUOUS
10
165.600765999999993
20
-129.5570589999999811
11
165.4829409999999825
21
-129.439233999999999
0
LINE
8
BLACK
6
CONTINUOUS
10
165.4829409999999825
20
-129.439233999999999
11
165.3903669999999977
21
-129.3006869999999822
0
LINE
8
BLACK
6
CONTINUOUS
10
165.3903669999999977
20
-129.3006869999999822
11
165.3266009999999824
21
-129.146741999999989
0
LINE
8
BLACK
6
CONTINUOUS
10
165.3266009999999824
20
-129.146741999999989
11
165.2940930000000037
21
-128.9833150000000046
0
LINE
8
BLACK
6
CONTINUOUS
10
165.2940930000000037
20
-128.9833150000000046
11
165.2940930000000037
21
-128.8166850000000068
0
LINE
8
BLACK
6
CONTINUOUS
10
165.2940930000000037
20
-128.8166850000000068
11
165.3266009999999824
21
-128.6532579999999939
0
LINE
8
BLACK
6
CONTINUOUS
10
165.3266009999999824
20
-128.6532579999999939
11
165.3903669999999977
21
-128.4993130000000008
0
LINE
8
BLACK
6
CONTINUOUS
10
165.3903669999999977
20
-128.4993130000000008
11
165.4829409999999825
21
-128.3607659999999839
0
LINE
8
BLACK
6
CONTINUOUS
10
165.4829409999999825
20
-128.3607659999999839
11
165.600765999999993
21
-128.2429410000000018
0
LINE
8
BLACK
6
CONTINUOUS
10
165.600765999999993
20
-128.2429410000000018
11
165.7393129999999815
21
-128.1503669999999886
0
LINE
8
BLACK
6
CONTINUOUS
10
165.7393129999999815
20
-128.1503669999999886
11
165.893258000000003
21
-128.0866010000000017
0
LINE
8
BLACK
6
CONTINUOUS
10
165.893258000000003
20
-128.0866010000000017
11
166.0566849999999874
21
-128.0540929999999946
0
LINE
8
BLACK
6
CONTINUOUS
10
166.0566849999999874
20
-128.0540929999999946
11
166.2233149999999853
21
-128.0540929999999946
0
LINE
8
BLACK
6
CONTINUOUS
10
166.2233149999999853
20
-128.0540929999999946
11
166.3867419999999981
21
-128.0866010000000017
0
LINE
8
BLACK
6
CONTINUOUS
10
168.9267419999999902
20
-128.0866010000000017
11
169.0806869999999833
21
-128.1503669999999886
0
LINE
8
BLACK
6
CONTINUOUS
10
169.0806869999999833
20
-128.1503669999999886
11
169.2192340000000002
21
-128.2429410000000018
0
LINE
8
BLACK
6
CONTINUOUS
10
169.2192340000000002
20
-128.2429410000000018
11
169.3370589999999822
21
-128.3607659999999839
0
LINE
8
BLACK
6
CONTINUOUS
10
169.3370589999999822
20
-128.3607659999999839
11
169.4296329999999955
21
-128.4993130000000008
0
LINE
8
BLACK
6
CONTINUOUS
10
169.4296329999999955
20
-128.4993130000000008
11
169.4933989999999824
21
-128.6532579999999939
0
LINE
8
BLACK
6
CONTINUOUS
10
169.4933989999999824
20
-128.6532579999999939
11
169.5259069999999895
21
-128.8166850000000068
0
LINE
8
BLACK
6
CONTINUOUS
10
169.5259069999999895
20
-128.8166850000000068
11
169.5259069999999895
21
-128.9833150000000046
0
LINE
8
BLACK
6
CONTINUOUS
10
169.5259069999999895
20
-128.9833150000000046
11
169.4933989999999824
21
-129.146741999999989
0
LINE
8
BLACK
6
CONTINUOUS
10
169.4933989999999824
20
-129.146741999999989
11
169.4296329999999955
21
-129.3006869999999822
0
LINE
8
BLACK
6
CONTINUOUS
10
169.4296329999999955
20
-129.3006869999999822
11
169.3370589999999822
21
-129.439233999999999
0
LINE
8
BLACK
6
CONTINUOUS
10
169.3370589999999822
20
-129.439233999999999
11
169.2192340000000002
21
-129.5570589999999811
0
LINE
8
BLACK
6
CONTINUOUS
10
169.2192340000000002
20
-129.5570589999999811
11
169.0806869999999833
21
-129.6496329999999944
0
LINE
8
BLACK
6
CONTINUOUS
10
169.0806869999999833
20
-129.6496329999999944
11
168.9267419999999902
21
-129.7133989999999812
0
LINE
8
BLACK
6
CONTINUOUS
10
168.9267419999999902
20
-129.7133989999999812
11
168.7633150000000057
21
-129.7459069999999883
0
LINE
8
BLACK
6
CONTINUOUS
10
168.7633150000000057
20
-129.7459069999999883
11
168.5966849999999795
21
-129.7459069999999883
0
LINE
8
BLACK
6
CONTINUOUS
10
168.5966849999999795
20
-129.7459069999999883
11
168.433257999999995
21
-129.7133989999999812
0
LINE
8
BLACK
6
CONTINUOUS
10
168.433257999999995
20
-129.7133989999999812
11
168.2793130000000019
21
-129.6496329999999944
0
LINE
8
BLACK
6
CONTINUOUS
10
168.2793130000000019
20
-129.6496329999999944
11
168.1407659999999851
21
-129.5570589999999811
0
LINE
8
BLACK
6
CONTINUOUS
10
168.1407659999999851
20
-129.5570589999999811
11
168.022941000000003
21
-129.439233999999999
0
LINE
8
BLACK
6
CONTINUOUS
10
168.022941000000003
20
-129.439233999999999
11
167.9303669999999897
21
-129.3006869999999822
0
LINE
8
BLACK
6
CONTINUOUS
10
167.9303669999999897
20
-129.3006869999999822
11
167.8666010000000028
21
-129.146741999999989
0
LINE
8
BLACK
6
CONTINUOUS
10
167.8666010000000028
20
-129.146741999999989
11
167.8340929999999958
21
-128.9833150000000046
0
LINE
8
BLACK
6
CONTINUOUS
10
167.8340929999999958
20
-128.9833150000000046
11
167.8340929999999958
21
-128.8166850000000068
0
LINE
8
BLACK
6
CONTINUOUS
10
167.8340929999999958
20
-128.8166850000000068
11
167.8666010000000028
21
-128.6532579999999939
0
LINE
8
BLACK
6
CONTINUOUS
10
167.8666010000000028
20
-128.6532579999999939
11
167.9303669999999897
21
-128.4993130000000008
0
LINE
8
BLACK
6
CONTINUOUS
10
167.9303669999999897
20
-128.4993130000000008
11
168.022941000000003
21
-128.3607659999999839
0
LINE
8
BLACK
6
CONTINUOUS
10
168.022941000000003
20
-128.3607659999999839
11
168.1407659999999851
21
-128.2429410000000018
0
LINE
8
BLACK
6
CONTINUOUS
10
168.1407659999999851
20
-128.2429410000000018
11
168.2793130000000019
21
-128.1503669999999886
0
LINE
8
BLACK
6
CONTINUOUS
10
168.2793130000000019
20
-128.1503669999999886
11
168.433257999999995
21
-128.0866010000000017
0
LINE
8
BLACK
6
CONTINUOUS
10
168.433257999999995
20
-128.0866010000000017
11
168.5966849999999795
21
-128.0540929999999946
0
LINE
8
BLACK
6
CONTINUOUS
10
168.5966849999999795
20
-128.0540929999999946
11
168.7633150000000057
21
-128.0540929999999946
0
LINE
8
BLACK
6
CONTINUOUS
10
168.7633150000000057
20
-128.0540929999999946
11
168.9267419999999902
21
-128.0866010000000017
0
LINE
8
BLACK
6
CONTINUOUS
10
170.5456709999999987
20
-125.2190299999999894
11
170.6267770000000041
21
-125.2732229999999873
0
LINE
8
BLACK
6
CONTINUOUS
10
170.6267770000000041
20
-125.2732229999999873
11
170.6809700000000021
21
-125.3543289999999928
0
LINE
8
BLACK
6
CONTINUOUS
10
170.6809700000000021
20
-125.3543289999999928
11
170.6999999999999886
21
-125.4499999999999886
0
LINE
8
BLACK
6
CONTINUOUS
10
170.6999999999999886
20
-125.4499999999999886
11
170.6999999999999886
21
-126.5499999999999972
0
LINE
8
BLACK
6
CONTINUOUS
10
170.6999999999999886
20
-126.5499999999999972
11
170.6809700000000021
21
-126.645670999999993
0
LINE
8
BLACK
6
CONTINUOUS
10
170.6809700000000021
20
-126.645670999999993
11
170.6267770000000041
21
-126.7267769999999985
0
LINE
8
BLACK
6
CONTINUOUS
10
170.6267770000000041
20
-126.7267769999999985
11
170.5456709999999987
21
-126.7809699999999964
0
LINE
8
BLACK
6
CONTINUOUS
10
170.5456709999999987
20
-126.7809699999999964
11
170.4499999999999886
21
-126.7999999999999972
0
LINE
8
BLACK
6
CONTINUOUS
10
170.4499999999999886
20
-126.7999999999999972
11
169.3499999999999943
21
-126.7999999999999972
0
LINE
8
BLACK
6
CONTINUOUS
10
169.3499999999999943
20
-126.7999999999999972
11
169.2543289999999843
21
-126.7809699999999964
0
LINE
8
BLACK
6
CONTINUOUS
10
169.2543289999999843
20
-126.7809699999999964
11
169.1732229999999788
21
-126.7267769999999985
0
LINE
8
BLACK
6
CONTINUOUS
10
169.1732229999999788
20
-126.7267769999999985
11
169.1190299999999809
21
-126.645670999999993
0
LINE
8
BLACK
6
CONTINUOUS
10
169.1190299999999809
20
-126.645670999999993
11
169.0999999999999943
21
-126.5499999999999972
0
LINE
8
BLACK
6
CONTINUOUS
10
169.0999999999999943
20
-126.5499999999999972
11
169.0999999999999943
21
-125.4499999999999886
0
LINE
8
BLACK
6
CONTINUOUS
10
169.0999999999999943
20
-125.4499999999999886
11
169.1190299999999809
21
-125.3543289999999928
0
LINE
8
BLACK
6
CONTINUOUS
10
169.1190299999999809
20
-125.3543289999999928
11
169.1732229999999788
21
-125.2732229999999873
0
LINE
8
BLACK
6
CONTINUOUS
10
169.1732229999999788
20
-125.2732229999999873
11
169.2543289999999843
21
-125.2190299999999894
0
LINE
8
BLACK
6
CONTINUOUS
10
169.2543289999999843
20
-125.2190299999999894
11
169.3499999999999943
21
-125.1999999999999886
0
LINE
8
BLACK
6
CONTINUOUS
10
169.3499999999999943
20
-125.1999999999999886
11
170.4499999999999886
21
-125.1999999999999886
0
LINE
8
BLACK
6
CONTINUOUS
10
170.4499999999999886
20
-125.1999999999999886
11
170.5456709999999987
21
-125.2190299999999894
0
LINE
8
BLACK
6
CONTINUOUS
10
162.5122279999999932
20
-125.2344480000000004
11
162.6571169999999995
21
-125.2944629999999933
0
LINE
8
BLACK
6
CONTINUOUS
10
162.6571169999999995
20
-125.2944629999999933
11
162.7875149999999849
21
-125.3815919999999977
0
LINE
8
BLACK
6
CONTINUOUS
10
162.7875149999999849
20
-125.3815919999999977
11
162.8984079999999892
21
-125.4924849999999878
0
LINE
8
BLACK
6
CONTINUOUS
10
162.8984079999999892
20
-125.4924849999999878
11
162.9855369999999937
21
-125.6228829999999874
0
LINE
8
BLACK
6
CONTINUOUS
10
162.9855369999999937
20
-125.6228829999999874
11
163.0455519999999865
21
-125.7677719999999937
0
LINE
8
BLACK
6
CONTINUOUS
10
163.0455519999999865
20
-125.7677719999999937
11
163.0761479999999892
21
-125.9215859999999907
0
LINE
8
BLACK
6
CONTINUOUS
10
163.0761479999999892
20
-125.9215859999999907
11
163.0761479999999892
21
-126.0784139999999951
0
LINE
8
BLACK
6
CONTINUOUS
10
163.0761479999999892
20
-126.0784139999999951
11
163.0455519999999865
21
-126.2322279999999921
0
LINE
8
BLACK
6
CONTINUOUS
10
163.0455519999999865
20
-126.2322279999999921
11
162.9855369999999937
21
-126.3771169999999984
0
LINE
8
BLACK
6
CONTINUOUS
10
162.9855369999999937
20
-126.3771169999999984
11
162.8984079999999892
21
-126.5075149999999979
0
LINE
8
BLACK
6
CONTINUOUS
10
162.8984079999999892
20
-126.5075149999999979
11
162.7875149999999849
21
-126.6184079999999881
0
LINE
8
BLACK
6
CONTINUOUS
10
162.7875149999999849
20
-126.6184079999999881
11
162.6571169999999995
21
-126.7055369999999925
0
LINE
8
BLACK
6
CONTINUOUS
10
162.6571169999999995
20
-126.7055369999999925
11
162.5122279999999932
21
-126.7655519999999996
0
LINE
8
BLACK
6
CONTINUOUS
10
162.5122279999999932
20
-126.7655519999999996
11
162.358413999999982
21
-126.7961479999999881
0
LINE
8
BLACK
6
CONTINUOUS
10
162.358413999999982
20
-126.7961479999999881
11
162.2015859999999918
21
-126.7961479999999881
0
LINE
8
BLACK
6
CONTINUOUS
10
162.2015859999999918
20
-126.7961479999999881
11
162.0477719999999806
21
-126.7655519999999996
0
LINE
8
BLACK
6
CONTINUOUS
10
162.0477719999999806
20
-126.7655519999999996
11
161.9028830000000028
21
-126.7055369999999925
0
LINE
8
BLACK
6
CONTINUOUS
10
161.9028830000000028
20
-126.7055369999999925
11
161.772484999999989
21
-126.6184079999999881
0
LINE
8
BLACK
6
CONTINUOUS
10
161.772484999999989
20
-126.6184079999999881
11
161.6615919999999846
21
-126.5075149999999979
0
LINE
8
BLACK
6
CONTINUOUS
10
161.6615919999999846
20
-126.5075149999999979
11
161.5744629999999802
21
-126.3771169999999984
0
LINE
8
BLACK
6
CONTINUOUS
10
161.5744629999999802
20
-126.3771169999999984
11
161.5144479999999874
21
-126.2322279999999921
0
LINE
8
BLACK
6
CONTINUOUS
10
161.5144479999999874
20
-126.2322279999999921
11
161.4838519999999846
21
-126.0784139999999951
0
LINE
8
BLACK
6
CONTINUOUS
10
161.4838519999999846
20
-126.0784139999999951
11
161.4838519999999846
21
-125.9215859999999907
0
LINE
8
BLACK
6
CONTINUOUS
10
161.4838519999999846
20
-125.9215859999999907
11
161.5144479999999874
21
-125.7677719999999937
0
LINE
8
BLACK
6
CONTINUOUS
10
161.5144479999999874
20
-125.7677719999999937
11
161.5744629999999802
21
-125.6228829999999874
0
LINE
8
BLACK
6
CONTINUOUS
10
161.5744629999999802
20
-125.6228829999999874
11
161.6615919999999846
21
-125.4924849999999878
0
LINE
8
BLACK
6
CONTINUOUS
10
161.6615919999999846
20
-125.4924849999999878
11
161.772484999999989
21
-125.3815919999999977
0
LINE
8
BLACK
6
CONTINUOUS
10
161.772484999999989
20
-125.3815919999999977
11
161.9028830000000028
21
-125.2944629999999933
0
LINE
8
BLACK
6
CONTINUOUS
10
161.9028830000000028
20
-125.2944629999999933
11
162.0477719999999806
21
-125.2344480000000004
0
LINE
8
BLACK
6
CONTINUOUS
10
162.0477719999999806
20
-125.2344480000000004
11
162.2015859999999918
21
-125.2038519999999977
0
LINE
8
BLACK
6
CONTINUOUS
10
162.2015859999999918
20
-125.2038519999999977
11
162.358413999999982
21
-125.2038519999999977
0
LINE
8
BLACK
6
CONTINUOUS
10
162.358413999999982
20
-125.2038519999999977
11
162.5122279999999932
21
-125.2344480000000004
0
LINE
8
BLACK
6
CONTINUOUS
10
165.0522279999999853
20
-125.2344480000000004
11
165.1971169999999915
21
-125.2944629999999933
0
LINE
8
BLACK
6
CONTINUOUS
10
165.1971169999999915
20
-125.2944629999999933
11
165.3275150000000053
21
-125.3815919999999977
0
LINE
8
BLACK
6
CONTINUOUS
10
165.3275150000000053
20
-125.3815919999999977
11
165.4384079999999813
21
-125.4924849999999878
0
LINE
8
BLACK
6
CONTINUOUS
10
165.4384079999999813
20
-125.4924849999999878
11
165.5255369999999857
21
-125.6228829999999874
0
LINE
8
BLACK
6
CONTINUOUS
10
165.5255369999999857
20
-125.6228829999999874
11
165.5855519999999785
21
-125.7677719999999937
0
LINE
8
BLACK
6
CONTINUOUS
10
165.5855519999999785
20
-125.7677719999999937
11
165.6161479999999813
21
-125.9215859999999907
0
LINE
8
BLACK
6
CONTINUOUS
10
165.6161479999999813
20
-125.9215859999999907
11
165.6161479999999813
21
-126.0784139999999951
0
LINE
8
BLACK
6
CONTINUOUS
10
165.6161479999999813
20
-126.0784139999999951
11
165.5855519999999785
21
-126.2322279999999921
0
LINE
8
BLACK
6
CONTINUOUS
10
165.5855519999999785
20
-126.2322279999999921
11
165.5255369999999857
21
-126.3771169999999984
0
LINE
8
BLACK
6
CONTINUOUS
10
165.5255369999999857
20
-126.3771169999999984
11
165.4384079999999813
21
-126.5075149999999979
0
LINE
8
BLACK
6
CONTINUOUS
10
165.4384079999999813
20
-126.5075149999999979
11
165.3275150000000053
21
-126.6184079999999881
0
LINE
8
BLACK
6
CONTINUOUS
10
165.3275150000000053
20
-126.6184079999999881
11
165.1971169999999915
21
-126.7055369999999925
0
LINE
8
BLACK
6
CONTINUOUS
10
165.1971169999999915
20
-126.7055369999999925
11
165.0522279999999853
21
-126.7655519999999996
0
LINE
8
BLACK
6
CONTINUOUS
10
165.0522279999999853
20
-126.7655519999999996
11
164.8984140000000025
21
-126.7961479999999881
0
LINE
8
BLACK
6
CONTINUOUS
10
164.8984140000000025
20
-126.7961479999999881
11
164.7415859999999839
21
-126.7961479999999881
0
LINE
8
BLACK
6
CONTINUOUS
10
164.7415859999999839
20
-126.7961479999999881
11
164.5877720000000011
21
-126.7655519999999996
0
LINE
8
BLACK
6
CONTINUOUS
10
164.5877720000000011
20
-126.7655519999999996
11
164.4428829999999948
21
-126.7055369999999925
0
LINE
8
BLACK
6
CONTINUOUS
10
164.4428829999999948
20
-126.7055369999999925
11
164.312484999999981
21
-126.6184079999999881
0
LINE
8
BLACK
6
CONTINUOUS
10
164.312484999999981
20
-126.6184079999999881
11
164.2015920000000051
21
-126.5075149999999979
0
LINE
8
BLACK
6
CONTINUOUS
10
164.2015920000000051
20
-126.5075149999999979
11
164.1144630000000006
21
-126.3771169999999984
0
LINE
8
BLACK
6
CONTINUOUS
10
164.1144630000000006
20
-126.3771169999999984
11
164.0544479999999794
21
-126.2322279999999921
0
LINE
8
BLACK
6
CONTINUOUS
10
164.0544479999999794
20
-126.2322279999999921
11
164.0238520000000051
21
-126.0784139999999951
0
LINE
8
BLACK
6
CONTINUOUS
10
164.0238520000000051
20
-126.0784139999999951
11
164.0238520000000051
21
-125.9215859999999907
0
LINE
8
BLACK
6
CONTINUOUS
10
164.0238520000000051
20
-125.9215859999999907
11
164.0544479999999794
21
-125.7677719999999937
0
LINE
8
BLACK
6
CONTINUOUS
10
164.0544479999999794
20
-125.7677719999999937
11
164.1144630000000006
21
-125.6228829999999874
0
LINE
8
BLACK
6
CONTINUOUS
10
164.1144630000000006
20
-125.6228829999999874
11
164.2015920000000051
21
-125.4924849999999878
0
LINE
8
BLACK
6
CONTINUOUS
10
164.2015920000000051
20
-125.4924849999999878
11
164.312484999999981
21
-125.3815919999999977
0
LINE
8
BLACK
6
CONTINUOUS
10
164.312484999999981
20
-125.3815919999999977
11
164.4428829999999948
21
-125.2944629999999933
0
LINE
8
BLACK
6
CONTINUOUS
10
164.4428829999999948
20
-125.2944629999999933
11
164.5877720000000011
21
-125.2344480000000004
0
LINE
8
BLACK
6
CONTINUOUS
10
164.5877720000000011
20
-125.2344480000000004
11
164.7415859999999839
21
-125.2038519999999977
0
LINE
8
BLACK
6
CONTINUOUS
10
164.7415859999999839
20
-125.2038519999999977
11
164.8984140000000025
21
-125.2038519999999977
0
LINE
8
BLACK
6
CONTINUOUS
10
164.8984140000000025
20
-125.2038519999999977
11
165.0522279999999853
21
-125.2344480000000004
0
LINE
8
BLACK
6
CONTINUOUS
10
167.5922280000000057
20
-125.2344480000000004
11
167.7371169999999836
21
-125.2944629999999933
0
LINE
8
BLACK
6
CONTINUOUS
10
167.7371169999999836
20
-125.2944629999999933
11
167.8675149999999974
21
-125.3815919999999977
0
LINE
8
BLACK
6
CONTINUOUS
10
167.8675149999999974
20
-125.3815919999999977
11
167.9784080000000017
21
-125.4924849999999878
0
LINE
8
BLACK
6
CONTINUOUS
10
167.9784080000000017
20
-125.4924849999999878
11
168.0655370000000062
21
-125.6228829999999874
0
LINE
8
BLACK
6
CONTINUOUS
10
168.0655370000000062
20
-125.6228829999999874
11
168.125551999999999
21
-125.7677719999999937
0
LINE
8
BLACK
6
CONTINUOUS
10
168.125551999999999
20
-125.7677719999999937
11
168.1561480000000017
21
-125.9215859999999907
0
LINE
8
BLACK
6
CONTINUOUS
10
168.1561480000000017
20
-125.9215859999999907
11
168.1561480000000017
21
-126.0784139999999951
0
LINE
8
BLACK
6
CONTINUOUS
10
168.1561480000000017
20
-126.0784139999999951
11
168.125551999999999
21
-126.2322279999999921
0
LINE
8
BLACK
6
CONTINUOUS
10
168.125551999999999
20
-126.2322279999999921
11
168.0655370000000062
21
-126.3771169999999984
0
LINE
8
BLACK
6
CONTINUOUS
10
168.0655370000000062
20
-126.3771169999999984
11
167.9784080000000017
21
-126.5075149999999979
0
LINE
8
BLACK
6
CONTINUOUS
10
167.9784080000000017
20
-126.5075149999999979
11
167.8675149999999974
21
-126.6184079999999881
0
LINE
8
BLACK
6
CONTINUOUS
10
167.8675149999999974
20
-126.6184079999999881
11
167.7371169999999836
21
-126.7055369999999925
0
LINE
8
BLACK
6
CONTINUOUS
10
167.7371169999999836
20
-126.7055369999999925
11
167.5922280000000057
21
-126.7655519999999996
0
LINE
8
BLACK
6
CONTINUOUS
10
167.5922280000000057
20
-126.7655519999999996
11
167.4384139999999945
21
-126.7961479999999881
0
LINE
8
BLACK
6
CONTINUOUS
10
167.4384139999999945
20
-126.7961479999999881
11
167.2815860000000043
21
-126.7961479999999881
0
LINE
8
BLACK
6
CONTINUOUS
10
167.2815860000000043
20
-126.7961479999999881
11
167.1277719999999931
21
-126.7655519999999996
0
LINE
8
BLACK
6
CONTINUOUS
10
167.1277719999999931
20
-126.7655519999999996
11
166.9828829999999869
21
-126.7055369999999925
0
LINE
8
BLACK
6
CONTINUOUS
10
166.9828829999999869
20
-126.7055369999999925
11
166.8524850000000015
21
-126.6184079999999881
0
LINE
8
BLACK
6
CONTINUOUS
10
166.8524850000000015
20
-126.6184079999999881
11
166.7415919999999971
21
-126.5075149999999979
0
LINE
8
BLACK
6
CONTINUOUS
10
166.7415919999999971
20
-126.5075149999999979
11
166.6544629999999927
21
-126.3771169999999984
0
LINE
8
BLACK
6
CONTINUOUS
10
166.6544629999999927
20
-126.3771169999999984
11
166.5944479999999999
21
-126.2322279999999921
0
LINE
8
BLACK
6
CONTINUOUS
10
166.5944479999999999
20
-126.2322279999999921
11
166.5638519999999971
21
-126.0784139999999951
0
LINE
8
BLACK
6
CONTINUOUS
10
166.5638519999999971
20
-126.0784139999999951
11
166.5638519999999971
21
-125.9215859999999907
0
LINE
8
BLACK
6
CONTINUOUS
10
166.5638519999999971
20
-125.9215859999999907
11
166.5944479999999999
21
-125.7677719999999937
0
LINE
8
BLACK
6
CONTINUOUS
10
166.5944479999999999
20
-125.7677719999999937
11
166.6544629999999927
21
-125.6228829999999874
0
LINE
8
BLACK
6
CONTINUOUS
10
166.6544629999999927
20
-125.6228829999999874
11
166.7415919999999971
21
-125.4924849999999878
0
LINE
8
BLACK
6
CONTINUOUS
10
166.7415919999999971
20
-125.4924849999999878
11
166.8524850000000015
21
-125.3815919999999977
0
LINE
8
BLACK
6
CONTINUOUS
10
166.8524850000000015
20
-125.3815919999999977
11
166.9828829999999869
21
-125.2944629999999933
0
LINE
8
BLACK
6
CONTINUOUS
10
166.9828829999999869
20
-125.2944629999999933
11
167.1277719999999931
21
-125.2344480000000004
0
LINE
8
BLACK
6
CONTINUOUS
10
167.1277719999999931
20
-125.2344480000000004
11
167.2815860000000043
21
-125.2038519999999977
0
LINE
8
BLACK
6
CONTINUOUS
10
167.2815860000000043
20
-125.2038519999999977
11
167.4384139999999945
21
-125.2038519999999977
0
LINE
8
BLACK
6
CONTINUOUS
10
167.4384139999999945
20
-125.2038519999999977
11
167.5922280000000057
21
-125.2344480000000004
0
LINE
8
BLACK
6
CONTINUOUS
10
162.5122279999999932
20
-117.6144479999999959
11
162.6571169999999995
21
-117.6744629999999887
0
LINE
8
BLACK
6
CONTINUOUS
10
162.6571169999999995
20
-117.6744629999999887
11
162.7875149999999849
21
-117.7615919999999932
0
LINE
8
BLACK
6
CONTINUOUS
10
162.7875149999999849
20
-117.7615919999999932
11
162.8984079999999892
21
-117.8724849999999975
0
LINE
8
BLACK
6
CONTINUOUS
10
162.8984079999999892
20
-117.8724849999999975
11
162.9855369999999937
21
-118.0028829999999971
0
LINE
8
BLACK
6
CONTINUOUS
10
162.9855369999999937
20
-118.0028829999999971
11
163.0455519999999865
21
-118.1477719999999891
0
LINE
8
BLACK
6
CONTINUOUS
10
163.0455519999999865
20
-118.1477719999999891
11
163.0761479999999892
21
-118.3015860000000004
0
LINE
8
BLACK
6
CONTINUOUS
10
163.0761479999999892
20
-118.3015860000000004
11
163.0761479999999892
21
-118.4584139999999906
0
LINE
8
BLACK
6
CONTINUOUS
10
163.0761479999999892
20
-118.4584139999999906
11
163.0455519999999865
21
-118.6122279999999876
0
LINE
8
BLACK
6
CONTINUOUS
10
163.0455519999999865
20
-118.6122279999999876
11
162.9855369999999937
21
-118.7571169999999938
0
LINE
8
BLACK
6
CONTINUOUS
10
162.9855369999999937
20
-118.7571169999999938
11
162.8984079999999892
21
-118.8875149999999934
0
LINE
8
BLACK
6
CONTINUOUS
10
162.8984079999999892
20
-118.8875149999999934
11
162.7875149999999849
21
-118.9984079999999977
0
LINE
8
BLACK
6
CONTINUOUS
10
162.7875149999999849
20
-118.9984079999999977
11
162.6571169999999995
21
-119.085536999999988
0
LINE
8
BLACK
6
CONTINUOUS
10
162.6571169999999995
20
-119.085536999999988
11
162.5122279999999932
21
-119.145551999999995
0
LINE
8
BLACK
6
CONTINUOUS
10
162.5122279999999932
20
-119.145551999999995
11
162.358413999999982
21
-119.1761479999999978
0
LINE
8
BLACK
6
CONTINUOUS
10
162.358413999999982
20
-119.1761479999999978
11
162.2015859999999918
21
-119.1761479999999978
0
LINE
8
BLACK
6
CONTINUOUS
10
162.2015859999999918
20
-119.1761479999999978
11
162.0477719999999806
21
-119.145551999999995
0
LINE
8
BLACK
6
CONTINUOUS
10
162.0477719999999806
20
-119.145551999999995
11
161.9028830000000028
21
-119.085536999999988
0
LINE
8
BLACK
6
CONTINUOUS
10
161.9028830000000028
20
-119.085536999999988
11
161.772484999999989
21
-118.9984079999999977
0
LINE
8
BLACK
6
CONTINUOUS
10
161.772484999999989
20
-118.9984079999999977
11
161.6615919999999846
21
-118.8875149999999934
0
LINE
8
BLACK
6
CONTINUOUS
10
161.6615919999999846
20
-118.8875149999999934
11
161.5744629999999802
21
-118.7571169999999938
0
LINE
8
BLACK
6
CONTINUOUS
10
161.5744629999999802
20
-118.7571169999999938
11
161.5144479999999874
21
-118.6122279999999876
0
LINE
8
BLACK
6
CONTINUOUS
10
161.5144479999999874
20
-118.6122279999999876
11
161.4838519999999846
21
-118.4584139999999906
0
LINE
8
BLACK
6
CONTINUOUS
10
161.4838519999999846
20
-118.4584139999999906
11
161.4838519999999846
21
-118.3015860000000004
0
LINE
8
BLACK
6
CONTINUOUS
10
161.4838519999999846
20
-118.3015860000000004
11
161.5144479999999874
21
-118.1477719999999891
0
LINE
8
BLACK
6
CONTINUOUS
10
161.5144479999999874
20
-118.1477719999999891
11
161.5744629999999802
21
-118.0028829999999971
0
LINE
8
BLACK
6
CONTINUOUS
10
161.5744629999999802
20
-118.0028829999999971
11
161.6615919999999846
21
-117.8724849999999975
0
LINE
8
BLACK
6
CONTINUOUS
10
161.6615919999999846
20
-117.8724849999999975
11
161.772484999999989
21
-117.7615919999999932
0
LINE
8
BLACK
6
CONTINUOUS
10
161.772484999999989
20
-117.7615919999999932
11
161.9028830000000028
21
-117.6744629999999887
0
LINE
8
BLACK
6
CONTINUOUS
10
161.9028830000000028
20
-117.6744629999999887
11
162.0477719999999806
21
-117.6144479999999959
0
LINE
8
BLACK
6
CONTINUOUS
10
162.0477719999999806
20
-117.6144479999999959
11
162.2015859999999918
21
-117.5838519999999932
0
LINE
8
BLACK
6
CONTINUOUS
10
162.2015859999999918
20
-117.5838519999999932
11
162.358413999999982
21
-117.5838519999999932
0
LINE
8
BLACK
6
CONTINUOUS
10
162.358413999999982
20
-117.5838519999999932
11
162.5122279999999932
21
-117.6144479999999959
0
LINE
8
BLACK
6
CONTINUOUS
10
165.0522279999999853
20
-117.6144479999999959
11
165.1971169999999915
21
-117.6744629999999887
0
LINE
8
BLACK
6
CONTINUOUS
10
165.1971169999999915
20
-117.6744629999999887
11
165.3275150000000053
21
-117.7615919999999932
0
LINE
8
BLACK
6
CONTINUOUS
10
165.3275150000000053
20
-117.7615919999999932
11
165.4384079999999813
21
-117.8724849999999975
0
LINE
8
BLACK
6
CONTINUOUS
10
165.4384079999999813
20
-117.8724849999999975
11
165.5255369999999857
21
-118.0028829999999971
0
LINE
8
BLACK
6
CONTINUOUS
10
165.5255369999999857
20
-118.0028829999999971
11
165.5855519999999785
21
-118.1477719999999891
0
LINE
8
BLACK
6
CONTINUOUS
10
165.5855519999999785
20
-118.1477719999999891
11
165.6161479999999813
21
-118.3015860000000004
0
LINE
8
BLACK
6
CONTINUOUS
10
165.6161479999999813
20
-118.3015860000000004
11
165.6161479999999813
21
-118.4584139999999906
0
LINE
8
BLACK
6
CONTINUOUS
10
165.6161479999999813
20
-118.4584139999999906
11
165.5855519999999785
21
-118.6122279999999876
0
LINE
8
BLACK
6
CONTINUOUS
10
165.5855519999999785
20
-118.6122279999999876
11
165.5255369999999857
21
-118.7571169999999938
0
LINE
8
BLACK
6
CONTINUOUS
10
165.5255369999999857
20
-118.7571169999999938
11
165.4384079999999813
21
-118.8875149999999934
0
LINE
8
BLACK
6
CONTINUOUS
10
165.4384079999999813
20
-118.8875149999999934
11
165.3275150000000053
21
-118.9984079999999977
0
LINE
8
BLACK
6
CONTINUOUS
10
165.3275150000000053
20
-118.9984079999999977
11
165.1971169999999915
21
-119.085536999999988
0
LINE
8
BLACK
6
CONTINUOUS
10
165.1971169999999915
20
-119.085536999999988
11
165.0522279999999853
21
-119.145551999999995
0
LINE
8
BLACK
6
CONTINUOUS
10
165.0522279999999853
20
-119.145551999999995
11
164.8984140000000025
21
-119.1761479999999978
0
LINE
8
BLACK
6
CONTINUOUS
10
164.8984140000000025
20
-119.1761479999999978
11
164.7415859999999839
21
-119.1761479999999978
0
LINE
8
BLACK
6
CONTINUOUS
10
164.7415859999999839
20
-119.1761479999999978
11
164.5877720000000011
21
-119.145551999999995
0
LINE
8
BLACK
6
CONTINUOUS
10
164.5877720000000011
20
-119.145551999999995
11
164.4428829999999948
21
-119.085536999999988
0
LINE
8
BLACK
6
CONTINUOUS
10
164.4428829999999948
20
-119.085536999999988
11
164.312484999999981
21
-118.9984079999999977
0
LINE
8
BLACK
6
CONTINUOUS
10
164.312484999999981
20
-118.9984079999999977
11
164.2015920000000051
21
-118.8875149999999934
0
LINE
8
BLACK
6
CONTINUOUS
10
164.2015920000000051
20
-118.8875149999999934
11
164.1144630000000006
21
-118.7571169999999938
0
LINE
8
BLACK
6
CONTINUOUS
10
164.1144630000000006
20
-118.7571169999999938
11
164.0544479999999794
21
-118.6122279999999876
0
LINE
8
BLACK
6
CONTINUOUS
10
164.0544479999999794
20
-118.6122279999999876
11
164.0238520000000051
21
-118.4584139999999906
0
LINE
8
BLACK
6
CONTINUOUS
10
164.0238520000000051
20
-118.4584139999999906
11
164.0238520000000051
21
-118.3015860000000004
0
LINE
8
BLACK
6
CONTINUOUS
10
164.0238520000000051
20
-118.3015860000000004
11
164.0544479999999794
21
-118.1477719999999891
0
LINE
8
BLACK
6
CONTINUOUS
10
164.0544479999999794
20
-118.1477719999999891
11
164.1144630000000006
21
-118.0028829999999971
0
LINE
8
BLACK
6
CONTINUOUS
10
164.1144630000000006
20
-118.0028829999999971
11
164.2015920000000051
21
-117.8724849999999975
0
LINE
8
BLACK
6
CONTINUOUS
10
164.2015920000000051
20
-117.8724849999999975
11
164.312484999999981
21
-117.7615919999999932
0
LINE
8
BLACK
6
CONTINUOUS
10
164.312484999999981
20
-117.7615919999999932
11
164.4428829999999948
21
-117.6744629999999887
0
LINE
8
BLACK
6
CONTINUOUS
10
164.4428829999999948
20
-117.6744629999999887
11
164.5877720000000011
21
-117.6144479999999959
0
LINE
8
BLACK
6
CONTINUOUS
10
164.5877720000000011
20
-117.6144479999999959
11
164.7415859999999839
21
-117.5838519999999932
0
LINE
8
BLACK
6
CONTINUOUS
10
164.7415859999999839
20
-117.5838519999999932
11
164.8984140000000025
21
-117.5838519999999932
0
LINE
8
BLACK
6
CONTINUOUS
10
164.8984140000000025
20
-117.5838519999999932
11
165.0522279999999853
21
-117.6144479999999959
0
LINE
8
BLACK
6
CONTINUOUS
10
167.5922280000000057
20
-117.6144479999999959
11
167.7371169999999836
21
-117.6744629999999887
0
LINE
8
BLACK
6
CONTINUOUS
10
167.7371169999999836
20
-117.6744629999999887
11
167.8675149999999974
21
-117.7615919999999932
0
LINE
8
BLACK
6
CONTINUOUS
10
167.8675149999999974
20
-117.7615919999999932
11
167.9784080000000017
21
-117.8724849999999975
0
LINE
8
BLACK
6
CONTINUOUS
10
167.9784080000000017
20
-117.8724849999999975
11
168.0655370000000062
21
-118.0028829999999971
0
LINE
8
BLACK
6
CONTINUOUS
10
168.0655370000000062
20
-118.0028829999999971
11
168.125551999999999
21
-118.1477719999999891
0
LINE
8
BLACK
6
CONTINUOUS
10
168.125551999999999
20
-118.1477719999999891
11
168.1561480000000017
21
-118.3015860000000004
0
LINE
8
BLACK
6
CONTINUOUS
10
168.1561480000000017
20
-118.3015860000000004
11
168.1561480000000017
21
-118.4584139999999906
0
LINE
8
BLACK
6
CONTINUOUS
10
168.1561480000000017
20
-118.4584139999999906
11
168.125551999999999
21
-118.6122279999999876
0
LINE
8
BLACK
6
CONTINUOUS
10
168.125551999999999
20
-118.6122279999999876
11
168.0655370000000062
21
-118.7571169999999938
0
LINE
8
BLACK
6
CONTINUOUS
10
168.0655370000000062
20
-118.7571169999999938
11
167.9784080000000017
21
-118.8875149999999934
0
LINE
8
BLACK
6
CONTINUOUS
10
167.9784080000000017
20
-118.8875149999999934
11
167.8675149999999974
21
-118.9984079999999977
0
LINE
8
BLACK
6
CONTINUOUS
10
167.8675149999999974
20
-118.9984079999999977
11
167.7371169999999836
21
-119.085536999999988
0
LINE
8
BLACK
6
CONTINUOUS
10
167.7371169999999836
20
-119.085536999999988
11
167.5922280000000057
21
-119.145551999999995
0
LINE
8
BLACK
6
CONTINUOUS
10
167.5922280000000057
20
-119.145551999999995
11
167.4384139999999945
21
-119.1761479999999978
0
LINE
8
BLACK
6
CONTINUOUS
10
167.4384139999999945
20
-119.1761479999999978
11
167.2815860000000043
21
-119.1761479999999978
0
LINE
8
BLACK
6
CONTINUOUS
10
167.2815860000000043
20
-119.1761479999999978
11
167.1277719999999931
21
-119.145551999999995
0
LINE
8
BLACK
6
CONTINUOUS
10
167.1277719999999931
20
-119.145551999999995
11
166.9828829999999869
21
-119.085536999999988
0
LINE
8
BLACK
6
CONTINUOUS
10
166.9828829999999869
20
-119.085536999999988
11
166.8524850000000015
21
-118.9984079999999977
0
LINE
8
BLACK
6
CONTINUOUS
10
166.8524850000000015
20
-118.9984079999999977
11
166.7415919999999971
21
-118.8875149999999934
0
LINE
8
BLACK
6
CONTINUOUS
10
166.7415919999999971
20
-118.8875149999999934
11
166.6544629999999927
21
-118.7571169999999938
0
LINE
8
BLACK
6
CONTINUOUS
10
166.6544629999999927
20
-118.7571169999999938
11
166.5944479999999999
21
-118.6122279999999876
0
LINE
8
BLACK
6
CONTINUOUS
10
166.5944479999999999
20
-118.6122279999999876
11
166.5638519999999971
21
-118.4584139999999906
0
LINE
8
BLACK
6
CONTINUOUS
10
166.5638519999999971
20
-118.4584139999999906
11
166.5638519999999971
21
-118.3015860000000004
0
LINE
8
BLACK
6
CONTINUOUS
10
166.5638519999999971
20
-118.3015860000000004
11
166.5944479999999999
21
-118.1477719999999891
0
LINE
8
BLACK
6
CONTINUOUS
10
166.5944479999999999
20
-118.1477719999999891
11
166.6544629999999927
21
-118.0028829999999971
0
LINE
8
BLACK
6
CONTINUOUS
10
166.6544629999999927
20
-118.0028829999999971
11
166.7415919999999971
21
-117.8724849999999975
0
LINE
8
BLACK
6
CONTINUOUS
10
166.7415919999999971
20
-117.8724849999999975
11
166.8524850000000015
21
-117.7615919999999932
0
LINE
8
BLACK
6
CONTINUOUS
10
166.8524850000000015
20
-117.7615919999999932
11
166.9828829999999869
21
-117.6744629999999887
0
LINE
8
BLACK
6
CONTINUOUS
10
166.9828829999999869
20
-117.6744629999999887
11
167.1277719999999931
21
-117.6144479999999959
0
LINE
8
BLACK
6
CONTINUOUS
10
167.1277719999999931
20
-117.6144479999999959
11
167.2815860000000043
21
-117.5838519999999932
0
LINE
8
BLACK
6
CONTINUOUS
10
167.2815860000000043
20
-117.5838519999999932
11
167.4384139999999945
21
-117.5838519999999932
0
LINE
8
BLACK
6
CONTINUOUS
10
167.4384139999999945
20
-117.5838519999999932
11
167.5922280000000057
21
-117.6144479999999959
0
LINE
8
BLACK
6
CONTINUOUS
10
170.1322279999999978
20
-117.6144479999999959
11
170.2771170000000041
21
-117.6744629999999887
0
LINE
8
BLACK
6
CONTINUOUS
10
170.2771170000000041
20
-117.6744629999999887
11
170.4075149999999894
21
-117.7615919999999932
0
LINE
8
BLACK
6
CONTINUOUS
10
170.4075149999999894
20
-117.7615919999999932
11
170.5184079999999938
21
-117.8724849999999975
0
LINE
8
BLACK
6
CONTINUOUS
10
170.5184079999999938
20
-117.8724849999999975
11
170.6055369999999982
21
-118.0028829999999971
0
LINE
8
BLACK
6
CONTINUOUS
10
170.6055369999999982
20
-118.0028829999999971
11
170.665551999999991
21
-118.1477719999999891
0
LINE
8
BLACK
6
CONTINUOUS
10
170.665551999999991
20
-118.1477719999999891
11
170.6961479999999938
21
-118.3015860000000004
0
LINE
8
BLACK
6
CONTINUOUS
10
170.6961479999999938
20
-118.3015860000000004
11
170.6961479999999938
21
-118.4584139999999906
0
LINE
8
BLACK
6
CONTINUOUS
10
170.6961479999999938
20
-118.4584139999999906
11
170.665551999999991
21
-118.6122279999999876
0
LINE
8
BLACK
6
CONTINUOUS
10
170.665551999999991
20
-118.6122279999999876
11
170.6055369999999982
21
-118.7571169999999938
0
LINE
8
BLACK
6
CONTINUOUS
10
170.6055369999999982
20
-118.7571169999999938
11
170.5184079999999938
21
-118.8875149999999934
0
LINE
8
BLACK
6
CONTINUOUS
10
170.5184079999999938
20
-118.8875149999999934
11
170.4075149999999894
21
-118.9984079999999977
0
LINE
8
BLACK
6
CONTINUOUS
10
170.4075149999999894
20
-118.9984079999999977
11
170.2771170000000041
21
-119.085536999999988
0
LINE
8
BLACK
6
CONTINUOUS
10
170.2771170000000041
20
-119.085536999999988
11
170.1322279999999978
21
-119.145551999999995
0
LINE
8
BLACK
6
CONTINUOUS
10
170.1322279999999978
20
-119.145551999999995
11
169.9784139999999866
21
-119.1761479999999978
0
LINE
8
BLACK
6
CONTINUOUS
10
169.9784139999999866
20
-119.1761479999999978
11
169.8215859999999964
21
-119.1761479999999978
0
LINE
8
BLACK
6
CONTINUOUS
10
169.8215859999999964
20
-119.1761479999999978
11
169.6677719999999852
21
-119.145551999999995
0
LINE
8
BLACK
6
CONTINUOUS
10
169.6677719999999852
20
-119.145551999999995
11
169.5228829999999789
21
-119.085536999999988
0
LINE
8
BLACK
6
CONTINUOUS
10
169.5228829999999789
20
-119.085536999999988
11
169.3924849999999935
21
-118.9984079999999977
0
LINE
8
BLACK
6
CONTINUOUS
10
169.3924849999999935
20
-118.9984079999999977
11
169.2815919999999892
21
-118.8875149999999934
0
LINE
8
BLACK
6
CONTINUOUS
10
169.2815919999999892
20
-118.8875149999999934
11
169.1944629999999847
21
-118.7571169999999938
0
LINE
8
BLACK
6
CONTINUOUS
10
169.1944629999999847
20
-118.7571169999999938
11
169.1344479999999919
21
-118.6122279999999876
0
LINE
8
BLACK
6
CONTINUOUS
10
169.1344479999999919
20
-118.6122279999999876
11
169.1038519999999892
21
-118.4584139999999906
0
LINE
8
BLACK
6
CONTINUOUS
10
169.1038519999999892
20
-118.4584139999999906
11
169.1038519999999892
21
-118.3015860000000004
0
LINE
8
BLACK
6
CONTINUOUS
10
169.1038519999999892
20
-118.3015860000000004
11
169.1344479999999919
21
-118.1477719999999891
0
LINE
8
BLACK
6
CONTINUOUS
10
169.1344479999999919
20
-118.1477719999999891
11
169.1944629999999847
21
-118.0028829999999971
0
LINE
8
BLACK
6
CONTINUOUS
10
169.1944629999999847
20
-118.0028829999999971
11
169.2815919999999892
21
-117.8724849999999975
0
LINE
8
BLACK
6
CONTINUOUS
10
169.2815919999999892
20
-117.8724849999999975
11
169.3924849999999935
21
-117.7615919999999932
0
LINE
8
BLACK
6
CONTINUOUS
10
169.3924849999999935
20
-117.7615919999999932
11
169.5228829999999789
21
-117.6744629999999887
0
LINE
8
BLACK
6
CONTINUOUS
10
169.5228829999999789
20
-117.6744629999999887
11
169.6677719999999852
21
-117.6144479999999959
0
LINE
8
BLACK
6
CONTINUOUS
10
169.6677719999999852
20
-117.6144479999999959
11
169.8215859999999964
21
-117.5838519999999932
0
LINE
8
BLACK
6
CONTINUOUS
10
169.8215859999999964
20
-117.5838519999999932
11
169.9784139999999866
21
-117.5838519999999932
0
LINE
8
BLACK
6
CONTINUOUS
10
169.9784139999999866
20
-117.5838519999999932
11
170.1322279999999978
21
-117.6144479999999959
0
LINE
8
BLACK
6
CONTINUOUS
10
164.645670999999993
20
-114.6440300000000008
11
164.7267769999999985
21
-114.6982229999999987
0
LINE
8
BLACK
6
CONTINUOUS
10
164.7267769999999985
20
-114.6982229999999987
11
164.7809699999999964
21
-114.7793289999999899
0
LINE
8
BLACK
6
CONTINUOUS
10
164.7809699999999964
20
-114.7793289999999899
11
164.7999999999999829
21
-114.875
0
LINE
8
BLACK
6
CONTINUOUS
10
164.7999999999999829
20
-114.875
11
164.7999999999999829
21
-116.125
0
LINE
8
BLACK
6
CONTINUOUS
10
164.7999999999999829
20
-116.125
11
164.7809699999999964
21
-116.2206709999999958
0
LINE
8
BLACK
6
CONTINUOUS
10
164.7809699999999964
20
-116.2206709999999958
11
164.7267769999999985
21
-116.3017770000000013
0
LINE
8
BLACK
6
CONTINUOUS
10
164.7267769999999985
20
-116.3017770000000013
11
164.645670999999993
21
-116.3559699999999992
0
LINE
8
BLACK
6
CONTINUOUS
10
164.645670999999993
20
-116.3559699999999992
11
164.5499999999999829
21
-116.375
0
LINE
8
BLACK
6
CONTINUOUS
10
164.5499999999999829
20
-116.375
11
163.8499999999999943
21
-116.375
0
LINE
8
BLACK
6
CONTINUOUS
10
163.8499999999999943
20
-116.375
11
163.7543289999999843
21
-116.3559699999999992
0
LINE
8
BLACK
6
CONTINUOUS
10
163.7543289999999843
20
-116.3559699999999992
11
163.6732229999999788
21
-116.3017770000000013
0
LINE
8
BLACK
6
CONTINUOUS
10
163.6732229999999788
20
-116.3017770000000013
11
163.6190299999999809
21
-116.2206709999999958
0
LINE
8
BLACK
6
CONTINUOUS
10
163.6190299999999809
20
-116.2206709999999958
11
163.5999999999999943
21
-116.125
0
LINE
8
BLACK
6
CONTINUOUS
10
163.5999999999999943
20
-116.125
11
163.5999999999999943
21
-114.875
0
LINE
8
BLACK
6
CONTINUOUS
10
163.5999999999999943
20
-114.875
11
163.6190299999999809
21
-114.7793289999999899
0
LINE
8
BLACK
6
CONTINUOUS
10
163.6190299999999809
20
-114.7793289999999899
11
163.6732229999999788
21
-114.6982229999999987
0
LINE
8
BLACK
6
CONTINUOUS
10
163.6732229999999788
20
-114.6982229999999987
11
163.7543289999999843
21
-114.6440300000000008
0
LINE
8
BLACK
6
CONTINUOUS
10
163.7543289999999843
20
-114.6440300000000008
11
163.8499999999999943
21
-114.625
0
LINE
8
BLACK
6
CONTINUOUS
10
163.8499999999999943
20
-114.625
11
164.5499999999999829
21
-114.625
0
LINE
8
BLACK
6
CONTINUOUS
10
164.5499999999999829
20
-114.625
11
164.645670999999993
21
-114.6440300000000008
0
LINE
8
BLACK
6
CONTINUOUS
10
166.4296099999999967
20
-114.6706719999999962
11
166.5652570000000026
21
-114.7489879999999971
0
LINE
8
BLACK
6
CONTINUOUS
10
166.5652570000000026
20
-114.7489879999999971
11
166.6760119999999858
21
-114.8597429999999946
0
LINE
8
BLACK
6
CONTINUOUS
10
166.6760119999999858
20
-114.8597429999999946
11
166.7543279999999868
21
-114.9953900000000004
0
LINE
8
BLACK
6
CONTINUOUS
10
166.7543279999999868
20
-114.9953900000000004
11
166.7948669999999822
21
-115.1466839999999934
0
LINE
8
BLACK
6
CONTINUOUS
10
166.7948669999999822
20
-115.1466839999999934
11
166.7999999999999829
21
-115.2249999999999943
0
LINE
8
BLACK
6
CONTINUOUS
10
166.7999999999999829
20
-115.2249999999999943
11
166.7999999999999829
21
-115.7749999999999915
0
LINE
8
BLACK
6
CONTINUOUS
10
166.7999999999999829
20
-115.7749999999999915
11
166.7948669999999822
21
-115.8533159999999924
0
LINE
8
BLACK
6
CONTINUOUS
10
166.7948669999999822
20
-115.8533159999999924
11
166.7543279999999868
21
-116.0046099999999996
0
LINE
8
BLACK
6
CONTINUOUS
10
166.7543279999999868
20
-116.0046099999999996
11
166.6760119999999858
21
-116.1402569999999912
0
LINE
8
BLACK
6
CONTINUOUS
10
166.6760119999999858
20
-116.1402569999999912
11
166.5652570000000026
21
-116.2510119999999887
0
LINE
8
BLACK
6
CONTINUOUS
10
166.5652570000000026
20
-116.2510119999999887
11
166.4296099999999967
21
-116.3293279999999896
0
LINE
8
BLACK
6
CONTINUOUS
10
166.4296099999999967
20
-116.3293279999999896
11
166.2783159999999896
21
-116.3698669999999993
0
LINE
8
BLACK
6
CONTINUOUS
10
166.2783159999999896
20
-116.3698669999999993
11
166.1216839999999877
21
-116.3698669999999993
0
LINE
8
BLACK
6
CONTINUOUS
10
166.1216839999999877
20
-116.3698669999999993
11
165.9703899999999805
21
-116.3293279999999896
0
LINE
8
BLACK
6
CONTINUOUS
10
165.9703899999999805
20
-116.3293279999999896
11
165.8347430000000031
21
-116.2510119999999887
0
LINE
8
BLACK
6
CONTINUOUS
10
165.8347430000000031
20
-116.2510119999999887
11
165.7239879999999914
21
-116.1402569999999912
0
LINE
8
BLACK
6
CONTINUOUS
10
165.7239879999999914
20
-116.1402569999999912
11
165.6456719999999905
21
-116.0046099999999996
0
LINE
8
BLACK
6
CONTINUOUS
10
165.6456719999999905
20
-116.0046099999999996
11
165.605132999999995
21
-115.8533159999999924
0
LINE
8
BLACK
6
CONTINUOUS
10
165.605132999999995
20
-115.8533159999999924
11
165.5999999999999943
21
-115.7749999999999915
0
LINE
8
BLACK
6
CONTINUOUS
10
165.5999999999999943
20
-115.7749999999999915
11
165.5999999999999943
21
-115.2249999999999943
0
LINE
8
BLACK
6
CONTINUOUS
10
165.5999999999999943
20
-115.2249999999999943
11
165.605132999999995
21
-115.1466839999999934
0
LINE
8
BLACK
6
CONTINUOUS
10
165.605132999999995
20
-115.1466839999999934
11
165.6456719999999905
21
-114.9953900000000004
0
LINE
8
BLACK
6
CONTINUOUS
10
165.6456719999999905
20
-114.9953900000000004
11
165.7239879999999914
21
-114.8597429999999946
0
LINE
8
BLACK
6
CONTINUOUS
10
165.7239879999999914
20
-114.8597429999999946
11
165.8347430000000031
21
-114.7489879999999971
0
LINE
8
BLACK
6
CONTINUOUS
10
165.8347430000000031
20
-114.7489879999999971
11
165.9703899999999805
21
-114.6706719999999962
0
LINE
8
BLACK
6
CONTINUOUS
10
165.9703899999999805
20
-114.6706719999999962
11
166.1216839999999877
21
-114.6301330000000007
0
LINE
8
BLACK
6
CONTINUOUS
10
166.1216839999999877
20
-114.6301330000000007
11
166.2783159999999896
21
-114.6301330000000007
0
LINE
8
BLACK
6
CONTINUOUS
10
166.2783159999999896
20
-114.6301330000000007
11
166.4296099999999967
21
-114.6706719999999962
0
LINE
8
BLACK
6
CONTINUOUS
10
168.4296099999999967
20
-114.6706719999999962
11
168.5652570000000026
21
-114.7489879999999971
0
LINE
8
BLACK
6
CONTINUOUS
10
168.5652570000000026
20
-114.7489879999999971
11
168.6760119999999858
21
-114.8597429999999946
0
LINE
8
BLACK
6
CONTINUOUS
10
168.6760119999999858
20
-114.8597429999999946
11
168.7543279999999868
21
-114.9953900000000004
0
LINE
8
BLACK
6
CONTINUOUS
10
168.7543279999999868
20
-114.9953900000000004
11
168.7948669999999822
21
-115.1466839999999934
0
LINE
8
BLACK
6
CONTINUOUS
10
168.7948669999999822
20
-115.1466839999999934
11
168.7999999999999829
21
-115.2249999999999943
0
LINE
8
BLACK
6
CONTINUOUS
10
168.7999999999999829
20
-115.2249999999999943
11
168.7999999999999829
21
-115.7749999999999915
0
LINE
8
BLACK
6
CONTINUOUS
10
168.7999999999999829
20
-115.7749999999999915
11
168.7948669999999822
21
-115.8533159999999924
0
LINE
8
BLACK
6
CONTINUOUS
10
168.7948669999999822
20
-115.8533159999999924
11
168.7543279999999868
21
-116.0046099999999996
0
LINE
8
BLACK
6
CONTINUOUS
10
168.7543279999999868
20
-116.0046099999999996
11
168.6760119999999858
21
-116.1402569999999912
0
LINE
8
BLACK
6
CONTINUOUS
10
168.6760119999999858
20
-116.1402569999999912
11
168.5652570000000026
21
-116.2510119999999887
0
LINE
8
BLACK
6
CONTINUOUS
10
168.5652570000000026
20
-116.2510119999999887
11
168.4296099999999967
21
-116.3293279999999896
0
LINE
8
BLACK
6
CONTINUOUS
10
168.4296099999999967
20
-116.3293279999999896
11
168.2783159999999896
21
-116.3698669999999993
0
LINE
8
BLACK
6
CONTINUOUS
10
168.2783159999999896
20
-116.3698669999999993
11
168.1216839999999877
21
-116.3698669999999993
0
LINE
8
BLACK
6
CONTINUOUS
10
168.1216839999999877
20
-116.3698669999999993
11
167.9703899999999805
21
-116.3293279999999896
0
LINE
8
BLACK
6
CONTINUOUS
10
167.9703899999999805
20
-116.3293279999999896
11
167.8347430000000031
21
-116.2510119999999887
0
LINE
8
BLACK
6
CONTINUOUS
10
167.8347430000000031
20
-116.2510119999999887
11
167.7239879999999914
21
-116.1402569999999912
0
LINE
8
BLACK
6
CONTINUOUS
10
167.7239879999999914
20
-116.1402569999999912
11
167.6456719999999905
21
-116.0046099999999996
0
LINE
8
BLACK
6
CONTINUOUS
10
167.6456719999999905
20
-116.0046099999999996
11
167.605132999999995
21
-115.8533159999999924
0
LINE
8
BLACK
6
CONTINUOUS
10
167.605132999999995
20
-115.8533159999999924
11
167.5999999999999943
21
-115.7749999999999915
0
LINE
8
BLACK
6
CONTINUOUS
10
167.5999999999999943
20
-115.7749999999999915
11
167.5999999999999943
21
-115.2249999999999943
0
LINE
8
BLACK
6
CONTINUOUS
10
167.5999999999999943
20
-115.2249999999999943
11
167.605132999999995
21
-115.1466839999999934
0
LINE
8
BLACK
6
CONTINUOUS
10
167.605132999999995
20
-115.1466839999999934
11
167.6456719999999905
21
-114.9953900000000004
0
LINE
8
BLACK
6
CONTINUOUS
10
167.6456719999999905
20
-114.9953900000000004
11
167.7239879999999914
21
-114.8597429999999946
0
LINE
8
BLACK
6
CONTINUOUS
10
167.7239879999999914
20
-114.8597429999999946
11
167.8347430000000031
21
-114.7489879999999971
0
LINE
8
BLACK
6
CONTINUOUS
10
167.8347430000000031
20
-114.7489879999999971
11
167.9703899999999805
21
-114.6706719999999962
0
LINE
8
BLACK
6
CONTINUOUS
10
167.9703899999999805
20
-114.6706719999999962
11
168.1216839999999877
21
-114.6301330000000007
0
LINE
8
BLACK
6
CONTINUOUS
10
168.1216839999999877
20
-114.6301330000000007
11
168.2783159999999896
21
-114.6301330000000007
0
LINE
8
BLACK
6
CONTINUOUS
10
168.2783159999999896
20
-114.6301330000000007
11
168.4296099999999967
21
-114.6706719999999962
0
LINE
8
BLACK
6
CONTINUOUS
10
172.1095669999999984
20
-108.7769029999999901
11
172.1230970000000013
21
-108.7904329999999931
0
LINE
8
BLACK
6
CONTINUOUS
10
172.1230970000000013
20
-108.7904329999999931
11
172.125
21
-108.7999999999999972
0
LINE
8
BLACK
6
CONTINUOUS
10
172.125
20
-108.7999999999999972
11
172.125
21
-133.2999999999999829
0
LINE
8
BLACK
6
CONTINUOUS
10
172.125
20
-133.2999999999999829
11
172.1230970000000013
21
-133.309566999999987
0
LINE
8
BLACK
6
CONTINUOUS
10
172.1230970000000013
20
-133.309566999999987
11
172.1095669999999984
21
-133.32309699999999
0
LINE
8
BLACK
6
CONTINUOUS
10
172.1095669999999984
20
-133.32309699999999
11
172.0999999999999943
21
-133.3249999999999886
0
LINE
8
BLACK
6
CONTINUOUS
10
172.0999999999999943
20
-133.3249999999999886
11
160.1999999999999886
21
-133.3249999999999886
0
LINE
8
BLACK
6
CONTINUOUS
10
160.1999999999999886
20
-133.3249999999999886
11
160.1904329999999845
21
-133.32309699999999
0
LINE
8
BLACK
6
CONTINUOUS
10
160.1904329999999845
20
-133.32309699999999
11
160.1769029999999816
21
-133.309566999999987
0
LINE
8
BLACK
6
CONTINUOUS
10
160.1769029999999816
20
-133.309566999999987
11
160.1749999999999829
21
-133.2999999999999829
0
LINE
8
BLACK
6
CONTINUOUS
10
160.1749999999999829
20
-133.2999999999999829
11
160.1749999999999829
21
-108.7999999999999972
0
LINE
8
BLACK
6
CONTINUOUS
10
160.1749999999999829
20
-108.7999999999999972
11
160.1769029999999816
21
-108.7904329999999931
0
LINE
8
BLACK
6
CONTINUOUS
10
160.1769029999999816
20
-108.7904329999999931
11
160.1904329999999845
21
-108.7769029999999901
0
LINE
8
BLACK
6
CONTINUOUS
10
160.1904329999999845
20
-108.7769029999999901
11
160.1999999999999886
21
-108.7749999999999915
0
LINE
8
BLACK
6
CONTINUOUS
10
160.1999999999999886
20
-108.7749999999999915
11
172.0999999999999943
21
-108.7749999999999915
0
LINE
8
BLACK
6
CONTINUOUS
10
172.0999999999999943
20
-108.7749999999999915
11
172.1095669999999984
21
-108.7769029999999901
0
LINE
8
BLACK
6
CONTINUOUS
10
160.2249999999999943
20
-108.8249999999999886
11
160.2249999999999943
21
-133.2750000000000057
0
LINE
8
BLACK
6
CONTINUOUS
10
160.2249999999999943
20
-133.2750000000000057
11
172.0749999999999886
21
-133.2750000000000057
0
LINE
8
BLACK
6
CONTINUOUS
10
172.0749999999999886
20
-133.2750000000000057
11
172.0749999999999886
21
-108.8249999999999886
0
LINE
8
BLACK
6
CONTINUOUS
10
172.0749999999999886
20
-108.8249999999999886
11
160.2249999999999943
21
-108.8249999999999886
0
CIRCLE
8
BLACK
10
170.5999999999999943
20
-131.4000000000000057
40
0.35
0
CIRCLE
8
BLACK
10
168.1999999999999886
20
-115.5
40
0.375
0
CIRCLE
8
BLACK
10
166.1999999999999886
20
-115.5
40
0.375
0
CIRCLE
8
BLACK
10
164.1999999999999886
20
-115.5
40
0.375
0
CIRCLE
8
BLACK
10
161.5999999999999943
20
-131.4000000000000057
40
0.35
0
CIRCLE
8
BLACK
10
170.5999999999999943
20
-128.9000000000000057
40
0.35
0
CIRCLE
8
BLACK
10
163.5999999999999943
20
-128.9000000000000057
40
0.5
0
CIRCLE
8
BLACK
10
163.5999999999999943
20
-131.4399999999999977
40
0.5
0
CIRCLE
8
BLACK
10
166.1399999999999864
20
-128.9000000000000057
40
0.5
0
CIRCLE
8
BLACK
10
166.1399999999999864
20
-131.4399999999999977
40
0.5
0
CIRCLE
8
BLACK
10
168.6799999999999784
20
-128.9000000000000057
40
0.5
0
CIRCLE
8
BLACK
10
168.6799999999999784
20
-131.4399999999999977
40
0.5
0
CIRCLE
8
BLACK
10
169.9000000000000057
20
-126.
40
0.4
0
CIRCLE
8
BLACK
10
167.3599999999999852
20
-126.
40
0.4
0
CIRCLE
8
BLACK
10
164.8199999999999932
20
-126.
40
0.4
0
CIRCLE
8
BLACK
10
162.2800000000000011
20
-126.
40
0.4
0
CIRCLE
8
BLACK
10
162.2800000000000011
20
-118.3799999999999955
40
0.4
0
CIRCLE
8
BLACK
10
164.8199999999999932
20
-118.3799999999999955
40
0.4
0
CIRCLE
8
BLACK
10
167.3599999999999852
20
-118.3799999999999955
40
0.4
0
CIRCLE
8
BLACK
10
169.9000000000000057
20
-118.3799999999999955
40
0.4
0
CIRCLE
8
BLACK
10
161.5999999999999943
20
-128.9000000000000057
40
0.35
0
CIRCLE
8
WHITE
10
170.5999999999999943
20
-131.4000000000000057
40
0.35
0
CIRCLE
8
WHITE
10
168.1999999999999886
20
-115.5
40
0.375
0
CIRCLE
8
WHITE
10
166.1999999999999886
20
-115.5
40
0.375
0
CIRCLE
8
WHITE
10
164.1999999999999886
20
-115.5
40
0.375
0
CIRCLE
8
WHITE
10
161.5999999999999943
20
-131.4000000000000057
40
0.35
0
CIRCLE
8
WHITE
10
170.5999999999999943
20
-128.9000000000000057
40
0.35
0
CIRCLE
8
WHITE
10
163.5999999999999943
20
-128.9000000000000057
40
0.5
0
CIRCLE
8
WHITE
10
163.5999999999999943
20
-131.4399999999999977
40
0.5
0
CIRCLE
8
WHITE
10
166.1399999999999864
20
-128.9000000000000057
40
0.5
0
CIRCLE
8
WHITE
10
166.1399999999999864
20
-131.4399999999999977
40
0.5
0
CIRCLE
8
WHITE
10
168.6799999999999784
20
-128.9000000000000057
40
0.5
0
CIRCLE
8
WHITE
10
168.6799999999999784
20
-131.4399999999999977
40
0.5
0
CIRCLE
8
WHITE
10
169.9000000000000057
20
-126.
40
0.4
0
CIRCLE
8
WHITE
10
167.3599999999999852
20
-126.
40
0.4
0
CIRCLE
8
WHITE
10
164.8199999999999932
20
-126.
40
0.4
0
CIRCLE
8
WHITE
10
162.2800000000000011
20
-126.
40
0.4
0
CIRCLE
8
WHITE
10
162.2800000000000011
20
-118.3799999999999955
40
0.4
0
CIRCLE
8
WHITE
10
164.8199999999999932
20
-118.3799999999999955
40
0.4
0
CIRCLE
8
WHITE
10
167.3599999999999852
20
-118.3799999999999955
40
0.4
0
CIRCLE
8
WHITE
10
169.9000000000000057
20
-118.3799999999999955
40
0.4
0
CIRCLE
8
WHITE
10
161.5999999999999943
20
-128.9000000000000057
40
0.35
  0
ENDSEC
  0
EOF
