  0
SECTION
  2
HEADER
  9
$ANGBASE
  50
0.0
  9
$ANGDIR
  70
1
  9
$MEASUREMENT
  70
1
  0
ENDSEC
  0
SECTION
  2
TABLES
  0
TABLE
  2
LTYPE
  70
4
  0
LTYPE
  5
40F
  2
CONTINUOUS
  70
0
  3
Solid line
  72
65
  73
0
  40
0.0
  0
LTYPE
  5
410
  2
DASHDOT
 70
0
  3
Dash Dot ____ _ ____ _
 72
65
 73
4
 40
2.0
 49
1.25
 49
-0.25
 49
0.25
 49
-0.25
  0
LTYPE
  5
411
  2
DASHED
 70
0
  3
Dashed __ __ __ __ __
 72
65
 73
2
 40
0.75
 49
0.5
 49
-0.25
  0
LTYPE
  5
43B
  2
DOTTED
 70
0
  3
Dotted .  .  .  .
 72
65
 73
2
 40
0.2
 49
0.0
 49
-0.2
  0
ENDTAB
  0
TABLE
  2
STYLE
  70
4
  0
STYLE
  2
KICAD
  70
0
  40
0
  41
1
  42
1
  50
0
  71
0
  3
isocp.shx
  0
STYLE
  2
KICADB
  70
0
  40
0
  41
1
  42
1
  50
0
  71
0
  3
isocp.shx
  0
STYLE
  2
KICADI
  70
0
  40
0
  41
1
  42
1
  50
15
  71
0
  3
isocp.shx
  0
STYLE
  2
KICADBI
  70
0
  40
0
  41
1
  42
1
  50
15
  71
0
  3
isocp.shx
  0
ENDTAB
  0
TABLE
  2
LAYER
  70
1
  0
LAYER
  2
BLACK
  70
0
  62
7
  6
CONTINUOUS
  0
ENDTAB
  0
ENDSEC
  0
SECTION
  2
ENTITIES
0
LINE
8
BLACK
6
CONTINUOUS
10
166.2898050000000012
20
-110.3988359999999886
11
166.3576280000000054
21
-110.4379939999999891
0
LINE
8
BLACK
6
CONTINUOUS
10
166.3576280000000054
20
-110.4379939999999891
11
166.4130059999999958
21
-110.4933719999999937
0
LINE
8
BLACK
6
CONTINUOUS
10
166.4130059999999958
20
-110.4933719999999937
11
166.452163999999982
21
-110.5611949999999979
0
LINE
8
BLACK
6
CONTINUOUS
10
166.452163999999982
20
-110.5611949999999979
11
166.4724329999999952
21
-110.6368420000000015
0
LINE
8
BLACK
6
CONTINUOUS
10
166.4724329999999952
20
-110.6368420000000015
11
166.4749999999999943
21
-110.6760000000000019
0
LINE
8
BLACK
6
CONTINUOUS
10
166.4749999999999943
20
-110.6760000000000019
11
166.4749999999999943
21
-113.2113109999999949
0
LINE
8
BLACK
6
CONTINUOUS
10
166.4749999999999943
20
-113.2113109999999949
11
166.5402569999999969
21
-113.2489879999999971
0
LINE
8
BLACK
6
CONTINUOUS
10
166.5402569999999969
20
-113.2489879999999971
11
166.6510119999999802
21
-113.3597429999999946
0
LINE
8
BLACK
6
CONTINUOUS
10
166.6510119999999802
20
-113.3597429999999946
11
166.7293279999999811
21
-113.4953900000000004
0
LINE
8
BLACK
6
CONTINUOUS
10
166.7293279999999811
20
-113.4953900000000004
11
166.769867000000005
21
-113.6466839999999934
0
LINE
8
BLACK
6
CONTINUOUS
10
166.769867000000005
20
-113.6466839999999934
11
166.7750000000000057
21
-113.7249999999999943
0
LINE
8
BLACK
6
CONTINUOUS
10
166.7750000000000057
20
-113.7249999999999943
11
166.7750000000000057
21
-114.2749999999999915
0
LINE
8
BLACK
6
CONTINUOUS
10
166.7750000000000057
20
-114.2749999999999915
11
166.769867000000005
21
-114.3533159999999924
0
LINE
8
BLACK
6
CONTINUOUS
10
166.769867000000005
20
-114.3533159999999924
11
166.7293279999999811
21
-114.5046099999999996
0
LINE
8
BLACK
6
CONTINUOUS
10
166.7293279999999811
20
-114.5046099999999996
11
166.6925589999999886
21
-114.568294999999992
0
LINE
8
BLACK
6
CONTINUOUS
10
166.6925589999999886
20
-114.568294999999992
11
168.9182219999999859
21
-116.7939579999999893
0
LINE
8
BLACK
6
CONTINUOUS
10
168.9182219999999859
20
-116.7939579999999893
11
168.9483390000000043
21
-116.7488869999999963
0
LINE
8
BLACK
6
CONTINUOUS
10
168.9483390000000043
20
-116.7488869999999963
11
169.0938869999999952
21
-116.6033389999999912
0
LINE
8
BLACK
6
CONTINUOUS
10
169.0938869999999952
20
-116.6033389999999912
11
169.2650329999999883
21
-116.4889829999999904
0
LINE
8
BLACK
6
CONTINUOUS
10
169.2650329999999883
20
-116.4889829999999904
11
169.4552009999999882
21
-116.4102129999999988
0
LINE
8
BLACK
6
CONTINUOUS
10
169.4552009999999882
20
-116.4102129999999988
11
169.6570820000000026
21
-116.3700559999999911
0
LINE
8
BLACK
6
CONTINUOUS
10
169.6570820000000026
20
-116.3700559999999911
11
169.7599999999999909
21
-116.3649999999999949
0
LINE
8
BLACK
6
CONTINUOUS
10
169.7599999999999909
20
-116.3649999999999949
11
170.1599999999999966
21
-116.3649999999999949
0
LINE
8
BLACK
6
CONTINUOUS
10
170.1599999999999966
20
-116.3649999999999949
11
170.2629179999999849
21
-116.3700559999999911
0
LINE
8
BLACK
6
CONTINUOUS
10
170.2629179999999849
20
-116.3700559999999911
11
170.4647989999999993
21
-116.4102129999999988
0
LINE
8
BLACK
6
CONTINUOUS
10
170.4647989999999993
20
-116.4102129999999988
11
170.6549669999999992
21
-116.4889829999999904
0
LINE
8
BLACK
6
CONTINUOUS
10
170.6549669999999992
20
-116.4889829999999904
11
170.8261129999999923
21
-116.6033389999999912
0
LINE
8
BLACK
6
CONTINUOUS
10
170.8261129999999923
20
-116.6033389999999912
11
170.9716609999999832
21
-116.7488869999999963
0
LINE
8
BLACK
6
CONTINUOUS
10
170.9716609999999832
20
-116.7488869999999963
11
171.0860169999999982
21
-116.9200329999999894
0
LINE
8
BLACK
6
CONTINUOUS
10
171.0860169999999982
20
-116.9200329999999894
11
171.1647869999999898
21
-117.1102009999999893
0
LINE
8
BLACK
6
CONTINUOUS
10
171.1647869999999898
20
-117.1102009999999893
11
171.2049439999999834
21
-117.3120819999999895
0
LINE
8
BLACK
6
CONTINUOUS
10
171.2049439999999834
20
-117.3120819999999895
11
171.2049439999999834
21
-117.5179179999999945
0
LINE
8
BLACK
6
CONTINUOUS
10
171.2049439999999834
20
-117.5179179999999945
11
171.1647869999999898
21
-117.7197989999999947
0
LINE
8
BLACK
6
CONTINUOUS
10
171.1647869999999898
20
-117.7197989999999947
11
171.0860169999999982
21
-117.9099669999999946
0
LINE
8
BLACK
6
CONTINUOUS
10
171.0860169999999982
20
-117.9099669999999946
11
170.9716609999999832
21
-118.0811129999999878
0
LINE
8
BLACK
6
CONTINUOUS
10
170.9716609999999832
20
-118.0811129999999878
11
170.8261129999999923
21
-118.2266609999999929
0
LINE
8
BLACK
6
CONTINUOUS
10
170.8261129999999923
20
-118.2266609999999929
11
170.6549669999999992
21
-118.3410169999999937
0
LINE
8
BLACK
6
CONTINUOUS
10
170.6549669999999992
20
-118.3410169999999937
11
170.4647989999999993
21
-118.4197869999999995
0
LINE
8
BLACK
6
CONTINUOUS
10
170.4647989999999993
20
-118.4197869999999995
11
170.2629179999999849
21
-118.459943999999993
0
LINE
8
BLACK
6
CONTINUOUS
10
170.2629179999999849
20
-118.459943999999993
11
170.1599999999999966
21
-118.4649999999999892
0
LINE
8
BLACK
6
CONTINUOUS
10
170.1599999999999966
20
-118.4649999999999892
11
169.7599999999999909
21
-118.4649999999999892
0
LINE
8
BLACK
6
CONTINUOUS
10
169.7599999999999909
20
-118.4649999999999892
11
169.6570820000000026
21
-118.459943999999993
0
LINE
8
BLACK
6
CONTINUOUS
10
169.6570820000000026
20
-118.459943999999993
11
169.4552009999999882
21
-118.4197869999999995
0
LINE
8
BLACK
6
CONTINUOUS
10
169.4552009999999882
20
-118.4197869999999995
11
169.4016560000000027
21
-118.3976069999999936
0
LINE
8
BLACK
6
CONTINUOUS
10
169.4016560000000027
20
-118.3976069999999936
11
165.1361320000000035
21
-122.6631319999999903
0
LINE
8
BLACK
6
CONTINUOUS
10
165.1361320000000035
20
-122.6631319999999903
11
165.1066280000000006
21
-122.689005999999992
0
LINE
8
BLACK
6
CONTINUOUS
10
165.1066280000000006
20
-122.689005999999992
11
165.0749999999999886
21
-122.70726599999999
0
LINE
8
BLACK
6
CONTINUOUS
10
165.0749999999999886
20
-122.70726599999999
11
165.0749999999999886
21
-131.3180759999999907
0
LINE
8
BLACK
6
CONTINUOUS
10
165.0749999999999886
20
-131.3180759999999907
11
165.0902940000000001
21
-131.3367120000000057
0
LINE
8
BLACK
6
CONTINUOUS
10
165.0902940000000001
20
-131.3367120000000057
11
165.1114499999999907
21
-131.3877880000000005
0
LINE
8
BLACK
6
CONTINUOUS
10
165.1114499999999907
20
-131.3877880000000005
11
165.7146610000000067
21
-131.9909999999999854
0
LINE
8
BLACK
6
CONTINUOUS
10
165.7146610000000067
20
-131.9909999999999854
11
167.3915120000000059
21
-131.9909999999999854
0
LINE
8
BLACK
6
CONTINUOUS
10
167.3915120000000059
20
-131.9909999999999854
11
167.8404160000000047
21
-131.5420949999999891
0
LINE
8
BLACK
6
CONTINUOUS
10
167.8404160000000047
20
-131.5420949999999891
11
167.8400000000000034
21
-131.539999999999992
0
LINE
8
BLACK
6
CONTINUOUS
10
167.8400000000000034
20
-131.539999999999992
11
167.8400000000000034
21
-130.3400000000000034
0
LINE
8
BLACK
6
CONTINUOUS
10
167.8400000000000034
20
-130.3400000000000034
11
167.85902999999999
21
-130.2443289999999934
0
LINE
8
BLACK
6
CONTINUOUS
10
167.85902999999999
20
-130.2443289999999934
11
167.9132229999999879
21
-130.1632229999999879
0
LINE
8
BLACK
6
CONTINUOUS
10
167.9132229999999879
20
-130.1632229999999879
11
167.9499999999999886
21
-130.1386489999999867
0
LINE
8
BLACK
6
CONTINUOUS
10
167.9499999999999886
20
-130.1386489999999867
11
167.9499999999999886
21
-129.2013499999999908
0
LINE
8
BLACK
6
CONTINUOUS
10
167.9499999999999886
20
-129.2013499999999908
11
167.9132229999999879
21
-129.1767769999999871
0
LINE
8
BLACK
6
CONTINUOUS
10
167.9132229999999879
20
-129.1767769999999871
11
167.85902999999999
21
-129.0956709999999816
0
LINE
8
BLACK
6
CONTINUOUS
10
167.85902999999999
20
-129.0956709999999816
11
167.8400000000000034
21
-129.
0
LINE
8
BLACK
6
CONTINUOUS
10
167.8400000000000034
20
-129.
11
167.8400000000000034
21
-127.7999999999999972
0
LINE
8
BLACK
6
CONTINUOUS
10
167.8400000000000034
20
-127.7999999999999972
11
167.85902999999999
21
-127.7043290000000013
0
LINE
8
BLACK
6
CONTINUOUS
10
167.85902999999999
20
-127.7043290000000013
11
167.9132229999999879
21
-127.6232229999999959
0
LINE
8
BLACK
6
CONTINUOUS
10
167.9132229999999879
20
-127.6232229999999959
11
167.9943289999999934
21
-127.5690299999999979
0
LINE
8
BLACK
6
CONTINUOUS
10
167.9943289999999934
20
-127.5690299999999979
11
168.0900000000000034
21
-127.5499999999999972
0
LINE
8
BLACK
6
CONTINUOUS
10
168.0900000000000034
20
-127.5499999999999972
11
169.289999999999992
21
-127.5499999999999972
0
LINE
8
BLACK
6
CONTINUOUS
10
169.289999999999992
20
-127.5499999999999972
11
169.3856710000000021
21
-127.5690299999999979
0
LINE
8
BLACK
6
CONTINUOUS
10
169.3856710000000021
20
-127.5690299999999979
11
169.4667769999999791
21
-127.6232229999999959
0
LINE
8
BLACK
6
CONTINUOUS
10
169.4667769999999791
20
-127.6232229999999959
11
169.4679639999999949
21
-127.625
0
LINE
8
BLACK
6
CONTINUOUS
10
169.4679639999999949
20
-127.625
11
170.0970360000000028
21
-127.625
0
LINE
8
BLACK
6
CONTINUOUS
10
170.0970360000000028
20
-127.625
11
170.0982229999999902
21
-127.6232229999999959
0
LINE
8
BLACK
6
CONTINUOUS
10
170.0982229999999902
20
-127.6232229999999959
11
170.1793289999999956
21
-127.5690299999999979
0
LINE
8
BLACK
6
CONTINUOUS
10
170.1793289999999956
20
-127.5690299999999979
11
170.2750000000000057
21
-127.5499999999999972
0
LINE
8
BLACK
6
CONTINUOUS
10
170.2750000000000057
20
-127.5499999999999972
11
171.4749999999999943
21
-127.5499999999999972
0
LINE
8
BLACK
6
CONTINUOUS
10
171.4749999999999943
20
-127.5499999999999972
11
171.5706710000000044
21
-127.5690299999999979
0
LINE
8
BLACK
6
CONTINUOUS
10
171.5706710000000044
20
-127.5690299999999979
11
171.6517769999999814
21
-127.6232229999999959
0
LINE
8
BLACK
6
CONTINUOUS
10
171.6517769999999814
20
-127.6232229999999959
11
171.7059699999999793
21
-127.7043290000000013
0
LINE
8
BLACK
6
CONTINUOUS
10
171.7059699999999793
20
-127.7043290000000013
11
171.7249999999999943
21
-127.7999999999999972
0
LINE
8
BLACK
6
CONTINUOUS
10
171.7249999999999943
20
-127.7999999999999972
11
171.7249999999999943
21
-129.
0
LINE
8
BLACK
6
CONTINUOUS
10
171.7249999999999943
20
-129.
11
171.7059699999999793
21
-129.0956709999999816
0
LINE
8
BLACK
6
CONTINUOUS
10
171.7059699999999793
20
-129.0956709999999816
11
171.6517769999999814
21
-129.1767769999999871
0
LINE
8
BLACK
6
CONTINUOUS
10
171.6517769999999814
20
-129.1767769999999871
11
171.5706710000000044
21
-129.230969999999985
0
LINE
8
BLACK
6
CONTINUOUS
10
171.5706710000000044
20
-129.230969999999985
11
171.5499999999999829
21
-129.2350810000000081
0
LINE
8
BLACK
6
CONTINUOUS
10
171.5499999999999829
20
-129.2350810000000081
11
171.5499999999999829
21
-130.1149179999999888
0
LINE
8
BLACK
6
CONTINUOUS
10
171.5499999999999829
20
-130.1149179999999888
11
171.5706710000000044
21
-130.1190299999999809
0
LINE
8
BLACK
6
CONTINUOUS
10
171.5706710000000044
20
-130.1190299999999809
11
171.6517769999999814
21
-130.1732230000000072
0
LINE
8
BLACK
6
CONTINUOUS
10
171.6517769999999814
20
-130.1732230000000072
11
171.7059699999999793
21
-130.2543289999999843
0
LINE
8
BLACK
6
CONTINUOUS
10
171.7059699999999793
20
-130.2543289999999843
11
171.7249999999999943
21
-130.3499999999999943
0
LINE
8
BLACK
6
CONTINUOUS
10
171.7249999999999943
20
-130.3499999999999943
11
171.7249999999999943
21
-131.5499999999999829
0
LINE
8
BLACK
6
CONTINUOUS
10
171.7249999999999943
20
-131.5499999999999829
11
171.7059699999999793
21
-131.645670999999993
0
LINE
8
BLACK
6
CONTINUOUS
10
171.7059699999999793
20
-131.645670999999993
11
171.6517769999999814
21
-131.7267769999999985
0
LINE
8
BLACK
6
CONTINUOUS
10
171.6517769999999814
20
-131.7267769999999985
11
171.5706710000000044
21
-131.7809699999999964
0
LINE
8
BLACK
6
CONTINUOUS
10
171.5706710000000044
20
-131.7809699999999964
11
171.4749999999999943
21
-131.7999999999999829
0
LINE
8
BLACK
6
CONTINUOUS
10
171.4749999999999943
20
-131.7999999999999829
11
170.2750000000000057
21
-131.7999999999999829
0
LINE
8
BLACK
6
CONTINUOUS
10
170.2750000000000057
20
-131.7999999999999829
11
170.1793289999999956
21
-131.7809699999999964
0
LINE
8
BLACK
6
CONTINUOUS
10
170.1793289999999956
20
-131.7809699999999964
11
170.0982229999999902
21
-131.7267769999999985
0
LINE
8
BLACK
6
CONTINUOUS
10
170.0982229999999902
20
-131.7267769999999985
11
170.0970360000000028
21
-131.7249999999999943
0
LINE
8
BLACK
6
CONTINUOUS
10
170.0970360000000028
20
-131.7249999999999943
11
169.4544699999999864
21
-131.7249999999999943
0
LINE
8
BLACK
6
CONTINUOUS
10
169.4544699999999864
20
-131.7249999999999943
11
169.3856710000000021
21
-131.7709700000000055
0
LINE
8
BLACK
6
CONTINUOUS
10
169.3856710000000021
20
-131.7709700000000055
11
169.289999999999992
21
-131.789999999999992
0
LINE
8
BLACK
6
CONTINUOUS
10
169.289999999999992
20
-131.789999999999992
11
168.0900000000000034
21
-131.789999999999992
0
LINE
8
BLACK
6
CONTINUOUS
10
168.0900000000000034
20
-131.789999999999992
11
168.0879039999999804
21
-131.7895829999999933
0
LINE
8
BLACK
6
CONTINUOUS
10
168.0879039999999804
20
-131.7895829999999933
11
167.5877439999999865
21
-132.2897439999999847
0
LINE
8
BLACK
6
CONTINUOUS
10
167.5877439999999865
20
-132.2897439999999847
11
167.5612289999999973
21
-132.3115019999999902
0
LINE
8
BLACK
6
CONTINUOUS
10
167.5612289999999973
20
-132.3115019999999902
11
167.561224999999979
21
-132.311507000000006
0
LINE
8
BLACK
6
CONTINUOUS
10
167.561224999999979
20
-132.311507000000006
11
167.4981410000000039
21
-132.3376370000000009
0
LINE
8
BLACK
6
CONTINUOUS
10
167.4981410000000039
20
-132.3376370000000009
11
167.4639999999999986
21
-132.3410000000000082
0
LINE
8
BLACK
6
CONTINUOUS
10
167.4639999999999986
20
-132.3410000000000082
11
165.6421739999999829
21
-132.3410000000000082
0
LINE
8
BLACK
6
CONTINUOUS
10
165.6421739999999829
20
-132.3410000000000082
11
165.608033000000006
21
-132.3376370000000009
0
LINE
8
BLACK
6
CONTINUOUS
10
165.608033000000006
20
-132.3376370000000009
11
165.5449490000000026
21
-132.311507000000006
0
LINE
8
BLACK
6
CONTINUOUS
10
165.5449490000000026
20
-132.311507000000006
11
165.5184299999999951
21
-132.2897429999999872
0
LINE
8
BLACK
6
CONTINUOUS
10
165.5184299999999951
20
-132.2897429999999872
11
164.8639619999999866
21
-131.6352760000000046
0
LINE
8
BLACK
6
CONTINUOUS
10
164.8639619999999866
20
-131.6352760000000046
11
164.8128859999999918
21
-131.6141199999999856
0
LINE
8
BLACK
6
CONTINUOUS
10
164.8128859999999918
20
-131.6141199999999856
11
164.7825780000000009
21
-131.5892470000000003
0
LINE
8
BLACK
6
CONTINUOUS
10
164.7825780000000009
20
-131.5892470000000003
11
164.7335789999999918
21
-131.5402469999999937
0
LINE
8
BLACK
6
CONTINUOUS
10
164.7335789999999918
20
-131.5402469999999937
11
164.7087060000000065
21
-131.5099400000000003
0
LINE
8
BLACK
6
CONTINUOUS
10
164.7087060000000065
20
-131.5099400000000003
11
164.6788430000000005
21
-131.4378439999999841
0
LINE
8
BLACK
6
CONTINUOUS
10
164.6788430000000005
20
-131.4378439999999841
11
164.6749999999999829
21
-131.3988259999999855
0
LINE
8
BLACK
6
CONTINUOUS
10
164.6749999999999829
20
-131.3988259999999855
11
164.6749999999999829
21
-122.6145859999999885
0
LINE
8
BLACK
6
CONTINUOUS
10
164.6749999999999829
20
-122.6145859999999885
11
164.6468359999999791
21
-122.5658049999999974
0
LINE
8
BLACK
6
CONTINUOUS
10
164.6468359999999791
20
-122.5658049999999974
11
164.6265669999999943
21
-122.4901579999999939
0
LINE
8
BLACK
6
CONTINUOUS
10
164.6265669999999943
20
-122.4901579999999939
11
164.6265669999999943
21
-122.4118419999999929
0
LINE
8
BLACK
6
CONTINUOUS
10
164.6265669999999943
20
-122.4118419999999929
11
164.6468359999999791
21
-122.3361949999999894
0
LINE
8
BLACK
6
CONTINUOUS
10
164.6468359999999791
20
-122.3361949999999894
11
164.6859939999999938
21
-122.2683719999999994
0
LINE
8
BLACK
6
CONTINUOUS
10
164.6859939999999938
20
-122.2683719999999994
11
164.7118679999999813
21
-122.2388679999999965
0
LINE
8
BLACK
6
CONTINUOUS
10
164.7118679999999813
20
-122.2388679999999965
11
168.9168090000000007
21
-118.0339259999999939
0
LINE
8
BLACK
6
CONTINUOUS
10
168.9168090000000007
20
-118.0339259999999939
11
168.8339829999999893
21
-117.9099669999999946
0
LINE
8
BLACK
6
CONTINUOUS
10
168.8339829999999893
20
-117.9099669999999946
11
168.7552129999999977
21
-117.7197989999999947
0
LINE
8
BLACK
6
CONTINUOUS
10
168.7552129999999977
20
-117.7197989999999947
11
168.7150560000000041
21
-117.5179179999999945
0
LINE
8
BLACK
6
CONTINUOUS
10
168.7150560000000041
20
-117.5179179999999945
11
168.7150560000000041
21
-117.439319999999995
0
LINE
8
BLACK
6
CONTINUOUS
10
168.7150560000000041
20
-117.439319999999995
11
166.1456029999999942
21
-114.8698669999999993
0
LINE
8
BLACK
6
CONTINUOUS
10
166.1456029999999942
20
-114.8698669999999993
11
166.096683999999982
21
-114.8698669999999993
0
LINE
8
BLACK
6
CONTINUOUS
10
166.096683999999982
20
-114.8698669999999993
11
165.9453900000000033
21
-114.8293279999999896
0
LINE
8
BLACK
6
CONTINUOUS
10
165.9453900000000033
20
-114.8293279999999896
11
165.8097429999999974
21
-114.7510119999999887
0
LINE
8
BLACK
6
CONTINUOUS
10
165.8097429999999974
20
-114.7510119999999887
11
165.6989879999999857
21
-114.6402569999999912
0
LINE
8
BLACK
6
CONTINUOUS
10
165.6989879999999857
20
-114.6402569999999912
11
165.6206719999999848
21
-114.5046099999999996
0
LINE
8
BLACK
6
CONTINUOUS
10
165.6206719999999848
20
-114.5046099999999996
11
165.5801329999999894
21
-114.3533159999999924
0
LINE
8
BLACK
6
CONTINUOUS
10
165.5801329999999894
20
-114.3533159999999924
11
165.5749999999999886
21
-114.2749999999999915
0
LINE
8
BLACK
6
CONTINUOUS
10
165.5749999999999886
20
-114.2749999999999915
11
165.5749999999999886
21
-113.7249999999999943
0
LINE
8
BLACK
6
CONTINUOUS
10
165.5749999999999886
20
-113.7249999999999943
11
165.5801329999999894
21
-113.6466839999999934
0
LINE
8
BLACK
6
CONTINUOUS
10
165.5801329999999894
20
-113.6466839999999934
11
165.6206719999999848
21
-113.4953900000000004
0
LINE
8
BLACK
6
CONTINUOUS
10
165.6206719999999848
20
-113.4953900000000004
11
165.6989879999999857
21
-113.3597429999999946
0
LINE
8
BLACK
6
CONTINUOUS
10
165.6989879999999857
20
-113.3597429999999946
11
165.8097429999999974
21
-113.2489879999999971
0
LINE
8
BLACK
6
CONTINUOUS
10
165.8097429999999974
20
-113.2489879999999971
11
165.875
21
-113.2113109999999949
0
LINE
8
BLACK
6
CONTINUOUS
10
165.875
20
-113.2113109999999949
11
165.875
21
-110.6760000000000019
0
LINE
8
BLACK
6
CONTINUOUS
10
165.875
20
-110.6760000000000019
11
165.8775669999999991
21
-110.6368420000000015
0
LINE
8
BLACK
6
CONTINUOUS
10
165.8775669999999991
20
-110.6368420000000015
11
165.8978359999999839
21
-110.5611949999999979
0
LINE
8
BLACK
6
CONTINUOUS
10
165.8978359999999839
20
-110.5611949999999979
11
165.9369939999999986
21
-110.4933719999999937
0
LINE
8
BLACK
6
CONTINUOUS
10
165.9369939999999986
20
-110.4933719999999937
11
165.9923719999999889
21
-110.4379939999999891
0
LINE
8
BLACK
6
CONTINUOUS
10
165.9923719999999889
20
-110.4379939999999891
11
166.0601949999999931
21
-110.3988359999999886
0
LINE
8
BLACK
6
CONTINUOUS
10
166.0601949999999931
20
-110.3988359999999886
11
166.1358419999999967
21
-110.3785669999999897
0
LINE
8
BLACK
6
CONTINUOUS
10
166.1358419999999967
20
-110.3785669999999897
11
166.2141579999999976
21
-110.3785669999999897
0
LINE
8
BLACK
6
CONTINUOUS
10
166.2141579999999976
20
-110.3785669999999897
11
166.2898050000000012
21
-110.3988359999999886
0
LINE
8
BLACK
6
CONTINUOUS
10
164.2898050000000012
20
-110.4478359999999952
11
164.3576280000000054
21
-110.4869939999999957
0
LINE
8
BLACK
6
CONTINUOUS
10
164.3576280000000054
20
-110.4869939999999957
11
164.4130059999999958
21
-110.5423720000000003
0
LINE
8
BLACK
6
CONTINUOUS
10
164.4130059999999958
20
-110.5423720000000003
11
164.452163999999982
21
-110.6101949999999903
0
LINE
8
BLACK
6
CONTINUOUS
10
164.452163999999982
20
-110.6101949999999903
11
164.4724329999999952
21
-110.6858419999999938
0
LINE
8
BLACK
6
CONTINUOUS
10
164.4724329999999952
20
-110.6858419999999938
11
164.4749999999999943
21
-110.7249999999999943
0
LINE
8
BLACK
6
CONTINUOUS
10
164.4749999999999943
20
-110.7249999999999943
11
164.4749999999999943
21
-113.2113109999999949
0
LINE
8
BLACK
6
CONTINUOUS
10
164.4749999999999943
20
-113.2113109999999949
11
164.5402569999999969
21
-113.2489879999999971
0
LINE
8
BLACK
6
CONTINUOUS
10
164.5402569999999969
20
-113.2489879999999971
11
164.6510119999999802
21
-113.3597429999999946
0
LINE
8
BLACK
6
CONTINUOUS
10
164.6510119999999802
20
-113.3597429999999946
11
164.7293279999999811
21
-113.4953900000000004
0
LINE
8
BLACK
6
CONTINUOUS
10
164.7293279999999811
20
-113.4953900000000004
11
164.769867000000005
21
-113.6466839999999934
0
LINE
8
BLACK
6
CONTINUOUS
10
164.769867000000005
20
-113.6466839999999934
11
164.7750000000000057
21
-113.7249999999999943
0
LINE
8
BLACK
6
CONTINUOUS
10
164.7750000000000057
20
-113.7249999999999943
11
164.7750000000000057
21
-114.2749999999999915
0
LINE
8
BLACK
6
CONTINUOUS
10
164.7750000000000057
20
-114.2749999999999915
11
164.769867000000005
21
-114.3533159999999924
0
LINE
8
BLACK
6
CONTINUOUS
10
164.769867000000005
20
-114.3533159999999924
11
164.7293279999999811
21
-114.5046099999999996
0
LINE
8
BLACK
6
CONTINUOUS
10
164.7293279999999811
20
-114.5046099999999996
11
164.6510119999999802
21
-114.6402569999999912
0
LINE
8
BLACK
6
CONTINUOUS
10
164.6510119999999802
20
-114.6402569999999912
11
164.5402569999999969
21
-114.7510119999999887
0
LINE
8
BLACK
6
CONTINUOUS
10
164.5402569999999969
20
-114.7510119999999887
11
164.404609999999991
21
-114.8293279999999896
0
LINE
8
BLACK
6
CONTINUOUS
10
164.404609999999991
20
-114.8293279999999896
11
164.4000000000000057
21
-114.8305629999999979
0
LINE
8
BLACK
6
CONTINUOUS
10
164.4000000000000057
20
-114.8305629999999979
11
164.4000000000000057
21
-123.2749999999999915
0
LINE
8
BLACK
6
CONTINUOUS
10
164.4000000000000057
20
-123.2749999999999915
11
164.3974330000000066
21
-123.3141579999999919
0
LINE
8
BLACK
6
CONTINUOUS
10
164.3974330000000066
20
-123.3141579999999919
11
164.3771639999999934
21
-123.3898049999999955
0
LINE
8
BLACK
6
CONTINUOUS
10
164.3771639999999934
20
-123.3898049999999955
11
164.3380059999999787
21
-123.4576279999999997
0
LINE
8
BLACK
6
CONTINUOUS
10
164.3380059999999787
20
-123.4576279999999997
11
164.3121319999999912
21
-123.4871319999999884
0
LINE
8
BLACK
6
CONTINUOUS
10
164.3121319999999912
20
-123.4871319999999884
11
163.3831899999999848
21
-124.4160729999999973
0
LINE
8
BLACK
6
CONTINUOUS
10
163.3831899999999848
20
-124.4160729999999973
11
163.4660169999999937
21
-124.540032999999994
0
LINE
8
BLACK
6
CONTINUOUS
10
163.4660169999999937
20
-124.540032999999994
11
163.5447869999999853
21
-124.7302009999999939
0
LINE
8
BLACK
6
CONTINUOUS
10
163.5447869999999853
20
-124.7302009999999939
11
163.5849439999999788
21
-124.9320819999999941
0
LINE
8
BLACK
6
CONTINUOUS
10
163.5849439999999788
20
-124.9320819999999941
11
163.5849439999999788
21
-125.1379179999999991
0
LINE
8
BLACK
6
CONTINUOUS
10
163.5849439999999788
20
-125.1379179999999991
11
163.5447869999999853
21
-125.3397989999999993
0
LINE
8
BLACK
6
CONTINUOUS
10
163.5447869999999853
20
-125.3397989999999993
11
163.4660169999999937
21
-125.5299669999999992
0
LINE
8
BLACK
6
CONTINUOUS
10
163.4660169999999937
20
-125.5299669999999992
11
163.3516609999999787
21
-125.7011129999999923
0
LINE
8
BLACK
6
CONTINUOUS
10
163.3516609999999787
20
-125.7011129999999923
11
163.2061129999999878
21
-125.8466609999999974
0
LINE
8
BLACK
6
CONTINUOUS
10
163.2061129999999878
20
-125.8466609999999974
11
163.0349669999999946
21
-125.9610169999999982
0
LINE
8
BLACK
6
CONTINUOUS
10
163.0349669999999946
20
-125.9610169999999982
11
162.8447989999999947
21
-126.0397869999999898
0
LINE
8
BLACK
6
CONTINUOUS
10
162.8447989999999947
20
-126.0397869999999898
11
162.7399999999999807
21
-126.0606329999999957
0
LINE
8
BLACK
6
CONTINUOUS
10
162.7399999999999807
20
-126.0606329999999957
11
162.7399999999999807
21
-126.9643139999999875
0
LINE
8
BLACK
6
CONTINUOUS
10
162.7399999999999807
20
-126.9643139999999875
11
163.3625710000000026
21
-127.5868849999999952
0
LINE
8
BLACK
6
CONTINUOUS
10
163.3625710000000026
20
-127.5868849999999952
11
163.3632580000000019
21
-127.5866009999999875
0
LINE
8
BLACK
6
CONTINUOUS
10
163.3632580000000019
20
-127.5866009999999875
11
163.5266849999999863
21
-127.5540929999999946
0
LINE
8
BLACK
6
CONTINUOUS
10
163.5266849999999863
20
-127.5540929999999946
11
163.6933149999999841
21
-127.5540929999999946
0
LINE
8
BLACK
6
CONTINUOUS
10
163.6933149999999841
20
-127.5540929999999946
11
163.856741999999997
21
-127.5866009999999875
0
LINE
8
BLACK
6
CONTINUOUS
10
163.856741999999997
20
-127.5866009999999875
11
163.8890899999999817
21
-127.5999999999999943
0
LINE
8
BLACK
6
CONTINUOUS
10
163.8890899999999817
20
-127.5999999999999943
11
164.2249999999999943
21
-127.5999999999999943
0
LINE
8
BLACK
6
CONTINUOUS
10
164.2249999999999943
20
-127.5999999999999943
11
164.2445089999999936
21
-127.6019209999999902
0
LINE
8
BLACK
6
CONTINUOUS
10
164.2445089999999936
20
-127.6019209999999902
11
164.2805569999999875
21
-127.6168529999999919
0
LINE
8
BLACK
6
CONTINUOUS
10
164.2805569999999875
20
-127.6168529999999919
11
164.3081469999999911
21
-127.6444429999999954
0
LINE
8
BLACK
6
CONTINUOUS
10
164.3081469999999911
20
-127.6444429999999954
11
164.3230789999999786
21
-127.6804909999999893
0
LINE
8
BLACK
6
CONTINUOUS
10
164.3230789999999786
20
-127.6804909999999893
11
164.3249999999999886
21
-127.6999999999999886
0
LINE
8
BLACK
6
CONTINUOUS
10
164.3249999999999886
20
-127.6999999999999886
11
164.3249999999999886
21
-127.9474799999999988
0
LINE
8
BLACK
6
CONTINUOUS
10
164.3249999999999886
20
-127.9474799999999988
11
164.3596330000000023
21
-127.9993130000000008
0
LINE
8
BLACK
6
CONTINUOUS
10
164.3596330000000023
20
-127.9993130000000008
11
164.4233989999999892
21
-128.1532579999999939
0
LINE
8
BLACK
6
CONTINUOUS
10
164.4233989999999892
20
-128.1532579999999939
11
164.4559069999999963
21
-128.3166850000000068
0
LINE
8
BLACK
6
CONTINUOUS
10
164.4559069999999963
20
-128.3166850000000068
11
164.4559069999999963
21
-128.4833150000000046
0
LINE
8
BLACK
6
CONTINUOUS
10
164.4559069999999963
20
-128.4833150000000046
11
164.4233989999999892
21
-128.646741999999989
0
LINE
8
BLACK
6
CONTINUOUS
10
164.4233989999999892
20
-128.646741999999989
11
164.3596330000000023
21
-128.8006869999999822
0
LINE
8
BLACK
6
CONTINUOUS
10
164.3596330000000023
20
-128.8006869999999822
11
164.3249999999999886
21
-128.8525190000000009
0
LINE
8
BLACK
6
CONTINUOUS
10
164.3249999999999886
20
-128.8525190000000009
11
164.3249999999999886
21
-130.487480000000005
0
LINE
8
BLACK
6
CONTINUOUS
10
164.3249999999999886
20
-130.487480000000005
11
164.3596330000000023
21
-130.5393129999999928
0
LINE
8
BLACK
6
CONTINUOUS
10
164.3596330000000023
20
-130.5393129999999928
11
164.4233989999999892
21
-130.6932579999999859
0
LINE
8
BLACK
6
CONTINUOUS
10
164.4233989999999892
20
-130.6932579999999859
11
164.4559069999999963
21
-130.8566849999999988
0
LINE
8
BLACK
6
CONTINUOUS
10
164.4559069999999963
20
-130.8566849999999988
11
164.4559069999999963
21
-131.0233149999999966
0
LINE
8
BLACK
6
CONTINUOUS
10
164.4559069999999963
20
-131.0233149999999966
11
164.4233989999999892
21
-131.1867419999999811
0
LINE
8
BLACK
6
CONTINUOUS
10
164.4233989999999892
20
-131.1867419999999811
11
164.3596330000000023
21
-131.3406870000000026
0
LINE
8
BLACK
6
CONTINUOUS
10
164.3596330000000023
20
-131.3406870000000026
11
164.3249999999999886
21
-131.392518999999993
0
LINE
8
BLACK
6
CONTINUOUS
10
164.3249999999999886
20
-131.392518999999993
11
164.3249999999999886
21
-131.5999999999999943
0
LINE
8
BLACK
6
CONTINUOUS
10
164.3249999999999886
20
-131.5999999999999943
11
164.3230789999999786
21
-131.6195089999999936
0
LINE
8
BLACK
6
CONTINUOUS
10
164.3230789999999786
20
-131.6195089999999936
11
164.3081469999999911
21
-131.6555569999999875
0
LINE
8
BLACK
6
CONTINUOUS
10
164.3081469999999911
20
-131.6555569999999875
11
164.2805569999999875
21
-131.6831469999999911
0
LINE
8
BLACK
6
CONTINUOUS
10
164.2805569999999875
20
-131.6831469999999911
11
164.2445089999999936
21
-131.698079000000007
0
LINE
8
BLACK
6
CONTINUOUS
10
164.2445089999999936
20
-131.698079000000007
11
164.2249999999999943
21
-131.6999999999999886
0
LINE
8
BLACK
6
CONTINUOUS
10
164.2249999999999943
20
-131.6999999999999886
11
163.9856589999999983
21
-131.6999999999999886
0
LINE
8
BLACK
6
CONTINUOUS
10
163.9856589999999983
20
-131.6999999999999886
11
163.856741999999997
21
-131.7533990000000017
0
LINE
8
BLACK
6
CONTINUOUS
10
163.856741999999997
20
-131.7533990000000017
11
163.6933149999999841
21
-131.7859069999999804
0
LINE
8
BLACK
6
CONTINUOUS
10
163.6933149999999841
20
-131.7859069999999804
11
163.5266849999999863
21
-131.7859069999999804
0
LINE
8
BLACK
6
CONTINUOUS
10
163.5266849999999863
20
-131.7859069999999804
11
163.3632580000000019
21
-131.7533990000000017
0
LINE
8
BLACK
6
CONTINUOUS
10
163.3632580000000019
20
-131.7533990000000017
11
163.2343410000000006
21
-131.6999999999999886
0
LINE
8
BLACK
6
CONTINUOUS
10
163.2343410000000006
20
-131.6999999999999886
11
161.8748009999999908
21
-131.6999999999999886
0
LINE
8
BLACK
6
CONTINUOUS
10
161.8748009999999908
20
-131.6999999999999886
11
161.7217420000000061
21
-131.7633989999999926
0
LINE
8
BLACK
6
CONTINUOUS
10
161.7217420000000061
20
-131.7633989999999926
11
161.5583149999999932
21
-131.7959069999999997
0
LINE
8
BLACK
6
CONTINUOUS
10
161.5583149999999932
20
-131.7959069999999997
11
161.3916849999999954
21
-131.7959069999999997
0
LINE
8
BLACK
6
CONTINUOUS
10
161.3916849999999954
20
-131.7959069999999997
11
161.2282579999999825
21
-131.7633989999999926
0
LINE
8
BLACK
6
CONTINUOUS
10
161.2282579999999825
20
-131.7633989999999926
11
161.0751989999999978
21
-131.6999999999999886
0
LINE
8
BLACK
6
CONTINUOUS
10
161.0751989999999978
20
-131.6999999999999886
11
160.9249999999999829
21
-131.6999999999999886
0
LINE
8
BLACK
6
CONTINUOUS
10
160.9249999999999829
20
-131.6999999999999886
11
160.9054909999999836
21
-131.698079000000007
0
LINE
8
BLACK
6
CONTINUOUS
10
160.9054909999999836
20
-131.698079000000007
11
160.8694429999999898
21
-131.6831469999999911
0
LINE
8
BLACK
6
CONTINUOUS
10
160.8694429999999898
20
-131.6831469999999911
11
160.8418529999999862
21
-131.6555569999999875
0
LINE
8
BLACK
6
CONTINUOUS
10
160.8418529999999862
20
-131.6555569999999875
11
160.8269209999999987
21
-131.6195089999999936
0
LINE
8
BLACK
6
CONTINUOUS
10
160.8269209999999987
20
-131.6195089999999936
11
160.8249999999999886
21
-131.5999999999999943
0
LINE
8
BLACK
6
CONTINUOUS
10
160.8249999999999886
20
-131.5999999999999943
11
160.8249999999999886
21
-131.4962929999999801
0
LINE
8
BLACK
6
CONTINUOUS
10
160.8249999999999886
20
-131.4962929999999801
11
160.8179409999999905
21
-131.489233999999982
0
LINE
8
BLACK
6
CONTINUOUS
10
160.8179409999999905
20
-131.489233999999982
11
160.7253670000000056
21
-131.3506869999999935
0
LINE
8
BLACK
6
CONTINUOUS
10
160.7253670000000056
20
-131.3506869999999935
11
160.6616009999999903
21
-131.1967420000000004
0
LINE
8
BLACK
6
CONTINUOUS
10
160.6616009999999903
20
-131.1967420000000004
11
160.6290929999999832
21
-131.0333149999999875
0
LINE
8
BLACK
6
CONTINUOUS
10
160.6290929999999832
20
-131.0333149999999875
11
160.6290929999999832
21
-130.8666849999999897
0
LINE
8
BLACK
6
CONTINUOUS
10
160.6290929999999832
20
-130.8666849999999897
11
160.6616009999999903
21
-130.7032580000000053
0
LINE
8
BLACK
6
CONTINUOUS
10
160.6616009999999903
20
-130.7032580000000053
11
160.7253670000000056
21
-130.5493129999999837
0
LINE
8
BLACK
6
CONTINUOUS
10
160.7253670000000056
20
-130.5493129999999837
11
160.8179409999999905
21
-130.4107659999999953
0
LINE
8
BLACK
6
CONTINUOUS
10
160.8179409999999905
20
-130.4107659999999953
11
160.8249999999999886
21
-130.4037069999999972
0
LINE
8
BLACK
6
CONTINUOUS
10
160.8249999999999886
20
-130.4037069999999972
11
160.8249999999999886
21
-128.9462929999999972
0
LINE
8
BLACK
6
CONTINUOUS
10
160.8249999999999886
20
-128.9462929999999972
11
160.8179409999999905
21
-128.939233999999999
0
LINE
8
BLACK
6
CONTINUOUS
10
160.8179409999999905
20
-128.939233999999999
11
160.7253670000000056
21
-128.8006869999999822
0
LINE
8
BLACK
6
CONTINUOUS
10
160.7253670000000056
20
-128.8006869999999822
11
160.6616009999999903
21
-128.646741999999989
0
LINE
8
BLACK
6
CONTINUOUS
10
160.6616009999999903
20
-128.646741999999989
11
160.6290929999999832
21
-128.4833150000000046
0
LINE
8
BLACK
6
CONTINUOUS
10
160.6290929999999832
20
-128.4833150000000046
11
160.6290929999999832
21
-128.3166850000000068
0
LINE
8
BLACK
6
CONTINUOUS
10
160.6290929999999832
20
-128.3166850000000068
11
160.6616009999999903
21
-128.1532579999999939
0
LINE
8
BLACK
6
CONTINUOUS
10
160.6616009999999903
20
-128.1532579999999939
11
160.7253670000000056
21
-127.9993130000000008
0
LINE
8
BLACK
6
CONTINUOUS
10
160.7253670000000056
20
-127.9993130000000008
11
160.8179409999999905
21
-127.8607659999999981
0
LINE
8
BLACK
6
CONTINUOUS
10
160.8179409999999905
20
-127.8607659999999981
11
160.8249999999999886
21
-127.853707
0
LINE
8
BLACK
6
CONTINUOUS
10
160.8249999999999886
20
-127.853707
11
160.8249999999999886
21
-127.6999999999999886
0
LINE
8
BLACK
6
CONTINUOUS
10
160.8249999999999886
20
-127.6999999999999886
11
160.8269209999999987
21
-127.6804909999999893
0
LINE
8
BLACK
6
CONTINUOUS
10
160.8269209999999987
20
-127.6804909999999893
11
160.8418529999999862
21
-127.6444429999999954
0
LINE
8
BLACK
6
CONTINUOUS
10
160.8418529999999862
20
-127.6444429999999954
11
160.8694429999999898
21
-127.6168529999999919
0
LINE
8
BLACK
6
CONTINUOUS
10
160.8694429999999898
20
-127.6168529999999919
11
160.9054909999999836
21
-127.6019209999999902
0
LINE
8
BLACK
6
CONTINUOUS
10
160.9054909999999836
20
-127.6019209999999902
11
160.9249999999999829
21
-127.5999999999999943
0
LINE
8
BLACK
6
CONTINUOUS
10
160.9249999999999829
20
-127.5999999999999943
11
161.1959099999999978
21
-127.5999999999999943
0
LINE
8
BLACK
6
CONTINUOUS
10
161.1959099999999978
20
-127.5999999999999943
11
161.2282579999999825
21
-127.5866009999999875
0
LINE
8
BLACK
6
CONTINUOUS
10
161.2282579999999825
20
-127.5866009999999875
11
161.3916849999999954
21
-127.5540929999999946
0
LINE
8
BLACK
6
CONTINUOUS
10
161.3916849999999954
20
-127.5540929999999946
11
161.5583149999999932
21
-127.5540929999999946
0
LINE
8
BLACK
6
CONTINUOUS
10
161.5583149999999932
20
-127.5540929999999946
11
161.7217420000000061
21
-127.5866009999999875
0
LINE
8
BLACK
6
CONTINUOUS
10
161.7217420000000061
20
-127.5866009999999875
11
161.7224279999999794
21
-127.5868849999999952
0
LINE
8
BLACK
6
CONTINUOUS
10
161.7224279999999794
20
-127.5868849999999952
11
161.9399999999999977
21
-127.3693139999999886
0
LINE
8
BLACK
6
CONTINUOUS
10
161.9399999999999977
20
-127.3693139999999886
11
161.9399999999999977
21
-126.0606329999999957
0
LINE
8
BLACK
6
CONTINUOUS
10
161.9399999999999977
20
-126.0606329999999957
11
161.8352009999999837
21
-126.0397869999999898
0
LINE
8
BLACK
6
CONTINUOUS
10
161.8352009999999837
20
-126.0397869999999898
11
161.6450329999999838
21
-125.9610169999999982
0
LINE
8
BLACK
6
CONTINUOUS
10
161.6450329999999838
20
-125.9610169999999982
11
161.4738869999999906
21
-125.8466609999999974
0
LINE
8
BLACK
6
CONTINUOUS
10
161.4738869999999906
20
-125.8466609999999974
11
161.3283389999999997
21
-125.7011129999999923
0
LINE
8
BLACK
6
CONTINUOUS
10
161.3283389999999997
20
-125.7011129999999923
11
161.2139829999999847
21
-125.5299669999999992
0
LINE
8
BLACK
6
CONTINUOUS
10
161.2139829999999847
20
-125.5299669999999992
11
161.1352129999999931
21
-125.3397989999999993
0
LINE
8
BLACK
6
CONTINUOUS
10
161.1352129999999931
20
-125.3397989999999993
11
161.0950559999999996
21
-125.1379179999999991
0
LINE
8
BLACK
6
CONTINUOUS
10
161.0950559999999996
20
-125.1379179999999991
11
161.0950559999999996
21
-124.9320819999999941
0
LINE
8
BLACK
6
CONTINUOUS
10
161.0950559999999996
20
-124.9320819999999941
11
161.1352129999999931
21
-124.7302009999999939
0
LINE
8
BLACK
6
CONTINUOUS
10
161.1352129999999931
20
-124.7302009999999939
11
161.2139829999999847
21
-124.540032999999994
0
LINE
8
BLACK
6
CONTINUOUS
10
161.2139829999999847
20
-124.540032999999994
11
161.3283389999999997
21
-124.3688870000000009
0
LINE
8
BLACK
6
CONTINUOUS
10
161.3283389999999997
20
-124.3688870000000009
11
161.4738869999999906
21
-124.2233389999999957
0
LINE
8
BLACK
6
CONTINUOUS
10
161.4738869999999906
20
-124.2233389999999957
11
161.6450329999999838
21
-124.1089829999999949
0
LINE
8
BLACK
6
CONTINUOUS
10
161.6450329999999838
20
-124.1089829999999949
11
161.8352009999999837
21
-124.0302129999999892
0
LINE
8
BLACK
6
CONTINUOUS
10
161.8352009999999837
20
-124.0302129999999892
11
162.0370819999999981
21
-123.9900559999999956
0
LINE
8
BLACK
6
CONTINUOUS
10
162.0370819999999981
20
-123.9900559999999956
11
162.1399999999999864
21
-123.9849999999999994
0
LINE
8
BLACK
6
CONTINUOUS
10
162.1399999999999864
20
-123.9849999999999994
11
162.539999999999992
21
-123.9849999999999994
0
LINE
8
BLACK
6
CONTINUOUS
10
162.539999999999992
20
-123.9849999999999994
11
162.6429179999999803
21
-123.9900559999999956
0
LINE
8
BLACK
6
CONTINUOUS
10
162.6429179999999803
20
-123.9900559999999956
11
162.8447989999999947
21
-124.0302129999999892
0
LINE
8
BLACK
6
CONTINUOUS
10
162.8447989999999947
20
-124.0302129999999892
11
162.8983429999999828
21
-124.0523919999999976
0
LINE
8
BLACK
6
CONTINUOUS
10
162.8983429999999828
20
-124.0523919999999976
11
163.7999999999999829
21
-123.1507359999999949
0
LINE
8
BLACK
6
CONTINUOUS
10
163.7999999999999829
20
-123.1507359999999949
11
163.7999999999999829
21
-114.7412689999999884
0
LINE
8
BLACK
6
CONTINUOUS
10
163.7999999999999829
20
-114.7412689999999884
11
163.6989879999999857
21
-114.6402569999999912
0
LINE
8
BLACK
6
CONTINUOUS
10
163.6989879999999857
20
-114.6402569999999912
11
163.6206719999999848
21
-114.5046099999999996
0
LINE
8
BLACK
6
CONTINUOUS
10
163.6206719999999848
20
-114.5046099999999996
11
163.5801329999999894
21
-114.3533159999999924
0
LINE
8
BLACK
6
CONTINUOUS
10
163.5801329999999894
20
-114.3533159999999924
11
163.5749999999999886
21
-114.2749999999999915
0
LINE
8
BLACK
6
CONTINUOUS
10
163.5749999999999886
20
-114.2749999999999915
11
163.5749999999999886
21
-113.7249999999999943
0
LINE
8
BLACK
6
CONTINUOUS
10
163.5749999999999886
20
-113.7249999999999943
11
163.5801329999999894
21
-113.6466839999999934
0
LINE
8
BLACK
6
CONTINUOUS
10
163.5801329999999894
20
-113.6466839999999934
11
163.6206719999999848
21
-113.4953900000000004
0
LINE
8
BLACK
6
CONTINUOUS
10
163.6206719999999848
20
-113.4953900000000004
11
163.6989879999999857
21
-113.3597429999999946
0
LINE
8
BLACK
6
CONTINUOUS
10
163.6989879999999857
20
-113.3597429999999946
11
163.8097429999999974
21
-113.2489879999999971
0
LINE
8
BLACK
6
CONTINUOUS
10
163.8097429999999974
20
-113.2489879999999971
11
163.875
21
-113.2113109999999949
0
LINE
8
BLACK
6
CONTINUOUS
10
163.875
20
-113.2113109999999949
11
163.875
21
-110.7249999999999943
0
LINE
8
BLACK
6
CONTINUOUS
10
163.875
20
-110.7249999999999943
11
163.8775669999999991
21
-110.6858419999999938
0
LINE
8
BLACK
6
CONTINUOUS
10
163.8775669999999991
20
-110.6858419999999938
11
163.8978359999999839
21
-110.6101949999999903
0
LINE
8
BLACK
6
CONTINUOUS
10
163.8978359999999839
20
-110.6101949999999903
11
163.9369939999999986
21
-110.5423720000000003
0
LINE
8
BLACK
6
CONTINUOUS
10
163.9369939999999986
20
-110.5423720000000003
11
163.9923719999999889
21
-110.4869939999999957
0
LINE
8
BLACK
6
CONTINUOUS
10
163.9923719999999889
20
-110.4869939999999957
11
164.0601949999999931
21
-110.4478359999999952
0
LINE
8
BLACK
6
CONTINUOUS
10
164.0601949999999931
20
-110.4478359999999952
11
164.1358419999999967
21
-110.4275669999999963
0
LINE
8
BLACK
6
CONTINUOUS
10
164.1358419999999967
20
-110.4275669999999963
11
164.2141579999999976
21
-110.4275669999999963
0
LINE
8
BLACK
6
CONTINUOUS
10
164.2141579999999976
20
-110.4275669999999963
11
164.2898050000000012
21
-110.4478359999999952
0
LINE
8
BLACK
6
CONTINUOUS
10
170.2629179999999849
20
-121.4500559999999894
11
170.4647989999999993
21
-121.4902129999999971
0
LINE
8
BLACK
6
CONTINUOUS
10
170.4647989999999993
20
-121.4902129999999971
11
170.6549669999999992
21
-121.5689829999999887
0
LINE
8
BLACK
6
CONTINUOUS
10
170.6549669999999992
20
-121.5689829999999887
11
170.8261129999999923
21
-121.6833389999999895
0
LINE
8
BLACK
6
CONTINUOUS
10
170.8261129999999923
20
-121.6833389999999895
11
170.9716609999999832
21
-121.8288869999999946
0
LINE
8
BLACK
6
CONTINUOUS
10
170.9716609999999832
20
-121.8288869999999946
11
171.0860169999999982
21
-122.0000329999999877
0
LINE
8
BLACK
6
CONTINUOUS
10
171.0860169999999982
20
-122.0000329999999877
11
171.1647869999999898
21
-122.1902009999999876
0
LINE
8
BLACK
6
CONTINUOUS
10
171.1647869999999898
20
-122.1902009999999876
11
171.2049439999999834
21
-122.3920819999999878
0
LINE
8
BLACK
6
CONTINUOUS
10
171.2049439999999834
20
-122.3920819999999878
11
171.2049439999999834
21
-122.5979179999999928
0
LINE
8
BLACK
6
CONTINUOUS
10
171.2049439999999834
20
-122.5979179999999928
11
171.1647869999999898
21
-122.799798999999993
0
LINE
8
BLACK
6
CONTINUOUS
10
171.1647869999999898
20
-122.799798999999993
11
171.0860169999999982
21
-122.9899669999999929
0
LINE
8
BLACK
6
CONTINUOUS
10
171.0860169999999982
20
-122.9899669999999929
11
170.9716609999999832
21
-123.1611130000000003
0
LINE
8
BLACK
6
CONTINUOUS
10
170.9716609999999832
20
-123.1611130000000003
11
170.8261129999999923
21
-123.3066609999999912
0
LINE
8
BLACK
6
CONTINUOUS
10
170.8261129999999923
20
-123.3066609999999912
11
170.6549669999999992
21
-123.421016999999992
0
LINE
8
BLACK
6
CONTINUOUS
10
170.6549669999999992
20
-123.421016999999992
11
170.4647989999999993
21
-123.4997869999999978
0
LINE
8
BLACK
6
CONTINUOUS
10
170.4647989999999993
20
-123.4997869999999978
11
170.2629179999999849
21
-123.5399439999999913
0
LINE
8
BLACK
6
CONTINUOUS
10
170.2629179999999849
20
-123.5399439999999913
11
170.1599999999999966
21
-123.5449999999999875
0
LINE
8
BLACK
6
CONTINUOUS
10
170.1599999999999966
20
-123.5449999999999875
11
169.7599999999999909
21
-123.5449999999999875
0
LINE
8
BLACK
6
CONTINUOUS
10
169.7599999999999909
20
-123.5449999999999875
11
169.6570820000000026
21
-123.5399439999999913
0
LINE
8
BLACK
6
CONTINUOUS
10
169.6570820000000026
20
-123.5399439999999913
11
169.4552009999999882
21
-123.4997869999999978
0
LINE
8
BLACK
6
CONTINUOUS
10
169.4552009999999882
20
-123.4997869999999978
11
169.2650329999999883
21
-123.421016999999992
0
LINE
8
BLACK
6
CONTINUOUS
10
169.2650329999999883
20
-123.421016999999992
11
169.0938869999999952
21
-123.3066609999999912
0
LINE
8
BLACK
6
CONTINUOUS
10
169.0938869999999952
20
-123.3066609999999912
11
168.9483390000000043
21
-123.1611130000000003
0
LINE
8
BLACK
6
CONTINUOUS
10
168.9483390000000043
20
-123.1611130000000003
11
168.8339829999999893
21
-122.9899669999999929
0
LINE
8
BLACK
6
CONTINUOUS
10
168.8339829999999893
20
-122.9899669999999929
11
168.7916050000000041
21
-122.8876579999999876
0
LINE
8
BLACK
6
CONTINUOUS
10
168.7916050000000041
20
-122.8876579999999876
11
167.5881320000000017
21
-124.0911319999999876
0
LINE
8
BLACK
6
CONTINUOUS
10
167.5881320000000017
20
-124.0911319999999876
11
167.5586279999999988
21
-124.1170059999999893
0
LINE
8
BLACK
6
CONTINUOUS
10
167.5586279999999988
20
-124.1170059999999893
11
167.5509999999999877
21
-124.1214099999999974
0
LINE
8
BLACK
6
CONTINUOUS
10
167.5509999999999877
20
-124.1214099999999974
11
167.5509999999999877
21
-129.4715889999999945
0
LINE
8
BLACK
6
CONTINUOUS
10
167.5509999999999877
20
-129.4715889999999945
11
167.5586279999999988
21
-129.4759939999999858
0
LINE
8
BLACK
6
CONTINUOUS
10
167.5586279999999988
20
-129.4759939999999858
11
167.6140059999999892
21
-129.5313720000000046
0
LINE
8
BLACK
6
CONTINUOUS
10
167.6140059999999892
20
-129.5313720000000046
11
167.6531640000000039
21
-129.5991949999999804
0
LINE
8
BLACK
6
CONTINUOUS
10
167.6531640000000039
20
-129.5991949999999804
11
167.6734329999999886
21
-129.674841999999984
0
LINE
8
BLACK
6
CONTINUOUS
10
167.6734329999999886
20
-129.674841999999984
11
167.6734329999999886
21
-129.7531579999999849
0
LINE
8
BLACK
6
CONTINUOUS
10
167.6734329999999886
20
-129.7531579999999849
11
167.6531640000000039
21
-129.8288049999999885
0
LINE
8
BLACK
6
CONTINUOUS
10
167.6531640000000039
20
-129.8288049999999885
11
167.6140059999999892
21
-129.8966279999999927
0
LINE
8
BLACK
6
CONTINUOUS
10
167.6140059999999892
20
-129.8966279999999927
11
167.5881320000000017
21
-129.9261319999999955
0
LINE
8
BLACK
6
CONTINUOUS
10
167.5881320000000017
20
-129.9261319999999955
11
166.9216930000000048
21
-130.5925699999999949
0
LINE
8
BLACK
6
CONTINUOUS
10
166.9216930000000048
20
-130.5925699999999949
11
166.9633989999999812
21
-130.6932579999999859
0
LINE
8
BLACK
6
CONTINUOUS
10
166.9633989999999812
20
-130.6932579999999859
11
166.9959069999999883
21
-130.8566849999999988
0
LINE
8
BLACK
6
CONTINUOUS
10
166.9959069999999883
20
-130.8566849999999988
11
166.9959069999999883
21
-131.0233149999999966
0
LINE
8
BLACK
6
CONTINUOUS
10
166.9959069999999883
20
-131.0233149999999966
11
166.9633989999999812
21
-131.1867419999999811
0
LINE
8
BLACK
6
CONTINUOUS
10
166.9633989999999812
20
-131.1867419999999811
11
166.8996329999999944
21
-131.3406870000000026
0
LINE
8
BLACK
6
CONTINUOUS
10
166.8996329999999944
20
-131.3406870000000026
11
166.8070589999999811
21
-131.4792339999999911
0
LINE
8
BLACK
6
CONTINUOUS
10
166.8070589999999811
20
-131.4792339999999911
11
166.689233999999999
21
-131.5970590000000016
0
LINE
8
BLACK
6
CONTINUOUS
10
166.689233999999999
20
-131.5970590000000016
11
166.5506869999999822
21
-131.6896329999999864
0
LINE
8
BLACK
6
CONTINUOUS
10
166.5506869999999822
20
-131.6896329999999864
11
166.396741999999989
21
-131.7533990000000017
0
LINE
8
BLACK
6
CONTINUOUS
10
166.396741999999989
20
-131.7533990000000017
11
166.2333150000000046
21
-131.7859069999999804
0
LINE
8
BLACK
6
CONTINUOUS
10
166.2333150000000046
20
-131.7859069999999804
11
166.0666849999999783
21
-131.7859069999999804
0
LINE
8
BLACK
6
CONTINUOUS
10
166.0666849999999783
20
-131.7859069999999804
11
165.9032579999999939
21
-131.7533990000000017
0
LINE
8
BLACK
6
CONTINUOUS
10
165.9032579999999939
20
-131.7533990000000017
11
165.7493130000000008
21
-131.6896329999999864
0
LINE
8
BLACK
6
CONTINUOUS
10
165.7493130000000008
20
-131.6896329999999864
11
165.6107659999999839
21
-131.5970590000000016
0
LINE
8
BLACK
6
CONTINUOUS
10
165.6107659999999839
20
-131.5970590000000016
11
165.4929410000000018
21
-131.4792339999999911
0
LINE
8
BLACK
6
CONTINUOUS
10
165.4929410000000018
20
-131.4792339999999911
11
165.4003669999999886
21
-131.3406870000000026
0
LINE
8
BLACK
6
CONTINUOUS
10
165.4003669999999886
20
-131.3406870000000026
11
165.3366010000000017
21
-131.1867419999999811
0
LINE
8
BLACK
6
CONTINUOUS
10
165.3366010000000017
20
-131.1867419999999811
11
165.3040929999999946
21
-131.0233149999999966
0
LINE
8
BLACK
6
CONTINUOUS
10
165.3040929999999946
20
-131.0233149999999966
11
165.3040929999999946
21
-130.8566849999999988
0
LINE
8
BLACK
6
CONTINUOUS
10
165.3040929999999946
20
-130.8566849999999988
11
165.3366010000000017
21
-130.6932579999999859
0
LINE
8
BLACK
6
CONTINUOUS
10
165.3366010000000017
20
-130.6932579999999859
11
165.4003669999999886
21
-130.5393129999999928
0
LINE
8
BLACK
6
CONTINUOUS
10
165.4003669999999886
20
-130.5393129999999928
11
165.4929410000000018
21
-130.4007660000000044
0
LINE
8
BLACK
6
CONTINUOUS
10
165.4929410000000018
20
-130.4007660000000044
11
165.6107659999999839
21
-130.2829409999999939
0
LINE
8
BLACK
6
CONTINUOUS
10
165.6107659999999839
20
-130.2829409999999939
11
165.7493130000000008
21
-130.1903669999999806
0
LINE
8
BLACK
6
CONTINUOUS
10
165.7493130000000008
20
-130.1903669999999806
11
165.9032579999999939
21
-130.1266009999999937
0
LINE
8
BLACK
6
CONTINUOUS
10
165.9032579999999939
20
-130.1266009999999937
11
166.0666849999999783
21
-130.0940929999999867
0
LINE
8
BLACK
6
CONTINUOUS
10
166.0666849999999783
20
-130.0940929999999867
11
166.2333150000000046
21
-130.0940929999999867
0
LINE
8
BLACK
6
CONTINUOUS
10
166.2333150000000046
20
-130.0940929999999867
11
166.396741999999989
21
-130.1266009999999937
0
LINE
8
BLACK
6
CONTINUOUS
10
166.396741999999989
20
-130.1266009999999937
11
166.4974289999999826
21
-130.1683060000000012
0
LINE
8
BLACK
6
CONTINUOUS
10
166.4974289999999826
20
-130.1683060000000012
11
167.1638679999999795
21
-129.5018680000000018
0
LINE
8
BLACK
6
CONTINUOUS
10
167.1638679999999795
20
-129.5018680000000018
11
167.1933719999999823
21
-129.4759939999999858
0
LINE
8
BLACK
6
CONTINUOUS
10
167.1933719999999823
20
-129.4759939999999858
11
167.2009999999999934
21
-129.4715889999999945
0
LINE
8
BLACK
6
CONTINUOUS
10
167.2009999999999934
20
-129.4715889999999945
11
167.2009999999999934
21
-124.1214099999999974
0
LINE
8
BLACK
6
CONTINUOUS
10
167.2009999999999934
20
-124.1214099999999974
11
167.1933719999999823
21
-124.1170059999999893
0
LINE
8
BLACK
6
CONTINUOUS
10
167.1933719999999823
20
-124.1170059999999893
11
167.137993999999992
21
-124.0616279999999989
0
LINE
8
BLACK
6
CONTINUOUS
10
167.137993999999992
20
-124.0616279999999989
11
167.0988360000000057
21
-123.9938049999999947
0
LINE
8
BLACK
6
CONTINUOUS
10
167.0988360000000057
20
-123.9938049999999947
11
167.0785669999999925
21
-123.9181579999999911
0
LINE
8
BLACK
6
CONTINUOUS
10
167.0785669999999925
20
-123.9181579999999911
11
167.0785669999999925
21
-123.8398419999999902
0
LINE
8
BLACK
6
CONTINUOUS
10
167.0785669999999925
20
-123.8398419999999902
11
167.0988360000000057
21
-123.7641950000000008
0
LINE
8
BLACK
6
CONTINUOUS
10
167.0988360000000057
20
-123.7641950000000008
11
167.137993999999992
21
-123.6963719999999967
0
LINE
8
BLACK
6
CONTINUOUS
10
167.137993999999992
20
-123.6963719999999967
11
167.1638679999999795
21
-123.6668679999999938
0
LINE
8
BLACK
6
CONTINUOUS
10
167.1638679999999795
20
-123.6668679999999938
11
168.547867999999994
21
-122.2828679999999935
0
LINE
8
BLACK
6
CONTINUOUS
10
168.547867999999994
20
-122.2828679999999935
11
168.5773719999999969
21
-122.2569939999999917
0
LINE
8
BLACK
6
CONTINUOUS
10
168.5773719999999969
20
-122.2569939999999917
11
168.6451950000000011
21
-122.2178359999999913
0
LINE
8
BLACK
6
CONTINUOUS
10
168.6451950000000011
20
-122.2178359999999913
11
168.7208420000000046
21
-122.1975669999999923
0
LINE
8
BLACK
6
CONTINUOUS
10
168.7208420000000046
20
-122.1975669999999923
11
168.7537480000000016
21
-122.1975669999999923
0
LINE
8
BLACK
6
CONTINUOUS
10
168.7537480000000016
20
-122.1975669999999923
11
168.7552129999999977
21
-122.1902009999999876
0
LINE
8
BLACK
6
CONTINUOUS
10
168.7552129999999977
20
-122.1902009999999876
11
168.8339829999999893
21
-122.0000329999999877
0
LINE
8
BLACK
6
CONTINUOUS
10
168.8339829999999893
20
-122.0000329999999877
11
168.9483390000000043
21
-121.8288869999999946
0
LINE
8
BLACK
6
CONTINUOUS
10
168.9483390000000043
20
-121.8288869999999946
11
169.0938869999999952
21
-121.6833389999999895
0
LINE
8
BLACK
6
CONTINUOUS
10
169.0938869999999952
20
-121.6833389999999895
11
169.2650329999999883
21
-121.5689829999999887
0
LINE
8
BLACK
6
CONTINUOUS
10
169.2650329999999883
20
-121.5689829999999887
11
169.4552009999999882
21
-121.4902129999999971
0
LINE
8
BLACK
6
CONTINUOUS
10
169.4552009999999882
20
-121.4902129999999971
11
169.6570820000000026
21
-121.4500559999999894
0
LINE
8
BLACK
6
CONTINUOUS
10
169.6570820000000026
20
-121.4500559999999894
11
169.7599999999999909
21
-121.4449999999999932
0
LINE
8
BLACK
6
CONTINUOUS
10
169.7599999999999909
20
-121.4449999999999932
11
170.1599999999999966
21
-121.4449999999999932
0
LINE
8
BLACK
6
CONTINUOUS
10
170.1599999999999966
20
-121.4449999999999932
11
170.2629179999999849
21
-121.4500559999999894
0
LINE
8
BLACK
6
CONTINUOUS
10
170.2629179999999849
20
-118.9100559999999973
11
170.4647989999999993
21
-118.9502129999999909
0
LINE
8
BLACK
6
CONTINUOUS
10
170.4647989999999993
20
-118.9502129999999909
11
170.6549669999999992
21
-119.0289829999999967
0
LINE
8
BLACK
6
CONTINUOUS
10
170.6549669999999992
20
-119.0289829999999967
11
170.8261129999999923
21
-119.1433389999999974
0
LINE
8
BLACK
6
CONTINUOUS
10
170.8261129999999923
20
-119.1433389999999974
11
170.9716609999999832
21
-119.2888869999999883
0
LINE
8
BLACK
6
CONTINUOUS
10
170.9716609999999832
20
-119.2888869999999883
11
171.0860169999999982
21
-119.4600329999999957
0
LINE
8
BLACK
6
CONTINUOUS
10
171.0860169999999982
20
-119.4600329999999957
11
171.1647869999999898
21
-119.6502009999999956
0
LINE
8
BLACK
6
CONTINUOUS
10
171.1647869999999898
20
-119.6502009999999956
11
171.2049439999999834
21
-119.8520819999999958
0
LINE
8
BLACK
6
CONTINUOUS
10
171.2049439999999834
20
-119.8520819999999958
11
171.2049439999999834
21
-120.0579180000000008
0
LINE
8
BLACK
6
CONTINUOUS
10
171.2049439999999834
20
-120.0579180000000008
11
171.1647869999999898
21
-120.259799000000001
0
LINE
8
BLACK
6
CONTINUOUS
10
171.1647869999999898
20
-120.259799000000001
11
171.0860169999999982
21
-120.4499670000000009
0
LINE
8
BLACK
6
CONTINUOUS
10
171.0860169999999982
20
-120.4499670000000009
11
170.9716609999999832
21
-120.621112999999994
0
LINE
8
BLACK
6
CONTINUOUS
10
170.9716609999999832
20
-120.621112999999994
11
170.8261129999999923
21
-120.7666609999999991
0
LINE
8
BLACK
6
CONTINUOUS
10
170.8261129999999923
20
-120.7666609999999991
11
170.6549669999999992
21
-120.8810169999999999
0
LINE
8
BLACK
6
CONTINUOUS
10
170.6549669999999992
20
-120.8810169999999999
11
170.4647989999999993
21
-120.9597869999999915
0
LINE
8
BLACK
6
CONTINUOUS
10
170.4647989999999993
20
-120.9597869999999915
11
170.2629179999999849
21
-120.9999439999999993
0
LINE
8
BLACK
6
CONTINUOUS
10
170.2629179999999849
20
-120.9999439999999993
11
170.1599999999999966
21
-121.0049999999999955
0
LINE
8
BLACK
6
CONTINUOUS
10
170.1599999999999966
20
-121.0049999999999955
11
169.7599999999999909
21
-121.0049999999999955
0
LINE
8
BLACK
6
CONTINUOUS
10
169.7599999999999909
20
-121.0049999999999955
11
169.6570820000000026
21
-120.9999439999999993
0
LINE
8
BLACK
6
CONTINUOUS
10
169.6570820000000026
20
-120.9999439999999993
11
169.4552009999999882
21
-120.9597869999999915
0
LINE
8
BLACK
6
CONTINUOUS
10
169.4552009999999882
20
-120.9597869999999915
11
169.4016560000000027
21
-120.9376069999999999
0
LINE
8
BLACK
6
CONTINUOUS
10
169.4016560000000027
20
-120.9376069999999999
11
166.4499999999999886
21
-123.8892639999999972
0
LINE
8
BLACK
6
CONTINUOUS
10
166.4499999999999886
20
-123.8892639999999972
11
166.4499999999999886
21
-127.6086609999999979
0
LINE
8
BLACK
6
CONTINUOUS
10
166.4499999999999886
20
-127.6086609999999979
11
166.5506869999999822
21
-127.6503669999999886
0
LINE
8
BLACK
6
CONTINUOUS
10
166.5506869999999822
20
-127.6503669999999886
11
166.689233999999999
21
-127.7429409999999876
0
LINE
8
BLACK
6
CONTINUOUS
10
166.689233999999999
20
-127.7429409999999876
11
166.8070589999999811
21
-127.8607659999999981
0
LINE
8
BLACK
6
CONTINUOUS
10
166.8070589999999811
20
-127.8607659999999981
11
166.8996329999999944
21
-127.9993130000000008
0
LINE
8
BLACK
6
CONTINUOUS
10
166.8996329999999944
20
-127.9993130000000008
11
166.9633989999999812
21
-128.1532579999999939
0
LINE
8
BLACK
6
CONTINUOUS
10
166.9633989999999812
20
-128.1532579999999939
11
166.9959069999999883
21
-128.3166850000000068
0
LINE
8
BLACK
6
CONTINUOUS
10
166.9959069999999883
20
-128.3166850000000068
11
166.9959069999999883
21
-128.4833150000000046
0
LINE
8
BLACK
6
CONTINUOUS
10
166.9959069999999883
20
-128.4833150000000046
11
166.9633989999999812
21
-128.646741999999989
0
LINE
8
BLACK
6
CONTINUOUS
10
166.9633989999999812
20
-128.646741999999989
11
166.8996329999999944
21
-128.8006869999999822
0
LINE
8
BLACK
6
CONTINUOUS
10
166.8996329999999944
20
-128.8006869999999822
11
166.8070589999999811
21
-128.939233999999999
0
LINE
8
BLACK
6
CONTINUOUS
10
166.8070589999999811
20
-128.939233999999999
11
166.689233999999999
21
-129.0570589999999811
0
LINE
8
BLACK
6
CONTINUOUS
10
166.689233999999999
20
-129.0570589999999811
11
166.5506869999999822
21
-129.1496329999999944
0
LINE
8
BLACK
6
CONTINUOUS
10
166.5506869999999822
20
-129.1496329999999944
11
166.396741999999989
21
-129.2133989999999812
0
LINE
8
BLACK
6
CONTINUOUS
10
166.396741999999989
20
-129.2133989999999812
11
166.2333150000000046
21
-129.2459069999999883
0
LINE
8
BLACK
6
CONTINUOUS
10
166.2333150000000046
20
-129.2459069999999883
11
166.0666849999999783
21
-129.2459069999999883
0
LINE
8
BLACK
6
CONTINUOUS
10
166.0666849999999783
20
-129.2459069999999883
11
165.9032579999999939
21
-129.2133989999999812
0
LINE
8
BLACK
6
CONTINUOUS
10
165.9032579999999939
20
-129.2133989999999812
11
165.7493130000000008
21
-129.1496329999999944
0
LINE
8
BLACK
6
CONTINUOUS
10
165.7493130000000008
20
-129.1496329999999944
11
165.6107659999999839
21
-129.0570589999999811
0
LINE
8
BLACK
6
CONTINUOUS
10
165.6107659999999839
20
-129.0570589999999811
11
165.4929410000000018
21
-128.939233999999999
0
LINE
8
BLACK
6
CONTINUOUS
10
165.4929410000000018
20
-128.939233999999999
11
165.4003669999999886
21
-128.8006869999999822
0
LINE
8
BLACK
6
CONTINUOUS
10
165.4003669999999886
20
-128.8006869999999822
11
165.3366010000000017
21
-128.646741999999989
0
LINE
8
BLACK
6
CONTINUOUS
10
165.3366010000000017
20
-128.646741999999989
11
165.3040929999999946
21
-128.4833150000000046
0
LINE
8
BLACK
6
CONTINUOUS
10
165.3040929999999946
20
-128.4833150000000046
11
165.3040929999999946
21
-128.3166850000000068
0
LINE
8
BLACK
6
CONTINUOUS
10
165.3040929999999946
20
-128.3166850000000068
11
165.3366010000000017
21
-128.1532579999999939
0
LINE
8
BLACK
6
CONTINUOUS
10
165.3366010000000017
20
-128.1532579999999939
11
165.4003669999999886
21
-127.9993130000000008
0
LINE
8
BLACK
6
CONTINUOUS
10
165.4003669999999886
20
-127.9993130000000008
11
165.4929410000000018
21
-127.8607659999999981
0
LINE
8
BLACK
6
CONTINUOUS
10
165.4929410000000018
20
-127.8607659999999981
11
165.6107659999999839
21
-127.7429409999999876
0
LINE
8
BLACK
6
CONTINUOUS
10
165.6107659999999839
20
-127.7429409999999876
11
165.7493130000000008
21
-127.6503669999999886
0
LINE
8
BLACK
6
CONTINUOUS
10
165.7493130000000008
20
-127.6503669999999886
11
165.8499999999999943
21
-127.6086609999999979
0
LINE
8
BLACK
6
CONTINUOUS
10
165.8499999999999943
20
-127.6086609999999979
11
165.8499999999999943
21
-123.7650000000000006
0
LINE
8
BLACK
6
CONTINUOUS
10
165.8499999999999943
20
-123.7650000000000006
11
165.8525669999999934
21
-123.7258420000000001
0
LINE
8
BLACK
6
CONTINUOUS
10
165.8525669999999934
20
-123.7258420000000001
11
165.8728360000000066
21
-123.6501949999999965
0
LINE
8
BLACK
6
CONTINUOUS
10
165.8728360000000066
20
-123.6501949999999965
11
165.9119939999999929
21
-123.5823719999999923
0
LINE
8
BLACK
6
CONTINUOUS
10
165.9119939999999929
20
-123.5823719999999923
11
165.9378679999999804
21
-123.5528679999999895
0
LINE
8
BLACK
6
CONTINUOUS
10
165.9378679999999804
20
-123.5528679999999895
11
168.9168090000000007
21
-120.5739260000000002
0
LINE
8
BLACK
6
CONTINUOUS
10
168.9168090000000007
20
-120.5739260000000002
11
168.8339829999999893
21
-120.4499670000000009
0
LINE
8
BLACK
6
CONTINUOUS
10
168.8339829999999893
20
-120.4499670000000009
11
168.7552129999999977
21
-120.259799000000001
0
LINE
8
BLACK
6
CONTINUOUS
10
168.7552129999999977
20
-120.259799000000001
11
168.7150560000000041
21
-120.0579180000000008
0
LINE
8
BLACK
6
CONTINUOUS
10
168.7150560000000041
20
-120.0579180000000008
11
168.7150560000000041
21
-119.8520819999999958
0
LINE
8
BLACK
6
CONTINUOUS
10
168.7150560000000041
20
-119.8520819999999958
11
168.7552129999999977
21
-119.6502009999999956
0
LINE
8
BLACK
6
CONTINUOUS
10
168.7552129999999977
20
-119.6502009999999956
11
168.8339829999999893
21
-119.4600329999999957
0
LINE
8
BLACK
6
CONTINUOUS
10
168.8339829999999893
20
-119.4600329999999957
11
168.9483390000000043
21
-119.2888869999999883
0
LINE
8
BLACK
6
CONTINUOUS
10
168.9483390000000043
20
-119.2888869999999883
11
169.0938869999999952
21
-119.1433389999999974
0
LINE
8
BLACK
6
CONTINUOUS
10
169.0938869999999952
20
-119.1433389999999974
11
169.2650329999999883
21
-119.0289829999999967
0
LINE
8
BLACK
6
CONTINUOUS
10
169.2650329999999883
20
-119.0289829999999967
11
169.4552009999999882
21
-118.9502129999999909
0
LINE
8
BLACK
6
CONTINUOUS
10
169.4552009999999882
20
-118.9502129999999909
11
169.6570820000000026
21
-118.9100559999999973
0
LINE
8
BLACK
6
CONTINUOUS
10
169.6570820000000026
20
-118.9100559999999973
11
169.7599999999999909
21
-118.9050000000000011
0
LINE
8
BLACK
6
CONTINUOUS
10
169.7599999999999909
20
-118.9050000000000011
11
170.1599999999999966
21
-118.9050000000000011
0
LINE
8
BLACK
6
CONTINUOUS
10
170.1599999999999966
20
-118.9050000000000011
11
170.2629179999999849
21
-118.9100559999999973
0
LINE
8
BLACK
6
CONTINUOUS
10
170.9668000000000063
20
-123.9961809999999929
11
171.0700799999999902
21
-124.0443409999999886
0
LINE
8
BLACK
6
CONTINUOUS
10
171.0700799999999902
20
-124.0443409999999886
11
171.1506589999999903
21
-124.1249199999999888
0
LINE
8
BLACK
6
CONTINUOUS
10
171.1506589999999903
20
-124.1249199999999888
11
171.1988189999999861
21
-124.2282000000000011
0
LINE
8
BLACK
6
CONTINUOUS
10
171.1988189999999861
20
-124.2282000000000011
11
171.2099989999999821
21
-124.3131259999999969
0
LINE
8
BLACK
6
CONTINUOUS
10
171.2099989999999821
20
-124.3131259999999969
11
171.2099999999999795
21
-125.7568749999999937
0
LINE
8
BLACK
6
CONTINUOUS
10
171.2099999999999795
20
-125.7568749999999937
11
171.1988189999999861
21
-125.8417999999999921
0
LINE
8
BLACK
6
CONTINUOUS
10
171.1988189999999861
20
-125.8417999999999921
11
171.1506589999999903
21
-125.9450799999999902
0
LINE
8
BLACK
6
CONTINUOUS
10
171.1506589999999903
20
-125.9450799999999902
11
171.0700799999999902
21
-126.0256589999999903
0
LINE
8
BLACK
6
CONTINUOUS
10
171.0700799999999902
20
-126.0256589999999903
11
170.9668000000000063
21
-126.0738190000000003
0
LINE
8
BLACK
6
CONTINUOUS
10
170.9668000000000063
20
-126.0738190000000003
11
170.8818739999999821
21
-126.0849989999999963
0
LINE
8
BLACK
6
CONTINUOUS
10
170.8818739999999821
20
-126.0849989999999963
11
169.0381249999999795
21
-126.0849999999999937
0
LINE
8
BLACK
6
CONTINUOUS
10
169.0381249999999795
20
-126.0849999999999937
11
168.9531999999999812
21
-126.0738190000000003
0
LINE
8
BLACK
6
CONTINUOUS
10
168.9531999999999812
20
-126.0738190000000003
11
168.8499199999999973
21
-126.0256589999999903
0
LINE
8
BLACK
6
CONTINUOUS
10
168.8499199999999973
20
-126.0256589999999903
11
168.7693409999999972
21
-125.9450799999999902
0
LINE
8
BLACK
6
CONTINUOUS
10
168.7693409999999972
20
-125.9450799999999902
11
168.7211810000000014
21
-125.8417999999999921
0
LINE
8
BLACK
6
CONTINUOUS
10
168.7211810000000014
20
-125.8417999999999921
11
168.7100010000000054
21
-125.7568739999999963
0
LINE
8
BLACK
6
CONTINUOUS
10
168.7100010000000054
20
-125.7568739999999963
11
168.7099999999999795
21
-124.3131249999999994
0
LINE
8
BLACK
6
CONTINUOUS
10
168.7099999999999795
20
-124.3131249999999994
11
168.7211810000000014
21
-124.2282000000000011
0
LINE
8
BLACK
6
CONTINUOUS
10
168.7211810000000014
20
-124.2282000000000011
11
168.7693409999999972
21
-124.1249199999999888
0
LINE
8
BLACK
6
CONTINUOUS
10
168.7693409999999972
20
-124.1249199999999888
11
168.8499199999999973
21
-124.0443409999999886
0
LINE
8
BLACK
6
CONTINUOUS
10
168.8499199999999973
20
-124.0443409999999886
11
168.9531999999999812
21
-123.9961809999999929
0
LINE
8
BLACK
6
CONTINUOUS
10
168.9531999999999812
20
-123.9961809999999929
11
169.0381260000000054
21
-123.9850009999999969
0
LINE
8
BLACK
6
CONTINUOUS
10
169.0381260000000054
20
-123.9850009999999969
11
170.8818749999999795
21
-123.9849999999999994
0
LINE
8
BLACK
6
CONTINUOUS
10
170.8818749999999795
20
-123.9849999999999994
11
170.9668000000000063
21
-123.9961809999999929
0
LINE
8
BLACK
6
CONTINUOUS
10
162.6429179999999803
20
-121.4500559999999894
11
162.8447989999999947
21
-121.4902129999999971
0
LINE
8
BLACK
6
CONTINUOUS
10
162.8447989999999947
20
-121.4902129999999971
11
163.0349669999999946
21
-121.5689829999999887
0
LINE
8
BLACK
6
CONTINUOUS
10
163.0349669999999946
20
-121.5689829999999887
11
163.2061129999999878
21
-121.6833389999999895
0
LINE
8
BLACK
6
CONTINUOUS
10
163.2061129999999878
20
-121.6833389999999895
11
163.3516609999999787
21
-121.8288869999999946
0
LINE
8
BLACK
6
CONTINUOUS
10
163.3516609999999787
20
-121.8288869999999946
11
163.4660169999999937
21
-122.0000329999999877
0
LINE
8
BLACK
6
CONTINUOUS
10
163.4660169999999937
20
-122.0000329999999877
11
163.5447869999999853
21
-122.1902009999999876
0
LINE
8
BLACK
6
CONTINUOUS
10
163.5447869999999853
20
-122.1902009999999876
11
163.5849439999999788
21
-122.3920819999999878
0
LINE
8
BLACK
6
CONTINUOUS
10
163.5849439999999788
20
-122.3920819999999878
11
163.5849439999999788
21
-122.5979179999999928
0
LINE
8
BLACK
6
CONTINUOUS
10
163.5849439999999788
20
-122.5979179999999928
11
163.5447869999999853
21
-122.799798999999993
0
LINE
8
BLACK
6
CONTINUOUS
10
163.5447869999999853
20
-122.799798999999993
11
163.4660169999999937
21
-122.9899669999999929
0
LINE
8
BLACK
6
CONTINUOUS
10
163.4660169999999937
20
-122.9899669999999929
11
163.3516609999999787
21
-123.1611130000000003
0
LINE
8
BLACK
6
CONTINUOUS
10
163.3516609999999787
20
-123.1611130000000003
11
163.2061129999999878
21
-123.3066609999999912
0
LINE
8
BLACK
6
CONTINUOUS
10
163.2061129999999878
20
-123.3066609999999912
11
163.0349669999999946
21
-123.421016999999992
0
LINE
8
BLACK
6
CONTINUOUS
10
163.0349669999999946
20
-123.421016999999992
11
162.8447989999999947
21
-123.4997869999999978
0
LINE
8
BLACK
6
CONTINUOUS
10
162.8447989999999947
20
-123.4997869999999978
11
162.6429179999999803
21
-123.5399439999999913
0
LINE
8
BLACK
6
CONTINUOUS
10
162.6429179999999803
20
-123.5399439999999913
11
162.539999999999992
21
-123.5449999999999875
0
LINE
8
BLACK
6
CONTINUOUS
10
162.539999999999992
20
-123.5449999999999875
11
162.1399999999999864
21
-123.5449999999999875
0
LINE
8
BLACK
6
CONTINUOUS
10
162.1399999999999864
20
-123.5449999999999875
11
162.0370819999999981
21
-123.5399439999999913
0
LINE
8
BLACK
6
CONTINUOUS
10
162.0370819999999981
20
-123.5399439999999913
11
161.8352009999999837
21
-123.4997869999999978
0
LINE
8
BLACK
6
CONTINUOUS
10
161.8352009999999837
20
-123.4997869999999978
11
161.6450329999999838
21
-123.421016999999992
0
LINE
8
BLACK
6
CONTINUOUS
10
161.6450329999999838
20
-123.421016999999992
11
161.4738869999999906
21
-123.3066609999999912
0
LINE
8
BLACK
6
CONTINUOUS
10
161.4738869999999906
20
-123.3066609999999912
11
161.3283389999999997
21
-123.1611130000000003
0
LINE
8
BLACK
6
CONTINUOUS
10
161.3283389999999997
20
-123.1611130000000003
11
161.2139829999999847
21
-122.9899669999999929
0
LINE
8
BLACK
6
CONTINUOUS
10
161.2139829999999847
20
-122.9899669999999929
11
161.1352129999999931
21
-122.799798999999993
0
LINE
8
BLACK
6
CONTINUOUS
10
161.1352129999999931
20
-122.799798999999993
11
161.0950559999999996
21
-122.5979179999999928
0
LINE
8
BLACK
6
CONTINUOUS
10
161.0950559999999996
20
-122.5979179999999928
11
161.0950559999999996
21
-122.3920819999999878
0
LINE
8
BLACK
6
CONTINUOUS
10
161.0950559999999996
20
-122.3920819999999878
11
161.1352129999999931
21
-122.1902009999999876
0
LINE
8
BLACK
6
CONTINUOUS
10
161.1352129999999931
20
-122.1902009999999876
11
161.2139829999999847
21
-122.0000329999999877
0
LINE
8
BLACK
6
CONTINUOUS
10
161.2139829999999847
20
-122.0000329999999877
11
161.3283389999999997
21
-121.8288869999999946
0
LINE
8
BLACK
6
CONTINUOUS
10
161.3283389999999997
20
-121.8288869999999946
11
161.4738869999999906
21
-121.6833389999999895
0
LINE
8
BLACK
6
CONTINUOUS
10
161.4738869999999906
20
-121.6833389999999895
11
161.6450329999999838
21
-121.5689829999999887
0
LINE
8
BLACK
6
CONTINUOUS
10
161.6450329999999838
20
-121.5689829999999887
11
161.8352009999999837
21
-121.4902129999999971
0
LINE
8
BLACK
6
CONTINUOUS
10
161.8352009999999837
20
-121.4902129999999971
11
162.0370819999999981
21
-121.4500559999999894
0
LINE
8
BLACK
6
CONTINUOUS
10
162.0370819999999981
20
-121.4500559999999894
11
162.1399999999999864
21
-121.4449999999999932
0
LINE
8
BLACK
6
CONTINUOUS
10
162.1399999999999864
20
-121.4449999999999932
11
162.539999999999992
21
-121.4449999999999932
0
LINE
8
BLACK
6
CONTINUOUS
10
162.539999999999992
20
-121.4449999999999932
11
162.6429179999999803
21
-121.4500559999999894
0
LINE
8
BLACK
6
CONTINUOUS
10
162.6429179999999803
20
-118.9100559999999973
11
162.8447989999999947
21
-118.9502129999999909
0
LINE
8
BLACK
6
CONTINUOUS
10
162.8447989999999947
20
-118.9502129999999909
11
163.0349669999999946
21
-119.0289829999999967
0
LINE
8
BLACK
6
CONTINUOUS
10
163.0349669999999946
20
-119.0289829999999967
11
163.2061129999999878
21
-119.1433389999999974
0
LINE
8
BLACK
6
CONTINUOUS
10
163.2061129999999878
20
-119.1433389999999974
11
163.3516609999999787
21
-119.2888869999999883
0
LINE
8
BLACK
6
CONTINUOUS
10
163.3516609999999787
20
-119.2888869999999883
11
163.4660169999999937
21
-119.4600329999999957
0
LINE
8
BLACK
6
CONTINUOUS
10
163.4660169999999937
20
-119.4600329999999957
11
163.5447869999999853
21
-119.6502009999999956
0
LINE
8
BLACK
6
CONTINUOUS
10
163.5447869999999853
20
-119.6502009999999956
11
163.5849439999999788
21
-119.8520819999999958
0
LINE
8
BLACK
6
CONTINUOUS
10
163.5849439999999788
20
-119.8520819999999958
11
163.5849439999999788
21
-120.0579180000000008
0
LINE
8
BLACK
6
CONTINUOUS
10
163.5849439999999788
20
-120.0579180000000008
11
163.5447869999999853
21
-120.259799000000001
0
LINE
8
BLACK
6
CONTINUOUS
10
163.5447869999999853
20
-120.259799000000001
11
163.4660169999999937
21
-120.4499670000000009
0
LINE
8
BLACK
6
CONTINUOUS
10
163.4660169999999937
20
-120.4499670000000009
11
163.3516609999999787
21
-120.621112999999994
0
LINE
8
BLACK
6
CONTINUOUS
10
163.3516609999999787
20
-120.621112999999994
11
163.2061129999999878
21
-120.7666609999999991
0
LINE
8
BLACK
6
CONTINUOUS
10
163.2061129999999878
20
-120.7666609999999991
11
163.0349669999999946
21
-120.8810169999999999
0
LINE
8
BLACK
6
CONTINUOUS
10
163.0349669999999946
20
-120.8810169999999999
11
162.8447989999999947
21
-120.9597869999999915
0
LINE
8
BLACK
6
CONTINUOUS
10
162.8447989999999947
20
-120.9597869999999915
11
162.6429179999999803
21
-120.9999439999999993
0
LINE
8
BLACK
6
CONTINUOUS
10
162.6429179999999803
20
-120.9999439999999993
11
162.539999999999992
21
-121.0049999999999955
0
LINE
8
BLACK
6
CONTINUOUS
10
162.539999999999992
20
-121.0049999999999955
11
162.1399999999999864
21
-121.0049999999999955
0
LINE
8
BLACK
6
CONTINUOUS
10
162.1399999999999864
20
-121.0049999999999955
11
162.0370819999999981
21
-120.9999439999999993
0
LINE
8
BLACK
6
CONTINUOUS
10
162.0370819999999981
20
-120.9999439999999993
11
161.8352009999999837
21
-120.9597869999999915
0
LINE
8
BLACK
6
CONTINUOUS
10
161.8352009999999837
20
-120.9597869999999915
11
161.6450329999999838
21
-120.8810169999999999
0
LINE
8
BLACK
6
CONTINUOUS
10
161.6450329999999838
20
-120.8810169999999999
11
161.4738869999999906
21
-120.7666609999999991
0
LINE
8
BLACK
6
CONTINUOUS
10
161.4738869999999906
20
-120.7666609999999991
11
161.3283389999999997
21
-120.621112999999994
0
LINE
8
BLACK
6
CONTINUOUS
10
161.3283389999999997
20
-120.621112999999994
11
161.2139829999999847
21
-120.4499670000000009
0
LINE
8
BLACK
6
CONTINUOUS
10
161.2139829999999847
20
-120.4499670000000009
11
161.1352129999999931
21
-120.259799000000001
0
LINE
8
BLACK
6
CONTINUOUS
10
161.1352129999999931
20
-120.259799000000001
11
161.0950559999999996
21
-120.0579180000000008
0
LINE
8
BLACK
6
CONTINUOUS
10
161.0950559999999996
20
-120.0579180000000008
11
161.0950559999999996
21
-119.8520819999999958
0
LINE
8
BLACK
6
CONTINUOUS
10
161.0950559999999996
20
-119.8520819999999958
11
161.1352129999999931
21
-119.6502009999999956
0
LINE
8
BLACK
6
CONTINUOUS
10
161.1352129999999931
20
-119.6502009999999956
11
161.2139829999999847
21
-119.4600329999999957
0
LINE
8
BLACK
6
CONTINUOUS
10
161.2139829999999847
20
-119.4600329999999957
11
161.3283389999999997
21
-119.2888869999999883
0
LINE
8
BLACK
6
CONTINUOUS
10
161.3283389999999997
20
-119.2888869999999883
11
161.4738869999999906
21
-119.1433389999999974
0
LINE
8
BLACK
6
CONTINUOUS
10
161.4738869999999906
20
-119.1433389999999974
11
161.6450329999999838
21
-119.0289829999999967
0
LINE
8
BLACK
6
CONTINUOUS
10
161.6450329999999838
20
-119.0289829999999967
11
161.8352009999999837
21
-118.9502129999999909
0
LINE
8
BLACK
6
CONTINUOUS
10
161.8352009999999837
20
-118.9502129999999909
11
162.0370819999999981
21
-118.9100559999999973
0
LINE
8
BLACK
6
CONTINUOUS
10
162.0370819999999981
20
-118.9100559999999973
11
162.1399999999999864
21
-118.9050000000000011
0
LINE
8
BLACK
6
CONTINUOUS
10
162.1399999999999864
20
-118.9050000000000011
11
162.539999999999992
21
-118.9050000000000011
0
LINE
8
BLACK
6
CONTINUOUS
10
162.539999999999992
20
-118.9050000000000011
11
162.6429179999999803
21
-118.9100559999999973
0
LINE
8
BLACK
6
CONTINUOUS
10
167.8141579999999919
20
-109.5775670000000019
11
167.8898049999999955
21
-109.5978360000000009
0
LINE
8
BLACK
6
CONTINUOUS
10
167.8898049999999955
20
-109.5978360000000009
11
167.9576279999999997
21
-109.6369940000000014
0
LINE
8
BLACK
6
CONTINUOUS
10
167.9576279999999997
20
-109.6369940000000014
11
167.9871320000000026
21
-109.6628679999999889
0
LINE
8
BLACK
6
CONTINUOUS
10
167.9871320000000026
20
-109.6628679999999889
11
168.3871319999999798
21
-110.0628679999999946
0
LINE
8
BLACK
6
CONTINUOUS
10
168.3871319999999798
20
-110.0628679999999946
11
168.4129969999999901
21
-110.0923629999999918
0
LINE
8
BLACK
6
CONTINUOUS
10
168.4129969999999901
20
-110.0923629999999918
11
168.4130059999999958
21
-110.0923719999999975
0
LINE
8
BLACK
6
CONTINUOUS
10
168.4130059999999958
20
-110.0923719999999975
11
168.452163999999982
21
-110.1601950000000016
0
LINE
8
BLACK
6
CONTINUOUS
10
168.452163999999982
20
-110.1601950000000016
11
168.4724329999999952
21
-110.235841999999991
0
LINE
8
BLACK
6
CONTINUOUS
10
168.4724329999999952
20
-110.235841999999991
11
168.4749999999999943
21
-110.2749999999999915
0
LINE
8
BLACK
6
CONTINUOUS
10
168.4749999999999943
20
-110.2749999999999915
11
168.4749999999999943
21
-113.125
0
LINE
8
BLACK
6
CONTINUOUS
10
168.4749999999999943
20
-113.125
11
168.5250000000000057
21
-113.125
0
LINE
8
BLACK
6
CONTINUOUS
10
168.5250000000000057
20
-113.125
11
168.6206709999999873
21
-113.1440300000000008
0
LINE
8
BLACK
6
CONTINUOUS
10
168.6206709999999873
20
-113.1440300000000008
11
168.7017769999999928
21
-113.1982229999999987
0
LINE
8
BLACK
6
CONTINUOUS
10
168.7017769999999928
20
-113.1982229999999987
11
168.7559699999999907
21
-113.2793289999999899
0
LINE
8
BLACK
6
CONTINUOUS
10
168.7559699999999907
20
-113.2793289999999899
11
168.7750000000000057
21
-113.375
0
LINE
8
BLACK
6
CONTINUOUS
10
168.7750000000000057
20
-113.375
11
168.7750000000000057
21
-114.625
0
LINE
8
BLACK
6
CONTINUOUS
10
168.7750000000000057
20
-114.625
11
168.7559699999999907
21
-114.7206709999999958
0
LINE
8
BLACK
6
CONTINUOUS
10
168.7559699999999907
20
-114.7206709999999958
11
168.7017769999999928
21
-114.8017770000000013
0
LINE
8
BLACK
6
CONTINUOUS
10
168.7017769999999928
20
-114.8017770000000013
11
168.6206709999999873
21
-114.8559699999999992
0
LINE
8
BLACK
6
CONTINUOUS
10
168.6206709999999873
20
-114.8559699999999992
11
168.5250000000000057
21
-114.875
0
LINE
8
BLACK
6
CONTINUOUS
10
168.5250000000000057
20
-114.875
11
167.8249999999999886
21
-114.875
0
LINE
8
BLACK
6
CONTINUOUS
10
167.8249999999999886
20
-114.875
11
167.7293289999999786
21
-114.8559699999999992
0
LINE
8
BLACK
6
CONTINUOUS
10
167.7293289999999786
20
-114.8559699999999992
11
167.6482230000000015
21
-114.8017770000000013
0
LINE
8
BLACK
6
CONTINUOUS
10
167.6482230000000015
20
-114.8017770000000013
11
167.5940300000000036
21
-114.7206709999999958
0
LINE
8
BLACK
6
CONTINUOUS
10
167.5940300000000036
20
-114.7206709999999958
11
167.5749999999999886
21
-114.625
0
LINE
8
BLACK
6
CONTINUOUS
10
167.5749999999999886
20
-114.625
11
167.5749999999999886
21
-113.375
0
LINE
8
BLACK
6
CONTINUOUS
10
167.5749999999999886
20
-113.375
11
167.5940300000000036
21
-113.2793289999999899
0
LINE
8
BLACK
6
CONTINUOUS
10
167.5940300000000036
20
-113.2793289999999899
11
167.6482230000000015
21
-113.1982229999999987
0
LINE
8
BLACK
6
CONTINUOUS
10
167.6482230000000015
20
-113.1982229999999987
11
167.7293289999999786
21
-113.1440300000000008
0
LINE
8
BLACK
6
CONTINUOUS
10
167.7293289999999786
20
-113.1440300000000008
11
167.8249999999999886
21
-113.125
0
LINE
8
BLACK
6
CONTINUOUS
10
167.8249999999999886
20
-113.125
11
167.875
21
-113.125
0
LINE
8
BLACK
6
CONTINUOUS
10
167.875
20
-113.125
11
167.875
21
-110.3992639999999881
0
LINE
8
BLACK
6
CONTINUOUS
10
167.875
20
-110.3992639999999881
11
167.6507359999999949
21
-110.1749999999999972
0
LINE
8
BLACK
6
CONTINUOUS
10
167.6507359999999949
20
-110.1749999999999972
11
162.9242639999999938
21
-110.1749999999999972
0
LINE
8
BLACK
6
CONTINUOUS
10
162.9242639999999938
20
-110.1749999999999972
11
162.6399999999999864
21
-110.4592639999999903
0
LINE
8
BLACK
6
CONTINUOUS
10
162.6399999999999864
20
-110.4592639999999903
11
162.6399999999999864
21
-116.3699119999999994
0
LINE
8
BLACK
6
CONTINUOUS
10
162.6399999999999864
20
-116.3699119999999994
11
162.6429179999999803
21
-116.3700559999999911
0
LINE
8
BLACK
6
CONTINUOUS
10
162.6429179999999803
20
-116.3700559999999911
11
162.8447989999999947
21
-116.4102129999999988
0
LINE
8
BLACK
6
CONTINUOUS
10
162.8447989999999947
20
-116.4102129999999988
11
163.0349669999999946
21
-116.4889829999999904
0
LINE
8
BLACK
6
CONTINUOUS
10
163.0349669999999946
20
-116.4889829999999904
11
163.2061129999999878
21
-116.6033389999999912
0
LINE
8
BLACK
6
CONTINUOUS
10
163.2061129999999878
20
-116.6033389999999912
11
163.3516609999999787
21
-116.7488869999999963
0
LINE
8
BLACK
6
CONTINUOUS
10
163.3516609999999787
20
-116.7488869999999963
11
163.4660169999999937
21
-116.9200329999999894
0
LINE
8
BLACK
6
CONTINUOUS
10
163.4660169999999937
20
-116.9200329999999894
11
163.5447869999999853
21
-117.1102009999999893
0
LINE
8
BLACK
6
CONTINUOUS
10
163.5447869999999853
20
-117.1102009999999893
11
163.5849439999999788
21
-117.3120819999999895
0
LINE
8
BLACK
6
CONTINUOUS
10
163.5849439999999788
20
-117.3120819999999895
11
163.5849439999999788
21
-117.5179179999999945
0
LINE
8
BLACK
6
CONTINUOUS
10
163.5849439999999788
20
-117.5179179999999945
11
163.5447869999999853
21
-117.7197989999999947
0
LINE
8
BLACK
6
CONTINUOUS
10
163.5447869999999853
20
-117.7197989999999947
11
163.4660169999999937
21
-117.9099669999999946
0
LINE
8
BLACK
6
CONTINUOUS
10
163.4660169999999937
20
-117.9099669999999946
11
163.3516609999999787
21
-118.0811129999999878
0
LINE
8
BLACK
6
CONTINUOUS
10
163.3516609999999787
20
-118.0811129999999878
11
163.2061129999999878
21
-118.2266609999999929
0
LINE
8
BLACK
6
CONTINUOUS
10
163.2061129999999878
20
-118.2266609999999929
11
163.0349669999999946
21
-118.3410169999999937
0
LINE
8
BLACK
6
CONTINUOUS
10
163.0349669999999946
20
-118.3410169999999937
11
162.8447989999999947
21
-118.4197869999999995
0
LINE
8
BLACK
6
CONTINUOUS
10
162.8447989999999947
20
-118.4197869999999995
11
162.6429179999999803
21
-118.459943999999993
0
LINE
8
BLACK
6
CONTINUOUS
10
162.6429179999999803
20
-118.459943999999993
11
162.539999999999992
21
-118.4649999999999892
0
LINE
8
BLACK
6
CONTINUOUS
10
162.539999999999992
20
-118.4649999999999892
11
162.1399999999999864
21
-118.4649999999999892
0
LINE
8
BLACK
6
CONTINUOUS
10
162.1399999999999864
20
-118.4649999999999892
11
162.0370819999999981
21
-118.459943999999993
0
LINE
8
BLACK
6
CONTINUOUS
10
162.0370819999999981
20
-118.459943999999993
11
161.8352009999999837
21
-118.4197869999999995
0
LINE
8
BLACK
6
CONTINUOUS
10
161.8352009999999837
20
-118.4197869999999995
11
161.6450329999999838
21
-118.3410169999999937
0
LINE
8
BLACK
6
CONTINUOUS
10
161.6450329999999838
20
-118.3410169999999937
11
161.4738869999999906
21
-118.2266609999999929
0
LINE
8
BLACK
6
CONTINUOUS
10
161.4738869999999906
20
-118.2266609999999929
11
161.3283389999999997
21
-118.0811129999999878
0
LINE
8
BLACK
6
CONTINUOUS
10
161.3283389999999997
20
-118.0811129999999878
11
161.2139829999999847
21
-117.9099669999999946
0
LINE
8
BLACK
6
CONTINUOUS
10
161.2139829999999847
20
-117.9099669999999946
11
161.1352129999999931
21
-117.7197989999999947
0
LINE
8
BLACK
6
CONTINUOUS
10
161.1352129999999931
20
-117.7197989999999947
11
161.0950559999999996
21
-117.5179179999999945
0
LINE
8
BLACK
6
CONTINUOUS
10
161.0950559999999996
20
-117.5179179999999945
11
161.0950559999999996
21
-117.3120819999999895
0
LINE
8
BLACK
6
CONTINUOUS
10
161.0950559999999996
20
-117.3120819999999895
11
161.1352129999999931
21
-117.1102009999999893
0
LINE
8
BLACK
6
CONTINUOUS
10
161.1352129999999931
20
-117.1102009999999893
11
161.2139829999999847
21
-116.9200329999999894
0
LINE
8
BLACK
6
CONTINUOUS
10
161.2139829999999847
20
-116.9200329999999894
11
161.3283389999999997
21
-116.7488869999999963
0
LINE
8
BLACK
6
CONTINUOUS
10
161.3283389999999997
20
-116.7488869999999963
11
161.4738869999999906
21
-116.6033389999999912
0
LINE
8
BLACK
6
CONTINUOUS
10
161.4738869999999906
20
-116.6033389999999912
11
161.6450329999999838
21
-116.4889829999999904
0
LINE
8
BLACK
6
CONTINUOUS
10
161.6450329999999838
20
-116.4889829999999904
11
161.8352009999999837
21
-116.4102129999999988
0
LINE
8
BLACK
6
CONTINUOUS
10
161.8352009999999837
20
-116.4102129999999988
11
162.0370819999999981
21
-116.3700559999999911
0
LINE
8
BLACK
6
CONTINUOUS
10
162.0370819999999981
20
-116.3700559999999911
11
162.039999999999992
21
-116.3699119999999994
0
LINE
8
BLACK
6
CONTINUOUS
10
162.039999999999992
20
-116.3699119999999994
11
162.039999999999992
21
-110.3349999999999937
0
LINE
8
BLACK
6
CONTINUOUS
10
162.039999999999992
20
-110.3349999999999937
11
162.0425669999999911
21
-110.2958419999999933
0
LINE
8
BLACK
6
CONTINUOUS
10
162.0425669999999911
20
-110.2958419999999933
11
162.0628360000000043
21
-110.2201949999999897
0
LINE
8
BLACK
6
CONTINUOUS
10
162.0628360000000043
20
-110.2201949999999897
11
162.1019939999999906
21
-110.1523719999999997
0
LINE
8
BLACK
6
CONTINUOUS
10
162.1019939999999906
20
-110.1523719999999997
11
162.1278680000000065
21
-110.1228679999999969
0
LINE
8
BLACK
6
CONTINUOUS
10
162.1278680000000065
20
-110.1228679999999969
11
162.5878679999999861
21
-109.6628679999999889
0
LINE
8
BLACK
6
CONTINUOUS
10
162.5878679999999861
20
-109.6628679999999889
11
162.6173719999999889
21
-109.6369940000000014
0
LINE
8
BLACK
6
CONTINUOUS
10
162.6173719999999889
20
-109.6369940000000014
11
162.6851949999999931
21
-109.5978360000000009
0
LINE
8
BLACK
6
CONTINUOUS
10
162.6851949999999931
20
-109.5978360000000009
11
162.7608419999999967
21
-109.5775670000000019
0
LINE
8
BLACK
6
CONTINUOUS
10
162.7608419999999967
20
-109.5775670000000019
11
162.7999999999999829
21
-109.5749999999999886
0
LINE
8
BLACK
6
CONTINUOUS
10
162.7999999999999829
20
-109.5749999999999886
11
167.7750000000000057
21
-109.5749999999999886
0
LINE
8
BLACK
6
CONTINUOUS
10
167.7750000000000057
20
-109.5749999999999886
11
167.8141579999999919
21
-109.5775670000000019
0
LINE
8
BLACK
6
CONTINUOUS
10
170.9332039999999893
20
-111.7330869999999976
11
170.9860960000000034
21
-111.7581409999999948
0
LINE
8
BLACK
6
CONTINUOUS
10
170.9860960000000034
20
-111.7581409999999948
11
171.0253759999999943
21
-111.8015299999999996
0
LINE
8
BLACK
6
CONTINUOUS
10
171.0253759999999943
20
-111.8015299999999996
11
171.045061000000004
21
-111.8566479999999927
0
LINE
8
BLACK
6
CONTINUOUS
10
171.045061000000004
20
-111.8566479999999927
11
171.0421539999999823
21
-111.915103000000002
0
LINE
8
BLACK
6
CONTINUOUS
10
171.0421539999999823
20
-111.915103000000002
11
171.0170999999999992
21
-111.9679950000000019
0
LINE
8
BLACK
6
CONTINUOUS
10
171.0170999999999992
20
-111.9679950000000019
11
170.9737109999999802
21
-112.0072749999999928
0
LINE
8
BLACK
6
CONTINUOUS
10
170.9737109999999802
20
-112.0072749999999928
11
170.9471209999999814
21
-112.0198309999999964
0
LINE
8
BLACK
6
CONTINUOUS
10
170.9471209999999814
20
-112.0198309999999964
11
170.3426509999999894
21
-112.2357129999999898
0
LINE
8
BLACK
6
CONTINUOUS
10
170.3426509999999894
20
-112.2357129999999898
11
170.9471209999999814
21
-112.4515949999999975
0
LINE
8
BLACK
6
CONTINUOUS
10
170.9471209999999814
20
-112.4515949999999975
11
170.9737109999999802
21
-112.4641510000000011
0
LINE
8
BLACK
6
CONTINUOUS
10
170.9737109999999802
20
-112.4641510000000011
11
171.0170999999999992
21
-112.503430999999992
0
LINE
8
BLACK
6
CONTINUOUS
10
171.0170999999999992
20
-112.503430999999992
11
171.0421539999999823
21
-112.5563229999999919
0
LINE
8
BLACK
6
CONTINUOUS
10
171.0421539999999823
20
-112.5563229999999919
11
171.045061000000004
21
-112.6147780000000012
0
LINE
8
BLACK
6
CONTINUOUS
10
171.045061000000004
20
-112.6147780000000012
11
171.0253759999999943
21
-112.6698959999999943
0
LINE
8
BLACK
6
CONTINUOUS
10
171.0253759999999943
20
-112.6698959999999943
11
170.9860960000000034
21
-112.7132849999999991
0
LINE
8
BLACK
6
CONTINUOUS
10
170.9860960000000034
20
-112.7132849999999991
11
170.9332039999999893
21
-112.7383389999999963
0
LINE
8
BLACK
6
CONTINUOUS
10
170.9332039999999893
20
-112.7383389999999963
11
170.87474899999998
21
-112.7412459999999896
0
LINE
8
BLACK
6
CONTINUOUS
10
170.87474899999998
20
-112.7412459999999896
11
170.8462199999999882
21
-112.7341169999999977
0
LINE
8
BLACK
6
CONTINUOUS
10
170.8462199999999882
20
-112.7341169999999977
11
169.8462209999999857
21
-112.3769739999999899
0
LINE
8
BLACK
6
CONTINUOUS
10
169.8462209999999857
20
-112.3769739999999899
11
169.8196309999999869
21
-112.3644180000000006
0
LINE
8
BLACK
6
CONTINUOUS
10
169.8196309999999869
20
-112.3644180000000006
11
169.8140479999999854
21
-112.3593639999999994
0
LINE
8
BLACK
6
CONTINUOUS
10
169.8140479999999854
20
-112.3593639999999994
11
169.8072459999999921
21
-112.3561419999999913
0
LINE
8
BLACK
6
CONTINUOUS
10
169.8072459999999921
20
-112.3561419999999913
11
169.7925139999999828
21
-112.3398689999999931
0
LINE
8
BLACK
6
CONTINUOUS
10
169.7925139999999828
20
-112.3398689999999931
11
169.7762419999999963
21
-112.3251379999999955
0
LINE
8
BLACK
6
CONTINUOUS
10
169.7762419999999963
20
-112.3251379999999955
11
169.773019000000005
21
-112.3183349999999905
0
LINE
8
BLACK
6
CONTINUOUS
10
169.773019000000005
20
-112.3183349999999905
11
169.7679660000000013
21
-112.3127530000000007
0
LINE
8
BLACK
6
CONTINUOUS
10
169.7679660000000013
20
-112.3127530000000007
11
169.7605819999999994
21
-112.2920779999999894
0
LINE
8
BLACK
6
CONTINUOUS
10
169.7605819999999994
20
-112.2920779999999894
11
169.7511879999999849
21
-112.2722459999999955
0
LINE
8
BLACK
6
CONTINUOUS
10
169.7511879999999849
20
-112.2722459999999955
11
169.7508139999999912
21
-112.2647269999999935
0
LINE
8
BLACK
6
CONTINUOUS
10
169.7508139999999912
20
-112.2647269999999935
11
169.7482809999999915
21
-112.2576349999999934
0
LINE
8
BLACK
6
CONTINUOUS
10
169.7482809999999915
20
-112.2576349999999934
11
169.7493709999999965
21
-112.2357129999999898
0
LINE
8
BLACK
6
CONTINUOUS
10
169.7493709999999965
20
-112.2357129999999898
11
169.7482809999999915
21
-112.2137910000000005
0
LINE
8
BLACK
6
CONTINUOUS
10
169.7482809999999915
20
-112.2137910000000005
11
169.7508139999999912
21
-112.2066979999999887
0
LINE
8
BLACK
6
CONTINUOUS
10
169.7508139999999912
20
-112.2066979999999887
11
169.7511879999999849
21
-112.1991799999999984
0
LINE
8
BLACK
6
CONTINUOUS
10
169.7511879999999849
20
-112.1991799999999984
11
169.7605819999999994
21
-112.1793469999999928
0
LINE
8
BLACK
6
CONTINUOUS
10
169.7605819999999994
20
-112.1793469999999928
11
169.7679660000000013
21
-112.1586729999999932
0
LINE
8
BLACK
6
CONTINUOUS
10
169.7679660000000013
20
-112.1586729999999932
11
169.773019000000005
21
-112.1530899999999917
0
LINE
8
BLACK
6
CONTINUOUS
10
169.773019000000005
20
-112.1530899999999917
11
169.7762419999999963
21
-112.1462879999999984
0
LINE
8
BLACK
6
CONTINUOUS
10
169.7762419999999963
20
-112.1462879999999984
11
169.7925139999999828
21
-112.1315559999999891
0
LINE
8
BLACK
6
CONTINUOUS
10
169.7925139999999828
20
-112.1315559999999891
11
169.8072459999999921
21
-112.1152839999999884
0
LINE
8
BLACK
6
CONTINUOUS
10
169.8072459999999921
20
-112.1152839999999884
11
169.8140479999999854
21
-112.1120609999999971
0
LINE
8
BLACK
6
CONTINUOUS
10
169.8140479999999854
20
-112.1120609999999971
11
169.8196309999999869
21
-112.1070079999999933
0
LINE
8
BLACK
6
CONTINUOUS
10
169.8196309999999869
20
-112.1070079999999933
11
169.8462209999999857
21
-112.0944519999999898
0
LINE
8
BLACK
6
CONTINUOUS
10
169.8462209999999857
20
-112.0944519999999898
11
170.8462199999999882
21
-111.7373089999999962
0
LINE
8
BLACK
6
CONTINUOUS
10
170.8462199999999882
20
-111.7373089999999962
11
170.87474899999998
21
-111.7301799999999901
0
LINE
8
BLACK
6
CONTINUOUS
10
170.87474899999998
20
-111.7301799999999901
11
170.9332039999999893
21
-111.7330869999999976
0
LINE
8
BLACK
6
CONTINUOUS
10
170.8303449999999941
20
-110.3719289999999944
11
170.8325329999999838
21
-110.3716039999999907
0
LINE
8
BLACK
6
CONTINUOUS
10
170.8325329999999838
20
-110.3716039999999907
11
170.843482999999992
21
-110.3732229999999959
0
LINE
8
BLACK
6
CONTINUOUS
10
170.843482999999992
20
-110.3732229999999959
11
170.8545059999999864
21
-110.3743089999999967
0
LINE
8
BLACK
6
CONTINUOUS
10
170.8545059999999864
20
-110.3743089999999967
11
170.8565499999999986
21
-110.3751559999999898
0
LINE
8
BLACK
6
CONTINUOUS
10
170.8565499999999986
20
-110.3751559999999898
11
170.8616219999999828
21
-110.3759060000000005
0
LINE
8
BLACK
6
CONTINUOUS
10
170.8616219999999828
20
-110.3759060000000005
11
171.1473369999999932
21
-110.4473349999999954
0
LINE
8
BLACK
6
CONTINUOUS
10
171.1473369999999932
20
-110.4473349999999954
11
171.1494950000000017
21
-110.4481059999999957
0
LINE
8
BLACK
6
CONTINUOUS
10
171.1494950000000017
20
-110.4481059999999957
11
171.1505760000000009
21
-110.4481830000000002
0
LINE
8
BLACK
6
CONTINUOUS
10
171.1505760000000009
20
-110.4481830000000002
11
171.1627499999999884
21
-110.4528409999999923
0
LINE
8
BLACK
6
CONTINUOUS
10
171.1627499999999884
20
-110.4528409999999923
11
171.1750279999999975
21
-110.4572280000000006
0
LINE
8
BLACK
6
CONTINUOUS
10
171.1750279999999975
20
-110.4572280000000006
11
171.1758979999999895
21
-110.4578719999999947
0
LINE
8
BLACK
6
CONTINUOUS
10
171.1758979999999895
20
-110.4578719999999947
11
171.1780389999999841
21
-110.4586919999999992
0
LINE
8
BLACK
6
CONTINUOUS
10
171.1780389999999841
20
-110.4586919999999992
11
171.3208960000000047
21
-110.5301209999999941
0
LINE
8
BLACK
6
CONTINUOUS
10
171.3208960000000047
20
-110.5301209999999941
11
171.3334889999999859
21
-110.5380479999999892
0
LINE
8
BLACK
6
CONTINUOUS
10
171.3334889999999859
20
-110.5380479999999892
11
171.3371489999999824
21
-110.5395639999999986
0
LINE
8
BLACK
6
CONTINUOUS
10
171.3371489999999824
20
-110.5395639999999986
11
171.3412679999999852
21
-110.5429449999999889
0
LINE
8
BLACK
6
CONTINUOUS
10
171.3412679999999852
20
-110.5429449999999889
11
171.3457819999999856
21
-110.5457859999999926
0
LINE
8
BLACK
6
CONTINUOUS
10
171.3457819999999856
20
-110.5457859999999926
11
171.3483779999999967
21
-110.5487789999999961
0
LINE
8
BLACK
6
CONTINUOUS
10
171.3483779999999967
20
-110.5487789999999961
11
171.359880000000004
21
-110.558218999999994
0
LINE
8
BLACK
6
CONTINUOUS
10
171.359880000000004
20
-110.558218999999994
11
171.4313080000000014
21
-110.6296469999999914
0
LINE
8
BLACK
6
CONTINUOUS
10
171.4313080000000014
20
-110.6296469999999914
11
171.440747999999985
21
-110.6411489999999986
0
LINE
8
BLACK
6
CONTINUOUS
10
171.440747999999985
20
-110.6411489999999986
11
171.4437409999999886
21
-110.6437449999999956
0
LINE
8
BLACK
6
CONTINUOUS
10
171.4437409999999886
20
-110.6437449999999956
11
171.4465789999999856
21
-110.6482539999999943
0
LINE
8
BLACK
6
CONTINUOUS
10
171.4465789999999856
20
-110.6482539999999943
11
171.4499629999999968
21
-110.6523770000000013
0
LINE
8
BLACK
6
CONTINUOUS
10
171.4499629999999968
20
-110.6523770000000013
11
171.4514790000000062
21
-110.6560389999999927
0
LINE
8
BLACK
6
CONTINUOUS
10
171.4514790000000062
20
-110.6560389999999927
11
171.4594060000000013
21
-110.6686309999999906
0
LINE
8
BLACK
6
CONTINUOUS
10
171.4594060000000013
20
-110.6686309999999906
11
171.5308349999999962
21
-110.8114869999999996
0
LINE
8
BLACK
6
CONTINUOUS
10
171.5308349999999962
20
-110.8114869999999996
11
171.541343999999981
21
-110.8389509999999945
0
LINE
8
BLACK
6
CONTINUOUS
10
171.541343999999981
20
-110.8389509999999945
11
171.5417249999999854
21
-110.8443249999999978
0
LINE
8
BLACK
6
CONTINUOUS
10
171.5417249999999854
20
-110.8443249999999978
11
171.5437890000000039
21
-110.8493059999999986
0
LINE
8
BLACK
6
CONTINUOUS
10
171.5437890000000039
20
-110.8493059999999986
11
171.5466710000000035
21
-110.8785699999999963
0
LINE
8
BLACK
6
CONTINUOUS
10
171.5466710000000035
20
-110.8785699999999963
11
171.5466710000000035
21
-111.0214269999999885
0
LINE
8
BLACK
6
CONTINUOUS
10
171.5466710000000035
20
-111.0214269999999885
11
171.5437890000000039
21
-111.0506910000000005
0
LINE
8
BLACK
6
CONTINUOUS
10
171.5437890000000039
20
-111.0506910000000005
11
171.5417269999999803
21
-111.0556679999999972
0
LINE
8
BLACK
6
CONTINUOUS
10
171.5417269999999803
20
-111.0556679999999972
11
171.5413449999999784
21
-111.0610459999999904
0
LINE
8
BLACK
6
CONTINUOUS
10
171.5413449999999784
20
-111.0610459999999904
11
171.5308349999999962
21
-111.0885090000000019
0
LINE
8
BLACK
6
CONTINUOUS
10
171.5308349999999962
20
-111.0885090000000019
11
171.4594060000000013
21
-111.2313669999999917
0
LINE
8
BLACK
6
CONTINUOUS
10
171.4594060000000013
20
-111.2313669999999917
11
171.4514790000000062
21
-111.2439579999999921
0
LINE
8
BLACK
6
CONTINUOUS
10
171.4514790000000062
20
-111.2439579999999921
11
171.4499629999999968
21
-111.2476209999999952
0
LINE
8
BLACK
6
CONTINUOUS
10
171.4499629999999968
20
-111.2476209999999952
11
171.4465789999999856
21
-111.2517429999999905
0
LINE
8
BLACK
6
CONTINUOUS
10
171.4465789999999856
20
-111.2517429999999905
11
171.4437409999999886
21
-111.256253000000001
0
LINE
8
BLACK
6
CONTINUOUS
10
171.4437409999999886
20
-111.256253000000001
11
171.440747999999985
21
-111.2588480000000004
0
LINE
8
BLACK
6
CONTINUOUS
10
171.440747999999985
20
-111.2588480000000004
11
171.4313080000000014
21
-111.2703509999999909
0
LINE
8
BLACK
6
CONTINUOUS
10
171.4313080000000014
20
-111.2703509999999909
11
171.359880000000004
21
-111.3417789999999883
0
LINE
8
BLACK
6
CONTINUOUS
10
171.359880000000004
20
-111.3417789999999883
11
171.3483779999999967
21
-111.3512179999999887
0
LINE
8
BLACK
6
CONTINUOUS
10
171.3483779999999967
20
-111.3512179999999887
11
171.3457819999999856
21
-111.3542119999999898
0
LINE
8
BLACK
6
CONTINUOUS
10
171.3457819999999856
20
-111.3542119999999898
11
171.3412679999999852
21
-111.3570519999999959
0
LINE
8
BLACK
6
CONTINUOUS
10
171.3412679999999852
20
-111.3570519999999959
11
171.3371489999999824
21
-111.3604339999999979
0
LINE
8
BLACK
6
CONTINUOUS
10
171.3371489999999824
20
-111.3604339999999979
11
171.3334889999999859
21
-111.3619489999999956
0
LINE
8
BLACK
6
CONTINUOUS
10
171.3334889999999859
20
-111.3619489999999956
11
171.3208960000000047
21
-111.3698769999999882
0
LINE
8
BLACK
6
CONTINUOUS
10
171.3208960000000047
20
-111.3698769999999882
11
171.1780389999999841
21
-111.4413059999999973
0
LINE
8
BLACK
6
CONTINUOUS
10
171.1780389999999841
20
-111.4413059999999973
11
171.1758979999999895
21
-111.4421249999999901
0
LINE
8
BLACK
6
CONTINUOUS
10
171.1758979999999895
20
-111.4421249999999901
11
171.1750279999999975
21
-111.4427699999999959
0
LINE
8
BLACK
6
CONTINUOUS
10
171.1750279999999975
20
-111.4427699999999959
11
171.1627499999999884
21
-111.4471559999999926
0
LINE
8
BLACK
6
CONTINUOUS
10
171.1627499999999884
20
-111.4471559999999926
11
171.1505760000000009
21
-111.4518149999999963
0
LINE
8
BLACK
6
CONTINUOUS
10
171.1505760000000009
20
-111.4518149999999963
11
171.1494950000000017
21
-111.4518909999999892
0
LINE
8
BLACK
6
CONTINUOUS
10
171.1494950000000017
20
-111.4518909999999892
11
171.1473369999999932
21
-111.4526630000000011
0
LINE
8
BLACK
6
CONTINUOUS
10
171.1473369999999932
20
-111.4526630000000011
11
170.8616219999999828
21
-111.5240909999999985
0
LINE
8
BLACK
6
CONTINUOUS
10
170.8616219999999828
20
-111.5240909999999985
11
170.8565499999999986
21
-111.5248399999999975
0
LINE
8
BLACK
6
CONTINUOUS
10
170.8565499999999986
20
-111.5248399999999975
11
170.8545059999999864
21
-111.5256879999999882
0
LINE
8
BLACK
6
CONTINUOUS
10
170.8545059999999864
20
-111.5256879999999882
11
170.843482999999992
21
-111.5267729999999915
0
LINE
8
BLACK
6
CONTINUOUS
10
170.843482999999992
20
-111.5267729999999915
11
170.8325329999999838
21
-111.5283929999999941
0
LINE
8
BLACK
6
CONTINUOUS
10
170.8325329999999838
20
-111.5283929999999941
11
170.8303449999999941
21
-111.528066999999993
0
LINE
8
BLACK
6
CONTINUOUS
10
170.8303449999999941
20
-111.528066999999993
11
170.8252420000000029
21
-111.528570000000002
0
LINE
8
BLACK
6
CONTINUOUS
10
170.8252420000000029
20
-111.528570000000002
11
170.4680999999999926
21
-111.528570000000002
0
LINE
8
BLACK
6
CONTINUOUS
10
170.4680999999999926
20
-111.528570000000002
11
170.462996000000004
21
-111.528066999999993
0
LINE
8
BLACK
6
CONTINUOUS
10
170.462996000000004
20
-111.528066999999993
11
170.4608089999999834
21
-111.5283929999999941
0
LINE
8
BLACK
6
CONTINUOUS
10
170.4608089999999834
20
-111.5283929999999941
11
170.4498580000000061
21
-111.5267729999999915
0
LINE
8
BLACK
6
CONTINUOUS
10
170.4498580000000061
20
-111.5267729999999915
11
170.4388359999999807
21
-111.5256879999999882
0
LINE
8
BLACK
6
CONTINUOUS
10
170.4388359999999807
20
-111.5256879999999882
11
170.4367909999999995
21
-111.5248399999999975
0
LINE
8
BLACK
6
CONTINUOUS
10
170.4367909999999995
20
-111.5248399999999975
11
170.4317199999999843
21
-111.5240909999999985
0
LINE
8
BLACK
6
CONTINUOUS
10
170.4317199999999843
20
-111.5240909999999985
11
170.1460050000000024
21
-111.4526630000000011
0
LINE
8
BLACK
6
CONTINUOUS
10
170.1460050000000024
20
-111.4526630000000011
11
170.1438459999999964
21
-111.4518909999999892
0
LINE
8
BLACK
6
CONTINUOUS
10
170.1438459999999964
20
-111.4518909999999892
11
170.1427659999999946
21
-111.4518149999999963
0
LINE
8
BLACK
6
CONTINUOUS
10
170.1427659999999946
20
-111.4518149999999963
11
170.1305849999999964
21
-111.4471539999999976
0
LINE
8
BLACK
6
CONTINUOUS
10
170.1305849999999964
20
-111.4471539999999976
11
170.118313999999998
21
-111.4427699999999959
0
LINE
8
BLACK
6
CONTINUOUS
10
170.118313999999998
20
-111.4427699999999959
11
170.1174440000000061
21
-111.4421249999999901
0
LINE
8
BLACK
6
CONTINUOUS
10
170.1174440000000061
20
-111.4421249999999901
11
170.1153019999999856
21
-111.4413059999999973
0
LINE
8
BLACK
6
CONTINUOUS
10
170.1153019999999856
20
-111.4413059999999973
11
169.9724459999999908
21
-111.3698769999999882
0
LINE
8
BLACK
6
CONTINUOUS
10
169.9724459999999908
20
-111.3698769999999882
11
169.9598539999999787
21
-111.3619499999999931
0
LINE
8
BLACK
6
CONTINUOUS
10
169.9598539999999787
20
-111.3619499999999931
11
169.9561919999999873
21
-111.3604339999999979
0
LINE
8
BLACK
6
CONTINUOUS
10
169.9561919999999873
20
-111.3604339999999979
11
169.9520689999999945
21
-111.357050000000001
0
LINE
8
BLACK
6
CONTINUOUS
10
169.9520689999999945
20
-111.357050000000001
11
169.9475599999999815
21
-111.3542119999999898
0
LINE
8
BLACK
6
CONTINUOUS
10
169.9475599999999815
20
-111.3542119999999898
11
169.9449639999999988
21
-111.3512190000000004
0
LINE
8
BLACK
6
CONTINUOUS
10
169.9449639999999988
20
-111.3512190000000004
11
169.9334619999999916
21
-111.3417789999999883
0
LINE
8
BLACK
6
CONTINUOUS
10
169.9334619999999916
20
-111.3417789999999883
11
169.8620339999999942
21
-111.2703509999999909
0
LINE
8
BLACK
6
CONTINUOUS
10
169.8620339999999942
20
-111.2703509999999909
11
169.8525939999999821
21
-111.2588489999999979
0
LINE
8
BLACK
6
CONTINUOUS
10
169.8525939999999821
20
-111.2588489999999979
11
169.8496009999999785
21
-111.256253000000001
0
LINE
8
BLACK
6
CONTINUOUS
10
169.8496009999999785
20
-111.256253000000001
11
169.8467599999999891
21
-111.2517390000000006
0
LINE
8
BLACK
6
CONTINUOUS
10
169.8467599999999891
20
-111.2517390000000006
11
169.8433789999999988
21
-111.2476199999999977
0
LINE
8
BLACK
6
CONTINUOUS
10
169.8433789999999988
20
-111.2476199999999977
11
169.8418629999999894
21
-111.2439600000000013
0
LINE
8
BLACK
6
CONTINUOUS
10
169.8418629999999894
20
-111.2439600000000013
11
169.8339359999999942
21
-111.2313669999999917
0
LINE
8
BLACK
6
CONTINUOUS
10
169.8339359999999942
20
-111.2313669999999917
11
169.7625069999999994
21
-111.0885090000000019
0
LINE
8
BLACK
6
CONTINUOUS
10
169.7625069999999994
20
-111.0885090000000019
11
169.7519969999999887
21
-111.0610459999999904
0
LINE
8
BLACK
6
CONTINUOUS
10
169.7519969999999887
20
-111.0610459999999904
11
169.7516139999999893
21
-111.0556679999999972
0
LINE
8
BLACK
6
CONTINUOUS
10
169.7516139999999893
20
-111.0556679999999972
11
169.7495529999999917
21
-111.0506910000000005
0
LINE
8
BLACK
6
CONTINUOUS
10
169.7495529999999917
20
-111.0506910000000005
11
169.7466709999999921
21
-111.0214269999999885
0
LINE
8
BLACK
6
CONTINUOUS
10
169.7466709999999921
20
-111.0214269999999885
11
169.7466709999999921
21
-110.8785699999999963
0
LINE
8
BLACK
6
CONTINUOUS
10
169.7466709999999921
20
-110.8785699999999963
11
169.7495529999999917
21
-110.8493059999999986
0
LINE
8
BLACK
6
CONTINUOUS
10
169.7495529999999917
20
-110.8493059999999986
11
169.7516159999999843
21
-110.8443249999999978
0
LINE
8
BLACK
6
CONTINUOUS
10
169.7516159999999843
20
-110.8443249999999978
11
169.7519979999999862
21
-110.8389509999999945
0
LINE
8
BLACK
6
CONTINUOUS
10
169.7519979999999862
20
-110.8389509999999945
11
169.7625069999999994
21
-110.8114879999999971
0
LINE
8
BLACK
6
CONTINUOUS
10
169.7625069999999994
20
-110.8114879999999971
11
169.8339359999999942
21
-110.6686309999999906
0
LINE
8
BLACK
6
CONTINUOUS
10
169.8339359999999942
20
-110.6686309999999906
11
169.8418629999999894
21
-110.6560369999999978
0
LINE
8
BLACK
6
CONTINUOUS
10
169.8418629999999894
20
-110.6560369999999978
11
169.8433789999999988
21
-110.6523779999999988
0
LINE
8
BLACK
6
CONTINUOUS
10
169.8433789999999988
20
-110.6523779999999988
11
169.8467599999999891
21
-110.6482579999999984
0
LINE
8
BLACK
6
CONTINUOUS
10
169.8467599999999891
20
-110.6482579999999984
11
169.8496009999999785
21
-110.6437449999999956
0
LINE
8
BLACK
6
CONTINUOUS
10
169.8496009999999785
20
-110.6437449999999956
11
169.8525939999999821
21
-110.6411480000000012
0
LINE
8
BLACK
6
CONTINUOUS
10
169.8525939999999821
20
-110.6411480000000012
11
169.8620339999999942
21
-110.6296469999999914
0
LINE
8
BLACK
6
CONTINUOUS
10
169.8620339999999942
20
-110.6296469999999914
11
169.9334619999999916
21
-110.558218999999994
0
LINE
8
BLACK
6
CONTINUOUS
10
169.9334619999999916
20
-110.558218999999994
11
169.9449639999999988
21
-110.5487779999999987
0
LINE
8
BLACK
6
CONTINUOUS
10
169.9449639999999988
20
-110.5487779999999987
11
169.9475599999999815
21
-110.5457859999999926
0
LINE
8
BLACK
6
CONTINUOUS
10
169.9475599999999815
20
-110.5457859999999926
11
169.9520689999999945
21
-110.5429469999999981
0
LINE
8
BLACK
6
CONTINUOUS
10
169.9520689999999945
20
-110.5429469999999981
11
169.9561919999999873
21
-110.5395639999999986
0
LINE
8
BLACK
6
CONTINUOUS
10
169.9561919999999873
20
-110.5395639999999986
11
169.9598539999999787
21
-110.5380469999999917
0
LINE
8
BLACK
6
CONTINUOUS
10
169.9598539999999787
20
-110.5380469999999917
11
169.9724459999999908
21
-110.5301209999999941
0
LINE
8
BLACK
6
CONTINUOUS
10
169.9724459999999908
20
-110.5301209999999941
11
170.1153019999999856
21
-110.4586919999999992
0
LINE
8
BLACK
6
CONTINUOUS
10
170.1153019999999856
20
-110.4586919999999992
11
170.1174419999999827
21
-110.4578719999999947
0
LINE
8
BLACK
6
CONTINUOUS
10
170.1174419999999827
20
-110.4578719999999947
11
170.1183130000000006
21
-110.4572280000000006
0
LINE
8
BLACK
6
CONTINUOUS
10
170.1183130000000006
20
-110.4572280000000006
11
170.1305919999999787
21
-110.4528399999999948
0
LINE
8
BLACK
6
CONTINUOUS
10
170.1305919999999787
20
-110.4528399999999948
11
170.1427659999999946
21
-110.4481830000000002
0
LINE
8
BLACK
6
CONTINUOUS
10
170.1427659999999946
20
-110.4481830000000002
11
170.1438459999999964
21
-110.4481059999999957
0
LINE
8
BLACK
6
CONTINUOUS
10
170.1438459999999964
20
-110.4481059999999957
11
170.1460050000000024
21
-110.4473349999999954
0
LINE
8
BLACK
6
CONTINUOUS
10
170.1460050000000024
20
-110.4473349999999954
11
170.4317189999999869
21
-110.3759060000000005
0
LINE
8
BLACK
6
CONTINUOUS
10
170.4317189999999869
20
-110.3759060000000005
11
170.4367909999999995
21
-110.3751549999999924
0
LINE
8
BLACK
6
CONTINUOUS
10
170.4367909999999995
20
-110.3751549999999924
11
170.4388359999999807
21
-110.3743089999999967
0
LINE
8
BLACK
6
CONTINUOUS
10
170.4388359999999807
20
-110.3743089999999967
11
170.4498549999999852
21
-110.3732229999999959
0
LINE
8
BLACK
6
CONTINUOUS
10
170.4498549999999852
20
-110.3732229999999959
11
170.4608079999999859
21
-110.3716039999999907
0
LINE
8
BLACK
6
CONTINUOUS
10
170.4608079999999859
20
-110.3716039999999907
11
170.462996000000004
21
-110.3719289999999944
0
LINE
8
BLACK
6
CONTINUOUS
10
170.462996000000004
20
-110.3719289999999944
11
170.4680999999999926
21
-110.3714269999999971
0
LINE
8
BLACK
6
CONTINUOUS
10
170.4680999999999926
20
-110.3714269999999971
11
170.8252420000000029
21
-110.3714269999999971
0
LINE
8
BLACK
6
CONTINUOUS
10
170.8252420000000029
20
-110.3714269999999971
11
170.8303449999999941
21
-110.3719289999999944
0
LINE
8
BLACK
6
CONTINUOUS
10
170.2347409999999854
20
-110.7343819999999965
11
170.1283819999999878
21
-110.7875619999999941
0
LINE
8
BLACK
6
CONTINUOUS
10
170.1283819999999878
20
-110.7875619999999941
11
170.0913779999999917
21
-110.8245659999999901
0
LINE
8
BLACK
6
CONTINUOUS
10
170.0913779999999917
20
-110.8245659999999901
11
170.0466710000000035
21
-110.9139799999999951
0
LINE
8
BLACK
6
CONTINUOUS
10
170.0466710000000035
20
-110.9139799999999951
11
170.0466710000000035
21
-110.9860169999999897
0
LINE
8
BLACK
6
CONTINUOUS
10
170.0466710000000035
20
-110.9860169999999897
11
170.0913779999999917
21
-111.0754309999999947
0
LINE
8
BLACK
6
CONTINUOUS
10
170.0913779999999917
20
-111.0754309999999947
11
170.1283819999999878
21
-111.1124349999999907
0
LINE
8
BLACK
6
CONTINUOUS
10
170.1283819999999878
20
-111.1124349999999907
11
170.2347409999999854
21
-111.1656139999999908
0
LINE
8
BLACK
6
CONTINUOUS
10
170.2347409999999854
20
-111.1656139999999908
11
170.4865639999999871
21
-111.2285699999999906
0
LINE
8
BLACK
6
CONTINUOUS
10
170.4865639999999871
20
-111.2285699999999906
11
170.80677799999998
21
-111.2285699999999906
0
LINE
8
BLACK
6
CONTINUOUS
10
170.80677799999998
20
-111.2285699999999906
11
171.0585999999999842
21
-111.1656149999999883
0
LINE
8
BLACK
6
CONTINUOUS
10
171.0585999999999842
20
-111.1656149999999883
11
171.1649599999999793
21
-111.1124339999999933
0
LINE
8
BLACK
6
CONTINUOUS
10
171.1649599999999793
20
-111.1124339999999933
11
171.2019640000000038
21
-111.0754309999999947
0
LINE
8
BLACK
6
CONTINUOUS
10
171.2019640000000038
20
-111.0754309999999947
11
171.2466709999999921
21
-110.9860169999999897
0
LINE
8
BLACK
6
CONTINUOUS
10
171.2466709999999921
20
-110.9860169999999897
11
171.2466709999999921
21
-110.9139799999999951
0
LINE
8
BLACK
6
CONTINUOUS
10
171.2466709999999921
20
-110.9139799999999951
11
171.2019640000000038
21
-110.8245670000000018
0
LINE
8
BLACK
6
CONTINUOUS
10
171.2019640000000038
20
-110.8245670000000018
11
171.1649599999999793
21
-110.7875629999999916
0
LINE
8
BLACK
6
CONTINUOUS
10
171.1649599999999793
20
-110.7875629999999916
11
171.0586009999999817
21
-110.734382999999994
0
LINE
8
BLACK
6
CONTINUOUS
10
171.0586009999999817
20
-110.734382999999994
11
170.80677799999998
21
-110.6714269999999942
0
LINE
8
BLACK
6
CONTINUOUS
10
170.80677799999998
20
-110.6714269999999942
11
170.4865639999999871
21
-110.6714269999999942
0
LINE
8
BLACK
6
CONTINUOUS
10
170.4865639999999871
20
-110.6714269999999942
11
170.2347409999999854
21
-110.7343819999999965
0
LINE
8
BLACK
6
CONTINUOUS
10
170.0197609999999884
20
-109.6693009999999902
11
170.0514349999999979
21
-109.6824209999999908
0
LINE
8
BLACK
6
CONTINUOUS
10
170.0514349999999979
20
-109.6824209999999908
11
170.0514359999999954
21
-109.6824219999999883
0
LINE
8
BLACK
6
CONTINUOUS
10
170.0514359999999954
20
-109.6824219999999883
11
170.0741669999999885
21
-109.701076999999998
0
LINE
8
BLACK
6
CONTINUOUS
10
170.0741669999999885
20
-109.701076999999998
11
170.1455949999999859
21
-109.7725059999999928
0
LINE
8
BLACK
6
CONTINUOUS
10
170.1455949999999859
20
-109.7725059999999928
11
170.1642489999999839
21
-109.7952359999999885
0
LINE
8
BLACK
6
CONTINUOUS
10
170.1642489999999839
20
-109.7952359999999885
11
170.1642489999999839
21
-109.7952370000000002
0
LINE
8
BLACK
6
CONTINUOUS
10
170.1642489999999839
20
-109.7952370000000002
11
170.1866459999999961
21
-109.849306999999996
0
LINE
8
BLACK
6
CONTINUOUS
10
170.1866459999999961
20
-109.849306999999996
11
170.1866459999999961
21
-109.9078349999999915
0
LINE
8
BLACK
6
CONTINUOUS
10
170.1866459999999961
20
-109.9078349999999915
11
170.1735249999999837
21
-109.939509000000001
0
LINE
8
BLACK
6
CONTINUOUS
10
170.1735249999999837
20
-109.939509000000001
11
170.1642489999999839
21
-109.9619069999999965
0
LINE
8
BLACK
6
CONTINUOUS
10
170.1642489999999839
20
-109.9619069999999965
11
170.1455939999999885
21
-109.9846369999999922
0
LINE
8
BLACK
6
CONTINUOUS
10
170.1455939999999885
20
-109.9846369999999922
11
170.0741659999999911
21
-110.0560649999999896
0
LINE
8
BLACK
6
CONTINUOUS
10
170.0741659999999911
20
-110.0560649999999896
11
170.0514349999999979
21
-110.0747199999999992
0
LINE
8
BLACK
6
CONTINUOUS
10
170.0514349999999979
20
-110.0747199999999992
11
169.9973629999999787
21
-110.0971169999999972
0
LINE
8
BLACK
6
CONTINUOUS
10
169.9973629999999787
20
-110.0971169999999972
11
169.9388380000000041
21
-110.0971169999999972
0
LINE
8
BLACK
6
CONTINUOUS
10
169.9388380000000041
20
-110.0971169999999972
11
169.9388369999999782
21
-110.0971169999999972
0
LINE
8
BLACK
6
CONTINUOUS
10
169.9388369999999782
20
-110.0971169999999972
11
169.8847649999999874
21
-110.0747199999999992
0
LINE
8
BLACK
6
CONTINUOUS
10
169.8847649999999874
20
-110.0747199999999992
11
169.8847639999999899
21
-110.0747190000000018
0
LINE
8
BLACK
6
CONTINUOUS
10
169.8847639999999899
20
-110.0747190000000018
11
169.8620349999999917
21
-110.0560660000000013
0
LINE
8
BLACK
6
CONTINUOUS
10
169.8620349999999917
20
-110.0560660000000013
11
169.7906059999999968
21
-109.9846379999999897
0
LINE
8
BLACK
6
CONTINUOUS
10
169.7906059999999968
20
-109.9846379999999897
11
169.7719510000000014
21
-109.9619069999999965
0
LINE
8
BLACK
6
CONTINUOUS
10
169.7719510000000014
20
-109.9619069999999965
11
169.7719500000000039
21
-109.961905999999999
0
LINE
8
BLACK
6
CONTINUOUS
10
169.7719500000000039
20
-109.961905999999999
11
169.7517789999999991
21
-109.9132079999999974
0
LINE
8
BLACK
6
CONTINUOUS
10
169.7517789999999991
20
-109.9132079999999974
11
169.7495529999999917
21
-109.9078349999999915
0
LINE
8
BLACK
6
CONTINUOUS
10
169.7495529999999917
20
-109.9078349999999915
11
169.7495529999999917
21
-109.849308999999991
0
LINE
8
BLACK
6
CONTINUOUS
10
169.7495529999999917
20
-109.849308999999991
11
169.7495529999999917
21
-109.8493079999999935
0
LINE
8
BLACK
6
CONTINUOUS
10
169.7495529999999917
20
-109.8493079999999935
11
169.7495529999999917
21
-109.849306999999996
0
LINE
8
BLACK
6
CONTINUOUS
10
169.7495529999999917
20
-109.849306999999996
11
169.7719500000000039
21
-109.7952370000000002
0
LINE
8
BLACK
6
CONTINUOUS
10
169.7719500000000039
20
-109.7952370000000002
11
169.7719500000000039
21
-109.7952359999999885
0
LINE
8
BLACK
6
CONTINUOUS
10
169.7719500000000039
20
-109.7952359999999885
11
169.7906049999999993
21
-109.7725049999999953
0
LINE
8
BLACK
6
CONTINUOUS
10
169.7906049999999993
20
-109.7725049999999953
11
169.8620339999999942
21
-109.7010760000000005
0
LINE
8
BLACK
6
CONTINUOUS
10
169.8620339999999942
20
-109.7010760000000005
11
169.8847649999999874
21
-109.6824209999999908
0
LINE
8
BLACK
6
CONTINUOUS
10
169.8847649999999874
20
-109.6824209999999908
11
169.9388369999999782
21
-109.6600239999999928
0
LINE
8
BLACK
6
CONTINUOUS
10
169.9388369999999782
20
-109.6600239999999928
11
169.9973629999999787
21
-109.6600239999999928
0
LINE
8
BLACK
6
CONTINUOUS
10
169.9973629999999787
20
-109.6600239999999928
11
169.9973640000000046
21
-109.6600239999999928
0
LINE
8
BLACK
6
CONTINUOUS
10
169.9973640000000046
20
-109.6600239999999928
11
170.0197609999999884
21
-109.6693009999999902
0
LINE
8
BLACK
6
CONTINUOUS
10
170.568792000000002
20
-108.2314519999999902
11
170.5737719999999911
21
-108.233514999999997
0
LINE
8
BLACK
6
CONTINUOUS
10
170.5737719999999911
20
-108.233514999999997
11
170.5791470000000061
21
-108.2338969999999989
0
LINE
8
BLACK
6
CONTINUOUS
10
170.5791470000000061
20
-108.2338969999999989
11
170.6066099999999892
21
-108.2444059999999979
0
LINE
8
BLACK
6
CONTINUOUS
10
170.6066099999999892
20
-108.2444059999999979
11
170.7494669999999815
21
-108.3158349999999928
0
LINE
8
BLACK
6
CONTINUOUS
10
170.7494669999999815
20
-108.3158349999999928
11
170.7620599999999911
21
-108.3237620000000021
0
LINE
8
BLACK
6
CONTINUOUS
10
170.7620599999999911
20
-108.3237620000000021
11
170.7657199999999875
21
-108.3252779999999973
0
LINE
8
BLACK
6
CONTINUOUS
10
170.7657199999999875
20
-108.3252779999999973
11
170.7698389999999904
21
-108.3286590000000018
0
LINE
8
BLACK
6
CONTINUOUS
10
170.7698389999999904
20
-108.3286590000000018
11
170.7743529999999907
21
-108.3314999999999912
0
LINE
8
BLACK
6
CONTINUOUS
10
170.7743529999999907
20
-108.3314999999999912
11
170.7769490000000019
21
-108.3344929999999948
0
LINE
8
BLACK
6
CONTINUOUS
10
170.7769490000000019
20
-108.3344929999999948
11
170.7884509999999807
21
-108.3439329999999927
0
LINE
8
BLACK
6
CONTINUOUS
10
170.7884509999999807
20
-108.3439329999999927
11
170.859880000000004
21
-108.4153620000000018
0
LINE
8
BLACK
6
CONTINUOUS
10
170.859880000000004
20
-108.4153620000000018
11
170.8693209999999851
21
-108.4268659999999898
0
LINE
8
BLACK
6
CONTINUOUS
10
170.8693209999999851
20
-108.4268659999999898
11
170.8723129999999912
21
-108.4294609999999892
0
LINE
8
BLACK
6
CONTINUOUS
10
170.8723129999999912
20
-108.4294609999999892
11
170.8751509999999882
21
-108.4339700000000022
0
LINE
8
BLACK
6
CONTINUOUS
10
170.8751509999999882
20
-108.4339700000000022
11
170.8785349999999994
21
-108.438092999999995
0
LINE
8
BLACK
6
CONTINUOUS
10
170.8785349999999994
20
-108.438092999999995
11
170.8800509999999804
21
-108.4417539999999889
0
LINE
8
BLACK
6
CONTINUOUS
10
170.8800509999999804
20
-108.4417539999999889
11
170.8879780000000039
21
-108.454346000000001
0
LINE
8
BLACK
6
CONTINUOUS
10
170.8879780000000039
20
-108.454346000000001
11
170.9594060000000013
21
-108.5972039999999907
0
LINE
8
BLACK
6
CONTINUOUS
10
170.9594060000000013
20
-108.5972039999999907
11
170.9699159999999836
21
-108.6246669999999881
0
LINE
8
BLACK
6
CONTINUOUS
10
170.9699159999999836
20
-108.6246669999999881
11
170.970296999999988
21
-108.6300419999999889
0
LINE
8
BLACK
6
CONTINUOUS
10
170.970296999999988
20
-108.6300419999999889
11
170.9723599999999806
21
-108.6350209999999947
0
LINE
8
BLACK
6
CONTINUOUS
10
170.9723599999999806
20
-108.6350209999999947
11
170.9752419999999802
21
-108.6642849999999925
0
LINE
8
BLACK
6
CONTINUOUS
10
170.9752419999999802
20
-108.6642849999999925
11
170.9752419999999802
21
-109.0214280000000002
0
LINE
8
BLACK
6
CONTINUOUS
10
170.9752419999999802
20
-109.0214280000000002
11
170.9723599999999806
21
-109.050691999999998
0
LINE
8
BLACK
6
CONTINUOUS
10
170.9723599999999806
20
-109.050691999999998
11
170.970296999999988
21
-109.0556699999999921
0
LINE
8
BLACK
6
CONTINUOUS
10
170.970296999999988
20
-109.0556699999999921
11
170.9702609999999936
21
-109.056176999999991
0
LINE
8
BLACK
6
CONTINUOUS
10
170.9702609999999936
20
-109.056176999999991
11
171.2466709999999921
21
-109.0285359999999883
0
LINE
8
BLACK
6
CONTINUOUS
10
171.2466709999999921
20
-109.0285359999999883
11
171.2466709999999921
21
-108.4499989999999912
0
LINE
8
BLACK
6
CONTINUOUS
10
171.2466709999999921
20
-108.4499989999999912
11
171.2495529999999917
21
-108.4207349999999934
0
LINE
8
BLACK
6
CONTINUOUS
10
171.2495529999999917
20
-108.4207349999999934
11
171.2719510000000014
21
-108.3666629999999884
0
LINE
8
BLACK
6
CONTINUOUS
10
171.2719510000000014
20
-108.3666629999999884
11
171.313334999999995
21
-108.3252789999999948
0
LINE
8
BLACK
6
CONTINUOUS
10
171.313334999999995
20
-108.3252789999999948
11
171.3674069999999858
21
-108.3028809999999993
0
LINE
8
BLACK
6
CONTINUOUS
10
171.3674069999999858
20
-108.3028809999999993
11
171.4259349999999813
21
-108.3028809999999993
0
LINE
8
BLACK
6
CONTINUOUS
10
171.4259349999999813
20
-108.3028809999999993
11
171.4800070000000005
21
-108.3252789999999948
0
LINE
8
BLACK
6
CONTINUOUS
10
171.4800070000000005
20
-108.3252789999999948
11
171.5213909999999942
21
-108.3666629999999884
0
LINE
8
BLACK
6
CONTINUOUS
10
171.5213909999999942
20
-108.3666629999999884
11
171.5437890000000039
21
-108.4207349999999934
0
LINE
8
BLACK
6
CONTINUOUS
10
171.5437890000000039
20
-108.4207349999999934
11
171.5466710000000035
21
-108.4499989999999912
0
LINE
8
BLACK
6
CONTINUOUS
10
171.5466710000000035
20
-108.4499989999999912
11
171.5466710000000035
21
-109.1642849999999925
0
LINE
8
BLACK
6
CONTINUOUS
10
171.5466710000000035
20
-109.1642849999999925
11
171.5456039999999973
21
-109.1751110000000011
0
LINE
8
BLACK
6
CONTINUOUS
10
171.5456039999999973
20
-109.1751110000000011
11
171.5459699999999827
21
-109.1787649999999985
0
LINE
8
BLACK
6
CONTINUOUS
10
171.5459699999999827
20
-109.1787649999999985
11
171.5448930000000018
21
-109.1823319999999882
0
LINE
8
BLACK
6
CONTINUOUS
10
171.5448930000000018
20
-109.1823319999999882
11
171.5437890000000039
21
-109.1935489999999902
0
LINE
8
BLACK
6
CONTINUOUS
10
171.5437890000000039
20
-109.1935489999999902
11
171.5353949999999941
21
-109.2138109999999926
0
LINE
8
BLACK
6
CONTINUOUS
10
171.5353949999999941
20
-109.2138109999999926
11
171.5290640000000053
21
-109.2347970000000004
0
LINE
8
BLACK
6
CONTINUOUS
10
171.5290640000000053
20
-109.2347970000000004
11
171.5242819999999995
21
-109.2406409999999966
0
LINE
8
BLACK
6
CONTINUOUS
10
171.5242819999999995
20
-109.2406409999999966
11
171.5213909999999942
21
-109.2476209999999952
0
LINE
8
BLACK
6
CONTINUOUS
10
171.5213909999999942
20
-109.2476209999999952
11
171.5058850000000064
21
-109.2631259999999997
0
LINE
8
BLACK
6
CONTINUOUS
10
171.5058850000000064
20
-109.2631259999999997
11
171.4920029999999826
21
-109.2800939999999912
0
LINE
8
BLACK
6
CONTINUOUS
10
171.4920029999999826
20
-109.2800939999999912
11
171.4853469999999902
21
-109.2836640000000017
0
LINE
8
BLACK
6
CONTINUOUS
10
171.4853469999999902
20
-109.2836640000000017
11
171.4800070000000005
21
-109.2890049999999889
0
LINE
8
BLACK
6
CONTINUOUS
10
171.4800070000000005
20
-109.2890049999999889
11
171.459748999999988
21
-109.297395999999992
0
LINE
8
BLACK
6
CONTINUOUS
10
171.459748999999988
20
-109.297395999999992
11
171.4404279999999972
21
-109.3077609999999993
0
LINE
8
BLACK
6
CONTINUOUS
10
171.4404279999999972
20
-109.3077609999999993
11
171.4293799999999806
21
-109.3099749999999943
0
LINE
8
BLACK
6
CONTINUOUS
10
171.4293799999999806
20
-109.3099749999999943
11
171.4259349999999813
21
-109.3114029999999985
0
LINE
8
BLACK
6
CONTINUOUS
10
171.4259349999999813
20
-109.3114029999999985
11
171.4222609999999918
21
-109.3114029999999985
0
LINE
8
BLACK
6
CONTINUOUS
10
171.4222609999999918
20
-109.3114029999999985
11
171.411596000000003
21
-109.3135410000000007
0
LINE
8
BLACK
6
CONTINUOUS
10
171.411596000000003
20
-109.3135410000000007
11
170.6973099999999874
21
-109.3849689999999981
0
LINE
8
BLACK
6
CONTINUOUS
10
170.6973099999999874
20
-109.3849689999999981
11
170.6679049999999904
21
-109.3850130000000007
0
LINE
8
BLACK
6
CONTINUOUS
10
170.6679049999999904
20
-109.3850130000000007
11
170.6606740000000002
21
-109.3828309999999959
0
LINE
8
BLACK
6
CONTINUOUS
10
170.6606740000000002
20
-109.3828309999999959
11
170.6531209999999987
21
-109.3828309999999959
0
LINE
8
BLACK
6
CONTINUOUS
10
170.6531209999999987
20
-109.3828309999999959
11
170.6328609999999912
21
-109.3744389999999953
0
LINE
8
BLACK
6
CONTINUOUS
10
170.6328609999999912
20
-109.3744389999999953
11
170.6118730000000028
21
-109.3681059999999974
0
LINE
8
BLACK
6
CONTINUOUS
10
170.6118730000000028
20
-109.3681059999999974
11
170.6060279999999807
21
-109.3633239999999915
0
LINE
8
BLACK
6
CONTINUOUS
10
170.6060279999999807
20
-109.3633239999999915
11
170.5990489999999795
21
-109.3604330000000004
0
LINE
8
BLACK
6
CONTINUOUS
10
170.5990489999999795
20
-109.3604330000000004
11
170.5835449999999867
21
-109.3449279999999959
0
LINE
8
BLACK
6
CONTINUOUS
10
170.5835449999999867
20
-109.3449279999999959
11
170.5665759999999977
21
-109.3310449999999889
0
LINE
8
BLACK
6
CONTINUOUS
10
170.5665759999999977
20
-109.3310449999999889
11
170.5630039999999781
21
-109.324387999999999
0
LINE
8
BLACK
6
CONTINUOUS
10
170.5630039999999781
20
-109.324387999999999
11
170.5576639999999884
21
-109.3190469999999976
0
LINE
8
BLACK
6
CONTINUOUS
10
170.5576639999999884
20
-109.3190469999999976
11
170.5492739999999969
21
-109.2987919999999917
0
LINE
8
BLACK
6
CONTINUOUS
10
170.5492739999999969
20
-109.2987919999999917
11
170.5389089999999896
21
-109.2794699999999892
0
LINE
8
BLACK
6
CONTINUOUS
10
170.5389089999999896
20
-109.2794699999999892
11
170.538156999999984
21
-109.2719519999999989
0
LINE
8
BLACK
6
CONTINUOUS
10
170.538156999999984
20
-109.2719519999999989
11
170.5352670000000046
21
-109.2649749999999926
0
LINE
8
BLACK
6
CONTINUOUS
10
170.5352670000000046
20
-109.2649749999999926
11
170.5352670000000046
21
-109.2430509999999941
0
LINE
8
BLACK
6
CONTINUOUS
10
170.5352670000000046
20
-109.2430509999999941
11
170.5330849999999998
21
-109.221232999999998
0
LINE
8
BLACK
6
CONTINUOUS
10
170.5330849999999998
20
-109.221232999999998
11
170.5352670000000046
21
-109.2140009999999961
0
LINE
8
BLACK
6
CONTINUOUS
10
170.5352670000000046
20
-109.2140009999999961
11
170.5352670000000046
21
-109.2064489999999921
0
LINE
8
BLACK
6
CONTINUOUS
10
170.5352670000000046
20
-109.2064489999999921
11
170.5436579999999935
21
-109.1861889999999988
0
LINE
8
BLACK
6
CONTINUOUS
10
170.5436579999999935
20
-109.1861889999999988
11
170.5499920000000031
21
-109.1652009999999962
0
LINE
8
BLACK
6
CONTINUOUS
10
170.5499920000000031
20
-109.1652009999999962
11
170.5547729999999831
21
-109.1593559999999883
0
LINE
8
BLACK
6
CONTINUOUS
10
170.5547729999999831
20
-109.1593559999999883
11
170.5576649999999859
21
-109.1523770000000013
0
LINE
8
BLACK
6
CONTINUOUS
10
170.5576649999999859
20
-109.1523770000000013
11
170.5763199999999813
21
-109.1296459999999939
0
LINE
8
BLACK
6
CONTINUOUS
10
170.5763199999999813
20
-109.1296459999999939
11
170.6305360000000064
21
-109.0754299999999972
0
LINE
8
BLACK
6
CONTINUOUS
10
170.6305360000000064
20
-109.0754299999999972
11
170.6752419999999972
21
-108.9860180000000014
0
LINE
8
BLACK
6
CONTINUOUS
10
170.6752419999999972
20
-108.9860180000000014
11
170.6752419999999972
21
-108.6996939999999938
0
LINE
8
BLACK
6
CONTINUOUS
10
170.6752419999999972
20
-108.6996939999999938
11
170.6305349999999805
21
-108.6102810000000005
0
LINE
8
BLACK
6
CONTINUOUS
10
170.6305349999999805
20
-108.6102810000000005
11
170.5935309999999845
21
-108.5732769999999903
0
LINE
8
BLACK
6
CONTINUOUS
10
170.5935309999999845
20
-108.5732769999999903
11
170.5041180000000054
21
-108.528570000000002
0
LINE
8
BLACK
6
CONTINUOUS
10
170.5041180000000054
20
-108.528570000000002
11
170.2177949999999953
21
-108.528570000000002
0
LINE
8
BLACK
6
CONTINUOUS
10
170.2177949999999953
20
-108.528570000000002
11
170.1283819999999878
21
-108.5732759999999928
0
LINE
8
BLACK
6
CONTINUOUS
10
170.1283819999999878
20
-108.5732759999999928
11
170.0913779999999917
21
-108.6102799999999888
0
LINE
8
BLACK
6
CONTINUOUS
10
170.0913779999999917
20
-108.6102799999999888
11
170.0466710000000035
21
-108.6996949999999913
0
LINE
8
BLACK
6
CONTINUOUS
10
170.0466710000000035
20
-108.6996949999999913
11
170.0466710000000035
21
-108.9860169999999897
0
LINE
8
BLACK
6
CONTINUOUS
10
170.0466710000000035
20
-108.9860169999999897
11
170.0913779999999917
21
-109.0754309999999947
0
LINE
8
BLACK
6
CONTINUOUS
10
170.0913779999999917
20
-109.0754309999999947
11
170.1455939999999885
21
-109.1296469999999914
0
LINE
8
BLACK
6
CONTINUOUS
10
170.1455939999999885
20
-109.1296469999999914
11
170.1642489999999839
21
-109.1523770000000013
0
LINE
8
BLACK
6
CONTINUOUS
10
170.1642489999999839
20
-109.1523770000000013
11
170.1866449999999986
21
-109.2064499999999896
0
LINE
8
BLACK
6
CONTINUOUS
10
170.1866449999999986
20
-109.2064499999999896
11
170.1866449999999986
21
-109.2649759999999901
0
LINE
8
BLACK
6
CONTINUOUS
10
170.1866449999999986
20
-109.2649759999999901
11
170.1642489999999839
21
-109.3190479999999951
0
LINE
8
BLACK
6
CONTINUOUS
10
170.1642489999999839
20
-109.3190479999999951
11
170.1228629999999953
21
-109.3604339999999979
0
LINE
8
BLACK
6
CONTINUOUS
10
170.1228629999999953
20
-109.3604339999999979
11
170.0687910000000045
21
-109.3828299999999984
0
LINE
8
BLACK
6
CONTINUOUS
10
170.0687910000000045
20
-109.3828299999999984
11
170.010265000000004
21
-109.3828299999999984
0
LINE
8
BLACK
6
CONTINUOUS
10
170.010265000000004
20
-109.3828299999999984
11
169.9561919999999873
21
-109.3604339999999979
0
LINE
8
BLACK
6
CONTINUOUS
10
169.9561919999999873
20
-109.3604339999999979
11
169.9334619999999916
21
-109.3417789999999883
0
LINE
8
BLACK
6
CONTINUOUS
10
169.9334619999999916
20
-109.3417789999999883
11
169.8620339999999942
21
-109.2703509999999909
0
LINE
8
BLACK
6
CONTINUOUS
10
169.8620339999999942
20
-109.2703509999999909
11
169.8525939999999821
21
-109.2588489999999979
0
LINE
8
BLACK
6
CONTINUOUS
10
169.8525939999999821
20
-109.2588489999999979
11
169.8496009999999785
21
-109.256253000000001
0
LINE
8
BLACK
6
CONTINUOUS
10
169.8496009999999785
20
-109.256253000000001
11
169.8467599999999891
21
-109.2517390000000006
0
LINE
8
BLACK
6
CONTINUOUS
10
169.8467599999999891
20
-109.2517390000000006
11
169.8433789999999988
21
-109.2476199999999977
0
LINE
8
BLACK
6
CONTINUOUS
10
169.8433789999999988
20
-109.2476199999999977
11
169.8418629999999894
21
-109.2439600000000013
0
LINE
8
BLACK
6
CONTINUOUS
10
169.8418629999999894
20
-109.2439600000000013
11
169.8339359999999942
21
-109.2313669999999917
0
LINE
8
BLACK
6
CONTINUOUS
10
169.8339359999999942
20
-109.2313669999999917
11
169.7625069999999994
21
-109.0885099999999994
0
LINE
8
BLACK
6
CONTINUOUS
10
169.7625069999999994
20
-109.0885099999999994
11
169.7519979999999862
21
-109.0610470000000021
0
LINE
8
BLACK
6
CONTINUOUS
10
169.7519979999999862
20
-109.0610470000000021
11
169.7516159999999843
21
-109.0556720000000013
0
LINE
8
BLACK
6
CONTINUOUS
10
169.7516159999999843
20
-109.0556720000000013
11
169.7495529999999917
21
-109.050691999999998
0
LINE
8
BLACK
6
CONTINUOUS
10
169.7495529999999917
20
-109.050691999999998
11
169.7466709999999921
21
-109.0214280000000002
0
LINE
8
BLACK
6
CONTINUOUS
10
169.7466709999999921
20
-109.0214280000000002
11
169.7466709999999921
21
-108.6642849999999925
0
LINE
8
BLACK
6
CONTINUOUS
10
169.7466709999999921
20
-108.6642849999999925
11
169.7495529999999917
21
-108.6350209999999947
0
LINE
8
BLACK
6
CONTINUOUS
10
169.7495529999999917
20
-108.6350209999999947
11
169.7516159999999843
21
-108.6300399999999939
0
LINE
8
BLACK
6
CONTINUOUS
10
169.7516159999999843
20
-108.6300399999999939
11
169.7519979999999862
21
-108.6246659999999906
0
LINE
8
BLACK
6
CONTINUOUS
10
169.7519979999999862
20
-108.6246659999999906
11
169.7625069999999994
21
-108.5972029999999933
0
LINE
8
BLACK
6
CONTINUOUS
10
169.7625069999999994
20
-108.5972029999999933
11
169.8339359999999942
21
-108.454346000000001
0
LINE
8
BLACK
6
CONTINUOUS
10
169.8339359999999942
20
-108.454346000000001
11
169.8418639999999868
21
-108.441749999999999
0
LINE
8
BLACK
6
CONTINUOUS
10
169.8418639999999868
20
-108.441749999999999
11
169.8433789999999988
21
-108.4380939999999924
0
LINE
8
BLACK
6
CONTINUOUS
10
169.8433789999999988
20
-108.4380939999999924
11
169.8467579999999941
21
-108.4339760000000012
0
LINE
8
BLACK
6
CONTINUOUS
10
169.8467579999999941
20
-108.4339760000000012
11
169.8496009999999785
21
-108.4294599999999917
0
LINE
8
BLACK
6
CONTINUOUS
10
169.8496009999999785
20
-108.4294599999999917
11
169.8525949999999796
21
-108.4268619999999999
0
LINE
8
BLACK
6
CONTINUOUS
10
169.8525949999999796
20
-108.4268619999999999
11
169.8620329999999967
21
-108.4153629999999993
0
LINE
8
BLACK
6
CONTINUOUS
10
169.8620329999999967
20
-108.4153629999999993
11
169.9334609999999941
21
-108.3439339999999902
0
LINE
8
BLACK
6
CONTINUOUS
10
169.9334609999999941
20
-108.3439339999999902
11
169.9449620000000039
21
-108.3344939999999923
0
LINE
8
BLACK
6
CONTINUOUS
10
169.9449620000000039
20
-108.3344939999999923
11
169.9475599999999815
21
-108.3314999999999912
0
LINE
8
BLACK
6
CONTINUOUS
10
169.9475599999999815
20
-108.3314999999999912
11
169.9520739999999819
21
-108.3286579999999901
0
LINE
8
BLACK
6
CONTINUOUS
10
169.9520739999999819
20
-108.3286579999999901
11
169.9561919999999873
21
-108.3252789999999948
0
LINE
8
BLACK
6
CONTINUOUS
10
169.9561919999999873
20
-108.3252789999999948
11
169.9598489999999913
21
-108.3237629999999996
0
LINE
8
BLACK
6
CONTINUOUS
10
169.9598489999999913
20
-108.3237629999999996
11
169.9724459999999908
21
-108.3158349999999928
0
LINE
8
BLACK
6
CONTINUOUS
10
169.9724459999999908
20
-108.3158349999999928
11
170.1153019999999856
21
-108.2444059999999979
0
LINE
8
BLACK
6
CONTINUOUS
10
170.1153019999999856
20
-108.2444059999999979
11
170.1427659999999946
21
-108.2338969999999989
0
LINE
8
BLACK
6
CONTINUOUS
10
170.1427659999999946
20
-108.2338969999999989
11
170.1481399999999837
21
-108.233514999999997
0
LINE
8
BLACK
6
CONTINUOUS
10
170.1481399999999837
20
-108.233514999999997
11
170.1531209999999987
21
-108.2314519999999902
0
LINE
8
BLACK
6
CONTINUOUS
10
170.1531209999999987
20
-108.2314519999999902
11
170.1823849999999823
21
-108.2285699999999906
0
LINE
8
BLACK
6
CONTINUOUS
10
170.1823849999999823
20
-108.2285699999999906
11
170.53952799999999
21
-108.2285699999999906
0
LINE
8
BLACK
6
CONTINUOUS
10
170.53952799999999
20
-108.2285699999999906
11
170.568792000000002
21
-108.2314519999999902
0
CIRCLE
8
BLACK
10
161.4749999999999943
20
-130.9499999999999886
40
0.35
0
CIRCLE
8
BLACK
10
170.875
20
-128.4000000000000057
40
0.35
0
CIRCLE
8
BLACK
10
170.875
20
-130.9499999999999886
40
0.35
0
CIRCLE
8
BLACK
10
163.6099999999999852
20
-130.9399999999999977
40
0.5
0
CIRCLE
8
BLACK
10
163.6099999999999852
20
-128.4000000000000057
40
0.5
0
CIRCLE
8
BLACK
10
166.1500000000000057
20
-128.4000000000000057
40
0.5
0
CIRCLE
8
BLACK
10
168.6899999999999977
20
-130.9399999999999977
40
0.5
0
CIRCLE
8
BLACK
10
168.6899999999999977
20
-128.4000000000000057
40
0.5
0
CIRCLE
8
BLACK
10
166.1500000000000057
20
-130.9399999999999977
40
0.5
0
CIRCLE
8
BLACK
10
164.1749999999999829
20
-114.
40
0.375
0
CIRCLE
8
BLACK
10
166.1749999999999829
20
-114.
40
0.375
0
CIRCLE
8
BLACK
10
168.1749999999999829
20
-114.
40
0.375
0
CIRCLE
8
BLACK
10
169.9599999999999795
20
-125.0349999999999966
40
0.7
0
CIRCLE
8
BLACK
10
169.9599999999999795
20
-122.4949999999999903
40
0.7
0
CIRCLE
8
BLACK
10
169.9599999999999795
20
-119.9549999999999983
40
0.7
0
CIRCLE
8
BLACK
10
169.9599999999999795
20
-117.414999999999992
40
0.7
0
CIRCLE
8
BLACK
10
162.3400000000000034
20
-125.0349999999999966
40
0.7
0
CIRCLE
8
BLACK
10
162.3400000000000034
20
-122.4949999999999903
40
0.7
0
CIRCLE
8
BLACK
10
162.3400000000000034
20
-119.9549999999999983
40
0.7
0
CIRCLE
8
BLACK
10
162.3400000000000034
20
-117.414999999999992
40
0.7
0
CIRCLE
8
BLACK
10
161.4749999999999943
20
-128.4000000000000057
40
0.35
0
LINE
8
BLACK
6
CONTINUOUS
10
172.2345669999999984
20
-107.2519029999999987
11
172.2480970000000013
21
-107.2654330000000016
0
LINE
8
BLACK
6
CONTINUOUS
10
172.2480970000000013
20
-107.2654330000000016
11
172.25
21
-107.2749999999999915
0
LINE
8
BLACK
6
CONTINUOUS
10
172.25
20
-107.2749999999999915
11
172.25
21
-132.8499999999999943
0
LINE
8
BLACK
6
CONTINUOUS
10
172.25
20
-132.8499999999999943
11
172.2480970000000013
21
-132.8595669999999984
0
LINE
8
BLACK
6
CONTINUOUS
10
172.2480970000000013
20
-132.8595669999999984
11
172.2345669999999984
21
-132.8730970000000013
0
LINE
8
BLACK
6
CONTINUOUS
10
172.2345669999999984
20
-132.8730970000000013
11
172.2249999999999943
21
-132.875
0
LINE
8
BLACK
6
CONTINUOUS
10
172.2249999999999943
20
-132.875
11
160.125
21
-132.875
0
LINE
8
BLACK
6
CONTINUOUS
10
160.125
20
-132.875
11
160.1154329999999959
21
-132.8730970000000013
0
LINE
8
BLACK
6
CONTINUOUS
10
160.1154329999999959
20
-132.8730970000000013
11
160.101902999999993
21
-132.8595669999999984
0
LINE
8
BLACK
6
CONTINUOUS
10
160.101902999999993
20
-132.8595669999999984
11
160.0999999999999943
21
-132.8499999999999943
0
LINE
8
BLACK
6
CONTINUOUS
10
160.0999999999999943
20
-132.8499999999999943
11
160.0999999999999943
21
-107.2749999999999915
0
LINE
8
BLACK
6
CONTINUOUS
10
160.0999999999999943
20
-107.2749999999999915
11
160.101902999999993
21
-107.2654330000000016
0
LINE
8
BLACK
6
CONTINUOUS
10
160.101902999999993
20
-107.2654330000000016
11
160.1154329999999959
21
-107.2519029999999987
0
LINE
8
BLACK
6
CONTINUOUS
10
160.1154329999999959
20
-107.2519029999999987
11
160.125
21
-107.25
0
LINE
8
BLACK
6
CONTINUOUS
10
160.125
20
-107.25
11
172.2249999999999943
21
-107.25
0
LINE
8
BLACK
6
CONTINUOUS
10
172.2249999999999943
20
-107.25
11
172.2345669999999984
21
-107.2519029999999987
0
LINE
8
BLACK
6
CONTINUOUS
10
160.1500000000000057
20
-107.2999999999999972
11
160.1500000000000057
21
-132.8249999999999886
0
LINE
8
BLACK
6
CONTINUOUS
10
160.1500000000000057
20
-132.8249999999999886
11
172.1999999999999886
21
-132.8249999999999886
0
LINE
8
BLACK
6
CONTINUOUS
10
172.1999999999999886
20
-132.8249999999999886
11
172.1999999999999886
21
-107.2999999999999972
0
LINE
8
BLACK
6
CONTINUOUS
10
172.1999999999999886
20
-107.2999999999999972
11
160.1500000000000057
21
-107.2999999999999972
0
CIRCLE
8
BLACK
10
161.4749999999999943
20
-130.9499999999999886
40
0.35
0
CIRCLE
8
BLACK
10
170.875
20
-128.4000000000000057
40
0.35
0
CIRCLE
8
BLACK
10
170.875
20
-130.9499999999999886
40
0.35
0
CIRCLE
8
BLACK
10
163.6099999999999852
20
-130.9399999999999977
40
0.5
0
CIRCLE
8
BLACK
10
163.6099999999999852
20
-128.4000000000000057
40
0.5
0
CIRCLE
8
BLACK
10
166.1500000000000057
20
-128.4000000000000057
40
0.5
0
CIRCLE
8
BLACK
10
168.6899999999999977
20
-130.9399999999999977
40
0.5
0
CIRCLE
8
BLACK
10
168.6899999999999977
20
-128.4000000000000057
40
0.5
0
CIRCLE
8
BLACK
10
166.1500000000000057
20
-130.9399999999999977
40
0.5
0
CIRCLE
8
BLACK
10
164.1749999999999829
20
-114.
40
0.375
0
CIRCLE
8
BLACK
10
166.1749999999999829
20
-114.
40
0.375
0
CIRCLE
8
BLACK
10
168.1749999999999829
20
-114.
40
0.375
0
CIRCLE
8
BLACK
10
169.9599999999999795
20
-125.0349999999999966
40
0.7
0
CIRCLE
8
BLACK
10
169.9599999999999795
20
-122.4949999999999903
40
0.7
0
CIRCLE
8
BLACK
10
169.9599999999999795
20
-119.9549999999999983
40
0.7
0
CIRCLE
8
BLACK
10
169.9599999999999795
20
-117.414999999999992
40
0.7
0
CIRCLE
8
BLACK
10
162.3400000000000034
20
-125.0349999999999966
40
0.7
0
CIRCLE
8
BLACK
10
162.3400000000000034
20
-122.4949999999999903
40
0.7
0
CIRCLE
8
BLACK
10
162.3400000000000034
20
-119.9549999999999983
40
0.7
0
CIRCLE
8
BLACK
10
162.3400000000000034
20
-117.414999999999992
40
0.7
0
CIRCLE
8
BLACK
10
161.4749999999999943
20
-128.4000000000000057
40
0.35
0
CIRCLE
8
WHITE
10
161.4749999999999943
20
-130.9499999999999886
40
0.35
0
CIRCLE
8
WHITE
10
170.875
20
-128.4000000000000057
40
0.35
0
CIRCLE
8
WHITE
10
170.875
20
-130.9499999999999886
40
0.35
0
CIRCLE
8
WHITE
10
163.6099999999999852
20
-130.9399999999999977
40
0.5
0
CIRCLE
8
WHITE
10
163.6099999999999852
20
-128.4000000000000057
40
0.5
0
CIRCLE
8
WHITE
10
166.1500000000000057
20
-128.4000000000000057
40
0.5
0
CIRCLE
8
WHITE
10
168.6899999999999977
20
-130.9399999999999977
40
0.5
0
CIRCLE
8
WHITE
10
168.6899999999999977
20
-128.4000000000000057
40
0.5
0
CIRCLE
8
WHITE
10
166.1500000000000057
20
-130.9399999999999977
40
0.5
0
CIRCLE
8
WHITE
10
164.1749999999999829
20
-114.
40
0.375
0
CIRCLE
8
WHITE
10
166.1749999999999829
20
-114.
40
0.375
0
CIRCLE
8
WHITE
10
168.1749999999999829
20
-114.
40
0.375
0
CIRCLE
8
WHITE
10
169.9599999999999795
20
-125.0349999999999966
40
0.7
0
CIRCLE
8
WHITE
10
169.9599999999999795
20
-122.4949999999999903
40
0.7
0
CIRCLE
8
WHITE
10
169.9599999999999795
20
-119.9549999999999983
40
0.7
0
CIRCLE
8
WHITE
10
169.9599999999999795
20
-117.414999999999992
40
0.7
0
CIRCLE
8
WHITE
10
162.3400000000000034
20
-125.0349999999999966
40
0.7
0
CIRCLE
8
WHITE
10
162.3400000000000034
20
-122.4949999999999903
40
0.7
0
CIRCLE
8
WHITE
10
162.3400000000000034
20
-119.9549999999999983
40
0.7
0
CIRCLE
8
WHITE
10
162.3400000000000034
20
-117.414999999999992
40
0.7
0
CIRCLE
8
WHITE
10
161.4749999999999943
20
-128.4000000000000057
40
0.35
  0
ENDSEC
  0
EOF
