  0
SECTION
  2
HEADER
  9
$ANGBASE
  50
0.0
  9
$ANGDIR
  70
1
  9
$MEASUREMENT
  70
1
  0
ENDSEC
  0
SECTION
  2
TABLES
  0
TABLE
  2
LTYPE
  70
4
  0
LTYPE
  5
40F
  2
CONTINUOUS
  70
0
  3
Solid line
  72
65
  73
0
  40
0.0
  0
LTYPE
  5
410
  2
DASHDOT
 70
0
  3
Dash Dot ____ _ ____ _
 72
65
 73
4
 40
2.0
 49
1.25
 49
-0.25
 49
0.25
 49
-0.25
  0
LTYPE
  5
411
  2
DASHED
 70
0
  3
Dashed __ __ __ __ __
 72
65
 73
2
 40
0.75
 49
0.5
 49
-0.25
  0
LTYPE
  5
43B
  2
DOTTED
 70
0
  3
Dotted .  .  .  .
 72
65
 73
2
 40
0.2
 49
0.0
 49
-0.2
  0
ENDTAB
  0
TABLE
  2
STYLE
  70
4
  0
STYLE
  2
KICAD
  70
0
  40
0
  41
1
  42
1
  50
0
  71
0
  3
isocp.shx
  0
STYLE
  2
KICADB
  70
0
  40
0
  41
1
  42
1
  50
0
  71
0
  3
isocp.shx
  0
STYLE
  2
KICADI
  70
0
  40
0
  41
1
  42
1
  50
15
  71
0
  3
isocp.shx
  0
STYLE
  2
KICADBI
  70
0
  40
0
  41
1
  42
1
  50
15
  71
0
  3
isocp.shx
  0
ENDTAB
  0
TABLE
  2
LAYER
  70
1
  0
LAYER
  2
BLACK
  70
0
  62
7
  6
CONTINUOUS
  0
ENDTAB
  0
ENDSEC
  0
SECTION
  2
ENTITIES
0
LINE
8
BLACK
6
CONTINUOUS
10
172.2345669999999984
20
-107.2519029999999987
11
172.2480970000000013
21
-107.2654330000000016
0
LINE
8
BLACK
6
CONTINUOUS
10
172.2480970000000013
20
-107.2654330000000016
11
172.25
21
-107.2749999999999915
0
LINE
8
BLACK
6
CONTINUOUS
10
172.25
20
-107.2749999999999915
11
172.25
21
-132.8499999999999943
0
LINE
8
BLACK
6
CONTINUOUS
10
172.25
20
-132.8499999999999943
11
172.2480970000000013
21
-132.8595669999999984
0
LINE
8
BLACK
6
CONTINUOUS
10
172.2480970000000013
20
-132.8595669999999984
11
172.2345669999999984
21
-132.8730970000000013
0
LINE
8
BLACK
6
CONTINUOUS
10
172.2345669999999984
20
-132.8730970000000013
11
172.2249999999999943
21
-132.875
0
LINE
8
BLACK
6
CONTINUOUS
10
172.2249999999999943
20
-132.875
11
160.125
21
-132.875
0
LINE
8
BLACK
6
CONTINUOUS
10
160.125
20
-132.875
11
160.1154329999999959
21
-132.8730970000000013
0
LINE
8
BLACK
6
CONTINUOUS
10
160.1154329999999959
20
-132.8730970000000013
11
160.101902999999993
21
-132.8595669999999984
0
LINE
8
BLACK
6
CONTINUOUS
10
160.101902999999993
20
-132.8595669999999984
11
160.0999999999999943
21
-132.8499999999999943
0
LINE
8
BLACK
6
CONTINUOUS
10
160.0999999999999943
20
-132.8499999999999943
11
160.0999999999999943
21
-107.2749999999999915
0
LINE
8
BLACK
6
CONTINUOUS
10
160.0999999999999943
20
-107.2749999999999915
11
160.101902999999993
21
-107.2654330000000016
0
LINE
8
BLACK
6
CONTINUOUS
10
160.101902999999993
20
-107.2654330000000016
11
160.1154329999999959
21
-107.2519029999999987
0
LINE
8
BLACK
6
CONTINUOUS
10
160.1154329999999959
20
-107.2519029999999987
11
160.125
21
-107.25
0
LINE
8
BLACK
6
CONTINUOUS
10
160.125
20
-107.25
11
172.2249999999999943
21
-107.25
0
LINE
8
BLACK
6
CONTINUOUS
10
172.2249999999999943
20
-107.25
11
172.2345669999999984
21
-107.2519029999999987
0
LINE
8
BLACK
6
CONTINUOUS
10
160.1500000000000057
20
-107.2999999999999972
11
160.1500000000000057
21
-132.8249999999999886
0
LINE
8
BLACK
6
CONTINUOUS
10
160.1500000000000057
20
-132.8249999999999886
11
172.1999999999999886
21
-132.8249999999999886
0
LINE
8
BLACK
6
CONTINUOUS
10
172.1999999999999886
20
-132.8249999999999886
11
172.1999999999999886
21
-107.2999999999999972
0
LINE
8
BLACK
6
CONTINUOUS
10
172.1999999999999886
20
-107.2999999999999972
11
160.1500000000000057
21
-107.2999999999999972
0
CIRCLE
8
BLACK
10
161.4749999999999943
20
-130.9499999999999886
40
0.35
0
CIRCLE
8
BLACK
10
170.875
20
-128.4000000000000057
40
0.35
0
CIRCLE
8
BLACK
10
170.875
20
-130.9499999999999886
40
0.35
0
CIRCLE
8
BLACK
10
163.6099999999999852
20
-130.9399999999999977
40
0.5
0
CIRCLE
8
BLACK
10
163.6099999999999852
20
-128.4000000000000057
40
0.5
0
CIRCLE
8
BLACK
10
166.1500000000000057
20
-128.4000000000000057
40
0.5
0
CIRCLE
8
BLACK
10
168.6899999999999977
20
-130.9399999999999977
40
0.5
0
CIRCLE
8
BLACK
10
168.6899999999999977
20
-128.4000000000000057
40
0.5
0
CIRCLE
8
BLACK
10
166.1500000000000057
20
-130.9399999999999977
40
0.5
0
CIRCLE
8
BLACK
10
164.1749999999999829
20
-114.
40
0.375
0
CIRCLE
8
BLACK
10
166.1749999999999829
20
-114.
40
0.375
0
CIRCLE
8
BLACK
10
168.1749999999999829
20
-114.
40
0.375
0
CIRCLE
8
BLACK
10
169.9599999999999795
20
-125.0349999999999966
40
0.7
0
CIRCLE
8
BLACK
10
169.9599999999999795
20
-122.4949999999999903
40
0.7
0
CIRCLE
8
BLACK
10
169.9599999999999795
20
-119.9549999999999983
40
0.7
0
CIRCLE
8
BLACK
10
169.9599999999999795
20
-117.414999999999992
40
0.7
0
CIRCLE
8
BLACK
10
162.3400000000000034
20
-125.0349999999999966
40
0.7
0
CIRCLE
8
BLACK
10
162.3400000000000034
20
-122.4949999999999903
40
0.7
0
CIRCLE
8
BLACK
10
162.3400000000000034
20
-119.9549999999999983
40
0.7
0
CIRCLE
8
BLACK
10
162.3400000000000034
20
-117.414999999999992
40
0.7
0
CIRCLE
8
BLACK
10
161.4749999999999943
20
-128.4000000000000057
40
0.35
0
CIRCLE
8
WHITE
10
161.4749999999999943
20
-130.9499999999999886
40
0.35
0
CIRCLE
8
WHITE
10
170.875
20
-128.4000000000000057
40
0.35
0
CIRCLE
8
WHITE
10
170.875
20
-130.9499999999999886
40
0.35
0
CIRCLE
8
WHITE
10
163.6099999999999852
20
-130.9399999999999977
40
0.5
0
CIRCLE
8
WHITE
10
163.6099999999999852
20
-128.4000000000000057
40
0.5
0
CIRCLE
8
WHITE
10
166.1500000000000057
20
-128.4000000000000057
40
0.5
0
CIRCLE
8
WHITE
10
168.6899999999999977
20
-130.9399999999999977
40
0.5
0
CIRCLE
8
WHITE
10
168.6899999999999977
20
-128.4000000000000057
40
0.5
0
CIRCLE
8
WHITE
10
166.1500000000000057
20
-130.9399999999999977
40
0.5
0
CIRCLE
8
WHITE
10
164.1749999999999829
20
-114.
40
0.375
0
CIRCLE
8
WHITE
10
166.1749999999999829
20
-114.
40
0.375
0
CIRCLE
8
WHITE
10
168.1749999999999829
20
-114.
40
0.375
0
CIRCLE
8
WHITE
10
169.9599999999999795
20
-125.0349999999999966
40
0.7
0
CIRCLE
8
WHITE
10
169.9599999999999795
20
-122.4949999999999903
40
0.7
0
CIRCLE
8
WHITE
10
169.9599999999999795
20
-119.9549999999999983
40
0.7
0
CIRCLE
8
WHITE
10
169.9599999999999795
20
-117.414999999999992
40
0.7
0
CIRCLE
8
WHITE
10
162.3400000000000034
20
-125.0349999999999966
40
0.7
0
CIRCLE
8
WHITE
10
162.3400000000000034
20
-122.4949999999999903
40
0.7
0
CIRCLE
8
WHITE
10
162.3400000000000034
20
-119.9549999999999983
40
0.7
0
CIRCLE
8
WHITE
10
162.3400000000000034
20
-117.414999999999992
40
0.7
0
CIRCLE
8
WHITE
10
161.4749999999999943
20
-128.4000000000000057
40
0.35
  0
ENDSEC
  0
EOF
