  0
SECTION
  2
HEADER
  9
$ANGBASE
  50
0.0
  9
$ANGDIR
  70
1
  9
$MEASUREMENT
  70
1
  0
ENDSEC
  0
SECTION
  2
TABLES
  0
TABLE
  2
LTYPE
  70
4
  0
LTYPE
  5
40F
  2
CONTINUOUS
  70
0
  3
Solid line
  72
65
  73
0
  40
0.0
  0
LTYPE
  5
410
  2
DASHDOT
 70
0
  3
Dash Dot ____ _ ____ _
 72
65
 73
4
 40
2.0
 49
1.25
 49
-0.25
 49
0.25
 49
-0.25
  0
LTYPE
  5
411
  2
DASHED
 70
0
  3
Dashed __ __ __ __ __
 72
65
 73
2
 40
0.75
 49
0.5
 49
-0.25
  0
LTYPE
  5
43B
  2
DOTTED
 70
0
  3
Dotted .  .  .  .
 72
65
 73
2
 40
0.2
 49
0.0
 49
-0.2
  0
ENDTAB
  0
TABLE
  2
STYLE
  70
4
  0
STYLE
  2
KICAD
  70
0
  40
0
  41
1
  42
1
  50
0
  71
0
  3
isocp.shx
  0
STYLE
  2
KICADB
  70
0
  40
0
  41
1
  42
1
  50
0
  71
0
  3
isocp.shx
  0
STYLE
  2
KICADI
  70
0
  40
0
  41
1
  42
1
  50
15
  71
0
  3
isocp.shx
  0
STYLE
  2
KICADBI
  70
0
  40
0
  41
1
  42
1
  50
15
  71
0
  3
isocp.shx
  0
ENDTAB
  0
TABLE
  2
LAYER
  70
1
  0
LAYER
  2
BLACK
  70
0
  62
7
  6
CONTINUOUS
  0
ENDTAB
  0
ENDSEC
  0
SECTION
  2
ENTITIES
0
LINE
8
BLACK
6
CONTINUOUS
10
135.9956709999999873
20
-68.5690299999999979
11
136.0767769999999928
21
-68.6232229999999959
0
LINE
8
BLACK
6
CONTINUOUS
10
136.0767769999999928
20
-68.6232229999999959
11
136.1309699999999907
21
-68.7043290000000013
0
LINE
8
BLACK
6
CONTINUOUS
10
136.1309699999999907
20
-68.7043290000000013
11
136.1500000000000057
21
-68.7999999999999972
0
LINE
8
BLACK
6
CONTINUOUS
10
136.1500000000000057
20
-68.7999999999999972
11
136.1500000000000057
21
-70.
0
LINE
8
BLACK
6
CONTINUOUS
10
136.1500000000000057
20
-70.
11
136.1309699999999907
21
-70.0956709999999958
0
LINE
8
BLACK
6
CONTINUOUS
10
136.1309699999999907
20
-70.0956709999999958
11
136.0767769999999928
21
-70.1767770000000013
0
LINE
8
BLACK
6
CONTINUOUS
10
136.0767769999999928
20
-70.1767770000000013
11
135.9956709999999873
21
-70.2309699999999992
0
LINE
8
BLACK
6
CONTINUOUS
10
135.9956709999999873
20
-70.2309699999999992
11
135.9000000000000057
21
-70.25
0
LINE
8
BLACK
6
CONTINUOUS
10
135.9000000000000057
20
-70.25
11
134.6999999999999886
21
-70.25
0
LINE
8
BLACK
6
CONTINUOUS
10
134.6999999999999886
20
-70.25
11
134.604329000000007
21
-70.2309699999999992
0
LINE
8
BLACK
6
CONTINUOUS
10
134.604329000000007
20
-70.2309699999999992
11
134.5977129999999988
21
-70.2265500000000031
0
LINE
8
BLACK
6
CONTINUOUS
10
134.5977129999999988
20
-70.2265500000000031
11
134.0999999999999943
21
-70.7242639999999909
0
LINE
8
BLACK
6
CONTINUOUS
10
134.0999999999999943
20
-70.7242639999999909
11
134.0999999999999943
21
-70.75
0
LINE
8
BLACK
6
CONTINUOUS
10
134.0999999999999943
20
-70.75
11
134.4000000000000057
21
-70.75
0
LINE
8
BLACK
6
CONTINUOUS
10
134.4000000000000057
20
-70.75
11
134.4956709999999873
21
-70.7690300000000008
0
LINE
8
BLACK
6
CONTINUOUS
10
134.4956709999999873
20
-70.7690300000000008
11
134.5767769999999928
21
-70.8232229999999987
0
LINE
8
BLACK
6
CONTINUOUS
10
134.5767769999999928
20
-70.8232229999999987
11
134.6309699999999907
21
-70.9043289999999899
0
LINE
8
BLACK
6
CONTINUOUS
10
134.6309699999999907
20
-70.9043289999999899
11
134.6500000000000057
21
-71.
0
LINE
8
BLACK
6
CONTINUOUS
10
134.6500000000000057
20
-71.
11
134.6500000000000057
21
-72.2000000000000028
0
LINE
8
BLACK
6
CONTINUOUS
10
134.6500000000000057
20
-72.2000000000000028
11
134.6309699999999907
21
-72.2956709999999987
0
LINE
8
BLACK
6
CONTINUOUS
10
134.6309699999999907
20
-72.2956709999999987
11
134.5767769999999928
21
-72.3767769999999899
0
LINE
8
BLACK
6
CONTINUOUS
10
134.5767769999999928
20
-72.3767769999999899
11
134.4956709999999873
21
-72.4309700000000021
0
LINE
8
BLACK
6
CONTINUOUS
10
134.4956709999999873
20
-72.4309700000000021
11
134.4000000000000057
21
-72.4500000000000028
0
LINE
8
BLACK
6
CONTINUOUS
10
134.4000000000000057
20
-72.4500000000000028
11
133.9849999999999852
21
-72.4500000000000028
0
LINE
8
BLACK
6
CONTINUOUS
10
133.9849999999999852
20
-72.4500000000000028
11
133.9849999999999852
21
-73.4240309999999994
0
LINE
8
BLACK
6
CONTINUOUS
10
133.9849999999999852
20
-73.4240309999999994
11
134.0122279999999932
21
-73.4294479999999936
0
LINE
8
BLACK
6
CONTINUOUS
10
134.0122279999999932
20
-73.4294479999999936
11
134.1571169999999995
21
-73.4894630000000006
0
LINE
8
BLACK
6
CONTINUOUS
10
134.1571169999999995
20
-73.4894630000000006
11
134.2875149999999849
21
-73.5765919999999909
0
LINE
8
BLACK
6
CONTINUOUS
10
134.2875149999999849
20
-73.5765919999999909
11
134.3984079999999892
21
-73.6874849999999952
0
LINE
8
BLACK
6
CONTINUOUS
10
134.3984079999999892
20
-73.6874849999999952
11
134.4855369999999937
21
-73.8178829999999948
0
LINE
8
BLACK
6
CONTINUOUS
10
134.4855369999999937
20
-73.8178829999999948
11
134.5455519999999865
21
-73.9627720000000011
0
LINE
8
BLACK
6
CONTINUOUS
10
134.5455519999999865
20
-73.9627720000000011
11
134.5761479999999892
21
-74.1165859999999981
0
LINE
8
BLACK
6
CONTINUOUS
10
134.5761479999999892
20
-74.1165859999999981
11
134.5761479999999892
21
-74.2734140000000025
0
LINE
8
BLACK
6
CONTINUOUS
10
134.5761479999999892
20
-74.2734140000000025
11
134.5455519999999865
21
-74.4272279999999995
0
LINE
8
BLACK
6
CONTINUOUS
10
134.5455519999999865
20
-74.4272279999999995
11
134.4855369999999937
21
-74.5721169999999915
0
LINE
8
BLACK
6
CONTINUOUS
10
134.4855369999999937
20
-74.5721169999999915
11
134.3984079999999892
21
-74.7025149999999911
0
LINE
8
BLACK
6
CONTINUOUS
10
134.3984079999999892
20
-74.7025149999999911
11
134.2875149999999849
21
-74.8134079999999955
0
LINE
8
BLACK
6
CONTINUOUS
10
134.2875149999999849
20
-74.8134079999999955
11
134.1571169999999995
21
-74.9005369999999999
0
LINE
8
BLACK
6
CONTINUOUS
10
134.1571169999999995
20
-74.9005369999999999
11
134.0122279999999932
21
-74.9605519999999927
0
LINE
8
BLACK
6
CONTINUOUS
10
134.0122279999999932
20
-74.9605519999999927
11
133.858413999999982
21
-74.9911479999999955
0
LINE
8
BLACK
6
CONTINUOUS
10
133.858413999999982
20
-74.9911479999999955
11
133.7015859999999918
21
-74.9911479999999955
0
LINE
8
BLACK
6
CONTINUOUS
10
133.7015859999999918
20
-74.9911479999999955
11
133.5477719999999806
21
-74.9605519999999927
0
LINE
8
BLACK
6
CONTINUOUS
10
133.5477719999999806
20
-74.9605519999999927
11
133.4028830000000028
21
-74.9005369999999999
0
LINE
8
BLACK
6
CONTINUOUS
10
133.4028830000000028
20
-74.9005369999999999
11
133.3543669999999963
21
-74.8681199999999905
0
LINE
8
BLACK
6
CONTINUOUS
10
133.3543669999999963
20
-74.8681199999999905
11
132.7539999999999907
21
-75.4684879999999936
0
LINE
8
BLACK
6
CONTINUOUS
10
132.7539999999999907
20
-75.4684879999999936
11
132.7539999999999907
21
-83.1065119999999951
0
LINE
8
BLACK
6
CONTINUOUS
10
132.7539999999999907
20
-83.1065119999999951
11
133.1979039999999941
21
-83.5504159999999985
0
LINE
8
BLACK
6
CONTINUOUS
10
133.1979039999999941
20
-83.5504159999999985
11
133.1999999999999886
21
-83.5499999999999972
0
LINE
8
BLACK
6
CONTINUOUS
10
133.1999999999999886
20
-83.5499999999999972
11
134.4000000000000057
21
-83.5499999999999972
0
LINE
8
BLACK
6
CONTINUOUS
10
134.4000000000000057
20
-83.5499999999999972
11
134.4956709999999873
21
-83.5690299999999979
0
LINE
8
BLACK
6
CONTINUOUS
10
134.4956709999999873
20
-83.5690299999999979
11
134.5767769999999928
21
-83.6232229999999959
0
LINE
8
BLACK
6
CONTINUOUS
10
134.5767769999999928
20
-83.6232229999999959
11
134.6309699999999907
21
-83.7043290000000013
0
LINE
8
BLACK
6
CONTINUOUS
10
134.6309699999999907
20
-83.7043290000000013
11
134.6500000000000057
21
-83.7999999999999972
0
LINE
8
BLACK
6
CONTINUOUS
10
134.6500000000000057
20
-83.7999999999999972
11
134.6500000000000057
21
-85.
0
LINE
8
BLACK
6
CONTINUOUS
10
134.6500000000000057
20
-85.
11
134.6309699999999907
21
-85.0956709999999958
0
LINE
8
BLACK
6
CONTINUOUS
10
134.6309699999999907
20
-85.0956709999999958
11
134.5767769999999928
21
-85.1767770000000013
0
LINE
8
BLACK
6
CONTINUOUS
10
134.5767769999999928
20
-85.1767770000000013
11
134.4956709999999873
21
-85.2309699999999992
0
LINE
8
BLACK
6
CONTINUOUS
10
134.4956709999999873
20
-85.2309699999999992
11
134.4000000000000057
21
-85.25
0
LINE
8
BLACK
6
CONTINUOUS
10
134.4000000000000057
20
-85.25
11
133.1999999999999886
21
-85.25
0
LINE
8
BLACK
6
CONTINUOUS
10
133.1999999999999886
20
-85.25
11
133.104329000000007
21
-85.2309699999999992
0
LINE
8
BLACK
6
CONTINUOUS
10
133.104329000000007
20
-85.2309699999999992
11
133.0232230000000015
21
-85.1767770000000013
0
LINE
8
BLACK
6
CONTINUOUS
10
133.0232230000000015
20
-85.1767770000000013
11
132.9690300000000036
21
-85.0956709999999958
0
LINE
8
BLACK
6
CONTINUOUS
10
132.9690300000000036
20
-85.0956709999999958
11
132.9499999999999886
21
-85.
0
LINE
8
BLACK
6
CONTINUOUS
10
132.9499999999999886
20
-85.
11
132.9499999999999886
21
-83.7999999999999972
0
LINE
8
BLACK
6
CONTINUOUS
10
132.9499999999999886
20
-83.7999999999999972
11
132.9504159999999899
21
-83.7979040000000026
0
LINE
8
BLACK
6
CONTINUOUS
10
132.9504159999999899
20
-83.7979040000000026
11
132.4802559999999971
21
-83.3277439999999956
0
LINE
8
BLACK
6
CONTINUOUS
10
132.4802559999999971
20
-83.3277439999999956
11
132.4584930000000043
21
-83.3012239999999906
0
LINE
8
BLACK
6
CONTINUOUS
10
132.4584930000000043
20
-83.3012239999999906
11
132.432362999999981
21
-83.2381409999999988
0
LINE
8
BLACK
6
CONTINUOUS
10
132.432362999999981
20
-83.2381409999999988
11
132.432362999999981
21
-83.1698590000000024
0
LINE
8
BLACK
6
CONTINUOUS
10
132.432362999999981
20
-83.1698590000000024
11
132.4540000000000077
21
-83.1176219999999972
0
LINE
8
BLACK
6
CONTINUOUS
10
132.4540000000000077
20
-83.1176219999999972
11
132.4540000000000077
21
-75.4573769999999939
0
LINE
8
BLACK
6
CONTINUOUS
10
132.4540000000000077
20
-75.4573769999999939
11
132.432362999999981
21
-75.4051410000000004
0
LINE
8
BLACK
6
CONTINUOUS
10
132.432362999999981
20
-75.4051410000000004
11
132.432362999999981
21
-75.3368589999999898
0
LINE
8
BLACK
6
CONTINUOUS
10
132.432362999999981
20
-75.3368589999999898
11
132.4584930000000043
21
-75.273775999999998
0
LINE
8
BLACK
6
CONTINUOUS
10
132.4584930000000043
20
-75.273775999999998
11
132.4802559999999971
21
-75.247255999999993
0
LINE
8
BLACK
6
CONTINUOUS
10
132.4802559999999971
20
-75.247255999999993
11
133.1068789999999922
21
-74.6206320000000005
0
LINE
8
BLACK
6
CONTINUOUS
10
133.1068789999999922
20
-74.6206320000000005
11
133.0744629999999802
21
-74.5721169999999915
0
LINE
8
BLACK
6
CONTINUOUS
10
133.0744629999999802
20
-74.5721169999999915
11
133.0144479999999874
21
-74.4272279999999995
0
LINE
8
BLACK
6
CONTINUOUS
10
133.0144479999999874
20
-74.4272279999999995
11
132.9838519999999846
21
-74.2734140000000025
0
LINE
8
BLACK
6
CONTINUOUS
10
132.9838519999999846
20
-74.2734140000000025
11
132.9838519999999846
21
-74.1165859999999981
0
LINE
8
BLACK
6
CONTINUOUS
10
132.9838519999999846
20
-74.1165859999999981
11
133.0144479999999874
21
-73.9627720000000011
0
LINE
8
BLACK
6
CONTINUOUS
10
133.0144479999999874
20
-73.9627720000000011
11
133.0744629999999802
21
-73.8178829999999948
0
LINE
8
BLACK
6
CONTINUOUS
10
133.0744629999999802
20
-73.8178829999999948
11
133.1615919999999846
21
-73.6874849999999952
0
LINE
8
BLACK
6
CONTINUOUS
10
133.1615919999999846
20
-73.6874849999999952
11
133.272484999999989
21
-73.5765919999999909
0
LINE
8
BLACK
6
CONTINUOUS
10
133.272484999999989
20
-73.5765919999999909
11
133.3849999999999909
21
-73.501412000000002
0
LINE
8
BLACK
6
CONTINUOUS
10
133.3849999999999909
20
-73.501412000000002
11
133.3849999999999909
21
-72.4500000000000028
0
LINE
8
BLACK
6
CONTINUOUS
10
133.3849999999999909
20
-72.4500000000000028
11
133.1999999999999886
21
-72.4500000000000028
0
LINE
8
BLACK
6
CONTINUOUS
10
133.1999999999999886
20
-72.4500000000000028
11
133.104329000000007
21
-72.4309700000000021
0
LINE
8
BLACK
6
CONTINUOUS
10
133.104329000000007
20
-72.4309700000000021
11
133.0232230000000015
21
-72.3767769999999899
0
LINE
8
BLACK
6
CONTINUOUS
10
133.0232230000000015
20
-72.3767769999999899
11
132.9690300000000036
21
-72.2956709999999987
0
LINE
8
BLACK
6
CONTINUOUS
10
132.9690300000000036
20
-72.2956709999999987
11
132.9499999999999886
21
-72.2000000000000028
0
LINE
8
BLACK
6
CONTINUOUS
10
132.9499999999999886
20
-72.2000000000000028
11
132.9499999999999886
21
-71.
0
LINE
8
BLACK
6
CONTINUOUS
10
132.9499999999999886
20
-71.
11
132.9690300000000036
21
-70.9043289999999899
0
LINE
8
BLACK
6
CONTINUOUS
10
132.9690300000000036
20
-70.9043289999999899
11
133.0232230000000015
21
-70.8232229999999987
0
LINE
8
BLACK
6
CONTINUOUS
10
133.0232230000000015
20
-70.8232229999999987
11
133.104329000000007
21
-70.7690300000000008
0
LINE
8
BLACK
6
CONTINUOUS
10
133.104329000000007
20
-70.7690300000000008
11
133.1999999999999886
21
-70.75
0
LINE
8
BLACK
6
CONTINUOUS
10
133.1999999999999886
20
-70.75
11
133.5
21
-70.75
0
LINE
8
BLACK
6
CONTINUOUS
10
133.5
20
-70.75
11
133.5
21
-70.5999999999999943
0
LINE
8
BLACK
6
CONTINUOUS
10
133.5
20
-70.5999999999999943
11
133.5025669999999991
21
-70.5608419999999938
0
LINE
8
BLACK
6
CONTINUOUS
10
133.5025669999999991
20
-70.5608419999999938
11
133.5228359999999839
21
-70.4851949999999903
0
LINE
8
BLACK
6
CONTINUOUS
10
133.5228359999999839
20
-70.4851949999999903
11
133.5619939999999986
21
-70.4173720000000003
0
LINE
8
BLACK
6
CONTINUOUS
10
133.5619939999999986
20
-70.4173720000000003
11
133.5878679999999861
21
-70.3878679999999974
0
LINE
8
BLACK
6
CONTINUOUS
10
133.5878679999999861
20
-70.3878679999999974
11
134.4499999999999886
21
-69.5257359999999949
0
LINE
8
BLACK
6
CONTINUOUS
10
134.4499999999999886
20
-69.5257359999999949
11
134.4499999999999886
21
-68.7999999999999972
0
LINE
8
BLACK
6
CONTINUOUS
10
134.4499999999999886
20
-68.7999999999999972
11
134.4690300000000036
21
-68.7043290000000013
0
LINE
8
BLACK
6
CONTINUOUS
10
134.4690300000000036
20
-68.7043290000000013
11
134.5232230000000015
21
-68.6232229999999959
0
LINE
8
BLACK
6
CONTINUOUS
10
134.5232230000000015
20
-68.6232229999999959
11
134.604329000000007
21
-68.5690299999999979
0
LINE
8
BLACK
6
CONTINUOUS
10
134.604329000000007
20
-68.5690299999999979
11
134.6999999999999886
21
-68.5499999999999972
0
LINE
8
BLACK
6
CONTINUOUS
10
134.6999999999999886
20
-68.5499999999999972
11
135.9000000000000057
21
-68.5499999999999972
0
LINE
8
BLACK
6
CONTINUOUS
10
135.9000000000000057
20
-68.5499999999999972
11
135.9956709999999873
21
-68.5690299999999979
0
LINE
8
BLACK
6
CONTINUOUS
10
134.0122279999999932
20
-81.0494479999999982
11
134.1571169999999995
21
-81.109462999999991
0
LINE
8
BLACK
6
CONTINUOUS
10
134.1571169999999995
20
-81.109462999999991
11
134.2875149999999849
21
-81.1965919999999954
0
LINE
8
BLACK
6
CONTINUOUS
10
134.2875149999999849
20
-81.1965919999999954
11
134.3984079999999892
21
-81.3074849999999998
0
LINE
8
BLACK
6
CONTINUOUS
10
134.3984079999999892
20
-81.3074849999999998
11
134.4855369999999937
21
-81.4378829999999994
0
LINE
8
BLACK
6
CONTINUOUS
10
134.4855369999999937
20
-81.4378829999999994
11
134.5455519999999865
21
-81.5827719999999914
0
LINE
8
BLACK
6
CONTINUOUS
10
134.5455519999999865
20
-81.5827719999999914
11
134.5761479999999892
21
-81.7365860000000026
0
LINE
8
BLACK
6
CONTINUOUS
10
134.5761479999999892
20
-81.7365860000000026
11
134.5761479999999892
21
-81.7518839999999898
0
LINE
8
BLACK
6
CONTINUOUS
10
134.5761479999999892
20
-81.7518839999999898
11
136.3742639999999824
21
-83.5499999999999972
0
LINE
8
BLACK
6
CONTINUOUS
10
136.3742639999999824
20
-83.5499999999999972
11
137.4000000000000057
21
-83.5499999999999972
0
LINE
8
BLACK
6
CONTINUOUS
10
137.4000000000000057
20
-83.5499999999999972
11
137.4956709999999873
21
-83.5690299999999979
0
LINE
8
BLACK
6
CONTINUOUS
10
137.4956709999999873
20
-83.5690299999999979
11
137.5767769999999928
21
-83.6232229999999959
0
LINE
8
BLACK
6
CONTINUOUS
10
137.5767769999999928
20
-83.6232229999999959
11
137.6309699999999907
21
-83.7043290000000013
0
LINE
8
BLACK
6
CONTINUOUS
10
137.6309699999999907
20
-83.7043290000000013
11
137.6500000000000057
21
-83.7999999999999972
0
LINE
8
BLACK
6
CONTINUOUS
10
137.6500000000000057
20
-83.7999999999999972
11
137.6500000000000057
21
-85.
0
LINE
8
BLACK
6
CONTINUOUS
10
137.6500000000000057
20
-85.
11
137.6309699999999907
21
-85.0956709999999958
0
LINE
8
BLACK
6
CONTINUOUS
10
137.6309699999999907
20
-85.0956709999999958
11
137.5767769999999928
21
-85.1767770000000013
0
LINE
8
BLACK
6
CONTINUOUS
10
137.5767769999999928
20
-85.1767770000000013
11
137.4956709999999873
21
-85.2309699999999992
0
LINE
8
BLACK
6
CONTINUOUS
10
137.4956709999999873
20
-85.2309699999999992
11
137.4000000000000057
21
-85.25
0
LINE
8
BLACK
6
CONTINUOUS
10
137.4000000000000057
20
-85.25
11
136.1999999999999886
21
-85.25
0
LINE
8
BLACK
6
CONTINUOUS
10
136.1999999999999886
20
-85.25
11
136.104329000000007
21
-85.2309699999999992
0
LINE
8
BLACK
6
CONTINUOUS
10
136.104329000000007
20
-85.2309699999999992
11
136.0232230000000015
21
-85.1767770000000013
0
LINE
8
BLACK
6
CONTINUOUS
10
136.0232230000000015
20
-85.1767770000000013
11
135.9690300000000036
21
-85.0956709999999958
0
LINE
8
BLACK
6
CONTINUOUS
10
135.9690300000000036
20
-85.0956709999999958
11
135.9499999999999886
21
-85.
0
LINE
8
BLACK
6
CONTINUOUS
10
135.9499999999999886
20
-85.
11
135.9499999999999886
21
-83.9742639999999909
0
LINE
8
BLACK
6
CONTINUOUS
10
135.9499999999999886
20
-83.9742639999999909
11
134.3483290000000068
21
-82.3725929999999948
0
LINE
8
BLACK
6
CONTINUOUS
10
134.3483290000000068
20
-82.3725929999999948
11
134.2875149999999849
21
-82.433408
0
LINE
8
BLACK
6
CONTINUOUS
10
134.2875149999999849
20
-82.433408
11
134.1571169999999995
21
-82.5205369999999903
0
LINE
8
BLACK
6
CONTINUOUS
10
134.1571169999999995
20
-82.5205369999999903
11
134.0122279999999932
21
-82.5805519999999973
0
LINE
8
BLACK
6
CONTINUOUS
10
134.0122279999999932
20
-82.5805519999999973
11
133.858413999999982
21
-82.611148
0
LINE
8
BLACK
6
CONTINUOUS
10
133.858413999999982
20
-82.611148
11
133.7015859999999918
21
-82.611148
0
LINE
8
BLACK
6
CONTINUOUS
10
133.7015859999999918
20
-82.611148
11
133.5477719999999806
21
-82.5805519999999973
0
LINE
8
BLACK
6
CONTINUOUS
10
133.5477719999999806
20
-82.5805519999999973
11
133.4028830000000028
21
-82.5205369999999903
0
LINE
8
BLACK
6
CONTINUOUS
10
133.4028830000000028
20
-82.5205369999999903
11
133.272484999999989
21
-82.433408
0
LINE
8
BLACK
6
CONTINUOUS
10
133.272484999999989
20
-82.433408
11
133.1615919999999846
21
-82.3225149999999957
0
LINE
8
BLACK
6
CONTINUOUS
10
133.1615919999999846
20
-82.3225149999999957
11
133.0744629999999802
21
-82.1921169999999961
0
LINE
8
BLACK
6
CONTINUOUS
10
133.0744629999999802
20
-82.1921169999999961
11
133.0144479999999874
21
-82.0472279999999898
0
LINE
8
BLACK
6
CONTINUOUS
10
133.0144479999999874
20
-82.0472279999999898
11
132.9838519999999846
21
-81.8934139999999928
0
LINE
8
BLACK
6
CONTINUOUS
10
132.9838519999999846
20
-81.8934139999999928
11
132.9838519999999846
21
-81.7365860000000026
0
LINE
8
BLACK
6
CONTINUOUS
10
132.9838519999999846
20
-81.7365860000000026
11
133.0144479999999874
21
-81.5827719999999914
0
LINE
8
BLACK
6
CONTINUOUS
10
133.0144479999999874
20
-81.5827719999999914
11
133.0744629999999802
21
-81.4378829999999994
0
LINE
8
BLACK
6
CONTINUOUS
10
133.0744629999999802
20
-81.4378829999999994
11
133.1615919999999846
21
-81.3074849999999998
0
LINE
8
BLACK
6
CONTINUOUS
10
133.1615919999999846
20
-81.3074849999999998
11
133.272484999999989
21
-81.1965919999999954
0
LINE
8
BLACK
6
CONTINUOUS
10
133.272484999999989
20
-81.1965919999999954
11
133.4028830000000028
21
-81.109462999999991
0
LINE
8
BLACK
6
CONTINUOUS
10
133.4028830000000028
20
-81.109462999999991
11
133.5477719999999806
21
-81.0494479999999982
0
LINE
8
BLACK
6
CONTINUOUS
10
133.5477719999999806
20
-81.0494479999999982
11
133.7015859999999918
21
-81.0188519999999954
0
LINE
8
BLACK
6
CONTINUOUS
10
133.7015859999999918
20
-81.0188519999999954
11
133.858413999999982
21
-81.0188519999999954
0
LINE
8
BLACK
6
CONTINUOUS
10
133.858413999999982
20
-81.0188519999999954
11
134.0122279999999932
21
-81.0494479999999982
0
LINE
8
BLACK
6
CONTINUOUS
10
136.5522279999999853
20
-81.0494479999999982
11
136.6971169999999915
21
-81.109462999999991
0
LINE
8
BLACK
6
CONTINUOUS
10
136.6971169999999915
20
-81.109462999999991
11
136.8275150000000053
21
-81.1965919999999954
0
LINE
8
BLACK
6
CONTINUOUS
10
136.8275150000000053
20
-81.1965919999999954
11
136.9384079999999813
21
-81.3074849999999998
0
LINE
8
BLACK
6
CONTINUOUS
10
136.9384079999999813
20
-81.3074849999999998
11
137.0255369999999857
21
-81.4378829999999994
0
LINE
8
BLACK
6
CONTINUOUS
10
137.0255369999999857
20
-81.4378829999999994
11
137.085552000000007
21
-81.5827719999999914
0
LINE
8
BLACK
6
CONTINUOUS
10
137.085552000000007
20
-81.5827719999999914
11
137.1050479999999823
21
-81.6807840000000027
0
LINE
8
BLACK
6
CONTINUOUS
10
137.1050479999999823
20
-81.6807840000000027
11
139.0377679999999998
21
-83.6135039999999918
0
LINE
8
BLACK
6
CONTINUOUS
10
139.0377679999999998
20
-83.6135039999999918
11
139.104329000000007
21
-83.5690299999999979
0
LINE
8
BLACK
6
CONTINUOUS
10
139.104329000000007
20
-83.5690299999999979
11
139.1999999999999886
21
-83.5499999999999972
0
LINE
8
BLACK
6
CONTINUOUS
10
139.1999999999999886
20
-83.5499999999999972
11
140.4000000000000057
21
-83.5499999999999972
0
LINE
8
BLACK
6
CONTINUOUS
10
140.4000000000000057
20
-83.5499999999999972
11
140.4956709999999873
21
-83.5690299999999979
0
LINE
8
BLACK
6
CONTINUOUS
10
140.4956709999999873
20
-83.5690299999999979
11
140.5767769999999928
21
-83.6232229999999959
0
LINE
8
BLACK
6
CONTINUOUS
10
140.5767769999999928
20
-83.6232229999999959
11
140.6309699999999907
21
-83.7043290000000013
0
LINE
8
BLACK
6
CONTINUOUS
10
140.6309699999999907
20
-83.7043290000000013
11
140.6500000000000057
21
-83.7999999999999972
0
LINE
8
BLACK
6
CONTINUOUS
10
140.6500000000000057
20
-83.7999999999999972
11
140.6500000000000057
21
-85.
0
LINE
8
BLACK
6
CONTINUOUS
10
140.6500000000000057
20
-85.
11
140.6309699999999907
21
-85.0956709999999958
0
LINE
8
BLACK
6
CONTINUOUS
10
140.6309699999999907
20
-85.0956709999999958
11
140.5767769999999928
21
-85.1767770000000013
0
LINE
8
BLACK
6
CONTINUOUS
10
140.5767769999999928
20
-85.1767770000000013
11
140.4956709999999873
21
-85.2309699999999992
0
LINE
8
BLACK
6
CONTINUOUS
10
140.4956709999999873
20
-85.2309699999999992
11
140.4000000000000057
21
-85.25
0
LINE
8
BLACK
6
CONTINUOUS
10
140.4000000000000057
20
-85.25
11
139.1999999999999886
21
-85.25
0
LINE
8
BLACK
6
CONTINUOUS
10
139.1999999999999886
20
-85.25
11
139.104329000000007
21
-85.2309699999999992
0
LINE
8
BLACK
6
CONTINUOUS
10
139.104329000000007
20
-85.2309699999999992
11
139.0232230000000015
21
-85.1767770000000013
0
LINE
8
BLACK
6
CONTINUOUS
10
139.0232230000000015
20
-85.1767770000000013
11
138.9690300000000036
21
-85.0956709999999958
0
LINE
8
BLACK
6
CONTINUOUS
10
138.9690300000000036
20
-85.0956709999999958
11
138.9499999999999886
21
-85.
0
LINE
8
BLACK
6
CONTINUOUS
10
138.9499999999999886
20
-85.
11
138.9499999999999886
21
-84.3742639999999966
0
LINE
8
BLACK
6
CONTINUOUS
10
138.9499999999999886
20
-84.3742639999999966
11
136.918329
21
-82.3425929999999937
0
LINE
8
BLACK
6
CONTINUOUS
10
136.918329
20
-82.3425929999999937
11
136.8275150000000053
21
-82.433408
0
LINE
8
BLACK
6
CONTINUOUS
10
136.8275150000000053
20
-82.433408
11
136.6971169999999915
21
-82.5205369999999903
0
LINE
8
BLACK
6
CONTINUOUS
10
136.6971169999999915
20
-82.5205369999999903
11
136.5522279999999853
21
-82.5805519999999973
0
LINE
8
BLACK
6
CONTINUOUS
10
136.5522279999999853
20
-82.5805519999999973
11
136.3984140000000025
21
-82.611148
0
LINE
8
BLACK
6
CONTINUOUS
10
136.3984140000000025
20
-82.611148
11
136.2415859999999839
21
-82.611148
0
LINE
8
BLACK
6
CONTINUOUS
10
136.2415859999999839
20
-82.611148
11
136.0877720000000011
21
-82.5805519999999973
0
LINE
8
BLACK
6
CONTINUOUS
10
136.0877720000000011
20
-82.5805519999999973
11
135.9428829999999948
21
-82.5205369999999903
0
LINE
8
BLACK
6
CONTINUOUS
10
135.9428829999999948
20
-82.5205369999999903
11
135.812484999999981
21
-82.433408
0
LINE
8
BLACK
6
CONTINUOUS
10
135.812484999999981
20
-82.433408
11
135.7015920000000051
21
-82.3225149999999957
0
LINE
8
BLACK
6
CONTINUOUS
10
135.7015920000000051
20
-82.3225149999999957
11
135.6144630000000006
21
-82.1921169999999961
0
LINE
8
BLACK
6
CONTINUOUS
10
135.6144630000000006
20
-82.1921169999999961
11
135.5544480000000078
21
-82.0472279999999898
0
LINE
8
BLACK
6
CONTINUOUS
10
135.5544480000000078
20
-82.0472279999999898
11
135.5238520000000051
21
-81.8934139999999928
0
LINE
8
BLACK
6
CONTINUOUS
10
135.5238520000000051
20
-81.8934139999999928
11
135.5238520000000051
21
-81.7365860000000026
0
LINE
8
BLACK
6
CONTINUOUS
10
135.5238520000000051
20
-81.7365860000000026
11
135.5544480000000078
21
-81.5827719999999914
0
LINE
8
BLACK
6
CONTINUOUS
10
135.5544480000000078
20
-81.5827719999999914
11
135.6144630000000006
21
-81.4378829999999994
0
LINE
8
BLACK
6
CONTINUOUS
10
135.6144630000000006
20
-81.4378829999999994
11
135.7015920000000051
21
-81.3074849999999998
0
LINE
8
BLACK
6
CONTINUOUS
10
135.7015920000000051
20
-81.3074849999999998
11
135.812484999999981
21
-81.1965919999999954
0
LINE
8
BLACK
6
CONTINUOUS
10
135.812484999999981
20
-81.1965919999999954
11
135.9428829999999948
21
-81.109462999999991
0
LINE
8
BLACK
6
CONTINUOUS
10
135.9428829999999948
20
-81.109462999999991
11
136.0877720000000011
21
-81.0494479999999982
0
LINE
8
BLACK
6
CONTINUOUS
10
136.0877720000000011
20
-81.0494479999999982
11
136.2415859999999839
21
-81.0188519999999954
0
LINE
8
BLACK
6
CONTINUOUS
10
136.2415859999999839
20
-81.0188519999999954
11
136.3984140000000025
21
-81.0188519999999954
0
LINE
8
BLACK
6
CONTINUOUS
10
136.3984140000000025
20
-81.0188519999999954
11
136.5522279999999853
21
-81.0494479999999982
0
LINE
8
BLACK
6
CONTINUOUS
10
141.895670999999993
20
-68.5690299999999979
11
141.9767769999999985
21
-68.6232229999999959
0
LINE
8
BLACK
6
CONTINUOUS
10
141.9767769999999985
20
-68.6232229999999959
11
142.0309699999999964
21
-68.7043290000000013
0
LINE
8
BLACK
6
CONTINUOUS
10
142.0309699999999964
20
-68.7043290000000013
11
142.0499999999999829
21
-68.7999999999999972
0
LINE
8
BLACK
6
CONTINUOUS
10
142.0499999999999829
20
-68.7999999999999972
11
142.0499999999999829
21
-70.
0
LINE
8
BLACK
6
CONTINUOUS
10
142.0499999999999829
20
-70.
11
142.0309699999999964
21
-70.0956709999999958
0
LINE
8
BLACK
6
CONTINUOUS
10
142.0309699999999964
20
-70.0956709999999958
11
141.9767769999999985
21
-70.1767770000000013
0
LINE
8
BLACK
6
CONTINUOUS
10
141.9767769999999985
20
-70.1767770000000013
11
141.895670999999993
21
-70.2309699999999992
0
LINE
8
BLACK
6
CONTINUOUS
10
141.895670999999993
20
-70.2309699999999992
11
141.7999999999999829
21
-70.25
0
LINE
8
BLACK
6
CONTINUOUS
10
141.7999999999999829
20
-70.25
11
141.375
21
-70.25
0
LINE
8
BLACK
6
CONTINUOUS
10
141.375
20
-70.25
11
141.375
21
-72.5999999999999943
0
LINE
8
BLACK
6
CONTINUOUS
10
141.375
20
-72.5999999999999943
11
141.3716369999999927
21
-72.6341409999999996
0
LINE
8
BLACK
6
CONTINUOUS
10
141.3716369999999927
20
-72.6341409999999996
11
141.3455069999999978
21
-72.6972250000000031
0
LINE
8
BLACK
6
CONTINUOUS
10
141.3455069999999978
20
-72.6972250000000031
11
141.3237430000000074
21
-72.7237439999999964
0
LINE
8
BLACK
6
CONTINUOUS
10
141.3237430000000074
20
-72.7237439999999964
11
140.9047439999999938
21
-73.1427439999999933
0
LINE
8
BLACK
6
CONTINUOUS
10
140.9047439999999938
20
-73.1427439999999933
11
140.8782290000000046
21
-73.1645019999999988
0
LINE
8
BLACK
6
CONTINUOUS
10
140.8782290000000046
20
-73.1645019999999988
11
140.8782249999999863
21
-73.1645070000000004
0
LINE
8
BLACK
6
CONTINUOUS
10
140.8782249999999863
20
-73.1645070000000004
11
140.8151409999999828
21
-73.1906369999999953
0
LINE
8
BLACK
6
CONTINUOUS
10
140.8151409999999828
20
-73.1906369999999953
11
140.7810000000000059
21
-73.1940000000000026
0
LINE
8
BLACK
6
CONTINUOUS
10
140.7810000000000059
20
-73.1940000000000026
11
140.6562610000000006
21
-73.1940000000000026
0
LINE
8
BLACK
6
CONTINUOUS
10
140.6562610000000006
20
-73.1940000000000026
11
140.3990000000000009
21
-73.4512610000000024
0
LINE
8
BLACK
6
CONTINUOUS
10
140.3990000000000009
20
-73.4512610000000024
11
140.3990000000000009
21
-80.566512000000003
0
LINE
8
BLACK
6
CONTINUOUS
10
140.3990000000000009
20
-80.566512000000003
11
140.9743670000000009
21
-81.141879000000003
0
LINE
8
BLACK
6
CONTINUOUS
10
140.9743670000000009
20
-81.141879000000003
11
141.0228830000000073
21
-81.109462999999991
0
LINE
8
BLACK
6
CONTINUOUS
10
141.0228830000000073
20
-81.109462999999991
11
141.1677719999999852
21
-81.0494479999999982
0
LINE
8
BLACK
6
CONTINUOUS
10
141.1677719999999852
20
-81.0494479999999982
11
141.3215859999999964
21
-81.0188519999999954
0
LINE
8
BLACK
6
CONTINUOUS
10
141.3215859999999964
20
-81.0188519999999954
11
141.4784139999999866
21
-81.0188519999999954
0
LINE
8
BLACK
6
CONTINUOUS
10
141.4784139999999866
20
-81.0188519999999954
11
141.6322279999999978
21
-81.0494479999999982
0
LINE
8
BLACK
6
CONTINUOUS
10
141.6322279999999978
20
-81.0494479999999982
11
141.7771170000000041
21
-81.109462999999991
0
LINE
8
BLACK
6
CONTINUOUS
10
141.7771170000000041
20
-81.109462999999991
11
141.9075149999999894
21
-81.1965919999999954
0
LINE
8
BLACK
6
CONTINUOUS
10
141.9075149999999894
20
-81.1965919999999954
11
142.0184079999999938
21
-81.3074849999999998
0
LINE
8
BLACK
6
CONTINUOUS
10
142.0184079999999938
20
-81.3074849999999998
11
142.1055369999999982
21
-81.4378829999999994
0
LINE
8
BLACK
6
CONTINUOUS
10
142.1055369999999982
20
-81.4378829999999994
11
142.165551999999991
21
-81.5827719999999914
0
LINE
8
BLACK
6
CONTINUOUS
10
142.165551999999991
20
-81.5827719999999914
11
142.1961479999999938
21
-81.7365860000000026
0
LINE
8
BLACK
6
CONTINUOUS
10
142.1961479999999938
20
-81.7365860000000026
11
142.1961479999999938
21
-81.8934139999999928
0
LINE
8
BLACK
6
CONTINUOUS
10
142.1961479999999938
20
-81.8934139999999928
11
142.165551999999991
21
-82.0472279999999898
0
LINE
8
BLACK
6
CONTINUOUS
10
142.165551999999991
20
-82.0472279999999898
11
142.133609000000007
21
-82.124344999999991
0
LINE
8
BLACK
6
CONTINUOUS
10
142.133609000000007
20
-82.124344999999991
11
143.0121319999999798
21
-83.0028679999999923
0
LINE
8
BLACK
6
CONTINUOUS
10
143.0121319999999798
20
-83.0028679999999923
11
143.0380059999999958
21
-83.0323719999999952
0
LINE
8
BLACK
6
CONTINUOUS
10
143.0380059999999958
20
-83.0323719999999952
11
143.077163999999982
21
-83.1001949999999994
0
LINE
8
BLACK
6
CONTINUOUS
10
143.077163999999982
20
-83.1001949999999994
11
143.0974329999999952
21
-83.1758420000000029
0
LINE
8
BLACK
6
CONTINUOUS
10
143.0974329999999952
20
-83.1758420000000029
11
143.0999999999999943
21
-83.2149999999999892
0
LINE
8
BLACK
6
CONTINUOUS
10
143.0999999999999943
20
-83.2149999999999892
11
143.0999999999999943
21
-83.5499999999999972
0
LINE
8
BLACK
6
CONTINUOUS
10
143.0999999999999943
20
-83.5499999999999972
11
143.4000000000000057
21
-83.5499999999999972
0
LINE
8
BLACK
6
CONTINUOUS
10
143.4000000000000057
20
-83.5499999999999972
11
143.4956709999999873
21
-83.5690299999999979
0
LINE
8
BLACK
6
CONTINUOUS
10
143.4956709999999873
20
-83.5690299999999979
11
143.5767769999999928
21
-83.6232229999999959
0
LINE
8
BLACK
6
CONTINUOUS
10
143.5767769999999928
20
-83.6232229999999959
11
143.6309699999999907
21
-83.7043290000000013
0
LINE
8
BLACK
6
CONTINUOUS
10
143.6309699999999907
20
-83.7043290000000013
11
143.6500000000000057
21
-83.7999999999999972
0
LINE
8
BLACK
6
CONTINUOUS
10
143.6500000000000057
20
-83.7999999999999972
11
143.6500000000000057
21
-85.
0
LINE
8
BLACK
6
CONTINUOUS
10
143.6500000000000057
20
-85.
11
143.6309699999999907
21
-85.0956709999999958
0
LINE
8
BLACK
6
CONTINUOUS
10
143.6309699999999907
20
-85.0956709999999958
11
143.5767769999999928
21
-85.1767770000000013
0
LINE
8
BLACK
6
CONTINUOUS
10
143.5767769999999928
20
-85.1767770000000013
11
143.4956709999999873
21
-85.2309699999999992
0
LINE
8
BLACK
6
CONTINUOUS
10
143.4956709999999873
20
-85.2309699999999992
11
143.4000000000000057
21
-85.25
0
LINE
8
BLACK
6
CONTINUOUS
10
143.4000000000000057
20
-85.25
11
142.1999999999999886
21
-85.25
0
LINE
8
BLACK
6
CONTINUOUS
10
142.1999999999999886
20
-85.25
11
142.104329000000007
21
-85.2309699999999992
0
LINE
8
BLACK
6
CONTINUOUS
10
142.104329000000007
20
-85.2309699999999992
11
142.0232230000000015
21
-85.1767770000000013
0
LINE
8
BLACK
6
CONTINUOUS
10
142.0232230000000015
20
-85.1767770000000013
11
141.9690300000000036
21
-85.0956709999999958
0
LINE
8
BLACK
6
CONTINUOUS
10
141.9690300000000036
20
-85.0956709999999958
11
141.9499999999999886
21
-85.
0
LINE
8
BLACK
6
CONTINUOUS
10
141.9499999999999886
20
-85.
11
141.9499999999999886
21
-83.7999999999999972
0
LINE
8
BLACK
6
CONTINUOUS
10
141.9499999999999886
20
-83.7999999999999972
11
141.9690300000000036
21
-83.7043290000000013
0
LINE
8
BLACK
6
CONTINUOUS
10
141.9690300000000036
20
-83.7043290000000013
11
142.0232230000000015
21
-83.6232229999999959
0
LINE
8
BLACK
6
CONTINUOUS
10
142.0232230000000015
20
-83.6232229999999959
11
142.104329000000007
21
-83.5690299999999979
0
LINE
8
BLACK
6
CONTINUOUS
10
142.104329000000007
20
-83.5690299999999979
11
142.1999999999999886
21
-83.5499999999999972
0
LINE
8
BLACK
6
CONTINUOUS
10
142.1999999999999886
20
-83.5499999999999972
11
142.5
21
-83.5499999999999972
0
LINE
8
BLACK
6
CONTINUOUS
10
142.5
20
-83.5499999999999972
11
142.5
21
-83.339264
0
LINE
8
BLACK
6
CONTINUOUS
10
142.5
20
-83.339264
11
141.7093449999999848
21
-82.548608999999999
0
LINE
8
BLACK
6
CONTINUOUS
10
141.7093449999999848
20
-82.548608999999999
11
141.6322279999999978
21
-82.5805519999999973
0
LINE
8
BLACK
6
CONTINUOUS
10
141.6322279999999978
20
-82.5805519999999973
11
141.4784139999999866
21
-82.611148
0
LINE
8
BLACK
6
CONTINUOUS
10
141.4784139999999866
20
-82.611148
11
141.3215859999999964
21
-82.611148
0
LINE
8
BLACK
6
CONTINUOUS
10
141.3215859999999964
20
-82.611148
11
141.1677719999999852
21
-82.5805519999999973
0
LINE
8
BLACK
6
CONTINUOUS
10
141.1677719999999852
20
-82.5805519999999973
11
141.0228830000000073
21
-82.5205369999999903
0
LINE
8
BLACK
6
CONTINUOUS
10
141.0228830000000073
20
-82.5205369999999903
11
140.8924849999999935
21
-82.433408
0
LINE
8
BLACK
6
CONTINUOUS
10
140.8924849999999935
20
-82.433408
11
140.7815919999999892
21
-82.3225149999999957
0
LINE
8
BLACK
6
CONTINUOUS
10
140.7815919999999892
20
-82.3225149999999957
11
140.6944629999999847
21
-82.1921169999999961
0
LINE
8
BLACK
6
CONTINUOUS
10
140.6944629999999847
20
-82.1921169999999961
11
140.6344479999999919
21
-82.0472279999999898
0
LINE
8
BLACK
6
CONTINUOUS
10
140.6344479999999919
20
-82.0472279999999898
11
140.6038519999999892
21
-81.8934139999999928
0
LINE
8
BLACK
6
CONTINUOUS
10
140.6038519999999892
20
-81.8934139999999928
11
140.6038519999999892
21
-81.7365860000000026
0
LINE
8
BLACK
6
CONTINUOUS
10
140.6038519999999892
20
-81.7365860000000026
11
140.6344479999999919
21
-81.5827719999999914
0
LINE
8
BLACK
6
CONTINUOUS
10
140.6344479999999919
20
-81.5827719999999914
11
140.6944629999999847
21
-81.4378829999999994
0
LINE
8
BLACK
6
CONTINUOUS
10
140.6944629999999847
20
-81.4378829999999994
11
140.7268789999999967
21
-81.3893669999999929
0
LINE
8
BLACK
6
CONTINUOUS
10
140.7268789999999967
20
-81.3893669999999929
11
140.1002560000000017
21
-80.7627439999999979
0
LINE
8
BLACK
6
CONTINUOUS
10
140.1002560000000017
20
-80.7627439999999979
11
140.0784969999999987
21
-80.7362289999999945
0
LINE
8
BLACK
6
CONTINUOUS
10
140.0784969999999987
20
-80.7362289999999945
11
140.0784929999999804
21
-80.7362249999999904
0
LINE
8
BLACK
6
CONTINUOUS
10
140.0784929999999804
20
-80.7362249999999904
11
140.0523629999999855
21
-80.6731410000000011
0
LINE
8
BLACK
6
CONTINUOUS
10
140.0523629999999855
20
-80.6731410000000011
11
140.0490000000000066
21
-80.6389999999999958
0
LINE
8
BLACK
6
CONTINUOUS
10
140.0490000000000066
20
-80.6389999999999958
11
140.0490000000000066
21
-73.3787739999999928
0
LINE
8
BLACK
6
CONTINUOUS
10
140.0490000000000066
20
-73.3787739999999928
11
140.0523629999999855
21
-73.3446330000000017
0
LINE
8
BLACK
6
CONTINUOUS
10
140.0523629999999855
20
-73.3446330000000017
11
140.0784929999999804
21
-73.2815489999999983
0
LINE
8
BLACK
6
CONTINUOUS
10
140.0784929999999804
20
-73.2815489999999983
11
140.0784969999999987
21
-73.2815439999999967
0
LINE
8
BLACK
6
CONTINUOUS
10
140.0784969999999987
20
-73.2815439999999967
11
140.1002560000000017
21
-73.2550299999999908
0
LINE
8
BLACK
6
CONTINUOUS
10
140.1002560000000017
20
-73.2550299999999908
11
140.4600299999999891
21
-72.8952570000000009
0
LINE
8
BLACK
6
CONTINUOUS
10
140.4600299999999891
20
-72.8952570000000009
11
140.4865489999999966
21
-72.8734929999999963
0
LINE
8
BLACK
6
CONTINUOUS
10
140.4865489999999966
20
-72.8734929999999963
11
140.549633
21
-72.8473630000000014
0
LINE
8
BLACK
6
CONTINUOUS
10
140.549633
20
-72.8473630000000014
11
140.5837740000000053
21
-72.8439999999999941
0
LINE
8
BLACK
6
CONTINUOUS
10
140.5837740000000053
20
-72.8439999999999941
11
140.7085119999999847
21
-72.8439999999999941
0
LINE
8
BLACK
6
CONTINUOUS
10
140.7085119999999847
20
-72.8439999999999941
11
141.0250000000000057
21
-72.5275120000000015
0
LINE
8
BLACK
6
CONTINUOUS
10
141.0250000000000057
20
-72.5275120000000015
11
141.0250000000000057
21
-70.25
0
LINE
8
BLACK
6
CONTINUOUS
10
141.0250000000000057
20
-70.25
11
140.5999999999999943
21
-70.25
0
LINE
8
BLACK
6
CONTINUOUS
10
140.5999999999999943
20
-70.25
11
140.5043289999999843
21
-70.2309699999999992
0
LINE
8
BLACK
6
CONTINUOUS
10
140.5043289999999843
20
-70.2309699999999992
11
140.4232230000000072
21
-70.1767770000000013
0
LINE
8
BLACK
6
CONTINUOUS
10
140.4232230000000072
20
-70.1767770000000013
11
140.3690299999999809
21
-70.0956709999999958
0
LINE
8
BLACK
6
CONTINUOUS
10
140.3690299999999809
20
-70.0956709999999958
11
140.3499999999999943
21
-70.
0
LINE
8
BLACK
6
CONTINUOUS
10
140.3499999999999943
20
-70.
11
140.3499999999999943
21
-68.7999999999999972
0
LINE
8
BLACK
6
CONTINUOUS
10
140.3499999999999943
20
-68.7999999999999972
11
140.3690299999999809
21
-68.7043290000000013
0
LINE
8
BLACK
6
CONTINUOUS
10
140.3690299999999809
20
-68.7043290000000013
11
140.4232230000000072
21
-68.6232229999999959
0
LINE
8
BLACK
6
CONTINUOUS
10
140.4232230000000072
20
-68.6232229999999959
11
140.5043289999999843
21
-68.5690299999999979
0
LINE
8
BLACK
6
CONTINUOUS
10
140.5043289999999843
20
-68.5690299999999979
11
140.5999999999999943
21
-68.5499999999999972
0
LINE
8
BLACK
6
CONTINUOUS
10
140.5999999999999943
20
-68.5499999999999972
11
141.7999999999999829
21
-68.5499999999999972
0
LINE
8
BLACK
6
CONTINUOUS
10
141.7999999999999829
20
-68.5499999999999972
11
141.895670999999993
21
-68.5690299999999979
0
LINE
8
BLACK
6
CONTINUOUS
10
142.3457919999999888
20
-67.9528430000000014
11
142.4178880000000049
21
-67.9827059999999932
0
LINE
8
BLACK
6
CONTINUOUS
10
142.4178880000000049
20
-67.9827059999999932
11
142.4481949999999983
21
-68.0075789999999927
0
LINE
8
BLACK
6
CONTINUOUS
10
142.4481949999999983
20
-68.0075789999999927
11
142.9414209999999912
21
-68.5008049999999997
0
LINE
8
BLACK
6
CONTINUOUS
10
142.9414209999999912
20
-68.5008049999999997
11
142.9662940000000049
21
-68.5311119999999931
0
LINE
8
BLACK
6
CONTINUOUS
10
142.9662940000000049
20
-68.5311119999999931
11
142.9961569999999824
21
-68.6032079999999951
0
LINE
8
BLACK
6
CONTINUOUS
10
142.9961569999999824
20
-68.6032079999999951
11
143.
21
-68.6422259999999937
0
LINE
8
BLACK
6
CONTINUOUS
10
143.
20
-68.6422259999999937
11
143.
21
-70.75
0
LINE
8
BLACK
6
CONTINUOUS
10
143.
20
-70.75
11
143.4000000000000057
21
-70.75
0
LINE
8
BLACK
6
CONTINUOUS
10
143.4000000000000057
20
-70.75
11
143.4956709999999873
21
-70.7690300000000008
0
LINE
8
BLACK
6
CONTINUOUS
10
143.4956709999999873
20
-70.7690300000000008
11
143.5767769999999928
21
-70.8232229999999987
0
LINE
8
BLACK
6
CONTINUOUS
10
143.5767769999999928
20
-70.8232229999999987
11
143.6309699999999907
21
-70.9043289999999899
0
LINE
8
BLACK
6
CONTINUOUS
10
143.6309699999999907
20
-70.9043289999999899
11
143.6500000000000057
21
-71.
0
LINE
8
BLACK
6
CONTINUOUS
10
143.6500000000000057
20
-71.
11
143.6500000000000057
21
-72.2000000000000028
0
LINE
8
BLACK
6
CONTINUOUS
10
143.6500000000000057
20
-72.2000000000000028
11
143.6309699999999907
21
-72.2956709999999987
0
LINE
8
BLACK
6
CONTINUOUS
10
143.6309699999999907
20
-72.2956709999999987
11
143.5767769999999928
21
-72.3767769999999899
0
LINE
8
BLACK
6
CONTINUOUS
10
143.5767769999999928
20
-72.3767769999999899
11
143.4956709999999873
21
-72.4309700000000021
0
LINE
8
BLACK
6
CONTINUOUS
10
143.4956709999999873
20
-72.4309700000000021
11
143.4000000000000057
21
-72.4500000000000028
0
LINE
8
BLACK
6
CONTINUOUS
10
143.4000000000000057
20
-72.4500000000000028
11
142.1999999999999886
21
-72.4500000000000028
0
LINE
8
BLACK
6
CONTINUOUS
10
142.1999999999999886
20
-72.4500000000000028
11
142.104329000000007
21
-72.4309700000000021
0
LINE
8
BLACK
6
CONTINUOUS
10
142.104329000000007
20
-72.4309700000000021
11
142.0232230000000015
21
-72.3767769999999899
0
LINE
8
BLACK
6
CONTINUOUS
10
142.0232230000000015
20
-72.3767769999999899
11
141.9690300000000036
21
-72.2956709999999987
0
LINE
8
BLACK
6
CONTINUOUS
10
141.9690300000000036
20
-72.2956709999999987
11
141.9499999999999886
21
-72.2000000000000028
0
LINE
8
BLACK
6
CONTINUOUS
10
141.9499999999999886
20
-72.2000000000000028
11
141.9499999999999886
21
-71.
0
LINE
8
BLACK
6
CONTINUOUS
10
141.9499999999999886
20
-71.
11
141.9690300000000036
21
-70.9043289999999899
0
LINE
8
BLACK
6
CONTINUOUS
10
141.9690300000000036
20
-70.9043289999999899
11
142.0232230000000015
21
-70.8232229999999987
0
LINE
8
BLACK
6
CONTINUOUS
10
142.0232230000000015
20
-70.8232229999999987
11
142.104329000000007
21
-70.7690300000000008
0
LINE
8
BLACK
6
CONTINUOUS
10
142.104329000000007
20
-70.7690300000000008
11
142.1999999999999886
21
-70.75
0
LINE
8
BLACK
6
CONTINUOUS
10
142.1999999999999886
20
-70.75
11
142.5999999999999943
21
-70.75
0
LINE
8
BLACK
6
CONTINUOUS
10
142.5999999999999943
20
-70.75
11
142.5999999999999943
21
-68.7250679999999932
0
LINE
8
BLACK
6
CONTINUOUS
10
142.5999999999999943
20
-68.7250679999999932
11
142.2239319999999907
21
-68.3490000000000038
0
LINE
8
BLACK
6
CONTINUOUS
10
142.2239319999999907
20
-68.3490000000000038
11
140.4062629999999956
21
-68.3490000000000038
0
LINE
8
BLACK
6
CONTINUOUS
10
140.4062629999999956
20
-68.3490000000000038
11
138.3009999999999877
21
-70.4542619999999999
0
LINE
8
BLACK
6
CONTINUOUS
10
138.3009999999999877
20
-70.4542619999999999
11
138.3009999999999877
21
-71.3999999999999915
0
LINE
8
BLACK
6
CONTINUOUS
10
138.3009999999999877
20
-71.3999999999999915
11
138.2971569999999986
21
-71.4390179999999901
0
LINE
8
BLACK
6
CONTINUOUS
10
138.2971569999999986
20
-71.4390179999999901
11
138.275999999999982
21
-71.4900949999999966
0
LINE
8
BLACK
6
CONTINUOUS
10
138.275999999999982
20
-71.4900949999999966
11
138.275999999999982
21
-73.2908839999999913
0
LINE
8
BLACK
6
CONTINUOUS
10
138.275999999999982
20
-73.2908839999999913
11
138.2726370000000031
21
-73.3250249999999966
0
LINE
8
BLACK
6
CONTINUOUS
10
138.2726370000000031
20
-73.3250249999999966
11
138.2465069999999798
21
-73.388109
0
LINE
8
BLACK
6
CONTINUOUS
10
138.2465069999999798
20
-73.388109
11
138.2465019999999924
21
-73.3881129999999899
0
LINE
8
BLACK
6
CONTINUOUS
10
138.2465019999999924
20
-73.3881129999999899
11
138.224743999999987
21
-73.4146279999999933
0
LINE
8
BLACK
6
CONTINUOUS
10
138.224743999999987
20
-73.4146279999999933
11
137.8589999999999804
21
-73.7803719999999998
0
LINE
8
BLACK
6
CONTINUOUS
10
137.8589999999999804
20
-73.7803719999999998
11
137.8589999999999804
21
-80.566512000000003
0
LINE
8
BLACK
6
CONTINUOUS
10
137.8589999999999804
20
-80.566512000000003
11
138.4343669999999804
21
-81.141879000000003
0
LINE
8
BLACK
6
CONTINUOUS
10
138.4343669999999804
20
-81.141879000000003
11
138.4828829999999869
21
-81.109462999999991
0
LINE
8
BLACK
6
CONTINUOUS
10
138.4828829999999869
20
-81.109462999999991
11
138.6277719999999931
21
-81.0494479999999982
0
LINE
8
BLACK
6
CONTINUOUS
10
138.6277719999999931
20
-81.0494479999999982
11
138.7815860000000043
21
-81.0188519999999954
0
LINE
8
BLACK
6
CONTINUOUS
10
138.7815860000000043
20
-81.0188519999999954
11
138.9384139999999945
21
-81.0188519999999954
0
LINE
8
BLACK
6
CONTINUOUS
10
138.9384139999999945
20
-81.0188519999999954
11
139.0922280000000057
21
-81.0494479999999982
0
LINE
8
BLACK
6
CONTINUOUS
10
139.0922280000000057
20
-81.0494479999999982
11
139.2371169999999836
21
-81.109462999999991
0
LINE
8
BLACK
6
CONTINUOUS
10
139.2371169999999836
20
-81.109462999999991
11
139.3675149999999974
21
-81.1965919999999954
0
LINE
8
BLACK
6
CONTINUOUS
10
139.3675149999999974
20
-81.1965919999999954
11
139.4784080000000017
21
-81.3074849999999998
0
LINE
8
BLACK
6
CONTINUOUS
10
139.4784080000000017
20
-81.3074849999999998
11
139.5655370000000062
21
-81.4378829999999994
0
LINE
8
BLACK
6
CONTINUOUS
10
139.5655370000000062
20
-81.4378829999999994
11
139.625551999999999
21
-81.5827719999999914
0
LINE
8
BLACK
6
CONTINUOUS
10
139.625551999999999
20
-81.5827719999999914
11
139.6561480000000017
21
-81.7365860000000026
0
LINE
8
BLACK
6
CONTINUOUS
10
139.6561480000000017
20
-81.7365860000000026
11
139.6561480000000017
21
-81.8934139999999928
0
LINE
8
BLACK
6
CONTINUOUS
10
139.6561480000000017
20
-81.8934139999999928
11
139.625551999999999
21
-82.0472279999999898
0
LINE
8
BLACK
6
CONTINUOUS
10
139.625551999999999
20
-82.0472279999999898
11
139.5655370000000062
21
-82.1921169999999961
0
LINE
8
BLACK
6
CONTINUOUS
10
139.5655370000000062
20
-82.1921169999999961
11
139.4784080000000017
21
-82.3225149999999957
0
LINE
8
BLACK
6
CONTINUOUS
10
139.4784080000000017
20
-82.3225149999999957
11
139.3675149999999974
21
-82.433408
0
LINE
8
BLACK
6
CONTINUOUS
10
139.3675149999999974
20
-82.433408
11
139.2371169999999836
21
-82.5205369999999903
0
LINE
8
BLACK
6
CONTINUOUS
10
139.2371169999999836
20
-82.5205369999999903
11
139.0922280000000057
21
-82.5805519999999973
0
LINE
8
BLACK
6
CONTINUOUS
10
139.0922280000000057
20
-82.5805519999999973
11
138.9384139999999945
21
-82.611148
0
LINE
8
BLACK
6
CONTINUOUS
10
138.9384139999999945
20
-82.611148
11
138.7815860000000043
21
-82.611148
0
LINE
8
BLACK
6
CONTINUOUS
10
138.7815860000000043
20
-82.611148
11
138.6277719999999931
21
-82.5805519999999973
0
LINE
8
BLACK
6
CONTINUOUS
10
138.6277719999999931
20
-82.5805519999999973
11
138.4828829999999869
21
-82.5205369999999903
0
LINE
8
BLACK
6
CONTINUOUS
10
138.4828829999999869
20
-82.5205369999999903
11
138.3524850000000015
21
-82.433408
0
LINE
8
BLACK
6
CONTINUOUS
10
138.3524850000000015
20
-82.433408
11
138.2415919999999971
21
-82.3225149999999957
0
LINE
8
BLACK
6
CONTINUOUS
10
138.2415919999999971
20
-82.3225149999999957
11
138.1544629999999927
21
-82.1921169999999961
0
LINE
8
BLACK
6
CONTINUOUS
10
138.1544629999999927
20
-82.1921169999999961
11
138.0944479999999999
21
-82.0472279999999898
0
LINE
8
BLACK
6
CONTINUOUS
10
138.0944479999999999
20
-82.0472279999999898
11
138.0638519999999971
21
-81.8934139999999928
0
LINE
8
BLACK
6
CONTINUOUS
10
138.0638519999999971
20
-81.8934139999999928
11
138.0638519999999971
21
-81.7365860000000026
0
LINE
8
BLACK
6
CONTINUOUS
10
138.0638519999999971
20
-81.7365860000000026
11
138.0944479999999999
21
-81.5827719999999914
0
LINE
8
BLACK
6
CONTINUOUS
10
138.0944479999999999
20
-81.5827719999999914
11
138.1544629999999927
21
-81.4378829999999994
0
LINE
8
BLACK
6
CONTINUOUS
10
138.1544629999999927
20
-81.4378829999999994
11
138.1868790000000047
21
-81.3893669999999929
0
LINE
8
BLACK
6
CONTINUOUS
10
138.1868790000000047
20
-81.3893669999999929
11
137.5602559999999812
21
-80.7627439999999979
0
LINE
8
BLACK
6
CONTINUOUS
10
137.5602559999999812
20
-80.7627439999999979
11
137.5384970000000067
21
-80.7362289999999945
0
LINE
8
BLACK
6
CONTINUOUS
10
137.5384970000000067
20
-80.7362289999999945
11
137.5384929999999883
21
-80.7362249999999904
0
LINE
8
BLACK
6
CONTINUOUS
10
137.5384929999999883
20
-80.7362249999999904
11
137.5123629999999935
21
-80.6731410000000011
0
LINE
8
BLACK
6
CONTINUOUS
10
137.5123629999999935
20
-80.6731410000000011
11
137.5089999999999861
21
-80.6389999999999958
0
LINE
8
BLACK
6
CONTINUOUS
10
137.5089999999999861
20
-80.6389999999999958
11
137.5089999999999861
21
-73.7078839999999929
0
LINE
8
BLACK
6
CONTINUOUS
10
137.5089999999999861
20
-73.7078839999999929
11
137.5123629999999935
21
-73.6737430000000018
0
LINE
8
BLACK
6
CONTINUOUS
10
137.5123629999999935
20
-73.6737430000000018
11
137.5384929999999883
21
-73.6106589999999983
0
LINE
8
BLACK
6
CONTINUOUS
10
137.5384929999999883
20
-73.6106589999999983
11
137.5384970000000067
21
-73.6106539999999967
0
LINE
8
BLACK
6
CONTINUOUS
10
137.5384970000000067
20
-73.6106539999999967
11
137.5602559999999812
21
-73.5841399999999908
0
LINE
8
BLACK
6
CONTINUOUS
10
137.5602559999999812
20
-73.5841399999999908
11
137.9259999999999877
21
-73.2183959999999985
0
LINE
8
BLACK
6
CONTINUOUS
10
137.9259999999999877
20
-73.2183959999999985
11
137.9259999999999877
21
-71.4900949999999966
0
LINE
8
BLACK
6
CONTINUOUS
10
137.9259999999999877
20
-71.4900949999999966
11
137.9048429999999996
21
-71.4390179999999901
0
LINE
8
BLACK
6
CONTINUOUS
10
137.9048429999999996
20
-71.4390179999999901
11
137.900999999999982
21
-71.3999999999999915
0
LINE
8
BLACK
6
CONTINUOUS
10
137.900999999999982
20
-71.3999999999999915
11
137.900999999999982
21
-70.3714200000000005
0
LINE
8
BLACK
6
CONTINUOUS
10
137.900999999999982
20
-70.3714200000000005
11
137.9048429999999996
21
-70.3324020000000019
0
LINE
8
BLACK
6
CONTINUOUS
10
137.9048429999999996
20
-70.3324020000000019
11
137.9347060000000056
21
-70.2603059999999999
0
LINE
8
BLACK
6
CONTINUOUS
10
137.9347060000000056
20
-70.2603059999999999
11
137.9595789999999909
21
-70.2299989999999923
0
LINE
8
BLACK
6
CONTINUOUS
10
137.9595789999999909
20
-70.2299989999999923
11
140.1819989999999905
21
-68.0075779999999952
0
LINE
8
BLACK
6
CONTINUOUS
10
140.1819989999999905
20
-68.0075779999999952
11
140.2123059999999839
21
-67.9827059999999932
0
LINE
8
BLACK
6
CONTINUOUS
10
140.2123059999999839
20
-67.9827059999999932
11
140.284402
21
-67.9528430000000014
0
LINE
8
BLACK
6
CONTINUOUS
10
140.284402
20
-67.9528430000000014
11
140.3234199999999987
21
-67.9489999999999981
0
LINE
8
BLACK
6
CONTINUOUS
10
140.3234199999999987
20
-67.9489999999999981
11
142.3067739999999901
21
-67.9489999999999981
0
LINE
8
BLACK
6
CONTINUOUS
10
142.3067739999999901
20
-67.9489999999999981
11
142.3457919999999888
21
-67.9528430000000014
0
LINE
8
BLACK
6
CONTINUOUS
10
142.0456709999999987
20
-73.4140299999999968
11
142.1267770000000041
21
-73.4682229999999947
0
LINE
8
BLACK
6
CONTINUOUS
10
142.1267770000000041
20
-73.4682229999999947
11
142.1809700000000021
21
-73.5493290000000002
0
LINE
8
BLACK
6
CONTINUOUS
10
142.1809700000000021
20
-73.5493290000000002
11
142.1999999999999886
21
-73.644999999999996
0
LINE
8
BLACK
6
CONTINUOUS
10
142.1999999999999886
20
-73.644999999999996
11
142.1999999999999886
21
-74.7449999999999903
0
LINE
8
BLACK
6
CONTINUOUS
10
142.1999999999999886
20
-74.7449999999999903
11
142.1809700000000021
21
-74.8406710000000004
0
LINE
8
BLACK
6
CONTINUOUS
10
142.1809700000000021
20
-74.8406710000000004
11
142.1267770000000041
21
-74.9217769999999916
0
LINE
8
BLACK
6
CONTINUOUS
10
142.1267770000000041
20
-74.9217769999999916
11
142.0456709999999987
21
-74.9759699999999896
0
LINE
8
BLACK
6
CONTINUOUS
10
142.0456709999999987
20
-74.9759699999999896
11
141.9499999999999886
21
-74.9949999999999903
0
LINE
8
BLACK
6
CONTINUOUS
10
141.9499999999999886
20
-74.9949999999999903
11
140.8499999999999943
21
-74.9949999999999903
0
LINE
8
BLACK
6
CONTINUOUS
10
140.8499999999999943
20
-74.9949999999999903
11
140.7543289999999843
21
-74.9759699999999896
0
LINE
8
BLACK
6
CONTINUOUS
10
140.7543289999999843
20
-74.9759699999999896
11
140.6732230000000072
21
-74.9217769999999916
0
LINE
8
BLACK
6
CONTINUOUS
10
140.6732230000000072
20
-74.9217769999999916
11
140.6190299999999809
21
-74.8406710000000004
0
LINE
8
BLACK
6
CONTINUOUS
10
140.6190299999999809
20
-74.8406710000000004
11
140.5999999999999943
21
-74.7449999999999903
0
LINE
8
BLACK
6
CONTINUOUS
10
140.5999999999999943
20
-74.7449999999999903
11
140.5999999999999943
21
-73.644999999999996
0
LINE
8
BLACK
6
CONTINUOUS
10
140.5999999999999943
20
-73.644999999999996
11
140.6190299999999809
21
-73.5493290000000002
0
LINE
8
BLACK
6
CONTINUOUS
10
140.6190299999999809
20
-73.5493290000000002
11
140.6732230000000072
21
-73.4682229999999947
0
LINE
8
BLACK
6
CONTINUOUS
10
140.6732230000000072
20
-73.4682229999999947
11
140.7543289999999843
21
-73.4140299999999968
0
LINE
8
BLACK
6
CONTINUOUS
10
140.7543289999999843
20
-73.4140299999999968
11
140.8499999999999943
21
-73.394999999999996
0
LINE
8
BLACK
6
CONTINUOUS
10
140.8499999999999943
20
-73.394999999999996
11
141.9499999999999886
21
-73.394999999999996
0
LINE
8
BLACK
6
CONTINUOUS
10
141.9499999999999886
20
-73.394999999999996
11
142.0456709999999987
21
-73.4140299999999968
0
LINE
8
BLACK
6
CONTINUOUS
10
137.4956709999999873
20
-70.7690300000000008
11
137.5767769999999928
21
-70.8232229999999987
0
LINE
8
BLACK
6
CONTINUOUS
10
137.5767769999999928
20
-70.8232229999999987
11
137.6309699999999907
21
-70.9043289999999899
0
LINE
8
BLACK
6
CONTINUOUS
10
137.6309699999999907
20
-70.9043289999999899
11
137.6500000000000057
21
-71.
0
LINE
8
BLACK
6
CONTINUOUS
10
137.6500000000000057
20
-71.
11
137.6500000000000057
21
-72.2000000000000028
0
LINE
8
BLACK
6
CONTINUOUS
10
137.6500000000000057
20
-72.2000000000000028
11
137.6309699999999907
21
-72.2956709999999987
0
LINE
8
BLACK
6
CONTINUOUS
10
137.6309699999999907
20
-72.2956709999999987
11
137.5767769999999928
21
-72.3767769999999899
0
LINE
8
BLACK
6
CONTINUOUS
10
137.5767769999999928
20
-72.3767769999999899
11
137.4956709999999873
21
-72.4309700000000021
0
LINE
8
BLACK
6
CONTINUOUS
10
137.4956709999999873
20
-72.4309700000000021
11
137.4000000000000057
21
-72.4500000000000028
0
LINE
8
BLACK
6
CONTINUOUS
10
137.4000000000000057
20
-72.4500000000000028
11
136.9000000000000057
21
-72.4500000000000028
0
LINE
8
BLACK
6
CONTINUOUS
10
136.9000000000000057
20
-72.4500000000000028
11
136.9000000000000057
21
-73.6490769999999912
0
LINE
8
BLACK
6
CONTINUOUS
10
136.9000000000000057
20
-73.6490769999999912
11
136.9384079999999813
21
-73.6874849999999952
0
LINE
8
BLACK
6
CONTINUOUS
10
136.9384079999999813
20
-73.6874849999999952
11
137.0255369999999857
21
-73.8178829999999948
0
LINE
8
BLACK
6
CONTINUOUS
10
137.0255369999999857
20
-73.8178829999999948
11
137.085552000000007
21
-73.9627720000000011
0
LINE
8
BLACK
6
CONTINUOUS
10
137.085552000000007
20
-73.9627720000000011
11
137.1161479999999813
21
-74.1165859999999981
0
LINE
8
BLACK
6
CONTINUOUS
10
137.1161479999999813
20
-74.1165859999999981
11
137.1161479999999813
21
-74.2734140000000025
0
LINE
8
BLACK
6
CONTINUOUS
10
137.1161479999999813
20
-74.2734140000000025
11
137.085552000000007
21
-74.4272279999999995
0
LINE
8
BLACK
6
CONTINUOUS
10
137.085552000000007
20
-74.4272279999999995
11
137.0255369999999857
21
-74.5721169999999915
0
LINE
8
BLACK
6
CONTINUOUS
10
137.0255369999999857
20
-74.5721169999999915
11
136.9384079999999813
21
-74.7025149999999911
0
LINE
8
BLACK
6
CONTINUOUS
10
136.9384079999999813
20
-74.7025149999999911
11
136.8275150000000053
21
-74.8134079999999955
0
LINE
8
BLACK
6
CONTINUOUS
10
136.8275150000000053
20
-74.8134079999999955
11
136.6971169999999915
21
-74.9005369999999999
0
LINE
8
BLACK
6
CONTINUOUS
10
136.6971169999999915
20
-74.9005369999999999
11
136.5522279999999853
21
-74.9605519999999927
0
LINE
8
BLACK
6
CONTINUOUS
10
136.5522279999999853
20
-74.9605519999999927
11
136.3984140000000025
21
-74.9911479999999955
0
LINE
8
BLACK
6
CONTINUOUS
10
136.3984140000000025
20
-74.9911479999999955
11
136.2415859999999839
21
-74.9911479999999955
0
LINE
8
BLACK
6
CONTINUOUS
10
136.2415859999999839
20
-74.9911479999999955
11
136.0877720000000011
21
-74.9605519999999927
0
LINE
8
BLACK
6
CONTINUOUS
10
136.0877720000000011
20
-74.9605519999999927
11
135.9428829999999948
21
-74.9005369999999999
0
LINE
8
BLACK
6
CONTINUOUS
10
135.9428829999999948
20
-74.9005369999999999
11
135.812484999999981
21
-74.8134079999999955
0
LINE
8
BLACK
6
CONTINUOUS
10
135.812484999999981
20
-74.8134079999999955
11
135.7015920000000051
21
-74.7025149999999911
0
LINE
8
BLACK
6
CONTINUOUS
10
135.7015920000000051
20
-74.7025149999999911
11
135.6144630000000006
21
-74.5721169999999915
0
LINE
8
BLACK
6
CONTINUOUS
10
135.6144630000000006
20
-74.5721169999999915
11
135.5544480000000078
21
-74.4272279999999995
0
LINE
8
BLACK
6
CONTINUOUS
10
135.5544480000000078
20
-74.4272279999999995
11
135.5238520000000051
21
-74.2734140000000025
0
LINE
8
BLACK
6
CONTINUOUS
10
135.5238520000000051
20
-74.2734140000000025
11
135.5238520000000051
21
-74.1165859999999981
0
LINE
8
BLACK
6
CONTINUOUS
10
135.5238520000000051
20
-74.1165859999999981
11
135.5544480000000078
21
-73.9627720000000011
0
LINE
8
BLACK
6
CONTINUOUS
10
135.5544480000000078
20
-73.9627720000000011
11
135.6144630000000006
21
-73.8178829999999948
0
LINE
8
BLACK
6
CONTINUOUS
10
135.6144630000000006
20
-73.8178829999999948
11
135.7015920000000051
21
-73.6874849999999952
0
LINE
8
BLACK
6
CONTINUOUS
10
135.7015920000000051
20
-73.6874849999999952
11
135.812484999999981
21
-73.5765919999999909
0
LINE
8
BLACK
6
CONTINUOUS
10
135.812484999999981
20
-73.5765919999999909
11
135.9428829999999948
21
-73.4894630000000006
0
LINE
8
BLACK
6
CONTINUOUS
10
135.9428829999999948
20
-73.4894630000000006
11
136.0877720000000011
21
-73.4294479999999936
0
LINE
8
BLACK
6
CONTINUOUS
10
136.0877720000000011
20
-73.4294479999999936
11
136.2415859999999839
21
-73.3988519999999909
0
LINE
8
BLACK
6
CONTINUOUS
10
136.2415859999999839
20
-73.3988519999999909
11
136.2999999999999829
21
-73.3988519999999909
0
LINE
8
BLACK
6
CONTINUOUS
10
136.2999999999999829
20
-73.3988519999999909
11
136.2999999999999829
21
-72.4500000000000028
0
LINE
8
BLACK
6
CONTINUOUS
10
136.2999999999999829
20
-72.4500000000000028
11
136.1999999999999886
21
-72.4500000000000028
0
LINE
8
BLACK
6
CONTINUOUS
10
136.1999999999999886
20
-72.4500000000000028
11
136.104329000000007
21
-72.4309700000000021
0
LINE
8
BLACK
6
CONTINUOUS
10
136.104329000000007
20
-72.4309700000000021
11
136.0232230000000015
21
-72.3767769999999899
0
LINE
8
BLACK
6
CONTINUOUS
10
136.0232230000000015
20
-72.3767769999999899
11
135.9690300000000036
21
-72.2956709999999987
0
LINE
8
BLACK
6
CONTINUOUS
10
135.9690300000000036
20
-72.2956709999999987
11
135.9499999999999886
21
-72.2000000000000028
0
LINE
8
BLACK
6
CONTINUOUS
10
135.9499999999999886
20
-72.2000000000000028
11
135.9499999999999886
21
-71.
0
LINE
8
BLACK
6
CONTINUOUS
10
135.9499999999999886
20
-71.
11
135.9690300000000036
21
-70.9043289999999899
0
LINE
8
BLACK
6
CONTINUOUS
10
135.9690300000000036
20
-70.9043289999999899
11
136.0232230000000015
21
-70.8232229999999987
0
LINE
8
BLACK
6
CONTINUOUS
10
136.0232230000000015
20
-70.8232229999999987
11
136.104329000000007
21
-70.7690300000000008
0
LINE
8
BLACK
6
CONTINUOUS
10
136.104329000000007
20
-70.7690300000000008
11
136.1999999999999886
21
-70.75
0
LINE
8
BLACK
6
CONTINUOUS
10
136.1999999999999886
20
-70.75
11
137.4000000000000057
21
-70.75
0
LINE
8
BLACK
6
CONTINUOUS
10
137.4000000000000057
20
-70.75
11
137.4956709999999873
21
-70.7690300000000008
0
LINE
8
BLACK
6
CONTINUOUS
10
140.4956709999999873
20
-70.7690300000000008
11
140.5767769999999928
21
-70.8232229999999987
0
LINE
8
BLACK
6
CONTINUOUS
10
140.5767769999999928
20
-70.8232229999999987
11
140.6309699999999907
21
-70.9043289999999899
0
LINE
8
BLACK
6
CONTINUOUS
10
140.6309699999999907
20
-70.9043289999999899
11
140.6500000000000057
21
-71.
0
LINE
8
BLACK
6
CONTINUOUS
10
140.6500000000000057
20
-71.
11
140.6500000000000057
21
-72.2000000000000028
0
LINE
8
BLACK
6
CONTINUOUS
10
140.6500000000000057
20
-72.2000000000000028
11
140.6309699999999907
21
-72.2956709999999987
0
LINE
8
BLACK
6
CONTINUOUS
10
140.6309699999999907
20
-72.2956709999999987
11
140.5767769999999928
21
-72.3767769999999899
0
LINE
8
BLACK
6
CONTINUOUS
10
140.5767769999999928
20
-72.3767769999999899
11
140.4956709999999873
21
-72.4309700000000021
0
LINE
8
BLACK
6
CONTINUOUS
10
140.4956709999999873
20
-72.4309700000000021
11
140.4000000000000057
21
-72.4500000000000028
0
LINE
8
BLACK
6
CONTINUOUS
10
140.4000000000000057
20
-72.4500000000000028
11
139.3742639999999824
21
-72.4500000000000028
0
LINE
8
BLACK
6
CONTINUOUS
10
139.3742639999999824
20
-72.4500000000000028
11
139.1599999999999966
21
-72.6642640000000029
0
LINE
8
BLACK
6
CONTINUOUS
10
139.1599999999999966
20
-72.6642640000000029
11
139.1599999999999966
21
-73.4575200000000024
0
LINE
8
BLACK
6
CONTINUOUS
10
139.1599999999999966
20
-73.4575200000000024
11
139.2371169999999836
21
-73.4894630000000006
0
LINE
8
BLACK
6
CONTINUOUS
10
139.2371169999999836
20
-73.4894630000000006
11
139.3675149999999974
21
-73.5765919999999909
0
LINE
8
BLACK
6
CONTINUOUS
10
139.3675149999999974
20
-73.5765919999999909
11
139.4784080000000017
21
-73.6874849999999952
0
LINE
8
BLACK
6
CONTINUOUS
10
139.4784080000000017
20
-73.6874849999999952
11
139.5655370000000062
21
-73.8178829999999948
0
LINE
8
BLACK
6
CONTINUOUS
10
139.5655370000000062
20
-73.8178829999999948
11
139.625551999999999
21
-73.9627720000000011
0
LINE
8
BLACK
6
CONTINUOUS
10
139.625551999999999
20
-73.9627720000000011
11
139.6561480000000017
21
-74.1165859999999981
0
LINE
8
BLACK
6
CONTINUOUS
10
139.6561480000000017
20
-74.1165859999999981
11
139.6561480000000017
21
-74.2734140000000025
0
LINE
8
BLACK
6
CONTINUOUS
10
139.6561480000000017
20
-74.2734140000000025
11
139.625551999999999
21
-74.4272279999999995
0
LINE
8
BLACK
6
CONTINUOUS
10
139.625551999999999
20
-74.4272279999999995
11
139.5655370000000062
21
-74.5721169999999915
0
LINE
8
BLACK
6
CONTINUOUS
10
139.5655370000000062
20
-74.5721169999999915
11
139.4784080000000017
21
-74.7025149999999911
0
LINE
8
BLACK
6
CONTINUOUS
10
139.4784080000000017
20
-74.7025149999999911
11
139.3675149999999974
21
-74.8134079999999955
0
LINE
8
BLACK
6
CONTINUOUS
10
139.3675149999999974
20
-74.8134079999999955
11
139.2371169999999836
21
-74.9005369999999999
0
LINE
8
BLACK
6
CONTINUOUS
10
139.2371169999999836
20
-74.9005369999999999
11
139.0922280000000057
21
-74.9605519999999927
0
LINE
8
BLACK
6
CONTINUOUS
10
139.0922280000000057
20
-74.9605519999999927
11
138.9384139999999945
21
-74.9911479999999955
0
LINE
8
BLACK
6
CONTINUOUS
10
138.9384139999999945
20
-74.9911479999999955
11
138.7815860000000043
21
-74.9911479999999955
0
LINE
8
BLACK
6
CONTINUOUS
10
138.7815860000000043
20
-74.9911479999999955
11
138.6277719999999931
21
-74.9605519999999927
0
LINE
8
BLACK
6
CONTINUOUS
10
138.6277719999999931
20
-74.9605519999999927
11
138.4828829999999869
21
-74.9005369999999999
0
LINE
8
BLACK
6
CONTINUOUS
10
138.4828829999999869
20
-74.9005369999999999
11
138.3524850000000015
21
-74.8134079999999955
0
LINE
8
BLACK
6
CONTINUOUS
10
138.3524850000000015
20
-74.8134079999999955
11
138.2415919999999971
21
-74.7025149999999911
0
LINE
8
BLACK
6
CONTINUOUS
10
138.2415919999999971
20
-74.7025149999999911
11
138.1544629999999927
21
-74.5721169999999915
0
LINE
8
BLACK
6
CONTINUOUS
10
138.1544629999999927
20
-74.5721169999999915
11
138.0944479999999999
21
-74.4272279999999995
0
LINE
8
BLACK
6
CONTINUOUS
10
138.0944479999999999
20
-74.4272279999999995
11
138.0638519999999971
21
-74.2734140000000025
0
LINE
8
BLACK
6
CONTINUOUS
10
138.0638519999999971
20
-74.2734140000000025
11
138.0638519999999971
21
-74.1165859999999981
0
LINE
8
BLACK
6
CONTINUOUS
10
138.0638519999999971
20
-74.1165859999999981
11
138.0944479999999999
21
-73.9627720000000011
0
LINE
8
BLACK
6
CONTINUOUS
10
138.0944479999999999
20
-73.9627720000000011
11
138.1544629999999927
21
-73.8178829999999948
0
LINE
8
BLACK
6
CONTINUOUS
10
138.1544629999999927
20
-73.8178829999999948
11
138.2415919999999971
21
-73.6874849999999952
0
LINE
8
BLACK
6
CONTINUOUS
10
138.2415919999999971
20
-73.6874849999999952
11
138.3524850000000015
21
-73.5765919999999909
0
LINE
8
BLACK
6
CONTINUOUS
10
138.3524850000000015
20
-73.5765919999999909
11
138.4828829999999869
21
-73.4894630000000006
0
LINE
8
BLACK
6
CONTINUOUS
10
138.4828829999999869
20
-73.4894630000000006
11
138.5600000000000023
21
-73.4575200000000024
0
LINE
8
BLACK
6
CONTINUOUS
10
138.5600000000000023
20
-73.4575200000000024
11
138.5600000000000023
21
-72.539999999999992
0
LINE
8
BLACK
6
CONTINUOUS
10
138.5600000000000023
20
-72.539999999999992
11
138.5625670000000014
21
-72.5008419999999916
0
LINE
8
BLACK
6
CONTINUOUS
10
138.5625670000000014
20
-72.5008419999999916
11
138.5828359999999861
21
-72.4251950000000022
0
LINE
8
BLACK
6
CONTINUOUS
10
138.5828359999999861
20
-72.4251950000000022
11
138.6219940000000008
21
-72.357371999999998
0
LINE
8
BLACK
6
CONTINUOUS
10
138.6219940000000008
20
-72.357371999999998
11
138.6478679999999883
21
-72.3278679999999952
0
LINE
8
BLACK
6
CONTINUOUS
10
138.6478679999999883
20
-72.3278679999999952
11
138.9499999999999886
21
-72.0257359999999949
0
LINE
8
BLACK
6
CONTINUOUS
10
138.9499999999999886
20
-72.0257359999999949
11
138.9499999999999886
21
-71.
0
LINE
8
BLACK
6
CONTINUOUS
10
138.9499999999999886
20
-71.
11
138.9690300000000036
21
-70.9043289999999899
0
LINE
8
BLACK
6
CONTINUOUS
10
138.9690300000000036
20
-70.9043289999999899
11
139.0232230000000015
21
-70.8232229999999987
0
LINE
8
BLACK
6
CONTINUOUS
10
139.0232230000000015
20
-70.8232229999999987
11
139.104329000000007
21
-70.7690300000000008
0
LINE
8
BLACK
6
CONTINUOUS
10
139.104329000000007
20
-70.7690300000000008
11
139.1999999999999886
21
-70.75
0
LINE
8
BLACK
6
CONTINUOUS
10
139.1999999999999886
20
-70.75
11
140.4000000000000057
21
-70.75
0
LINE
8
BLACK
6
CONTINUOUS
10
140.4000000000000057
20
-70.75
11
140.4956709999999873
21
-70.7690300000000008
0
CIRCLE
8
BLACK
10
141.1999999999999886
20
-64.3999999999999915
40
1.
0
CIRCLE
8
BLACK
10
141.1999999999999886
20
-69.3999999999999915
40
0.35
0
CIRCLE
8
BLACK
10
136.7999999999999829
20
-89.3999999999999915
40
1.
0
CIRCLE
8
BLACK
10
136.7999999999999829
20
-84.3999999999999915
40
0.35
0
CIRCLE
8
BLACK
10
139.7999999999999829
20
-89.3999999999999915
40
1.
0
CIRCLE
8
BLACK
10
139.7999999999999829
20
-84.3999999999999915
40
0.35
0
CIRCLE
8
BLACK
10
142.7999999999999829
20
-89.3999999999999915
40
1.
0
CIRCLE
8
BLACK
10
142.7999999999999829
20
-84.3999999999999915
40
0.35
0
CIRCLE
8
BLACK
10
135.2999999999999829
20
-64.3999999999999915
40
1.
0
CIRCLE
8
BLACK
10
135.2999999999999829
20
-69.3999999999999915
40
0.35
0
CIRCLE
8
BLACK
10
136.7999999999999829
20
-66.5999999999999943
40
1.
0
CIRCLE
8
BLACK
10
136.7999999999999829
20
-71.5999999999999943
40
0.35
0
CIRCLE
8
BLACK
10
139.7999999999999829
20
-66.5999999999999943
40
1.
0
CIRCLE
8
BLACK
10
139.7999999999999829
20
-71.5999999999999943
40
0.35
0
CIRCLE
8
BLACK
10
142.7999999999999829
20
-66.5999999999999943
40
1.
0
CIRCLE
8
BLACK
10
142.7999999999999829
20
-71.5999999999999943
40
0.35
0
CIRCLE
8
BLACK
10
141.4000000000000057
20
-74.1949999999999932
40
0.4
0
CIRCLE
8
BLACK
10
138.8599999999999852
20
-74.1949999999999932
40
0.4
0
CIRCLE
8
BLACK
10
136.3199999999999932
20
-74.1949999999999932
40
0.4
0
CIRCLE
8
BLACK
10
133.7800000000000011
20
-74.1949999999999932
40
0.4
0
CIRCLE
8
BLACK
10
133.7800000000000011
20
-81.8149999999999977
40
0.4
0
CIRCLE
8
BLACK
10
136.3199999999999932
20
-81.8149999999999977
40
0.4
0
CIRCLE
8
BLACK
10
138.8599999999999852
20
-81.8149999999999977
40
0.4
0
CIRCLE
8
BLACK
10
141.4000000000000057
20
-81.8149999999999977
40
0.4
0
CIRCLE
8
BLACK
10
133.7999999999999829
20
-89.3999999999999915
40
1.
0
CIRCLE
8
BLACK
10
133.7999999999999829
20
-84.3999999999999915
40
0.35
0
CIRCLE
8
BLACK
10
133.7999999999999829
20
-66.5999999999999943
40
1.
0
CIRCLE
8
BLACK
10
133.7999999999999829
20
-71.5999999999999943
40
0.35
0
LINE
8
BLACK
6
CONTINUOUS
10
144.4102949999999908
20
-61.7769029999999972
11
144.4238249999999937
21
-61.7904330000000002
0
LINE
8
BLACK
6
CONTINUOUS
10
144.4238249999999937
20
-61.7904330000000002
11
144.4257279999999923
21
-61.7999999999999972
0
LINE
8
BLACK
6
CONTINUOUS
10
144.4257279999999923
20
-61.7999999999999972
11
144.4257279999999923
21
-91.
0
LINE
8
BLACK
6
CONTINUOUS
10
144.4257279999999923
20
-91.
11
144.4238249999999937
21
-91.0095669999999899
0
LINE
8
BLACK
6
CONTINUOUS
10
144.4238249999999937
20
-91.0095669999999899
11
144.4102949999999908
21
-91.0230969999999928
0
LINE
8
BLACK
6
CONTINUOUS
10
144.4102949999999908
20
-91.0230969999999928
11
144.4007279999999867
21
-91.0249999999999915
0
LINE
8
BLACK
6
CONTINUOUS
10
144.4007279999999867
20
-91.0249999999999915
11
131.9067359999999951
21
-91.0249999999999915
0
LINE
8
BLACK
6
CONTINUOUS
10
131.9067359999999951
20
-91.0249999999999915
11
131.897168999999991
21
-91.0230969999999928
0
LINE
8
BLACK
6
CONTINUOUS
10
131.897168999999991
20
-91.0230969999999928
11
131.8836389999999881
21
-91.0095669999999899
0
LINE
8
BLACK
6
CONTINUOUS
10
131.8836389999999881
20
-91.0095669999999899
11
131.8817359999999894
21
-91.
0
LINE
8
BLACK
6
CONTINUOUS
10
131.8817359999999894
20
-91.
11
131.8817359999999894
21
-61.7999999999999972
0
LINE
8
BLACK
6
CONTINUOUS
10
131.8817359999999894
20
-61.7999999999999972
11
131.8836389999999881
21
-61.7904330000000002
0
LINE
8
BLACK
6
CONTINUOUS
10
131.8836389999999881
20
-61.7904330000000002
11
131.897168999999991
21
-61.7769029999999972
0
LINE
8
BLACK
6
CONTINUOUS
10
131.897168999999991
20
-61.7769029999999972
11
131.9067359999999951
21
-61.7749999999999986
0
LINE
8
BLACK
6
CONTINUOUS
10
131.9067359999999951
20
-61.7749999999999986
11
144.4007279999999867
21
-61.7749999999999986
0
LINE
8
BLACK
6
CONTINUOUS
10
144.4007279999999867
20
-61.7749999999999986
11
144.4102949999999908
21
-61.7769029999999972
0
LINE
8
BLACK
6
CONTINUOUS
10
131.9317360000000008
20
-61.8249999999999957
11
131.9317360000000008
21
-90.9749999999999943
0
LINE
8
BLACK
6
CONTINUOUS
10
131.9317360000000008
20
-90.9749999999999943
11
144.375727999999981
21
-90.9749999999999943
0
LINE
8
BLACK
6
CONTINUOUS
10
144.375727999999981
20
-90.9749999999999943
11
144.375727999999981
21
-61.8249999999999957
0
LINE
8
BLACK
6
CONTINUOUS
10
144.375727999999981
20
-61.8249999999999957
11
131.9317360000000008
21
-61.8249999999999957
0
CIRCLE
8
BLACK
10
141.1999999999999886
20
-64.3999999999999915
40
1.
0
CIRCLE
8
BLACK
10
141.1999999999999886
20
-69.3999999999999915
40
0.35
0
CIRCLE
8
BLACK
10
136.7999999999999829
20
-89.3999999999999915
40
1.
0
CIRCLE
8
BLACK
10
136.7999999999999829
20
-84.3999999999999915
40
0.35
0
CIRCLE
8
BLACK
10
139.7999999999999829
20
-89.3999999999999915
40
1.
0
CIRCLE
8
BLACK
10
139.7999999999999829
20
-84.3999999999999915
40
0.35
0
CIRCLE
8
BLACK
10
142.7999999999999829
20
-89.3999999999999915
40
1.
0
CIRCLE
8
BLACK
10
142.7999999999999829
20
-84.3999999999999915
40
0.35
0
CIRCLE
8
BLACK
10
135.2999999999999829
20
-64.3999999999999915
40
1.
0
CIRCLE
8
BLACK
10
135.2999999999999829
20
-69.3999999999999915
40
0.35
0
CIRCLE
8
BLACK
10
136.7999999999999829
20
-66.5999999999999943
40
1.
0
CIRCLE
8
BLACK
10
136.7999999999999829
20
-71.5999999999999943
40
0.35
0
CIRCLE
8
BLACK
10
139.7999999999999829
20
-66.5999999999999943
40
1.
0
CIRCLE
8
BLACK
10
139.7999999999999829
20
-71.5999999999999943
40
0.35
0
CIRCLE
8
BLACK
10
142.7999999999999829
20
-66.5999999999999943
40
1.
0
CIRCLE
8
BLACK
10
142.7999999999999829
20
-71.5999999999999943
40
0.35
0
CIRCLE
8
BLACK
10
141.4000000000000057
20
-74.1949999999999932
40
0.4
0
CIRCLE
8
BLACK
10
138.8599999999999852
20
-74.1949999999999932
40
0.4
0
CIRCLE
8
BLACK
10
136.3199999999999932
20
-74.1949999999999932
40
0.4
0
CIRCLE
8
BLACK
10
133.7800000000000011
20
-74.1949999999999932
40
0.4
0
CIRCLE
8
BLACK
10
133.7800000000000011
20
-81.8149999999999977
40
0.4
0
CIRCLE
8
BLACK
10
136.3199999999999932
20
-81.8149999999999977
40
0.4
0
CIRCLE
8
BLACK
10
138.8599999999999852
20
-81.8149999999999977
40
0.4
0
CIRCLE
8
BLACK
10
141.4000000000000057
20
-81.8149999999999977
40
0.4
0
CIRCLE
8
BLACK
10
133.7999999999999829
20
-89.3999999999999915
40
1.
0
CIRCLE
8
BLACK
10
133.7999999999999829
20
-84.3999999999999915
40
0.35
0
CIRCLE
8
BLACK
10
133.7999999999999829
20
-66.5999999999999943
40
1.
0
CIRCLE
8
BLACK
10
133.7999999999999829
20
-71.5999999999999943
40
0.35
0
CIRCLE
8
WHITE
10
141.1999999999999886
20
-64.3999999999999915
40
0.999999
0
CIRCLE
8
WHITE
10
141.1999999999999886
20
-69.3999999999999915
40
0.35
0
CIRCLE
8
WHITE
10
136.7999999999999829
20
-89.3999999999999915
40
0.999999
0
CIRCLE
8
WHITE
10
136.7999999999999829
20
-84.3999999999999915
40
0.35
0
CIRCLE
8
WHITE
10
139.7999999999999829
20
-89.3999999999999915
40
0.999999
0
CIRCLE
8
WHITE
10
139.7999999999999829
20
-84.3999999999999915
40
0.35
0
CIRCLE
8
WHITE
10
142.7999999999999829
20
-89.3999999999999915
40
0.999999
0
CIRCLE
8
WHITE
10
142.7999999999999829
20
-84.3999999999999915
40
0.35
0
CIRCLE
8
WHITE
10
135.2999999999999829
20
-64.3999999999999915
40
0.999999
0
CIRCLE
8
WHITE
10
135.2999999999999829
20
-69.3999999999999915
40
0.35
0
CIRCLE
8
WHITE
10
136.7999999999999829
20
-66.5999999999999943
40
0.999999
0
CIRCLE
8
WHITE
10
136.7999999999999829
20
-71.5999999999999943
40
0.35
0
CIRCLE
8
WHITE
10
139.7999999999999829
20
-66.5999999999999943
40
0.999999
0
CIRCLE
8
WHITE
10
139.7999999999999829
20
-71.5999999999999943
40
0.35
0
CIRCLE
8
WHITE
10
142.7999999999999829
20
-66.5999999999999943
40
0.999999
0
CIRCLE
8
WHITE
10
142.7999999999999829
20
-71.5999999999999943
40
0.35
0
CIRCLE
8
WHITE
10
141.4000000000000057
20
-74.1949999999999932
40
0.4
0
CIRCLE
8
WHITE
10
138.8599999999999852
20
-74.1949999999999932
40
0.4
0
CIRCLE
8
WHITE
10
136.3199999999999932
20
-74.1949999999999932
40
0.4
0
CIRCLE
8
WHITE
10
133.7800000000000011
20
-74.1949999999999932
40
0.4
0
CIRCLE
8
WHITE
10
133.7800000000000011
20
-81.8149999999999977
40
0.4
0
CIRCLE
8
WHITE
10
136.3199999999999932
20
-81.8149999999999977
40
0.4
0
CIRCLE
8
WHITE
10
138.8599999999999852
20
-81.8149999999999977
40
0.4
0
CIRCLE
8
WHITE
10
141.4000000000000057
20
-81.8149999999999977
40
0.4
0
CIRCLE
8
WHITE
10
133.7999999999999829
20
-89.3999999999999915
40
0.999999
0
CIRCLE
8
WHITE
10
133.7999999999999829
20
-84.3999999999999915
40
0.35
0
CIRCLE
8
WHITE
10
133.7999999999999829
20
-66.5999999999999943
40
0.999999
0
CIRCLE
8
WHITE
10
133.7999999999999829
20
-71.5999999999999943
40
0.35
  0
ENDSEC
  0
EOF
